<?xml version="1.0" encoding="UTF-8" standalone="no"?>
<!DOCTYPE svg PUBLIC "-//W3C//DTD SVG 1.1//EN"
 "http://www.w3.org/Graphics/SVG/1.1/DTD/svg11.dtd">
<!-- Generated by graphviz version 2.43.0 (0)
 -->
<!-- Title: src/interop/casadi/include/alpaqa/casadi/casadi&#45;functions.hpp Pages: 1 -->
<svg width="771pt" height="214pt"
 viewBox="0.00 0.00 771.00 214.00" xmlns="http://www.w3.org/2000/svg" xmlns:xlink="http://www.w3.org/1999/xlink">
<g id="graph0" class="graph" transform="scale(1 1) rotate(0) translate(4 210)">
<title>src/interop/casadi/include/alpaqa/casadi/casadi&#45;functions.hpp</title>
<!-- Node1 -->
<g id="Node000001" class="node">
<title>Node1</title>
<g id="a_Node000001"><a xlink:title=" ">
<polygon fill="#999999" stroke="#666666" points="414,-206 289,-206 289,-165 414,-165 414,-206"/>
<text text-anchor="start" x="297" y="-194" font-family="Helvetica,sans-Serif" font-size="10.00">src/interop/casadi</text>
<text text-anchor="start" x="297" y="-183" font-family="Helvetica,sans-Serif" font-size="10.00">/include/alpaqa/casadi</text>
<text text-anchor="middle" x="351.5" y="-172" font-family="Helvetica,sans-Serif" font-size="10.00">/casadi&#45;functions.hpp</text>
</a>
</g>
</g>
<!-- Node2 -->
<g id="Node000002" class="node">
<title>Node2</title>
<g id="a_Node000002"><a xlink:href="casadi-namespace_8hpp.html" target="_top" xlink:title=" ">
<polygon fill="white" stroke="#666666" points="129,-74 0,-74 0,-55 129,-55 129,-74"/>
<text text-anchor="middle" x="64.5" y="-62" font-family="Helvetica,sans-Serif" font-size="10.00">casadi&#45;namespace.hpp</text>
</a>
</g>
</g>
<!-- Node1&#45;&gt;Node2 -->
<g id="edge1_Node000001_Node000002" class="edge">
<title>Node1&#45;&gt;Node2</title>
<g id="a_edge1_Node000001_Node000002"><a xlink:title=" ">
<path fill="none" stroke="#63b8ff" d="M289.25,-165C259.35,-155.1 223.2,-142.36 191.5,-129 155.04,-113.64 114.38,-92.58 89.11,-79"/>
<polygon fill="#63b8ff" stroke="#63b8ff" points="90.69,-75.88 80.23,-74.2 87.36,-82.03 90.69,-75.88"/>
</a>
</g>
</g>
<!-- Node3 -->
<g id="Node000003" class="node">
<title>Node3</title>
<g id="a_Node000003"><a xlink:href="casadi-types_8hpp.html" target="_top" xlink:title=" ">
<polygon fill="white" stroke="#666666" points="300.5,-129 200.5,-129 200.5,-110 300.5,-110 300.5,-129"/>
<text text-anchor="middle" x="250.5" y="-117" font-family="Helvetica,sans-Serif" font-size="10.00">casadi&#45;types.hpp</text>
</a>
</g>
</g>
<!-- Node1&#45;&gt;Node3 -->
<g id="edge2_Node000001_Node000003" class="edge">
<title>Node1&#45;&gt;Node3</title>
<g id="a_edge2_Node000001_Node000003"><a xlink:title=" ">
<path fill="none" stroke="#63b8ff" d="M320.65,-164.95C305.13,-155.12 286.69,-143.43 272.61,-134.51"/>
<polygon fill="#63b8ff" stroke="#63b8ff" points="274.38,-131.49 264.06,-129.09 270.63,-137.4 274.38,-131.49"/>
</a>
</g>
</g>
<!-- Node7 -->
<g id="Node000007" class="node">
<title>Node7</title>
<g id="a_Node000007"><a xlink:href="dl_8hpp.html" target="_top" xlink:title=" ">
<polygon fill="white" stroke="#666666" points="504,-129 403,-129 403,-110 504,-110 504,-129"/>
<text text-anchor="middle" x="453.5" y="-117" font-family="Helvetica,sans-Serif" font-size="10.00">alpaqa/util/dl.hpp</text>
</a>
</g>
</g>
<!-- Node1&#45;&gt;Node7 -->
<g id="edge7_Node000001_Node000007" class="edge">
<title>Node1&#45;&gt;Node7</title>
<g id="a_edge7_Node000001_Node000007"><a xlink:title=" ">
<path fill="none" stroke="#63b8ff" d="M382.66,-164.95C398.32,-155.12 416.95,-143.43 431.17,-134.51"/>
<polygon fill="#63b8ff" stroke="#63b8ff" points="433.2,-137.37 439.81,-129.09 429.48,-131.44 433.2,-137.37"/>
</a>
</g>
</g>
<!-- Node13 -->
<g id="Node000013" class="node">
<title>Node13</title>
<g id="a_Node000013"><a xlink:title=" ">
<polygon fill="#e0e0e0" stroke="#999999" points="574.5,-129 522.5,-129 522.5,-110 574.5,-110 574.5,-129"/>
<text text-anchor="middle" x="548.5" y="-117" font-family="Helvetica,sans-Serif" font-size="10.00">cassert</text>
</a>
</g>
</g>
<!-- Node1&#45;&gt;Node13 -->
<g id="edge14_Node000001_Node000013" class="edge">
<title>Node1&#45;&gt;Node13</title>
<g id="a_edge14_Node000001_Node000013"><a xlink:title=" ">
<path fill="none" stroke="#63b8ff" d="M411.68,-164.95C444.63,-154.24 484.36,-141.34 512.5,-132.19"/>
<polygon fill="#63b8ff" stroke="#63b8ff" points="513.88,-135.43 522.31,-129.01 511.72,-128.77 513.88,-135.43"/>
</a>
</g>
</g>
<!-- Node3&#45;&gt;Node2 -->
<g id="edge6_Node000003_Node000002" class="edge">
<title>Node3&#45;&gt;Node2</title>
<g id="a_edge6_Node000003_Node000002"><a xlink:title=" ">
<path fill="none" stroke="#63b8ff" d="M220.62,-109.98C189.12,-101.01 139.33,-86.82 104.47,-76.89"/>
<polygon fill="#63b8ff" stroke="#63b8ff" points="105.19,-73.46 94.62,-74.08 103.28,-80.19 105.19,-73.46"/>
</a>
</g>
</g>
<!-- Node4 -->
<g id="Node000004" class="node">
<title>Node4</title>
<g id="a_Node000004"><a xlink:title=" ">
<polygon fill="#e0e0e0" stroke="#999999" points="211.5,-74 147.5,-74 147.5,-55 211.5,-55 211.5,-74"/>
<text text-anchor="middle" x="179.5" y="-62" font-family="Helvetica,sans-Serif" font-size="10.00">algorithm</text>
</a>
</g>
</g>
<!-- Node3&#45;&gt;Node4 -->
<g id="edge3_Node000003_Node000004" class="edge">
<title>Node3&#45;&gt;Node4</title>
<g id="a_edge3_Node000003_Node000004"><a xlink:title=" ">
<path fill="none" stroke="#63b8ff" d="M239.09,-109.98C228.39,-102 212.16,-89.88 199.34,-80.31"/>
<polygon fill="#63b8ff" stroke="#63b8ff" points="201.22,-77.35 191.11,-74.17 197.03,-82.96 201.22,-77.35"/>
</a>
</g>
</g>
<!-- Node5 -->
<g id="Node000005" class="node">
<title>Node5</title>
<g id="a_Node000005"><a xlink:title=" ">
<polygon fill="#e0e0e0" stroke="#999999" points="271.5,-74 229.5,-74 229.5,-55 271.5,-55 271.5,-74"/>
<text text-anchor="middle" x="250.5" y="-62" font-family="Helvetica,sans-Serif" font-size="10.00">array</text>
</a>
</g>
</g>
<!-- Node3&#45;&gt;Node5 -->
<g id="edge4_Node000003_Node000005" class="edge">
<title>Node3&#45;&gt;Node5</title>
<g id="a_edge4_Node000003_Node000005"><a xlink:title=" ">
<path fill="none" stroke="#63b8ff" d="M250.5,-109.75C250.5,-102.8 250.5,-92.85 250.5,-84.13"/>
<polygon fill="#63b8ff" stroke="#63b8ff" points="254,-84.09 250.5,-74.09 247,-84.09 254,-84.09"/>
</a>
</g>
</g>
<!-- Node6 -->
<g id="Node000006" class="node">
<title>Node6</title>
<g id="a_Node000006"><a xlink:title=" ">
<polygon fill="#e0e0e0" stroke="#999999" points="333.5,-74 289.5,-74 289.5,-55 333.5,-55 333.5,-74"/>
<text text-anchor="middle" x="311.5" y="-62" font-family="Helvetica,sans-Serif" font-size="10.00">string</text>
</a>
</g>
</g>
<!-- Node3&#45;&gt;Node6 -->
<g id="edge5_Node000003_Node000006" class="edge">
<title>Node3&#45;&gt;Node6</title>
<g id="a_edge5_Node000003_Node000006"><a xlink:title=" ">
<path fill="none" stroke="#63b8ff" d="M260.3,-109.98C269.32,-102.15 282.91,-90.34 293.82,-80.86"/>
<polygon fill="#63b8ff" stroke="#63b8ff" points="296.27,-83.37 301.52,-74.17 291.68,-78.09 296.27,-83.37"/>
</a>
</g>
</g>
<!-- Node8 -->
<g id="Node000008" class="node">
<title>Node8</title>
<g id="a_Node000008"><a xlink:title=" ">
<polygon fill="#e0e0e0" stroke="#999999" points="454,-19 361,-19 361,0 454,0 454,-19"/>
<text text-anchor="middle" x="407.5" y="-7" font-family="Helvetica,sans-Serif" font-size="10.00">alpaqa/export.h</text>
</a>
</g>
</g>
<!-- Node7&#45;&gt;Node8 -->
<g id="edge8_Node000007_Node000008" class="edge">
<title>Node7&#45;&gt;Node8</title>
<g id="a_edge8_Node000007_Node000008"><a xlink:title=" ">
<path fill="none" stroke="#63b8ff" d="M426.93,-109.94C410.37,-103.06 390.38,-91.6 380.5,-74 371.94,-58.75 381.92,-40.24 392.09,-27.15"/>
<polygon fill="#63b8ff" stroke="#63b8ff" points="394.84,-29.32 398.6,-19.41 389.48,-24.81 394.84,-29.32"/>
</a>
</g>
</g>
<!-- Node9 -->
<g id="Node000009" class="node">
<title>Node9</title>
<g id="a_Node000009"><a xlink:href="dl-flags_8hpp.html" target="_top" xlink:title=" ">
<polygon fill="white" stroke="#666666" points="517.5,-74 389.5,-74 389.5,-55 517.5,-55 517.5,-74"/>
<text text-anchor="middle" x="453.5" y="-62" font-family="Helvetica,sans-Serif" font-size="10.00">alpaqa/util/dl&#45;flags.hpp</text>
</a>
</g>
</g>
<!-- Node7&#45;&gt;Node9 -->
<g id="edge9_Node000007_Node000009" class="edge">
<title>Node7&#45;&gt;Node9</title>
<g id="a_edge9_Node000007_Node000009"><a xlink:title=" ">
<path fill="none" stroke="#63b8ff" d="M453.5,-109.75C453.5,-102.8 453.5,-92.85 453.5,-84.13"/>
<polygon fill="#63b8ff" stroke="#63b8ff" points="457,-84.09 453.5,-74.09 450,-84.09 457,-84.09"/>
</a>
</g>
</g>
<!-- Node10 -->
<g id="Node000010" class="node">
<title>Node10</title>
<g id="a_Node000010"><a xlink:title=" ">
<polygon fill="#e0e0e0" stroke="#999999" points="603.5,-74 535.5,-74 535.5,-55 603.5,-55 603.5,-74"/>
<text text-anchor="middle" x="569.5" y="-62" font-family="Helvetica,sans-Serif" font-size="10.00">filesystem</text>
</a>
</g>
</g>
<!-- Node7&#45;&gt;Node10 -->
<g id="edge11_Node000007_Node000010" class="edge">
<title>Node7&#45;&gt;Node10</title>
<g id="a_edge11_Node000007_Node000010"><a xlink:title=" ">
<path fill="none" stroke="#63b8ff" d="M472.14,-109.98C490.8,-101.46 519.75,-88.23 541.24,-78.41"/>
<polygon fill="#63b8ff" stroke="#63b8ff" points="542.88,-81.51 550.52,-74.17 539.97,-75.14 542.88,-81.51"/>
</a>
</g>
</g>
<!-- Node11 -->
<g id="Node000011" class="node">
<title>Node11</title>
<g id="a_Node000011"><a xlink:title=" ">
<polygon fill="#e0e0e0" stroke="#999999" points="679.5,-74 621.5,-74 621.5,-55 679.5,-55 679.5,-74"/>
<text text-anchor="middle" x="650.5" y="-62" font-family="Helvetica,sans-Serif" font-size="10.00">memory</text>
</a>
</g>
</g>
<!-- Node7&#45;&gt;Node11 -->
<g id="edge12_Node000007_Node000011" class="edge">
<title>Node7&#45;&gt;Node11</title>
<g id="a_edge12_Node000007_Node000011"><a xlink:title=" ">
<path fill="none" stroke="#63b8ff" d="M485.15,-109.98C519.55,-100.73 574.54,-85.94 611.56,-75.98"/>
<polygon fill="#63b8ff" stroke="#63b8ff" points="612.75,-79.28 621.49,-73.3 610.93,-72.52 612.75,-79.28"/>
</a>
</g>
</g>
<!-- Node12 -->
<g id="Node000012" class="node">
<title>Node12</title>
<g id="a_Node000012"><a xlink:title=" ">
<polygon fill="#e0e0e0" stroke="#999999" points="763,-74 698,-74 698,-55 763,-55 763,-74"/>
<text text-anchor="middle" x="730.5" y="-62" font-family="Helvetica,sans-Serif" font-size="10.00">stdexcept</text>
</a>
</g>
</g>
<!-- Node7&#45;&gt;Node12 -->
<g id="edge13_Node000007_Node000012" class="edge">
<title>Node7&#45;&gt;Node12</title>
<g id="a_edge13_Node000007_Node000012"><a xlink:title=" ">
<path fill="none" stroke="#63b8ff" d="M499.46,-109.97C544.73,-101.53 616.12,-88.12 687.83,-74.11"/>
<polygon fill="#63b8ff" stroke="#63b8ff" points="688.81,-77.49 697.95,-72.13 687.46,-70.62 688.81,-77.49"/>
</a>
</g>
</g>
<!-- Node9&#45;&gt;Node8 -->
<g id="edge10_Node000009_Node000008" class="edge">
<title>Node9&#45;&gt;Node8</title>
<g id="a_edge10_Node000009_Node000008"><a xlink:title=" ">
<path fill="none" stroke="#63b8ff" d="M445.9,-54.75C439.34,-47.18 429.68,-36.05 421.69,-26.84"/>
<polygon fill="#63b8ff" stroke="#63b8ff" points="424.15,-24.35 414.95,-19.09 418.87,-28.94 424.15,-24.35"/>
</a>
</g>
</g>
</g>
</svg>
