<?xml version="1.0" encoding="UTF-8" standalone="no"?>
<!DOCTYPE svg PUBLIC "-//W3C//DTD SVG 1.1//EN"
 "http://www.w3.org/Graphics/SVG/1.1/DTD/svg11.dtd">
<!-- Generated by graphviz version 2.43.0 (0)
 -->
<!-- Title: src/interop/casadi/include/alpaqa/implementation/casadi/CasADiLoader&#45;util.hpp Pages: 1 -->
<!--zoomable 434 -->

<svg id="main" version="1.1" xmlns="http://www.w3.org/2000/svg" xmlns:xlink="http://www.w3.org/1999/xlink" xml:space="preserve" onload="init(evt)">
<style type="text/css"><![CDATA[
.node, .edge {opacity: 0.7;}
.node.selected, .edge.selected {opacity: 1;}
.edge:hover path { stroke: red; }
.edge:hover polygon { stroke: red; fill: red; }
]]></style>

<defs>
  <circle id="rim" cx="0" cy="0" r="7"/>
  <circle id="rim2" cx="0" cy="0" r="3.5"/>
  <g id="zoomPlus">
    <use xlink:href="#rim" fill="#404040"><set attributeName="fill" to="#808080" begin="zoomplus.mouseover" end="zoomplus.mouseout"/></use>
    <path d="M-4,0h8M0,-4v8" fill="none" stroke="white" stroke-width="1.5" pointer-events="none"/>
  </g>
  <g id="zoomMin">
    <use xlink:href="#rim" fill="#404040"><set attributeName="fill" to="#808080" begin="zoomminus.mouseover" end="zoomminus.mouseout"/></use>
    <path d="M-4,0h8" fill="none" stroke="white" stroke-width="1.5" pointer-events="none"/>
  </g>
  <g id="arrowUp" transform="translate(30 24)">
    <use xlink:href="#rim"/>
    <path pointer-events="none" fill="none" stroke="white" stroke-width="1.5" d="M0,-3.0v7 M-2.5,-0.5L0,-3.0L2.5,-0.5"/>
  </g>
  <g id="arrowRight" transform="rotate(90) translate(36 -43)">
    <use xlink:href="#rim"/>
    <path pointer-events="none" fill="none" stroke="white" stroke-width="1.5" d="M0,-3.0v7 M-2.5,-0.5L0,-3.0L2.5,-0.5"/>
  </g>
  <g id="arrowDown" transform="rotate(180) translate(-30 -48)">
    <use xlink:href="#rim"/>
    <path pointer-events="none" fill="none" stroke="white" stroke-width="1.5" d="M0,-3.0v7 M-2.5,-0.5L0,-3.0L2.5,-0.5"/>
  </g>
  <g id="arrowLeft" transform="rotate(270) translate(-36 17)">
    <use xlink:href="#rim"/>
    <path pointer-events="none" fill="none" stroke="white" stroke-width="1.5" d="M0,-3.0v7 M-2.5,-0.5L0,-3.0L2.5,-0.5"/>
  </g>
  <g id="resetDef">
    <use xlink:href="#rim2" fill="#404040"><set attributeName="fill" to="#808080" begin="reset.mouseover" end="reset.mouseout"/></use>
  </g>
</defs>
<script type="application/ecmascript">
var viewWidth = 1775;
var viewHeight = 434;
var sectionId = 'dynsection-0';
</script>
<script type="application/ecmascript" xlink:href="svg.min.js"/>
<svg id="graph" class="graph">
<g id="viewport">
<title>src/interop/casadi/include/alpaqa/implementation/casadi/CasADiLoader&#45;util.hpp</title>
<!-- Node1 -->
<g id="Node000001" class="node">
<title>Node1</title>
<g id="a_Node000001"><a xlink:title=" ">
<polygon fill="#999999" stroke="#666666" points="884,-426 712,-426 712,-385 884,-385 884,-426"/>
<text text-anchor="start" x="720" y="-414" font-family="Helvetica,sans-Serif" font-size="10.00">src/interop/casadi</text>
<text text-anchor="start" x="720" y="-403" font-family="Helvetica,sans-Serif" font-size="10.00">/include/alpaqa/implementation</text>
<text text-anchor="middle" x="798" y="-392" font-family="Helvetica,sans-Serif" font-size="10.00">/casadi/CasADiLoader&#45;util.hpp</text>
</a>
</g>
</g>
<!-- Node2 -->
<g id="Node000002" class="node">
<title>Node2</title>
<g id="a_Node000002"><a xlink:href="CasADiFunctionWrapper_8hpp.html" target="_top" xlink:title=" ">
<polygon fill="white" stroke="#666666" points="770,-349 606,-349 606,-319 770,-319 770,-349"/>
<text text-anchor="start" x="614" y="-337" font-family="Helvetica,sans-Serif" font-size="10.00">alpaqa/casadi/CasADiFunction</text>
<text text-anchor="middle" x="688" y="-326" font-family="Helvetica,sans-Serif" font-size="10.00">Wrapper.hpp</text>
</a>
</g>
</g>
<!-- Node1&#45;&gt;Node2 -->
<g id="edge1_Node000001_Node000002" class="edge">
<title>Node1&#45;&gt;Node2</title>
<g id="a_edge1_Node000001_Node000002"><a xlink:title=" ">
<path fill="none" stroke="#63b8ff" d="M767.07,-384.96C751.98,-375.42 733.88,-363.99 718.81,-354.47"/>
<polygon fill="#63b8ff" stroke="#63b8ff" points="720.66,-351.5 710.34,-349.11 716.92,-357.41 720.66,-351.5"/>
</a>
</g>
</g>
<!-- Node4 -->
<g id="Node000004" class="node">
<title>Node4</title>
<g id="a_Node000004"><a xlink:href="casadi-namespace_8hpp.html" target="_top" xlink:title=" ">
<polygon fill="white" stroke="#666666" points="695.5,-85 576.5,-85 576.5,-55 695.5,-55 695.5,-85"/>
<text text-anchor="start" x="584.5" y="-73" font-family="Helvetica,sans-Serif" font-size="10.00">alpaqa/casadi/casadi</text>
<text text-anchor="middle" x="636" y="-62" font-family="Helvetica,sans-Serif" font-size="10.00">&#45;namespace.hpp</text>
</a>
</g>
</g>
<!-- Node1&#45;&gt;Node4 -->
<g id="edge40_Node000001_Node000004" class="edge">
<title>Node1&#45;&gt;Node4</title>
<g id="a_edge40_Node000001_Node000004"><a xlink:title=" ">
<path fill="none" stroke="#63b8ff" d="M711.87,-393.43C547.92,-370.35 201.18,-311.29 133,-217 125.19,-206.2 124.31,-197.11 133,-187 167.72,-146.6 318.32,-163.92 370,-151 408.87,-141.28 416.78,-133.01 455,-121 493.36,-108.95 536.76,-96.91 571.45,-87.66"/>
<polygon fill="#63b8ff" stroke="#63b8ff" points="572.69,-90.95 581.46,-85 570.89,-84.19 572.69,-90.95"/>
</a>
</g>
</g>
<!-- Node12 -->
<g id="Node000012" class="node">
<title>Node12</title>
<g id="a_Node000012"><a xlink:title=" ">
<polygon fill="#e0e0e0" stroke="#999999" points="178.5,-79.5 113.5,-79.5 113.5,-60.5 178.5,-60.5 178.5,-79.5"/>
<text text-anchor="middle" x="146" y="-67.5" font-family="Helvetica,sans-Serif" font-size="10.00">stdexcept</text>
</a>
</g>
</g>
<!-- Node1&#45;&gt;Node12 -->
<g id="edge49_Node000001_Node000012" class="edge">
<title>Node1&#45;&gt;Node12</title>
<g id="a_edge49_Node000001_Node000012"><a xlink:title=" ">
<path fill="none" stroke="#63b8ff" d="M711.8,-403.09C524.22,-399.33 91.4,-386.64 37,-349 4.78,-326.71 0,-308.17 0,-269 0,-269 0,-269 0,-201 0,-141.05 69.51,-101.94 112.61,-83.45"/>
<polygon fill="#63b8ff" stroke="#63b8ff" points="113.99,-86.67 121.89,-79.61 111.31,-80.2 113.99,-86.67"/>
</a>
</g>
</g>
<!-- Node19 -->
<g id="Node000019" class="node">
<title>Node19</title>
<g id="a_Node000019"><a xlink:href="casadi-types_8hpp.html" target="_top" xlink:title=" ">
<polygon fill="white" stroke="#666666" points="1491,-145.5 1391,-145.5 1391,-126.5 1491,-126.5 1491,-145.5"/>
<text text-anchor="middle" x="1441" y="-133.5" font-family="Helvetica,sans-Serif" font-size="10.00">casadi&#45;types.hpp</text>
</a>
</g>
</g>
<!-- Node1&#45;&gt;Node19 -->
<g id="edge51_Node000001_Node000019" class="edge">
<title>Node1&#45;&gt;Node19</title>
<g id="a_edge51_Node000001_Node000019"><a xlink:title=" ">
<path fill="none" stroke="#63b8ff" d="M884.03,-394.28C1052.66,-372.28 1416.56,-314.36 1489,-217 1504.99,-195.51 1480.29,-168.4 1460.8,-151.9"/>
<polygon fill="#63b8ff" stroke="#63b8ff" points="1462.88,-149.08 1452.9,-145.52 1458.48,-154.53 1462.88,-149.08"/>
</a>
</g>
</g>
<!-- Node21 -->
<g id="Node000021" class="node">
<title>Node21</title>
<g id="a_Node000021"><a xlink:title=" ">
<polygon fill="#e0e0e0" stroke="#999999" points="1506,-79.5 1464,-79.5 1464,-60.5 1506,-60.5 1506,-79.5"/>
<text text-anchor="middle" x="1485" y="-67.5" font-family="Helvetica,sans-Serif" font-size="10.00">array</text>
</a>
</g>
</g>
<!-- Node1&#45;&gt;Node21 -->
<g id="edge47_Node000001_Node000021" class="edge">
<title>Node1&#45;&gt;Node21</title>
<g id="a_edge47_Node000001_Node000021"><a xlink:title=" ">
<path fill="none" stroke="#63b8ff" d="M884.36,-398.57C1088.55,-383.41 1584,-339.36 1584,-269 1584,-269 1584,-269 1584,-201 1584,-150.35 1535.85,-107.12 1506.71,-85.6"/>
<polygon fill="#63b8ff" stroke="#63b8ff" points="1508.52,-82.59 1498.35,-79.63 1504.46,-88.29 1508.52,-82.59"/>
</a>
</g>
</g>
<!-- Node22 -->
<g id="Node000022" class="node">
<title>Node22</title>
<g id="a_Node000022"><a xlink:href="dl_8hpp.html" target="_top" xlink:title=" ">
<polygon fill="white" stroke="#666666" points="361.5,-145.5 260.5,-145.5 260.5,-126.5 361.5,-126.5 361.5,-145.5"/>
<text text-anchor="middle" x="311" y="-133.5" font-family="Helvetica,sans-Serif" font-size="10.00">alpaqa/util/dl.hpp</text>
</a>
</g>
</g>
<!-- Node1&#45;&gt;Node22 -->
<g id="edge46_Node000001_Node000022" class="edge">
<title>Node1&#45;&gt;Node22</title>
<g id="a_edge46_Node000001_Node000022"><a xlink:title=" ">
<path fill="none" stroke="#63b8ff" d="M711.93,-404.43C527.1,-403.37 105.4,-395.8 62,-349 13.04,-296.21 16.37,-242.7 62,-187 85.34,-158.51 184.26,-145.91 250.17,-140.59"/>
<polygon fill="#63b8ff" stroke="#63b8ff" points="250.75,-144.06 260.45,-139.8 250.21,-137.08 250.75,-144.06"/>
</a>
</g>
</g>
<!-- Node26 -->
<g id="Node000026" class="node">
<title>Node26</title>
<g id="a_Node000026"><a xlink:title=" ">
<polygon fill="#e0e0e0" stroke="#999999" points="824,-211.5 768,-211.5 768,-192.5 824,-192.5 824,-211.5"/>
<text text-anchor="middle" x="796" y="-199.5" font-family="Helvetica,sans-Serif" font-size="10.00">optional</text>
</a>
</g>
</g>
<!-- Node1&#45;&gt;Node26 -->
<g id="edge48_Node000001_Node000026" class="edge">
<title>Node1&#45;&gt;Node26</title>
<g id="a_edge48_Node000001_Node000026"><a xlink:title=" ">
<path fill="none" stroke="#63b8ff" d="M797.8,-384.81C797.42,-346.04 796.57,-260.26 796.19,-222.03"/>
<polygon fill="#63b8ff" stroke="#63b8ff" points="799.69,-221.76 796.09,-211.8 792.69,-221.83 799.69,-221.76"/>
</a>
</g>
</g>
<!-- Node28 -->
<g id="Node000028" class="node">
<title>Node28</title>
<g id="a_Node000028"><a xlink:title=" ">
<polygon fill="#e0e0e0" stroke="#999999" points="887.5,-211.5 842.5,-211.5 842.5,-192.5 887.5,-192.5 887.5,-211.5"/>
<text text-anchor="middle" x="865" y="-199.5" font-family="Helvetica,sans-Serif" font-size="10.00">utility</text>
</a>
</g>
</g>
<!-- Node1&#45;&gt;Node28 -->
<g id="edge50_Node000001_Node000028" class="edge">
<title>Node1&#45;&gt;Node28</title>
<g id="a_edge50_Node000001_Node000028"><a xlink:title=" ">
<path fill="none" stroke="#63b8ff" d="M804.55,-384.81C817.49,-345.88 846.21,-259.52 858.84,-221.54"/>
<polygon fill="#63b8ff" stroke="#63b8ff" points="862.24,-222.39 862.08,-211.8 855.6,-220.18 862.24,-222.39"/>
</a>
</g>
</g>
<!-- Node29 -->
<g id="Node000029" class="node">
<title>Node29</title>
<g id="a_Node000029"><a xlink:href="demangled-typename_8hpp.html" target="_top" xlink:title=" ">
<polygon fill="white" stroke="#666666" points="1738,-151 1612,-151 1612,-121 1738,-121 1738,-151"/>
<text text-anchor="start" x="1620" y="-139" font-family="Helvetica,sans-Serif" font-size="10.00">alpaqa/util/demangled</text>
<text text-anchor="middle" x="1675" y="-128" font-family="Helvetica,sans-Serif" font-size="10.00">&#45;typename.hpp</text>
</a>
</g>
</g>
<!-- Node1&#45;&gt;Node29 -->
<g id="edge41_Node000001_Node000029" class="edge">
<title>Node1&#45;&gt;Node29</title>
<g id="a_edge41_Node000001_Node000029"><a xlink:title=" ">
<path fill="none" stroke="#63b8ff" d="M884.08,-403.76C1079.09,-401.34 1542.03,-391.18 1598,-349 1658.23,-303.6 1671.42,-206.5 1674.25,-161.2"/>
<polygon fill="#63b8ff" stroke="#63b8ff" points="1677.75,-161.28 1674.77,-151.11 1670.76,-160.92 1677.75,-161.28"/>
</a>
</g>
</g>
<!-- Node3 -->
<g id="Node000003" class="node">
<title>Node3</title>
<g id="a_Node000003"><a xlink:title=" ">
<polygon fill="#e0e0e0" stroke="#999999" points="261.5,-217 142.5,-217 142.5,-187 261.5,-187 261.5,-217"/>
<text text-anchor="start" x="150.5" y="-205" font-family="Helvetica,sans-Serif" font-size="10.00">alpaqa/casadi&#45;loader</text>
<text text-anchor="middle" x="202" y="-194" font-family="Helvetica,sans-Serif" font-size="10.00">&#45;export.h</text>
</a>
</g>
</g>
<!-- Node2&#45;&gt;Node3 -->
<g id="edge2_Node000002_Node000003" class="edge">
<title>Node2&#45;&gt;Node3</title>
<g id="a_edge2_Node000002_Node000003"><a xlink:title=" ">
<path fill="none" stroke="#63b8ff" d="M605.79,-319.89C555.5,-311.13 490.06,-298.39 433,-283 367.2,-265.25 293.06,-238.29 246.93,-220.66"/>
<polygon fill="#63b8ff" stroke="#63b8ff" points="248.12,-217.37 237.53,-217.05 245.61,-223.9 248.12,-217.37"/>
</a>
</g>
</g>
<!-- Node2&#45;&gt;Node4 -->
<g id="edge3_Node000002_Node000004" class="edge">
<title>Node2&#45;&gt;Node4</title>
<g id="a_edge3_Node000002_Node000004"><a xlink:title=" ">
<path fill="none" stroke="#63b8ff" d="M696.1,-318.66C709.95,-292.21 735.28,-234.15 720,-187 707.85,-149.5 678.53,-113.96 657.97,-92.33"/>
<polygon fill="#63b8ff" stroke="#63b8ff" points="660.33,-89.74 650.84,-85.02 655.32,-94.62 660.33,-89.74"/>
</a>
</g>
</g>
<!-- Node5 -->
<g id="Node000005" class="node">
<title>Node5</title>
<g id="a_Node000005"><a xlink:href="config_8hpp.html" target="_top" xlink:title=" ">
<polygon fill="white" stroke="#666666" points="1259.5,-277.5 1124.5,-277.5 1124.5,-258.5 1259.5,-258.5 1259.5,-277.5"/>
<text text-anchor="middle" x="1192" y="-265.5" font-family="Helvetica,sans-Serif" font-size="10.00">alpaqa/config/config.hpp</text>
</a>
</g>
</g>
<!-- Node2&#45;&gt;Node5 -->
<g id="edge4_Node000002_Node000005" class="edge">
<title>Node2&#45;&gt;Node5</title>
<g id="a_edge4_Node000002_Node000005"><a xlink:title=" ">
<path fill="none" stroke="#63b8ff" d="M770.1,-322.57C865.5,-310.46 1021.73,-290.62 1114.93,-278.79"/>
<polygon fill="#63b8ff" stroke="#63b8ff" points="1115.38,-282.26 1124.86,-277.53 1114.5,-275.31 1115.38,-282.26"/>
</a>
</g>
</g>
<!-- Node2&#45;&gt;Node12 -->
<g id="edge11_Node000002_Node000012" class="edge">
<title>Node2&#45;&gt;Node12</title>
<g id="a_edge11_Node000002_Node000012"><a xlink:title=" ">
<path fill="none" stroke="#63b8ff" d="M605.89,-328.87C465.14,-319.79 187.61,-292.53 133,-217 105.12,-178.45 124.9,-118.34 137.59,-88.72"/>
<polygon fill="#63b8ff" stroke="#63b8ff" points="140.78,-90.15 141.7,-79.6 134.4,-87.28 140.78,-90.15"/>
</a>
</g>
</g>
<!-- Node13 -->
<g id="Node000013" class="node">
<title>Node13</title>
<g id="a_Node000013"><a xlink:title=" ">
<polygon fill="#e0e0e0" stroke="#999999" points="1568,-79.5 1524,-79.5 1524,-60.5 1568,-60.5 1568,-79.5"/>
<text text-anchor="middle" x="1546" y="-67.5" font-family="Helvetica,sans-Serif" font-size="10.00">string</text>
</a>
</g>
</g>
<!-- Node2&#45;&gt;Node13 -->
<g id="edge12_Node000002_Node000013" class="edge">
<title>Node2&#45;&gt;Node13</title>
<g id="a_edge12_Node000002_Node000013"><a xlink:title=" ">
<path fill="none" stroke="#63b8ff" d="M770.02,-332.47C952.76,-329.57 1385.45,-312.5 1489,-217 1526.25,-182.65 1539.47,-121.02 1543.91,-89.98"/>
<polygon fill="#63b8ff" stroke="#63b8ff" points="1547.42,-90.06 1545.21,-79.7 1540.48,-89.18 1547.42,-90.06"/>
</a>
</g>
</g>
<!-- Node14 -->
<g id="Node000014" class="node">
<title>Node14</title>
<g id="a_Node000014"><a xlink:title=" ">
<polygon fill="#e0e0e0" stroke="#999999" points="711.5,-211.5 664.5,-211.5 664.5,-192.5 711.5,-192.5 711.5,-211.5"/>
<text text-anchor="middle" x="688" y="-199.5" font-family="Helvetica,sans-Serif" font-size="10.00">vector</text>
</a>
</g>
</g>
<!-- Node2&#45;&gt;Node14 -->
<g id="edge13_Node000002_Node000014" class="edge">
<title>Node2&#45;&gt;Node14</title>
<g id="a_edge13_Node000002_Node000014"><a xlink:title=" ">
<path fill="none" stroke="#63b8ff" d="M688,-318.84C688,-295.34 688,-248.26 688,-221.93"/>
<polygon fill="#63b8ff" stroke="#63b8ff" points="691.5,-221.75 688,-211.75 684.5,-221.75 691.5,-221.75"/>
</a>
</g>
</g>
<!-- Node15 -->
<g id="Node000015" class="node">
<title>Node15</title>
<g id="a_Node000015"><a xlink:href="casadi-external-function_8hpp.html" target="_top" xlink:title=" ">
<polygon fill="white" stroke="#666666" points="567.5,-283 442.5,-283 442.5,-253 567.5,-253 567.5,-283"/>
<text text-anchor="start" x="450.5" y="-271" font-family="Helvetica,sans-Serif" font-size="10.00">alpaqa/casadi/casadi</text>
<text text-anchor="middle" x="505" y="-260" font-family="Helvetica,sans-Serif" font-size="10.00">&#45;external&#45;function.hpp</text>
</a>
</g>
</g>
<!-- Node2&#45;&gt;Node15 -->
<g id="edge14_Node000002_Node000015" class="edge">
<title>Node2&#45;&gt;Node15</title>
<g id="a_edge14_Node000002_Node000015"><a xlink:title=" ">
<path fill="none" stroke="#63b8ff" d="M647.84,-318.95C620.43,-309.37 583.92,-296.6 554.68,-286.37"/>
<polygon fill="#63b8ff" stroke="#63b8ff" points="555.66,-283.01 545.07,-283.01 553.35,-289.62 555.66,-283.01"/>
</a>
</g>
</g>
<!-- Node6 -->
<g id="Node000006" class="node">
<title>Node6</title>
<g id="a_Node000006"><a xlink:href="quadmath-print_8hpp.html" target="_top" xlink:title=" ">
<polygon fill="white" stroke="#666666" points="1113.5,-217 992.5,-217 992.5,-187 1113.5,-187 1113.5,-217"/>
<text text-anchor="start" x="1000.5" y="-205" font-family="Helvetica,sans-Serif" font-size="10.00">alpaqa/util/quadmath</text>
<text text-anchor="middle" x="1053" y="-194" font-family="Helvetica,sans-Serif" font-size="10.00">/quadmath&#45;print.hpp</text>
</a>
</g>
</g>
<!-- Node5&#45;&gt;Node6 -->
<g id="edge5_Node000005_Node000006" class="edge">
<title>Node5&#45;&gt;Node6</title>
<g id="a_edge5_Node000005_Node000006"><a xlink:title=" ">
<path fill="none" stroke="#63b8ff" d="M1173.25,-258.37C1152.79,-248.95 1119.43,-233.59 1093.03,-221.43"/>
<polygon fill="#63b8ff" stroke="#63b8ff" points="1094.2,-218.12 1083.66,-217.12 1091.28,-224.48 1094.2,-218.12"/>
</a>
</g>
</g>
<!-- Node7 -->
<g id="Node000007" class="node">
<title>Node7</title>
<g id="a_Node000007"><a xlink:href="quadmath_8hpp.html" target="_top" xlink:title=" ">
<polygon fill="white" stroke="#666666" points="1252.5,-217 1131.5,-217 1131.5,-187 1252.5,-187 1252.5,-217"/>
<text text-anchor="start" x="1139.5" y="-205" font-family="Helvetica,sans-Serif" font-size="10.00">alpaqa/util/quadmath</text>
<text text-anchor="middle" x="1192" y="-194" font-family="Helvetica,sans-Serif" font-size="10.00">/quadmath.hpp</text>
</a>
</g>
</g>
<!-- Node5&#45;&gt;Node7 -->
<g id="edge6_Node000005_Node000007" class="edge">
<title>Node5&#45;&gt;Node7</title>
<g id="a_edge6_Node000005_Node000007"><a xlink:title=" ">
<path fill="none" stroke="#63b8ff" d="M1192,-258.37C1192,-250.49 1192,-238.45 1192,-227.6"/>
<polygon fill="#63b8ff" stroke="#63b8ff" points="1195.5,-227.36 1192,-217.36 1188.5,-227.36 1195.5,-227.36"/>
</a>
</g>
</g>
<!-- Node8 -->
<g id="Node000008" class="node">
<title>Node8</title>
<g id="a_Node000008"><a xlink:title=" ">
<polygon fill="#e0e0e0" stroke="#999999" points="1329.5,-211.5 1270.5,-211.5 1270.5,-192.5 1329.5,-192.5 1329.5,-211.5"/>
<text text-anchor="middle" x="1300" y="-199.5" font-family="Helvetica,sans-Serif" font-size="10.00">complex</text>
</a>
</g>
</g>
<!-- Node5&#45;&gt;Node8 -->
<g id="edge7_Node000005_Node000008" class="edge">
<title>Node5&#45;&gt;Node8</title>
<g id="a_edge7_Node000005_Node000008"><a xlink:title=" ">
<path fill="none" stroke="#63b8ff" d="M1206.57,-258.37C1224.52,-247.73 1255.27,-229.51 1276.56,-216.89"/>
<polygon fill="#63b8ff" stroke="#63b8ff" points="1278.5,-219.81 1285.32,-211.7 1274.93,-213.79 1278.5,-219.81"/>
</a>
</g>
</g>
<!-- Node9 -->
<g id="Node000009" class="node">
<title>Node9</title>
<g id="a_Node000009"><a xlink:title=" ">
<polygon fill="#e0e0e0" stroke="#999999" points="1392,-211.5 1348,-211.5 1348,-192.5 1392,-192.5 1392,-211.5"/>
<text text-anchor="middle" x="1370" y="-199.5" font-family="Helvetica,sans-Serif" font-size="10.00">limits</text>
</a>
</g>
</g>
<!-- Node5&#45;&gt;Node9 -->
<g id="edge8_Node000005_Node000009" class="edge">
<title>Node5&#45;&gt;Node9</title>
<g id="a_edge8_Node000005_Node000009"><a xlink:title=" ">
<path fill="none" stroke="#63b8ff" d="M1219.65,-258.47C1249.41,-249.09 1298.01,-233.19 1339,-217 1340.17,-216.54 1341.37,-216.05 1342.57,-215.56"/>
<polygon fill="#63b8ff" stroke="#63b8ff" points="1343.97,-218.76 1351.77,-211.59 1341.2,-212.34 1343.97,-218.76"/>
</a>
</g>
</g>
<!-- Node10 -->
<g id="Node000010" class="node">
<title>Node10</title>
<g id="a_Node000010"><a xlink:title=" ">
<polygon fill="#e0e0e0" stroke="#999999" points="1479.5,-211.5 1410.5,-211.5 1410.5,-192.5 1479.5,-192.5 1479.5,-211.5"/>
<text text-anchor="middle" x="1445" y="-199.5" font-family="Helvetica,sans-Serif" font-size="10.00">type_traits</text>
</a>
</g>
</g>
<!-- Node5&#45;&gt;Node10 -->
<g id="edge9_Node000005_Node000010" class="edge">
<title>Node5&#45;&gt;Node10</title>
<g id="a_edge9_Node000005_Node000010"><a xlink:title=" ">
<path fill="none" stroke="#63b8ff" d="M1231.51,-258.45C1273.7,-249.12 1342.41,-233.3 1401,-217 1403.75,-216.23 1406.59,-215.41 1409.44,-214.56"/>
<polygon fill="#63b8ff" stroke="#63b8ff" points="1410.51,-217.89 1419.04,-211.61 1408.45,-211.2 1410.51,-217.89"/>
</a>
</g>
</g>
<!-- Node11 -->
<g id="Node000011" class="node">
<title>Node11</title>
<g id="a_Node000011"><a xlink:title=" ">
<polygon fill="#e0e0e0" stroke="#999999" points="974.5,-211.5 905.5,-211.5 905.5,-192.5 974.5,-192.5 974.5,-211.5"/>
<text text-anchor="middle" x="940" y="-199.5" font-family="Helvetica,sans-Serif" font-size="10.00">Eigen/Core</text>
</a>
</g>
</g>
<!-- Node5&#45;&gt;Node11 -->
<g id="edge10_Node000005_Node000011" class="edge">
<title>Node5&#45;&gt;Node11</title>
<g id="a_edge10_Node000005_Node000011"><a xlink:title=" ">
<path fill="none" stroke="#63b8ff" d="M1152.68,-258.44C1110.69,-249.09 1042.31,-233.26 984,-217 981.25,-216.23 978.41,-215.41 975.57,-214.56"/>
<polygon fill="#63b8ff" stroke="#63b8ff" points="976.55,-211.2 965.96,-211.6 974.49,-217.89 976.55,-211.2"/>
</a>
</g>
</g>
<!-- Node15&#45;&gt;Node3 -->
<g id="edge15_Node000015_Node000003" class="edge">
<title>Node15&#45;&gt;Node3</title>
<g id="a_edge15_Node000015_Node000003"><a xlink:title=" ">
<path fill="none" stroke="#63b8ff" d="M442.22,-253.74C392.49,-243.24 323.07,-228.57 271.64,-217.71"/>
<polygon fill="#63b8ff" stroke="#63b8ff" points="272.12,-214.23 261.61,-215.59 270.67,-221.08 272.12,-214.23"/>
</a>
</g>
</g>
<!-- Node15&#45;&gt;Node4 -->
<g id="edge32_Node000015_Node000004" class="edge">
<title>Node15&#45;&gt;Node4</title>
<g id="a_edge32_Node000015_Node000004"><a xlink:title=" ">
<path fill="none" stroke="#63b8ff" d="M564.91,-252.95C584.41,-245.44 604.28,-234.08 617,-217 643.63,-181.24 642.79,-126.43 639.55,-95.13"/>
<polygon fill="#63b8ff" stroke="#63b8ff" points="643.02,-94.62 638.35,-85.11 636.07,-95.46 643.02,-94.62"/>
</a>
</g>
</g>
<!-- Node15&#45;&gt;Node12 -->
<g id="edge37_Node000015_Node000012" class="edge">
<title>Node15&#45;&gt;Node12</title>
<g id="a_edge37_Node000015_Node000012"><a xlink:title=" ">
<path fill="none" stroke="#63b8ff" d="M442.28,-259.65C401.08,-252.89 347.04,-240.23 304,-217 299.81,-214.74 202.01,-123.42 162.42,-86.37"/>
<polygon fill="#63b8ff" stroke="#63b8ff" points="164.81,-83.81 155.11,-79.54 160.02,-88.92 164.81,-83.81"/>
</a>
</g>
</g>
<!-- Node15&#45;&gt;Node14 -->
<g id="edge39_Node000015_Node000014" class="edge">
<title>Node15&#45;&gt;Node14</title>
<g id="a_edge39_Node000015_Node000014"><a xlink:title=" ">
<path fill="none" stroke="#63b8ff" d="M546.64,-252.9C575.67,-243.01 615.26,-229.39 650,-217 651.84,-216.34 653.72,-215.67 655.63,-214.98"/>
<polygon fill="#63b8ff" stroke="#63b8ff" points="656.92,-218.23 665.12,-211.52 654.53,-211.65 656.92,-218.23"/>
</a>
</g>
</g>
<!-- Node16 -->
<g id="Node000016" class="node">
<title>Node16</title>
<g id="a_Node000016"><a xlink:href="dl-flags_8hpp.html" target="_top" xlink:title=" ">
<polygon fill="white" stroke="#666666" points="529,-79.5 401,-79.5 401,-60.5 529,-60.5 529,-79.5"/>
<text text-anchor="middle" x="465" y="-67.5" font-family="Helvetica,sans-Serif" font-size="10.00">alpaqa/util/dl&#45;flags.hpp</text>
</a>
</g>
</g>
<!-- Node15&#45;&gt;Node16 -->
<g id="edge16_Node000015_Node000016" class="edge">
<title>Node15&#45;&gt;Node16</title>
<g id="a_edge16_Node000015_Node000016"><a xlink:title=" ">
<path fill="none" stroke="#63b8ff" d="M442.41,-255.81C420.48,-248.56 398.08,-236.62 385,-217 354.54,-171.3 413.37,-113 445.73,-85.99"/>
<polygon fill="#63b8ff" stroke="#63b8ff" points="448.13,-88.55 453.68,-79.53 443.71,-83.12 448.13,-88.55"/>
</a>
</g>
</g>
<!-- Node18 -->
<g id="Node000018" class="node">
<title>Node18</title>
<g id="a_Node000018"><a xlink:href="casadi-functions_8hpp.html" target="_top" xlink:title=" ">
<polygon fill="white" stroke="#666666" points="608,-211.5 490,-211.5 490,-192.5 608,-192.5 608,-211.5"/>
<text text-anchor="middle" x="549" y="-199.5" font-family="Helvetica,sans-Serif" font-size="10.00">casadi&#45;functions.hpp</text>
</a>
</g>
</g>
<!-- Node15&#45;&gt;Node18 -->
<g id="edge18_Node000015_Node000018" class="edge">
<title>Node15&#45;&gt;Node18</title>
<g id="a_edge18_Node000015_Node000018"><a xlink:title=" ">
<path fill="none" stroke="#63b8ff" d="M514.77,-252.8C521.36,-243.21 530.09,-230.5 537.09,-220.32"/>
<polygon fill="#63b8ff" stroke="#63b8ff" points="540.14,-222.07 542.92,-211.84 534.37,-218.1 540.14,-222.07"/>
</a>
</g>
</g>
<!-- Node24 -->
<g id="Node000024" class="node">
<title>Node24</title>
<g id="a_Node000024"><a xlink:title=" ">
<polygon fill="#e0e0e0" stroke="#999999" points="259,-79.5 201,-79.5 201,-60.5 259,-60.5 259,-79.5"/>
<text text-anchor="middle" x="230" y="-67.5" font-family="Helvetica,sans-Serif" font-size="10.00">memory</text>
</a>
</g>
</g>
<!-- Node15&#45;&gt;Node24 -->
<g id="edge34_Node000015_Node000024" class="edge">
<title>Node15&#45;&gt;Node24</title>
<g id="a_edge34_Node000015_Node000024"><a xlink:title=" ">
<path fill="none" stroke="#63b8ff" d="M463.69,-252.96C437.37,-243.62 402.75,-230.61 373,-217 344.97,-204.18 270.04,-175.24 251,-151 237.1,-133.31 232.35,-107.3 230.75,-89.79"/>
<polygon fill="#63b8ff" stroke="#63b8ff" points="234.24,-89.43 230.1,-79.68 227.25,-89.89 234.24,-89.43"/>
</a>
</g>
</g>
<!-- Node25 -->
<g id="Node000025" class="node">
<title>Node25</title>
<g id="a_Node000025"><a xlink:title=" ">
<polygon fill="#e0e0e0" stroke="#999999" points="516,-145.5 464,-145.5 464,-126.5 516,-126.5 516,-145.5"/>
<text text-anchor="middle" x="490" y="-133.5" font-family="Helvetica,sans-Serif" font-size="10.00">cassert</text>
</a>
</g>
</g>
<!-- Node15&#45;&gt;Node25 -->
<g id="edge33_Node000015_Node000025" class="edge">
<title>Node15&#45;&gt;Node25</title>
<g id="a_edge33_Node000015_Node000025"><a xlink:title=" ">
<path fill="none" stroke="#63b8ff" d="M496.04,-252.76C490.5,-243.08 483.91,-229.77 481,-217 476.26,-196.18 480.38,-171.73 484.48,-155.38"/>
<polygon fill="#63b8ff" stroke="#63b8ff" points="487.92,-156.08 487.2,-145.51 481.17,-154.22 487.92,-156.08"/>
</a>
</g>
</g>
<!-- Node15&#45;&gt;Node26 -->
<g id="edge35_Node000015_Node000026" class="edge">
<title>Node15&#45;&gt;Node26</title>
<g id="a_edge35_Node000015_Node000026"><a xlink:title=" ">
<path fill="none" stroke="#63b8ff" d="M567.78,-253.19C625.53,-240.49 709.32,-222.06 757.67,-211.43"/>
<polygon fill="#63b8ff" stroke="#63b8ff" points="758.7,-214.79 767.71,-209.22 757.19,-207.95 758.7,-214.79"/>
</a>
</g>
</g>
<!-- Node27 -->
<g id="Node000027" class="node">
<title>Node27</title>
<g id="a_Node000027"><a xlink:title=" ">
<polygon fill="#e0e0e0" stroke="#999999" points="434,-211.5 394,-211.5 394,-192.5 434,-192.5 434,-211.5"/>
<text text-anchor="middle" x="414" y="-199.5" font-family="Helvetica,sans-Serif" font-size="10.00">span</text>
</a>
</g>
</g>
<!-- Node15&#45;&gt;Node27 -->
<g id="edge36_Node000015_Node000027" class="edge">
<title>Node15&#45;&gt;Node27</title>
<g id="a_edge36_Node000015_Node000027"><a xlink:title=" ">
<path fill="none" stroke="#63b8ff" d="M484.8,-252.8C469.97,-242.37 449.89,-228.24 434.89,-217.69"/>
<polygon fill="#63b8ff" stroke="#63b8ff" points="436.5,-214.55 426.31,-211.66 432.48,-220.27 436.5,-214.55"/>
</a>
</g>
</g>
<!-- Node15&#45;&gt;Node28 -->
<g id="edge38_Node000015_Node000028" class="edge">
<title>Node15&#45;&gt;Node28</title>
<g id="a_edge38_Node000015_Node000028"><a xlink:title=" ">
<path fill="none" stroke="#63b8ff" d="M567.7,-262.34C634.5,-256.24 742.81,-243.11 833,-217 834.68,-216.51 836.39,-215.96 838.1,-215.36"/>
<polygon fill="#63b8ff" stroke="#63b8ff" points="839.7,-218.49 847.7,-211.55 837.11,-211.98 839.7,-218.49"/>
</a>
</g>
</g>
<!-- Node17 -->
<g id="Node000017" class="node">
<title>Node17</title>
<g id="a_Node000017"><a xlink:title=" ">
<polygon fill="#e0e0e0" stroke="#999999" points="511.5,-19 418.5,-19 418.5,0 511.5,0 511.5,-19"/>
<text text-anchor="middle" x="465" y="-7" font-family="Helvetica,sans-Serif" font-size="10.00">alpaqa/export.h</text>
</a>
</g>
</g>
<!-- Node16&#45;&gt;Node17 -->
<g id="edge17_Node000016_Node000017" class="edge">
<title>Node16&#45;&gt;Node17</title>
<g id="a_edge17_Node000016_Node000017"><a xlink:title=" ">
<path fill="none" stroke="#63b8ff" d="M465,-60.37C465,-52.25 465,-39.81 465,-29.39"/>
<polygon fill="#63b8ff" stroke="#63b8ff" points="468.5,-29.17 465,-19.17 461.5,-29.17 468.5,-29.17"/>
</a>
</g>
</g>
<!-- Node18&#45;&gt;Node4 -->
<g id="edge19_Node000018_Node000004" class="edge">
<title>Node18&#45;&gt;Node4</title>
<g id="a_edge19_Node000018_Node000004"><a xlink:title=" ">
<path fill="none" stroke="#63b8ff" d="M554.71,-192.47C568,-172.61 601.38,-122.74 620.98,-93.44"/>
<polygon fill="#63b8ff" stroke="#63b8ff" points="623.93,-95.32 626.59,-85.07 618.12,-91.43 623.93,-95.32"/>
</a>
</g>
</g>
<!-- Node18&#45;&gt;Node19 -->
<g id="edge20_Node000018_Node000019" class="edge">
<title>Node18&#45;&gt;Node19</title>
<g id="a_edge20_Node000018_Node000019"><a xlink:title=" ">
<path fill="none" stroke="#63b8ff" d="M608.07,-192.48C623.33,-190.47 639.76,-188.49 655,-187 924.96,-160.62 1248.52,-145.1 1380.49,-139.45"/>
<polygon fill="#63b8ff" stroke="#63b8ff" points="1380.95,-142.93 1390.79,-139.01 1380.65,-135.94 1380.95,-142.93"/>
</a>
</g>
</g>
<!-- Node18&#45;&gt;Node22 -->
<g id="edge25_Node000018_Node000022" class="edge">
<title>Node18&#45;&gt;Node22</title>
<g id="a_edge25_Node000018_Node000022"><a xlink:title=" ">
<path fill="none" stroke="#63b8ff" d="M516.9,-192.37C474.47,-180.96 399.61,-160.83 352.8,-148.24"/>
<polygon fill="#63b8ff" stroke="#63b8ff" points="353.53,-144.81 342.97,-145.6 351.72,-151.57 353.53,-144.81"/>
</a>
</g>
</g>
<!-- Node18&#45;&gt;Node25 -->
<g id="edge31_Node000018_Node000025" class="edge">
<title>Node18&#45;&gt;Node25</title>
<g id="a_edge31_Node000018_Node000025"><a xlink:title=" ">
<path fill="none" stroke="#63b8ff" d="M541.04,-192.37C531.86,-182.4 516.54,-165.79 505.08,-153.36"/>
<polygon fill="#63b8ff" stroke="#63b8ff" points="507.56,-150.89 498.21,-145.91 502.41,-155.63 507.56,-150.89"/>
</a>
</g>
</g>
<!-- Node19&#45;&gt;Node4 -->
<g id="edge24_Node000019_Node000004" class="edge">
<title>Node19&#45;&gt;Node4</title>
<g id="a_edge24_Node000019_Node000004"><a xlink:title=" ">
<path fill="none" stroke="#63b8ff" d="M1390.95,-131.02C1252.63,-120.02 864.94,-89.2 705.66,-76.54"/>
<polygon fill="#63b8ff" stroke="#63b8ff" points="705.75,-73.03 695.51,-75.73 705.2,-80.01 705.75,-73.03"/>
</a>
</g>
</g>
<!-- Node19&#45;&gt;Node13 -->
<g id="edge23_Node000019_Node000013" class="edge">
<title>Node19&#45;&gt;Node13</title>
<g id="a_edge23_Node000019_Node000013"><a xlink:title=" ">
<path fill="none" stroke="#63b8ff" d="M1455.16,-126.37C1472.54,-115.78 1502.24,-97.67 1522.93,-85.06"/>
<polygon fill="#63b8ff" stroke="#63b8ff" points="1525.01,-87.89 1531.73,-79.7 1521.37,-81.92 1525.01,-87.89"/>
</a>
</g>
</g>
<!-- Node20 -->
<g id="Node000020" class="node">
<title>Node20</title>
<g id="a_Node000020"><a xlink:title=" ">
<polygon fill="#e0e0e0" stroke="#999999" points="1446,-79.5 1382,-79.5 1382,-60.5 1446,-60.5 1446,-79.5"/>
<text text-anchor="middle" x="1414" y="-67.5" font-family="Helvetica,sans-Serif" font-size="10.00">algorithm</text>
</a>
</g>
</g>
<!-- Node19&#45;&gt;Node20 -->
<g id="edge21_Node000019_Node000020" class="edge">
<title>Node19&#45;&gt;Node20</title>
<g id="a_edge21_Node000019_Node000020"><a xlink:title=" ">
<path fill="none" stroke="#63b8ff" d="M1437.36,-126.37C1433.36,-116.88 1426.81,-101.36 1421.66,-89.16"/>
<polygon fill="#63b8ff" stroke="#63b8ff" points="1424.87,-87.76 1417.76,-79.91 1418.42,-90.48 1424.87,-87.76"/>
</a>
</g>
</g>
<!-- Node19&#45;&gt;Node21 -->
<g id="edge22_Node000019_Node000021" class="edge">
<title>Node19&#45;&gt;Node21</title>
<g id="a_edge22_Node000019_Node000021"><a xlink:title=" ">
<path fill="none" stroke="#63b8ff" d="M1446.93,-126.37C1453.59,-116.69 1464.56,-100.74 1473.01,-88.44"/>
<polygon fill="#63b8ff" stroke="#63b8ff" points="1476.1,-90.13 1478.88,-79.91 1470.33,-86.16 1476.1,-90.13"/>
</a>
</g>
</g>
<!-- Node22&#45;&gt;Node12 -->
<g id="edge30_Node000022_Node000012" class="edge">
<title>Node22&#45;&gt;Node12</title>
<g id="a_edge30_Node000022_Node000012"><a xlink:title=" ">
<path fill="none" stroke="#63b8ff" d="M288.75,-126.37C260.13,-115.27 210.24,-95.92 177.67,-83.28"/>
<polygon fill="#63b8ff" stroke="#63b8ff" points="178.75,-79.95 168.16,-79.6 176.22,-86.48 178.75,-79.95"/>
</a>
</g>
</g>
<!-- Node22&#45;&gt;Node16 -->
<g id="edge27_Node000022_Node000016" class="edge">
<title>Node22&#45;&gt;Node16</title>
<g id="a_edge27_Node000022_Node000016"><a xlink:title=" ">
<path fill="none" stroke="#63b8ff" d="M331.77,-126.37C358.29,-115.35 404.38,-96.19 434.79,-83.55"/>
<polygon fill="#63b8ff" stroke="#63b8ff" points="436.18,-86.77 444.07,-79.7 433.49,-80.3 436.18,-86.77"/>
</a>
</g>
</g>
<!-- Node22&#45;&gt;Node17 -->
<g id="edge26_Node000022_Node000017" class="edge">
<title>Node22&#45;&gt;Node17</title>
<g id="a_edge26_Node000022_Node000017"><a xlink:title=" ">
<path fill="none" stroke="#63b8ff" d="M318.48,-126.4C332.12,-110.99 362.41,-78.12 392,-55 406.97,-43.3 425.21,-32.18 439.72,-23.98"/>
<polygon fill="#63b8ff" stroke="#63b8ff" points="441.59,-26.95 448.64,-19.04 438.19,-20.82 441.59,-26.95"/>
</a>
</g>
</g>
<!-- Node23 -->
<g id="Node000023" class="node">
<title>Node23</title>
<g id="a_Node000023"><a xlink:title=" ">
<polygon fill="#e0e0e0" stroke="#999999" points="345,-79.5 277,-79.5 277,-60.5 345,-60.5 345,-79.5"/>
<text text-anchor="middle" x="311" y="-67.5" font-family="Helvetica,sans-Serif" font-size="10.00">filesystem</text>
</a>
</g>
</g>
<!-- Node22&#45;&gt;Node23 -->
<g id="edge28_Node000022_Node000023" class="edge">
<title>Node22&#45;&gt;Node23</title>
<g id="a_edge28_Node000022_Node000023"><a xlink:title=" ">
<path fill="none" stroke="#63b8ff" d="M311,-126.37C311,-117.16 311,-102.29 311,-90.27"/>
<polygon fill="#63b8ff" stroke="#63b8ff" points="314.5,-89.91 311,-79.91 307.5,-89.91 314.5,-89.91"/>
</a>
</g>
</g>
<!-- Node22&#45;&gt;Node24 -->
<g id="edge29_Node000022_Node000024" class="edge">
<title>Node22&#45;&gt;Node24</title>
<g id="a_edge29_Node000022_Node000024"><a xlink:title=" ">
<path fill="none" stroke="#63b8ff" d="M300.08,-126.37C287.03,-116.06 264.99,-98.65 249.1,-86.09"/>
<polygon fill="#63b8ff" stroke="#63b8ff" points="251.03,-83.15 241.01,-79.7 246.69,-88.64 251.03,-83.15"/>
</a>
</g>
</g>
<!-- Node29&#45;&gt;Node13 -->
<g id="edge44_Node000029_Node000013" class="edge">
<title>Node29&#45;&gt;Node13</title>
<g id="a_edge44_Node000029_Node000013"><a xlink:title=" ">
<path fill="none" stroke="#63b8ff" d="M1646.69,-120.95C1624.57,-109.98 1594.04,-94.83 1572.42,-84.11"/>
<polygon fill="#63b8ff" stroke="#63b8ff" points="1573.68,-80.83 1563.17,-79.52 1570.57,-87.1 1573.68,-80.83"/>
</a>
</g>
</g>
<!-- Node30 -->
<g id="Node000030" class="node">
<title>Node30</title>
<g id="a_Node000030"><a xlink:href="export_8hpp.html" target="_top" xlink:title=" ">
<polygon fill="white" stroke="#666666" points="1691.5,-79.5 1586.5,-79.5 1586.5,-60.5 1691.5,-60.5 1691.5,-79.5"/>
<text text-anchor="middle" x="1639" y="-67.5" font-family="Helvetica,sans-Serif" font-size="10.00">alpaqa/export.hpp</text>
</a>
</g>
</g>
<!-- Node29&#45;&gt;Node30 -->
<g id="edge42_Node000029_Node000030" class="edge">
<title>Node29&#45;&gt;Node30</title>
<g id="a_edge42_Node000029_Node000030"><a xlink:title=" ">
<path fill="none" stroke="#63b8ff" d="M1667.01,-120.8C1661.67,-111.31 1654.61,-98.76 1648.92,-88.63"/>
<polygon fill="#63b8ff" stroke="#63b8ff" points="1651.93,-86.84 1643.97,-79.84 1645.83,-90.28 1651.93,-86.84"/>
</a>
</g>
</g>
<!-- Node31 -->
<g id="Node000031" class="node">
<title>Node31</title>
<g id="a_Node000031"><a xlink:title=" ">
<polygon fill="#e0e0e0" stroke="#999999" points="1766.5,-79.5 1709.5,-79.5 1709.5,-60.5 1766.5,-60.5 1766.5,-79.5"/>
<text text-anchor="middle" x="1738" y="-67.5" font-family="Helvetica,sans-Serif" font-size="10.00">typeinfo</text>
</a>
</g>
</g>
<!-- Node29&#45;&gt;Node31 -->
<g id="edge45_Node000029_Node000031" class="edge">
<title>Node29&#45;&gt;Node31</title>
<g id="a_edge45_Node000029_Node000031"><a xlink:title=" ">
<path fill="none" stroke="#63b8ff" d="M1688.98,-120.8C1698.8,-110.82 1711.96,-97.46 1722.17,-87.09"/>
<polygon fill="#63b8ff" stroke="#63b8ff" points="1724.77,-89.43 1729.29,-79.84 1719.78,-84.52 1724.77,-89.43"/>
</a>
</g>
</g>
<!-- Node30&#45;&gt;Node17 -->
<g id="edge43_Node000030_Node000017" class="edge">
<title>Node30&#45;&gt;Node17</title>
<g id="a_edge43_Node000030_Node000017"><a xlink:title=" ">
<path fill="none" stroke="#63b8ff" d="M1606.38,-60.46C1596.96,-58.32 1586.63,-56.27 1577,-55 1369.76,-27.69 718.43,-14.75 521.77,-11.41"/>
<polygon fill="#63b8ff" stroke="#63b8ff" points="521.72,-7.9 511.66,-11.23 521.6,-14.9 521.72,-7.9"/>
</a>
</g>
</g>
</g>
</svg>

<g id="navigator" transform="translate(0 0)" fill="#404254">
  <rect fill="#f2f5e9" fill-opacity="0.5" stroke="#606060" stroke-width=".5" x="0" y="0" width="60" height="60"/>
  <use id="zoomplus" xlink:href="#zoomPlus" x="17" y="9" onmousedown="handleZoom(evt,'in')"/>
  <use id="zoomminus" xlink:href="#zoomMin" x="42" y="9" onmousedown="handleZoom(evt,'out')"/>
  <use id="reset" xlink:href="#resetDef" x="30" y="36" onmousedown="handleReset()"/>
   <use id="arrowup" xlink:href="#arrowUp" x="0" y="0" onmousedown="handlePan(0,-1)"/>
  <use id="arrowright" xlink:href="#arrowRight" x="0" y="0" onmousedown="handlePan(1,0)"/>
  <use id="arrowdown" xlink:href="#arrowDown" x="0" y="0" onmousedown="handlePan(0,1)"/>
  <use id="arrowleft" xlink:href="#arrowLeft" x="0" y="0" onmousedown="handlePan(-1,0)"/>
</g>
<svg viewBox="0 0 15 15" width="100%" height="30px" preserveAspectRatio="xMaxYMin meet">
 <g id="arrow_out" transform="scale(0.3 0.3)">
  <a xlink:href="CasADiLoader-util_8hpp__incl_org.svg" target="_base">
   <rect id="button" ry="5" rx="5" y="6" x="6" height="38" width="38"
        fill="#f2f5e9" fill-opacity="0.5" stroke="#606060" stroke-width="1.0"/>
   <path id="arrow"
     d="M 11.500037,31.436501 C 11.940474,20.09759 22.043105,11.32322 32.158766,21.979434 L 37.068811,17.246167 C 37.068811,17.246167 37.088388,32 37.088388,32 L 22.160133,31.978069 C 22.160133,31.978069 26.997745,27.140456 26.997745,27.140456 C 18.528582,18.264221 13.291696,25.230495 11.500037,31.436501 z"
     style="fill:#404040;"/>
  </a>
 </g>
</svg>

<style type='text/css'>
<![CDATA[
[data-mouse-over-selected='false'] { opacity: 0.7; }
[data-mouse-over-selected='true']  { opacity: 1.0; }
]]>
</style>
<script type="application/ecmascript"><![CDATA[
document.addEventListener('DOMContentLoaded', (event) => {
  highlightEdges();
  highlightAdjacentNodes();
});
]]></script>
</svg>
