<?xml version="1.0" encoding="UTF-8" standalone="no"?>
<!DOCTYPE svg PUBLIC "-//W3C//DTD SVG 1.1//EN"
 "http://www.w3.org/Graphics/SVG/1.1/DTD/svg11.dtd">
<!-- Generated by graphviz version 2.43.0 (0)
 -->
<!-- Title: CUTEstProblem Pages: 1 -->
<svg width="488pt" height="1177pt"
 viewBox="0.00 0.00 487.50 1177.00" xmlns="http://www.w3.org/2000/svg" xmlns:xlink="http://www.w3.org/1999/xlink">
<g id="graph0" class="graph" transform="scale(1 1) rotate(0) translate(4 1173)">
<title>CUTEstProblem</title>
<!-- Node1 -->
<g id="Node000001" class="node">
<title>Node1</title>
<g id="a_Node000001"><a xlink:title="Wrapper for CUTEst problems loaded from an external shared library.">
<polygon fill="#999999" stroke="transparent" points="335.5,-469 208.5,-469 208.5,0 335.5,0 335.5,-469"/>
<text text-anchor="start" x="234.5" y="-456.5" font-family="Helvetica,sans-Serif" font-size="10.00">CUTEstProblem</text>
<text text-anchor="start" x="213" y="-441.5" font-family="Helvetica,sans-Serif" font-size="10.00">+</text>
<text text-anchor="start" x="226" y="-441.5" font-family="Helvetica,sans-Serif" font-size="10.00">name</text>
<text text-anchor="start" x="213" y="-426.5" font-family="Helvetica,sans-Serif" font-size="10.00">+</text>
<text text-anchor="start" x="226" y="-426.5" font-family="Helvetica,sans-Serif" font-size="10.00">x0</text>
<text text-anchor="start" x="213" y="-411.5" font-family="Helvetica,sans-Serif" font-size="10.00">+</text>
<text text-anchor="start" x="226" y="-411.5" font-family="Helvetica,sans-Serif" font-size="10.00">y0</text>
<text text-anchor="start" x="215.5" y="-396.5" font-family="Helvetica,sans-Serif" font-size="10.00">&#45;</text>
<text text-anchor="start" x="226" y="-396.5" font-family="Helvetica,sans-Serif" font-size="10.00">sparse</text>
<text text-anchor="start" x="215.5" y="-381.5" font-family="Helvetica,sans-Serif" font-size="10.00">&#45;</text>
<text text-anchor="start" x="226" y="-381.5" font-family="Helvetica,sans-Serif" font-size="10.00">nnz_H</text>
<text text-anchor="start" x="215.5" y="-366.5" font-family="Helvetica,sans-Serif" font-size="10.00">&#45;</text>
<text text-anchor="start" x="226" y="-366.5" font-family="Helvetica,sans-Serif" font-size="10.00">nnz_J</text>
<text text-anchor="start" x="213" y="-351.5" font-family="Helvetica,sans-Serif" font-size="10.00">+</text>
<text text-anchor="start" x="226" y="-351.5" font-family="Helvetica,sans-Serif" font-size="10.00">CUTEstProblem()</text>
<text text-anchor="start" x="213" y="-336.5" font-family="Helvetica,sans-Serif" font-size="10.00">+</text>
<text text-anchor="start" x="226" y="-336.5" font-family="Helvetica,sans-Serif" font-size="10.00">CUTEstProblem()</text>
<text text-anchor="start" x="213" y="-321.5" font-family="Helvetica,sans-Serif" font-size="10.00">+</text>
<text text-anchor="start" x="226" y="-321.5" font-family="Helvetica,sans-Serif" font-size="10.00">operator=()</text>
<text text-anchor="start" x="213" y="-306.5" font-family="Helvetica,sans-Serif" font-size="10.00">+</text>
<text text-anchor="start" x="226" y="-306.5" font-family="Helvetica,sans-Serif" font-size="10.00">CUTEstProblem()</text>
<text text-anchor="start" x="213" y="-291.5" font-family="Helvetica,sans-Serif" font-size="10.00">+</text>
<text text-anchor="start" x="226" y="-291.5" font-family="Helvetica,sans-Serif" font-size="10.00">operator=()</text>
<text text-anchor="start" x="213" y="-276.5" font-family="Helvetica,sans-Serif" font-size="10.00">+</text>
<text text-anchor="start" x="226" y="-276.5" font-family="Helvetica,sans-Serif" font-size="10.00">~CUTEstProblem()</text>
<text text-anchor="start" x="213" y="-261.5" font-family="Helvetica,sans-Serif" font-size="10.00">+</text>
<text text-anchor="start" x="226" y="-261.5" font-family="Helvetica,sans-Serif" font-size="10.00">get_report()</text>
<text text-anchor="start" x="213" y="-246.5" font-family="Helvetica,sans-Serif" font-size="10.00">+</text>
<text text-anchor="start" x="226" y="-246.5" font-family="Helvetica,sans-Serif" font-size="10.00">format_report()</text>
<text text-anchor="start" x="213" y="-231.5" font-family="Helvetica,sans-Serif" font-size="10.00">+</text>
<text text-anchor="start" x="226" y="-231.5" font-family="Helvetica,sans-Serif" font-size="10.00">format_report()</text>
<text text-anchor="start" x="213" y="-216.5" font-family="Helvetica,sans-Serif" font-size="10.00">+</text>
<text text-anchor="start" x="226" y="-216.5" font-family="Helvetica,sans-Serif" font-size="10.00">eval_f()</text>
<text text-anchor="start" x="213" y="-201.5" font-family="Helvetica,sans-Serif" font-size="10.00">+</text>
<text text-anchor="start" x="226" y="-201.5" font-family="Helvetica,sans-Serif" font-size="10.00">eval_grad_f()</text>
<text text-anchor="start" x="213" y="-186.5" font-family="Helvetica,sans-Serif" font-size="10.00">+</text>
<text text-anchor="start" x="226" y="-186.5" font-family="Helvetica,sans-Serif" font-size="10.00">eval_g()</text>
<text text-anchor="start" x="213" y="-171.5" font-family="Helvetica,sans-Serif" font-size="10.00">+</text>
<text text-anchor="start" x="226" y="-171.5" font-family="Helvetica,sans-Serif" font-size="10.00">eval_grad_g_prod()</text>
<text text-anchor="start" x="213" y="-156.5" font-family="Helvetica,sans-Serif" font-size="10.00">+</text>
<text text-anchor="start" x="226" y="-156.5" font-family="Helvetica,sans-Serif" font-size="10.00">eval_jac_g()</text>
<text text-anchor="start" x="213" y="-141.5" font-family="Helvetica,sans-Serif" font-size="10.00">+</text>
<text text-anchor="start" x="226" y="-141.5" font-family="Helvetica,sans-Serif" font-size="10.00">get_jac_g_sparsity()</text>
<text text-anchor="start" x="213" y="-126.5" font-family="Helvetica,sans-Serif" font-size="10.00">+</text>
<text text-anchor="start" x="226" y="-126.5" font-family="Helvetica,sans-Serif" font-size="10.00">eval_grad_gi()</text>
<text text-anchor="start" x="213" y="-111.5" font-family="Helvetica,sans-Serif" font-size="10.00">+</text>
<text text-anchor="start" x="226" y="-111.5" font-family="Helvetica,sans-Serif" font-size="10.00">eval_hess_L_prod()</text>
<text text-anchor="start" x="213" y="-96.5" font-family="Helvetica,sans-Serif" font-size="10.00">+</text>
<text text-anchor="start" x="226" y="-96.5" font-family="Helvetica,sans-Serif" font-size="10.00">eval_hess_L()</text>
<text text-anchor="start" x="213" y="-81.5" font-family="Helvetica,sans-Serif" font-size="10.00">+</text>
<text text-anchor="start" x="226" y="-81.5" font-family="Helvetica,sans-Serif" font-size="10.00">get_hess_L_sparsity()</text>
<text text-anchor="start" x="213" y="-66.5" font-family="Helvetica,sans-Serif" font-size="10.00">+</text>
<text text-anchor="start" x="226" y="-66.5" font-family="Helvetica,sans-Serif" font-size="10.00">eval_hess_ψ_prod()</text>
<text text-anchor="start" x="213" y="-51.5" font-family="Helvetica,sans-Serif" font-size="10.00">+</text>
<text text-anchor="start" x="226" y="-51.5" font-family="Helvetica,sans-Serif" font-size="10.00">eval_f_grad_f()</text>
<text text-anchor="start" x="213" y="-36.5" font-family="Helvetica,sans-Serif" font-size="10.00">+</text>
<text text-anchor="start" x="226" y="-36.5" font-family="Helvetica,sans-Serif" font-size="10.00">eval_f_g()</text>
<text text-anchor="start" x="213" y="-21.5" font-family="Helvetica,sans-Serif" font-size="10.00">+</text>
<text text-anchor="start" x="226" y="-21.5" font-family="Helvetica,sans-Serif" font-size="10.00">eval_grad_L()</text>
<text text-anchor="start" x="213" y="-6.5" font-family="Helvetica,sans-Serif" font-size="10.00">+</text>
<text text-anchor="start" x="226" y="-6.5" font-family="Helvetica,sans-Serif" font-size="10.00">get_name()</text>
<polygon fill="#666666" stroke="#666666" points="209,-451.5 209,-451.5 336,-451.5 336,-451.5 209,-451.5"/>
<polygon fill="#666666" stroke="#666666" points="209,-361.5 209,-361.5 224,-361.5 224,-361.5 209,-361.5"/>
<polygon fill="#666666" stroke="#666666" points="224,-361.5 224,-361.5 336,-361.5 336,-361.5 224,-361.5"/>
<polygon fill="none" stroke="#666666" points="208.5,0 208.5,-469 335.5,-469 335.5,0 208.5,0"/>
</a>
</g>
</g>
<!-- Node2 -->
<g id="Node000002" class="node">
<title>Node2</title>
<g id="a_Node000002"><a xlink:href="classalpaqa_1_1BoxConstrProblem.html" target="_top" xlink:title=" ">
<polygon fill="white" stroke="transparent" points="146,-987 0,-987 0,-527 146,-527 146,-987"/>
<text text-anchor="start" x="5" y="-975" font-family="Helvetica,sans-Serif" font-size="10.00">BoxConstrProblem&lt; alpaqa</text>
<text text-anchor="start" x="32" y="-964" font-family="Helvetica,sans-Serif" font-size="10.00">::EigenConfigd &gt;</text>
<text text-anchor="start" x="7.5" y="-949" font-family="Helvetica,sans-Serif" font-size="10.00">+</text>
<text text-anchor="start" x="24" y="-949" font-family="Helvetica,sans-Serif" font-size="10.00">n</text>
<text text-anchor="start" x="7.5" y="-934" font-family="Helvetica,sans-Serif" font-size="10.00">+</text>
<text text-anchor="start" x="24" y="-934" font-family="Helvetica,sans-Serif" font-size="10.00">m</text>
<text text-anchor="start" x="7.5" y="-919" font-family="Helvetica,sans-Serif" font-size="10.00">+</text>
<text text-anchor="start" x="24" y="-919" font-family="Helvetica,sans-Serif" font-size="10.00">l1_reg</text>
<text text-anchor="start" x="7.5" y="-904" font-family="Helvetica,sans-Serif" font-size="10.00">+</text>
<text text-anchor="start" x="24" y="-904" font-family="Helvetica,sans-Serif" font-size="10.00">penalty_alm_split</text>
<text text-anchor="start" x="7.5" y="-889" font-family="Helvetica,sans-Serif" font-size="10.00">+</text>
<text text-anchor="start" x="24" y="-889" font-family="Helvetica,sans-Serif" font-size="10.00">BoxConstrProblem()</text>
<text text-anchor="start" x="7.5" y="-874" font-family="Helvetica,sans-Serif" font-size="10.00">+</text>
<text text-anchor="start" x="24" y="-874" font-family="Helvetica,sans-Serif" font-size="10.00">BoxConstrProblem()</text>
<text text-anchor="start" x="7.5" y="-859" font-family="Helvetica,sans-Serif" font-size="10.00">+</text>
<text text-anchor="start" x="24" y="-859" font-family="Helvetica,sans-Serif" font-size="10.00">BoxConstrProblem()</text>
<text text-anchor="start" x="7.5" y="-844" font-family="Helvetica,sans-Serif" font-size="10.00">+</text>
<text text-anchor="start" x="24" y="-844" font-family="Helvetica,sans-Serif" font-size="10.00">BoxConstrProblem()</text>
<text text-anchor="start" x="7.5" y="-829" font-family="Helvetica,sans-Serif" font-size="10.00">+</text>
<text text-anchor="start" x="24" y="-829" font-family="Helvetica,sans-Serif" font-size="10.00">BoxConstrProblem()</text>
<text text-anchor="start" x="7.5" y="-814" font-family="Helvetica,sans-Serif" font-size="10.00">+</text>
<text text-anchor="start" x="24" y="-814" font-family="Helvetica,sans-Serif" font-size="10.00">resize()</text>
<text text-anchor="start" x="7.5" y="-799" font-family="Helvetica,sans-Serif" font-size="10.00">+</text>
<text text-anchor="start" x="24" y="-799" font-family="Helvetica,sans-Serif" font-size="10.00">operator=()</text>
<text text-anchor="start" x="7.5" y="-784" font-family="Helvetica,sans-Serif" font-size="10.00">+</text>
<text text-anchor="start" x="24" y="-784" font-family="Helvetica,sans-Serif" font-size="10.00">operator=()</text>
<text text-anchor="start" x="7.5" y="-769" font-family="Helvetica,sans-Serif" font-size="10.00">+</text>
<text text-anchor="start" x="24" y="-769" font-family="Helvetica,sans-Serif" font-size="10.00">get_n()</text>
<text text-anchor="start" x="7.5" y="-754" font-family="Helvetica,sans-Serif" font-size="10.00">+</text>
<text text-anchor="start" x="24" y="-754" font-family="Helvetica,sans-Serif" font-size="10.00">get_m()</text>
<text text-anchor="start" x="7.5" y="-739" font-family="Helvetica,sans-Serif" font-size="10.00">+</text>
<text text-anchor="start" x="24" y="-739" font-family="Helvetica,sans-Serif" font-size="10.00">eval_prox_grad_step()</text>
<text text-anchor="start" x="7.5" y="-724" font-family="Helvetica,sans-Serif" font-size="10.00">+</text>
<text text-anchor="start" x="24" y="-724" font-family="Helvetica,sans-Serif" font-size="10.00">eval_proj_diff_g()</text>
<text text-anchor="start" x="7.5" y="-709" font-family="Helvetica,sans-Serif" font-size="10.00">+</text>
<text text-anchor="start" x="24" y="-709" font-family="Helvetica,sans-Serif" font-size="10.00">eval_proj_multipliers()</text>
<text text-anchor="start" x="7.5" y="-694" font-family="Helvetica,sans-Serif" font-size="10.00">+</text>
<text text-anchor="start" x="24" y="-694" font-family="Helvetica,sans-Serif" font-size="10.00">get_box_C()</text>
<text text-anchor="start" x="7.5" y="-679" font-family="Helvetica,sans-Serif" font-size="10.00">+</text>
<text text-anchor="start" x="24" y="-679" font-family="Helvetica,sans-Serif" font-size="10.00">get_box_D()</text>
<text text-anchor="start" x="7.5" y="-664" font-family="Helvetica,sans-Serif" font-size="10.00">+</text>
<text text-anchor="start" x="24" y="-664" font-family="Helvetica,sans-Serif" font-size="10.00">provides_get_box_C()</text>
<text text-anchor="start" x="7.5" y="-649" font-family="Helvetica,sans-Serif" font-size="10.00">+</text>
<text text-anchor="start" x="24" y="-649" font-family="Helvetica,sans-Serif" font-size="10.00">eval_proj_grad_step</text>
<text text-anchor="start" x="24" y="-638" font-family="Helvetica,sans-Serif" font-size="10.00">_box()</text>
<text text-anchor="start" x="7.5" y="-623" font-family="Helvetica,sans-Serif" font-size="10.00">+</text>
<text text-anchor="start" x="24" y="-623" font-family="Helvetica,sans-Serif" font-size="10.00">eval_prox_grad_step</text>
<text text-anchor="start" x="24" y="-612" font-family="Helvetica,sans-Serif" font-size="10.00">_box_l1_impl()</text>
<text text-anchor="start" x="7.5" y="-597" font-family="Helvetica,sans-Serif" font-size="10.00">+</text>
<text text-anchor="start" x="24" y="-597" font-family="Helvetica,sans-Serif" font-size="10.00">eval_prox_grad_step</text>
<text text-anchor="start" x="24" y="-586" font-family="Helvetica,sans-Serif" font-size="10.00">_box_l1()</text>
<text text-anchor="start" x="7.5" y="-571" font-family="Helvetica,sans-Serif" font-size="10.00">+</text>
<text text-anchor="start" x="24" y="-571" font-family="Helvetica,sans-Serif" font-size="10.00">eval_prox_grad_step</text>
<text text-anchor="start" x="24" y="-560" font-family="Helvetica,sans-Serif" font-size="10.00">_box_l1_scal()</text>
<text text-anchor="start" x="7.5" y="-545" font-family="Helvetica,sans-Serif" font-size="10.00">+</text>
<text text-anchor="start" x="24" y="-545" font-family="Helvetica,sans-Serif" font-size="10.00">eval_proj_multipliers</text>
<text text-anchor="start" x="24" y="-534" font-family="Helvetica,sans-Serif" font-size="10.00">_box()</text>
<polygon fill="#666666" stroke="#666666" points="0,-959 0,-959 146,-959 146,-959 0,-959"/>
<polygon fill="#666666" stroke="#666666" points="0,-899 0,-899 22,-899 22,-899 0,-899"/>
<polygon fill="#666666" stroke="#666666" points="22,-899 22,-899 146,-899 146,-899 22,-899"/>
<polygon fill="none" stroke="#666666" points="0,-527 0,-987 146,-987 146,-527 0,-527"/>
</a>
</g>
</g>
<!-- Node2&#45;&gt;Node1 -->
<g id="edge1_Node000001_Node000002" class="edge">
<title>Node2&#45;&gt;Node1</title>
<g id="a_edge1_Node000001_Node000002"><a xlink:title=" ">
<path fill="none" stroke="#63b8ff" d="M149.56,-541.42C151.38,-536.56 153.2,-531.75 155,-527 171.84,-482.64 190.74,-434.77 208.37,-390.89"/>
<polygon fill="none" stroke="#63b8ff" points="146.27,-540.21 146.05,-550.8 152.83,-542.66 146.27,-540.21"/>
</a>
</g>
</g>
<!-- Node3 -->
<g id="Node000003" class="node">
<title>Node3</title>
<g id="a_Node000003"><a xlink:href="structalpaqa_1_1sets_1_1Box.html" target="_top" xlink:title=" ">
<polygon fill="white" stroke="transparent" points="132,-1169 14,-1169 14,-1045 132,-1045 132,-1169"/>
<text text-anchor="start" x="33" y="-1157" font-family="Helvetica,sans-Serif" font-size="10.00">Box&lt; config_t &gt;</text>
<text text-anchor="start" x="18" y="-1142" font-family="Helvetica,sans-Serif" font-size="10.00">+</text>
<text text-anchor="start" x="31" y="-1142" font-family="Helvetica,sans-Serif" font-size="10.00">lowerbound</text>
<text text-anchor="start" x="18" y="-1127" font-family="Helvetica,sans-Serif" font-size="10.00">+</text>
<text text-anchor="start" x="31" y="-1127" font-family="Helvetica,sans-Serif" font-size="10.00">upperbound</text>
<text text-anchor="start" x="18" y="-1112" font-family="Helvetica,sans-Serif" font-size="10.00">+</text>
<text text-anchor="start" x="31" y="-1112" font-family="Helvetica,sans-Serif" font-size="10.00">Box()</text>
<text text-anchor="start" x="18" y="-1097" font-family="Helvetica,sans-Serif" font-size="10.00">+</text>
<text text-anchor="start" x="31" y="-1097" font-family="Helvetica,sans-Serif" font-size="10.00">Box()</text>
<text text-anchor="start" x="18" y="-1082" font-family="Helvetica,sans-Serif" font-size="10.00">+</text>
<text text-anchor="start" x="31" y="-1082" font-family="Helvetica,sans-Serif" font-size="10.00">NaN()</text>
<text text-anchor="start" x="18" y="-1067" font-family="Helvetica,sans-Serif" font-size="10.00">+</text>
<text text-anchor="start" x="31" y="-1067" font-family="Helvetica,sans-Serif" font-size="10.00">from_lower_upper()</text>
<text text-anchor="start" x="20.5" y="-1052" font-family="Helvetica,sans-Serif" font-size="10.00">&#45;</text>
<text text-anchor="start" x="31" y="-1052" font-family="Helvetica,sans-Serif" font-size="10.00">Box()</text>
<polygon fill="#666666" stroke="#666666" points="14,-1152 14,-1152 132,-1152 132,-1152 14,-1152"/>
<polygon fill="#666666" stroke="#666666" points="14,-1122 14,-1122 29,-1122 29,-1122 14,-1122"/>
<polygon fill="#666666" stroke="#666666" points="29,-1122 29,-1122 132,-1122 132,-1122 29,-1122"/>
<polygon fill="none" stroke="#666666" points="14,-1045 14,-1169 132,-1169 132,-1045 14,-1045"/>
</a>
</g>
</g>
<!-- Node3&#45;&gt;Node2 -->
<g id="edge2_Node000002_Node000003" class="edge">
<title>Node3&#45;&gt;Node2</title>
<g id="a_edge2_Node000002_Node000003"><a xlink:title=" ">
<path fill="none" stroke="#63b8ff" d="M73,-1044.98C73,-1031.18 73,-1015.71 73,-999.29"/>
<polygon fill="none" stroke="#63b8ff" points="73,-999.17 69,-993.17 73,-987.17 77,-993.17 73,-999.17"/>
</a>
</g>
<text text-anchor="middle" x="82.5" y="-1019" font-family="Helvetica,sans-Serif" font-size="10.00" fill="grey"> +C</text>
<text text-anchor="middle" x="82.5" y="-1008" font-family="Helvetica,sans-Serif" font-size="10.00" fill="grey">+D</text>
</g>
<!-- Node4 -->
<g id="Node000004" class="node">
<title>Node4</title>
<g id="a_Node000004"><a xlink:href="structalpaqa_1_1util_1_1copyable__unique__ptr.html" target="_top" xlink:title=" ">
<polygon fill="white" stroke="transparent" points="380,-904.5 164,-904.5 164,-609.5 380,-609.5 380,-904.5"/>
<text text-anchor="start" x="193" y="-892" font-family="Helvetica,sans-Serif" font-size="10.00">copyable_unique_ptr</text>
<text text-anchor="start" x="193" y="-881" font-family="Helvetica,sans-Serif" font-size="10.00">&lt; class alpaqa::CUTEstLoader &gt;</text>
<text text-anchor="start" x="168" y="-866" font-family="Helvetica,sans-Serif" font-size="10.00">+</text>
<text text-anchor="start" x="181" y="-866" font-family="Helvetica,sans-Serif" font-size="10.00">ptr</text>
<text text-anchor="start" x="168" y="-851" font-family="Helvetica,sans-Serif" font-size="10.00">+</text>
<text text-anchor="start" x="181" y="-851" font-family="Helvetica,sans-Serif" font-size="10.00">copyable_unique_ptr()</text>
<text text-anchor="start" x="168" y="-836" font-family="Helvetica,sans-Serif" font-size="10.00">+</text>
<text text-anchor="start" x="181" y="-836" font-family="Helvetica,sans-Serif" font-size="10.00">copyable_unique_ptr()</text>
<text text-anchor="start" x="168" y="-821" font-family="Helvetica,sans-Serif" font-size="10.00">+</text>
<text text-anchor="start" x="181" y="-821" font-family="Helvetica,sans-Serif" font-size="10.00">copyable_unique_ptr()</text>
<text text-anchor="start" x="168" y="-806" font-family="Helvetica,sans-Serif" font-size="10.00">+</text>
<text text-anchor="start" x="181" y="-806" font-family="Helvetica,sans-Serif" font-size="10.00">copyable_unique_ptr()</text>
<text text-anchor="start" x="168" y="-791" font-family="Helvetica,sans-Serif" font-size="10.00">+</text>
<text text-anchor="start" x="181" y="-791" font-family="Helvetica,sans-Serif" font-size="10.00">operator=()</text>
<text text-anchor="start" x="168" y="-776" font-family="Helvetica,sans-Serif" font-size="10.00">+</text>
<text text-anchor="start" x="181" y="-776" font-family="Helvetica,sans-Serif" font-size="10.00">operator=()</text>
<text text-anchor="start" x="168" y="-761" font-family="Helvetica,sans-Serif" font-size="10.00">+</text>
<text text-anchor="start" x="181" y="-761" font-family="Helvetica,sans-Serif" font-size="10.00">operator std::unique</text>
<text text-anchor="start" x="181" y="-750" font-family="Helvetica,sans-Serif" font-size="10.00">_ptr&lt; class alpaqa::CUTEstLoader &gt; &amp;()</text>
<text text-anchor="start" x="168" y="-735" font-family="Helvetica,sans-Serif" font-size="10.00">+</text>
<text text-anchor="start" x="181" y="-735" font-family="Helvetica,sans-Serif" font-size="10.00">operator const std</text>
<text text-anchor="start" x="181" y="-724" font-family="Helvetica,sans-Serif" font-size="10.00">::unique_ptr&lt; class</text>
<text text-anchor="start" x="181" y="-713" font-family="Helvetica,sans-Serif" font-size="10.00"> alpaqa::CUTEstLoader &gt; &amp;()</text>
<text text-anchor="start" x="168" y="-698" font-family="Helvetica,sans-Serif" font-size="10.00">+</text>
<text text-anchor="start" x="181" y="-698" font-family="Helvetica,sans-Serif" font-size="10.00">operator std::unique</text>
<text text-anchor="start" x="181" y="-687" font-family="Helvetica,sans-Serif" font-size="10.00">_ptr&lt; class alpaqa::CUTEstLoader</text>
<text text-anchor="start" x="181" y="-676" font-family="Helvetica,sans-Serif" font-size="10.00"> &gt; &amp;&amp;()</text>
<text text-anchor="start" x="168" y="-661" font-family="Helvetica,sans-Serif" font-size="10.00">+</text>
<text text-anchor="start" x="181" y="-661" font-family="Helvetica,sans-Serif" font-size="10.00">operator&#45;&gt;()</text>
<text text-anchor="start" x="168" y="-646" font-family="Helvetica,sans-Serif" font-size="10.00">+</text>
<text text-anchor="start" x="181" y="-646" font-family="Helvetica,sans-Serif" font-size="10.00">operator&#45;&gt;()</text>
<text text-anchor="start" x="168" y="-631" font-family="Helvetica,sans-Serif" font-size="10.00">+</text>
<text text-anchor="start" x="181" y="-631" font-family="Helvetica,sans-Serif" font-size="10.00">operator*()</text>
<text text-anchor="start" x="168" y="-616" font-family="Helvetica,sans-Serif" font-size="10.00">+</text>
<text text-anchor="start" x="181" y="-616" font-family="Helvetica,sans-Serif" font-size="10.00">operator*()</text>
<polygon fill="#666666" stroke="#666666" points="164,-876 164,-876 380,-876 380,-876 164,-876"/>
<polygon fill="#666666" stroke="#666666" points="164,-861 164,-861 179,-861 179,-861 164,-861"/>
<polygon fill="#666666" stroke="#666666" points="179,-861 179,-861 380,-861 380,-861 179,-861"/>
<polygon fill="none" stroke="#666666" points="164,-609.5 164,-904.5 380,-904.5 380,-609.5 164,-609.5"/>
</a>
</g>
</g>
<!-- Node4&#45;&gt;Node1 -->
<g id="edge3_Node000001_Node000004" class="edge">
<title>Node4&#45;&gt;Node1</title>
<g id="a_edge3_Node000001_Node000004"><a xlink:title=" ">
<path fill="none" stroke="#63b8ff" d="M272,-609.28C272,-569.35 272,-524.98 272,-481.16"/>
<polygon fill="none" stroke="#63b8ff" points="272,-481.13 268,-475.13 272,-469.13 276,-475.13 272,-481.13"/>
</a>
</g>
<text text-anchor="middle" x="286.5" y="-495.5" font-family="Helvetica,sans-Serif" font-size="10.00" fill="grey"> &#45;impl</text>
</g>
<!-- Node5 -->
<g id="Node000005" class="node">
<title>Node5</title>
<g id="a_Node000005"><a xlink:href="classalpaqa_1_1CUTEstProblem.html#structalpaqa_1_1CUTEstProblem_1_1SparseStorage" target="_top" xlink:title=" ">
<polygon fill="white" stroke="transparent" points="479.5,-789 398.5,-789 398.5,-725 479.5,-725 479.5,-789"/>
<text text-anchor="start" x="404" y="-777" font-family="Helvetica,sans-Serif" font-size="10.00">SparseStorage</text>
<text text-anchor="start" x="412" y="-762" font-family="Helvetica,sans-Serif" font-size="10.00">+</text>
<text text-anchor="start" x="434" y="-762" font-family="Helvetica,sans-Serif" font-size="10.00">rows</text>
<text text-anchor="start" x="412" y="-747" font-family="Helvetica,sans-Serif" font-size="10.00">+</text>
<text text-anchor="start" x="434" y="-747" font-family="Helvetica,sans-Serif" font-size="10.00">cols</text>
<text text-anchor="start" x="437.5" y="-732" font-family="Helvetica,sans-Serif" font-size="10.00"> </text>
<polygon fill="#666666" stroke="#666666" points="399,-772 399,-772 480,-772 480,-772 399,-772"/>
<polygon fill="#666666" stroke="#666666" points="399,-742 399,-742 432,-742 432,-742 399,-742"/>
<polygon fill="#666666" stroke="#666666" points="432,-742 432,-742 480,-742 480,-742 432,-742"/>
<polygon fill="none" stroke="#666666" points="398.5,-725 398.5,-789 479.5,-789 479.5,-725 398.5,-725"/>
</a>
</g>
</g>
<!-- Node5&#45;&gt;Node1 -->
<g id="edge4_Node000001_Node000005" class="edge">
<title>Node5&#45;&gt;Node1</title>
<g id="a_edge4_Node000001_Node000005"><a xlink:title=" ">
<path fill="none" stroke="#63b8ff" d="M433.9,-724.83C426.24,-680.37 410.35,-596.43 389,-527 375.25,-482.29 357.58,-434.81 340.16,-391.44"/>
<polygon fill="none" stroke="#63b8ff" points="340.11,-391.34 334.16,-387.27 335.62,-380.21 341.57,-384.27 340.11,-391.34"/>
</a>
</g>
<text text-anchor="middle" x="422" y="-501" font-family="Helvetica,sans-Serif" font-size="10.00" fill="grey"> &#45;storage_hess_L</text>
<text text-anchor="middle" x="422" y="-490" font-family="Helvetica,sans-Serif" font-size="10.00" fill="grey">&#45;storage_jac_g</text>
</g>
</g>
</svg>
