<?xml version="1.0" encoding="UTF-8" standalone="no"?>
<!DOCTYPE svg PUBLIC "-//W3C//DTD SVG 1.1//EN"
 "http://www.w3.org/Graphics/SVG/1.1/DTD/svg11.dtd">
<!-- Generated by graphviz version 2.43.0 (0)
 -->
<!-- Title: BoxConstrProblem&lt; Conf &gt; Pages: 1 -->
<!--zoomable 639 -->

<svg id="main" version="1.1" xmlns="http://www.w3.org/2000/svg" xmlns:xlink="http://www.w3.org/1999/xlink" xml:space="preserve" onload="init(evt)">
<style type="text/css"><![CDATA[
.node, .edge {opacity: 0.7;}
.node.selected, .edge.selected {opacity: 1;}
.edge:hover path { stroke: red; }
.edge:hover polygon { stroke: red; fill: red; }
]]></style>

<defs>
  <circle id="rim" cx="0" cy="0" r="7"/>
  <circle id="rim2" cx="0" cy="0" r="3.5"/>
  <g id="zoomPlus">
    <use xlink:href="#rim" fill="#404040"><set attributeName="fill" to="#808080" begin="zoomplus.mouseover" end="zoomplus.mouseout"/></use>
    <path d="M-4,0h8M0,-4v8" fill="none" stroke="white" stroke-width="1.5" pointer-events="none"/>
  </g>
  <g id="zoomMin">
    <use xlink:href="#rim" fill="#404040"><set attributeName="fill" to="#808080" begin="zoomminus.mouseover" end="zoomminus.mouseout"/></use>
    <path d="M-4,0h8" fill="none" stroke="white" stroke-width="1.5" pointer-events="none"/>
  </g>
  <g id="arrowUp" transform="translate(30 24)">
    <use xlink:href="#rim"/>
    <path pointer-events="none" fill="none" stroke="white" stroke-width="1.5" d="M0,-3.0v7 M-2.5,-0.5L0,-3.0L2.5,-0.5"/>
  </g>
  <g id="arrowRight" transform="rotate(90) translate(36 -43)">
    <use xlink:href="#rim"/>
    <path pointer-events="none" fill="none" stroke="white" stroke-width="1.5" d="M0,-3.0v7 M-2.5,-0.5L0,-3.0L2.5,-0.5"/>
  </g>
  <g id="arrowDown" transform="rotate(180) translate(-30 -48)">
    <use xlink:href="#rim"/>
    <path pointer-events="none" fill="none" stroke="white" stroke-width="1.5" d="M0,-3.0v7 M-2.5,-0.5L0,-3.0L2.5,-0.5"/>
  </g>
  <g id="arrowLeft" transform="rotate(270) translate(-36 17)">
    <use xlink:href="#rim"/>
    <path pointer-events="none" fill="none" stroke="white" stroke-width="1.5" d="M0,-3.0v7 M-2.5,-0.5L0,-3.0L2.5,-0.5"/>
  </g>
  <g id="resetDef">
    <use xlink:href="#rim2" fill="#404040"><set attributeName="fill" to="#808080" begin="reset.mouseover" end="reset.mouseout"/></use>
  </g>
</defs>
<script type="application/ecmascript">
var viewWidth = 154;
var viewHeight = 639;
var sectionId = 'dynsection-1';
</script>
<script type="application/ecmascript" xlink:href="svg.min.js"/>
<svg id="graph" class="graph">
<g id="viewport">
<title>BoxConstrProblem&lt; Conf &gt;</title>
<!-- Node1 -->
<g id="Node000001" class="node">
<title>Node1</title>
<g id="a_Node000001"><a xlink:title="Implements common problem functions for minimization problems with box constraints.">
<polygon fill="#999999" stroke="transparent" points="146,-449 0,-449 0,0 146,0 146,-449"/>
<text text-anchor="start" x="5" y="-436.5" font-family="Helvetica,sans-Serif" font-size="10.00">BoxConstrProblem&lt; Conf &gt;</text>
<text text-anchor="start" x="7.5" y="-421.5" font-family="Helvetica,sans-Serif" font-size="10.00">+</text>
<text text-anchor="start" x="24" y="-421.5" font-family="Helvetica,sans-Serif" font-size="10.00">n</text>
<text text-anchor="start" x="7.5" y="-406.5" font-family="Helvetica,sans-Serif" font-size="10.00">+</text>
<text text-anchor="start" x="24" y="-406.5" font-family="Helvetica,sans-Serif" font-size="10.00">m</text>
<text text-anchor="start" x="7.5" y="-391.5" font-family="Helvetica,sans-Serif" font-size="10.00">+</text>
<text text-anchor="start" x="24" y="-391.5" font-family="Helvetica,sans-Serif" font-size="10.00">l1_reg</text>
<text text-anchor="start" x="7.5" y="-376.5" font-family="Helvetica,sans-Serif" font-size="10.00">+</text>
<text text-anchor="start" x="24" y="-376.5" font-family="Helvetica,sans-Serif" font-size="10.00">penalty_alm_split</text>
<text text-anchor="start" x="7.5" y="-361.5" font-family="Helvetica,sans-Serif" font-size="10.00">+</text>
<text text-anchor="start" x="24" y="-361.5" font-family="Helvetica,sans-Serif" font-size="10.00">BoxConstrProblem()</text>
<text text-anchor="start" x="7.5" y="-346.5" font-family="Helvetica,sans-Serif" font-size="10.00">+</text>
<text text-anchor="start" x="24" y="-346.5" font-family="Helvetica,sans-Serif" font-size="10.00">BoxConstrProblem()</text>
<text text-anchor="start" x="7.5" y="-331.5" font-family="Helvetica,sans-Serif" font-size="10.00">+</text>
<text text-anchor="start" x="24" y="-331.5" font-family="Helvetica,sans-Serif" font-size="10.00">BoxConstrProblem()</text>
<text text-anchor="start" x="7.5" y="-316.5" font-family="Helvetica,sans-Serif" font-size="10.00">+</text>
<text text-anchor="start" x="24" y="-316.5" font-family="Helvetica,sans-Serif" font-size="10.00">resize()</text>
<text text-anchor="start" x="7.5" y="-301.5" font-family="Helvetica,sans-Serif" font-size="10.00">+</text>
<text text-anchor="start" x="24" y="-301.5" font-family="Helvetica,sans-Serif" font-size="10.00">BoxConstrProblem()</text>
<text text-anchor="start" x="7.5" y="-286.5" font-family="Helvetica,sans-Serif" font-size="10.00">+</text>
<text text-anchor="start" x="24" y="-286.5" font-family="Helvetica,sans-Serif" font-size="10.00">operator=()</text>
<text text-anchor="start" x="7.5" y="-271.5" font-family="Helvetica,sans-Serif" font-size="10.00">+</text>
<text text-anchor="start" x="24" y="-271.5" font-family="Helvetica,sans-Serif" font-size="10.00">BoxConstrProblem()</text>
<text text-anchor="start" x="7.5" y="-256.5" font-family="Helvetica,sans-Serif" font-size="10.00">+</text>
<text text-anchor="start" x="24" y="-256.5" font-family="Helvetica,sans-Serif" font-size="10.00">operator=()</text>
<text text-anchor="start" x="7.5" y="-241.5" font-family="Helvetica,sans-Serif" font-size="10.00">+</text>
<text text-anchor="start" x="24" y="-241.5" font-family="Helvetica,sans-Serif" font-size="10.00">get_n()</text>
<text text-anchor="start" x="7.5" y="-226.5" font-family="Helvetica,sans-Serif" font-size="10.00">+</text>
<text text-anchor="start" x="24" y="-226.5" font-family="Helvetica,sans-Serif" font-size="10.00">get_m()</text>
<text text-anchor="start" x="7.5" y="-211.5" font-family="Helvetica,sans-Serif" font-size="10.00">+</text>
<text text-anchor="start" x="24" y="-211.5" font-family="Helvetica,sans-Serif" font-size="10.00">eval_prox_grad_step()</text>
<text text-anchor="start" x="7.5" y="-196.5" font-family="Helvetica,sans-Serif" font-size="10.00">+</text>
<text text-anchor="start" x="24" y="-196.5" font-family="Helvetica,sans-Serif" font-size="10.00">eval_proj_diff_g()</text>
<text text-anchor="start" x="7.5" y="-181.5" font-family="Helvetica,sans-Serif" font-size="10.00">+</text>
<text text-anchor="start" x="24" y="-181.5" font-family="Helvetica,sans-Serif" font-size="10.00">eval_proj_multipliers()</text>
<text text-anchor="start" x="7.5" y="-166.5" font-family="Helvetica,sans-Serif" font-size="10.00">+</text>
<text text-anchor="start" x="24" y="-166.5" font-family="Helvetica,sans-Serif" font-size="10.00">get_box_C()</text>
<text text-anchor="start" x="7.5" y="-151.5" font-family="Helvetica,sans-Serif" font-size="10.00">+</text>
<text text-anchor="start" x="24" y="-151.5" font-family="Helvetica,sans-Serif" font-size="10.00">get_box_D()</text>
<text text-anchor="start" x="7.5" y="-136.5" font-family="Helvetica,sans-Serif" font-size="10.00">+</text>
<text text-anchor="start" x="24" y="-136.5" font-family="Helvetica,sans-Serif" font-size="10.00">provides_get_box_C()</text>
<text text-anchor="start" x="7.5" y="-121.5" font-family="Helvetica,sans-Serif" font-size="10.00">+</text>
<text text-anchor="start" x="24" y="-121.5" font-family="Helvetica,sans-Serif" font-size="10.00">eval_proj_grad_step</text>
<text text-anchor="start" x="24" y="-110.5" font-family="Helvetica,sans-Serif" font-size="10.00">_box()</text>
<text text-anchor="start" x="7.5" y="-95.5" font-family="Helvetica,sans-Serif" font-size="10.00">+</text>
<text text-anchor="start" x="24" y="-95.5" font-family="Helvetica,sans-Serif" font-size="10.00">eval_prox_grad_step</text>
<text text-anchor="start" x="24" y="-84.5" font-family="Helvetica,sans-Serif" font-size="10.00">_box_l1_impl()</text>
<text text-anchor="start" x="7.5" y="-69.5" font-family="Helvetica,sans-Serif" font-size="10.00">+</text>
<text text-anchor="start" x="24" y="-69.5" font-family="Helvetica,sans-Serif" font-size="10.00">eval_prox_grad_step</text>
<text text-anchor="start" x="24" y="-58.5" font-family="Helvetica,sans-Serif" font-size="10.00">_box_l1()</text>
<text text-anchor="start" x="7.5" y="-43.5" font-family="Helvetica,sans-Serif" font-size="10.00">+</text>
<text text-anchor="start" x="24" y="-43.5" font-family="Helvetica,sans-Serif" font-size="10.00">eval_prox_grad_step</text>
<text text-anchor="start" x="24" y="-32.5" font-family="Helvetica,sans-Serif" font-size="10.00">_box_l1_scal()</text>
<text text-anchor="start" x="7.5" y="-17.5" font-family="Helvetica,sans-Serif" font-size="10.00">+</text>
<text text-anchor="start" x="24" y="-17.5" font-family="Helvetica,sans-Serif" font-size="10.00">eval_proj_multipliers</text>
<text text-anchor="start" x="24" y="-6.5" font-family="Helvetica,sans-Serif" font-size="10.00">_box()</text>
<polygon fill="#666666" stroke="#666666" points="0,-431.5 0,-431.5 146,-431.5 146,-431.5 0,-431.5"/>
<polygon fill="#666666" stroke="#666666" points="0,-371.5 0,-371.5 22,-371.5 22,-371.5 0,-371.5"/>
<polygon fill="#666666" stroke="#666666" points="22,-371.5 22,-371.5 146,-371.5 146,-371.5 22,-371.5"/>
<polygon fill="none" stroke="#666666" points="0,0 0,-449 146,-449 146,0 0,0"/>
</a>
</g>
</g>
<!-- Node2 -->
<g id="Node000002" class="node">
<title>Node2</title>
<g id="a_Node000002"><a xlink:href="structalpaqa_1_1sets_1_1Box.html" target="_top" xlink:title=" ">
<polygon fill="white" stroke="transparent" points="132,-631 14,-631 14,-507 132,-507 132,-631"/>
<text text-anchor="start" x="33" y="-619" font-family="Helvetica,sans-Serif" font-size="10.00">Box&lt; config_t &gt;</text>
<text text-anchor="start" x="18" y="-604" font-family="Helvetica,sans-Serif" font-size="10.00">+</text>
<text text-anchor="start" x="31" y="-604" font-family="Helvetica,sans-Serif" font-size="10.00">lowerbound</text>
<text text-anchor="start" x="18" y="-589" font-family="Helvetica,sans-Serif" font-size="10.00">+</text>
<text text-anchor="start" x="31" y="-589" font-family="Helvetica,sans-Serif" font-size="10.00">upperbound</text>
<text text-anchor="start" x="18" y="-574" font-family="Helvetica,sans-Serif" font-size="10.00">+</text>
<text text-anchor="start" x="31" y="-574" font-family="Helvetica,sans-Serif" font-size="10.00">Box()</text>
<text text-anchor="start" x="18" y="-559" font-family="Helvetica,sans-Serif" font-size="10.00">+</text>
<text text-anchor="start" x="31" y="-559" font-family="Helvetica,sans-Serif" font-size="10.00">Box()</text>
<text text-anchor="start" x="18" y="-544" font-family="Helvetica,sans-Serif" font-size="10.00">+</text>
<text text-anchor="start" x="31" y="-544" font-family="Helvetica,sans-Serif" font-size="10.00">NaN()</text>
<text text-anchor="start" x="18" y="-529" font-family="Helvetica,sans-Serif" font-size="10.00">+</text>
<text text-anchor="start" x="31" y="-529" font-family="Helvetica,sans-Serif" font-size="10.00">from_lower_upper()</text>
<text text-anchor="start" x="20.5" y="-514" font-family="Helvetica,sans-Serif" font-size="10.00">&#45;</text>
<text text-anchor="start" x="31" y="-514" font-family="Helvetica,sans-Serif" font-size="10.00">Box()</text>
<polygon fill="#666666" stroke="#666666" points="14,-614 14,-614 132,-614 132,-614 14,-614"/>
<polygon fill="#666666" stroke="#666666" points="14,-584 14,-584 29,-584 29,-584 14,-584"/>
<polygon fill="#666666" stroke="#666666" points="29,-584 29,-584 132,-584 132,-584 29,-584"/>
<polygon fill="none" stroke="#666666" points="14,-507 14,-631 132,-631 132,-507 14,-507"/>
</a>
</g>
</g>
<!-- Node2&#45;&gt;Node1 -->
<g id="edge1_Node000001_Node000002" class="edge">
<title>Node2&#45;&gt;Node1</title>
<g id="a_edge1_Node000001_Node000002"><a xlink:title=" ">
<path fill="none" stroke="#63b8ff" d="M73,-506.77C73,-492.99 73,-477.56 73,-461.21"/>
<polygon fill="none" stroke="#63b8ff" points="73,-461.16 69,-455.16 73,-449.16 77,-455.16 73,-461.16"/>
</a>
</g>
<text text-anchor="middle" x="82.5" y="-481" font-family="Helvetica,sans-Serif" font-size="10.00" fill="grey"> +C</text>
<text text-anchor="middle" x="82.5" y="-470" font-family="Helvetica,sans-Serif" font-size="10.00" fill="grey">+D</text>
</g>
</g>
</svg>

<g id="navigator" transform="translate(0 0)" fill="#404254">
  <rect fill="#f2f5e9" fill-opacity="0.5" stroke="#606060" stroke-width=".5" x="0" y="0" width="60" height="60"/>
  <use id="zoomplus" xlink:href="#zoomPlus" x="17" y="9" onmousedown="handleZoom(evt,'in')"/>
  <use id="zoomminus" xlink:href="#zoomMin" x="42" y="9" onmousedown="handleZoom(evt,'out')"/>
  <use id="reset" xlink:href="#resetDef" x="30" y="36" onmousedown="handleReset()"/>
   <use id="arrowup" xlink:href="#arrowUp" x="0" y="0" onmousedown="handlePan(0,-1)"/>
  <use id="arrowright" xlink:href="#arrowRight" x="0" y="0" onmousedown="handlePan(1,0)"/>
  <use id="arrowdown" xlink:href="#arrowDown" x="0" y="0" onmousedown="handlePan(0,1)"/>
  <use id="arrowleft" xlink:href="#arrowLeft" x="0" y="0" onmousedown="handlePan(-1,0)"/>
</g>
<svg viewBox="0 0 15 15" width="100%" height="30px" preserveAspectRatio="xMaxYMin meet">
 <g id="arrow_out" transform="scale(0.3 0.3)">
  <a xlink:href="classalpaqa_1_1BoxConstrProblem__coll__graph_org.svg" target="_base">
   <rect id="button" ry="5" rx="5" y="6" x="6" height="38" width="38"
        fill="#f2f5e9" fill-opacity="0.5" stroke="#606060" stroke-width="1.0"/>
   <path id="arrow"
     d="M 11.500037,31.436501 C 11.940474,20.09759 22.043105,11.32322 32.158766,21.979434 L 37.068811,17.246167 C 37.068811,17.246167 37.088388,32 37.088388,32 L 22.160133,31.978069 C 22.160133,31.978069 26.997745,27.140456 26.997745,27.140456 C 18.528582,18.264221 13.291696,25.230495 11.500037,31.436501 z"
     style="fill:#404040;"/>
  </a>
 </g>
</svg>

<style type='text/css'>
<![CDATA[
[data-mouse-over-selected='false'] { opacity: 0.7; }
[data-mouse-over-selected='true']  { opacity: 1.0; }
]]>
</style>
<script type="application/ecmascript"><![CDATA[
document.addEventListener('DOMContentLoaded', (event) => {
  highlightEdges();
  highlightAdjacentNodes();
});
]]></script>
</svg>
