<?xml version="1.0" encoding="UTF-8" standalone="no"?>
<!DOCTYPE svg PUBLIC "-//W3C//DTD SVG 1.1//EN"
 "http://www.w3.org/Graphics/SVG/1.1/DTD/svg11.dtd">
<!-- Generated by graphviz version 2.43.0 (0)
 -->
<!-- Title: size_in Pages: 1 -->
<svg width="398pt" height="100pt"
 viewBox="0.00 0.00 398.00 99.50" xmlns="http://www.w3.org/2000/svg" xmlns:xlink="http://www.w3.org/1999/xlink">

<svg id="main" version="1.1" xmlns="http://www.w3.org/2000/svg" xmlns:xlink="http://www.w3.org/1999/xlink" xml:space="preserve" onload="init(evt)">
<style type="text/css"><![CDATA[
.node, .edge {opacity: 0.7;}
.node.selected, .edge.selected {opacity: 1;}
.edge:hover path { stroke: red; }
.edge:hover polygon { stroke: red; fill: red; }
]]></style>
<script type="application/ecmascript" xlink:href="svg.min.js"/>
<svg id="graph" class="graph">
<g id="graph0" class="graph" transform="scale(1 1) rotate(0) translate(4 95.5)">
<title>size_in</title>
<!-- Node1 -->
<g id="Node000001" class="node">
<title>Node1</title>
<g id="a_Node000001"><a xlink:title=" ">
<polygon fill="#999999" stroke="#666666" points="50,-40 0,-40 0,-21 50,-21 50,-40"/>
<text text-anchor="middle" x="25" y="-28" font-family="Helvetica,sans-Serif" font-size="10.00">size_in</text>
</a>
</g>
</g>
<!-- Node2 -->
<g id="Node000002" class="node">
<title>Node2</title>
<g id="a_Node000002"><a xlink:href="classalpaqa_1_1casadi_1_1Function_1_1Sparsity.html#a9439c38a6608062dd54ac3cb31427acd" target="_top" xlink:title=" ">
<polygon fill="white" stroke="#666666" points="220,-67.5 86,-67.5 86,-37.5 220,-37.5 220,-67.5"/>
<text text-anchor="start" x="94" y="-55.5" font-family="Helvetica,sans-Serif" font-size="10.00">alpaqa::casadi::Function</text>
<text text-anchor="middle" x="153" y="-44.5" font-family="Helvetica,sans-Serif" font-size="10.00">::Sparsity::size</text>
</a>
</g>
</g>
<!-- Node1&#45;&gt;Node2 -->
<g id="edge1_Node000001_Node000002" class="edge">
<title>Node1&#45;&gt;Node2</title>
<g id="a_edge1_Node000001_Node000002"><a xlink:title=" ">
<path fill="none" stroke="#63b8ff" d="M50.29,-34.74C57.86,-36.06 66.63,-37.59 75.8,-39.2"/>
<polygon fill="#63b8ff" stroke="#63b8ff" points="75.41,-42.68 85.86,-40.95 76.61,-35.78 75.41,-42.68"/>
</a>
</g>
</g>
<!-- Node5 -->
<g id="Node000005" class="node">
<title>Node5</title>
<g id="a_Node000005"><a xlink:href="classalpaqa_1_1casadi_1_1Function.html#a8a88f2123c5e6ababc7a780c62412f65" target="_top" xlink:title=" ">
<polygon fill="white" stroke="#666666" points="188,-19 118,-19 118,0 188,0 188,-19"/>
<text text-anchor="middle" x="153" y="-7" font-family="Helvetica,sans-Serif" font-size="10.00">sparsity_in</text>
</a>
</g>
</g>
<!-- Node1&#45;&gt;Node5 -->
<g id="edge4_Node000001_Node000005" class="edge">
<title>Node1&#45;&gt;Node5</title>
<g id="a_edge4_Node000001_Node000005"><a xlink:title=" ">
<path fill="none" stroke="#63b8ff" d="M50.29,-26.45C66.54,-23.74 88.39,-20.1 107.68,-16.89"/>
<polygon fill="#63b8ff" stroke="#63b8ff" points="108.49,-20.3 117.78,-15.2 107.34,-13.4 108.49,-20.3"/>
</a>
</g>
</g>
<!-- Node3 -->
<g id="Node000003" class="node">
<title>Node3</title>
<g id="a_Node000003"><a xlink:href="classalpaqa_1_1casadi_1_1Function_1_1Sparsity.html#a1ab71d0404def2c8157558a36d4c53cb" target="_top" xlink:title=" ">
<polygon fill="white" stroke="#666666" points="390,-91.5 256,-91.5 256,-61.5 390,-61.5 390,-91.5"/>
<text text-anchor="start" x="264" y="-79.5" font-family="Helvetica,sans-Serif" font-size="10.00">alpaqa::casadi::Function</text>
<text text-anchor="middle" x="323" y="-68.5" font-family="Helvetica,sans-Serif" font-size="10.00">::Sparsity::size1</text>
</a>
</g>
</g>
<!-- Node2&#45;&gt;Node3 -->
<g id="edge2_Node000002_Node000003" class="edge">
<title>Node2&#45;&gt;Node3</title>
<g id="a_edge2_Node000002_Node000003"><a xlink:title=" ">
<path fill="none" stroke="#63b8ff" d="M220.4,-61.99C228.77,-63.18 237.39,-64.41 245.89,-65.63"/>
<polygon fill="#63b8ff" stroke="#63b8ff" points="245.41,-69.09 255.81,-67.04 246.4,-62.17 245.41,-69.09"/>
</a>
</g>
</g>
<!-- Node4 -->
<g id="Node000004" class="node">
<title>Node4</title>
<g id="a_Node000004"><a xlink:href="classalpaqa_1_1casadi_1_1Function_1_1Sparsity.html#ae91c96337dc0f4401b1948f8151dc001" target="_top" xlink:title=" ">
<polygon fill="white" stroke="#666666" points="390,-43.5 256,-43.5 256,-13.5 390,-13.5 390,-43.5"/>
<text text-anchor="start" x="264" y="-31.5" font-family="Helvetica,sans-Serif" font-size="10.00">alpaqa::casadi::Function</text>
<text text-anchor="middle" x="323" y="-20.5" font-family="Helvetica,sans-Serif" font-size="10.00">::Sparsity::size2</text>
</a>
</g>
</g>
<!-- Node2&#45;&gt;Node4 -->
<g id="edge3_Node000002_Node000004" class="edge">
<title>Node2&#45;&gt;Node4</title>
<g id="a_edge3_Node000002_Node000004"><a xlink:title=" ">
<path fill="none" stroke="#63b8ff" d="M220.4,-43.01C228.77,-41.82 237.39,-40.59 245.89,-39.37"/>
<polygon fill="#63b8ff" stroke="#63b8ff" points="246.4,-42.83 255.81,-37.96 245.41,-35.91 246.4,-42.83"/>
</a>
</g>
</g>
</g>
</svg>
</svg>

<style type='text/css'>
<![CDATA[
[data-mouse-over-selected='false'] { opacity: 0.7; }
[data-mouse-over-selected='true']  { opacity: 1.0; }
]]>
</style>
<script type="application/ecmascript"><![CDATA[
document.addEventListener('DOMContentLoaded', (event) => {
  highlightEdges();
  highlightAdjacentNodes();
});
]]></script>
</svg>
