<?xml version="1.0" encoding="UTF-8" standalone="no"?>
<!DOCTYPE svg PUBLIC "-//W3C//DTD SVG 1.1//EN"
 "http://www.w3.org/Graphics/SVG/1.1/DTD/svg11.dtd">
<!-- Generated by graphviz version 2.43.0 (0)
 -->
<!-- Title: load Pages: 1 -->
<svg width="377pt" height="38pt"
 viewBox="0.00 0.00 377.00 38.00" xmlns="http://www.w3.org/2000/svg" xmlns:xlink="http://www.w3.org/1999/xlink">
<g id="graph0" class="graph" transform="scale(1 1) rotate(0) translate(4 34)">
<title>load</title>
<!-- Node1 -->
<g id="Node000001" class="node">
<title>Node1</title>
<g id="a_Node000001"><a xlink:title=" ">
<polygon fill="#999999" stroke="#666666" points="38,-24.5 0,-24.5 0,-5.5 38,-5.5 38,-24.5"/>
<text text-anchor="middle" x="19" y="-12.5" font-family="Helvetica,sans-Serif" font-size="10.00">load</text>
</a>
</g>
</g>
<!-- Node2 -->
<g id="Node000002" class="node">
<title>Node2</title>
<g id="a_Node000002"><a xlink:href="structalpaqa_1_1casadi_1_1ExternalFunction.html#ace993fa3a5c98352088dbfdb46722849" target="_top" xlink:title=" ">
<polygon fill="white" stroke="#666666" points="208,-30 74,-30 74,0 208,0 208,-30"/>
<text text-anchor="start" x="82" y="-18" font-family="Helvetica,sans-Serif" font-size="10.00">alpaqa::casadi::External</text>
<text text-anchor="middle" x="141" y="-7" font-family="Helvetica,sans-Serif" font-size="10.00">Function::load</text>
</a>
</g>
</g>
<!-- Node1&#45;&gt;Node2 -->
<g id="edge1_Node000001_Node000002" class="edge">
<title>Node1&#45;&gt;Node2</title>
<g id="a_edge1_Node000001_Node000002"><a xlink:title=" ">
<path fill="none" stroke="#63b8ff" d="M38.23,-15C45.48,-15 54.34,-15 63.79,-15"/>
<polygon fill="#63b8ff" stroke="#63b8ff" points="63.8,-18.5 73.8,-15 63.8,-11.5 63.8,-18.5"/>
</a>
</g>
</g>
<!-- Node3 -->
<g id="Node000003" class="node">
<title>Node3</title>
<g id="a_Node000003"><a xlink:href="namespacealpaqa_1_1util.html#a68a89a9d6da2af52f71a01e1b98acd5c" target="_top" xlink:title="Get a pointer to a function inside of a loaded DLL or SO file.">
<polygon fill="white" stroke="#666666" points="369,-24.5 244,-24.5 244,-5.5 369,-5.5 369,-24.5"/>
<text text-anchor="middle" x="306.5" y="-12.5" font-family="Helvetica,sans-Serif" font-size="10.00">alpaqa::util::load_func</text>
</a>
</g>
</g>
<!-- Node2&#45;&gt;Node3 -->
<g id="edge2_Node000002_Node000003" class="edge">
<title>Node2&#45;&gt;Node3</title>
<g id="a_edge2_Node000002_Node000003"><a xlink:title=" ">
<path fill="none" stroke="#63b8ff" d="M208.03,-15C216.57,-15 225.34,-15 233.96,-15"/>
<polygon fill="#63b8ff" stroke="#63b8ff" points="233.98,-18.5 243.98,-15 233.98,-11.5 233.98,-18.5"/>
</a>
</g>
</g>
</g>
</svg>
