<?xml version="1.0" encoding="UTF-8" standalone="no"?>
<!DOCTYPE svg PUBLIC "-//W3C//DTD SVG 1.1//EN"
 "http://www.w3.org/Graphics/SVG/1.1/DTD/svg11.dtd">
<!-- Generated by graphviz version 2.43.0 (0)
 -->
<!-- Title: LBFGS&lt; Conf, Storage &gt; Pages: 1 -->
<svg width="335pt" height="879pt"
 viewBox="0.00 0.00 334.50 879.00" xmlns="http://www.w3.org/2000/svg" xmlns:xlink="http://www.w3.org/1999/xlink">
<g id="graph0" class="graph" transform="scale(1 1) rotate(0) translate(4 875)">
<title>LBFGS&lt; Conf, Storage &gt;</title>
<!-- Node1 -->
<g id="Node000001" class="node">
<title>Node1</title>
<g id="a_Node000001"><a xlink:title="Limited memory Broyden–Fletcher–Goldfarb–Shanno (L&#45;BFGS) algorithm.">
<polygon fill="#999999" stroke="transparent" points="204,-514 73,-514 73,0 204,0 204,-514"/>
<text text-anchor="start" x="78.5" y="-502" font-family="Helvetica,sans-Serif" font-size="10.00">LBFGS&lt; Conf, Storage &gt;</text>
<text text-anchor="start" x="81" y="-487" font-family="Helvetica,sans-Serif" font-size="10.00">&#45;</text>
<text text-anchor="start" x="92.5" y="-487" font-family="Helvetica,sans-Serif" font-size="10.00">idx</text>
<text text-anchor="start" x="81" y="-472" font-family="Helvetica,sans-Serif" font-size="10.00">&#45;</text>
<text text-anchor="start" x="92.5" y="-472" font-family="Helvetica,sans-Serif" font-size="10.00">full</text>
<text text-anchor="start" x="78.5" y="-457" font-family="Helvetica,sans-Serif" font-size="10.00">+</text>
<text text-anchor="start" x="92.5" y="-457" font-family="Helvetica,sans-Serif" font-size="10.00">LBFGS()</text>
<text text-anchor="start" x="78.5" y="-442" font-family="Helvetica,sans-Serif" font-size="10.00">+</text>
<text text-anchor="start" x="92.5" y="-442" font-family="Helvetica,sans-Serif" font-size="10.00">LBFGS()</text>
<text text-anchor="start" x="78.5" y="-427" font-family="Helvetica,sans-Serif" font-size="10.00">+</text>
<text text-anchor="start" x="92.5" y="-427" font-family="Helvetica,sans-Serif" font-size="10.00">LBFGS()</text>
<text text-anchor="start" x="78.5" y="-412" font-family="Helvetica,sans-Serif" font-size="10.00">+</text>
<text text-anchor="start" x="92.5" y="-412" font-family="Helvetica,sans-Serif" font-size="10.00">update_sy()</text>
<text text-anchor="start" x="78.5" y="-397" font-family="Helvetica,sans-Serif" font-size="10.00">+</text>
<text text-anchor="start" x="92.5" y="-397" font-family="Helvetica,sans-Serif" font-size="10.00">update_sy_impl()</text>
<text text-anchor="start" x="78.5" y="-382" font-family="Helvetica,sans-Serif" font-size="10.00">+</text>
<text text-anchor="start" x="92.5" y="-382" font-family="Helvetica,sans-Serif" font-size="10.00">update()</text>
<text text-anchor="start" x="78.5" y="-367" font-family="Helvetica,sans-Serif" font-size="10.00">+</text>
<text text-anchor="start" x="92.5" y="-367" font-family="Helvetica,sans-Serif" font-size="10.00">apply()</text>
<text text-anchor="start" x="78.5" y="-352" font-family="Helvetica,sans-Serif" font-size="10.00">+</text>
<text text-anchor="start" x="92.5" y="-352" font-family="Helvetica,sans-Serif" font-size="10.00">apply_masked()</text>
<text text-anchor="start" x="78.5" y="-337" font-family="Helvetica,sans-Serif" font-size="10.00">+</text>
<text text-anchor="start" x="92.5" y="-337" font-family="Helvetica,sans-Serif" font-size="10.00">apply_masked()</text>
<text text-anchor="start" x="78.5" y="-322" font-family="Helvetica,sans-Serif" font-size="10.00">+</text>
<text text-anchor="start" x="92.5" y="-322" font-family="Helvetica,sans-Serif" font-size="10.00">apply_masked_impl()</text>
<text text-anchor="start" x="78.5" y="-307" font-family="Helvetica,sans-Serif" font-size="10.00">+</text>
<text text-anchor="start" x="92.5" y="-307" font-family="Helvetica,sans-Serif" font-size="10.00">reset()</text>
<text text-anchor="start" x="78.5" y="-292" font-family="Helvetica,sans-Serif" font-size="10.00">+</text>
<text text-anchor="start" x="92.5" y="-292" font-family="Helvetica,sans-Serif" font-size="10.00">resize()</text>
<text text-anchor="start" x="78.5" y="-277" font-family="Helvetica,sans-Serif" font-size="10.00">+</text>
<text text-anchor="start" x="92.5" y="-277" font-family="Helvetica,sans-Serif" font-size="10.00">scale_y()</text>
<text text-anchor="start" x="78.5" y="-262" font-family="Helvetica,sans-Serif" font-size="10.00">+</text>
<text text-anchor="start" x="92.5" y="-262" font-family="Helvetica,sans-Serif" font-size="10.00">get_name()</text>
<text text-anchor="start" x="78.5" y="-247" font-family="Helvetica,sans-Serif" font-size="10.00">+</text>
<text text-anchor="start" x="92.5" y="-247" font-family="Helvetica,sans-Serif" font-size="10.00">get_params()</text>
<text text-anchor="start" x="78.5" y="-232" font-family="Helvetica,sans-Serif" font-size="10.00">+</text>
<text text-anchor="start" x="92.5" y="-232" font-family="Helvetica,sans-Serif" font-size="10.00">n()</text>
<text text-anchor="start" x="78.5" y="-217" font-family="Helvetica,sans-Serif" font-size="10.00">+</text>
<text text-anchor="start" x="92.5" y="-217" font-family="Helvetica,sans-Serif" font-size="10.00">history()</text>
<text text-anchor="start" x="78.5" y="-202" font-family="Helvetica,sans-Serif" font-size="10.00">+</text>
<text text-anchor="start" x="92.5" y="-202" font-family="Helvetica,sans-Serif" font-size="10.00">succ()</text>
<text text-anchor="start" x="78.5" y="-187" font-family="Helvetica,sans-Serif" font-size="10.00">+</text>
<text text-anchor="start" x="92.5" y="-187" font-family="Helvetica,sans-Serif" font-size="10.00">pred()</text>
<text text-anchor="start" x="78.5" y="-172" font-family="Helvetica,sans-Serif" font-size="10.00">+</text>
<text text-anchor="start" x="92.5" y="-172" font-family="Helvetica,sans-Serif" font-size="10.00">current_history()</text>
<text text-anchor="start" x="78.5" y="-157" font-family="Helvetica,sans-Serif" font-size="10.00">+</text>
<text text-anchor="start" x="92.5" y="-157" font-family="Helvetica,sans-Serif" font-size="10.00">s()</text>
<text text-anchor="start" x="78.5" y="-142" font-family="Helvetica,sans-Serif" font-size="10.00">+</text>
<text text-anchor="start" x="92.5" y="-142" font-family="Helvetica,sans-Serif" font-size="10.00">s()</text>
<text text-anchor="start" x="78.5" y="-127" font-family="Helvetica,sans-Serif" font-size="10.00">+</text>
<text text-anchor="start" x="92.5" y="-127" font-family="Helvetica,sans-Serif" font-size="10.00">y()</text>
<text text-anchor="start" x="78.5" y="-112" font-family="Helvetica,sans-Serif" font-size="10.00">+</text>
<text text-anchor="start" x="92.5" y="-112" font-family="Helvetica,sans-Serif" font-size="10.00">y()</text>
<text text-anchor="start" x="78.5" y="-97" font-family="Helvetica,sans-Serif" font-size="10.00">+</text>
<text text-anchor="start" x="92.5" y="-97" font-family="Helvetica,sans-Serif" font-size="10.00">ρ()</text>
<text text-anchor="start" x="78.5" y="-82" font-family="Helvetica,sans-Serif" font-size="10.00">+</text>
<text text-anchor="start" x="92.5" y="-82" font-family="Helvetica,sans-Serif" font-size="10.00">ρ()</text>
<text text-anchor="start" x="78.5" y="-67" font-family="Helvetica,sans-Serif" font-size="10.00">+</text>
<text text-anchor="start" x="92.5" y="-67" font-family="Helvetica,sans-Serif" font-size="10.00">α()</text>
<text text-anchor="start" x="78.5" y="-52" font-family="Helvetica,sans-Serif" font-size="10.00">+</text>
<text text-anchor="start" x="92.5" y="-52" font-family="Helvetica,sans-Serif" font-size="10.00">α()</text>
<text text-anchor="start" x="78.5" y="-37" font-family="Helvetica,sans-Serif" font-size="10.00">+</text>
<text text-anchor="start" x="92.5" y="-37" font-family="Helvetica,sans-Serif" font-size="10.00">foreach_fwd()</text>
<text text-anchor="start" x="78.5" y="-22" font-family="Helvetica,sans-Serif" font-size="10.00">+</text>
<text text-anchor="start" x="92.5" y="-22" font-family="Helvetica,sans-Serif" font-size="10.00">foreach_rev()</text>
<text text-anchor="start" x="78.5" y="-7" font-family="Helvetica,sans-Serif" font-size="10.00">+</text>
<text text-anchor="start" x="92.5" y="-7" font-family="Helvetica,sans-Serif" font-size="10.00">update_valid()</text>
<polygon fill="#666666" stroke="#666666" points="73.5,-497 73.5,-497 204.5,-497 204.5,-497 73.5,-497"/>
<polygon fill="#666666" stroke="#666666" points="73.5,-467 73.5,-467 90.5,-467 90.5,-467 73.5,-467"/>
<polygon fill="#666666" stroke="#666666" points="90.5,-467 90.5,-467 204.5,-467 204.5,-467 90.5,-467"/>
<polygon fill="none" stroke="#666666" points="73,0 73,-514 204,-514 204,0 73,0"/>
</a>
</g>
</g>
<!-- Node2 -->
<g id="Node000002" class="node">
<title>Node2</title>
<g id="a_Node000002"><a xlink:href="structalpaqa_1_1LBFGSStorage.html" target="_top" xlink:title=" ">
<polygon fill="white" stroke="transparent" points="169,-760 0,-760 0,-561 169,-561 169,-760"/>
<text text-anchor="start" x="5.5" y="-747.5" font-family="Helvetica,sans-Serif" font-size="10.00">LBFGSStorage&lt; DefaultConfig &gt;</text>
<text text-anchor="start" x="31" y="-732.5" font-family="Helvetica,sans-Serif" font-size="10.00">+</text>
<text text-anchor="start" x="70.5" y="-732.5" font-family="Helvetica,sans-Serif" font-size="10.00">sto</text>
<text text-anchor="start" x="31" y="-717.5" font-family="Helvetica,sans-Serif" font-size="10.00">+</text>
<text text-anchor="start" x="70.5" y="-717.5" font-family="Helvetica,sans-Serif" font-size="10.00">resize()</text>
<text text-anchor="start" x="31" y="-702.5" font-family="Helvetica,sans-Serif" font-size="10.00">+</text>
<text text-anchor="start" x="70.5" y="-702.5" font-family="Helvetica,sans-Serif" font-size="10.00">n()</text>
<text text-anchor="start" x="31" y="-687.5" font-family="Helvetica,sans-Serif" font-size="10.00">+</text>
<text text-anchor="start" x="70.5" y="-687.5" font-family="Helvetica,sans-Serif" font-size="10.00">history()</text>
<text text-anchor="start" x="31" y="-672.5" font-family="Helvetica,sans-Serif" font-size="10.00">+</text>
<text text-anchor="start" x="70.5" y="-672.5" font-family="Helvetica,sans-Serif" font-size="10.00">s()</text>
<text text-anchor="start" x="31" y="-657.5" font-family="Helvetica,sans-Serif" font-size="10.00">+</text>
<text text-anchor="start" x="70.5" y="-657.5" font-family="Helvetica,sans-Serif" font-size="10.00">s()</text>
<text text-anchor="start" x="31" y="-642.5" font-family="Helvetica,sans-Serif" font-size="10.00">+</text>
<text text-anchor="start" x="70.5" y="-642.5" font-family="Helvetica,sans-Serif" font-size="10.00">y()</text>
<text text-anchor="start" x="31" y="-627.5" font-family="Helvetica,sans-Serif" font-size="10.00">+</text>
<text text-anchor="start" x="70.5" y="-627.5" font-family="Helvetica,sans-Serif" font-size="10.00">y()</text>
<text text-anchor="start" x="31" y="-612.5" font-family="Helvetica,sans-Serif" font-size="10.00">+</text>
<text text-anchor="start" x="70.5" y="-612.5" font-family="Helvetica,sans-Serif" font-size="10.00">ρ()</text>
<text text-anchor="start" x="31" y="-597.5" font-family="Helvetica,sans-Serif" font-size="10.00">+</text>
<text text-anchor="start" x="70.5" y="-597.5" font-family="Helvetica,sans-Serif" font-size="10.00">ρ()</text>
<text text-anchor="start" x="31" y="-582.5" font-family="Helvetica,sans-Serif" font-size="10.00">+</text>
<text text-anchor="start" x="70.5" y="-582.5" font-family="Helvetica,sans-Serif" font-size="10.00">α()</text>
<text text-anchor="start" x="31" y="-567.5" font-family="Helvetica,sans-Serif" font-size="10.00">+</text>
<text text-anchor="start" x="70.5" y="-567.5" font-family="Helvetica,sans-Serif" font-size="10.00">α()</text>
<polygon fill="#666666" stroke="#666666" points="0.5,-742.5 0.5,-742.5 169.5,-742.5 169.5,-742.5 0.5,-742.5"/>
<polygon fill="#666666" stroke="#666666" points="0.5,-727.5 0.5,-727.5 68.5,-727.5 68.5,-727.5 0.5,-727.5"/>
<polygon fill="#666666" stroke="#666666" points="68.5,-727.5 68.5,-727.5 169.5,-727.5 169.5,-727.5 68.5,-727.5"/>
<polygon fill="none" stroke="#666666" points="0,-561 0,-760 169,-760 169,-561 0,-561"/>
</a>
</g>
</g>
<!-- Node2&#45;&gt;Node1 -->
<g id="edge1_Node000001_Node000002" class="edge">
<title>Node2&#45;&gt;Node1</title>
<g id="a_edge1_Node000001_Node000002"><a xlink:title=" ">
<path fill="none" stroke="#63b8ff" d="M97.78,-560.77C99.27,-549.71 100.83,-538.09 102.44,-526.11"/>
<polygon fill="none" stroke="#63b8ff" points="102.47,-525.9 99.3,-519.42 104.07,-514.01 107.23,-520.49 102.47,-525.9"/>
</a>
</g>
<text text-anchor="middle" x="110.5" y="-535" font-family="Helvetica,sans-Serif" font-size="10.00" fill="grey"> &#45;sto</text>
</g>
<!-- Node3 -->
<g id="Node000003" class="node">
<title>Node3</title>
<g id="a_Node000003"><a xlink:href="namespacealpaqa.html#group__grp__Parameters" target="_top" xlink:title=" ">
<polygon fill="white" stroke="transparent" points="326,-715 187,-715 187,-606 326,-606 326,-715"/>
<text text-anchor="start" x="192.5" y="-702.5" font-family="Helvetica,sans-Serif" font-size="10.00">LBFGSParams&lt; config_t &gt;</text>
<text text-anchor="start" x="203.5" y="-687.5" font-family="Helvetica,sans-Serif" font-size="10.00">+</text>
<text text-anchor="start" x="228.5" y="-687.5" font-family="Helvetica,sans-Serif" font-size="10.00">memory</text>
<text text-anchor="start" x="203.5" y="-672.5" font-family="Helvetica,sans-Serif" font-size="10.00">+</text>
<text text-anchor="start" x="228.5" y="-672.5" font-family="Helvetica,sans-Serif" font-size="10.00">min_div_fac</text>
<text text-anchor="start" x="203.5" y="-657.5" font-family="Helvetica,sans-Serif" font-size="10.00">+</text>
<text text-anchor="start" x="228.5" y="-657.5" font-family="Helvetica,sans-Serif" font-size="10.00">min_abs_s</text>
<text text-anchor="start" x="203.5" y="-642.5" font-family="Helvetica,sans-Serif" font-size="10.00">+</text>
<text text-anchor="start" x="228.5" y="-642.5" font-family="Helvetica,sans-Serif" font-size="10.00">force_pos_def</text>
<text text-anchor="start" x="203.5" y="-627.5" font-family="Helvetica,sans-Serif" font-size="10.00">+</text>
<text text-anchor="start" x="228.5" y="-627.5" font-family="Helvetica,sans-Serif" font-size="10.00">stepsize</text>
<text text-anchor="start" x="255" y="-612.5" font-family="Helvetica,sans-Serif" font-size="10.00"> </text>
<polygon fill="#666666" stroke="#666666" points="187.5,-697.5 187.5,-697.5 326.5,-697.5 326.5,-697.5 187.5,-697.5"/>
<polygon fill="#666666" stroke="#666666" points="187.5,-622.5 187.5,-622.5 226.5,-622.5 226.5,-622.5 187.5,-622.5"/>
<polygon fill="#666666" stroke="#666666" points="226.5,-622.5 226.5,-622.5 326.5,-622.5 326.5,-622.5 226.5,-622.5"/>
<polygon fill="none" stroke="#666666" points="187,-606 187,-715 326,-715 326,-606 187,-606"/>
</a>
</g>
</g>
<!-- Node3&#45;&gt;Node1 -->
<g id="edge2_Node000001_Node000003" class="edge">
<title>Node3&#45;&gt;Node1</title>
<g id="a_edge2_Node000001_Node000003"><a xlink:title=" ">
<path fill="none" stroke="#63b8ff" d="M240.71,-605.77C231.79,-575.43 219.96,-535.17 207.52,-492.83"/>
<polygon fill="none" stroke="#63b8ff" points="207.46,-492.65 201.93,-488.03 204.08,-481.14 209.61,-485.77 207.46,-492.65"/>
</a>
</g>
<text text-anchor="middle" x="243.5" y="-535" font-family="Helvetica,sans-Serif" font-size="10.00" fill="grey"> &#45;params</text>
</g>
<!-- Node4 -->
<g id="Node000004" class="node">
<title>Node4</title>
<g id="a_Node000004"><a xlink:href="structalpaqa_1_1CBFGSParams.html" target="_top" xlink:title=" ">
<polygon fill="white" stroke="transparent" points="326.5,-871 186.5,-871 186.5,-807 326.5,-807 326.5,-871"/>
<text text-anchor="start" x="191.5" y="-859" font-family="Helvetica,sans-Serif" font-size="10.00">CBFGSParams&lt; config_t &gt;</text>
<text text-anchor="start" x="202" y="-844" font-family="Helvetica,sans-Serif" font-size="10.00">+</text>
<text text-anchor="start" x="226.5" y="-844" font-family="Helvetica,sans-Serif" font-size="10.00">α</text>
<text text-anchor="start" x="202" y="-829" font-family="Helvetica,sans-Serif" font-size="10.00">+</text>
<text text-anchor="start" x="226.5" y="-829" font-family="Helvetica,sans-Serif" font-size="10.00">ϵ</text>
<text text-anchor="start" x="202" y="-814" font-family="Helvetica,sans-Serif" font-size="10.00">+</text>
<text text-anchor="start" x="226.5" y="-814" font-family="Helvetica,sans-Serif" font-size="10.00">operator bool()</text>
<polygon fill="#666666" stroke="#666666" points="186.5,-854 186.5,-854 326.5,-854 326.5,-854 186.5,-854"/>
<polygon fill="#666666" stroke="#666666" points="186.5,-824 186.5,-824 224.5,-824 224.5,-824 186.5,-824"/>
<polygon fill="#666666" stroke="#666666" points="224.5,-824 224.5,-824 326.5,-824 326.5,-824 224.5,-824"/>
<polygon fill="none" stroke="#666666" points="186.5,-807 186.5,-871 326.5,-871 326.5,-807 186.5,-807"/>
</a>
</g>
</g>
<!-- Node4&#45;&gt;Node3 -->
<g id="edge3_Node000003_Node000004" class="edge">
<title>Node4&#45;&gt;Node3</title>
<g id="a_edge3_Node000003_Node000004"><a xlink:title=" ">
<path fill="none" stroke="#63b8ff" d="M256.5,-806.85C256.5,-784.88 256.5,-754.64 256.5,-727.42"/>
<polygon fill="none" stroke="#63b8ff" points="256.5,-727.17 252.5,-721.17 256.5,-715.17 260.5,-721.17 256.5,-727.17"/>
</a>
</g>
<text text-anchor="middle" x="275.5" y="-781" font-family="Helvetica,sans-Serif" font-size="10.00" fill="grey"> +cbfgs</text>
</g>
</g>
</svg>
