<?xml version="1.0" encoding="UTF-8" standalone="no"?>
<!DOCTYPE svg PUBLIC "-//W3C//DTD SVG 1.1//EN"
 "http://www.w3.org/Graphics/SVG/1.1/DTD/svg11.dtd">
<!-- Generated by graphviz version 2.43.0 (0)
 -->
<!-- Title: CasADiFunctionEvaluator Pages: 1 -->
<svg width="464pt" height="86pt"
 viewBox="0.00 0.00 464.00 86.00" xmlns="http://www.w3.org/2000/svg" xmlns:xlink="http://www.w3.org/1999/xlink">
<g id="graph0" class="graph" transform="scale(1 1) rotate(0) translate(4 82)">
<title>CasADiFunctionEvaluator</title>
<!-- Node1 -->
<g id="Node000001" class="node">
<title>Node1</title>
<g id="a_Node000001"><a xlink:title=" ">
<polygon fill="#999999" stroke="#666666" points="140,-48.5 0,-48.5 0,-29.5 140,-29.5 140,-48.5"/>
<text text-anchor="middle" x="70" y="-36.5" font-family="Helvetica,sans-Serif" font-size="10.00">CasADiFunctionEvaluator</text>
</a>
</g>
</g>
<!-- Node2 -->
<g id="Node000002" class="node">
<title>Node2</title>
<g id="a_Node000002"><a xlink:href="classalpaqa_1_1casadi__loader_1_1CasADiFunctionEvaluator.html#a3de01679f2fd84f6179c96d97edd44cc" target="_top" xlink:title=" ">
<polygon fill="white" stroke="#666666" points="286,-48.5 176,-48.5 176,-29.5 286,-29.5 286,-48.5"/>
<text text-anchor="middle" x="231" y="-36.5" font-family="Helvetica,sans-Serif" font-size="10.00">validate_num_args</text>
</a>
</g>
</g>
<!-- Node1&#45;&gt;Node2 -->
<g id="edge1_Node000001_Node000002" class="edge">
<title>Node1&#45;&gt;Node2</title>
<g id="a_edge1_Node000001_Node000002"><a xlink:title=" ">
<path fill="none" stroke="#63b8ff" d="M140.28,-39C148.73,-39 157.33,-39 165.7,-39"/>
<polygon fill="#63b8ff" stroke="#63b8ff" points="165.77,-42.5 175.77,-39 165.77,-35.5 165.77,-42.5"/>
</a>
</g>
</g>
<!-- Node3 -->
<g id="Node000003" class="node">
<title>Node3</title>
<g id="a_Node000003"><a xlink:href="classalpaqa_1_1casadi_1_1Function.html#a4ba83e8705bfceadf5efa1a1e9df8acd" target="_top" xlink:title=" ">
<polygon fill="white" stroke="#666666" points="456,-78 322,-78 322,-48 456,-48 456,-78"/>
<text text-anchor="start" x="330" y="-66" font-family="Helvetica,sans-Serif" font-size="10.00">alpaqa::casadi::Function</text>
<text text-anchor="middle" x="389" y="-55" font-family="Helvetica,sans-Serif" font-size="10.00">::n_in</text>
</a>
</g>
</g>
<!-- Node2&#45;&gt;Node3 -->
<g id="edge2_Node000002_Node000003" class="edge">
<title>Node2&#45;&gt;Node3</title>
<g id="a_edge2_Node000002_Node000003"><a xlink:title=" ">
<path fill="none" stroke="#63b8ff" d="M286.12,-47.33C294.41,-48.6 303.09,-49.94 311.75,-51.27"/>
<polygon fill="#63b8ff" stroke="#63b8ff" points="311.45,-54.76 321.87,-52.83 312.52,-47.85 311.45,-54.76"/>
</a>
</g>
</g>
<!-- Node4 -->
<g id="Node000004" class="node">
<title>Node4</title>
<g id="a_Node000004"><a xlink:href="classalpaqa_1_1casadi_1_1Function.html#a312ff44362f2dc12550e551cd56e1b11" target="_top" xlink:title=" ">
<polygon fill="white" stroke="#666666" points="456,-30 322,-30 322,0 456,0 456,-30"/>
<text text-anchor="start" x="330" y="-18" font-family="Helvetica,sans-Serif" font-size="10.00">alpaqa::casadi::Function</text>
<text text-anchor="middle" x="389" y="-7" font-family="Helvetica,sans-Serif" font-size="10.00">::n_out</text>
</a>
</g>
</g>
<!-- Node2&#45;&gt;Node4 -->
<g id="edge3_Node000002_Node000004" class="edge">
<title>Node2&#45;&gt;Node4</title>
<g id="a_edge3_Node000002_Node000004"><a xlink:title=" ">
<path fill="none" stroke="#63b8ff" d="M286.12,-30.67C294.41,-29.4 303.09,-28.06 311.75,-26.73"/>
<polygon fill="#63b8ff" stroke="#63b8ff" points="312.52,-30.15 321.87,-25.17 311.45,-23.24 312.52,-30.15"/>
</a>
</g>
</g>
</g>
</svg>
