<?xml version="1.0" encoding="UTF-8" standalone="no"?>
<!DOCTYPE svg PUBLIC "-//W3C//DTD SVG 1.1//EN"
 "http://www.w3.org/Graphics/SVG/1.1/DTD/svg11.dtd">
<!-- Generated by graphviz version 2.43.0 (0)
 -->
<!-- Title: n_out Pages: 1 -->
<svg width="416pt" height="49pt"
 viewBox="0.00 0.00 416.00 49.00" xmlns="http://www.w3.org/2000/svg" xmlns:xlink="http://www.w3.org/1999/xlink">
<g id="graph0" class="graph" transform="scale(1 1) rotate(0) translate(4 45)">
<title>n_out</title>
<!-- Node1 -->
<g id="Node000001" class="node">
<title>Node1</title>
<g id="a_Node000001"><a xlink:title=" ">
<polygon fill="#999999" stroke="#666666" points="408,-30 364,-30 364,-11 408,-11 408,-30"/>
<text text-anchor="middle" x="386" y="-18" font-family="Helvetica,sans-Serif" font-size="10.00">n_out</text>
</a>
</g>
</g>
<!-- Node2 -->
<g id="Node000002" class="node">
<title>Node2</title>
<g id="a_Node000002"><a xlink:href="classalpaqa_1_1casadi__loader_1_1CasADiFunctionEvaluator.html#a3de01679f2fd84f6179c96d97edd44cc" target="_top" xlink:title=" ">
<polygon fill="white" stroke="#666666" points="328,-41 182,-41 182,0 328,0 328,-41"/>
<text text-anchor="start" x="190" y="-29" font-family="Helvetica,sans-Serif" font-size="10.00">alpaqa::casadi_loader</text>
<text text-anchor="start" x="190" y="-18" font-family="Helvetica,sans-Serif" font-size="10.00">::CasADiFunctionEvaluator</text>
<text text-anchor="middle" x="255" y="-7" font-family="Helvetica,sans-Serif" font-size="10.00">::validate_num_args</text>
</a>
</g>
</g>
<!-- Node1&#45;&gt;Node2 -->
<g id="edge1_Node000001_Node000002" class="edge">
<title>Node1&#45;&gt;Node2</title>
<g id="a_edge1_Node000001_Node000002"><a xlink:title=" ">
<path fill="none" stroke="#63b8ff" d="M353.84,-20.5C345.93,-20.5 337.1,-20.5 328.07,-20.5"/>
<polygon fill="#63b8ff" stroke="#63b8ff" points="353.99,-24 363.99,-20.5 353.99,-17 353.99,-24"/>
</a>
</g>
</g>
<!-- Node3 -->
<g id="Node000003" class="node">
<title>Node3</title>
<g id="a_Node000003"><a xlink:href="classalpaqa_1_1casadi__loader_1_1CasADiFunctionEvaluator.html#a58b570e155189830041eb179d076c332" target="_top" xlink:title=" ">
<polygon fill="white" stroke="#666666" points="146,-41 0,-41 0,0 146,0 146,-41"/>
<text text-anchor="start" x="8" y="-29" font-family="Helvetica,sans-Serif" font-size="10.00">alpaqa::casadi_loader</text>
<text text-anchor="start" x="8" y="-18" font-family="Helvetica,sans-Serif" font-size="10.00">::CasADiFunctionEvaluator</text>
<text text-anchor="middle" x="73" y="-7" font-family="Helvetica,sans-Serif" font-size="10.00">::CasADiFunctionEvaluator</text>
</a>
</g>
</g>
<!-- Node2&#45;&gt;Node3 -->
<g id="edge2_Node000002_Node000003" class="edge">
<title>Node2&#45;&gt;Node3</title>
<g id="a_edge2_Node000002_Node000003"><a xlink:title=" ">
<path fill="none" stroke="#63b8ff" d="M171.56,-20.5C163.09,-20.5 154.54,-20.5 146.19,-20.5"/>
<polygon fill="#63b8ff" stroke="#63b8ff" points="171.82,-24 181.82,-20.5 171.82,-17 171.82,-24"/>
</a>
</g>
</g>
</g>
</svg>
