<?xml version="1.0" encoding="UTF-8" standalone="no"?>
<!DOCTYPE svg PUBLIC "-//W3C//DTD SVG 1.1//EN"
 "http://www.w3.org/Graphics/SVG/1.1/DTD/svg11.dtd">
<!-- Generated by graphviz version 2.43.0 (0)
 -->
<!-- Title: src/interop/casadi/include/alpaqa/casadi/CompleteCasADiProblem.hpp Pages: 1 -->
<svg width="1646pt" height="412pt"
 viewBox="0.00 0.00 1645.50 412.00" xmlns="http://www.w3.org/2000/svg" xmlns:xlink="http://www.w3.org/1999/xlink">
<g id="graph0" class="graph" transform="scale(1 1) rotate(0) translate(4 408)">
<title>src/interop/casadi/include/alpaqa/casadi/CompleteCasADiProblem.hpp</title>
<!-- Node1 -->
<g id="Node000001" class="node">
<title>Node1</title>
<g id="a_Node000001"><a xlink:title=" ">
<polygon fill="#999999" stroke="#666666" points="1235.5,-404 1071.5,-404 1071.5,-363 1235.5,-363 1235.5,-404"/>
<text text-anchor="start" x="1079.5" y="-392" font-family="Helvetica,sans-Serif" font-size="10.00">src/interop/casadi</text>
<text text-anchor="start" x="1079.5" y="-381" font-family="Helvetica,sans-Serif" font-size="10.00">/include/alpaqa/casadi</text>
<text text-anchor="middle" x="1153.5" y="-370" font-family="Helvetica,sans-Serif" font-size="10.00">/CompleteCasADiProblem.hpp</text>
</a>
</g>
</g>
<!-- Node2 -->
<g id="Node000002" class="node">
<title>Node2</title>
<g id="a_Node000002"><a xlink:title=" ">
<polygon fill="#e0e0e0" stroke="#999999" points="1560,-206 1441,-206 1441,-176 1560,-176 1560,-206"/>
<text text-anchor="start" x="1449" y="-194" font-family="Helvetica,sans-Serif" font-size="10.00">alpaqa/casadi&#45;loader</text>
<text text-anchor="middle" x="1500.5" y="-183" font-family="Helvetica,sans-Serif" font-size="10.00">&#45;export.h</text>
</a>
</g>
</g>
<!-- Node1&#45;&gt;Node2 -->
<g id="edge1_Node000001_Node000002" class="edge">
<title>Node1&#45;&gt;Node2</title>
<g id="a_edge1_Node000001_Node000002"><a xlink:title=" ">
<path fill="none" stroke="#63b8ff" d="M1235.89,-374.47C1353.97,-361.06 1562.14,-329.72 1607.5,-272 1628.02,-245.88 1592.1,-223.95 1556.47,-209.7"/>
<polygon fill="#63b8ff" stroke="#63b8ff" points="1557.55,-206.36 1546.96,-206.06 1555.05,-212.9 1557.55,-206.36"/>
</a>
</g>
</g>
<!-- Node3 -->
<g id="Node000003" class="node">
<title>Node3</title>
<g id="a_Node000003"><a xlink:href="CasADiProblem_8hpp.html" target="_top" xlink:title=" ">
<polygon fill="white" stroke="#666666" points="1245.5,-327 1061.5,-327 1061.5,-308 1245.5,-308 1245.5,-327"/>
<text text-anchor="middle" x="1153.5" y="-315" font-family="Helvetica,sans-Serif" font-size="10.00">alpaqa/casadi/CasADiProblem.hpp</text>
</a>
</g>
</g>
<!-- Node1&#45;&gt;Node3 -->
<g id="edge2_Node000001_Node000003" class="edge">
<title>Node1&#45;&gt;Node3</title>
<g id="a_edge2_Node000001_Node000003"><a xlink:title=" ">
<path fill="none" stroke="#63b8ff" d="M1153.5,-362.95C1153.5,-354.85 1153.5,-345.5 1153.5,-337.47"/>
<polygon fill="#63b8ff" stroke="#63b8ff" points="1157,-337.26 1153.5,-327.26 1150,-337.26 1157,-337.26"/>
</a>
</g>
</g>
<!-- Node5 -->
<g id="Node000005" class="node">
<title>Node5</title>
<g id="a_Node000005"><a xlink:href="casadi-namespace_8hpp.html" target="_top" xlink:title=" ">
<polygon fill="white" stroke="#666666" points="876,-85 757,-85 757,-55 876,-55 876,-85"/>
<text text-anchor="start" x="765" y="-73" font-family="Helvetica,sans-Serif" font-size="10.00">alpaqa/casadi/casadi</text>
<text text-anchor="middle" x="816.5" y="-62" font-family="Helvetica,sans-Serif" font-size="10.00">&#45;namespace.hpp</text>
</a>
</g>
</g>
<!-- Node1&#45;&gt;Node5 -->
<g id="edge67_Node000001_Node000005" class="edge">
<title>Node1&#45;&gt;Node5</title>
<g id="a_edge67_Node000001_Node000005"><a xlink:title=" ">
<path fill="none" stroke="#63b8ff" d="M1071.36,-374.51C944.95,-360.59 710.97,-327.93 650.5,-272 600.88,-226.11 614.53,-161.69 668.5,-121 682.49,-110.45 720.08,-97.81 753.87,-87.88"/>
<polygon fill="#63b8ff" stroke="#63b8ff" points="755.11,-91.16 763.74,-85.02 753.16,-84.44 755.11,-91.16"/>
</a>
</g>
</g>
<!-- Node4 -->
<g id="Node000004" class="node">
<title>Node4</title>
<g id="a_Node000004"><a xlink:href="casadi-loader-export_8hpp.html" target="_top" xlink:title=" ">
<polygon fill="white" stroke="#666666" points="1408,-272 1289,-272 1289,-242 1408,-242 1408,-272"/>
<text text-anchor="start" x="1297" y="-260" font-family="Helvetica,sans-Serif" font-size="10.00">alpaqa/casadi&#45;loader</text>
<text text-anchor="middle" x="1348.5" y="-249" font-family="Helvetica,sans-Serif" font-size="10.00">&#45;export.hpp</text>
</a>
</g>
</g>
<!-- Node3&#45;&gt;Node4 -->
<g id="edge3_Node000003_Node000004" class="edge">
<title>Node3&#45;&gt;Node4</title>
<g id="a_edge3_Node000003_Node000004"><a xlink:title=" ">
<path fill="none" stroke="#63b8ff" d="M1181.85,-307.99C1210.53,-299.39 1255.65,-285.86 1291.71,-275.04"/>
<polygon fill="#63b8ff" stroke="#63b8ff" points="1293.05,-278.29 1301.62,-272.06 1291.04,-271.59 1293.05,-278.29"/>
</a>
</g>
</g>
<!-- Node3&#45;&gt;Node5 -->
<g id="edge5_Node000003_Node000005" class="edge">
<title>Node3&#45;&gt;Node5</title>
<g id="a_edge5_Node000003_Node000005"><a xlink:title=" ">
<path fill="none" stroke="#63b8ff" d="M1061.44,-315.46C947.35,-312.81 760.5,-303.61 699.5,-272 655.44,-249.17 618.11,-219.21 642.5,-176 667.31,-132.05 718.71,-104.44 759.25,-88.62"/>
<polygon fill="#63b8ff" stroke="#63b8ff" points="760.64,-91.84 768.77,-85.04 758.18,-85.28 760.64,-91.84"/>
</a>
</g>
</g>
<!-- Node6 -->
<g id="Node000006" class="node">
<title>Node6</title>
<g id="a_Node000006"><a xlink:href="config_8hpp.html" target="_top" xlink:title=" ">
<polygon fill="white" stroke="#666666" points="424,-140 289,-140 289,-121 424,-121 424,-140"/>
<text text-anchor="middle" x="356.5" y="-128" font-family="Helvetica,sans-Serif" font-size="10.00">alpaqa/config/config.hpp</text>
</a>
</g>
</g>
<!-- Node3&#45;&gt;Node6 -->
<g id="edge6_Node000003_Node000006" class="edge">
<title>Node3&#45;&gt;Node6</title>
<g id="a_edge6_Node000003_Node000006"><a xlink:title=" ">
<path fill="none" stroke="#63b8ff" d="M1061.42,-315.74C952.28,-313.28 765.43,-304.2 608.5,-272 605.67,-271.42 413.83,-207.7 411.5,-206 390.85,-190.98 374.66,-165.92 365.33,-149.06"/>
<polygon fill="#63b8ff" stroke="#63b8ff" points="368.43,-147.42 360.66,-140.22 362.24,-150.69 368.43,-147.42"/>
</a>
</g>
</g>
<!-- Node13 -->
<g id="Node000013" class="node">
<title>Node13</title>
<g id="a_Node000013"><a xlink:href="box-constr-problem_8hpp.html" target="_top" xlink:title=" ">
<polygon fill="white" stroke="#666666" points="824.5,-272 708.5,-272 708.5,-242 824.5,-242 824.5,-272"/>
<text text-anchor="start" x="716.5" y="-260" font-family="Helvetica,sans-Serif" font-size="10.00">alpaqa/problem/box</text>
<text text-anchor="middle" x="766.5" y="-249" font-family="Helvetica,sans-Serif" font-size="10.00">&#45;constr&#45;problem.hpp</text>
</a>
</g>
</g>
<!-- Node3&#45;&gt;Node13 -->
<g id="edge13_Node000003_Node000013" class="edge">
<title>Node3&#45;&gt;Node13</title>
<g id="a_edge13_Node000003_Node000013"><a xlink:title=" ">
<path fill="none" stroke="#63b8ff" d="M1097.23,-307.99C1027.75,-297.49 909.65,-279.64 834.98,-268.35"/>
<polygon fill="#63b8ff" stroke="#63b8ff" points="835.15,-264.84 824.74,-266.8 834.11,-271.76 835.15,-264.84"/>
</a>
</g>
</g>
<!-- Node21 -->
<g id="Node000021" class="node">
<title>Node21</title>
<g id="a_Node000021"><a xlink:title=" ">
<polygon fill="#e0e0e0" stroke="#999999" points="984.5,-79.5 940.5,-79.5 940.5,-60.5 984.5,-60.5 984.5,-79.5"/>
<text text-anchor="middle" x="962.5" y="-67.5" font-family="Helvetica,sans-Serif" font-size="10.00">string</text>
</a>
</g>
</g>
<!-- Node3&#45;&gt;Node21 -->
<g id="edge41_Node000003_Node000021" class="edge">
<title>Node3&#45;&gt;Node21</title>
<g id="a_edge41_Node000003_Node000021"><a xlink:title=" ">
<path fill="none" stroke="#63b8ff" d="M1128.19,-307.98C1089.7,-293.58 1017.26,-260.55 982.5,-206 959.55,-169.98 959,-117.76 960.69,-90"/>
<polygon fill="#63b8ff" stroke="#63b8ff" points="964.2,-89.97 961.49,-79.73 957.22,-89.43 964.2,-89.97"/>
</a>
</g>
</g>
<!-- Node23 -->
<g id="Node000023" class="node">
<title>Node23</title>
<g id="a_Node000023"><a xlink:href="sparsity_8hpp.html" target="_top" xlink:title=" ">
<polygon fill="white" stroke="#666666" points="344,-200.5 189,-200.5 189,-181.5 344,-181.5 344,-200.5"/>
<text text-anchor="middle" x="266.5" y="-188.5" font-family="Helvetica,sans-Serif" font-size="10.00">alpaqa/problem/sparsity.hpp</text>
</a>
</g>
</g>
<!-- Node3&#45;&gt;Node23 -->
<g id="edge28_Node000003_Node000023" class="edge">
<title>Node3&#45;&gt;Node23</title>
<g id="a_edge28_Node000003_Node000023"><a xlink:title=" ">
<path fill="none" stroke="#63b8ff" d="M1061.49,-314.62C946.07,-311.08 742.42,-300.94 570.5,-272 471.96,-255.41 358.86,-221.63 302.44,-203.73"/>
<polygon fill="#63b8ff" stroke="#63b8ff" points="303.17,-200.29 292.58,-200.58 301.04,-206.96 303.17,-200.29"/>
</a>
</g>
</g>
<!-- Node28 -->
<g id="Node000028" class="node">
<title>Node28</title>
<g id="a_Node000028"><a xlink:href="copyable__unique__ptr_8hpp.html" target="_top" xlink:title=" ">
<polygon fill="white" stroke="#666666" points="1598.5,-272 1482.5,-272 1482.5,-242 1598.5,-242 1598.5,-272"/>
<text text-anchor="start" x="1490.5" y="-260" font-family="Helvetica,sans-Serif" font-size="10.00">alpaqa/util/copyable</text>
<text text-anchor="middle" x="1540.5" y="-249" font-family="Helvetica,sans-Serif" font-size="10.00">_unique_ptr.hpp</text>
</a>
</g>
</g>
<!-- Node3&#45;&gt;Node28 -->
<g id="edge35_Node000003_Node000028" class="edge">
<title>Node3&#45;&gt;Node28</title>
<g id="a_edge35_Node000003_Node000028"><a xlink:title=" ">
<path fill="none" stroke="#63b8ff" d="M1224.89,-307.98C1287.6,-300.17 1381.51,-287.71 1472.51,-272.1"/>
<polygon fill="#63b8ff" stroke="#63b8ff" points="1473.18,-275.54 1482.44,-270.38 1471.99,-268.64 1473.18,-275.54"/>
</a>
</g>
</g>
<!-- Node30 -->
<g id="Node000030" class="node">
<title>Node30</title>
<g id="a_Node000030"><a xlink:href="dl-flags_8hpp.html" target="_top" xlink:title=" ">
<polygon fill="white" stroke="#666666" points="1405.5,-79.5 1277.5,-79.5 1277.5,-60.5 1405.5,-60.5 1405.5,-79.5"/>
<text text-anchor="middle" x="1341.5" y="-67.5" font-family="Helvetica,sans-Serif" font-size="10.00">alpaqa/util/dl&#45;flags.hpp</text>
</a>
</g>
</g>
<!-- Node3&#45;&gt;Node30 -->
<g id="edge37_Node000003_Node000030" class="edge">
<title>Node3&#45;&gt;Node30</title>
<g id="a_edge37_Node000003_Node000030"><a xlink:title=" ">
<path fill="none" stroke="#63b8ff" d="M1168.16,-307.85C1210.99,-282.54 1333.02,-210.19 1335.5,-206 1357.15,-169.45 1351.18,-117.08 1345.82,-89.54"/>
<polygon fill="#63b8ff" stroke="#63b8ff" points="1349.23,-88.73 1343.72,-79.68 1342.38,-90.19 1349.23,-88.73"/>
</a>
</g>
</g>
<!-- Node31 -->
<g id="Node000031" class="node">
<title>Node31</title>
<g id="a_Node000031"><a xlink:title=" ">
<polygon fill="#e0e0e0" stroke="#999999" points="1637.5,-79.5 1569.5,-79.5 1569.5,-60.5 1637.5,-60.5 1637.5,-79.5"/>
<text text-anchor="middle" x="1603.5" y="-67.5" font-family="Helvetica,sans-Serif" font-size="10.00">filesystem</text>
</a>
</g>
</g>
<!-- Node3&#45;&gt;Node31 -->
<g id="edge39_Node000003_Node000031" class="edge">
<title>Node3&#45;&gt;Node31</title>
<g id="a_edge39_Node000003_Node000031"><a xlink:title=" ">
<path fill="none" stroke="#63b8ff" d="M1245.55,-313.97C1371.22,-309.55 1583.69,-298.25 1607.5,-272 1654,-220.71 1626.04,-128.24 1611.09,-89.19"/>
<polygon fill="#63b8ff" stroke="#63b8ff" points="1614.25,-87.66 1607.29,-79.67 1607.75,-90.25 1614.25,-87.66"/>
</a>
</g>
</g>
<!-- Node32 -->
<g id="Node000032" class="node">
<title>Node32</title>
<g id="a_Node000032"><a xlink:title=" ">
<polygon fill="#e0e0e0" stroke="#999999" points="1464.5,-266.5 1426.5,-266.5 1426.5,-247.5 1464.5,-247.5 1464.5,-266.5"/>
<text text-anchor="middle" x="1445.5" y="-254.5" font-family="Helvetica,sans-Serif" font-size="10.00">map</text>
</a>
</g>
</g>
<!-- Node3&#45;&gt;Node32 -->
<g id="edge40_Node000003_Node000032" class="edge">
<title>Node3&#45;&gt;Node32</title>
<g id="a_edge40_Node000003_Node000032"><a xlink:title=" ">
<path fill="none" stroke="#63b8ff" d="M1243.99,-307.97C1295.71,-301.44 1361.27,-290.34 1417.5,-272 1418.72,-271.6 1419.95,-271.16 1421.19,-270.68"/>
<polygon fill="#63b8ff" stroke="#63b8ff" points="1422.74,-273.82 1430.44,-266.55 1419.89,-267.43 1422.74,-273.82"/>
</a>
</g>
</g>
<!-- Node33 -->
<g id="Node000033" class="node">
<title>Node33</title>
<g id="a_Node000033"><a xlink:href="casadi-external-function_8hpp.html" target="_top" xlink:title=" ">
<polygon fill="white" stroke="#666666" points="1216,-272 1091,-272 1091,-242 1216,-242 1216,-272"/>
<text text-anchor="start" x="1099" y="-260" font-family="Helvetica,sans-Serif" font-size="10.00">alpaqa/casadi/casadi</text>
<text text-anchor="middle" x="1153.5" y="-249" font-family="Helvetica,sans-Serif" font-size="10.00">&#45;external&#45;function.hpp</text>
</a>
</g>
</g>
<!-- Node3&#45;&gt;Node33 -->
<g id="edge42_Node000003_Node000033" class="edge">
<title>Node3&#45;&gt;Node33</title>
<g id="a_edge42_Node000003_Node000033"><a xlink:title=" ">
<path fill="none" stroke="#63b8ff" d="M1153.5,-307.87C1153.5,-301.11 1153.5,-291.35 1153.5,-282.26"/>
<polygon fill="#63b8ff" stroke="#63b8ff" points="1157,-282.11 1153.5,-272.11 1150,-282.11 1157,-282.11"/>
</a>
</g>
</g>
<!-- Node4&#45;&gt;Node2 -->
<g id="edge4_Node000004_Node000002" class="edge">
<title>Node4&#45;&gt;Node2</title>
<g id="a_edge4_Node000004_Node000002"><a xlink:title=" ">
<path fill="none" stroke="#63b8ff" d="M1381.86,-241.95C1404.23,-232.53 1433.89,-220.04 1457.96,-209.91"/>
<polygon fill="#63b8ff" stroke="#63b8ff" points="1459.36,-213.12 1467.22,-206.01 1456.65,-206.67 1459.36,-213.12"/>
</a>
</g>
</g>
<!-- Node7 -->
<g id="Node000007" class="node">
<title>Node7</title>
<g id="a_Node000007"><a xlink:href="quadmath-print_8hpp.html" target="_top" xlink:title=" ">
<polygon fill="white" stroke="#666666" points="143,-85 22,-85 22,-55 143,-55 143,-85"/>
<text text-anchor="start" x="30" y="-73" font-family="Helvetica,sans-Serif" font-size="10.00">alpaqa/util/quadmath</text>
<text text-anchor="middle" x="82.5" y="-62" font-family="Helvetica,sans-Serif" font-size="10.00">/quadmath&#45;print.hpp</text>
</a>
</g>
</g>
<!-- Node6&#45;&gt;Node7 -->
<g id="edge7_Node000006_Node000007" class="edge">
<title>Node6&#45;&gt;Node7</title>
<g id="a_edge7_Node000006_Node000007"><a xlink:title=" ">
<path fill="none" stroke="#63b8ff" d="M316.66,-120.99C273.85,-111.85 204.97,-97.15 152.97,-86.05"/>
<polygon fill="#63b8ff" stroke="#63b8ff" points="153.65,-82.61 143.14,-83.95 152.19,-89.46 153.65,-82.61"/>
</a>
</g>
</g>
<!-- Node8 -->
<g id="Node000008" class="node">
<title>Node8</title>
<g id="a_Node000008"><a xlink:href="quadmath_8hpp.html" target="_top" xlink:title=" ">
<polygon fill="white" stroke="#666666" points="597,-85 476,-85 476,-55 597,-55 597,-85"/>
<text text-anchor="start" x="484" y="-73" font-family="Helvetica,sans-Serif" font-size="10.00">alpaqa/util/quadmath</text>
<text text-anchor="middle" x="536.5" y="-62" font-family="Helvetica,sans-Serif" font-size="10.00">/quadmath.hpp</text>
</a>
</g>
</g>
<!-- Node6&#45;&gt;Node8 -->
<g id="edge8_Node000006_Node000008" class="edge">
<title>Node6&#45;&gt;Node8</title>
<g id="a_edge8_Node000006_Node000008"><a xlink:title=" ">
<path fill="none" stroke="#63b8ff" d="M382.67,-120.99C409.03,-112.43 450.43,-98.97 483.65,-88.18"/>
<polygon fill="#63b8ff" stroke="#63b8ff" points="484.8,-91.48 493.23,-85.06 482.63,-84.83 484.8,-91.48"/>
</a>
</g>
</g>
<!-- Node9 -->
<g id="Node000009" class="node">
<title>Node9</title>
<g id="a_Node000009"><a xlink:title=" ">
<polygon fill="#e0e0e0" stroke="#999999" points="674,-79.5 615,-79.5 615,-60.5 674,-60.5 674,-79.5"/>
<text text-anchor="middle" x="644.5" y="-67.5" font-family="Helvetica,sans-Serif" font-size="10.00">complex</text>
</a>
</g>
</g>
<!-- Node6&#45;&gt;Node9 -->
<g id="edge9_Node000006_Node000009" class="edge">
<title>Node6&#45;&gt;Node9</title>
<g id="a_edge9_Node000006_Node000009"><a xlink:title=" ">
<path fill="none" stroke="#63b8ff" d="M422.74,-120.97C473.54,-113.65 545.12,-101.63 606.5,-85 608.93,-84.34 611.43,-83.59 613.93,-82.79"/>
<polygon fill="#63b8ff" stroke="#63b8ff" points="615.1,-86.09 623.41,-79.52 612.82,-79.47 615.1,-86.09"/>
</a>
</g>
</g>
<!-- Node10 -->
<g id="Node000010" class="node">
<title>Node10</title>
<g id="a_Node000010"><a xlink:title=" ">
<polygon fill="#e0e0e0" stroke="#999999" points="283.5,-79.5 239.5,-79.5 239.5,-60.5 283.5,-60.5 283.5,-79.5"/>
<text text-anchor="middle" x="261.5" y="-67.5" font-family="Helvetica,sans-Serif" font-size="10.00">limits</text>
</a>
</g>
</g>
<!-- Node6&#45;&gt;Node10 -->
<g id="edge10_Node000006_Node000010" class="edge">
<title>Node6&#45;&gt;Node10</title>
<g id="a_edge10_Node000006_Node000010"><a xlink:title=" ">
<path fill="none" stroke="#63b8ff" d="M342.48,-120.87C327.19,-111.45 302.47,-96.23 284.36,-85.08"/>
<polygon fill="#63b8ff" stroke="#63b8ff" points="285.93,-81.93 275.58,-79.67 282.25,-87.89 285.93,-81.93"/>
</a>
</g>
</g>
<!-- Node11 -->
<g id="Node000011" class="node">
<title>Node11</title>
<g id="a_Node000011"><a xlink:title=" ">
<polygon fill="#e0e0e0" stroke="#999999" points="458,-79.5 389,-79.5 389,-60.5 458,-60.5 458,-79.5"/>
<text text-anchor="middle" x="423.5" y="-67.5" font-family="Helvetica,sans-Serif" font-size="10.00">type_traits</text>
</a>
</g>
</g>
<!-- Node6&#45;&gt;Node11 -->
<g id="edge11_Node000006_Node000011" class="edge">
<title>Node6&#45;&gt;Node11</title>
<g id="a_edge11_Node000006_Node000011"><a xlink:title=" ">
<path fill="none" stroke="#63b8ff" d="M366.39,-120.87C376.78,-111.8 393.34,-97.34 405.95,-86.32"/>
<polygon fill="#63b8ff" stroke="#63b8ff" points="408.34,-88.88 413.57,-79.67 403.74,-83.61 408.34,-88.88"/>
</a>
</g>
</g>
<!-- Node12 -->
<g id="Node000012" class="node">
<title>Node12</title>
<g id="a_Node000012"><a xlink:title=" ">
<polygon fill="#e0e0e0" stroke="#999999" points="371,-79.5 302,-79.5 302,-60.5 371,-60.5 371,-79.5"/>
<text text-anchor="middle" x="336.5" y="-67.5" font-family="Helvetica,sans-Serif" font-size="10.00">Eigen/Core</text>
</a>
</g>
</g>
<!-- Node6&#45;&gt;Node12 -->
<g id="edge12_Node000006_Node000012" class="edge">
<title>Node6&#45;&gt;Node12</title>
<g id="a_edge12_Node000006_Node000012"><a xlink:title=" ">
<path fill="none" stroke="#63b8ff" d="M353.55,-120.87C350.71,-112.57 346.34,-99.78 342.73,-89.22"/>
<polygon fill="#63b8ff" stroke="#63b8ff" points="346.01,-88 339.46,-79.67 339.39,-90.26 346.01,-88"/>
</a>
</g>
</g>
<!-- Node14 -->
<g id="Node000014" class="node">
<title>Node14</title>
<g id="a_Node000014"><a xlink:href="box_8hpp.html" target="_top" xlink:title=" ">
<polygon fill="white" stroke="#666666" points="556,-200.5 421,-200.5 421,-181.5 556,-181.5 556,-200.5"/>
<text text-anchor="middle" x="488.5" y="-188.5" font-family="Helvetica,sans-Serif" font-size="10.00">alpaqa/problem/box.hpp</text>
</a>
</g>
</g>
<!-- Node13&#45;&gt;Node14 -->
<g id="edge14_Node000013_Node000014" class="edge">
<title>Node13&#45;&gt;Node14</title>
<g id="a_edge14_Node000013_Node000014"><a xlink:title=" ">
<path fill="none" stroke="#63b8ff" d="M708.22,-242.58C656.9,-230.77 583.11,-213.78 535.48,-202.82"/>
<polygon fill="#63b8ff" stroke="#63b8ff" points="535.97,-199.34 525.44,-200.5 534.4,-206.16 535.97,-199.34"/>
</a>
</g>
</g>
<!-- Node18 -->
<g id="Node000018" class="node">
<title>Node18</title>
<g id="a_Node000018"><a xlink:href="check-dim_8hpp.html" target="_top" xlink:title=" ">
<polygon fill="white" stroke="#666666" points="896,-200.5 753,-200.5 753,-181.5 896,-181.5 896,-200.5"/>
<text text-anchor="middle" x="824.5" y="-188.5" font-family="Helvetica,sans-Serif" font-size="10.00">alpaqa/util/check&#45;dim.hpp</text>
</a>
</g>
</g>
<!-- Node13&#45;&gt;Node18 -->
<g id="edge22_Node000013_Node000018" class="edge">
<title>Node13&#45;&gt;Node18</title>
<g id="a_edge22_Node000013_Node000018"><a xlink:title=" ">
<path fill="none" stroke="#63b8ff" d="M779.37,-241.8C788.33,-231.92 800.29,-218.72 809.64,-208.39"/>
<polygon fill="#63b8ff" stroke="#63b8ff" points="812.36,-210.6 816.48,-200.84 807.18,-205.9 812.36,-210.6"/>
</a>
</g>
</g>
<!-- Node22 -->
<g id="Node000022" class="node">
<title>Node22</title>
<g id="a_Node000022"><a xlink:title=" ">
<polygon fill="#e0e0e0" stroke="#999999" points="696,-200.5 651,-200.5 651,-181.5 696,-181.5 696,-200.5"/>
<text text-anchor="middle" x="673.5" y="-188.5" font-family="Helvetica,sans-Serif" font-size="10.00">utility</text>
</a>
</g>
</g>
<!-- Node13&#45;&gt;Node22 -->
<g id="edge27_Node000013_Node000022" class="edge">
<title>Node13&#45;&gt;Node22</title>
<g id="a_edge27_Node000013_Node000022"><a xlink:title=" ">
<path fill="none" stroke="#63b8ff" d="M745.86,-241.8C730.56,-231.27 709.79,-216.97 694.42,-206.4"/>
<polygon fill="#63b8ff" stroke="#63b8ff" points="696.3,-203.44 686.08,-200.66 692.34,-209.21 696.3,-203.44"/>
</a>
</g>
</g>
<!-- Node14&#45;&gt;Node6 -->
<g id="edge15_Node000014_Node000006" class="edge">
<title>Node14&#45;&gt;Node6</title>
<g id="a_edge15_Node000014_Node000006"><a xlink:title=" ">
<path fill="none" stroke="#63b8ff" d="M469.31,-181.49C447.11,-171.66 410.38,-155.38 384.88,-144.08"/>
<polygon fill="#63b8ff" stroke="#63b8ff" points="386.28,-140.87 375.72,-140.02 383.44,-147.27 386.28,-140.87"/>
</a>
</g>
</g>
<!-- Node15 -->
<g id="Node000015" class="node">
<title>Node15</title>
<g id="a_Node000015"><a xlink:href="float_8hpp.html" target="_top" xlink:title=" ">
<polygon fill="white" stroke="#666666" points="556.5,-140 442.5,-140 442.5,-121 556.5,-121 556.5,-140"/>
<text text-anchor="middle" x="499.5" y="-128" font-family="Helvetica,sans-Serif" font-size="10.00">alpaqa/util/float.hpp</text>
</a>
</g>
</g>
<!-- Node14&#45;&gt;Node15 -->
<g id="edge16_Node000014_Node000015" class="edge">
<title>Node14&#45;&gt;Node15</title>
<g id="a_edge16_Node000014_Node000015"><a xlink:title=" ">
<path fill="none" stroke="#63b8ff" d="M490.12,-181.37C491.67,-173.16 494.04,-160.54 496.01,-150.05"/>
<polygon fill="#63b8ff" stroke="#63b8ff" points="499.46,-150.64 497.87,-140.17 492.58,-149.35 499.46,-150.64"/>
</a>
</g>
</g>
<!-- Node15&#45;&gt;Node8 -->
<g id="edge17_Node000015_Node000008" class="edge">
<title>Node15&#45;&gt;Node8</title>
<g id="a_edge17_Node000015_Node000008"><a xlink:title=" ">
<path fill="none" stroke="#63b8ff" d="M504.96,-120.87C509.47,-113.74 516.08,-103.28 522.09,-93.79"/>
<polygon fill="#63b8ff" stroke="#63b8ff" points="525.19,-95.44 527.57,-85.11 519.27,-91.7 525.19,-95.44"/>
</a>
</g>
</g>
<!-- Node15&#45;&gt;Node9 -->
<g id="edge19_Node000015_Node000009" class="edge">
<title>Node15&#45;&gt;Node9</title>
<g id="a_edge19_Node000015_Node000009"><a xlink:title=" ">
<path fill="none" stroke="#63b8ff" d="M520.58,-120.99C545.18,-111.07 586.03,-94.59 614.06,-83.28"/>
<polygon fill="#63b8ff" stroke="#63b8ff" points="615.43,-86.5 623.39,-79.52 612.81,-80.01 615.43,-86.5"/>
</a>
</g>
</g>
<!-- Node15&#45;&gt;Node11 -->
<g id="edge21_Node000015_Node000011" class="edge">
<title>Node15&#45;&gt;Node11</title>
<g id="a_edge21_Node000015_Node000011"><a xlink:title=" ">
<path fill="none" stroke="#63b8ff" d="M488.29,-120.87C476.39,-111.71 457.36,-97.06 442.99,-86.01"/>
<polygon fill="#63b8ff" stroke="#63b8ff" points="444.82,-82.99 434.76,-79.67 440.55,-88.54 444.82,-82.99"/>
</a>
</g>
</g>
<!-- Node16 -->
<g id="Node000016" class="node">
<title>Node16</title>
<g id="a_Node000016"><a xlink:title=" ">
<polygon fill="#e0e0e0" stroke="#999999" points="739,-79.5 692,-79.5 692,-60.5 739,-60.5 739,-79.5"/>
<text text-anchor="middle" x="715.5" y="-67.5" font-family="Helvetica,sans-Serif" font-size="10.00">cmath</text>
</a>
</g>
</g>
<!-- Node15&#45;&gt;Node16 -->
<g id="edge18_Node000015_Node000016" class="edge">
<title>Node15&#45;&gt;Node16</title>
<g id="a_edge18_Node000015_Node000016"><a xlink:title=" ">
<path fill="none" stroke="#63b8ff" d="M544.36,-120.95C582.01,-113.22 636.94,-100.68 683.5,-85 684.94,-84.52 686.4,-83.99 687.87,-83.44"/>
<polygon fill="#63b8ff" stroke="#63b8ff" points="689.49,-86.56 697.44,-79.56 686.86,-80.07 689.49,-86.56"/>
</a>
</g>
</g>
<!-- Node17 -->
<g id="Node000017" class="node">
<title>Node17</title>
<g id="a_Node000017"><a xlink:title=" ">
<polygon fill="#e0e0e0" stroke="#999999" points="221.5,-79.5 161.5,-79.5 161.5,-60.5 221.5,-60.5 221.5,-79.5"/>
<text text-anchor="middle" x="191.5" y="-67.5" font-family="Helvetica,sans-Serif" font-size="10.00">concepts</text>
</a>
</g>
</g>
<!-- Node15&#45;&gt;Node17 -->
<g id="edge20_Node000015_Node000017" class="edge">
<title>Node15&#45;&gt;Node17</title>
<g id="a_edge20_Node000015_Node000017"><a xlink:title=" ">
<path fill="none" stroke="#63b8ff" d="M442.3,-121.28C375.6,-111.47 269.5,-95.14 230.5,-85 228,-84.35 225.44,-83.61 222.88,-82.81"/>
<polygon fill="#63b8ff" stroke="#63b8ff" points="223.74,-79.41 213.15,-79.55 221.52,-86.05 223.74,-79.41"/>
</a>
</g>
</g>
<!-- Node18&#45;&gt;Node6 -->
<g id="edge23_Node000018_Node000006" class="edge">
<title>Node18&#45;&gt;Node6</title>
<g id="a_edge23_Node000018_Node000006"><a xlink:title=" ">
<path fill="none" stroke="#63b8ff" d="M756.45,-181.49C670.89,-170.8 524.35,-152.48 434.39,-141.24"/>
<polygon fill="#63b8ff" stroke="#63b8ff" points="434.61,-137.74 424.25,-139.97 433.74,-144.68 434.61,-137.74"/>
</a>
</g>
</g>
<!-- Node19 -->
<g id="Node000019" class="node">
<title>Node19</title>
<g id="a_Node000019"><a xlink:title=" ">
<polygon fill="#e0e0e0" stroke="#999999" points="928.5,-140 872.5,-140 872.5,-121 928.5,-121 928.5,-140"/>
<text text-anchor="middle" x="900.5" y="-128" font-family="Helvetica,sans-Serif" font-size="10.00">optional</text>
</a>
</g>
</g>
<!-- Node18&#45;&gt;Node19 -->
<g id="edge24_Node000018_Node000019" class="edge">
<title>Node18&#45;&gt;Node19</title>
<g id="a_edge24_Node000018_Node000019"><a xlink:title=" ">
<path fill="none" stroke="#63b8ff" d="M835.71,-181.37C847.61,-172.21 866.64,-157.56 881.01,-146.51"/>
<polygon fill="#63b8ff" stroke="#63b8ff" points="883.45,-149.04 889.24,-140.17 879.18,-143.49 883.45,-149.04"/>
</a>
</g>
</g>
<!-- Node20 -->
<g id="Node000020" class="node">
<title>Node20</title>
<g id="a_Node000020"><a xlink:title=" ">
<polygon fill="#e0e0e0" stroke="#999999" points="1259,-79.5 1194,-79.5 1194,-60.5 1259,-60.5 1259,-79.5"/>
<text text-anchor="middle" x="1226.5" y="-67.5" font-family="Helvetica,sans-Serif" font-size="10.00">stdexcept</text>
</a>
</g>
</g>
<!-- Node18&#45;&gt;Node20 -->
<g id="edge25_Node000018_Node000020" class="edge">
<title>Node18&#45;&gt;Node20</title>
<g id="a_edge25_Node000018_Node000020"><a xlink:title=" ">
<path fill="none" stroke="#63b8ff" d="M896.02,-182.72C1003.62,-171.47 1195.88,-150.11 1207.5,-140 1221.68,-127.66 1225.74,-105.81 1226.68,-90"/>
<polygon fill="#63b8ff" stroke="#63b8ff" points="1230.19,-89.85 1226.92,-79.77 1223.19,-89.69 1230.19,-89.85"/>
</a>
</g>
</g>
<!-- Node18&#45;&gt;Node21 -->
<g id="edge26_Node000018_Node000021" class="edge">
<title>Node18&#45;&gt;Node21</title>
<g id="a_edge26_Node000018_Node000021"><a xlink:title=" ">
<path fill="none" stroke="#63b8ff" d="M827.5,-181.31C832.79,-167.09 844.98,-138.67 863.5,-121 882.62,-102.75 909.7,-89.7 930.7,-81.52"/>
<polygon fill="#63b8ff" stroke="#63b8ff" points="932.02,-84.76 940.17,-77.99 929.58,-78.2 932.02,-84.76"/>
</a>
</g>
</g>
<!-- Node23&#45;&gt;Node6 -->
<g id="edge29_Node000023_Node000006" class="edge">
<title>Node23&#45;&gt;Node6</title>
<g id="a_edge29_Node000023_Node000006"><a xlink:title=" ">
<path fill="none" stroke="#63b8ff" d="M279.78,-181.37C294.14,-172.04 317.26,-157.01 334.37,-145.88"/>
<polygon fill="#63b8ff" stroke="#63b8ff" points="336.69,-148.55 343.17,-140.17 332.87,-142.68 336.69,-148.55"/>
</a>
</g>
</g>
<!-- Node23&#45;&gt;Node17 -->
<g id="edge33_Node000023_Node000017" class="edge">
<title>Node23&#45;&gt;Node17</title>
<g id="a_edge33_Node000023_Node000017"><a xlink:title=" ">
<path fill="none" stroke="#63b8ff" d="M252.94,-181.32C240.14,-172.44 221.36,-157.5 210.5,-140 200.99,-124.67 196.16,-104.54 193.75,-89.98"/>
<polygon fill="#63b8ff" stroke="#63b8ff" points="197.16,-89.11 192.3,-79.69 190.23,-90.08 197.16,-89.11"/>
</a>
</g>
</g>
<!-- Node24 -->
<g id="Node000024" class="node">
<title>Node24</title>
<g id="a_Node000024"><a xlink:href="export_8hpp.html" target="_top" xlink:title=" ">
<polygon fill="white" stroke="#666666" points="105,-140 0,-140 0,-121 105,-121 105,-140"/>
<text text-anchor="middle" x="52.5" y="-128" font-family="Helvetica,sans-Serif" font-size="10.00">alpaqa/export.hpp</text>
</a>
</g>
</g>
<!-- Node23&#45;&gt;Node24 -->
<g id="edge30_Node000023_Node000024" class="edge">
<title>Node23&#45;&gt;Node24</title>
<g id="a_edge30_Node000023_Node000024"><a xlink:title=" ">
<path fill="none" stroke="#63b8ff" d="M235.38,-181.49C197.9,-171.25 134.82,-154 93.43,-142.69"/>
<polygon fill="#63b8ff" stroke="#63b8ff" points="94.22,-139.28 83.65,-140.02 92.38,-146.03 94.22,-139.28"/>
</a>
</g>
</g>
<!-- Node26 -->
<g id="Node000026" class="node">
<title>Node26</title>
<g id="a_Node000026"><a xlink:title=" ">
<polygon fill="#e0e0e0" stroke="#999999" points="1042.5,-140 990.5,-140 990.5,-121 1042.5,-121 1042.5,-140"/>
<text text-anchor="middle" x="1016.5" y="-128" font-family="Helvetica,sans-Serif" font-size="10.00">cassert</text>
</a>
</g>
</g>
<!-- Node23&#45;&gt;Node26 -->
<g id="edge32_Node000023_Node000026" class="edge">
<title>Node23&#45;&gt;Node26</title>
<g id="a_edge32_Node000023_Node000026"><a xlink:title=" ">
<path fill="none" stroke="#63b8ff" d="M344.35,-182.08C366.07,-179.98 389.7,-177.8 411.5,-176 645.03,-156.74 704.08,-160.54 937.5,-140 951.38,-138.78 966.6,-137.2 979.95,-135.73"/>
<polygon fill="#63b8ff" stroke="#63b8ff" points="980.64,-139.18 990.19,-134.59 979.87,-132.22 980.64,-139.18"/>
</a>
</g>
</g>
<!-- Node27 -->
<g id="Node000027" class="node">
<title>Node27</title>
<g id="a_Node000027"><a xlink:title=" ">
<polygon fill="#e0e0e0" stroke="#999999" points="271,-140 220,-140 220,-121 271,-121 271,-140"/>
<text text-anchor="middle" x="245.5" y="-128" font-family="Helvetica,sans-Serif" font-size="10.00">variant</text>
</a>
</g>
</g>
<!-- Node23&#45;&gt;Node27 -->
<g id="edge34_Node000023_Node000027" class="edge">
<title>Node23&#45;&gt;Node27</title>
<g id="a_edge34_Node000023_Node000027"><a xlink:title=" ">
<path fill="none" stroke="#63b8ff" d="M263.4,-181.37C260.42,-173.07 255.83,-160.28 252.04,-149.72"/>
<polygon fill="#63b8ff" stroke="#63b8ff" points="255.28,-148.4 248.61,-140.17 248.7,-150.76 255.28,-148.4"/>
</a>
</g>
</g>
<!-- Node25 -->
<g id="Node000025" class="node">
<title>Node25</title>
<g id="a_Node000025"><a xlink:title=" ">
<polygon fill="#e0e0e0" stroke="#999999" points="1388,-19 1295,-19 1295,0 1388,0 1388,-19"/>
<text text-anchor="middle" x="1341.5" y="-7" font-family="Helvetica,sans-Serif" font-size="10.00">alpaqa/export.h</text>
</a>
</g>
</g>
<!-- Node24&#45;&gt;Node25 -->
<g id="edge31_Node000024_Node000025" class="edge">
<title>Node24&#45;&gt;Node25</title>
<g id="a_edge31_Node000024_Node000025"><a xlink:title=" ">
<path fill="none" stroke="#63b8ff" d="M41.75,-120.96C24.21,-106.05 -6.79,-74.94 12.5,-55 57.32,-8.65 1036.13,-9.31 1284.57,-10.23"/>
<polygon fill="#63b8ff" stroke="#63b8ff" points="1284.8,-13.73 1294.82,-10.27 1284.83,-6.73 1284.8,-13.73"/>
</a>
</g>
</g>
<!-- Node29 -->
<g id="Node000029" class="node">
<title>Node29</title>
<g id="a_Node000029"><a xlink:title=" ">
<polygon fill="#e0e0e0" stroke="#999999" points="1528.5,-79.5 1470.5,-79.5 1470.5,-60.5 1528.5,-60.5 1528.5,-79.5"/>
<text text-anchor="middle" x="1499.5" y="-67.5" font-family="Helvetica,sans-Serif" font-size="10.00">memory</text>
</a>
</g>
</g>
<!-- Node28&#45;&gt;Node29 -->
<g id="edge36_Node000028_Node000029" class="edge">
<title>Node28&#45;&gt;Node29</title>
<g id="a_edge36_Node000028_Node000029"><a xlink:title=" ">
<path fill="none" stroke="#63b8ff" d="M1551.6,-241.6C1558.22,-232.08 1566.01,-218.99 1569.5,-206 1572.96,-193.12 1573.36,-188.76 1569.5,-176 1558.83,-140.75 1531.98,-106.51 1514.81,-87.16"/>
<polygon fill="#63b8ff" stroke="#63b8ff" points="1517.23,-84.62 1507.91,-79.59 1512.06,-89.34 1517.23,-84.62"/>
</a>
</g>
</g>
<!-- Node30&#45;&gt;Node25 -->
<g id="edge38_Node000030_Node000025" class="edge">
<title>Node30&#45;&gt;Node25</title>
<g id="a_edge38_Node000030_Node000025"><a xlink:title=" ">
<path fill="none" stroke="#63b8ff" d="M1341.5,-60.37C1341.5,-52.25 1341.5,-39.81 1341.5,-29.39"/>
<polygon fill="#63b8ff" stroke="#63b8ff" points="1345,-29.17 1341.5,-19.17 1338,-29.17 1345,-29.17"/>
</a>
</g>
</g>
<!-- Node33&#45;&gt;Node2 -->
<g id="edge43_Node000033_Node000002" class="edge">
<title>Node33&#45;&gt;Node2</title>
<g id="a_edge43_Node000033_Node000002"><a xlink:title=" ">
<path fill="none" stroke="#63b8ff" d="M1216.14,-244.64C1271.48,-234.57 1354.38,-219.43 1426.5,-206 1427.95,-205.73 1429.41,-205.46 1430.88,-205.18"/>
<polygon fill="#63b8ff" stroke="#63b8ff" points="1431.55,-208.62 1440.73,-203.34 1430.26,-201.74 1431.55,-208.62"/>
</a>
</g>
</g>
<!-- Node33&#45;&gt;Node5 -->
<g id="edge59_Node000033_Node000005" class="edge">
<title>Node33&#45;&gt;Node5</title>
<g id="a_edge59_Node000033_Node000005"><a xlink:title=" ">
<path fill="none" stroke="#63b8ff" d="M1090.88,-252.84C981.97,-246.7 767.05,-231.48 744.5,-206 713.5,-170.98 759.21,-120.27 790.76,-92.02"/>
<polygon fill="#63b8ff" stroke="#63b8ff" points="793.19,-94.55 798.43,-85.34 788.59,-89.27 793.19,-94.55"/>
</a>
</g>
</g>
<!-- Node33&#45;&gt;Node19 -->
<g id="edge62_Node000033_Node000019" class="edge">
<title>Node33&#45;&gt;Node19</title>
<g id="a_edge62_Node000033_Node000019"><a xlink:title=" ">
<path fill="none" stroke="#63b8ff" d="M1090.68,-244.79C1057.12,-237.07 1015.95,-224.76 982.5,-206 955.35,-190.78 929.77,-165.04 914.61,-148.16"/>
<polygon fill="#63b8ff" stroke="#63b8ff" points="916.9,-145.46 907.68,-140.24 911.63,-150.07 916.9,-145.46"/>
</a>
</g>
</g>
<!-- Node33&#45;&gt;Node20 -->
<g id="edge64_Node000033_Node000020" class="edge">
<title>Node33&#45;&gt;Node20</title>
<g id="a_edge64_Node000033_Node000020"><a xlink:title=" ">
<path fill="none" stroke="#63b8ff" d="M1216.36,-244.82C1257.21,-236.13 1305.1,-222.74 1317.5,-206 1349.14,-163.28 1285.18,-110.47 1249.01,-85.45"/>
<polygon fill="#63b8ff" stroke="#63b8ff" points="1250.74,-82.39 1240.49,-79.71 1246.83,-88.2 1250.74,-82.39"/>
</a>
</g>
</g>
<!-- Node33&#45;&gt;Node22 -->
<g id="edge65_Node000033_Node000022" class="edge">
<title>Node33&#45;&gt;Node22</title>
<g id="a_edge65_Node000033_Node000022"><a xlink:title=" ">
<path fill="none" stroke="#63b8ff" d="M1090.65,-253.83C1004.01,-249.73 843.48,-238.13 710.5,-206 708.05,-205.41 705.54,-204.7 703.03,-203.91"/>
<polygon fill="#63b8ff" stroke="#63b8ff" points="704.16,-200.6 693.57,-200.63 701.87,-207.21 704.16,-200.6"/>
</a>
</g>
</g>
<!-- Node33&#45;&gt;Node26 -->
<g id="edge60_Node000033_Node000026" class="edge">
<title>Node33&#45;&gt;Node26</title>
<g id="a_edge60_Node000033_Node000026"><a xlink:title=" ">
<path fill="none" stroke="#63b8ff" d="M1132.18,-241.88C1118.36,-232.36 1100.26,-219.18 1085.5,-206 1064.86,-187.57 1043.6,-163.74 1030.23,-148.06"/>
<polygon fill="#63b8ff" stroke="#63b8ff" points="1032.79,-145.66 1023.67,-140.27 1027.43,-150.17 1032.79,-145.66"/>
</a>
</g>
</g>
<!-- Node33&#45;&gt;Node29 -->
<g id="edge61_Node000033_Node000029" class="edge">
<title>Node33&#45;&gt;Node29</title>
<g id="a_edge61_Node000033_Node000029"><a xlink:title=" ">
<path fill="none" stroke="#63b8ff" d="M1214.96,-241.96C1299.58,-221.39 1445.51,-181.02 1480.5,-140 1492.45,-125.99 1496.93,-105.07 1498.59,-89.94"/>
<polygon fill="#63b8ff" stroke="#63b8ff" points="1502.1,-89.95 1499.38,-79.71 1495.12,-89.41 1502.1,-89.95"/>
</a>
</g>
</g>
<!-- Node33&#45;&gt;Node30 -->
<g id="edge44_Node000033_Node000030" class="edge">
<title>Node33&#45;&gt;Node30</title>
<g id="a_edge44_Node000033_Node000030"><a xlink:title=" ">
<path fill="none" stroke="#63b8ff" d="M1174.91,-241.98C1188.77,-232.5 1206.88,-219.33 1221.5,-206 1264.19,-167.09 1307.56,-114.29 1328.54,-87.73"/>
<polygon fill="#63b8ff" stroke="#63b8ff" points="1331.36,-89.81 1334.77,-79.78 1325.85,-85.5 1331.36,-89.81"/>
</a>
</g>
</g>
<!-- Node34 -->
<g id="Node000034" class="node">
<title>Node34</title>
<g id="a_Node000034"><a xlink:href="casadi-functions_8hpp.html" target="_top" xlink:title=" ">
<polygon fill="white" stroke="#666666" points="1212.5,-200.5 1094.5,-200.5 1094.5,-181.5 1212.5,-181.5 1212.5,-200.5"/>
<text text-anchor="middle" x="1153.5" y="-188.5" font-family="Helvetica,sans-Serif" font-size="10.00">casadi&#45;functions.hpp</text>
</a>
</g>
</g>
<!-- Node33&#45;&gt;Node34 -->
<g id="edge45_Node000033_Node000034" class="edge">
<title>Node33&#45;&gt;Node34</title>
<g id="a_edge45_Node000033_Node000034"><a xlink:title=" ">
<path fill="none" stroke="#63b8ff" d="M1153.5,-241.8C1153.5,-232.7 1153.5,-220.79 1153.5,-210.9"/>
<polygon fill="#63b8ff" stroke="#63b8ff" points="1157,-210.84 1153.5,-200.84 1150,-210.84 1157,-210.84"/>
</a>
</g>
</g>
<!-- Node39 -->
<g id="Node000039" class="node">
<title>Node39</title>
<g id="a_Node000039"><a xlink:title=" ">
<polygon fill="#e0e0e0" stroke="#999999" points="1308.5,-200.5 1268.5,-200.5 1268.5,-181.5 1308.5,-181.5 1308.5,-200.5"/>
<text text-anchor="middle" x="1288.5" y="-188.5" font-family="Helvetica,sans-Serif" font-size="10.00">span</text>
</a>
</g>
</g>
<!-- Node33&#45;&gt;Node39 -->
<g id="edge63_Node000033_Node000039" class="edge">
<title>Node33&#45;&gt;Node39</title>
<g id="a_edge63_Node000033_Node000039"><a xlink:title=" ">
<path fill="none" stroke="#63b8ff" d="M1183.13,-241.95C1206.49,-230.88 1238.8,-215.56 1261.47,-204.82"/>
<polygon fill="#63b8ff" stroke="#63b8ff" points="1263,-207.96 1270.53,-200.52 1260,-201.64 1263,-207.96"/>
</a>
</g>
</g>
<!-- Node40 -->
<g id="Node000040" class="node">
<title>Node40</title>
<g id="a_Node000040"><a xlink:title=" ">
<polygon fill="#e0e0e0" stroke="#999999" points="1038,-200.5 991,-200.5 991,-181.5 1038,-181.5 1038,-200.5"/>
<text text-anchor="middle" x="1014.5" y="-188.5" font-family="Helvetica,sans-Serif" font-size="10.00">vector</text>
</a>
</g>
</g>
<!-- Node33&#45;&gt;Node40 -->
<g id="edge66_Node000033_Node000040" class="edge">
<title>Node33&#45;&gt;Node40</title>
<g id="a_edge66_Node000033_Node000040"><a xlink:title=" ">
<path fill="none" stroke="#63b8ff" d="M1123,-241.95C1098.94,-230.88 1065.67,-215.56 1042.34,-204.82"/>
<polygon fill="#63b8ff" stroke="#63b8ff" points="1043.55,-201.52 1033,-200.52 1040.62,-207.88 1043.55,-201.52"/>
</a>
</g>
</g>
<!-- Node34&#45;&gt;Node5 -->
<g id="edge46_Node000034_Node000005" class="edge">
<title>Node34&#45;&gt;Node5</title>
<g id="a_edge46_Node000034_Node000005"><a xlink:title=" ">
<path fill="none" stroke="#63b8ff" d="M1143.56,-181.31C1126.16,-166.57 1088.49,-136.73 1051.5,-121 998.47,-98.44 934.22,-85.67 886.32,-78.69"/>
<polygon fill="#63b8ff" stroke="#63b8ff" points="886.74,-75.21 876.35,-77.29 885.77,-82.15 886.74,-75.21"/>
</a>
</g>
</g>
<!-- Node34&#45;&gt;Node26 -->
<g id="edge58_Node000034_Node000026" class="edge">
<title>Node34&#45;&gt;Node26</title>
<g id="a_edge58_Node000034_Node000026"><a xlink:title=" ">
<path fill="none" stroke="#63b8ff" d="M1133.58,-181.49C1110.55,-171.66 1072.42,-155.38 1045.96,-144.08"/>
<polygon fill="#63b8ff" stroke="#63b8ff" points="1047.02,-140.72 1036.45,-140.02 1044.27,-147.16 1047.02,-140.72"/>
</a>
</g>
</g>
<!-- Node35 -->
<g id="Node000035" class="node">
<title>Node35</title>
<g id="a_Node000035"><a xlink:href="casadi-types_8hpp.html" target="_top" xlink:title=" ">
<polygon fill="white" stroke="#666666" points="1198.5,-140 1098.5,-140 1098.5,-121 1198.5,-121 1198.5,-140"/>
<text text-anchor="middle" x="1148.5" y="-128" font-family="Helvetica,sans-Serif" font-size="10.00">casadi&#45;types.hpp</text>
</a>
</g>
</g>
<!-- Node34&#45;&gt;Node35 -->
<g id="edge47_Node000034_Node000035" class="edge">
<title>Node34&#45;&gt;Node35</title>
<g id="a_edge47_Node000034_Node000035"><a xlink:title=" ">
<path fill="none" stroke="#63b8ff" d="M1152.76,-181.37C1152.07,-173.25 1151,-160.81 1150.11,-150.39"/>
<polygon fill="#63b8ff" stroke="#63b8ff" points="1153.58,-149.83 1149.24,-140.17 1146.61,-150.43 1153.58,-149.83"/>
</a>
</g>
</g>
<!-- Node38 -->
<g id="Node000038" class="node">
<title>Node38</title>
<g id="a_Node000038"><a xlink:href="dl_8hpp.html" target="_top" xlink:title=" ">
<polygon fill="white" stroke="#666666" points="1471,-140 1370,-140 1370,-121 1471,-121 1471,-140"/>
<text text-anchor="middle" x="1420.5" y="-128" font-family="Helvetica,sans-Serif" font-size="10.00">alpaqa/util/dl.hpp</text>
</a>
</g>
</g>
<!-- Node34&#45;&gt;Node38 -->
<g id="edge52_Node000034_Node000038" class="edge">
<title>Node34&#45;&gt;Node38</title>
<g id="a_edge52_Node000034_Node000038"><a xlink:title=" ">
<path fill="none" stroke="#63b8ff" d="M1192.32,-181.49C1239.78,-171.1 1320.13,-153.49 1371.71,-142.19"/>
<polygon fill="#63b8ff" stroke="#63b8ff" points="1372.61,-145.58 1381.63,-140.02 1371.11,-138.74 1372.61,-145.58"/>
</a>
</g>
</g>
<!-- Node35&#45;&gt;Node5 -->
<g id="edge51_Node000035_Node000005" class="edge">
<title>Node35&#45;&gt;Node5</title>
<g id="a_edge51_Node000035_Node000005"><a xlink:title=" ">
<path fill="none" stroke="#63b8ff" d="M1100.22,-120.99C1043.89,-111.07 950.29,-94.57 886.11,-83.26"/>
<polygon fill="#63b8ff" stroke="#63b8ff" points="886.52,-79.78 876.07,-81.5 885.31,-86.68 886.52,-79.78"/>
</a>
</g>
</g>
<!-- Node35&#45;&gt;Node21 -->
<g id="edge50_Node000035_Node000021" class="edge">
<title>Node35&#45;&gt;Node21</title>
<g id="a_edge50_Node000035_Node000021"><a xlink:title=" ">
<path fill="none" stroke="#63b8ff" d="M1121.45,-120.99C1087.8,-110.41 1030.4,-92.36 994.57,-81.09"/>
<polygon fill="#63b8ff" stroke="#63b8ff" points="995.22,-77.62 984.63,-77.96 993.12,-84.3 995.22,-77.62"/>
</a>
</g>
</g>
<!-- Node36 -->
<g id="Node000036" class="node">
<title>Node36</title>
<g id="a_Node000036"><a xlink:title=" ">
<polygon fill="#e0e0e0" stroke="#999999" points="1112.5,-79.5 1048.5,-79.5 1048.5,-60.5 1112.5,-60.5 1112.5,-79.5"/>
<text text-anchor="middle" x="1080.5" y="-67.5" font-family="Helvetica,sans-Serif" font-size="10.00">algorithm</text>
</a>
</g>
</g>
<!-- Node35&#45;&gt;Node36 -->
<g id="edge48_Node000035_Node000036" class="edge">
<title>Node35&#45;&gt;Node36</title>
<g id="a_edge48_Node000035_Node000036"><a xlink:title=" ">
<path fill="none" stroke="#63b8ff" d="M1138.47,-120.87C1127.92,-111.8 1111.11,-97.34 1098.31,-86.32"/>
<polygon fill="#63b8ff" stroke="#63b8ff" points="1100.44,-83.54 1090.57,-79.67 1095.87,-88.84 1100.44,-83.54"/>
</a>
</g>
</g>
<!-- Node37 -->
<g id="Node000037" class="node">
<title>Node37</title>
<g id="a_Node000037"><a xlink:title=" ">
<polygon fill="#e0e0e0" stroke="#999999" points="1172.5,-79.5 1130.5,-79.5 1130.5,-60.5 1172.5,-60.5 1172.5,-79.5"/>
<text text-anchor="middle" x="1151.5" y="-67.5" font-family="Helvetica,sans-Serif" font-size="10.00">array</text>
</a>
</g>
</g>
<!-- Node35&#45;&gt;Node37 -->
<g id="edge49_Node000035_Node000037" class="edge">
<title>Node35&#45;&gt;Node37</title>
<g id="a_edge49_Node000035_Node000037"><a xlink:title=" ">
<path fill="none" stroke="#63b8ff" d="M1148.94,-120.87C1149.36,-112.75 1150,-100.31 1150.53,-89.89"/>
<polygon fill="#63b8ff" stroke="#63b8ff" points="1154.04,-89.83 1151.06,-79.67 1147.05,-89.47 1154.04,-89.83"/>
</a>
</g>
</g>
<!-- Node38&#45;&gt;Node20 -->
<g id="edge57_Node000038_Node000020" class="edge">
<title>Node38&#45;&gt;Node20</title>
<g id="a_edge57_Node000038_Node000020"><a xlink:title=" ">
<path fill="none" stroke="#63b8ff" d="M1390.12,-120.96C1359.37,-112.24 1310.49,-98.14 1268.5,-85 1266.21,-84.28 1263.85,-83.53 1261.48,-82.77"/>
<polygon fill="#63b8ff" stroke="#63b8ff" points="1262.36,-79.37 1251.77,-79.59 1260.19,-86.03 1262.36,-79.37"/>
</a>
</g>
</g>
<!-- Node38&#45;&gt;Node25 -->
<g id="edge53_Node000038_Node000025" class="edge">
<title>Node38&#45;&gt;Node25</title>
<g id="a_edge53_Node000038_Node000025"><a xlink:title=" ">
<path fill="none" stroke="#63b8ff" d="M1422.16,-120.92C1424.53,-106.21 1427.29,-75.77 1414.5,-55 1405.69,-40.69 1390.4,-30.34 1376.08,-23.24"/>
<polygon fill="#63b8ff" stroke="#63b8ff" points="1377.44,-20.01 1366.89,-19.03 1374.52,-26.37 1377.44,-20.01"/>
</a>
</g>
</g>
<!-- Node38&#45;&gt;Node29 -->
<g id="edge56_Node000038_Node000029" class="edge">
<title>Node38&#45;&gt;Node29</title>
<g id="a_edge56_Node000038_Node000029"><a xlink:title=" ">
<path fill="none" stroke="#63b8ff" d="M1432.16,-120.87C1444.64,-111.62 1464.68,-96.78 1479.66,-85.69"/>
<polygon fill="#63b8ff" stroke="#63b8ff" points="1481.84,-88.43 1487.8,-79.67 1477.68,-82.81 1481.84,-88.43"/>
</a>
</g>
</g>
<!-- Node38&#45;&gt;Node30 -->
<g id="edge54_Node000038_Node000030" class="edge">
<title>Node38&#45;&gt;Node30</title>
<g id="a_edge54_Node000038_Node000030"><a xlink:title=" ">
<path fill="none" stroke="#63b8ff" d="M1408.84,-120.87C1396.36,-111.62 1376.32,-96.78 1361.34,-85.69"/>
<polygon fill="#63b8ff" stroke="#63b8ff" points="1363.32,-82.81 1353.2,-79.67 1359.16,-88.43 1363.32,-82.81"/>
</a>
</g>
</g>
<!-- Node38&#45;&gt;Node31 -->
<g id="edge55_Node000038_Node000031" class="edge">
<title>Node38&#45;&gt;Node31</title>
<g id="a_edge55_Node000038_Node000031"><a xlink:title=" ">
<path fill="none" stroke="#63b8ff" d="M1447.11,-120.99C1478.69,-110.9 1531.51,-94.01 1566.92,-82.69"/>
<polygon fill="#63b8ff" stroke="#63b8ff" points="1568.4,-85.9 1576.86,-79.52 1566.27,-79.23 1568.4,-85.9"/>
</a>
</g>
</g>
</g>
</svg>
