<?xml version="1.0" encoding="UTF-8" standalone="no"?>
<!DOCTYPE svg PUBLIC "-//W3C//DTD SVG 1.1//EN"
 "http://www.w3.org/Graphics/SVG/1.1/DTD/svg11.dtd">
<!-- Generated by graphviz version 2.43.0 (0)
 -->
<!-- Title: src/interop/cutest/include/alpaqa/cutest/cutest&#45;loader.hpp Pages: 1 -->
<svg width="1276pt" height="291pt"
 viewBox="0.00 0.00 1275.50 291.00" xmlns="http://www.w3.org/2000/svg" xmlns:xlink="http://www.w3.org/1999/xlink">
<g id="graph0" class="graph" transform="scale(1 1) rotate(0) translate(4 287)">
<title>src/interop/cutest/include/alpaqa/cutest/cutest&#45;loader.hpp</title>
<!-- Node1 -->
<g id="Node000001" class="node">
<title>Node1</title>
<g id="a_Node000001"><a xlink:title=" ">
<polygon fill="#999999" stroke="#666666" points="852.5,-283 728.5,-283 728.5,-242 852.5,-242 852.5,-283"/>
<text text-anchor="start" x="736.5" y="-271" font-family="Helvetica,sans-Serif" font-size="10.00">src/interop/cutest</text>
<text text-anchor="start" x="736.5" y="-260" font-family="Helvetica,sans-Serif" font-size="10.00">/include/alpaqa/cutest</text>
<text text-anchor="middle" x="790.5" y="-249" font-family="Helvetica,sans-Serif" font-size="10.00">/cutest&#45;loader.hpp</text>
</a>
</g>
</g>
<!-- Node2 -->
<g id="Node000002" class="node">
<title>Node2</title>
<g id="a_Node000002"><a xlink:href="config_8hpp.html" target="_top" xlink:title=" ">
<polygon fill="white" stroke="#666666" points="399,-85 264,-85 264,-66 399,-66 399,-85"/>
<text text-anchor="middle" x="331.5" y="-73" font-family="Helvetica,sans-Serif" font-size="10.00">alpaqa/config/config.hpp</text>
</a>
</g>
</g>
<!-- Node1&#45;&gt;Node2 -->
<g id="edge1_Node000001_Node000002" class="edge">
<title>Node1&#45;&gt;Node2</title>
<g id="a_edge1_Node000001_Node000002"><a xlink:title=" ">
<path fill="none" stroke="#63b8ff" d="M728.19,-260.04C655.71,-256.48 533.6,-244.66 436.5,-206 388.4,-186.85 367.77,-184.02 340.5,-140 332.25,-126.68 330.35,-108.81 330.31,-95.42"/>
<polygon fill="#63b8ff" stroke="#63b8ff" points="333.82,-95.14 330.65,-85.03 326.83,-94.91 333.82,-95.14"/>
</a>
</g>
</g>
<!-- Node9 -->
<g id="Node000009" class="node">
<title>Node9</title>
<g id="a_Node000009"><a xlink:title=" ">
<polygon fill="#e0e0e0" stroke="#999999" points="575.5,-206 445.5,-206 445.5,-176 575.5,-176 575.5,-206"/>
<text text-anchor="start" x="453.5" y="-194" font-family="Helvetica,sans-Serif" font-size="10.00">alpaqa/cutest&#45;interface</text>
<text text-anchor="middle" x="510.5" y="-183" font-family="Helvetica,sans-Serif" font-size="10.00">&#45;export.h</text>
</a>
</g>
</g>
<!-- Node1&#45;&gt;Node9 -->
<g id="edge8_Node000001_Node000009" class="edge">
<title>Node1&#45;&gt;Node9</title>
<g id="a_edge8_Node000001_Node000009"><a xlink:title=" ">
<path fill="none" stroke="#63b8ff" d="M728.36,-246.08C683.48,-234.94 622.95,-219.91 577.08,-208.53"/>
<polygon fill="#63b8ff" stroke="#63b8ff" points="577.78,-205.09 567.23,-206.08 576.09,-211.89 577.78,-205.09"/>
</a>
</g>
</g>
<!-- Node10 -->
<g id="Node000010" class="node">
<title>Node10</title>
<g id="a_Node000010"><a xlink:href="box-constr-problem_8hpp.html" target="_top" xlink:title=" ">
<polygon fill="white" stroke="#666666" points="709.5,-206 593.5,-206 593.5,-176 709.5,-176 709.5,-206"/>
<text text-anchor="start" x="601.5" y="-194" font-family="Helvetica,sans-Serif" font-size="10.00">alpaqa/problem/box</text>
<text text-anchor="middle" x="651.5" y="-183" font-family="Helvetica,sans-Serif" font-size="10.00">&#45;constr&#45;problem.hpp</text>
</a>
</g>
</g>
<!-- Node1&#45;&gt;Node10 -->
<g id="edge9_Node000001_Node000010" class="edge">
<title>Node1&#45;&gt;Node10</title>
<g id="a_edge9_Node000001_Node000010"><a xlink:title=" ">
<path fill="none" stroke="#63b8ff" d="M751.41,-241.96C731.81,-232.16 708.2,-220.35 688.85,-210.67"/>
<polygon fill="#63b8ff" stroke="#63b8ff" points="690.24,-207.45 679.73,-206.11 687.1,-213.72 690.24,-207.45"/>
</a>
</g>
</g>
<!-- Node18 -->
<g id="Node000018" class="node">
<title>Node18</title>
<g id="a_Node000018"><a xlink:title=" ">
<polygon fill="#e0e0e0" stroke="#999999" points="756.5,-85 712.5,-85 712.5,-66 756.5,-66 756.5,-85"/>
<text text-anchor="middle" x="734.5" y="-73" font-family="Helvetica,sans-Serif" font-size="10.00">string</text>
</a>
</g>
</g>
<!-- Node1&#45;&gt;Node18 -->
<g id="edge36_Node000001_Node000018" class="edge">
<title>Node1&#45;&gt;Node18</title>
<g id="a_edge36_Node000001_Node000018"><a xlink:title=" ">
<path fill="none" stroke="#63b8ff" d="M776.43,-241.83C769.73,-231.59 762.19,-218.61 757.5,-206 743.49,-168.32 737.87,-121.23 735.73,-95.48"/>
<polygon fill="#63b8ff" stroke="#63b8ff" points="739.2,-94.98 734.97,-85.27 732.22,-95.5 739.2,-94.98"/>
</a>
</g>
</g>
<!-- Node20 -->
<g id="Node000020" class="node">
<title>Node20</title>
<g id="a_Node000020"><a xlink:href="sparsity_8hpp.html" target="_top" xlink:title=" ">
<polygon fill="white" stroke="#666666" points="921,-200.5 766,-200.5 766,-181.5 921,-181.5 921,-200.5"/>
<text text-anchor="middle" x="843.5" y="-188.5" font-family="Helvetica,sans-Serif" font-size="10.00">alpaqa/problem/sparsity.hpp</text>
</a>
</g>
</g>
<!-- Node1&#45;&gt;Node20 -->
<g id="edge24_Node000001_Node000020" class="edge">
<title>Node1&#45;&gt;Node20</title>
<g id="a_edge24_Node000001_Node000020"><a xlink:title=" ">
<path fill="none" stroke="#63b8ff" d="M805.55,-241.77C813.42,-231.45 822.96,-218.93 830.51,-209.04"/>
<polygon fill="#63b8ff" stroke="#63b8ff" points="833.49,-210.89 836.77,-200.82 827.93,-206.65 833.49,-210.89"/>
</a>
</g>
</g>
<!-- Node25 -->
<g id="Node000025" class="node">
<title>Node25</title>
<g id="a_Node000025"><a xlink:href="copyable__unique__ptr_8hpp.html" target="_top" xlink:title=" ">
<polygon fill="white" stroke="#666666" points="1055.5,-206 939.5,-206 939.5,-176 1055.5,-176 1055.5,-206"/>
<text text-anchor="start" x="947.5" y="-194" font-family="Helvetica,sans-Serif" font-size="10.00">alpaqa/util/copyable</text>
<text text-anchor="middle" x="997.5" y="-183" font-family="Helvetica,sans-Serif" font-size="10.00">_unique_ptr.hpp</text>
</a>
</g>
</g>
<!-- Node1&#45;&gt;Node25 -->
<g id="edge31_Node000001_Node000025" class="edge">
<title>Node1&#45;&gt;Node25</title>
<g id="a_edge31_Node000001_Node000025"><a xlink:title=" ">
<path fill="none" stroke="#63b8ff" d="M848.71,-241.96C879.33,-231.68 916.54,-219.18 946.08,-209.26"/>
<polygon fill="#63b8ff" stroke="#63b8ff" points="947.42,-212.5 955.79,-206 945.2,-205.87 947.42,-212.5"/>
</a>
</g>
</g>
<!-- Node27 -->
<g id="Node000027" class="node">
<title>Node27</title>
<g id="a_Node000027"><a xlink:href="dl-flags_8hpp.html" target="_top" xlink:title=" ">
<polygon fill="white" stroke="#666666" points="1201.5,-200.5 1073.5,-200.5 1073.5,-181.5 1201.5,-181.5 1201.5,-200.5"/>
<text text-anchor="middle" x="1137.5" y="-188.5" font-family="Helvetica,sans-Serif" font-size="10.00">alpaqa/util/dl&#45;flags.hpp</text>
</a>
</g>
</g>
<!-- Node1&#45;&gt;Node27 -->
<g id="edge33_Node000001_Node000027" class="edge">
<title>Node1&#45;&gt;Node27</title>
<g id="a_edge33_Node000001_Node000027"><a xlink:title=" ">
<path fill="none" stroke="#63b8ff" d="M852.54,-249.07C918.74,-235.82 1022.48,-215.04 1084.85,-202.55"/>
<polygon fill="#63b8ff" stroke="#63b8ff" points="1085.74,-205.94 1094.86,-200.54 1084.37,-199.07 1085.74,-205.94"/>
</a>
</g>
</g>
<!-- Node28 -->
<g id="Node000028" class="node">
<title>Node28</title>
<g id="a_Node000028"><a xlink:title=" ">
<polygon fill="#e0e0e0" stroke="#999999" points="1267.5,-200.5 1219.5,-200.5 1219.5,-181.5 1267.5,-181.5 1267.5,-200.5"/>
<text text-anchor="middle" x="1243.5" y="-188.5" font-family="Helvetica,sans-Serif" font-size="10.00">iosfwd</text>
</a>
</g>
</g>
<!-- Node1&#45;&gt;Node28 -->
<g id="edge35_Node000001_Node000028" class="edge">
<title>Node1&#45;&gt;Node28</title>
<g id="a_edge35_Node000001_Node000028"><a xlink:title=" ">
<path fill="none" stroke="#63b8ff" d="M852.74,-258.52C935.65,-253.37 1086.32,-239.87 1210.5,-206 1212.39,-205.48 1214.32,-204.88 1216.24,-204.23"/>
<polygon fill="#63b8ff" stroke="#63b8ff" points="1217.58,-207.46 1225.66,-200.6 1215.07,-200.93 1217.58,-207.46"/>
</a>
</g>
</g>
<!-- Node3 -->
<g id="Node000003" class="node">
<title>Node3</title>
<g id="a_Node000003"><a xlink:href="quadmath-print_8hpp.html" target="_top" xlink:title=" ">
<polygon fill="white" stroke="#666666" points="121,-30 0,-30 0,0 121,0 121,-30"/>
<text text-anchor="start" x="8" y="-18" font-family="Helvetica,sans-Serif" font-size="10.00">alpaqa/util/quadmath</text>
<text text-anchor="middle" x="60.5" y="-7" font-family="Helvetica,sans-Serif" font-size="10.00">/quadmath&#45;print.hpp</text>
</a>
</g>
</g>
<!-- Node2&#45;&gt;Node3 -->
<g id="edge2_Node000002_Node000003" class="edge">
<title>Node2&#45;&gt;Node3</title>
<g id="a_edge2_Node000002_Node000003"><a xlink:title=" ">
<path fill="none" stroke="#63b8ff" d="M292.09,-65.99C250.05,-56.92 182.57,-42.35 131.28,-31.28"/>
<polygon fill="#63b8ff" stroke="#63b8ff" points="131.76,-27.8 121.24,-29.11 130.28,-34.64 131.76,-27.8"/>
</a>
</g>
</g>
<!-- Node4 -->
<g id="Node000004" class="node">
<title>Node4</title>
<g id="a_Node000004"><a xlink:href="quadmath_8hpp.html" target="_top" xlink:title=" ">
<polygon fill="white" stroke="#666666" points="410,-30 289,-30 289,0 410,0 410,-30"/>
<text text-anchor="start" x="297" y="-18" font-family="Helvetica,sans-Serif" font-size="10.00">alpaqa/util/quadmath</text>
<text text-anchor="middle" x="349.5" y="-7" font-family="Helvetica,sans-Serif" font-size="10.00">/quadmath.hpp</text>
</a>
</g>
</g>
<!-- Node2&#45;&gt;Node4 -->
<g id="edge3_Node000002_Node000004" class="edge">
<title>Node2&#45;&gt;Node4</title>
<g id="a_edge3_Node000002_Node000004"><a xlink:title=" ">
<path fill="none" stroke="#63b8ff" d="M334.16,-65.87C336.26,-59.03 339.3,-49.14 342.13,-39.97"/>
<polygon fill="#63b8ff" stroke="#63b8ff" points="345.56,-40.7 345.16,-30.11 338.87,-38.64 345.56,-40.7"/>
</a>
</g>
</g>
<!-- Node5 -->
<g id="Node000005" class="node">
<title>Node5</title>
<g id="a_Node000005"><a xlink:title=" ">
<polygon fill="#e0e0e0" stroke="#999999" points="487,-24.5 428,-24.5 428,-5.5 487,-5.5 487,-24.5"/>
<text text-anchor="middle" x="457.5" y="-12.5" font-family="Helvetica,sans-Serif" font-size="10.00">complex</text>
</a>
</g>
</g>
<!-- Node2&#45;&gt;Node5 -->
<g id="edge4_Node000002_Node000005" class="edge">
<title>Node2&#45;&gt;Node5</title>
<g id="a_edge4_Node000002_Node000005"><a xlink:title=" ">
<path fill="none" stroke="#63b8ff" d="M349.82,-65.99C370.91,-56.2 405.76,-40.02 430.08,-28.73"/>
<polygon fill="#63b8ff" stroke="#63b8ff" points="431.56,-31.9 439.16,-24.52 428.61,-25.55 431.56,-31.9"/>
</a>
</g>
</g>
<!-- Node6 -->
<g id="Node000006" class="node">
<title>Node6</title>
<g id="a_Node000006"><a xlink:title=" ">
<polygon fill="#e0e0e0" stroke="#999999" points="183.5,-24.5 139.5,-24.5 139.5,-5.5 183.5,-5.5 183.5,-24.5"/>
<text text-anchor="middle" x="161.5" y="-12.5" font-family="Helvetica,sans-Serif" font-size="10.00">limits</text>
</a>
</g>
</g>
<!-- Node2&#45;&gt;Node6 -->
<g id="edge5_Node000002_Node000006" class="edge">
<title>Node2&#45;&gt;Node6</title>
<g id="a_edge5_Node000002_Node000006"><a xlink:title=" ">
<path fill="none" stroke="#63b8ff" d="M301.33,-65.93C272.94,-57.61 229.4,-44.18 192.5,-30 191.32,-29.55 190.12,-29.07 188.92,-28.58"/>
<polygon fill="#63b8ff" stroke="#63b8ff" points="190.28,-25.36 179.71,-24.64 187.53,-31.79 190.28,-25.36"/>
</a>
</g>
</g>
<!-- Node7 -->
<g id="Node000007" class="node">
<title>Node7</title>
<g id="a_Node000007"><a xlink:title=" ">
<polygon fill="#e0e0e0" stroke="#999999" points="574,-24.5 505,-24.5 505,-5.5 574,-5.5 574,-24.5"/>
<text text-anchor="middle" x="539.5" y="-12.5" font-family="Helvetica,sans-Serif" font-size="10.00">type_traits</text>
</a>
</g>
</g>
<!-- Node2&#45;&gt;Node7 -->
<g id="edge6_Node000002_Node000007" class="edge">
<title>Node2&#45;&gt;Node7</title>
<g id="a_edge6_Node000002_Node000007"><a xlink:title=" ">
<path fill="none" stroke="#63b8ff" d="M364.6,-65.97C397.81,-57.3 450.36,-43.3 495.5,-30 498.08,-29.24 500.74,-28.44 503.41,-27.62"/>
<polygon fill="#63b8ff" stroke="#63b8ff" points="504.52,-30.94 513.03,-24.62 502.44,-24.26 504.52,-30.94"/>
</a>
</g>
</g>
<!-- Node8 -->
<g id="Node000008" class="node">
<title>Node8</title>
<g id="a_Node000008"><a xlink:title=" ">
<polygon fill="#e0e0e0" stroke="#999999" points="271,-24.5 202,-24.5 202,-5.5 271,-5.5 271,-24.5"/>
<text text-anchor="middle" x="236.5" y="-12.5" font-family="Helvetica,sans-Serif" font-size="10.00">Eigen/Core</text>
</a>
</g>
</g>
<!-- Node2&#45;&gt;Node8 -->
<g id="edge7_Node000002_Node000008" class="edge">
<title>Node2&#45;&gt;Node8</title>
<g id="a_edge7_Node000002_Node000008"><a xlink:title=" ">
<path fill="none" stroke="#63b8ff" d="M317.48,-65.87C302.19,-56.45 277.47,-41.23 259.36,-30.08"/>
<polygon fill="#63b8ff" stroke="#63b8ff" points="260.93,-26.93 250.58,-24.67 257.25,-32.89 260.93,-26.93"/>
</a>
</g>
</g>
<!-- Node11 -->
<g id="Node000011" class="node">
<title>Node11</title>
<g id="a_Node000011"><a xlink:href="box_8hpp.html" target="_top" xlink:title=" ">
<polygon fill="white" stroke="#666666" points="485,-140 350,-140 350,-121 485,-121 485,-140"/>
<text text-anchor="middle" x="417.5" y="-128" font-family="Helvetica,sans-Serif" font-size="10.00">alpaqa/problem/box.hpp</text>
</a>
</g>
</g>
<!-- Node10&#45;&gt;Node11 -->
<g id="edge10_Node000010_Node000011" class="edge">
<title>Node10&#45;&gt;Node11</title>
<g id="a_edge10_Node000010_Node000011"><a xlink:title=" ">
<path fill="none" stroke="#63b8ff" d="M595.45,-175.99C554.37,-165.72 499.38,-151.97 461.45,-142.49"/>
<polygon fill="#63b8ff" stroke="#63b8ff" points="462.26,-139.08 451.71,-140.05 460.57,-145.87 462.26,-139.08"/>
</a>
</g>
</g>
<!-- Node15 -->
<g id="Node000015" class="node">
<title>Node15</title>
<g id="a_Node000015"><a xlink:href="check-dim_8hpp.html" target="_top" xlink:title=" ">
<polygon fill="white" stroke="#666666" points="646,-140 503,-140 503,-121 646,-121 646,-140"/>
<text text-anchor="middle" x="574.5" y="-128" font-family="Helvetica,sans-Serif" font-size="10.00">alpaqa/util/check&#45;dim.hpp</text>
</a>
</g>
</g>
<!-- Node10&#45;&gt;Node15 -->
<g id="edge18_Node000010_Node000015" class="edge">
<title>Node10&#45;&gt;Node15</title>
<g id="a_edge18_Node000010_Node000015"><a xlink:title=" ">
<path fill="none" stroke="#63b8ff" d="M632.86,-175.84C621.11,-166.91 605.97,-155.41 594.05,-146.35"/>
<polygon fill="#63b8ff" stroke="#63b8ff" points="596.12,-143.53 586.04,-140.27 591.88,-149.1 596.12,-143.53"/>
</a>
</g>
</g>
<!-- Node19 -->
<g id="Node000019" class="node">
<title>Node19</title>
<g id="a_Node000019"><a xlink:title=" ">
<polygon fill="#e0e0e0" stroke="#999999" points="709,-140 664,-140 664,-121 709,-121 709,-140"/>
<text text-anchor="middle" x="686.5" y="-128" font-family="Helvetica,sans-Serif" font-size="10.00">utility</text>
</a>
</g>
</g>
<!-- Node10&#45;&gt;Node19 -->
<g id="edge23_Node000010_Node000019" class="edge">
<title>Node10&#45;&gt;Node19</title>
<g id="a_edge23_Node000010_Node000019"><a xlink:title=" ">
<path fill="none" stroke="#63b8ff" d="M659.97,-175.84C664.79,-167.78 670.87,-157.62 676,-149.06"/>
<polygon fill="#63b8ff" stroke="#63b8ff" points="679.12,-150.64 681.26,-140.27 673.12,-147.05 679.12,-150.64"/>
</a>
</g>
</g>
<!-- Node11&#45;&gt;Node2 -->
<g id="edge11_Node000011_Node000002" class="edge">
<title>Node11&#45;&gt;Node2</title>
<g id="a_edge11_Node000011_Node000002"><a xlink:title=" ">
<path fill="none" stroke="#63b8ff" d="M403.68,-120.98C390.35,-112.77 369.92,-100.18 354.19,-90.49"/>
<polygon fill="#63b8ff" stroke="#63b8ff" points="355.92,-87.44 345.57,-85.17 352.25,-93.4 355.92,-87.44"/>
</a>
</g>
</g>
<!-- Node12 -->
<g id="Node000012" class="node">
<title>Node12</title>
<g id="a_Node000012"><a xlink:href="float_8hpp.html" target="_top" xlink:title=" ">
<polygon fill="white" stroke="#666666" points="531.5,-85 417.5,-85 417.5,-66 531.5,-66 531.5,-85"/>
<text text-anchor="middle" x="474.5" y="-73" font-family="Helvetica,sans-Serif" font-size="10.00">alpaqa/util/float.hpp</text>
</a>
</g>
</g>
<!-- Node11&#45;&gt;Node12 -->
<g id="edge12_Node000011_Node000012" class="edge">
<title>Node11&#45;&gt;Node12</title>
<g id="a_edge12_Node000011_Node000012"><a xlink:title=" ">
<path fill="none" stroke="#63b8ff" d="M426.66,-120.98C435,-113.23 447.53,-101.58 457.68,-92.14"/>
<polygon fill="#63b8ff" stroke="#63b8ff" points="460.24,-94.54 465.18,-85.17 455.47,-89.42 460.24,-94.54"/>
</a>
</g>
</g>
<!-- Node12&#45;&gt;Node4 -->
<g id="edge13_Node000012_Node000004" class="edge">
<title>Node12&#45;&gt;Node4</title>
<g id="a_edge13_Node000012_Node000004"><a xlink:title=" ">
<path fill="none" stroke="#63b8ff" d="M456.32,-65.99C438.79,-57.79 411.66,-45.09 389.13,-34.55"/>
<polygon fill="#63b8ff" stroke="#63b8ff" points="390.33,-31.25 379.79,-30.18 387.37,-37.59 390.33,-31.25"/>
</a>
</g>
</g>
<!-- Node12&#45;&gt;Node5 -->
<g id="edge15_Node000012_Node000005" class="edge">
<title>Node12&#45;&gt;Node5</title>
<g id="a_edge15_Node000012_Node000005"><a xlink:title=" ">
<path fill="none" stroke="#63b8ff" d="M471.99,-65.87C469.61,-57.66 465.94,-45.04 462.89,-34.55"/>
<polygon fill="#63b8ff" stroke="#63b8ff" points="466.17,-33.29 460.02,-24.67 459.45,-35.25 466.17,-33.29"/>
</a>
</g>
</g>
<!-- Node12&#45;&gt;Node7 -->
<g id="edge17_Node000012_Node000007" class="edge">
<title>Node12&#45;&gt;Node7</title>
<g id="a_edge17_Node000012_Node000007"><a xlink:title=" ">
<path fill="none" stroke="#63b8ff" d="M484.09,-65.87C494.08,-56.88 509.93,-42.61 522.13,-31.64"/>
<polygon fill="#63b8ff" stroke="#63b8ff" points="524.78,-33.96 529.87,-24.67 520.1,-28.76 524.78,-33.96"/>
</a>
</g>
</g>
<!-- Node13 -->
<g id="Node000013" class="node">
<title>Node13</title>
<g id="a_Node000013"><a xlink:title=" ">
<polygon fill="#e0e0e0" stroke="#999999" points="639,-24.5 592,-24.5 592,-5.5 639,-5.5 639,-24.5"/>
<text text-anchor="middle" x="615.5" y="-12.5" font-family="Helvetica,sans-Serif" font-size="10.00">cmath</text>
</a>
</g>
</g>
<!-- Node12&#45;&gt;Node13 -->
<g id="edge14_Node000012_Node000013" class="edge">
<title>Node12&#45;&gt;Node13</title>
<g id="a_edge14_Node000012_Node000013"><a xlink:title=" ">
<path fill="none" stroke="#63b8ff" d="M495.64,-65.87C517.43,-56.95 552.38,-42.6 582.5,-30 583.66,-29.51 584.85,-29.02 586.04,-28.51"/>
<polygon fill="#63b8ff" stroke="#63b8ff" points="587.42,-31.73 595.27,-24.62 584.7,-25.28 587.42,-31.73"/>
</a>
</g>
</g>
<!-- Node14 -->
<g id="Node000014" class="node">
<title>Node14</title>
<g id="a_Node000014"><a xlink:title=" ">
<polygon fill="#e0e0e0" stroke="#999999" points="782.5,-24.5 722.5,-24.5 722.5,-5.5 782.5,-5.5 782.5,-24.5"/>
<text text-anchor="middle" x="752.5" y="-12.5" font-family="Helvetica,sans-Serif" font-size="10.00">concepts</text>
</a>
</g>
</g>
<!-- Node12&#45;&gt;Node14 -->
<g id="edge16_Node000012_Node000014" class="edge">
<title>Node12&#45;&gt;Node14</title>
<g id="a_edge16_Node000012_Node000014"><a xlink:title=" ">
<path fill="none" stroke="#63b8ff" d="M514.92,-65.99C567.72,-54.88 659.62,-35.54 712.31,-24.46"/>
<polygon fill="#63b8ff" stroke="#63b8ff" points="713.24,-27.84 722.3,-22.35 711.79,-20.99 713.24,-27.84"/>
</a>
</g>
</g>
<!-- Node15&#45;&gt;Node2 -->
<g id="edge19_Node000015_Node000002" class="edge">
<title>Node15&#45;&gt;Node2</title>
<g id="a_edge19_Node000015_Node000002"><a xlink:title=" ">
<path fill="none" stroke="#63b8ff" d="M535.46,-120.98C493.42,-111.82 426.46,-97.21 380.82,-87.26"/>
<polygon fill="#63b8ff" stroke="#63b8ff" points="381.36,-83.79 370.85,-85.08 379.87,-90.63 381.36,-83.79"/>
</a>
</g>
</g>
<!-- Node16 -->
<g id="Node000016" class="node">
<title>Node16</title>
<g id="a_Node000016"><a xlink:title=" ">
<polygon fill="#e0e0e0" stroke="#999999" points="605.5,-85 549.5,-85 549.5,-66 605.5,-66 605.5,-85"/>
<text text-anchor="middle" x="577.5" y="-73" font-family="Helvetica,sans-Serif" font-size="10.00">optional</text>
</a>
</g>
</g>
<!-- Node15&#45;&gt;Node16 -->
<g id="edge20_Node000015_Node000016" class="edge">
<title>Node15&#45;&gt;Node16</title>
<g id="a_edge20_Node000015_Node000016"><a xlink:title=" ">
<path fill="none" stroke="#63b8ff" d="M575,-120.75C575.39,-113.8 575.95,-103.85 576.45,-95.13"/>
<polygon fill="#63b8ff" stroke="#63b8ff" points="579.94,-95.27 577.01,-85.09 572.95,-94.88 579.94,-95.27"/>
</a>
</g>
</g>
<!-- Node17 -->
<g id="Node000017" class="node">
<title>Node17</title>
<g id="a_Node000017"><a xlink:title=" ">
<polygon fill="#e0e0e0" stroke="#999999" points="689,-85 624,-85 624,-66 689,-66 689,-85"/>
<text text-anchor="middle" x="656.5" y="-73" font-family="Helvetica,sans-Serif" font-size="10.00">stdexcept</text>
</a>
</g>
</g>
<!-- Node15&#45;&gt;Node17 -->
<g id="edge21_Node000015_Node000017" class="edge">
<title>Node15&#45;&gt;Node17</title>
<g id="a_edge21_Node000015_Node000017"><a xlink:title=" ">
<path fill="none" stroke="#63b8ff" d="M587.67,-120.98C600.27,-112.84 619.5,-100.41 634.44,-90.76"/>
<polygon fill="#63b8ff" stroke="#63b8ff" points="636.59,-93.54 643.09,-85.17 632.79,-87.66 636.59,-93.54"/>
</a>
</g>
</g>
<!-- Node15&#45;&gt;Node18 -->
<g id="edge22_Node000015_Node000018" class="edge">
<title>Node15&#45;&gt;Node18</title>
<g id="a_edge22_Node000015_Node000018"><a xlink:title=" ">
<path fill="none" stroke="#63b8ff" d="M600.21,-120.98C628.14,-111.73 672.8,-96.94 702.87,-86.98"/>
<polygon fill="#63b8ff" stroke="#63b8ff" points="704.07,-90.27 712.46,-83.8 701.87,-83.62 704.07,-90.27"/>
</a>
</g>
</g>
<!-- Node20&#45;&gt;Node2 -->
<g id="edge25_Node000020_Node000002" class="edge">
<title>Node20&#45;&gt;Node2</title>
<g id="a_edge25_Node000020_Node000002"><a xlink:title=" ">
<path fill="none" stroke="#63b8ff" d="M831.7,-181.47C810.19,-166.41 762.66,-135.36 717.5,-121 710.22,-118.69 520.08,-97.38 409.43,-85.11"/>
<polygon fill="#63b8ff" stroke="#63b8ff" points="409.63,-81.61 399.31,-83.98 408.86,-88.56 409.63,-81.61"/>
</a>
</g>
</g>
<!-- Node20&#45;&gt;Node14 -->
<g id="edge29_Node000020_Node000014" class="edge">
<title>Node20&#45;&gt;Node14</title>
<g id="a_edge29_Node000020_Node000014"><a xlink:title=" ">
<path fill="none" stroke="#63b8ff" d="M838.86,-181.13C824.56,-153.79 780.95,-70.4 761.75,-33.68"/>
<polygon fill="#63b8ff" stroke="#63b8ff" points="764.76,-31.88 757.02,-24.64 758.55,-35.13 764.76,-31.88"/>
</a>
</g>
</g>
<!-- Node21 -->
<g id="Node000021" class="node">
<title>Node21</title>
<g id="a_Node000021"><a xlink:href="export_8hpp.html" target="_top" xlink:title=" ">
<polygon fill="white" stroke="#666666" points="947,-140 842,-140 842,-121 947,-121 947,-140"/>
<text text-anchor="middle" x="894.5" y="-128" font-family="Helvetica,sans-Serif" font-size="10.00">alpaqa/export.hpp</text>
</a>
</g>
</g>
<!-- Node20&#45;&gt;Node21 -->
<g id="edge26_Node000020_Node000021" class="edge">
<title>Node20&#45;&gt;Node21</title>
<g id="a_edge26_Node000020_Node000021"><a xlink:title=" ">
<path fill="none" stroke="#63b8ff" d="M851.03,-181.37C858.71,-172.55 870.82,-158.66 880.31,-147.77"/>
<polygon fill="#63b8ff" stroke="#63b8ff" points="883.01,-150.01 886.94,-140.17 877.73,-145.41 883.01,-150.01"/>
</a>
</g>
</g>
<!-- Node23 -->
<g id="Node000023" class="node">
<title>Node23</title>
<g id="a_Node000023"><a xlink:title=" ">
<polygon fill="#e0e0e0" stroke="#999999" points="1017.5,-140 965.5,-140 965.5,-121 1017.5,-121 1017.5,-140"/>
<text text-anchor="middle" x="991.5" y="-128" font-family="Helvetica,sans-Serif" font-size="10.00">cassert</text>
</a>
</g>
</g>
<!-- Node20&#45;&gt;Node23 -->
<g id="edge28_Node000020_Node000023" class="edge">
<title>Node20&#45;&gt;Node23</title>
<g id="a_edge28_Node000020_Node000023"><a xlink:title=" ">
<path fill="none" stroke="#63b8ff" d="M865.02,-181.49C890.12,-171.57 931.82,-155.09 960.43,-143.78"/>
<polygon fill="#63b8ff" stroke="#63b8ff" points="961.94,-146.95 969.95,-140.02 959.37,-140.44 961.94,-146.95"/>
</a>
</g>
</g>
<!-- Node24 -->
<g id="Node000024" class="node">
<title>Node24</title>
<g id="a_Node000024"><a xlink:title=" ">
<polygon fill="#e0e0e0" stroke="#999999" points="1087,-140 1036,-140 1036,-121 1087,-121 1087,-140"/>
<text text-anchor="middle" x="1061.5" y="-128" font-family="Helvetica,sans-Serif" font-size="10.00">variant</text>
</a>
</g>
</g>
<!-- Node20&#45;&gt;Node24 -->
<g id="edge30_Node000020_Node000024" class="edge">
<title>Node20&#45;&gt;Node24</title>
<g id="a_edge30_Node000020_Node000024"><a xlink:title=" ">
<path fill="none" stroke="#63b8ff" d="M875.2,-181.49C915.35,-170.72 984.32,-152.21 1026.13,-140.99"/>
<polygon fill="#63b8ff" stroke="#63b8ff" points="1027.14,-144.34 1035.89,-138.37 1025.33,-137.58 1027.14,-144.34"/>
</a>
</g>
</g>
<!-- Node22 -->
<g id="Node000022" class="node">
<title>Node22</title>
<g id="a_Node000022"><a xlink:title=" ">
<polygon fill="#e0e0e0" stroke="#999999" points="1089,-85 996,-85 996,-66 1089,-66 1089,-85"/>
<text text-anchor="middle" x="1042.5" y="-73" font-family="Helvetica,sans-Serif" font-size="10.00">alpaqa/export.h</text>
</a>
</g>
</g>
<!-- Node21&#45;&gt;Node22 -->
<g id="edge27_Node000021_Node000022" class="edge">
<title>Node21&#45;&gt;Node22</title>
<g id="a_edge27_Node000021_Node000022"><a xlink:title=" ">
<path fill="none" stroke="#63b8ff" d="M918.28,-120.98C942.73,-112.23 981.03,-98.51 1008.65,-88.62"/>
<polygon fill="#63b8ff" stroke="#63b8ff" points="1010.05,-91.84 1018.29,-85.17 1007.69,-85.25 1010.05,-91.84"/>
</a>
</g>
</g>
<!-- Node26 -->
<g id="Node000026" class="node">
<title>Node26</title>
<g id="a_Node000026"><a xlink:title=" ">
<polygon fill="#e0e0e0" stroke="#999999" points="1163.5,-140 1105.5,-140 1105.5,-121 1163.5,-121 1163.5,-140"/>
<text text-anchor="middle" x="1134.5" y="-128" font-family="Helvetica,sans-Serif" font-size="10.00">memory</text>
</a>
</g>
</g>
<!-- Node25&#45;&gt;Node26 -->
<g id="edge32_Node000025_Node000026" class="edge">
<title>Node25&#45;&gt;Node26</title>
<g id="a_edge32_Node000025_Node000026"><a xlink:title=" ">
<path fill="none" stroke="#63b8ff" d="M1030.31,-175.99C1052.97,-166.31 1082.85,-153.56 1104.8,-144.18"/>
<polygon fill="#63b8ff" stroke="#63b8ff" points="1106.45,-147.29 1114.27,-140.14 1103.7,-140.85 1106.45,-147.29"/>
</a>
</g>
</g>
<!-- Node27&#45;&gt;Node22 -->
<g id="edge34_Node000027_Node000022" class="edge">
<title>Node27&#45;&gt;Node22</title>
<g id="a_edge34_Node000027_Node000022"><a xlink:title=" ">
<path fill="none" stroke="#63b8ff" d="M1147.66,-181.47C1162.5,-167.96 1186.87,-141.11 1172.5,-121 1155.83,-97.68 1126.18,-86.45 1099.39,-81.09"/>
<polygon fill="#63b8ff" stroke="#63b8ff" points="1099.76,-77.6 1089.3,-79.32 1098.54,-84.5 1099.76,-77.6"/>
</a>
</g>
</g>
</g>
</svg>
