<?xml version="1.0" encoding="UTF-8" standalone="no"?>
<!DOCTYPE svg PUBLIC "-//W3C//DTD SVG 1.1//EN"
 "http://www.w3.org/Graphics/SVG/1.1/DTD/svg11.dtd">
<!-- Generated by graphviz version 2.43.0 (0)
 -->
<!-- Title: src/interop/dl/include/alpaqa/dl/dl&#45;problem.hpp Pages: 1 -->
<!--zoomable 280 -->

<svg id="main" version="1.1" xmlns="http://www.w3.org/2000/svg" xmlns:xlink="http://www.w3.org/1999/xlink" xml:space="preserve" onload="init(evt)">
<style type="text/css"><![CDATA[
.node, .edge {opacity: 0.7;}
.node.selected, .edge.selected {opacity: 1;}
.edge:hover path { stroke: red; }
.edge:hover polygon { stroke: red; fill: red; }
]]></style>

<defs>
  <circle id="rim" cx="0" cy="0" r="7"/>
  <circle id="rim2" cx="0" cy="0" r="3.5"/>
  <g id="zoomPlus">
    <use xlink:href="#rim" fill="#404040"><set attributeName="fill" to="#808080" begin="zoomplus.mouseover" end="zoomplus.mouseout"/></use>
    <path d="M-4,0h8M0,-4v8" fill="none" stroke="white" stroke-width="1.5" pointer-events="none"/>
  </g>
  <g id="zoomMin">
    <use xlink:href="#rim" fill="#404040"><set attributeName="fill" to="#808080" begin="zoomminus.mouseover" end="zoomminus.mouseout"/></use>
    <path d="M-4,0h8" fill="none" stroke="white" stroke-width="1.5" pointer-events="none"/>
  </g>
  <g id="arrowUp" transform="translate(30 24)">
    <use xlink:href="#rim"/>
    <path pointer-events="none" fill="none" stroke="white" stroke-width="1.5" d="M0,-3.0v7 M-2.5,-0.5L0,-3.0L2.5,-0.5"/>
  </g>
  <g id="arrowRight" transform="rotate(90) translate(36 -43)">
    <use xlink:href="#rim"/>
    <path pointer-events="none" fill="none" stroke="white" stroke-width="1.5" d="M0,-3.0v7 M-2.5,-0.5L0,-3.0L2.5,-0.5"/>
  </g>
  <g id="arrowDown" transform="rotate(180) translate(-30 -48)">
    <use xlink:href="#rim"/>
    <path pointer-events="none" fill="none" stroke="white" stroke-width="1.5" d="M0,-3.0v7 M-2.5,-0.5L0,-3.0L2.5,-0.5"/>
  </g>
  <g id="arrowLeft" transform="rotate(270) translate(-36 17)">
    <use xlink:href="#rim"/>
    <path pointer-events="none" fill="none" stroke="white" stroke-width="1.5" d="M0,-3.0v7 M-2.5,-0.5L0,-3.0L2.5,-0.5"/>
  </g>
  <g id="resetDef">
    <use xlink:href="#rim2" fill="#404040"><set attributeName="fill" to="#808080" begin="reset.mouseover" end="reset.mouseout"/></use>
  </g>
</defs>
<script type="application/ecmascript">
var viewWidth = 1848;
var viewHeight = 280;
var sectionId = 'dynsection-0';
</script>
<script type="application/ecmascript" xlink:href="svg.min.js"/>
<svg id="graph" class="graph">
<g id="viewport">
<title>src/interop/dl/include/alpaqa/dl/dl&#45;problem.hpp</title>
<!-- Node1 -->
<g id="Node000001" class="node">
<title>Node1</title>
<g id="a_Node000001"><a xlink:title=" ">
<polygon fill="#999999" stroke="#666666" points="1253.5,-272 1111.5,-272 1111.5,-242 1253.5,-242 1253.5,-272"/>
<text text-anchor="start" x="1119.5" y="-260" font-family="Helvetica,sans-Serif" font-size="10.00">src/interop/dl/include</text>
<text text-anchor="middle" x="1182.5" y="-249" font-family="Helvetica,sans-Serif" font-size="10.00">/alpaqa/dl/dl&#45;problem.hpp</text>
</a>
</g>
</g>
<!-- Node2 -->
<g id="Node000002" class="node">
<title>Node2</title>
<g id="a_Node000002"><a xlink:href="config_8hpp.html" target="_top" xlink:title=" ">
<polygon fill="white" stroke="#666666" points="388,-85 253,-85 253,-66 388,-66 388,-85"/>
<text text-anchor="middle" x="320.5" y="-73" font-family="Helvetica,sans-Serif" font-size="10.00">alpaqa/config/config.hpp</text>
</a>
</g>
</g>
<!-- Node1&#45;&gt;Node2 -->
<g id="edge1_Node000001_Node000002" class="edge">
<title>Node1&#45;&gt;Node2</title>
<g id="a_edge1_Node000001_Node000002"><a xlink:title=" ">
<path fill="none" stroke="#63b8ff" d="M1111.33,-254.5C928.76,-250.27 447.23,-236.46 290.5,-206 201.1,-188.62 149.52,-214.05 96.5,-140 91.58,-133.13 91.14,-127.53 96.5,-121 106.17,-109.22 184.96,-95.55 246.4,-86.5"/>
<polygon fill="#63b8ff" stroke="#63b8ff" points="247.09,-89.93 256.49,-85.03 246.09,-83.01 247.09,-89.93"/>
</a>
</g>
</g>
<!-- Node7 -->
<g id="Node000007" class="node">
<title>Node7</title>
<g id="a_Node000007"><a xlink:title=" ">
<polygon fill="#e0e0e0" stroke="#999999" points="69,-24.5 0,-24.5 0,-5.5 69,-5.5 69,-24.5"/>
<text text-anchor="middle" x="34.5" y="-12.5" font-family="Helvetica,sans-Serif" font-size="10.00">type_traits</text>
</a>
</g>
</g>
<!-- Node1&#45;&gt;Node7 -->
<g id="edge56_Node000001_Node000007" class="edge">
<title>Node1&#45;&gt;Node7</title>
<g id="a_edge56_Node000001_Node000007"><a xlink:title=" ">
<path fill="none" stroke="#63b8ff" d="M1111.23,-256.46C888.18,-257.36 213.35,-255.89 129.5,-206 66.48,-168.51 44.04,-74.63 37.17,-34.58"/>
<polygon fill="#63b8ff" stroke="#63b8ff" points="40.61,-33.93 35.59,-24.6 33.69,-35.02 40.61,-33.93"/>
</a>
</g>
</g>
<!-- Node9 -->
<g id="Node000009" class="node">
<title>Node9</title>
<g id="a_Node000009"><a xlink:title=" ">
<polygon fill="#e0e0e0" stroke="#999999" points="1690.5,-200.5 1550.5,-200.5 1550.5,-181.5 1690.5,-181.5 1690.5,-200.5"/>
<text text-anchor="middle" x="1620.5" y="-188.5" font-family="Helvetica,sans-Serif" font-size="10.00">alpaqa/dl&#45;loader&#45;export.h</text>
</a>
</g>
</g>
<!-- Node1&#45;&gt;Node9 -->
<g id="edge8_Node000001_Node000009" class="edge">
<title>Node1&#45;&gt;Node9</title>
<g id="a_edge8_Node000001_Node000009"><a xlink:title=" ">
<path fill="none" stroke="#63b8ff" d="M1253.8,-246.86C1326.32,-237.38 1441.9,-221.76 1541.5,-206 1548.87,-204.83 1556.61,-203.54 1564.24,-202.23"/>
<polygon fill="#63b8ff" stroke="#63b8ff" points="1564.93,-205.67 1574.18,-200.5 1563.73,-198.77 1564.93,-205.67"/>
</a>
</g>
</g>
<!-- Node10 -->
<g id="Node000010" class="node">
<title>Node10</title>
<g id="a_Node000010"><a xlink:href="dl-problem_8h.html" target="_top" xlink:title=" ">
<polygon fill="white" stroke="#666666" points="1532,-200.5 1405,-200.5 1405,-181.5 1532,-181.5 1532,-200.5"/>
<text text-anchor="middle" x="1468.5" y="-188.5" font-family="Helvetica,sans-Serif" font-size="10.00">alpaqa/dl/dl&#45;problem.h</text>
</a>
</g>
</g>
<!-- Node1&#45;&gt;Node10 -->
<g id="edge9_Node000001_Node000010" class="edge">
<title>Node1&#45;&gt;Node10</title>
<g id="a_edge9_Node000001_Node000010"><a xlink:title=" ">
<path fill="none" stroke="#63b8ff" d="M1245.26,-241.95C1298.07,-230.14 1372.46,-213.49 1420.59,-202.72"/>
<polygon fill="#63b8ff" stroke="#63b8ff" points="1421.44,-206.12 1430.44,-200.52 1419.92,-199.29 1421.44,-206.12"/>
</a>
</g>
</g>
<!-- Node17 -->
<g id="Node000017" class="node">
<title>Node17</title>
<g id="a_Node000017"><a xlink:title=" ">
<polygon fill="#e0e0e0" stroke="#999999" points="1261.5,-85 1217.5,-85 1217.5,-66 1261.5,-66 1261.5,-85"/>
<text text-anchor="middle" x="1239.5" y="-73" font-family="Helvetica,sans-Serif" font-size="10.00">string</text>
</a>
</g>
</g>
<!-- Node1&#45;&gt;Node17 -->
<g id="edge54_Node000001_Node000017" class="edge">
<title>Node1&#45;&gt;Node17</title>
<g id="a_edge54_Node000001_Node000017"><a xlink:title=" ">
<path fill="none" stroke="#63b8ff" d="M1221.92,-241.97C1262.87,-224.98 1324.5,-191.99 1350.5,-140 1367.74,-105.51 1310.5,-88.59 1271.91,-81.28"/>
<polygon fill="#63b8ff" stroke="#63b8ff" points="1272.05,-77.75 1261.59,-79.46 1270.83,-84.64 1272.05,-77.75"/>
</a>
</g>
</g>
<!-- Node18 -->
<g id="Node000018" class="node">
<title>Node18</title>
<g id="a_Node000018"><a xlink:href="box-constr-problem_8hpp.html" target="_top" xlink:title=" ">
<polygon fill="white" stroke="#666666" points="415.5,-206 299.5,-206 299.5,-176 415.5,-176 415.5,-206"/>
<text text-anchor="start" x="307.5" y="-194" font-family="Helvetica,sans-Serif" font-size="10.00">alpaqa/problem/box</text>
<text text-anchor="middle" x="357.5" y="-183" font-family="Helvetica,sans-Serif" font-size="10.00">&#45;constr&#45;problem.hpp</text>
</a>
</g>
</g>
<!-- Node1&#45;&gt;Node18 -->
<g id="edge17_Node000001_Node000018" class="edge">
<title>Node1&#45;&gt;Node18</title>
<g id="a_edge17_Node000001_Node000018"><a xlink:title=" ">
<path fill="none" stroke="#63b8ff" d="M1111.02,-250.94C989.05,-242.23 732.9,-223.65 516.5,-206 486.74,-203.57 453.85,-200.71 425.76,-198.2"/>
<polygon fill="#63b8ff" stroke="#63b8ff" points="425.91,-194.7 415.63,-197.3 425.28,-201.68 425.91,-194.7"/>
</a>
</g>
</g>
<!-- Node25 -->
<g id="Node000025" class="node">
<title>Node25</title>
<g id="a_Node000025"><a xlink:title=" ">
<polygon fill="#e0e0e0" stroke="#999999" points="743,-85 678,-85 678,-66 743,-66 743,-85"/>
<text text-anchor="middle" x="710.5" y="-73" font-family="Helvetica,sans-Serif" font-size="10.00">stdexcept</text>
</a>
</g>
</g>
<!-- Node1&#45;&gt;Node25 -->
<g id="edge53_Node000001_Node000025" class="edge">
<title>Node1&#45;&gt;Node25</title>
<g id="a_edge53_Node000001_Node000025"><a xlink:title=" ">
<path fill="none" stroke="#63b8ff" d="M1111.23,-252.93C1041.97,-248.21 934.63,-236.25 846.5,-206 790.03,-186.62 766.76,-186.65 729.5,-140 719.29,-127.22 714.56,-109.04 712.37,-95.41"/>
<polygon fill="#63b8ff" stroke="#63b8ff" points="715.81,-94.72 711.07,-85.25 708.87,-95.61 715.81,-94.72"/>
</a>
</g>
</g>
<!-- Node27 -->
<g id="Node000027" class="node">
<title>Node27</title>
<g id="a_Node000027"><a xlink:href="sparsity_8hpp.html" target="_top" xlink:title=" ">
<polygon fill="white" stroke="#666666" points="681,-200.5 526,-200.5 526,-181.5 681,-181.5 681,-200.5"/>
<text text-anchor="middle" x="603.5" y="-188.5" font-family="Helvetica,sans-Serif" font-size="10.00">alpaqa/problem/sparsity.hpp</text>
</a>
</g>
</g>
<!-- Node1&#45;&gt;Node27 -->
<g id="edge32_Node000001_Node000027" class="edge">
<title>Node1&#45;&gt;Node27</title>
<g id="a_edge32_Node000001_Node000027"><a xlink:title=" ">
<path fill="none" stroke="#63b8ff" d="M1111.15,-249.71C1016.3,-241.12 843.55,-224.62 696.5,-206 687.12,-204.81 677.23,-203.45 667.54,-202.04"/>
<polygon fill="#63b8ff" stroke="#63b8ff" points="667.94,-198.56 657.54,-200.57 666.92,-205.49 667.94,-198.56"/>
</a>
</g>
</g>
<!-- Node32 -->
<g id="Node000032" class="node">
<title>Node32</title>
<g id="a_Node000032"><a xlink:href="demangled-typename_8hpp.html" target="_top" xlink:title=" ">
<polygon fill="white" stroke="#666666" points="981.5,-206 855.5,-206 855.5,-176 981.5,-176 981.5,-206"/>
<text text-anchor="start" x="863.5" y="-194" font-family="Helvetica,sans-Serif" font-size="10.00">alpaqa/util/demangled</text>
<text text-anchor="middle" x="918.5" y="-183" font-family="Helvetica,sans-Serif" font-size="10.00">&#45;typename.hpp</text>
</a>
</g>
</g>
<!-- Node1&#45;&gt;Node32 -->
<g id="edge39_Node000001_Node000032" class="edge">
<title>Node1&#45;&gt;Node32</title>
<g id="a_edge39_Node000001_Node000032"><a xlink:title=" ">
<path fill="none" stroke="#63b8ff" d="M1124.56,-241.95C1083.73,-232.06 1028.91,-218.77 986.08,-208.38"/>
<polygon fill="#63b8ff" stroke="#63b8ff" points="986.84,-204.97 976.3,-206.01 985.19,-211.77 986.84,-204.97"/>
</a>
</g>
</g>
<!-- Node34 -->
<g id="Node000034" class="node">
<title>Node34</title>
<g id="a_Node000034"><a xlink:href="dl_8hpp.html" target="_top" xlink:title=" ">
<polygon fill="white" stroke="#666666" points="1175,-200.5 1074,-200.5 1074,-181.5 1175,-181.5 1175,-200.5"/>
<text text-anchor="middle" x="1124.5" y="-188.5" font-family="Helvetica,sans-Serif" font-size="10.00">alpaqa/util/dl.hpp</text>
</a>
</g>
</g>
<!-- Node1&#45;&gt;Node34 -->
<g id="edge43_Node000001_Node000034" class="edge">
<title>Node1&#45;&gt;Node34</title>
<g id="a_edge43_Node000001_Node000034"><a xlink:title=" ">
<path fill="none" stroke="#63b8ff" d="M1169.63,-241.8C1160.67,-231.92 1148.71,-218.72 1139.36,-208.39"/>
<polygon fill="#63b8ff" stroke="#63b8ff" points="1141.82,-205.9 1132.52,-200.84 1136.64,-210.6 1141.82,-205.9"/>
</a>
</g>
</g>
<!-- Node36 -->
<g id="Node000036" class="node">
<title>Node36</title>
<g id="a_Node000036"><a xlink:title=" ">
<polygon fill="#e0e0e0" stroke="#999999" points="1265.5,-140 1197.5,-140 1197.5,-121 1265.5,-121 1265.5,-140"/>
<text text-anchor="middle" x="1231.5" y="-128" font-family="Helvetica,sans-Serif" font-size="10.00">filesystem</text>
</a>
</g>
</g>
<!-- Node1&#45;&gt;Node36 -->
<g id="edge50_Node000001_Node000036" class="edge">
<title>Node1&#45;&gt;Node36</title>
<g id="a_edge50_Node000001_Node000036"><a xlink:title=" ">
<path fill="none" stroke="#63b8ff" d="M1188.12,-241.72C1197.1,-218.92 1214.64,-174.33 1224.45,-149.42"/>
<polygon fill="#63b8ff" stroke="#63b8ff" points="1227.72,-150.66 1228.13,-140.07 1221.21,-148.09 1227.72,-150.66"/>
</a>
</g>
</g>
<!-- Node37 -->
<g id="Node000037" class="node">
<title>Node37</title>
<g id="a_Node000037"><a xlink:title=" ">
<polygon fill="#e0e0e0" stroke="#999999" points="1341.5,-140 1283.5,-140 1283.5,-121 1341.5,-121 1341.5,-140"/>
<text text-anchor="middle" x="1312.5" y="-128" font-family="Helvetica,sans-Serif" font-size="10.00">memory</text>
</a>
</g>
</g>
<!-- Node1&#45;&gt;Node37 -->
<g id="edge51_Node000001_Node000037" class="edge">
<title>Node1&#45;&gt;Node37</title>
<g id="a_edge51_Node000001_Node000037"><a xlink:title=" ">
<path fill="none" stroke="#63b8ff" d="M1197.16,-241.96C1221.61,-218.55 1270.53,-171.69 1296.09,-147.21"/>
<polygon fill="#63b8ff" stroke="#63b8ff" points="1298.71,-149.55 1303.51,-140.11 1293.87,-144.5 1298.71,-149.55"/>
</a>
</g>
</g>
<!-- Node38 -->
<g id="Node000038" class="node">
<title>Node38</title>
<g id="a_Node000038"><a xlink:title=" ">
<polygon fill="#e0e0e0" stroke="#999999" points="1748.5,-200.5 1708.5,-200.5 1708.5,-181.5 1748.5,-181.5 1748.5,-200.5"/>
<text text-anchor="middle" x="1728.5" y="-188.5" font-family="Helvetica,sans-Serif" font-size="10.00">span</text>
</a>
</g>
</g>
<!-- Node1&#45;&gt;Node38 -->
<g id="edge52_Node000001_Node000038" class="edge">
<title>Node1&#45;&gt;Node38</title>
<g id="a_edge52_Node000001_Node000038"><a xlink:title=" ">
<path fill="none" stroke="#63b8ff" d="M1253.77,-256.96C1354.83,-256.57 1544.72,-249.35 1699.5,-206 1700.95,-205.59 1702.41,-205.12 1703.87,-204.6"/>
<polygon fill="#63b8ff" stroke="#63b8ff" points="1705.41,-207.74 1713.24,-200.61 1702.67,-201.3 1705.41,-207.74"/>
</a>
</g>
</g>
<!-- Node39 -->
<g id="Node000039" class="node">
<title>Node39</title>
<g id="a_Node000039"><a xlink:title=" ">
<polygon fill="#e0e0e0" stroke="#999999" points="1840,-200.5 1767,-200.5 1767,-181.5 1840,-181.5 1840,-200.5"/>
<text text-anchor="middle" x="1803.5" y="-188.5" font-family="Helvetica,sans-Serif" font-size="10.00">string_view</text>
</a>
</g>
</g>
<!-- Node1&#45;&gt;Node39 -->
<g id="edge55_Node000001_Node000039" class="edge">
<title>Node1&#45;&gt;Node39</title>
<g id="a_edge55_Node000001_Node000039"><a xlink:title=" ">
<path fill="none" stroke="#63b8ff" d="M1253.53,-254.58C1362.77,-251.33 1578.2,-240.68 1757.5,-206 1761.35,-205.25 1765.35,-204.31 1769.29,-203.27"/>
<polygon fill="#63b8ff" stroke="#63b8ff" points="1770.26,-206.63 1778.91,-200.52 1768.33,-199.9 1770.26,-206.63"/>
</a>
</g>
</g>
<!-- Node3 -->
<g id="Node000003" class="node">
<title>Node3</title>
<g id="a_Node000003"><a xlink:href="quadmath-print_8hpp.html" target="_top" xlink:title=" ">
<polygon fill="white" stroke="#666666" points="630,-30 509,-30 509,0 630,0 630,-30"/>
<text text-anchor="start" x="517" y="-18" font-family="Helvetica,sans-Serif" font-size="10.00">alpaqa/util/quadmath</text>
<text text-anchor="middle" x="569.5" y="-7" font-family="Helvetica,sans-Serif" font-size="10.00">/quadmath&#45;print.hpp</text>
</a>
</g>
</g>
<!-- Node2&#45;&gt;Node3 -->
<g id="edge2_Node000002_Node000003" class="edge">
<title>Node2&#45;&gt;Node3</title>
<g id="a_edge2_Node000002_Node000003"><a xlink:title=" ">
<path fill="none" stroke="#63b8ff" d="M356.71,-65.99C394.03,-57.23 453.16,-43.33 499.63,-32.42"/>
<polygon fill="#63b8ff" stroke="#63b8ff" points="500.7,-35.76 509.64,-30.06 499.1,-28.94 500.7,-35.76"/>
</a>
</g>
</g>
<!-- Node4 -->
<g id="Node000004" class="node">
<title>Node4</title>
<g id="a_Node000004"><a xlink:href="quadmath_8hpp.html" target="_top" xlink:title=" ">
<polygon fill="white" stroke="#666666" points="273,-30 152,-30 152,0 273,0 273,-30"/>
<text text-anchor="start" x="160" y="-18" font-family="Helvetica,sans-Serif" font-size="10.00">alpaqa/util/quadmath</text>
<text text-anchor="middle" x="212.5" y="-7" font-family="Helvetica,sans-Serif" font-size="10.00">/quadmath.hpp</text>
</a>
</g>
</g>
<!-- Node2&#45;&gt;Node4 -->
<g id="edge3_Node000002_Node000004" class="edge">
<title>Node2&#45;&gt;Node4</title>
<g id="a_edge3_Node000002_Node000004"><a xlink:title=" ">
<path fill="none" stroke="#63b8ff" d="M304.56,-65.87C289.57,-57.75 266.61,-45.31 247.37,-34.89"/>
<polygon fill="#63b8ff" stroke="#63b8ff" points="249.02,-31.8 238.56,-30.11 245.68,-37.96 249.02,-31.8"/>
</a>
</g>
</g>
<!-- Node5 -->
<g id="Node000005" class="node">
<title>Node5</title>
<g id="a_Node000005"><a xlink:title=" ">
<polygon fill="#e0e0e0" stroke="#999999" points="350,-24.5 291,-24.5 291,-5.5 350,-5.5 350,-24.5"/>
<text text-anchor="middle" x="320.5" y="-12.5" font-family="Helvetica,sans-Serif" font-size="10.00">complex</text>
</a>
</g>
</g>
<!-- Node2&#45;&gt;Node5 -->
<g id="edge4_Node000002_Node000005" class="edge">
<title>Node2&#45;&gt;Node5</title>
<g id="a_edge4_Node000002_Node000005"><a xlink:title=" ">
<path fill="none" stroke="#63b8ff" d="M320.5,-65.87C320.5,-57.75 320.5,-45.31 320.5,-34.89"/>
<polygon fill="#63b8ff" stroke="#63b8ff" points="324,-34.67 320.5,-24.67 317,-34.67 324,-34.67"/>
</a>
</g>
</g>
<!-- Node6 -->
<g id="Node000006" class="node">
<title>Node6</title>
<g id="a_Node000006"><a xlink:title=" ">
<polygon fill="#e0e0e0" stroke="#999999" points="490.5,-24.5 446.5,-24.5 446.5,-5.5 490.5,-5.5 490.5,-24.5"/>
<text text-anchor="middle" x="468.5" y="-12.5" font-family="Helvetica,sans-Serif" font-size="10.00">limits</text>
</a>
</g>
</g>
<!-- Node2&#45;&gt;Node6 -->
<g id="edge5_Node000002_Node000006" class="edge">
<title>Node2&#45;&gt;Node6</title>
<g id="a_edge5_Node000002_Node000006"><a xlink:title=" ">
<path fill="none" stroke="#63b8ff" d="M344.42,-65.89C368.19,-57.21 405.59,-43.26 437.5,-30 438.51,-29.58 439.53,-29.15 440.57,-28.71"/>
<polygon fill="#63b8ff" stroke="#63b8ff" points="442.14,-31.84 449.89,-24.62 439.33,-25.43 442.14,-31.84"/>
</a>
</g>
</g>
<!-- Node2&#45;&gt;Node7 -->
<g id="edge6_Node000002_Node000007" class="edge">
<title>Node2&#45;&gt;Node7</title>
<g id="a_edge6_Node000002_Node000007"><a xlink:title=" ">
<path fill="none" stroke="#63b8ff" d="M261.6,-65.97C212.09,-58.27 139.66,-45.74 77.5,-30 74.55,-29.25 71.51,-28.41 68.47,-27.52"/>
<polygon fill="#63b8ff" stroke="#63b8ff" points="69.48,-24.17 58.89,-24.57 67.42,-30.86 69.48,-24.17"/>
</a>
</g>
</g>
<!-- Node8 -->
<g id="Node000008" class="node">
<title>Node8</title>
<g id="a_Node000008"><a xlink:title=" ">
<polygon fill="#e0e0e0" stroke="#999999" points="717,-24.5 648,-24.5 648,-5.5 717,-5.5 717,-24.5"/>
<text text-anchor="middle" x="682.5" y="-12.5" font-family="Helvetica,sans-Serif" font-size="10.00">Eigen/Core</text>
</a>
</g>
</g>
<!-- Node2&#45;&gt;Node8 -->
<g id="edge7_Node000002_Node000008" class="edge">
<title>Node2&#45;&gt;Node8</title>
<g id="a_edge7_Node000002_Node000008"><a xlink:title=" ">
<path fill="none" stroke="#63b8ff" d="M388.06,-66.41C466.86,-56.73 592.23,-40.52 638.5,-30 641.7,-29.27 645.01,-28.42 648.31,-27.5"/>
<polygon fill="#63b8ff" stroke="#63b8ff" points="649.45,-30.81 658.03,-24.59 647.45,-24.1 649.45,-30.81"/>
</a>
</g>
</g>
<!-- Node11 -->
<g id="Node000011" class="node">
<title>Node11</title>
<g id="a_Node000011"><a xlink:title=" ">
<polygon fill="#e0e0e0" stroke="#999999" points="1631.5,-140 1575.5,-140 1575.5,-121 1631.5,-121 1631.5,-140"/>
<text text-anchor="middle" x="1603.5" y="-128" font-family="Helvetica,sans-Serif" font-size="10.00">stddef.h</text>
</a>
</g>
</g>
<!-- Node10&#45;&gt;Node11 -->
<g id="edge10_Node000010_Node000011" class="edge">
<title>Node10&#45;&gt;Node11</title>
<g id="a_edge10_Node000010_Node000011"><a xlink:title=" ">
<path fill="none" stroke="#63b8ff" d="M1488.13,-181.49C1510.83,-171.66 1548.4,-155.38 1574.47,-144.08"/>
<polygon fill="#63b8ff" stroke="#63b8ff" points="1576.06,-147.2 1583.85,-140.02 1573.28,-140.78 1576.06,-147.2"/>
</a>
</g>
</g>
<!-- Node12 -->
<g id="Node000012" class="node">
<title>Node12</title>
<g id="a_Node000012"><a xlink:title=" ">
<polygon fill="#e0e0e0" stroke="#999999" points="1703,-140 1650,-140 1650,-121 1703,-121 1703,-140"/>
<text text-anchor="middle" x="1676.5" y="-128" font-family="Helvetica,sans-Serif" font-size="10.00">stdint.h</text>
</a>
</g>
</g>
<!-- Node10&#45;&gt;Node12 -->
<g id="edge11_Node000010_Node000012" class="edge">
<title>Node10&#45;&gt;Node12</title>
<g id="a_edge11_Node000010_Node000012"><a xlink:title=" ">
<path fill="none" stroke="#63b8ff" d="M1498.74,-181.49C1536.24,-170.95 1600.09,-152.99 1640.2,-141.71"/>
<polygon fill="#63b8ff" stroke="#63b8ff" points="1641.17,-145.07 1649.85,-139 1639.28,-138.33 1641.17,-145.07"/>
</a>
</g>
</g>
<!-- Node13 -->
<g id="Node000013" class="node">
<title>Node13</title>
<g id="a_Node000013"><a xlink:title=" ">
<polygon fill="#e0e0e0" stroke="#999999" points="1756,-140 1721,-140 1721,-121 1756,-121 1756,-140"/>
<text text-anchor="middle" x="1738.5" y="-128" font-family="Helvetica,sans-Serif" font-size="10.00">any</text>
</a>
</g>
</g>
<!-- Node10&#45;&gt;Node13 -->
<g id="edge12_Node000010_Node000013" class="edge">
<title>Node10&#45;&gt;Node13</title>
<g id="a_edge12_Node000010_Node000013"><a xlink:title=" ">
<path fill="none" stroke="#63b8ff" d="M1513.3,-181.45C1569.06,-170.72 1662.09,-152.44 1711.18,-140.08"/>
<polygon fill="#63b8ff" stroke="#63b8ff" points="1712.16,-143.44 1720.96,-137.53 1710.4,-136.66 1712.16,-143.44"/>
</a>
</g>
</g>
<!-- Node14 -->
<g id="Node000014" class="node">
<title>Node14</title>
<g id="a_Node000014"><a xlink:title=" ">
<polygon fill="#e0e0e0" stroke="#999999" points="1839,-140 1774,-140 1774,-121 1839,-121 1839,-140"/>
<text text-anchor="middle" x="1806.5" y="-128" font-family="Helvetica,sans-Serif" font-size="10.00">exception</text>
</a>
</g>
</g>
<!-- Node10&#45;&gt;Node14 -->
<g id="edge13_Node000010_Node000014" class="edge">
<title>Node10&#45;&gt;Node14</title>
<g id="a_edge13_Node000010_Node000014"><a xlink:title=" ">
<path fill="none" stroke="#63b8ff" d="M1511.69,-181.49C1521.48,-179.63 1531.84,-177.7 1541.5,-176 1637.7,-159.05 1664.66,-158.27 1764.01,-140.21"/>
<polygon fill="#63b8ff" stroke="#63b8ff" points="1764.65,-143.65 1773.85,-138.41 1763.39,-136.77 1764.65,-143.65"/>
</a>
</g>
</g>
<!-- Node15 -->
<g id="Node000015" class="node">
<title>Node15</title>
<g id="a_Node000015"><a xlink:title=" ">
<polygon fill="#e0e0e0" stroke="#999999" points="1501,-140 1436,-140 1436,-121 1501,-121 1501,-140"/>
<text text-anchor="middle" x="1468.5" y="-128" font-family="Helvetica,sans-Serif" font-size="10.00">functional</text>
</a>
</g>
</g>
<!-- Node10&#45;&gt;Node15 -->
<g id="edge14_Node000010_Node000015" class="edge">
<title>Node10&#45;&gt;Node15</title>
<g id="a_edge14_Node000010_Node000015"><a xlink:title=" ">
<path fill="none" stroke="#63b8ff" d="M1468.5,-181.37C1468.5,-173.25 1468.5,-160.81 1468.5,-150.39"/>
<polygon fill="#63b8ff" stroke="#63b8ff" points="1472,-150.17 1468.5,-140.17 1465,-150.17 1472,-150.17"/>
</a>
</g>
</g>
<!-- Node16 -->
<g id="Node000016" class="node">
<title>Node16</title>
<g id="a_Node000016"><a xlink:title=" ">
<polygon fill="#e0e0e0" stroke="#999999" points="1557.5,-140 1519.5,-140 1519.5,-121 1557.5,-121 1557.5,-140"/>
<text text-anchor="middle" x="1538.5" y="-128" font-family="Helvetica,sans-Serif" font-size="10.00">map</text>
</a>
</g>
</g>
<!-- Node10&#45;&gt;Node16 -->
<g id="edge15_Node000010_Node000016" class="edge">
<title>Node10&#45;&gt;Node16</title>
<g id="a_edge15_Node000010_Node000016"><a xlink:title=" ">
<path fill="none" stroke="#63b8ff" d="M1478.83,-181.37C1489.69,-172.3 1506.99,-157.84 1520.17,-146.82"/>
<polygon fill="#63b8ff" stroke="#63b8ff" points="1522.7,-149.27 1528.13,-140.17 1518.21,-143.89 1522.7,-149.27"/>
</a>
</g>
</g>
<!-- Node10&#45;&gt;Node17 -->
<g id="edge16_Node000010_Node000017" class="edge">
<title>Node10&#45;&gt;Node17</title>
<g id="a_edge16_Node000010_Node000017"><a xlink:title=" ">
<path fill="none" stroke="#63b8ff" d="M1459.9,-181.08C1445.42,-166.54 1414.68,-137.66 1383.5,-121 1347.48,-101.75 1301.85,-89.43 1271.72,-82.75"/>
<polygon fill="#63b8ff" stroke="#63b8ff" points="1272.26,-79.28 1261.75,-80.62 1270.79,-86.13 1272.26,-79.28"/>
</a>
</g>
</g>
<!-- Node19 -->
<g id="Node000019" class="node">
<title>Node19</title>
<g id="a_Node000019"><a xlink:href="box_8hpp.html" target="_top" xlink:title=" ">
<polygon fill="white" stroke="#666666" points="241,-140 106,-140 106,-121 241,-121 241,-140"/>
<text text-anchor="middle" x="173.5" y="-128" font-family="Helvetica,sans-Serif" font-size="10.00">alpaqa/problem/box.hpp</text>
</a>
</g>
</g>
<!-- Node18&#45;&gt;Node19 -->
<g id="edge18_Node000018_Node000019" class="edge">
<title>Node18&#45;&gt;Node19</title>
<g id="a_edge18_Node000018_Node000019"><a xlink:title=" ">
<path fill="none" stroke="#63b8ff" d="M313.43,-175.99C281.81,-165.94 239.72,-152.55 209.98,-143.1"/>
<polygon fill="#63b8ff" stroke="#63b8ff" points="210.99,-139.75 200.4,-140.05 208.87,-146.42 210.99,-139.75"/>
</a>
</g>
</g>
<!-- Node23 -->
<g id="Node000023" class="node">
<title>Node23</title>
<g id="a_Node000023"><a xlink:href="check-dim_8hpp.html" target="_top" xlink:title=" ">
<polygon fill="white" stroke="#666666" points="504,-140 361,-140 361,-121 504,-121 504,-140"/>
<text text-anchor="middle" x="432.5" y="-128" font-family="Helvetica,sans-Serif" font-size="10.00">alpaqa/util/check&#45;dim.hpp</text>
</a>
</g>
</g>
<!-- Node18&#45;&gt;Node23 -->
<g id="edge26_Node000018_Node000023" class="edge">
<title>Node18&#45;&gt;Node23</title>
<g id="a_edge26_Node000018_Node000023"><a xlink:title=" ">
<path fill="none" stroke="#63b8ff" d="M375.66,-175.84C386.99,-167 401.56,-155.63 413.12,-146.62"/>
<polygon fill="#63b8ff" stroke="#63b8ff" points="415.53,-149.18 421.26,-140.27 411.22,-143.66 415.53,-149.18"/>
</a>
</g>
</g>
<!-- Node26 -->
<g id="Node000026" class="node">
<title>Node26</title>
<g id="a_Node000026"><a xlink:title=" ">
<polygon fill="#e0e0e0" stroke="#999999" points="304,-140 259,-140 259,-121 304,-121 304,-140"/>
<text text-anchor="middle" x="281.5" y="-128" font-family="Helvetica,sans-Serif" font-size="10.00">utility</text>
</a>
</g>
</g>
<!-- Node18&#45;&gt;Node26 -->
<g id="edge31_Node000018_Node000026" class="edge">
<title>Node18&#45;&gt;Node26</title>
<g id="a_edge31_Node000018_Node000026"><a xlink:title=" ">
<path fill="none" stroke="#63b8ff" d="M339.1,-175.84C327.62,-167 312.85,-155.63 301.14,-146.62"/>
<polygon fill="#63b8ff" stroke="#63b8ff" points="302.95,-143.59 292.89,-140.27 298.68,-149.14 302.95,-143.59"/>
</a>
</g>
</g>
<!-- Node19&#45;&gt;Node2 -->
<g id="edge19_Node000019_Node000002" class="edge">
<title>Node19&#45;&gt;Node2</title>
<g id="a_edge19_Node000019_Node000002"><a xlink:title=" ">
<path fill="none" stroke="#63b8ff" d="M197.12,-120.98C221.4,-112.23 259.45,-98.51 286.87,-88.62"/>
<polygon fill="#63b8ff" stroke="#63b8ff" points="288.23,-91.85 296.45,-85.17 285.86,-85.27 288.23,-91.85"/>
</a>
</g>
</g>
<!-- Node20 -->
<g id="Node000020" class="node">
<title>Node20</title>
<g id="a_Node000020"><a xlink:href="float_8hpp.html" target="_top" xlink:title=" ">
<polygon fill="white" stroke="#666666" points="232.5,-85 118.5,-85 118.5,-66 232.5,-66 232.5,-85"/>
<text text-anchor="middle" x="175.5" y="-73" font-family="Helvetica,sans-Serif" font-size="10.00">alpaqa/util/float.hpp</text>
</a>
</g>
</g>
<!-- Node19&#45;&gt;Node20 -->
<g id="edge20_Node000019_Node000020" class="edge">
<title>Node19&#45;&gt;Node20</title>
<g id="a_edge20_Node000019_Node000020"><a xlink:title=" ">
<path fill="none" stroke="#63b8ff" d="M173.83,-120.75C174.09,-113.8 174.47,-103.85 174.8,-95.13"/>
<polygon fill="#63b8ff" stroke="#63b8ff" points="178.3,-95.21 175.18,-85.09 171.3,-94.95 178.3,-95.21"/>
</a>
</g>
</g>
<!-- Node20&#45;&gt;Node4 -->
<g id="edge21_Node000020_Node000004" class="edge">
<title>Node20&#45;&gt;Node4</title>
<g id="a_edge21_Node000020_Node000004"><a xlink:title=" ">
<path fill="none" stroke="#63b8ff" d="M180.96,-65.87C185.47,-58.74 192.08,-48.28 198.09,-38.79"/>
<polygon fill="#63b8ff" stroke="#63b8ff" points="201.19,-40.44 203.57,-30.11 195.27,-36.7 201.19,-40.44"/>
</a>
</g>
</g>
<!-- Node20&#45;&gt;Node5 -->
<g id="edge23_Node000020_Node000005" class="edge">
<title>Node20&#45;&gt;Node5</title>
<g id="a_edge23_Node000020_Node000005"><a xlink:title=" ">
<path fill="none" stroke="#63b8ff" d="M196.58,-65.99C221.18,-56.07 262.03,-39.59 290.06,-28.28"/>
<polygon fill="#63b8ff" stroke="#63b8ff" points="291.43,-31.5 299.39,-24.52 288.81,-25.01 291.43,-31.5"/>
</a>
</g>
</g>
<!-- Node20&#45;&gt;Node7 -->
<g id="edge25_Node000020_Node000007" class="edge">
<title>Node20&#45;&gt;Node7</title>
<g id="a_edge25_Node000020_Node000007"><a xlink:title=" ">
<path fill="none" stroke="#63b8ff" d="M155,-65.99C131.19,-56.12 91.71,-39.73 64.46,-28.43"/>
<polygon fill="#63b8ff" stroke="#63b8ff" points="65.61,-25.12 55.03,-24.52 62.92,-31.58 65.61,-25.12"/>
</a>
</g>
</g>
<!-- Node21 -->
<g id="Node000021" class="node">
<title>Node21</title>
<g id="a_Node000021"><a xlink:title=" ">
<polygon fill="#e0e0e0" stroke="#999999" points="134,-24.5 87,-24.5 87,-5.5 134,-5.5 134,-24.5"/>
<text text-anchor="middle" x="110.5" y="-12.5" font-family="Helvetica,sans-Serif" font-size="10.00">cmath</text>
</a>
</g>
</g>
<!-- Node20&#45;&gt;Node21 -->
<g id="edge22_Node000020_Node000021" class="edge">
<title>Node20&#45;&gt;Node21</title>
<g id="a_edge22_Node000020_Node000021"><a xlink:title=" ">
<path fill="none" stroke="#63b8ff" d="M165.91,-65.87C155.92,-56.88 140.07,-42.61 127.87,-31.64"/>
<polygon fill="#63b8ff" stroke="#63b8ff" points="129.9,-28.76 120.13,-24.67 125.22,-33.96 129.9,-28.76"/>
</a>
</g>
</g>
<!-- Node22 -->
<g id="Node000022" class="node">
<title>Node22</title>
<g id="a_Node000022"><a xlink:title=" ">
<polygon fill="#e0e0e0" stroke="#999999" points="428.5,-24.5 368.5,-24.5 368.5,-5.5 428.5,-5.5 428.5,-24.5"/>
<text text-anchor="middle" x="398.5" y="-12.5" font-family="Helvetica,sans-Serif" font-size="10.00">concepts</text>
</a>
</g>
</g>
<!-- Node20&#45;&gt;Node22 -->
<g id="edge24_Node000020_Node000022" class="edge">
<title>Node20&#45;&gt;Node22</title>
<g id="a_edge24_Node000020_Node000022"><a xlink:title=" ">
<path fill="none" stroke="#63b8ff" d="M215.42,-65.98C252.7,-57.74 309.75,-44.42 358.5,-30 360.91,-29.29 363.38,-28.52 365.87,-27.72"/>
<polygon fill="#63b8ff" stroke="#63b8ff" points="366.99,-31.03 375.36,-24.53 364.76,-24.39 366.99,-31.03"/>
</a>
</g>
</g>
<!-- Node23&#45;&gt;Node2 -->
<g id="edge27_Node000023_Node000002" class="edge">
<title>Node23&#45;&gt;Node2</title>
<g id="a_edge27_Node000023_Node000002"><a xlink:title=" ">
<path fill="none" stroke="#63b8ff" d="M414.51,-120.98C396.57,-112.5 368.78,-99.35 348.07,-89.54"/>
<polygon fill="#63b8ff" stroke="#63b8ff" points="349.36,-86.28 338.82,-85.17 346.36,-92.61 349.36,-86.28"/>
</a>
</g>
</g>
<!-- Node23&#45;&gt;Node17 -->
<g id="edge30_Node000023_Node000017" class="edge">
<title>Node23&#45;&gt;Node17</title>
<g id="a_edge30_Node000023_Node000017"><a xlink:title=" ">
<path fill="none" stroke="#63b8ff" d="M504.04,-121.82C507.23,-121.53 510.4,-121.26 513.5,-121 651.39,-109.54 1085.18,-85.09 1207.25,-78.29"/>
<polygon fill="#63b8ff" stroke="#63b8ff" points="1207.64,-81.77 1217.43,-77.72 1207.26,-74.78 1207.64,-81.77"/>
</a>
</g>
</g>
<!-- Node24 -->
<g id="Node000024" class="node">
<title>Node24</title>
<g id="a_Node000024"><a xlink:title=" ">
<polygon fill="#e0e0e0" stroke="#999999" points="462.5,-85 406.5,-85 406.5,-66 462.5,-66 462.5,-85"/>
<text text-anchor="middle" x="434.5" y="-73" font-family="Helvetica,sans-Serif" font-size="10.00">optional</text>
</a>
</g>
</g>
<!-- Node23&#45;&gt;Node24 -->
<g id="edge28_Node000023_Node000024" class="edge">
<title>Node23&#45;&gt;Node24</title>
<g id="a_edge28_Node000023_Node000024"><a xlink:title=" ">
<path fill="none" stroke="#63b8ff" d="M432.83,-120.75C433.09,-113.8 433.47,-103.85 433.8,-95.13"/>
<polygon fill="#63b8ff" stroke="#63b8ff" points="437.3,-95.21 434.18,-85.09 430.3,-94.95 437.3,-95.21"/>
</a>
</g>
</g>
<!-- Node23&#45;&gt;Node25 -->
<g id="edge29_Node000023_Node000025" class="edge">
<title>Node23&#45;&gt;Node25</title>
<g id="a_edge29_Node000023_Node000025"><a xlink:title=" ">
<path fill="none" stroke="#63b8ff" d="M477.17,-120.98C529.69,-110.97 616.23,-94.47 667.86,-84.63"/>
<polygon fill="#63b8ff" stroke="#63b8ff" points="668.53,-88.06 677.7,-82.75 667.22,-81.19 668.53,-88.06"/>
</a>
</g>
</g>
<!-- Node27&#45;&gt;Node2 -->
<g id="edge33_Node000027_Node000002" class="edge">
<title>Node27&#45;&gt;Node2</title>
<g id="a_edge33_Node000027_Node000002"><a xlink:title=" ">
<path fill="none" stroke="#63b8ff" d="M525.82,-182.19C462.16,-174.43 378.36,-160.68 351.5,-140 337.09,-128.91 328.98,-109.37 324.7,-94.89"/>
<polygon fill="#63b8ff" stroke="#63b8ff" points="328.04,-93.82 322.13,-85.02 321.26,-95.58 328.04,-93.82"/>
</a>
</g>
</g>
<!-- Node27&#45;&gt;Node22 -->
<g id="edge37_Node000027_Node000022" class="edge">
<title>Node27&#45;&gt;Node22</title>
<g id="a_edge37_Node000027_Node000022"><a xlink:title=" ">
<path fill="none" stroke="#63b8ff" d="M603.06,-181.43C601.92,-167.38 597.88,-139.21 583.5,-121 562.08,-93.87 473.08,-50.28 426.77,-28.8"/>
<polygon fill="#63b8ff" stroke="#63b8ff" points="428.13,-25.57 417.58,-24.57 425.2,-31.93 428.13,-25.57"/>
</a>
</g>
</g>
<!-- Node28 -->
<g id="Node000028" class="node">
<title>Node28</title>
<g id="a_Node000028"><a xlink:href="export_8hpp.html" target="_top" xlink:title=" ">
<polygon fill="white" stroke="#666666" points="844,-140 739,-140 739,-121 844,-121 844,-140"/>
<text text-anchor="middle" x="791.5" y="-128" font-family="Helvetica,sans-Serif" font-size="10.00">alpaqa/export.hpp</text>
</a>
</g>
</g>
<!-- Node27&#45;&gt;Node28 -->
<g id="edge34_Node000027_Node000028" class="edge">
<title>Node27&#45;&gt;Node28</title>
<g id="a_edge34_Node000027_Node000028"><a xlink:title=" ">
<path fill="none" stroke="#63b8ff" d="M630.84,-181.49C663.42,-171.36 718.01,-154.37 754.39,-143.05"/>
<polygon fill="#63b8ff" stroke="#63b8ff" points="755.62,-146.33 764.13,-140.02 753.54,-139.65 755.62,-146.33"/>
</a>
</g>
</g>
<!-- Node30 -->
<g id="Node000030" class="node">
<title>Node30</title>
<g id="a_Node000030"><a xlink:title=" ">
<polygon fill="#e0e0e0" stroke="#999999" points="574.5,-140 522.5,-140 522.5,-121 574.5,-121 574.5,-140"/>
<text text-anchor="middle" x="548.5" y="-128" font-family="Helvetica,sans-Serif" font-size="10.00">cassert</text>
</a>
</g>
</g>
<!-- Node27&#45;&gt;Node30 -->
<g id="edge36_Node000027_Node000030" class="edge">
<title>Node27&#45;&gt;Node30</title>
<g id="a_edge36_Node000027_Node000030"><a xlink:title=" ">
<path fill="none" stroke="#63b8ff" d="M595.38,-181.37C587.1,-172.55 574.03,-158.66 563.8,-147.77"/>
<polygon fill="#63b8ff" stroke="#63b8ff" points="566.05,-145.06 556.65,-140.17 560.95,-149.85 566.05,-145.06"/>
</a>
</g>
</g>
<!-- Node31 -->
<g id="Node000031" class="node">
<title>Node31</title>
<g id="a_Node000031"><a xlink:title=" ">
<polygon fill="#e0e0e0" stroke="#999999" points="682,-140 631,-140 631,-121 682,-121 682,-140"/>
<text text-anchor="middle" x="656.5" y="-128" font-family="Helvetica,sans-Serif" font-size="10.00">variant</text>
</a>
</g>
</g>
<!-- Node27&#45;&gt;Node31 -->
<g id="edge38_Node000027_Node000031" class="edge">
<title>Node27&#45;&gt;Node31</title>
<g id="a_edge38_Node000027_Node000031"><a xlink:title=" ">
<path fill="none" stroke="#63b8ff" d="M611.32,-181.37C619.31,-172.55 631.89,-158.66 641.76,-147.77"/>
<polygon fill="#63b8ff" stroke="#63b8ff" points="644.53,-149.93 648.65,-140.17 639.34,-145.23 644.53,-149.93"/>
</a>
</g>
</g>
<!-- Node29 -->
<g id="Node000029" class="node">
<title>Node29</title>
<g id="a_Node000029"><a xlink:title=" ">
<polygon fill="#e0e0e0" stroke="#999999" points="1070,-85 977,-85 977,-66 1070,-66 1070,-85"/>
<text text-anchor="middle" x="1023.5" y="-73" font-family="Helvetica,sans-Serif" font-size="10.00">alpaqa/export.h</text>
</a>
</g>
</g>
<!-- Node28&#45;&gt;Node29 -->
<g id="edge35_Node000028_Node000029" class="edge">
<title>Node28&#45;&gt;Node29</title>
<g id="a_edge35_Node000028_Node000029"><a xlink:title=" ">
<path fill="none" stroke="#63b8ff" d="M828.77,-120.98C868.82,-111.84 932.57,-97.27 976.14,-87.32"/>
<polygon fill="#63b8ff" stroke="#63b8ff" points="976.96,-90.72 985.93,-85.08 975.4,-83.9 976.96,-90.72"/>
</a>
</g>
</g>
<!-- Node32&#45;&gt;Node17 -->
<g id="edge41_Node000032_Node000017" class="edge">
<title>Node32&#45;&gt;Node17</title>
<g id="a_edge41_Node000032_Node000017"><a xlink:title=" ">
<path fill="none" stroke="#63b8ff" d="M939.54,-175.82C963.5,-160.28 1004.3,-135.6 1042.5,-121 1098.57,-99.57 1167.75,-86.9 1207.43,-80.86"/>
<polygon fill="#63b8ff" stroke="#63b8ff" points="1207.95,-84.32 1217.33,-79.4 1206.93,-77.4 1207.95,-84.32"/>
</a>
</g>
</g>
<!-- Node32&#45;&gt;Node28 -->
<g id="edge40_Node000032_Node000028" class="edge">
<title>Node32&#45;&gt;Node28</title>
<g id="a_edge40_Node000032_Node000028"><a xlink:title=" ">
<path fill="none" stroke="#63b8ff" d="M888.08,-175.99C867.27,-166.4 839.88,-153.79 819.59,-144.44"/>
<polygon fill="#63b8ff" stroke="#63b8ff" points="820.8,-141.14 810.26,-140.14 817.87,-147.5 820.8,-141.14"/>
</a>
</g>
</g>
<!-- Node33 -->
<g id="Node000033" class="node">
<title>Node33</title>
<g id="a_Node000033"><a xlink:title=" ">
<polygon fill="#e0e0e0" stroke="#999999" points="919,-140 862,-140 862,-121 919,-121 919,-140"/>
<text text-anchor="middle" x="890.5" y="-128" font-family="Helvetica,sans-Serif" font-size="10.00">typeinfo</text>
</a>
</g>
</g>
<!-- Node32&#45;&gt;Node33 -->
<g id="edge42_Node000032_Node000033" class="edge">
<title>Node32&#45;&gt;Node33</title>
<g id="a_edge42_Node000032_Node000033"><a xlink:title=" ">
<path fill="none" stroke="#63b8ff" d="M911.72,-175.84C907.91,-167.87 903.11,-157.84 899.04,-149.33"/>
<polygon fill="#63b8ff" stroke="#63b8ff" points="902.17,-147.77 894.7,-140.27 895.86,-150.8 902.17,-147.77"/>
</a>
</g>
</g>
<!-- Node34&#45;&gt;Node25 -->
<g id="edge49_Node000034_Node000025" class="edge">
<title>Node34&#45;&gt;Node25</title>
<g id="a_edge49_Node000034_Node000025"><a xlink:title=" ">
<path fill="none" stroke="#63b8ff" d="M1103.23,-181.48C1067.43,-167.39 992.64,-139 927.5,-121 867.79,-104.5 797.3,-91.15 753.24,-83.51"/>
<polygon fill="#63b8ff" stroke="#63b8ff" points="753.62,-80.03 743.18,-81.79 752.44,-86.92 753.62,-80.03"/>
</a>
</g>
</g>
<!-- Node34&#45;&gt;Node29 -->
<g id="edge44_Node000034_Node000029" class="edge">
<title>Node34&#45;&gt;Node29</title>
<g id="a_edge44_Node000034_Node000029"><a xlink:title=" ">
<path fill="none" stroke="#63b8ff" d="M1101.45,-181.41C1082.96,-173.38 1057.67,-159.67 1042.5,-140 1032.51,-127.04 1027.75,-108.89 1025.5,-95.31"/>
<polygon fill="#63b8ff" stroke="#63b8ff" points="1028.94,-94.64 1024.14,-85.19 1022.01,-95.57 1028.94,-94.64"/>
</a>
</g>
</g>
<!-- Node35 -->
<g id="Node000035" class="node">
<title>Node35</title>
<g id="a_Node000035"><a xlink:href="dl-flags_8hpp.html" target="_top" xlink:title=" ">
<polygon fill="white" stroke="#666666" points="1179.5,-140 1051.5,-140 1051.5,-121 1179.5,-121 1179.5,-140"/>
<text text-anchor="middle" x="1115.5" y="-128" font-family="Helvetica,sans-Serif" font-size="10.00">alpaqa/util/dl&#45;flags.hpp</text>
</a>
</g>
</g>
<!-- Node34&#45;&gt;Node35 -->
<g id="edge45_Node000034_Node000035" class="edge">
<title>Node34&#45;&gt;Node35</title>
<g id="a_edge45_Node000034_Node000035"><a xlink:title=" ">
<path fill="none" stroke="#63b8ff" d="M1123.17,-181.37C1121.91,-173.16 1119.97,-160.54 1118.35,-150.05"/>
<polygon fill="#63b8ff" stroke="#63b8ff" points="1121.81,-149.52 1116.83,-140.17 1114.89,-150.58 1121.81,-149.52"/>
</a>
</g>
</g>
<!-- Node34&#45;&gt;Node36 -->
<g id="edge47_Node000034_Node000036" class="edge">
<title>Node34&#45;&gt;Node36</title>
<g id="a_edge47_Node000034_Node000036"><a xlink:title=" ">
<path fill="none" stroke="#63b8ff" d="M1140.29,-181.37C1157.83,-171.78 1186.38,-156.17 1206.87,-144.97"/>
<polygon fill="#63b8ff" stroke="#63b8ff" points="1208.55,-148.04 1215.65,-140.17 1205.19,-141.89 1208.55,-148.04"/>
</a>
</g>
</g>
<!-- Node34&#45;&gt;Node37 -->
<g id="edge48_Node000034_Node000037" class="edge">
<title>Node34&#45;&gt;Node37</title>
<g id="a_edge48_Node000034_Node000037"><a xlink:title=" ">
<path fill="none" stroke="#63b8ff" d="M1151.84,-181.49C1184.42,-171.36 1239.01,-154.37 1275.39,-143.05"/>
<polygon fill="#63b8ff" stroke="#63b8ff" points="1276.62,-146.33 1285.13,-140.02 1274.54,-139.65 1276.62,-146.33"/>
</a>
</g>
</g>
<!-- Node35&#45;&gt;Node29 -->
<g id="edge46_Node000035_Node000029" class="edge">
<title>Node35&#45;&gt;Node29</title>
<g id="a_edge46_Node000035_Node000029"><a xlink:title=" ">
<path fill="none" stroke="#63b8ff" d="M1100.72,-120.98C1086.32,-112.69 1064.19,-99.94 1047.31,-90.22"/>
<polygon fill="#63b8ff" stroke="#63b8ff" points="1048.96,-87.13 1038.55,-85.17 1045.47,-93.19 1048.96,-87.13"/>
</a>
</g>
</g>
</g>
</svg>

<g id="navigator" transform="translate(0 0)" fill="#404254">
  <rect fill="#f2f5e9" fill-opacity="0.5" stroke="#606060" stroke-width=".5" x="0" y="0" width="60" height="60"/>
  <use id="zoomplus" xlink:href="#zoomPlus" x="17" y="9" onmousedown="handleZoom(evt,'in')"/>
  <use id="zoomminus" xlink:href="#zoomMin" x="42" y="9" onmousedown="handleZoom(evt,'out')"/>
  <use id="reset" xlink:href="#resetDef" x="30" y="36" onmousedown="handleReset()"/>
   <use id="arrowup" xlink:href="#arrowUp" x="0" y="0" onmousedown="handlePan(0,-1)"/>
  <use id="arrowright" xlink:href="#arrowRight" x="0" y="0" onmousedown="handlePan(1,0)"/>
  <use id="arrowdown" xlink:href="#arrowDown" x="0" y="0" onmousedown="handlePan(0,1)"/>
  <use id="arrowleft" xlink:href="#arrowLeft" x="0" y="0" onmousedown="handlePan(-1,0)"/>
</g>
<svg viewBox="0 0 15 15" width="100%" height="30px" preserveAspectRatio="xMaxYMin meet">
 <g id="arrow_out" transform="scale(0.3 0.3)">
  <a xlink:href="dl-problem_8hpp__incl_org.svg" target="_base">
   <rect id="button" ry="5" rx="5" y="6" x="6" height="38" width="38"
        fill="#f2f5e9" fill-opacity="0.5" stroke="#606060" stroke-width="1.0"/>
   <path id="arrow"
     d="M 11.500037,31.436501 C 11.940474,20.09759 22.043105,11.32322 32.158766,21.979434 L 37.068811,17.246167 C 37.068811,17.246167 37.088388,32 37.088388,32 L 22.160133,31.978069 C 22.160133,31.978069 26.997745,27.140456 26.997745,27.140456 C 18.528582,18.264221 13.291696,25.230495 11.500037,31.436501 z"
     style="fill:#404040;"/>
  </a>
 </g>
</svg>

<style type='text/css'>
<![CDATA[
[data-mouse-over-selected='false'] { opacity: 0.7; }
[data-mouse-over-selected='true']  { opacity: 1.0; }
]]>
</style>
<script type="application/ecmascript"><![CDATA[
document.addEventListener('DOMContentLoaded', (event) => {
  highlightEdges();
  highlightAdjacentNodes();
});
]]></script>
</svg>
