<?xml version="1.0" encoding="UTF-8" standalone="no"?>
<!DOCTYPE svg PUBLIC "-//W3C//DTD SVG 1.1//EN"
 "http://www.w3.org/Graphics/SVG/1.1/DTD/svg11.dtd">
<!-- Generated by graphviz version 2.43.0 (0)
 -->
<!-- Title: check_gradients Pages: 1 -->
<svg width="622pt" height="205pt"
 viewBox="0.00 0.00 622.00 204.50" xmlns="http://www.w3.org/2000/svg" xmlns:xlink="http://www.w3.org/1999/xlink">
<g id="graph0" class="graph" transform="scale(1 1) rotate(0) translate(4 200.5)">
<title>check_gradients</title>
<!-- Node1 -->
<g id="Node000001" class="node">
<title>Node1</title>
<g id="a_Node000001"><a xlink:title=" ">
<polygon fill="#999999" stroke="#666666" points="96,-93 0,-93 0,-74 96,-74 96,-93"/>
<text text-anchor="middle" x="48" y="-81" font-family="Helvetica,sans-Serif" font-size="10.00">check_gradients</text>
</a>
</g>
</g>
<!-- Node2 -->
<g id="Node000002" class="node">
<title>Node2</title>
<g id="a_Node000002"><a xlink:href="gradient-checker_8cpp.html#ae866f6e8a0c670569583f9be21f4db7b" target="_top" xlink:title=" ">
<polygon fill="white" stroke="#666666" points="260,-167 132,-167 132,-148 260,-148 260,-167"/>
<text text-anchor="middle" x="196" y="-155" font-family="Helvetica,sans-Serif" font-size="10.00">default_eval_ψ_grad_ψ</text>
</a>
</g>
</g>
<!-- Node1&#45;&gt;Node2 -->
<g id="edge1_Node000001_Node000002" class="edge">
<title>Node1&#45;&gt;Node2</title>
<g id="a_edge1_Node000001_Node000002"><a xlink:title=" ">
<path fill="none" stroke="#63b8ff" d="M60.65,-93.13C76.09,-105.45 104.58,-126.73 132,-139.5 136.05,-141.39 140.35,-143.12 144.71,-144.7"/>
<polygon fill="#63b8ff" stroke="#63b8ff" points="143.72,-148.06 154.32,-147.92 145.95,-141.42 143.72,-148.06"/>
</a>
</g>
</g>
<!-- Node6 -->
<g id="Node000006" class="node">
<title>Node6</title>
<g id="a_Node000006"><a xlink:href="gradient-checker_8cpp.html#a01cd2b951d8115e3920b93b396b87bab" target="_top" xlink:title=" ">
<polygon fill="white" stroke="#666666" points="227,-130 165,-130 165,-111 227,-111 227,-130"/>
<text text-anchor="middle" x="196" y="-118" font-family="Helvetica,sans-Serif" font-size="10.00">finite_diff</text>
</a>
</g>
</g>
<!-- Node1&#45;&gt;Node6 -->
<g id="edge5_Node000001_Node000006" class="edge">
<title>Node1&#45;&gt;Node6</title>
<g id="a_edge5_Node000001_Node000006"><a xlink:title=" ">
<path fill="none" stroke="#63b8ff" d="M86.6,-93.03C107.6,-98.35 133.77,-104.98 155.13,-110.4"/>
<polygon fill="#63b8ff" stroke="#63b8ff" points="154.33,-113.8 164.88,-112.87 156.05,-107.02 154.33,-113.8"/>
</a>
</g>
</g>
<!-- Node7 -->
<g id="Node000007" class="node">
<title>Node7</title>
<g id="a_Node000007"><a xlink:href="gradient-checker_8cpp.html#a31be8f13628905b1658a429d7e12c6ce" target="_top" xlink:title=" ">
<polygon fill="white" stroke="#666666" points="241,-93 151,-93 151,-74 241,-74 241,-93"/>
<text text-anchor="middle" x="196" y="-81" font-family="Helvetica,sans-Serif" font-size="10.00">finite_diff_hess</text>
</a>
</g>
</g>
<!-- Node1&#45;&gt;Node7 -->
<g id="edge6_Node000001_Node000007" class="edge">
<title>Node1&#45;&gt;Node7</title>
<g id="a_edge6_Node000001_Node000007"><a xlink:title=" ">
<path fill="none" stroke="#63b8ff" d="M96.4,-83.5C110.47,-83.5 126,-83.5 140.48,-83.5"/>
<polygon fill="#63b8ff" stroke="#63b8ff" points="140.81,-87 150.81,-83.5 140.81,-80 140.81,-87"/>
</a>
</g>
</g>
<!-- Node8 -->
<g id="Node000008" class="node">
<title>Node8</title>
<g id="a_Node000008"><a xlink:href="namespacealpaqa.html#ae50af6bf82d3c0cc4093c46b8e2c4379" target="_top" xlink:title=" ">
<polygon fill="white" stroke="#666666" points="251,-56 141,-56 141,-37 251,-37 251,-56"/>
<text text-anchor="middle" x="196" y="-44" font-family="Helvetica,sans-Serif" font-size="10.00">alpaqa::float_to_str</text>
</a>
</g>
</g>
<!-- Node1&#45;&gt;Node8 -->
<g id="edge7_Node000001_Node000008" class="edge">
<title>Node1&#45;&gt;Node8</title>
<g id="a_edge7_Node000001_Node000008"><a xlink:title=" ">
<path fill="none" stroke="#63b8ff" d="M86.6,-73.97C105.17,-69.26 127.78,-63.53 147.54,-58.53"/>
<polygon fill="#63b8ff" stroke="#63b8ff" points="148.44,-61.91 157.28,-56.06 146.72,-55.12 148.44,-61.91"/>
</a>
</g>
</g>
<!-- Node11 -->
<g id="Node000011" class="node">
<title>Node11</title>
<g id="a_Node000011"><a xlink:href="namespacealpaqa.html#ae1ca57ced38bc4270939845243045212" target="_top" xlink:title=" ">
<polygon fill="white" stroke="#666666" points="254.5,-19 137.5,-19 137.5,0 254.5,0 254.5,-19"/>
<text text-anchor="middle" x="196" y="-7" font-family="Helvetica,sans-Serif" font-size="10.00">alpaqa::print_python</text>
</a>
</g>
</g>
<!-- Node1&#45;&gt;Node11 -->
<g id="edge10_Node000001_Node000011" class="edge">
<title>Node1&#45;&gt;Node11</title>
<g id="a_edge10_Node000001_Node000011"><a xlink:title=" ">
<path fill="none" stroke="#63b8ff" d="M60.98,-73.91C76.54,-61.86 104.93,-41.21 132,-28.5 136.73,-26.28 141.77,-24.25 146.87,-22.41"/>
<polygon fill="#63b8ff" stroke="#63b8ff" points="148.33,-25.61 156.68,-19.1 146.09,-18.98 148.33,-25.61"/>
</a>
</g>
</g>
<!-- Node3 -->
<g id="Node000003" class="node">
<title>Node3</title>
<g id="a_Node000003"><a xlink:href="gradient-checker_8cpp.html#aa87afd38b7fb114000f0f42aeb65f429" target="_top" xlink:title=" ">
<polygon fill="white" stroke="#666666" points="418.5,-167 303.5,-167 303.5,-148 418.5,-148 418.5,-167"/>
<text text-anchor="middle" x="361" y="-155" font-family="Helvetica,sans-Serif" font-size="10.00">default_eval_grad_L</text>
</a>
</g>
</g>
<!-- Node2&#45;&gt;Node3 -->
<g id="edge2_Node000002_Node000003" class="edge">
<title>Node2&#45;&gt;Node3</title>
<g id="a_edge2_Node000002_Node000003"><a xlink:title=" ">
<path fill="none" stroke="#63b8ff" d="M260.02,-157.5C270.81,-157.5 282.07,-157.5 292.96,-157.5"/>
<polygon fill="#63b8ff" stroke="#63b8ff" points="293.27,-161 303.27,-157.5 293.27,-154 293.27,-161"/>
</a>
</g>
</g>
<!-- Node4 -->
<g id="Node000004" class="node">
<title>Node4</title>
<g id="a_Node000004"><a xlink:href="classalpaqa_1_1TypeErasedProblem.html#aba98edc04bad2e0a3ad6645991cd7535" target="_top" xlink:title="[Required] Function that evaluates the gradient of the cost,">
<polygon fill="white" stroke="#666666" points="614,-196.5 462,-196.5 462,-166.5 614,-166.5 614,-196.5"/>
<text text-anchor="start" x="470" y="-184.5" font-family="Helvetica,sans-Serif" font-size="10.00">alpaqa::TypeErasedProblem</text>
<text text-anchor="middle" x="538" y="-173.5" font-family="Helvetica,sans-Serif" font-size="10.00">::eval_grad_f</text>
</a>
</g>
</g>
<!-- Node3&#45;&gt;Node4 -->
<g id="edge3_Node000003_Node000004" class="edge">
<title>Node3&#45;&gt;Node4</title>
<g id="a_edge3_Node000003_Node000004"><a xlink:title=" ">
<path fill="none" stroke="#63b8ff" d="M418.82,-165.29C429.36,-166.74 440.59,-168.28 451.76,-169.81"/>
<polygon fill="#63b8ff" stroke="#63b8ff" points="451.61,-173.32 461.99,-171.21 452.56,-166.39 451.61,-173.32"/>
</a>
</g>
</g>
<!-- Node5 -->
<g id="Node000005" class="node">
<title>Node5</title>
<g id="a_Node000005"><a xlink:href="classalpaqa_1_1TypeErasedProblem.html#a6f4989c25256ca477442ef34ae1c6b7f" target="_top" xlink:title="[Optional] Evaluate both &#160;and .">
<polygon fill="white" stroke="#666666" points="614,-148.5 462,-148.5 462,-118.5 614,-118.5 614,-148.5"/>
<text text-anchor="start" x="470" y="-136.5" font-family="Helvetica,sans-Serif" font-size="10.00">alpaqa::TypeErasedProblem</text>
<text text-anchor="middle" x="538" y="-125.5" font-family="Helvetica,sans-Serif" font-size="10.00">::eval_grad_f_grad_g_prod</text>
</a>
</g>
</g>
<!-- Node3&#45;&gt;Node5 -->
<g id="edge4_Node000003_Node000005" class="edge">
<title>Node3&#45;&gt;Node5</title>
<g id="a_edge4_Node000003_Node000005"><a xlink:title=" ">
<path fill="none" stroke="#63b8ff" d="M418.82,-149.71C429.36,-148.26 440.59,-146.72 451.76,-145.19"/>
<polygon fill="#63b8ff" stroke="#63b8ff" points="452.56,-148.61 461.99,-143.79 451.61,-141.68 452.56,-148.61"/>
</a>
</g>
</g>
<!-- Node9 -->
<g id="Node000009" class="node">
<title>Node9</title>
<g id="a_Node000009"><a xlink:href="namespacealpaqa.html#ab5ac74453b63ae65ae675f0fb385fc32" target="_top" xlink:title=" ">
<polygon fill="white" stroke="#666666" points="426,-56 296,-56 296,-37 426,-37 426,-56"/>
<text text-anchor="middle" x="361" y="-44" font-family="Helvetica,sans-Serif" font-size="10.00">alpaqa::float_to_str_vw</text>
</a>
</g>
</g>
<!-- Node8&#45;&gt;Node9 -->
<g id="edge8_Node000008_Node000009" class="edge">
<title>Node8&#45;&gt;Node9</title>
<g id="a_edge8_Node000008_Node000009"><a xlink:title=" ">
<path fill="none" stroke="#63b8ff" d="M251.28,-46.5C262.31,-46.5 274.09,-46.5 285.68,-46.5"/>
<polygon fill="#63b8ff" stroke="#63b8ff" points="285.79,-50 295.79,-46.5 285.79,-43 285.79,-50"/>
</a>
</g>
</g>
<!-- Node10 -->
<g id="Node000010" class="node">
<title>Node10</title>
<g id="a_Node000010"><a xlink:href="namespacealpaqa.html#a3d355dd7c275da0f2e297743294d582b" target="_top" xlink:title=" ">
<polygon fill="white" stroke="#666666" points="593,-61.5 483,-61.5 483,-31.5 593,-31.5 593,-61.5"/>
<text text-anchor="start" x="491" y="-49.5" font-family="Helvetica,sans-Serif" font-size="10.00">alpaqa::float_to_str</text>
<text text-anchor="middle" x="538" y="-38.5" font-family="Helvetica,sans-Serif" font-size="10.00">_vw_snprintf</text>
</a>
</g>
</g>
<!-- Node9&#45;&gt;Node10 -->
<g id="edge9_Node000009_Node000010" class="edge">
<title>Node9&#45;&gt;Node10</title>
<g id="a_edge9_Node000009_Node000010"><a xlink:title=" ">
<path fill="none" stroke="#63b8ff" d="M426.17,-46.5C441.31,-46.5 457.45,-46.5 472.6,-46.5"/>
<polygon fill="#63b8ff" stroke="#63b8ff" points="472.9,-50 482.9,-46.5 472.9,-43 472.9,-50"/>
</a>
</g>
</g>
</g>
</svg>
