<?xml version="1.0" encoding="UTF-8" standalone="no"?>
<!DOCTYPE svg PUBLIC "-//W3C//DTD SVG 1.1//EN"
 "http://www.w3.org/Graphics/SVG/1.1/DTD/svg11.dtd">
<!-- Generated by graphviz version 2.43.0 (0)
 -->
<!-- Title: Graphical Class Hierarchy Pages: 1 -->
<svg width="374pt" height="101pt"
 viewBox="0.00 0.00 374.00 101.00" xmlns="http://www.w3.org/2000/svg" xmlns:xlink="http://www.w3.org/1999/xlink">
<g id="graph0" class="graph" transform="scale(1 1) rotate(0) translate(4 97)">
<title>Graphical Class Hierarchy</title>
<!-- Node0 -->
<g id="Node000000" class="node">
<title>Node0</title>
<g id="a_Node000000"><a xlink:title=" ">
<polygon fill="#e0e0e0" stroke="#999999" points="83,-56 0,-56 0,-37 83,-37 83,-56"/>
<text text-anchor="middle" x="41.5" y="-44" font-family="Helvetica,sans-Serif" font-size="10.00">runtime_error</text>
</a>
</g>
</g>
<!-- Node1 -->
<g id="Node000001" class="node">
<title>Node1</title>
<g id="a_Node000001"><a xlink:href="structalpaqa_1_1csv_1_1read__error.html" target="_top" xlink:title=" ">
<polygon fill="white" stroke="#666666" points="209,-93 142,-93 142,-74 209,-74 209,-93"/>
<text text-anchor="middle" x="175.5" y="-81" font-family="Helvetica,sans-Serif" font-size="10.00">read_error</text>
</a>
</g>
</g>
<!-- Node0&#45;&gt;Node1 -->
<g id="edge25_Node000000_Node000001" class="edge">
<title>Node0&#45;&gt;Node1</title>
<g id="a_edge25_Node000000_Node000001"><a xlink:title=" ">
<path fill="none" stroke="#63b8ff" d="M86.29,-58.77C104.47,-63.87 125.2,-69.68 141.99,-74.39"/>
<polygon fill="#63b8ff" stroke="#63b8ff" points="87.07,-55.36 76.49,-56.03 85.18,-62.1 87.07,-55.36"/>
</a>
</g>
</g>
<!-- Node2 -->
<g id="Node000002" class="node">
<title>Node2</title>
<g id="a_Node000002"><a xlink:href="structalpaqa_1_1cutest_1_1function__call__error.html" target="_top" xlink:title=" ">
<polygon fill="white" stroke="#666666" points="229,-56 122,-56 122,-37 229,-37 229,-56"/>
<text text-anchor="middle" x="175.5" y="-44" font-family="Helvetica,sans-Serif" font-size="10.00">function_call_error</text>
</a>
</g>
</g>
<!-- Node0&#45;&gt;Node2 -->
<g id="edge26_Node000000_Node000002" class="edge">
<title>Node0&#45;&gt;Node2</title>
<g id="a_edge26_Node000000_Node000002"><a xlink:title=" ">
<path fill="none" stroke="#63b8ff" d="M93.38,-46.5C102.61,-46.5 112.26,-46.5 121.55,-46.5"/>
<polygon fill="#63b8ff" stroke="#63b8ff" points="93.18,-43 83.18,-46.5 93.18,-50 93.18,-43"/>
</a>
</g>
</g>
<!-- Node3 -->
<g id="Node000003" class="node">
<title>Node3</title>
<g id="a_Node000003"><a xlink:href="structalpaqa_1_1util_1_1dynamic__load__error.html" target="_top" xlink:title="Failed to load a DLL or SO file, or failed to access a function in it.">
<polygon fill="white" stroke="#666666" points="232,-19 119,-19 119,0 232,0 232,-19"/>
<text text-anchor="middle" x="175.5" y="-7" font-family="Helvetica,sans-Serif" font-size="10.00">dynamic_load_error</text>
</a>
</g>
</g>
<!-- Node0&#45;&gt;Node3 -->
<g id="edge27_Node000000_Node000003" class="edge">
<title>Node0&#45;&gt;Node3</title>
<g id="a_edge27_Node000000_Node000003"><a xlink:title=" ">
<path fill="none" stroke="#63b8ff" d="M86.47,-34.17C103.96,-29.27 123.77,-23.72 140.16,-19.12"/>
<polygon fill="#63b8ff" stroke="#63b8ff" points="85.18,-30.9 76.49,-36.97 87.07,-37.64 85.18,-30.9"/>
</a>
</g>
</g>
<!-- Node4 -->
<g id="Node000004" class="node">
<title>Node4</title>
<g id="a_Node000004"><a xlink:href="structalpaqa_1_1dl_1_1invalid__abi__error.html" target="_top" xlink:title=" ">
<polygon fill="white" stroke="#666666" points="366,-19 268,-19 268,0 366,0 366,-19"/>
<text text-anchor="middle" x="317" y="-7" font-family="Helvetica,sans-Serif" font-size="10.00">invalid_abi_error</text>
</a>
</g>
</g>
<!-- Node3&#45;&gt;Node4 -->
<g id="edge28_Node000003_Node000004" class="edge">
<title>Node3&#45;&gt;Node4</title>
<g id="a_edge28_Node000003_Node000004"><a xlink:title=" ">
<path fill="none" stroke="#63b8ff" d="M242.14,-9.5C250.81,-9.5 259.56,-9.5 267.86,-9.5"/>
<polygon fill="#63b8ff" stroke="#63b8ff" points="242.03,-6 232.03,-9.5 242.03,-13 242.03,-6"/>
</a>
</g>
</g>
</g>
</svg>
