<?xml version="1.0" encoding="UTF-8" standalone="no"?>
<!DOCTYPE svg PUBLIC "-//W3C//DTD SVG 1.1//EN"
 "http://www.w3.org/Graphics/SVG/1.1/DTD/svg11.dtd">
<!-- Generated by graphviz version 2.43.0 (0)
 -->
<!-- Title: src/alpaqa/include/alpaqa/util/lin&#45;constr&#45;converter.hpp Pages: 1 -->
<svg width="1105pt" height="225pt"
 viewBox="0.00 0.00 1104.50 225.00" xmlns="http://www.w3.org/2000/svg" xmlns:xlink="http://www.w3.org/1999/xlink">
<g id="graph0" class="graph" transform="scale(1 1) rotate(0) translate(4 221)">
<title>src/alpaqa/include/alpaqa/util/lin&#45;constr&#45;converter.hpp</title>
<!-- Node1 -->
<g id="Node000001" class="node">
<title>Node1</title>
<g id="a_Node000001"><a xlink:title=" ">
<polygon fill="#999999" stroke="#666666" points="961.5,-217 841.5,-217 841.5,-176 961.5,-176 961.5,-217"/>
<text text-anchor="start" x="849.5" y="-205" font-family="Helvetica,sans-Serif" font-size="10.00">src/alpaqa/include</text>
<text text-anchor="start" x="849.5" y="-194" font-family="Helvetica,sans-Serif" font-size="10.00">/alpaqa/util/lin&#45;constr</text>
<text text-anchor="middle" x="901.5" y="-183" font-family="Helvetica,sans-Serif" font-size="10.00">&#45;converter.hpp</text>
</a>
</g>
</g>
<!-- Node2 -->
<g id="Node000002" class="node">
<title>Node2</title>
<g id="a_Node000002"><a xlink:href="box_8hpp.html" target="_top" xlink:title=" ">
<polygon fill="white" stroke="#666666" points="607,-140 472,-140 472,-121 607,-121 607,-140"/>
<text text-anchor="middle" x="539.5" y="-128" font-family="Helvetica,sans-Serif" font-size="10.00">alpaqa/problem/box.hpp</text>
</a>
</g>
</g>
<!-- Node1&#45;&gt;Node2 -->
<g id="edge1_Node000001_Node000002" class="edge">
<title>Node1&#45;&gt;Node2</title>
<g id="a_edge1_Node000001_Node000002"><a xlink:title=" ">
<path fill="none" stroke="#63b8ff" d="M841.32,-184.86C773.62,-172.89 664.43,-153.59 597.6,-141.77"/>
<polygon fill="#63b8ff" stroke="#63b8ff" points="598.11,-138.31 587.65,-140.01 596.89,-145.2 598.11,-138.31"/>
</a>
</g>
</g>
<!-- Node13 -->
<g id="Node000013" class="node">
<title>Node13</title>
<g id="a_Node000013"><a xlink:href="sparsity_8hpp.html" target="_top" xlink:title=" ">
<polygon fill="white" stroke="#666666" points="813,-140 658,-140 658,-121 813,-121 813,-140"/>
<text text-anchor="middle" x="735.5" y="-128" font-family="Helvetica,sans-Serif" font-size="10.00">alpaqa/problem/sparsity.hpp</text>
</a>
</g>
</g>
<!-- Node1&#45;&gt;Node13 -->
<g id="edge15_Node000001_Node000013" class="edge">
<title>Node1&#45;&gt;Node13</title>
<g id="a_edge15_Node000001_Node000013"><a xlink:title=" ">
<path fill="none" stroke="#63b8ff" d="M850.79,-175.95C823.59,-165.46 790.92,-152.87 767.31,-143.76"/>
<polygon fill="#63b8ff" stroke="#63b8ff" points="768.37,-140.42 757.79,-140.09 765.86,-146.95 768.37,-140.42"/>
</a>
</g>
</g>
<!-- Node18 -->
<g id="Node000018" class="node">
<title>Node18</title>
<g id="a_Node000018"><a xlink:title=" ">
<polygon fill="#e0e0e0" stroke="#999999" points="895.5,-140 831.5,-140 831.5,-121 895.5,-121 895.5,-140"/>
<text text-anchor="middle" x="863.5" y="-128" font-family="Helvetica,sans-Serif" font-size="10.00">algorithm</text>
</a>
</g>
</g>
<!-- Node1&#45;&gt;Node18 -->
<g id="edge22_Node000001_Node000018" class="edge">
<title>Node1&#45;&gt;Node18</title>
<g id="a_edge22_Node000001_Node000018"><a xlink:title=" ">
<path fill="none" stroke="#63b8ff" d="M889.89,-175.95C884.81,-167.39 878.89,-157.42 873.95,-149.1"/>
<polygon fill="#63b8ff" stroke="#63b8ff" points="876.82,-147.07 868.7,-140.26 870.8,-150.65 876.82,-147.07"/>
</a>
</g>
</g>
<!-- Node19 -->
<g id="Node000019" class="node">
<title>Node19</title>
<g id="a_Node000019"><a xlink:title=" ">
<polygon fill="#e0e0e0" stroke="#999999" points="967,-140 914,-140 914,-121 967,-121 967,-140"/>
<text text-anchor="middle" x="940.5" y="-128" font-family="Helvetica,sans-Serif" font-size="10.00">cstddef</text>
</a>
</g>
</g>
<!-- Node1&#45;&gt;Node19 -->
<g id="edge23_Node000001_Node000019" class="edge">
<title>Node1&#45;&gt;Node19</title>
<g id="a_edge23_Node000001_Node000019"><a xlink:title=" ">
<path fill="none" stroke="#63b8ff" d="M913.41,-175.95C918.69,-167.3 924.84,-157.2 929.94,-148.82"/>
<polygon fill="#63b8ff" stroke="#63b8ff" points="932.95,-150.62 935.16,-140.26 926.97,-146.98 932.95,-150.62"/>
</a>
</g>
</g>
<!-- Node20 -->
<g id="Node000020" class="node">
<title>Node20</title>
<g id="a_Node000020"><a xlink:title=" ">
<polygon fill="#e0e0e0" stroke="#999999" points="1038,-140 985,-140 985,-121 1038,-121 1038,-140"/>
<text text-anchor="middle" x="1011.5" y="-128" font-family="Helvetica,sans-Serif" font-size="10.00">iterator</text>
</a>
</g>
</g>
<!-- Node1&#45;&gt;Node20 -->
<g id="edge24_Node000001_Node000020" class="edge">
<title>Node1&#45;&gt;Node20</title>
<g id="a_edge24_Node000001_Node000020"><a xlink:title=" ">
<path fill="none" stroke="#63b8ff" d="M935.1,-175.95C952.16,-166.03 972.47,-154.21 987.86,-145.25"/>
<polygon fill="#63b8ff" stroke="#63b8ff" points="989.85,-148.15 996.73,-140.09 986.33,-142.1 989.85,-148.15"/>
</a>
</g>
</g>
<!-- Node21 -->
<g id="Node000021" class="node">
<title>Node21</title>
<g id="a_Node000021"><a xlink:title=" ">
<polygon fill="#e0e0e0" stroke="#999999" points="1096.5,-140 1056.5,-140 1056.5,-121 1096.5,-121 1096.5,-140"/>
<text text-anchor="middle" x="1076.5" y="-128" font-family="Helvetica,sans-Serif" font-size="10.00">span</text>
</a>
</g>
</g>
<!-- Node1&#45;&gt;Node21 -->
<g id="edge25_Node000001_Node000021" class="edge">
<title>Node1&#45;&gt;Node21</title>
<g id="a_edge25_Node000001_Node000021"><a xlink:title=" ">
<path fill="none" stroke="#63b8ff" d="M954.96,-175.95C984.99,-164.97 1021.37,-151.66 1046.46,-142.49"/>
<polygon fill="#63b8ff" stroke="#63b8ff" points="1047.95,-145.67 1056.14,-138.95 1045.54,-139.09 1047.95,-145.67"/>
</a>
</g>
</g>
<!-- Node3 -->
<g id="Node000003" class="node">
<title>Node3</title>
<g id="a_Node000003"><a xlink:href="config_8hpp.html" target="_top" xlink:title=" ">
<polygon fill="white" stroke="#666666" points="441,-85 306,-85 306,-66 441,-66 441,-85"/>
<text text-anchor="middle" x="373.5" y="-73" font-family="Helvetica,sans-Serif" font-size="10.00">alpaqa/config/config.hpp</text>
</a>
</g>
</g>
<!-- Node2&#45;&gt;Node3 -->
<g id="edge2_Node000002_Node000003" class="edge">
<title>Node2&#45;&gt;Node3</title>
<g id="a_edge2_Node000002_Node000003"><a xlink:title=" ">
<path fill="none" stroke="#63b8ff" d="M512.83,-120.98C484.96,-112.09 441.05,-98.07 409.98,-88.15"/>
<polygon fill="#63b8ff" stroke="#63b8ff" points="410.97,-84.79 400.38,-85.08 408.84,-91.46 410.97,-84.79"/>
</a>
</g>
</g>
<!-- Node10 -->
<g id="Node000010" class="node">
<title>Node10</title>
<g id="a_Node000010"><a xlink:href="float_8hpp.html" target="_top" xlink:title=" ">
<polygon fill="white" stroke="#666666" points="596.5,-85 482.5,-85 482.5,-66 596.5,-66 596.5,-85"/>
<text text-anchor="middle" x="539.5" y="-73" font-family="Helvetica,sans-Serif" font-size="10.00">alpaqa/util/float.hpp</text>
</a>
</g>
</g>
<!-- Node2&#45;&gt;Node10 -->
<g id="edge9_Node000002_Node000010" class="edge">
<title>Node2&#45;&gt;Node10</title>
<g id="a_edge9_Node000002_Node000010"><a xlink:title=" ">
<path fill="none" stroke="#63b8ff" d="M539.5,-120.75C539.5,-113.8 539.5,-103.85 539.5,-95.13"/>
<polygon fill="#63b8ff" stroke="#63b8ff" points="543,-95.09 539.5,-85.09 536,-95.09 543,-95.09"/>
</a>
</g>
</g>
<!-- Node4 -->
<g id="Node000004" class="node">
<title>Node4</title>
<g id="a_Node000004"><a xlink:href="quadmath-print_8hpp.html" target="_top" xlink:title=" ">
<polygon fill="white" stroke="#666666" points="121,-30 0,-30 0,0 121,0 121,-30"/>
<text text-anchor="start" x="8" y="-18" font-family="Helvetica,sans-Serif" font-size="10.00">alpaqa/util/quadmath</text>
<text text-anchor="middle" x="60.5" y="-7" font-family="Helvetica,sans-Serif" font-size="10.00">/quadmath&#45;print.hpp</text>
</a>
</g>
</g>
<!-- Node3&#45;&gt;Node4 -->
<g id="edge3_Node000003_Node000004" class="edge">
<title>Node3&#45;&gt;Node4</title>
<g id="a_edge3_Node000003_Node000004"><a xlink:title=" ">
<path fill="none" stroke="#63b8ff" d="M325.51,-65.95C278.57,-57.53 204.79,-44.16 131.11,-30.1"/>
<polygon fill="#63b8ff" stroke="#63b8ff" points="131.67,-26.64 121.19,-28.2 130.36,-33.52 131.67,-26.64"/>
</a>
</g>
</g>
<!-- Node5 -->
<g id="Node000005" class="node">
<title>Node5</title>
<g id="a_Node000005"><a xlink:href="quadmath_8hpp.html" target="_top" xlink:title=" ">
<polygon fill="white" stroke="#666666" points="410,-30 289,-30 289,0 410,0 410,-30"/>
<text text-anchor="start" x="297" y="-18" font-family="Helvetica,sans-Serif" font-size="10.00">alpaqa/util/quadmath</text>
<text text-anchor="middle" x="349.5" y="-7" font-family="Helvetica,sans-Serif" font-size="10.00">/quadmath.hpp</text>
</a>
</g>
</g>
<!-- Node3&#45;&gt;Node5 -->
<g id="edge4_Node000003_Node000005" class="edge">
<title>Node3&#45;&gt;Node5</title>
<g id="a_edge4_Node000003_Node000005"><a xlink:title=" ">
<path fill="none" stroke="#63b8ff" d="M369.96,-65.87C367.09,-58.89 362.92,-48.71 359.09,-39.38"/>
<polygon fill="#63b8ff" stroke="#63b8ff" points="362.32,-38.04 355.29,-30.11 355.85,-40.69 362.32,-38.04"/>
</a>
</g>
</g>
<!-- Node6 -->
<g id="Node000006" class="node">
<title>Node6</title>
<g id="a_Node000006"><a xlink:title=" ">
<polygon fill="#e0e0e0" stroke="#999999" points="487,-24.5 428,-24.5 428,-5.5 487,-5.5 487,-24.5"/>
<text text-anchor="middle" x="457.5" y="-12.5" font-family="Helvetica,sans-Serif" font-size="10.00">complex</text>
</a>
</g>
</g>
<!-- Node3&#45;&gt;Node6 -->
<g id="edge5_Node000003_Node000006" class="edge">
<title>Node3&#45;&gt;Node6</title>
<g id="a_edge5_Node000003_Node000006"><a xlink:title=" ">
<path fill="none" stroke="#63b8ff" d="M385.89,-65.87C399.29,-56.54 420.88,-41.51 436.85,-30.38"/>
<polygon fill="#63b8ff" stroke="#63b8ff" points="438.85,-33.25 445.05,-24.67 434.85,-27.51 438.85,-33.25"/>
</a>
</g>
</g>
<!-- Node7 -->
<g id="Node000007" class="node">
<title>Node7</title>
<g id="a_Node000007"><a xlink:title=" ">
<polygon fill="#e0e0e0" stroke="#999999" points="183.5,-24.5 139.5,-24.5 139.5,-5.5 183.5,-5.5 183.5,-24.5"/>
<text text-anchor="middle" x="161.5" y="-12.5" font-family="Helvetica,sans-Serif" font-size="10.00">limits</text>
</a>
</g>
</g>
<!-- Node3&#45;&gt;Node7 -->
<g id="edge6_Node000003_Node000007" class="edge">
<title>Node3&#45;&gt;Node7</title>
<g id="a_edge6_Node000003_Node000007"><a xlink:title=" ">
<path fill="none" stroke="#63b8ff" d="M328.96,-65.93C291.91,-58.24 238.07,-45.74 192.5,-30 191.1,-29.52 189.69,-29 188.26,-28.45"/>
<polygon fill="#63b8ff" stroke="#63b8ff" points="189.55,-25.19 178.98,-24.57 186.85,-31.65 189.55,-25.19"/>
</a>
</g>
</g>
<!-- Node8 -->
<g id="Node000008" class="node">
<title>Node8</title>
<g id="a_Node000008"><a xlink:title=" ">
<polygon fill="#e0e0e0" stroke="#999999" points="574,-24.5 505,-24.5 505,-5.5 574,-5.5 574,-24.5"/>
<text text-anchor="middle" x="539.5" y="-12.5" font-family="Helvetica,sans-Serif" font-size="10.00">type_traits</text>
</a>
</g>
</g>
<!-- Node3&#45;&gt;Node8 -->
<g id="edge7_Node000003_Node000008" class="edge">
<title>Node3&#45;&gt;Node8</title>
<g id="a_edge7_Node000003_Node000008"><a xlink:title=" ">
<path fill="none" stroke="#63b8ff" d="M397.64,-65.99C426.04,-55.99 473.38,-39.3 505.49,-27.99"/>
<polygon fill="#63b8ff" stroke="#63b8ff" points="507.06,-31.14 515.33,-24.52 504.74,-24.54 507.06,-31.14"/>
</a>
</g>
</g>
<!-- Node9 -->
<g id="Node000009" class="node">
<title>Node9</title>
<g id="a_Node000009"><a xlink:title=" ">
<polygon fill="#e0e0e0" stroke="#999999" points="271,-24.5 202,-24.5 202,-5.5 271,-5.5 271,-24.5"/>
<text text-anchor="middle" x="236.5" y="-12.5" font-family="Helvetica,sans-Serif" font-size="10.00">Eigen/Core</text>
</a>
</g>
</g>
<!-- Node3&#45;&gt;Node9 -->
<g id="edge8_Node000003_Node000009" class="edge">
<title>Node3&#45;&gt;Node9</title>
<g id="a_edge8_Node000003_Node000009"><a xlink:title=" ">
<path fill="none" stroke="#63b8ff" d="M353.58,-65.99C330.55,-56.16 292.42,-39.88 265.96,-28.58"/>
<polygon fill="#63b8ff" stroke="#63b8ff" points="267.02,-25.22 256.45,-24.52 264.27,-31.66 267.02,-25.22"/>
</a>
</g>
</g>
<!-- Node10&#45;&gt;Node5 -->
<g id="edge10_Node000010_Node000005" class="edge">
<title>Node10&#45;&gt;Node5</title>
<g id="a_edge10_Node000010_Node000005"><a xlink:title=" ">
<path fill="none" stroke="#63b8ff" d="M511.87,-65.99C483.93,-57.39 439.97,-43.86 404.83,-33.04"/>
<polygon fill="#63b8ff" stroke="#63b8ff" points="405.77,-29.66 395.18,-30.06 403.71,-36.35 405.77,-29.66"/>
</a>
</g>
</g>
<!-- Node10&#45;&gt;Node6 -->
<g id="edge12_Node000010_Node000006" class="edge">
<title>Node10&#45;&gt;Node6</title>
<g id="a_edge12_Node000010_Node000006"><a xlink:title=" ">
<path fill="none" stroke="#63b8ff" d="M527.4,-65.87C514.44,-56.62 493.64,-41.78 478.1,-30.69"/>
<polygon fill="#63b8ff" stroke="#63b8ff" points="479.82,-27.63 469.65,-24.67 475.76,-33.32 479.82,-27.63"/>
</a>
</g>
</g>
<!-- Node10&#45;&gt;Node8 -->
<g id="edge14_Node000010_Node000008" class="edge">
<title>Node10&#45;&gt;Node8</title>
<g id="a_edge14_Node000010_Node000008"><a xlink:title=" ">
<path fill="none" stroke="#63b8ff" d="M539.5,-65.87C539.5,-57.75 539.5,-45.31 539.5,-34.89"/>
<polygon fill="#63b8ff" stroke="#63b8ff" points="543,-34.67 539.5,-24.67 536,-34.67 543,-34.67"/>
</a>
</g>
</g>
<!-- Node11 -->
<g id="Node000011" class="node">
<title>Node11</title>
<g id="a_Node000011"><a xlink:title=" ">
<polygon fill="#e0e0e0" stroke="#999999" points="639,-24.5 592,-24.5 592,-5.5 639,-5.5 639,-24.5"/>
<text text-anchor="middle" x="615.5" y="-12.5" font-family="Helvetica,sans-Serif" font-size="10.00">cmath</text>
</a>
</g>
</g>
<!-- Node10&#45;&gt;Node11 -->
<g id="edge11_Node000010_Node000011" class="edge">
<title>Node10&#45;&gt;Node11</title>
<g id="a_edge11_Node000010_Node000011"><a xlink:title=" ">
<path fill="none" stroke="#63b8ff" d="M550.71,-65.87C562.61,-56.71 581.64,-42.06 596.01,-31.01"/>
<polygon fill="#63b8ff" stroke="#63b8ff" points="598.45,-33.54 604.24,-24.67 594.18,-27.99 598.45,-33.54"/>
</a>
</g>
</g>
<!-- Node12 -->
<g id="Node000012" class="node">
<title>Node12</title>
<g id="a_Node000012"><a xlink:title=" ">
<polygon fill="#e0e0e0" stroke="#999999" points="717.5,-24.5 657.5,-24.5 657.5,-5.5 717.5,-5.5 717.5,-24.5"/>
<text text-anchor="middle" x="687.5" y="-12.5" font-family="Helvetica,sans-Serif" font-size="10.00">concepts</text>
</a>
</g>
</g>
<!-- Node10&#45;&gt;Node12 -->
<g id="edge13_Node000010_Node000012" class="edge">
<title>Node10&#45;&gt;Node12</title>
<g id="a_edge13_Node000010_Node000012"><a xlink:title=" ">
<path fill="none" stroke="#63b8ff" d="M561.02,-65.99C586.12,-56.07 627.82,-39.59 656.43,-28.28"/>
<polygon fill="#63b8ff" stroke="#63b8ff" points="657.94,-31.45 665.95,-24.52 655.37,-24.94 657.94,-31.45"/>
</a>
</g>
</g>
<!-- Node13&#45;&gt;Node3 -->
<g id="edge16_Node000013_Node000003" class="edge">
<title>Node13&#45;&gt;Node3</title>
<g id="a_edge16_Node000013_Node000003"><a xlink:title=" ">
<path fill="none" stroke="#63b8ff" d="M677.34,-120.98C613.18,-111.59 510.03,-96.49 442.01,-86.53"/>
<polygon fill="#63b8ff" stroke="#63b8ff" points="442.22,-83.02 431.82,-85.04 441.2,-89.95 442.22,-83.02"/>
</a>
</g>
</g>
<!-- Node13&#45;&gt;Node12 -->
<g id="edge20_Node000013_Node000012" class="edge">
<title>Node13&#45;&gt;Node12</title>
<g id="a_edge20_Node000013_Node000012"><a xlink:title=" ">
<path fill="none" stroke="#63b8ff" d="M722.94,-120.9C712.47,-112.95 698.22,-100.09 691.5,-85 684.41,-69.08 684.08,-49.03 685.12,-34.65"/>
<polygon fill="#63b8ff" stroke="#63b8ff" points="688.62,-34.82 686.14,-24.52 681.65,-34.11 688.62,-34.82"/>
</a>
</g>
</g>
<!-- Node14 -->
<g id="Node000014" class="node">
<title>Node14</title>
<g id="a_Node000014"><a xlink:href="export_8hpp.html" target="_top" xlink:title=" ">
<polygon fill="white" stroke="#666666" points="805,-85 700,-85 700,-66 805,-66 805,-85"/>
<text text-anchor="middle" x="752.5" y="-73" font-family="Helvetica,sans-Serif" font-size="10.00">alpaqa/export.hpp</text>
</a>
</g>
</g>
<!-- Node13&#45;&gt;Node14 -->
<g id="edge17_Node000013_Node000014" class="edge">
<title>Node13&#45;&gt;Node14</title>
<g id="a_edge17_Node000013_Node000014"><a xlink:title=" ">
<path fill="none" stroke="#63b8ff" d="M738.31,-120.75C740.56,-113.72 743.8,-103.62 746.62,-94.84"/>
<polygon fill="#63b8ff" stroke="#63b8ff" points="750.02,-95.68 749.75,-85.09 743.36,-93.54 750.02,-95.68"/>
</a>
</g>
</g>
<!-- Node16 -->
<g id="Node000016" class="node">
<title>Node16</title>
<g id="a_Node000016"><a xlink:title=" ">
<polygon fill="#e0e0e0" stroke="#999999" points="875.5,-85 823.5,-85 823.5,-66 875.5,-66 875.5,-85"/>
<text text-anchor="middle" x="849.5" y="-73" font-family="Helvetica,sans-Serif" font-size="10.00">cassert</text>
</a>
</g>
</g>
<!-- Node13&#45;&gt;Node16 -->
<g id="edge19_Node000013_Node000016" class="edge">
<title>Node13&#45;&gt;Node16</title>
<g id="a_edge19_Node000013_Node000016"><a xlink:title=" ">
<path fill="none" stroke="#63b8ff" d="M753.82,-120.98C772.16,-112.46 800.61,-99.23 821.73,-89.41"/>
<polygon fill="#63b8ff" stroke="#63b8ff" points="823.26,-92.56 830.85,-85.17 820.31,-86.21 823.26,-92.56"/>
</a>
</g>
</g>
<!-- Node17 -->
<g id="Node000017" class="node">
<title>Node17</title>
<g id="a_Node000017"><a xlink:title=" ">
<polygon fill="#e0e0e0" stroke="#999999" points="945,-85 894,-85 894,-66 945,-66 945,-85"/>
<text text-anchor="middle" x="919.5" y="-73" font-family="Helvetica,sans-Serif" font-size="10.00">variant</text>
</a>
</g>
</g>
<!-- Node13&#45;&gt;Node17 -->
<g id="edge21_Node000013_Node000017" class="edge">
<title>Node13&#45;&gt;Node17</title>
<g id="a_edge21_Node000013_Node000017"><a xlink:title=" ">
<path fill="none" stroke="#63b8ff" d="M765.06,-120.98C797.52,-111.64 849.6,-96.64 884.18,-86.67"/>
<polygon fill="#63b8ff" stroke="#63b8ff" points="885.23,-90.01 893.87,-83.88 883.29,-83.29 885.23,-90.01"/>
</a>
</g>
</g>
<!-- Node15 -->
<g id="Node000015" class="node">
<title>Node15</title>
<g id="a_Node000015"><a xlink:title=" ">
<polygon fill="#e0e0e0" stroke="#999999" points="829,-24.5 736,-24.5 736,-5.5 829,-5.5 829,-24.5"/>
<text text-anchor="middle" x="782.5" y="-12.5" font-family="Helvetica,sans-Serif" font-size="10.00">alpaqa/export.h</text>
</a>
</g>
</g>
<!-- Node14&#45;&gt;Node15 -->
<g id="edge18_Node000014_Node000015" class="edge">
<title>Node14&#45;&gt;Node15</title>
<g id="a_edge18_Node000014_Node000015"><a xlink:title=" ">
<path fill="none" stroke="#63b8ff" d="M756.93,-65.87C761.27,-57.4 768.02,-44.24 773.49,-33.57"/>
<polygon fill="#63b8ff" stroke="#63b8ff" points="776.61,-35.16 778.06,-24.67 770.38,-31.97 776.61,-35.16"/>
</a>
</g>
</g>
</g>
</svg>
