<?xml version="1.0" encoding="UTF-8" standalone="no"?>
<!DOCTYPE svg PUBLIC "-//W3C//DTD SVG 1.1//EN"
 "http://www.w3.org/Graphics/SVG/1.1/DTD/svg11.dtd">
<!-- Generated by graphviz version 2.43.0 (0)
 -->
<!-- Title: CasADiControlFunctionsWithParam&lt; Conf &gt; Pages: 1 -->
<!--zoomable 1196 -->

<svg id="main" version="1.1" xmlns="http://www.w3.org/2000/svg" xmlns:xlink="http://www.w3.org/1999/xlink" xml:space="preserve" onload="init(evt)">
<style type="text/css"><![CDATA[
.node, .edge {opacity: 0.7;}
.node.selected, .edge.selected {opacity: 1;}
.edge:hover path { stroke: red; }
.edge:hover polygon { stroke: red; fill: red; }
]]></style>

<defs>
  <circle id="rim" cx="0" cy="0" r="7"/>
  <circle id="rim2" cx="0" cy="0" r="3.5"/>
  <g id="zoomPlus">
    <use xlink:href="#rim" fill="#404040"><set attributeName="fill" to="#808080" begin="zoomplus.mouseover" end="zoomplus.mouseout"/></use>
    <path d="M-4,0h8M0,-4v8" fill="none" stroke="white" stroke-width="1.5" pointer-events="none"/>
  </g>
  <g id="zoomMin">
    <use xlink:href="#rim" fill="#404040"><set attributeName="fill" to="#808080" begin="zoomminus.mouseover" end="zoomminus.mouseout"/></use>
    <path d="M-4,0h8" fill="none" stroke="white" stroke-width="1.5" pointer-events="none"/>
  </g>
  <g id="arrowUp" transform="translate(30 24)">
    <use xlink:href="#rim"/>
    <path pointer-events="none" fill="none" stroke="white" stroke-width="1.5" d="M0,-3.0v7 M-2.5,-0.5L0,-3.0L2.5,-0.5"/>
  </g>
  <g id="arrowRight" transform="rotate(90) translate(36 -43)">
    <use xlink:href="#rim"/>
    <path pointer-events="none" fill="none" stroke="white" stroke-width="1.5" d="M0,-3.0v7 M-2.5,-0.5L0,-3.0L2.5,-0.5"/>
  </g>
  <g id="arrowDown" transform="rotate(180) translate(-30 -48)">
    <use xlink:href="#rim"/>
    <path pointer-events="none" fill="none" stroke="white" stroke-width="1.5" d="M0,-3.0v7 M-2.5,-0.5L0,-3.0L2.5,-0.5"/>
  </g>
  <g id="arrowLeft" transform="rotate(270) translate(-36 17)">
    <use xlink:href="#rim"/>
    <path pointer-events="none" fill="none" stroke="white" stroke-width="1.5" d="M0,-3.0v7 M-2.5,-0.5L0,-3.0L2.5,-0.5"/>
  </g>
  <g id="resetDef">
    <use xlink:href="#rim2" fill="#404040"><set attributeName="fill" to="#808080" begin="reset.mouseover" end="reset.mouseout"/></use>
  </g>
</defs>
<script type="application/ecmascript">
var viewWidth = 500;
var viewHeight = 1196;
var sectionId = 'dynsection-0';
</script>
<script type="application/ecmascript" xlink:href="svg.min.js"/>
<svg id="graph" class="graph">
<g id="viewport">
<title>CasADiControlFunctionsWithParam&lt; Conf &gt;</title>
<!-- Node1 -->
<g id="Node000001" class="node">
<title>Node1</title>
<g id="a_Node000001"><a xlink:title=" ">
<polygon fill="#999999" stroke="transparent" points="321,-210 171,-210 171,0 321,0 321,-210"/>
<text text-anchor="start" x="176" y="-198" font-family="Helvetica,sans-Serif" font-size="10.00">CasADiControlFunctionsWith</text>
<text text-anchor="start" x="208" y="-187" font-family="Helvetica,sans-Serif" font-size="10.00">Param&lt; Conf &gt;</text>
<text text-anchor="start" x="193.5" y="-172" font-family="Helvetica,sans-Serif" font-size="10.00">+</text>
<text text-anchor="start" x="225" y="-172" font-family="Helvetica,sans-Serif" font-size="10.00">nx</text>
<text text-anchor="start" x="193.5" y="-157" font-family="Helvetica,sans-Serif" font-size="10.00">+</text>
<text text-anchor="start" x="225" y="-157" font-family="Helvetica,sans-Serif" font-size="10.00">nu</text>
<text text-anchor="start" x="193.5" y="-142" font-family="Helvetica,sans-Serif" font-size="10.00">+</text>
<text text-anchor="start" x="225" y="-142" font-family="Helvetica,sans-Serif" font-size="10.00">nh</text>
<text text-anchor="start" x="193.5" y="-127" font-family="Helvetica,sans-Serif" font-size="10.00">+</text>
<text text-anchor="start" x="225" y="-127" font-family="Helvetica,sans-Serif" font-size="10.00">nh_N</text>
<text text-anchor="start" x="193.5" y="-112" font-family="Helvetica,sans-Serif" font-size="10.00">+</text>
<text text-anchor="start" x="225" y="-112" font-family="Helvetica,sans-Serif" font-size="10.00">nc</text>
<text text-anchor="start" x="193.5" y="-97" font-family="Helvetica,sans-Serif" font-size="10.00">+</text>
<text text-anchor="start" x="225" y="-97" font-family="Helvetica,sans-Serif" font-size="10.00">nc_N</text>
<text text-anchor="start" x="193.5" y="-82" font-family="Helvetica,sans-Serif" font-size="10.00">+</text>
<text text-anchor="start" x="225" y="-82" font-family="Helvetica,sans-Serif" font-size="10.00">p</text>
<text text-anchor="start" x="193.5" y="-67" font-family="Helvetica,sans-Serif" font-size="10.00">+</text>
<text text-anchor="start" x="225" y="-67" font-family="Helvetica,sans-Serif" font-size="10.00">jac_f</text>
<text text-anchor="start" x="193.5" y="-52" font-family="Helvetica,sans-Serif" font-size="10.00">+</text>
<text text-anchor="start" x="225" y="-52" font-family="Helvetica,sans-Serif" font-size="10.00">qr</text>
<text text-anchor="start" x="193.5" y="-37" font-family="Helvetica,sans-Serif" font-size="10.00">+</text>
<text text-anchor="start" x="225" y="-37" font-family="Helvetica,sans-Serif" font-size="10.00">q_N</text>
<text text-anchor="start" x="193.5" y="-22" font-family="Helvetica,sans-Serif" font-size="10.00">+</text>
<text text-anchor="start" x="225" y="-22" font-family="Helvetica,sans-Serif" font-size="10.00">WithParam</text>
<text text-anchor="start" x="193.5" y="-7" font-family="Helvetica,sans-Serif" font-size="10.00">+</text>
<text text-anchor="start" x="225" y="-7" font-family="Helvetica,sans-Serif" font-size="10.00">load()</text>
<polygon fill="#666666" stroke="#666666" points="171,-182 171,-182 321,-182 321,-182 171,-182"/>
<polygon fill="#666666" stroke="#666666" points="171,-17 171,-17 223,-17 223,-17 171,-17"/>
<polygon fill="#666666" stroke="#666666" points="223,-17 223,-17 321,-17 321,-17 223,-17"/>
<polygon fill="none" stroke="#666666" points="171,0 171,-210 321,-210 321,0 171,0"/>
</a>
</g>
</g>
<!-- Node2 -->
<g id="Node000002" class="node">
<title>Node2</title>
<g id="a_Node000002"><a xlink:href="classalpaqa_1_1casadi__loader_1_1CasADiFunctionEvaluator.html" target="_top" xlink:title=" ">
<polygon fill="white" stroke="transparent" points="152,-546 0,-546 0,-411 152,-411 152,-546"/>
<text text-anchor="start" x="10.5" y="-533.5" font-family="Helvetica,sans-Serif" font-size="10.00">CasADiFunctionEvaluator</text>
<text text-anchor="start" x="10.5" y="-522.5" font-family="Helvetica,sans-Serif" font-size="10.00">&lt; Conf, 2+WithParam, 1 &gt;</text>
<text text-anchor="start" x="74" y="-507.5" font-family="Helvetica,sans-Serif" font-size="10.00"> </text>
<text text-anchor="start" x="4" y="-492.5" font-family="Helvetica,sans-Serif" font-size="10.00">+</text>
<text text-anchor="start" x="17" y="-492.5" font-family="Helvetica,sans-Serif" font-size="10.00">CasADiFunctionEvaluator()</text>
<text text-anchor="start" x="4" y="-477.5" font-family="Helvetica,sans-Serif" font-size="10.00">+</text>
<text text-anchor="start" x="17" y="-477.5" font-family="Helvetica,sans-Serif" font-size="10.00">CasADiFunctionEvaluator()</text>
<text text-anchor="start" x="4" y="-462.5" font-family="Helvetica,sans-Serif" font-size="10.00">+</text>
<text text-anchor="start" x="17" y="-462.5" font-family="Helvetica,sans-Serif" font-size="10.00">validate_dimensions()</text>
<text text-anchor="start" x="4" y="-447.5" font-family="Helvetica,sans-Serif" font-size="10.00">+</text>
<text text-anchor="start" x="17" y="-447.5" font-family="Helvetica,sans-Serif" font-size="10.00">operator()()</text>
<text text-anchor="start" x="4" y="-432.5" font-family="Helvetica,sans-Serif" font-size="10.00">+</text>
<text text-anchor="start" x="17" y="-432.5" font-family="Helvetica,sans-Serif" font-size="10.00">validate_num_args()</text>
<text text-anchor="start" x="4" y="-417.5" font-family="Helvetica,sans-Serif" font-size="10.00">+</text>
<text text-anchor="start" x="17" y="-417.5" font-family="Helvetica,sans-Serif" font-size="10.00">validate_dimensions()</text>
<polygon fill="#666666" stroke="#666666" points="0,-517.5 0,-517.5 152,-517.5 152,-517.5 0,-517.5"/>
<polygon fill="#666666" stroke="#666666" points="0,-502.5 0,-502.5 152,-502.5 152,-502.5 0,-502.5"/>
<polygon fill="none" stroke="#666666" points="0,-411 0,-546 152,-546 152,-411 0,-411"/>
</a>
</g>
</g>
<!-- Node2&#45;&gt;Node1 -->
<g id="edge1_Node000001_Node000002" class="edge">
<title>Node2&#45;&gt;Node1</title>
<g id="a_edge1_Node000001_Node000002"><a xlink:title=" ">
<path fill="none" stroke="#63b8ff" d="M106.59,-410.65C130.67,-358.04 164.79,-283.46 193.26,-221.26"/>
<polygon fill="none" stroke="#63b8ff" points="193.32,-221.11 192.18,-213.99 198.32,-210.2 199.46,-217.32 193.32,-221.11"/>
</a>
</g>
<text text-anchor="middle" x="211.5" y="-385" font-family="Helvetica,sans-Serif" font-size="10.00" fill="grey"> +Q</text>
<text text-anchor="middle" x="211.5" y="-374" font-family="Helvetica,sans-Serif" font-size="10.00" fill="grey">+Q_N</text>
<text text-anchor="middle" x="211.5" y="-363" font-family="Helvetica,sans-Serif" font-size="10.00" fill="grey">+R</text>
<text text-anchor="middle" x="211.5" y="-352" font-family="Helvetica,sans-Serif" font-size="10.00" fill="grey">+S</text>
<text text-anchor="middle" x="211.5" y="-341" font-family="Helvetica,sans-Serif" font-size="10.00" fill="grey">+f</text>
<text text-anchor="start" x="187" y="-330" font-family="Helvetica,sans-Serif" font-size="10.00" fill="grey">+gn_hess</text>
<text text-anchor="middle" x="211.5" y="-319" font-family="Helvetica,sans-Serif" font-size="10.00" fill="grey">_c</text>
<text text-anchor="start" x="187" y="-308" font-family="Helvetica,sans-Serif" font-size="10.00" fill="grey">+gn_hess</text>
<text text-anchor="middle" x="211.5" y="-297" font-family="Helvetica,sans-Serif" font-size="10.00" fill="grey">_c_N</text>
<text text-anchor="start" x="187" y="-286" font-family="Helvetica,sans-Serif" font-size="10.00" fill="grey">+grad_c</text>
<text text-anchor="middle" x="211.5" y="-275" font-family="Helvetica,sans-Serif" font-size="10.00" fill="grey">_prod</text>
<text text-anchor="start" x="187" y="-264" font-family="Helvetica,sans-Serif" font-size="10.00" fill="grey">+grad_c</text>
<text text-anchor="middle" x="211.5" y="-253" font-family="Helvetica,sans-Serif" font-size="10.00" fill="grey">_prod_N</text>
<text text-anchor="middle" x="211.5" y="-242" font-family="Helvetica,sans-Serif" font-size="10.00" fill="grey">+h</text>
<text text-anchor="middle" x="211.5" y="-231" font-family="Helvetica,sans-Serif" font-size="10.00" fill="grey">...</text>
</g>
<!-- Node3 -->
<g id="Node000003" class="node">
<title>Node3</title>
<g id="a_Node000003"><a xlink:href="classalpaqa_1_1casadi_1_1Function.html" target="_top" xlink:title="Class that loads and calls pre&#45;compiled CasADi functions in a DLL/SO file.">
<polygon fill="white" stroke="transparent" points="290.5,-912 201.5,-912 201.5,-593 290.5,-593 290.5,-912"/>
<text text-anchor="start" x="225.5" y="-899.5" font-family="Helvetica,sans-Serif" font-size="10.00">Function</text>
<text text-anchor="start" x="208.5" y="-884.5" font-family="Helvetica,sans-Serif" font-size="10.00">&#45;</text>
<text text-anchor="start" x="219" y="-884.5" font-family="Helvetica,sans-Serif" font-size="10.00">so_handle</text>
<text text-anchor="start" x="208.5" y="-869.5" font-family="Helvetica,sans-Serif" font-size="10.00">&#45;</text>
<text text-anchor="start" x="219" y="-869.5" font-family="Helvetica,sans-Serif" font-size="10.00">work</text>
<text text-anchor="start" x="208.5" y="-854.5" font-family="Helvetica,sans-Serif" font-size="10.00">&#45;</text>
<text text-anchor="start" x="219" y="-854.5" font-family="Helvetica,sans-Serif" font-size="10.00">mem</text>
<text text-anchor="start" x="206" y="-839.5" font-family="Helvetica,sans-Serif" font-size="10.00">+</text>
<text text-anchor="start" x="219" y="-839.5" font-family="Helvetica,sans-Serif" font-size="10.00">Function()</text>
<text text-anchor="start" x="206" y="-824.5" font-family="Helvetica,sans-Serif" font-size="10.00">+</text>
<text text-anchor="start" x="219" y="-824.5" font-family="Helvetica,sans-Serif" font-size="10.00">Function()</text>
<text text-anchor="start" x="206" y="-809.5" font-family="Helvetica,sans-Serif" font-size="10.00">+</text>
<text text-anchor="start" x="219" y="-809.5" font-family="Helvetica,sans-Serif" font-size="10.00">Function()</text>
<text text-anchor="start" x="206" y="-794.5" font-family="Helvetica,sans-Serif" font-size="10.00">+</text>
<text text-anchor="start" x="219" y="-794.5" font-family="Helvetica,sans-Serif" font-size="10.00">~Function()</text>
<text text-anchor="start" x="206" y="-779.5" font-family="Helvetica,sans-Serif" font-size="10.00">+</text>
<text text-anchor="start" x="219" y="-779.5" font-family="Helvetica,sans-Serif" font-size="10.00">n_in()</text>
<text text-anchor="start" x="206" y="-764.5" font-family="Helvetica,sans-Serif" font-size="10.00">+</text>
<text text-anchor="start" x="219" y="-764.5" font-family="Helvetica,sans-Serif" font-size="10.00">n_out()</text>
<text text-anchor="start" x="206" y="-749.5" font-family="Helvetica,sans-Serif" font-size="10.00">+</text>
<text text-anchor="start" x="219" y="-749.5" font-family="Helvetica,sans-Serif" font-size="10.00">size_in()</text>
<text text-anchor="start" x="206" y="-734.5" font-family="Helvetica,sans-Serif" font-size="10.00">+</text>
<text text-anchor="start" x="219" y="-734.5" font-family="Helvetica,sans-Serif" font-size="10.00">size_out()</text>
<text text-anchor="start" x="206" y="-719.5" font-family="Helvetica,sans-Serif" font-size="10.00">+</text>
<text text-anchor="start" x="219" y="-719.5" font-family="Helvetica,sans-Serif" font-size="10.00">size1_in()</text>
<text text-anchor="start" x="206" y="-704.5" font-family="Helvetica,sans-Serif" font-size="10.00">+</text>
<text text-anchor="start" x="219" y="-704.5" font-family="Helvetica,sans-Serif" font-size="10.00">size1_out()</text>
<text text-anchor="start" x="206" y="-689.5" font-family="Helvetica,sans-Serif" font-size="10.00">+</text>
<text text-anchor="start" x="219" y="-689.5" font-family="Helvetica,sans-Serif" font-size="10.00">size2_in()</text>
<text text-anchor="start" x="206" y="-674.5" font-family="Helvetica,sans-Serif" font-size="10.00">+</text>
<text text-anchor="start" x="219" y="-674.5" font-family="Helvetica,sans-Serif" font-size="10.00">size2_out()</text>
<text text-anchor="start" x="206" y="-659.5" font-family="Helvetica,sans-Serif" font-size="10.00">+</text>
<text text-anchor="start" x="219" y="-659.5" font-family="Helvetica,sans-Serif" font-size="10.00">sparsity_in()</text>
<text text-anchor="start" x="206" y="-644.5" font-family="Helvetica,sans-Serif" font-size="10.00">+</text>
<text text-anchor="start" x="219" y="-644.5" font-family="Helvetica,sans-Serif" font-size="10.00">sparsity_out()</text>
<text text-anchor="start" x="206" y="-629.5" font-family="Helvetica,sans-Serif" font-size="10.00">+</text>
<text text-anchor="start" x="219" y="-629.5" font-family="Helvetica,sans-Serif" font-size="10.00">operator()()</text>
<text text-anchor="start" x="208.5" y="-614.5" font-family="Helvetica,sans-Serif" font-size="10.00">&#45;</text>
<text text-anchor="start" x="219" y="-614.5" font-family="Helvetica,sans-Serif" font-size="10.00">load()</text>
<text text-anchor="start" x="208.5" y="-599.5" font-family="Helvetica,sans-Serif" font-size="10.00">&#45;</text>
<text text-anchor="start" x="219" y="-599.5" font-family="Helvetica,sans-Serif" font-size="10.00">init_work()</text>
<polygon fill="#666666" stroke="#666666" points="202,-894.5 202,-894.5 291,-894.5 291,-894.5 202,-894.5"/>
<polygon fill="#666666" stroke="#666666" points="202,-849.5 202,-849.5 217,-849.5 217,-849.5 202,-849.5"/>
<polygon fill="#666666" stroke="#666666" points="217,-849.5 217,-849.5 291,-849.5 291,-849.5 217,-849.5"/>
<polygon fill="none" stroke="#666666" points="201.5,-593 201.5,-912 290.5,-912 290.5,-593 201.5,-593"/>
</a>
</g>
</g>
<!-- Node3&#45;&gt;Node2 -->
<g id="edge2_Node000002_Node000003" class="edge">
<title>Node3&#45;&gt;Node2</title>
<g id="a_edge2_Node000002_Node000003"><a xlink:title=" ">
<path fill="none" stroke="#63b8ff" d="M201.33,-680.04C177.58,-642.03 148.36,-595.28 124.11,-556.48"/>
<polygon fill="none" stroke="#63b8ff" points="124.1,-556.46 117.53,-553.49 117.74,-546.28 124.31,-549.25 124.1,-556.46"/>
</a>
</g>
<text text-anchor="middle" x="145" y="-567" font-family="Helvetica,sans-Serif" font-size="10.00" fill="grey"> +fun</text>
</g>
<!-- Node5 -->
<g id="Node000005" class="node">
<title>Node5</title>
<g id="a_Node000005"><a xlink:href="classalpaqa_1_1casadi__loader_1_1CasADiFunctionEvaluator.html" target="_top" xlink:title=" ">
<polygon fill="white" stroke="transparent" points="322,-546 170,-546 170,-411 322,-411 322,-546"/>
<text text-anchor="start" x="180.5" y="-533.5" font-family="Helvetica,sans-Serif" font-size="10.00">CasADiFunctionEvaluator</text>
<text text-anchor="start" x="180.5" y="-522.5" font-family="Helvetica,sans-Serif" font-size="10.00">&lt; Conf, 3+WithParam, 1 &gt;</text>
<text text-anchor="start" x="244" y="-507.5" font-family="Helvetica,sans-Serif" font-size="10.00"> </text>
<text text-anchor="start" x="174" y="-492.5" font-family="Helvetica,sans-Serif" font-size="10.00">+</text>
<text text-anchor="start" x="187" y="-492.5" font-family="Helvetica,sans-Serif" font-size="10.00">CasADiFunctionEvaluator()</text>
<text text-anchor="start" x="174" y="-477.5" font-family="Helvetica,sans-Serif" font-size="10.00">+</text>
<text text-anchor="start" x="187" y="-477.5" font-family="Helvetica,sans-Serif" font-size="10.00">CasADiFunctionEvaluator()</text>
<text text-anchor="start" x="174" y="-462.5" font-family="Helvetica,sans-Serif" font-size="10.00">+</text>
<text text-anchor="start" x="187" y="-462.5" font-family="Helvetica,sans-Serif" font-size="10.00">validate_dimensions()</text>
<text text-anchor="start" x="174" y="-447.5" font-family="Helvetica,sans-Serif" font-size="10.00">+</text>
<text text-anchor="start" x="187" y="-447.5" font-family="Helvetica,sans-Serif" font-size="10.00">operator()()</text>
<text text-anchor="start" x="174" y="-432.5" font-family="Helvetica,sans-Serif" font-size="10.00">+</text>
<text text-anchor="start" x="187" y="-432.5" font-family="Helvetica,sans-Serif" font-size="10.00">validate_num_args()</text>
<text text-anchor="start" x="174" y="-417.5" font-family="Helvetica,sans-Serif" font-size="10.00">+</text>
<text text-anchor="start" x="187" y="-417.5" font-family="Helvetica,sans-Serif" font-size="10.00">validate_dimensions()</text>
<polygon fill="#666666" stroke="#666666" points="170,-517.5 170,-517.5 322,-517.5 322,-517.5 170,-517.5"/>
<polygon fill="#666666" stroke="#666666" points="170,-502.5 170,-502.5 322,-502.5 322,-502.5 170,-502.5"/>
<polygon fill="none" stroke="#666666" points="170,-411 170,-546 322,-546 322,-411 170,-411"/>
</a>
</g>
</g>
<!-- Node3&#45;&gt;Node5 -->
<g id="edge5_Node000005_Node000003" class="edge">
<title>Node3&#45;&gt;Node5</title>
<g id="a_edge5_Node000005_Node000003"><a xlink:title=" ">
<path fill="none" stroke="#63b8ff" d="M246,-592.88C246,-581.03 246,-569.41 246,-558.39"/>
<polygon fill="none" stroke="#63b8ff" points="246,-558.24 242,-552.24 246,-546.24 250,-552.24 246,-558.24"/>
</a>
</g>
<text text-anchor="middle" x="260" y="-567" font-family="Helvetica,sans-Serif" font-size="10.00" fill="grey"> +fun</text>
</g>
<!-- Node6 -->
<g id="Node000006" class="node">
<title>Node6</title>
<g id="a_Node000006"><a xlink:href="classalpaqa_1_1casadi__loader_1_1CasADiFunctionEvaluator.html" target="_top" xlink:title=" ">
<polygon fill="white" stroke="transparent" points="492,-546 340,-546 340,-411 492,-411 492,-546"/>
<text text-anchor="start" x="350.5" y="-533.5" font-family="Helvetica,sans-Serif" font-size="10.00">CasADiFunctionEvaluator</text>
<text text-anchor="start" x="350.5" y="-522.5" font-family="Helvetica,sans-Serif" font-size="10.00">&lt; Conf, 1+WithParam, 1 &gt;</text>
<text text-anchor="start" x="414" y="-507.5" font-family="Helvetica,sans-Serif" font-size="10.00"> </text>
<text text-anchor="start" x="344" y="-492.5" font-family="Helvetica,sans-Serif" font-size="10.00">+</text>
<text text-anchor="start" x="357" y="-492.5" font-family="Helvetica,sans-Serif" font-size="10.00">CasADiFunctionEvaluator()</text>
<text text-anchor="start" x="344" y="-477.5" font-family="Helvetica,sans-Serif" font-size="10.00">+</text>
<text text-anchor="start" x="357" y="-477.5" font-family="Helvetica,sans-Serif" font-size="10.00">CasADiFunctionEvaluator()</text>
<text text-anchor="start" x="344" y="-462.5" font-family="Helvetica,sans-Serif" font-size="10.00">+</text>
<text text-anchor="start" x="357" y="-462.5" font-family="Helvetica,sans-Serif" font-size="10.00">validate_dimensions()</text>
<text text-anchor="start" x="344" y="-447.5" font-family="Helvetica,sans-Serif" font-size="10.00">+</text>
<text text-anchor="start" x="357" y="-447.5" font-family="Helvetica,sans-Serif" font-size="10.00">operator()()</text>
<text text-anchor="start" x="344" y="-432.5" font-family="Helvetica,sans-Serif" font-size="10.00">+</text>
<text text-anchor="start" x="357" y="-432.5" font-family="Helvetica,sans-Serif" font-size="10.00">validate_num_args()</text>
<text text-anchor="start" x="344" y="-417.5" font-family="Helvetica,sans-Serif" font-size="10.00">+</text>
<text text-anchor="start" x="357" y="-417.5" font-family="Helvetica,sans-Serif" font-size="10.00">validate_dimensions()</text>
<polygon fill="#666666" stroke="#666666" points="340,-517.5 340,-517.5 492,-517.5 492,-517.5 340,-517.5"/>
<polygon fill="#666666" stroke="#666666" points="340,-502.5 340,-502.5 492,-502.5 492,-502.5 340,-502.5"/>
<polygon fill="none" stroke="#666666" points="340,-411 340,-546 492,-546 492,-411 340,-411"/>
</a>
</g>
</g>
<!-- Node3&#45;&gt;Node6 -->
<g id="edge7_Node000006_Node000003" class="edge">
<title>Node3&#45;&gt;Node6</title>
<g id="a_edge7_Node000006_Node000003"><a xlink:title=" ">
<path fill="none" stroke="#63b8ff" d="M290.67,-680.04C314.42,-642.03 343.64,-595.28 367.89,-556.48"/>
<polygon fill="none" stroke="#63b8ff" points="367.9,-556.46 367.69,-549.25 374.26,-546.28 374.47,-553.49 367.9,-556.46"/>
</a>
</g>
<text text-anchor="middle" x="375" y="-567" font-family="Helvetica,sans-Serif" font-size="10.00" fill="grey"> +fun</text>
</g>
<!-- Node4 -->
<g id="Node000004" class="node">
<title>Node4</title>
<g id="a_Node000004"><a xlink:href="classalpaqa_1_1casadi_1_1Function.html#structalpaqa_1_1casadi_1_1Function_1_1Functions" target="_top" xlink:title=" ">
<polygon fill="white" stroke="transparent" points="287,-1188 205,-1188 205,-959 287,-959 287,-1188"/>
<text text-anchor="start" x="222.5" y="-1175.5" font-family="Helvetica,sans-Serif" font-size="10.00">Functions</text>
<text text-anchor="start" x="209" y="-1160.5" font-family="Helvetica,sans-Serif" font-size="10.00">+</text>
<text text-anchor="start" x="222" y="-1160.5" font-family="Helvetica,sans-Serif" font-size="10.00">incref</text>
<text text-anchor="start" x="209" y="-1145.5" font-family="Helvetica,sans-Serif" font-size="10.00">+</text>
<text text-anchor="start" x="222" y="-1145.5" font-family="Helvetica,sans-Serif" font-size="10.00">decref</text>
<text text-anchor="start" x="209" y="-1130.5" font-family="Helvetica,sans-Serif" font-size="10.00">+</text>
<text text-anchor="start" x="222" y="-1130.5" font-family="Helvetica,sans-Serif" font-size="10.00">n_in</text>
<text text-anchor="start" x="209" y="-1115.5" font-family="Helvetica,sans-Serif" font-size="10.00">+</text>
<text text-anchor="start" x="222" y="-1115.5" font-family="Helvetica,sans-Serif" font-size="10.00">n_out</text>
<text text-anchor="start" x="209" y="-1100.5" font-family="Helvetica,sans-Serif" font-size="10.00">+</text>
<text text-anchor="start" x="222" y="-1100.5" font-family="Helvetica,sans-Serif" font-size="10.00">name_in</text>
<text text-anchor="start" x="209" y="-1085.5" font-family="Helvetica,sans-Serif" font-size="10.00">+</text>
<text text-anchor="start" x="222" y="-1085.5" font-family="Helvetica,sans-Serif" font-size="10.00">name_out</text>
<text text-anchor="start" x="209" y="-1070.5" font-family="Helvetica,sans-Serif" font-size="10.00">+</text>
<text text-anchor="start" x="222" y="-1070.5" font-family="Helvetica,sans-Serif" font-size="10.00">sparsity_in</text>
<text text-anchor="start" x="209" y="-1055.5" font-family="Helvetica,sans-Serif" font-size="10.00">+</text>
<text text-anchor="start" x="222" y="-1055.5" font-family="Helvetica,sans-Serif" font-size="10.00">sparsity_out</text>
<text text-anchor="start" x="209" y="-1040.5" font-family="Helvetica,sans-Serif" font-size="10.00">+</text>
<text text-anchor="start" x="222" y="-1040.5" font-family="Helvetica,sans-Serif" font-size="10.00">alloc_mem</text>
<text text-anchor="start" x="209" y="-1025.5" font-family="Helvetica,sans-Serif" font-size="10.00">+</text>
<text text-anchor="start" x="222" y="-1025.5" font-family="Helvetica,sans-Serif" font-size="10.00">init_mem</text>
<text text-anchor="start" x="209" y="-1010.5" font-family="Helvetica,sans-Serif" font-size="10.00">+</text>
<text text-anchor="start" x="222" y="-1010.5" font-family="Helvetica,sans-Serif" font-size="10.00">free_mem</text>
<text text-anchor="start" x="209" y="-995.5" font-family="Helvetica,sans-Serif" font-size="10.00">+</text>
<text text-anchor="start" x="222" y="-995.5" font-family="Helvetica,sans-Serif" font-size="10.00">work</text>
<text text-anchor="start" x="209" y="-980.5" font-family="Helvetica,sans-Serif" font-size="10.00">+</text>
<text text-anchor="start" x="222" y="-980.5" font-family="Helvetica,sans-Serif" font-size="10.00">call</text>
<text text-anchor="start" x="244" y="-965.5" font-family="Helvetica,sans-Serif" font-size="10.00"> </text>
<polygon fill="#666666" stroke="#666666" points="205,-1170.5 205,-1170.5 287,-1170.5 287,-1170.5 205,-1170.5"/>
<polygon fill="#666666" stroke="#666666" points="205,-975.5 205,-975.5 220,-975.5 220,-975.5 205,-975.5"/>
<polygon fill="#666666" stroke="#666666" points="220,-975.5 220,-975.5 287,-975.5 287,-975.5 220,-975.5"/>
<polygon fill="none" stroke="#666666" points="205,-959 205,-1188 287,-1188 287,-959 205,-959"/>
</a>
</g>
</g>
<!-- Node4&#45;&gt;Node3 -->
<g id="edge3_Node000003_Node000004" class="edge">
<title>Node4&#45;&gt;Node3</title>
<g id="a_edge3_Node000003_Node000004"><a xlink:title=" ">
<path fill="none" stroke="#63b8ff" d="M246,-958.68C246,-947.46 246,-935.91 246,-924.28"/>
<polygon fill="none" stroke="#63b8ff" points="246,-924.14 242,-918.14 246,-912.14 250,-918.14 246,-924.14"/>
</a>
</g>
<text text-anchor="middle" x="272" y="-933" font-family="Helvetica,sans-Serif" font-size="10.00" fill="grey"> &#45;functions</text>
</g>
<!-- Node5&#45;&gt;Node1 -->
<g id="edge4_Node000001_Node000005" class="edge">
<title>Node5&#45;&gt;Node1</title>
<g id="a_edge4_Node000001_Node000005"><a xlink:title=" ">
<path fill="none" stroke="#63b8ff" d="M246,-410.65C246,-358.36 246,-284.39 246,-222.42"/>
<polygon fill="none" stroke="#63b8ff" points="246,-222.2 242,-216.2 246,-210.2 250,-216.2 246,-222.2"/>
</a>
</g>
<text text-anchor="middle" x="281" y="-308" font-family="Helvetica,sans-Serif" font-size="10.00" fill="grey"> +grad_f_prod</text>
</g>
<!-- Node6&#45;&gt;Node1 -->
<g id="edge6_Node000001_Node000006" class="edge">
<title>Node6&#45;&gt;Node1</title>
<g id="a_edge6_Node000001_Node000006"><a xlink:title=" ">
<path fill="none" stroke="#63b8ff" d="M393.95,-410.74C376.23,-359.69 349.5,-288.1 320,-228 318.82,-225.61 317.62,-223.2 316.38,-220.78"/>
<polygon fill="none" stroke="#63b8ff" points="316.38,-220.77 310.05,-217.31 310.81,-210.14 317.14,-213.6 316.38,-220.77"/>
</a>
</g>
<text text-anchor="middle" x="401" y="-330" font-family="Helvetica,sans-Serif" font-size="10.00" fill="grey"> +c</text>
<text text-anchor="middle" x="401" y="-319" font-family="Helvetica,sans-Serif" font-size="10.00" fill="grey">+c_N</text>
<text text-anchor="middle" x="401" y="-308" font-family="Helvetica,sans-Serif" font-size="10.00" fill="grey">+h_N</text>
<text text-anchor="middle" x="401" y="-297" font-family="Helvetica,sans-Serif" font-size="10.00" fill="grey">+l</text>
<text text-anchor="middle" x="401" y="-286" font-family="Helvetica,sans-Serif" font-size="10.00" fill="grey">+l_N</text>
</g>
</g>
</svg>

<g id="navigator" transform="translate(0 0)" fill="#404254">
  <rect fill="#f2f5e9" fill-opacity="0.5" stroke="#606060" stroke-width=".5" x="0" y="0" width="60" height="60"/>
  <use id="zoomplus" xlink:href="#zoomPlus" x="17" y="9" onmousedown="handleZoom(evt,'in')"/>
  <use id="zoomminus" xlink:href="#zoomMin" x="42" y="9" onmousedown="handleZoom(evt,'out')"/>
  <use id="reset" xlink:href="#resetDef" x="30" y="36" onmousedown="handleReset()"/>
   <use id="arrowup" xlink:href="#arrowUp" x="0" y="0" onmousedown="handlePan(0,-1)"/>
  <use id="arrowright" xlink:href="#arrowRight" x="0" y="0" onmousedown="handlePan(1,0)"/>
  <use id="arrowdown" xlink:href="#arrowDown" x="0" y="0" onmousedown="handlePan(0,1)"/>
  <use id="arrowleft" xlink:href="#arrowLeft" x="0" y="0" onmousedown="handlePan(-1,0)"/>
</g>
<svg viewBox="0 0 15 15" width="100%" height="30px" preserveAspectRatio="xMaxYMin meet">
 <g id="arrow_out" transform="scale(0.3 0.3)">
  <a xlink:href="structalpaqa_1_1casadi__loader_1_1CasADiControlFunctionsWithParam__coll__graph_org.svg" target="_base">
   <rect id="button" ry="5" rx="5" y="6" x="6" height="38" width="38"
        fill="#f2f5e9" fill-opacity="0.5" stroke="#606060" stroke-width="1.0"/>
   <path id="arrow"
     d="M 11.500037,31.436501 C 11.940474,20.09759 22.043105,11.32322 32.158766,21.979434 L 37.068811,17.246167 C 37.068811,17.246167 37.088388,32 37.088388,32 L 22.160133,31.978069 C 22.160133,31.978069 26.997745,27.140456 26.997745,27.140456 C 18.528582,18.264221 13.291696,25.230495 11.500037,31.436501 z"
     style="fill:#404040;"/>
  </a>
 </g>
</svg>

<style type='text/css'>
<![CDATA[
[data-mouse-over-selected='false'] { opacity: 0.7; }
[data-mouse-over-selected='true']  { opacity: 1.0; }
]]>
</style>
<script type="application/ecmascript"><![CDATA[
document.addEventListener('DOMContentLoaded', (event) => {
  highlightEdges();
  highlightAdjacentNodes();
});
]]></script>
</svg>
