<?xml version="1.0" encoding="UTF-8" standalone="no"?>
<!DOCTYPE svg PUBLIC "-//W3C//DTD SVG 1.1//EN"
 "http://www.w3.org/Graphics/SVG/1.1/DTD/svg11.dtd">
<!-- Generated by graphviz version 2.43.0 (0)
 -->
<!-- Title: is_bound Pages: 1 -->
<svg width="164pt" height="64pt"
 viewBox="0.00 0.00 164.00 64.00" xmlns="http://www.w3.org/2000/svg" xmlns:xlink="http://www.w3.org/1999/xlink">
<g id="graph0" class="graph" transform="scale(1 1) rotate(0) translate(4 60)">
<title>is_bound</title>
<!-- Node1 -->
<g id="Node000001" class="node">
<title>Node1</title>
<g id="a_Node000001"><a xlink:title=" ">
<polygon fill="#999999" stroke="#666666" points="60,-37 0,-37 0,-18 60,-18 60,-37"/>
<text text-anchor="middle" x="30" y="-25" font-family="Helvetica,sans-Serif" font-size="10.00">is_bound</text>
</a>
</g>
</g>
<!-- Node2 -->
<g id="Node000002" class="node">
<title>Node2</title>
<g id="a_Node000002"><a xlink:href="structalpaqa_1_1LinConstrConverter.html#aa7668b0df53654f4f6681905b9f49453" target="_top" xlink:title="Check if the variable with the given index has bound constraints, i.e.">
<polygon fill="white" stroke="#666666" points="156,-56 96,-56 96,-37 156,-37 156,-56"/>
<text text-anchor="middle" x="126" y="-44" font-family="Helvetica,sans-Serif" font-size="10.00">is_bound</text>
</a>
</g>
</g>
<!-- Node1&#45;&gt;Node2 -->
<g id="edge1_Node000001_Node000002" class="edge">
<title>Node1&#45;&gt;Node2</title>
<g id="a_edge1_Node000001_Node000002"><a xlink:title=" ">
<path fill="none" stroke="#63b8ff" d="M60.23,-33.41C68.36,-35.05 77.33,-36.86 85.93,-38.6"/>
<polygon fill="#63b8ff" stroke="#63b8ff" points="85.3,-42.05 95.79,-40.6 86.68,-35.18 85.3,-42.05"/>
</a>
</g>
</g>
<!-- Node3 -->
<g id="Node000003" class="node">
<title>Node3</title>
<g id="a_Node000003"><a xlink:href="structalpaqa_1_1LinConstrConverter.html#ae35a83e95a5485a85e308b70499633d7" target="_top" xlink:title=" ">
<polygon fill="white" stroke="#666666" points="153.5,-19 98.5,-19 98.5,0 153.5,0 153.5,-19"/>
<text text-anchor="middle" x="126" y="-7" font-family="Helvetica,sans-Serif" font-size="10.00">to_span</text>
</a>
</g>
</g>
<!-- Node1&#45;&gt;Node3 -->
<g id="edge2_Node000001_Node000003" class="edge">
<title>Node1&#45;&gt;Node3</title>
<g id="a_edge2_Node000001_Node000003"><a xlink:title=" ">
<path fill="none" stroke="#63b8ff" d="M60.23,-21.9C69.17,-20.19 79.12,-18.28 88.49,-16.49"/>
<polygon fill="#63b8ff" stroke="#63b8ff" points="89.18,-19.92 98.35,-14.6 87.87,-13.05 89.18,-19.92"/>
</a>
</g>
</g>
</g>
</svg>
