<?xml version="1.0" encoding="UTF-8" standalone="no"?>
<!DOCTYPE svg PUBLIC "-//W3C//DTD SVG 1.1//EN"
 "http://www.w3.org/Graphics/SVG/1.1/DTD/svg11.dtd">
<!-- Generated by graphviz version 2.43.0 (0)
 -->
<!-- Title: RootOpts Pages: 1 -->
<svg width="246pt" height="279pt"
 viewBox="0.00 0.00 246.00 279.00" xmlns="http://www.w3.org/2000/svg" xmlns:xlink="http://www.w3.org/1999/xlink">

<svg id="main" version="1.1" xmlns="http://www.w3.org/2000/svg" xmlns:xlink="http://www.w3.org/1999/xlink" xml:space="preserve" onload="init(evt)">
<style type="text/css"><![CDATA[
.node, .edge {opacity: 0.7;}
.node.selected, .edge.selected {opacity: 1;}
.edge:hover path { stroke: red; }
.edge:hover polygon { stroke: red; fill: red; }
]]></style>
<script type="application/ecmascript" xlink:href="svg.min.js"/>
<svg id="graph" class="graph">
<g id="graph0" class="graph" transform="scale(1 1) rotate(0) translate(4 275)">
<title>RootOpts</title>
<!-- Node1 -->
<g id="Node000001" class="node">
<title>Node1</title>
<g id="a_Node000001"><a xlink:title=" ">
<polygon fill="#999999" stroke="transparent" points="135.5,-64 56.5,-64 56.5,0 135.5,0 135.5,-64"/>
<text text-anchor="start" x="73.5" y="-52" font-family="Helvetica,sans-Serif" font-size="10.00">RootOpts</text>
<text text-anchor="start" x="61" y="-37" font-family="Helvetica,sans-Serif" font-size="10.00">+</text>
<text text-anchor="start" x="74" y="-37" font-family="Helvetica,sans-Serif" font-size="10.00">extra_stats</text>
<text text-anchor="start" x="61" y="-22" font-family="Helvetica,sans-Serif" font-size="10.00">+</text>
<text text-anchor="start" x="74" y="-22" font-family="Helvetica,sans-Serif" font-size="10.00">show_funcs</text>
<text text-anchor="start" x="94.5" y="-7" font-family="Helvetica,sans-Serif" font-size="10.00"> </text>
<polygon fill="#666666" stroke="#666666" points="57,-47 57,-47 136,-47 136,-47 57,-47"/>
<polygon fill="#666666" stroke="#666666" points="57,-17 57,-17 72,-17 72,-17 57,-17"/>
<polygon fill="#666666" stroke="#666666" points="72,-17 72,-17 136,-17 136,-17 72,-17"/>
<polygon fill="none" stroke="#666666" points="56.5,0 56.5,-64 135.5,-64 135.5,0 56.5,0"/>
</a>
</g>
</g>
<!-- Node2 -->
<g id="Node000002" class="node">
<title>Node2</title>
<g id="a_Node000002"><a xlink:href="namespacealpaqa_1_1params.html#structalpaqa_1_1params_1_1Value" target="_top" xlink:title=" ">
<polygon fill="white" stroke="transparent" points="38,-248.5 0,-248.5 0,-199.5 38,-199.5 38,-248.5"/>
<text text-anchor="start" x="5" y="-236" font-family="Helvetica,sans-Serif" font-size="10.00">Value</text>
<text text-anchor="start" x="17" y="-221" font-family="Helvetica,sans-Serif" font-size="10.00"> </text>
<text text-anchor="start" x="17" y="-206" font-family="Helvetica,sans-Serif" font-size="10.00"> </text>
<polygon fill="#666666" stroke="#666666" points="0,-231 0,-231 38,-231 38,-231 0,-231"/>
<polygon fill="#666666" stroke="#666666" points="0,-216 0,-216 38,-216 38,-216 0,-216"/>
<polygon fill="none" stroke="#666666" points="0,-199.5 0,-248.5 38,-248.5 38,-199.5 0,-199.5"/>
</a>
</g>
</g>
<!-- Node2&#45;&gt;Node1 -->
<g id="edge1_Node000001_Node000002" class="edge">
<title>Node2&#45;&gt;Node1</title>
<g id="a_edge1_Node000001_Node000002"><a xlink:title=" ">
<path fill="none" stroke="#63b8ff" d="M17.2,-199.45C16.02,-170.1 17.57,-119.25 38,-82 40.64,-77.19 43.95,-72.65 47.65,-68.41"/>
<polygon fill="none" stroke="#63b8ff" points="47.85,-68.22 49.2,-61.13 56.26,-59.66 54.9,-66.74 47.85,-68.22"/>
</a>
</g>
<text text-anchor="middle" x="65" y="-151" font-family="Helvetica,sans-Serif" font-size="10.00" fill="grey"> +method</text>
<text text-anchor="middle" x="65" y="-140" font-family="Helvetica,sans-Serif" font-size="10.00" fill="grey">+mul_g0</text>
<text text-anchor="middle" x="65" y="-129" font-family="Helvetica,sans-Serif" font-size="10.00" fill="grey">+mul_x0</text>
<text text-anchor="middle" x="65" y="-118" font-family="Helvetica,sans-Serif" font-size="10.00" fill="grey">+num_exp</text>
<text text-anchor="middle" x="65" y="-107" font-family="Helvetica,sans-Serif" font-size="10.00" fill="grey">+out</text>
<text text-anchor="middle" x="65" y="-96" font-family="Helvetica,sans-Serif" font-size="10.00" fill="grey">+sol</text>
<text text-anchor="middle" x="65" y="-85" font-family="Helvetica,sans-Serif" font-size="10.00" fill="grey">+x0</text>
</g>
<!-- Node3 -->
<g id="Node000003" class="node">
<title>Node3</title>
<g id="a_Node000003"><a xlink:href="namespacealpaqa_1_1params.html#structalpaqa_1_1params_1_1Struct" target="_top" xlink:title=" ">
<polygon fill="white" stroke="transparent" points="115.5,-248.5 76.5,-248.5 76.5,-199.5 115.5,-199.5 115.5,-248.5"/>
<text text-anchor="start" x="82" y="-236" font-family="Helvetica,sans-Serif" font-size="10.00">Struct</text>
<text text-anchor="start" x="94.5" y="-221" font-family="Helvetica,sans-Serif" font-size="10.00"> </text>
<text text-anchor="start" x="94.5" y="-206" font-family="Helvetica,sans-Serif" font-size="10.00"> </text>
<polygon fill="#666666" stroke="#666666" points="77,-231 77,-231 116,-231 116,-231 77,-231"/>
<polygon fill="#666666" stroke="#666666" points="77,-216 77,-216 116,-216 116,-216 77,-216"/>
<polygon fill="none" stroke="#666666" points="76.5,-199.5 76.5,-248.5 115.5,-248.5 115.5,-199.5 76.5,-199.5"/>
</a>
</g>
</g>
<!-- Node3&#45;&gt;Node1 -->
<g id="edge2_Node000001_Node000003" class="edge">
<title>Node3&#45;&gt;Node1</title>
<g id="a_edge2_Node000001_Node000003"><a xlink:title=" ">
<path fill="none" stroke="#63b8ff" d="M96,-199.32C96,-168.66 96,-114.66 96,-76.52"/>
<polygon fill="none" stroke="#63b8ff" points="96,-76.25 92,-70.25 96,-64.25 100,-70.25 96,-76.25"/>
</a>
</g>
<text text-anchor="middle" x="122" y="-118" font-family="Helvetica,sans-Serif" font-size="10.00" fill="grey"> +problem</text>
</g>
<!-- Node4 -->
<g id="Node000004" class="node">
<title>Node4</title>
<g id="a_Node000004"><a xlink:href="structalpaqa_1_1DynamicLoadFlags.html" target="_top" xlink:title="Flags to be passed to dlopen.">
<polygon fill="white" stroke="transparent" points="238,-271 134,-271 134,-177 238,-177 238,-271"/>
<text text-anchor="start" x="139" y="-259" font-family="Helvetica,sans-Serif" font-size="10.00">DynamicLoadFlags</text>
<text text-anchor="start" x="142.5" y="-244" font-family="Helvetica,sans-Serif" font-size="10.00">+</text>
<text text-anchor="start" x="160" y="-244" font-family="Helvetica,sans-Serif" font-size="10.00">global</text>
<text text-anchor="start" x="142.5" y="-229" font-family="Helvetica,sans-Serif" font-size="10.00">+</text>
<text text-anchor="start" x="160" y="-229" font-family="Helvetica,sans-Serif" font-size="10.00">lazy</text>
<text text-anchor="start" x="142.5" y="-214" font-family="Helvetica,sans-Serif" font-size="10.00">+</text>
<text text-anchor="start" x="160" y="-214" font-family="Helvetica,sans-Serif" font-size="10.00">nodelete</text>
<text text-anchor="start" x="142.5" y="-199" font-family="Helvetica,sans-Serif" font-size="10.00">+</text>
<text text-anchor="start" x="160" y="-199" font-family="Helvetica,sans-Serif" font-size="10.00">deepbind</text>
<text text-anchor="start" x="142.5" y="-184" font-family="Helvetica,sans-Serif" font-size="10.00">+</text>
<text text-anchor="start" x="160" y="-184" font-family="Helvetica,sans-Serif" font-size="10.00">operator int()</text>
<polygon fill="#666666" stroke="#666666" points="134,-254 134,-254 238,-254 238,-254 134,-254"/>
<polygon fill="#666666" stroke="#666666" points="134,-194 134,-194 158,-194 158,-194 134,-194"/>
<polygon fill="#666666" stroke="#666666" points="158,-194 158,-194 238,-194 238,-194 158,-194"/>
<polygon fill="none" stroke="#666666" points="134,-177 134,-271 238,-271 238,-177 134,-177"/>
</a>
</g>
</g>
<!-- Node4&#45;&gt;Node1 -->
<g id="edge3_Node000001_Node000004" class="edge">
<title>Node4&#45;&gt;Node1</title>
<g id="a_edge3_Node000001_Node000004"><a xlink:title=" ">
<path fill="none" stroke="#63b8ff" d="M182.05,-176.8C177.91,-147.87 169.41,-110.76 152,-82 149.69,-78.18 146.98,-74.51 144.03,-71"/>
<polygon fill="none" stroke="#63b8ff" points="143.94,-70.9 136.92,-69.25 135.74,-62.13 142.76,-63.78 143.94,-70.9"/>
</a>
</g>
<text text-anchor="middle" x="202.5" y="-118" font-family="Helvetica,sans-Serif" font-size="10.00" fill="grey"> +dl_flags</text>
</g>
</g>
</svg>
</svg>

<style type='text/css'>
<![CDATA[
[data-mouse-over-selected='false'] { opacity: 0.7; }
[data-mouse-over-selected='true']  { opacity: 1.0; }
]]>
</style>
<script type="application/ecmascript"><![CDATA[
document.addEventListener('DOMContentLoaded', (event) => {
  highlightEdges();
  highlightAdjacentNodes();
});
]]></script>
</svg>
