<?xml version="1.0" encoding="UTF-8" standalone="no"?>
<!DOCTYPE svg PUBLIC "-//W3C//DTD SVG 1.1//EN"
 "http://www.w3.org/Graphics/SVG/1.1/DTD/svg11.dtd">
<!-- Generated by graphviz version 2.43.0 (0)
 -->
<!-- Title: src/interop/casadi/src/casadi&#45;external&#45;function.cpp Pages: 1 -->
<svg width="826pt" height="291pt"
 viewBox="0.00 0.00 826.37 291.00" xmlns="http://www.w3.org/2000/svg" xmlns:xlink="http://www.w3.org/1999/xlink">
<g id="graph0" class="graph" transform="scale(1 1) rotate(0) translate(4 287)">
<title>src/interop/casadi/src/casadi&#45;external&#45;function.cpp</title>
<!-- Node1 -->
<g id="Node000001" class="node">
<title>Node1</title>
<g id="a_Node000001"><a xlink:title=" ">
<polygon fill="#999999" stroke="#666666" points="569,-283 456,-283 456,-242 569,-242 569,-283"/>
<text text-anchor="start" x="464" y="-271" font-family="Helvetica,sans-Serif" font-size="10.00">src/interop/casadi</text>
<text text-anchor="start" x="464" y="-260" font-family="Helvetica,sans-Serif" font-size="10.00">/src/casadi&#45;external</text>
<text text-anchor="middle" x="512.5" y="-249" font-family="Helvetica,sans-Serif" font-size="10.00">&#45;function.cpp</text>
</a>
</g>
</g>
<!-- Node2 -->
<g id="Node000002" class="node">
<title>Node2</title>
<g id="a_Node000002"><a xlink:href="casadi-external-function_8hpp.html" target="_top" xlink:title=" ">
<polygon fill="white" stroke="#666666" points="575,-206 450,-206 450,-176 575,-176 575,-206"/>
<text text-anchor="start" x="458" y="-194" font-family="Helvetica,sans-Serif" font-size="10.00">alpaqa/casadi/casadi</text>
<text text-anchor="middle" x="512.5" y="-183" font-family="Helvetica,sans-Serif" font-size="10.00">&#45;external&#45;function.hpp</text>
</a>
</g>
</g>
<!-- Node1&#45;&gt;Node2 -->
<g id="edge1_Node000001_Node000002" class="edge">
<title>Node1&#45;&gt;Node2</title>
<g id="a_edge1_Node000001_Node000002"><a xlink:title=" ">
<path fill="none" stroke="#63b8ff" d="M512.5,-241.77C512.5,-233.85 512.5,-224.63 512.5,-216.3"/>
<polygon fill="#63b8ff" stroke="#63b8ff" points="516,-216.04 512.5,-206.04 509,-216.04 516,-216.04"/>
</a>
</g>
</g>
<!-- Node5 -->
<g id="Node000005" class="node">
<title>Node5</title>
<g id="a_Node000005"><a xlink:href="casadi-namespace_8hpp.html" target="_top" xlink:title=" ">
<polygon fill="white" stroke="#666666" points="691,-19 562,-19 562,0 691,0 691,-19"/>
<text text-anchor="middle" x="626.5" y="-7" font-family="Helvetica,sans-Serif" font-size="10.00">casadi&#45;namespace.hpp</text>
</a>
</g>
</g>
<!-- Node1&#45;&gt;Node5 -->
<g id="edge24_Node000001_Node000005" class="edge">
<title>Node1&#45;&gt;Node5</title>
<g id="a_edge24_Node000001_Node000005"><a xlink:title=" ">
<path fill="none" stroke="#63b8ff" d="M569.28,-256.66C639.37,-247.29 755.86,-219.9 809.5,-140 849.17,-80.91 738.79,-40.16 672.49,-21.7"/>
<polygon fill="#63b8ff" stroke="#63b8ff" points="673.22,-18.27 662.65,-19.03 671.39,-25.03 673.22,-18.27"/>
</a>
</g>
</g>
<!-- Node10 -->
<g id="Node000010" class="node">
<title>Node10</title>
<g id="a_Node000010"><a xlink:href="dl_8hpp.html" target="_top" xlink:title=" ">
<polygon fill="white" stroke="#666666" points="238,-74 137,-74 137,-55 238,-55 238,-74"/>
<text text-anchor="middle" x="187.5" y="-62" font-family="Helvetica,sans-Serif" font-size="10.00">alpaqa/util/dl.hpp</text>
</a>
</g>
</g>
<!-- Node1&#45;&gt;Node10 -->
<g id="edge25_Node000001_Node000010" class="edge">
<title>Node1&#45;&gt;Node10</title>
<g id="a_edge25_Node000001_Node000010"><a xlink:title=" ">
<path fill="none" stroke="#63b8ff" d="M455.67,-252.19C357.4,-234.8 162.38,-194.19 122.5,-140 114.6,-129.26 116.28,-121.79 122.5,-110 129.74,-96.27 143.33,-85.97 156.22,-78.76"/>
<polygon fill="#63b8ff" stroke="#63b8ff" points="158.09,-81.73 165.38,-74.05 154.89,-75.51 158.09,-81.73"/>
</a>
</g>
</g>
<!-- Node3 -->
<g id="Node000003" class="node">
<title>Node3</title>
<g id="a_Node000003"><a xlink:title=" ">
<polygon fill="#e0e0e0" stroke="#999999" points="316,-140 197,-140 197,-110 316,-110 316,-140"/>
<text text-anchor="start" x="205" y="-128" font-family="Helvetica,sans-Serif" font-size="10.00">alpaqa/casadi&#45;loader</text>
<text text-anchor="middle" x="256.5" y="-117" font-family="Helvetica,sans-Serif" font-size="10.00">&#45;export.h</text>
</a>
</g>
</g>
<!-- Node2&#45;&gt;Node3 -->
<g id="edge2_Node000002_Node000003" class="edge">
<title>Node2&#45;&gt;Node3</title>
<g id="a_edge2_Node000002_Node000003"><a xlink:title=" ">
<path fill="none" stroke="#63b8ff" d="M456.32,-175.95C416.8,-166.08 363.79,-152.82 322.29,-142.45"/>
<polygon fill="#63b8ff" stroke="#63b8ff" points="323.1,-139.04 312.55,-140.01 321.4,-145.83 323.1,-139.04"/>
</a>
</g>
</g>
<!-- Node4 -->
<g id="Node000004" class="node">
<title>Node4</title>
<g id="a_Node000004"><a xlink:href="casadi-functions_8hpp.html" target="_top" xlink:title=" ">
<polygon fill="white" stroke="#666666" points="528.5,-134.5 410.5,-134.5 410.5,-115.5 528.5,-115.5 528.5,-134.5"/>
<text text-anchor="middle" x="469.5" y="-122.5" font-family="Helvetica,sans-Serif" font-size="10.00">casadi&#45;functions.hpp</text>
</a>
</g>
</g>
<!-- Node2&#45;&gt;Node4 -->
<g id="edge3_Node000002_Node000004" class="edge">
<title>Node2&#45;&gt;Node4</title>
<g id="a_edge3_Node000002_Node000004"><a xlink:title=" ">
<path fill="none" stroke="#63b8ff" d="M502.96,-175.8C496.52,-166.21 487.98,-153.5 481.14,-143.32"/>
<polygon fill="#63b8ff" stroke="#63b8ff" points="483.92,-141.19 475.44,-134.84 478.11,-145.1 483.92,-141.19"/>
</a>
</g>
</g>
<!-- Node2&#45;&gt;Node5 -->
<g id="edge16_Node000002_Node000005" class="edge">
<title>Node2&#45;&gt;Node5</title>
<g id="a_edge16_Node000002_Node000005"><a xlink:title=" ">
<path fill="none" stroke="#63b8ff" d="M521.45,-175.91C542.08,-143.43 592.94,-63.34 615.46,-27.88"/>
<polygon fill="#63b8ff" stroke="#63b8ff" points="618.61,-29.45 621.02,-19.13 612.7,-25.7 618.61,-29.45"/>
</a>
</g>
</g>
<!-- Node13 -->
<g id="Node000013" class="node">
<title>Node13</title>
<g id="a_Node000013"><a xlink:title=" ">
<polygon fill="#e0e0e0" stroke="#999999" points="339.5,-19 281.5,-19 281.5,0 339.5,0 339.5,-19"/>
<text text-anchor="middle" x="310.5" y="-7" font-family="Helvetica,sans-Serif" font-size="10.00">memory</text>
</a>
</g>
</g>
<!-- Node2&#45;&gt;Node13 -->
<g id="edge18_Node000002_Node000013" class="edge">
<title>Node2&#45;&gt;Node13</title>
<g id="a_edge18_Node000002_Node000013"><a xlink:title=" ">
<path fill="none" stroke="#63b8ff" d="M463.17,-175.97C442.21,-168.08 418.69,-156.43 401.5,-140 370.9,-110.75 383.98,-88.81 358.5,-55 350.25,-44.05 339.11,-33.54 329.64,-25.48"/>
<polygon fill="#63b8ff" stroke="#63b8ff" points="331.81,-22.73 321.87,-19.08 327.37,-28.14 331.81,-22.73"/>
</a>
</g>
</g>
<!-- Node14 -->
<g id="Node000014" class="node">
<title>Node14</title>
<g id="a_Node000014"><a xlink:title=" ">
<polygon fill="#e0e0e0" stroke="#999999" points="263,-19 198,-19 198,0 263,0 263,-19"/>
<text text-anchor="middle" x="230.5" y="-7" font-family="Helvetica,sans-Serif" font-size="10.00">stdexcept</text>
</a>
</g>
</g>
<!-- Node2&#45;&gt;Node14 -->
<g id="edge21_Node000002_Node000014" class="edge">
<title>Node2&#45;&gt;Node14</title>
<g id="a_edge21_Node000002_Node000014"><a xlink:title=" ">
<path fill="none" stroke="#63b8ff" d="M461.45,-175.99C435.3,-167.63 403.57,-155.57 377.5,-140 322.99,-107.44 269.81,-53.5 245,-26.68"/>
<polygon fill="#63b8ff" stroke="#63b8ff" points="247.58,-24.3 238.25,-19.28 242.41,-29.02 247.58,-24.3"/>
</a>
</g>
</g>
<!-- Node15 -->
<g id="Node000015" class="node">
<title>Node15</title>
<g id="a_Node000015"><a xlink:title=" ">
<polygon fill="#e0e0e0" stroke="#999999" points="675.5,-74 623.5,-74 623.5,-55 675.5,-55 675.5,-74"/>
<text text-anchor="middle" x="649.5" y="-62" font-family="Helvetica,sans-Serif" font-size="10.00">cassert</text>
</a>
</g>
</g>
<!-- Node2&#45;&gt;Node15 -->
<g id="edge17_Node000002_Node000015" class="edge">
<title>Node2&#45;&gt;Node15</title>
<g id="a_edge17_Node000002_Node000015"><a xlink:title=" ">
<path fill="none" stroke="#63b8ff" d="M575.14,-183.17C602.7,-176.7 632.59,-164.17 649.5,-140 660.82,-123.81 658.64,-100.42 655.03,-84.18"/>
<polygon fill="#63b8ff" stroke="#63b8ff" points="658.35,-83.06 652.45,-74.26 651.58,-84.82 658.35,-83.06"/>
</a>
</g>
</g>
<!-- Node16 -->
<g id="Node000016" class="node">
<title>Node16</title>
<g id="a_Node000016"><a xlink:title=" ">
<polygon fill="#e0e0e0" stroke="#999999" points="640.5,-134.5 584.5,-134.5 584.5,-115.5 640.5,-115.5 640.5,-134.5"/>
<text text-anchor="middle" x="612.5" y="-122.5" font-family="Helvetica,sans-Serif" font-size="10.00">optional</text>
</a>
</g>
</g>
<!-- Node2&#45;&gt;Node16 -->
<g id="edge19_Node000002_Node000016" class="edge">
<title>Node2&#45;&gt;Node16</title>
<g id="a_edge19_Node000002_Node000016"><a xlink:title=" ">
<path fill="none" stroke="#63b8ff" d="M534.69,-175.8C551.3,-165.17 573.9,-150.7 590.47,-140.1"/>
<polygon fill="#63b8ff" stroke="#63b8ff" points="592.44,-143 598.97,-134.66 588.66,-137.1 592.44,-143"/>
</a>
</g>
</g>
<!-- Node17 -->
<g id="Node000017" class="node">
<title>Node17</title>
<g id="a_Node000017"><a xlink:title=" ">
<polygon fill="#e0e0e0" stroke="#999999" points="736.5,-134.5 696.5,-134.5 696.5,-115.5 736.5,-115.5 736.5,-134.5"/>
<text text-anchor="middle" x="716.5" y="-122.5" font-family="Helvetica,sans-Serif" font-size="10.00">span</text>
</a>
</g>
</g>
<!-- Node2&#45;&gt;Node17 -->
<g id="edge20_Node000002_Node000017" class="edge">
<title>Node2&#45;&gt;Node17</title>
<g id="a_edge20_Node000002_Node000017"><a xlink:title=" ">
<path fill="none" stroke="#63b8ff" d="M565.41,-175.97C599.19,-166.64 643.76,-153.63 682.5,-140 683.93,-139.5 685.39,-138.97 686.85,-138.42"/>
<polygon fill="#63b8ff" stroke="#63b8ff" points="688.46,-141.55 696.5,-134.64 685.91,-135.03 688.46,-141.55"/>
</a>
</g>
</g>
<!-- Node18 -->
<g id="Node000018" class="node">
<title>Node18</title>
<g id="a_Node000018"><a xlink:title=" ">
<polygon fill="#e0e0e0" stroke="#999999" points="800,-134.5 755,-134.5 755,-115.5 800,-115.5 800,-134.5"/>
<text text-anchor="middle" x="777.5" y="-122.5" font-family="Helvetica,sans-Serif" font-size="10.00">utility</text>
</a>
</g>
</g>
<!-- Node2&#45;&gt;Node18 -->
<g id="edge22_Node000002_Node000018" class="edge">
<title>Node2&#45;&gt;Node18</title>
<g id="a_edge22_Node000002_Node000018"><a xlink:title=" ">
<path fill="none" stroke="#63b8ff" d="M575.21,-180.07C622.63,-171.72 689,-158.22 745.5,-140 746.94,-139.53 748.41,-139.03 749.88,-138.49"/>
<polygon fill="#63b8ff" stroke="#63b8ff" points="751.49,-141.61 759.47,-134.64 748.88,-135.12 751.49,-141.61"/>
</a>
</g>
</g>
<!-- Node19 -->
<g id="Node000019" class="node">
<title>Node19</title>
<g id="a_Node000019"><a xlink:title=" ">
<polygon fill="#e0e0e0" stroke="#999999" points="179,-134.5 132,-134.5 132,-115.5 179,-115.5 179,-134.5"/>
<text text-anchor="middle" x="155.5" y="-122.5" font-family="Helvetica,sans-Serif" font-size="10.00">vector</text>
</a>
</g>
</g>
<!-- Node2&#45;&gt;Node19 -->
<g id="edge23_Node000002_Node000019" class="edge">
<title>Node2&#45;&gt;Node19</title>
<g id="a_edge23_Node000002_Node000019"><a xlink:title=" ">
<path fill="none" stroke="#63b8ff" d="M449.76,-185.21C383.53,-179.04 276.59,-165.86 187.5,-140 185.82,-139.51 184.11,-138.96 182.4,-138.35"/>
<polygon fill="#63b8ff" stroke="#63b8ff" points="183.39,-134.98 172.8,-134.54 180.8,-141.49 183.39,-134.98"/>
</a>
</g>
</g>
<!-- Node4&#45;&gt;Node5 -->
<g id="edge4_Node000004_Node000005" class="edge">
<title>Node4&#45;&gt;Node5</title>
<g id="a_edge4_Node000004_Node000005"><a xlink:title=" ">
<path fill="none" stroke="#63b8ff" d="M480.87,-115.39C498.31,-102.22 532.78,-76.35 562.5,-55 576.65,-44.83 592.76,-33.64 605.27,-25.02"/>
<polygon fill="#63b8ff" stroke="#63b8ff" points="607.41,-27.8 613.67,-19.25 603.44,-22.03 607.41,-27.8"/>
</a>
</g>
</g>
<!-- Node6 -->
<g id="Node000006" class="node">
<title>Node6</title>
<g id="a_Node000006"><a xlink:href="casadi-types_8hpp.html" target="_top" xlink:title=" ">
<polygon fill="white" stroke="#666666" points="510.5,-74 410.5,-74 410.5,-55 510.5,-55 510.5,-74"/>
<text text-anchor="middle" x="460.5" y="-62" font-family="Helvetica,sans-Serif" font-size="10.00">casadi&#45;types.hpp</text>
</a>
</g>
</g>
<!-- Node4&#45;&gt;Node6 -->
<g id="edge5_Node000004_Node000006" class="edge">
<title>Node4&#45;&gt;Node6</title>
<g id="a_edge5_Node000004_Node000006"><a xlink:title=" ">
<path fill="none" stroke="#63b8ff" d="M468.17,-115.37C466.91,-107.16 464.97,-94.54 463.35,-84.05"/>
<polygon fill="#63b8ff" stroke="#63b8ff" points="466.81,-83.52 461.83,-74.17 459.89,-84.58 466.81,-83.52"/>
</a>
</g>
</g>
<!-- Node4&#45;&gt;Node10 -->
<g id="edge10_Node000004_Node000010" class="edge">
<title>Node4&#45;&gt;Node10</title>
<g id="a_edge10_Node000004_Node000010"><a xlink:title=" ">
<path fill="none" stroke="#63b8ff" d="M428.49,-115.49C378.16,-105.05 292.81,-87.35 238.35,-76.05"/>
<polygon fill="#63b8ff" stroke="#63b8ff" points="239.06,-72.62 228.55,-74.02 237.64,-79.48 239.06,-72.62"/>
</a>
</g>
</g>
<!-- Node4&#45;&gt;Node15 -->
<g id="edge15_Node000004_Node000015" class="edge">
<title>Node4&#45;&gt;Node15</title>
<g id="a_edge15_Node000004_Node000015"><a xlink:title=" ">
<path fill="none" stroke="#63b8ff" d="M495.67,-115.49C526.73,-105.4 578.69,-88.51 613.52,-77.19"/>
<polygon fill="#63b8ff" stroke="#63b8ff" points="614.87,-80.44 623.29,-74.02 612.7,-73.78 614.87,-80.44"/>
</a>
</g>
</g>
<!-- Node6&#45;&gt;Node5 -->
<g id="edge9_Node000006_Node000005" class="edge">
<title>Node6&#45;&gt;Node5</title>
<g id="a_edge9_Node000006_Node000005"><a xlink:title=" ">
<path fill="none" stroke="#63b8ff" d="M487.17,-54.98C515.04,-46.09 558.95,-32.07 590.02,-22.15"/>
<polygon fill="#63b8ff" stroke="#63b8ff" points="591.16,-25.46 599.62,-19.08 589.03,-18.79 591.16,-25.46"/>
</a>
</g>
</g>
<!-- Node7 -->
<g id="Node000007" class="node">
<title>Node7</title>
<g id="a_Node000007"><a xlink:title=" ">
<polygon fill="#e0e0e0" stroke="#999999" points="421.5,-19 357.5,-19 357.5,0 421.5,0 421.5,-19"/>
<text text-anchor="middle" x="389.5" y="-7" font-family="Helvetica,sans-Serif" font-size="10.00">algorithm</text>
</a>
</g>
</g>
<!-- Node6&#45;&gt;Node7 -->
<g id="edge6_Node000006_Node000007" class="edge">
<title>Node6&#45;&gt;Node7</title>
<g id="a_edge6_Node000006_Node000007"><a xlink:title=" ">
<path fill="none" stroke="#63b8ff" d="M449.09,-54.98C438.39,-47 422.16,-34.88 409.34,-25.31"/>
<polygon fill="#63b8ff" stroke="#63b8ff" points="411.22,-22.35 401.11,-19.17 407.03,-27.96 411.22,-22.35"/>
</a>
</g>
</g>
<!-- Node8 -->
<g id="Node000008" class="node">
<title>Node8</title>
<g id="a_Node000008"><a xlink:title=" ">
<polygon fill="#e0e0e0" stroke="#999999" points="481.5,-19 439.5,-19 439.5,0 481.5,0 481.5,-19"/>
<text text-anchor="middle" x="460.5" y="-7" font-family="Helvetica,sans-Serif" font-size="10.00">array</text>
</a>
</g>
</g>
<!-- Node6&#45;&gt;Node8 -->
<g id="edge7_Node000006_Node000008" class="edge">
<title>Node6&#45;&gt;Node8</title>
<g id="a_edge7_Node000006_Node000008"><a xlink:title=" ">
<path fill="none" stroke="#63b8ff" d="M460.5,-54.75C460.5,-47.8 460.5,-37.85 460.5,-29.13"/>
<polygon fill="#63b8ff" stroke="#63b8ff" points="464,-29.09 460.5,-19.09 457,-29.09 464,-29.09"/>
</a>
</g>
</g>
<!-- Node9 -->
<g id="Node000009" class="node">
<title>Node9</title>
<g id="a_Node000009"><a xlink:title=" ">
<polygon fill="#e0e0e0" stroke="#999999" points="543.5,-19 499.5,-19 499.5,0 543.5,0 543.5,-19"/>
<text text-anchor="middle" x="521.5" y="-7" font-family="Helvetica,sans-Serif" font-size="10.00">string</text>
</a>
</g>
</g>
<!-- Node6&#45;&gt;Node9 -->
<g id="edge8_Node000006_Node000009" class="edge">
<title>Node6&#45;&gt;Node9</title>
<g id="a_edge8_Node000006_Node000009"><a xlink:title=" ">
<path fill="none" stroke="#63b8ff" d="M470.3,-54.98C479.32,-47.15 492.91,-35.34 503.82,-25.86"/>
<polygon fill="#63b8ff" stroke="#63b8ff" points="506.27,-28.37 511.52,-19.17 501.68,-23.09 506.27,-28.37"/>
</a>
</g>
</g>
<!-- Node11 -->
<g id="Node000011" class="node">
<title>Node11</title>
<g id="a_Node000011"><a xlink:title=" ">
<polygon fill="#e0e0e0" stroke="#999999" points="93,-19 0,-19 0,0 93,0 93,-19"/>
<text text-anchor="middle" x="46.5" y="-7" font-family="Helvetica,sans-Serif" font-size="10.00">alpaqa/export.h</text>
</a>
</g>
</g>
<!-- Node10&#45;&gt;Node11 -->
<g id="edge11_Node000010_Node000011" class="edge">
<title>Node10&#45;&gt;Node11</title>
<g id="a_edge11_Node000010_Node000011"><a xlink:title=" ">
<path fill="none" stroke="#63b8ff" d="M164.85,-54.98C141.65,-46.27 105.38,-32.63 79.1,-22.75"/>
<polygon fill="#63b8ff" stroke="#63b8ff" points="80.16,-19.41 69.57,-19.17 77.7,-25.97 80.16,-19.41"/>
</a>
</g>
</g>
<!-- Node12 -->
<g id="Node000012" class="node">
<title>Node12</title>
<g id="a_Node000012"><a xlink:title=" ">
<polygon fill="#e0e0e0" stroke="#999999" points="179.5,-19 111.5,-19 111.5,0 179.5,0 179.5,-19"/>
<text text-anchor="middle" x="145.5" y="-7" font-family="Helvetica,sans-Serif" font-size="10.00">filesystem</text>
</a>
</g>
</g>
<!-- Node10&#45;&gt;Node12 -->
<g id="edge12_Node000010_Node000012" class="edge">
<title>Node10&#45;&gt;Node12</title>
<g id="a_edge12_Node000010_Node000012"><a xlink:title=" ">
<path fill="none" stroke="#63b8ff" d="M180.56,-54.75C174.63,-47.26 165.93,-36.28 158.68,-27.13"/>
<polygon fill="#63b8ff" stroke="#63b8ff" points="161.26,-24.75 152.31,-19.09 155.77,-29.1 161.26,-24.75"/>
</a>
</g>
</g>
<!-- Node10&#45;&gt;Node13 -->
<g id="edge13_Node000010_Node000013" class="edge">
<title>Node10&#45;&gt;Node13</title>
<g id="a_edge13_Node000010_Node000013"><a xlink:title=" ">
<path fill="none" stroke="#63b8ff" d="M207.26,-54.98C227.23,-46.38 258.3,-32.99 281.15,-23.15"/>
<polygon fill="#63b8ff" stroke="#63b8ff" points="282.58,-26.34 290.38,-19.17 279.81,-19.91 282.58,-26.34"/>
</a>
</g>
</g>
<!-- Node10&#45;&gt;Node14 -->
<g id="edge14_Node000010_Node000014" class="edge">
<title>Node10&#45;&gt;Node14</title>
<g id="a_edge14_Node000010_Node000014"><a xlink:title=" ">
<path fill="none" stroke="#63b8ff" d="M194.6,-54.75C200.67,-47.26 209.59,-36.28 217.01,-27.13"/>
<polygon fill="#63b8ff" stroke="#63b8ff" points="219.95,-29.06 223.53,-19.09 214.51,-24.65 219.95,-29.06"/>
</a>
</g>
</g>
</g>
</svg>
