<?xml version="1.0" encoding="UTF-8" standalone="no"?>
<!DOCTYPE svg PUBLIC "-//W3C//DTD SVG 1.1//EN"
 "http://www.w3.org/Graphics/SVG/1.1/DTD/svg11.dtd">
<!-- Generated by graphviz version 2.43.0 (0)
 -->
<!-- Title: src/interop/casadi/include/alpaqa/implementation/casadi/CasADiLoader&#45;util.hpp Pages: 1 -->
<!--zoomable 368 -->

<svg id="main" version="1.1" xmlns="http://www.w3.org/2000/svg" xmlns:xlink="http://www.w3.org/1999/xlink" xml:space="preserve" onload="init(evt)">
<style type="text/css"><![CDATA[
.node, .edge {opacity: 0.7;}
.node.selected, .edge.selected {opacity: 1;}
.edge:hover path { stroke: red; }
.edge:hover polygon { stroke: red; fill: red; }
]]></style>

<defs>
  <circle id="rim" cx="0" cy="0" r="7"/>
  <circle id="rim2" cx="0" cy="0" r="3.5"/>
  <g id="zoomPlus">
    <use xlink:href="#rim" fill="#404040"><set attributeName="fill" to="#808080" begin="zoomplus.mouseover" end="zoomplus.mouseout"/></use>
    <path d="M-4,0h8M0,-4v8" fill="none" stroke="white" stroke-width="1.5" pointer-events="none"/>
  </g>
  <g id="zoomMin">
    <use xlink:href="#rim" fill="#404040"><set attributeName="fill" to="#808080" begin="zoomminus.mouseover" end="zoomminus.mouseout"/></use>
    <path d="M-4,0h8" fill="none" stroke="white" stroke-width="1.5" pointer-events="none"/>
  </g>
  <g id="arrowUp" transform="translate(30 24)">
    <use xlink:href="#rim"/>
    <path pointer-events="none" fill="none" stroke="white" stroke-width="1.5" d="M0,-3.0v7 M-2.5,-0.5L0,-3.0L2.5,-0.5"/>
  </g>
  <g id="arrowRight" transform="rotate(90) translate(36 -43)">
    <use xlink:href="#rim"/>
    <path pointer-events="none" fill="none" stroke="white" stroke-width="1.5" d="M0,-3.0v7 M-2.5,-0.5L0,-3.0L2.5,-0.5"/>
  </g>
  <g id="arrowDown" transform="rotate(180) translate(-30 -48)">
    <use xlink:href="#rim"/>
    <path pointer-events="none" fill="none" stroke="white" stroke-width="1.5" d="M0,-3.0v7 M-2.5,-0.5L0,-3.0L2.5,-0.5"/>
  </g>
  <g id="arrowLeft" transform="rotate(270) translate(-36 17)">
    <use xlink:href="#rim"/>
    <path pointer-events="none" fill="none" stroke="white" stroke-width="1.5" d="M0,-3.0v7 M-2.5,-0.5L0,-3.0L2.5,-0.5"/>
  </g>
  <g id="resetDef">
    <use xlink:href="#rim2" fill="#404040"><set attributeName="fill" to="#808080" begin="reset.mouseover" end="reset.mouseout"/></use>
  </g>
</defs>
<script type="application/ecmascript">
var viewWidth = 1800;
var viewHeight = 368;
var sectionId = 'dynsection-0';
</script>
<script type="application/ecmascript" xlink:href="svg.min.js"/>
<svg id="graph" class="graph">
<g id="viewport">
<title>src/interop/casadi/include/alpaqa/implementation/casadi/CasADiLoader&#45;util.hpp</title>
<!-- Node1 -->
<g id="Node000001" class="node">
<title>Node1</title>
<g id="a_Node000001"><a xlink:title=" ">
<polygon fill="#999999" stroke="#666666" points="1529,-360 1357,-360 1357,-319 1529,-319 1529,-360"/>
<text text-anchor="start" x="1365" y="-348" font-family="Helvetica,sans-Serif" font-size="10.00">src/interop/casadi</text>
<text text-anchor="start" x="1365" y="-337" font-family="Helvetica,sans-Serif" font-size="10.00">/include/alpaqa/implementation</text>
<text text-anchor="middle" x="1443" y="-326" font-family="Helvetica,sans-Serif" font-size="10.00">/casadi/CasADiLoader&#45;util.hpp</text>
</a>
</g>
</g>
<!-- Node2 -->
<g id="Node000002" class="node">
<title>Node2</title>
<g id="a_Node000002"><a xlink:href="CasADiFunctionWrapper_8hpp.html" target="_top" xlink:title=" ">
<polygon fill="white" stroke="#666666" points="1253,-283 1089,-283 1089,-253 1253,-253 1253,-283"/>
<text text-anchor="start" x="1097" y="-271" font-family="Helvetica,sans-Serif" font-size="10.00">alpaqa/casadi/CasADiFunction</text>
<text text-anchor="middle" x="1171" y="-260" font-family="Helvetica,sans-Serif" font-size="10.00">Wrapper.hpp</text>
</a>
</g>
</g>
<!-- Node1&#45;&gt;Node2 -->
<g id="edge1_Node000001_Node000002" class="edge">
<title>Node1&#45;&gt;Node2</title>
<g id="a_edge1_Node000001_Node000002"><a xlink:title=" ">
<path fill="none" stroke="#63b8ff" d="M1366.51,-318.96C1325.23,-308.41 1274.83,-295.53 1235.54,-285.49"/>
<polygon fill="#63b8ff" stroke="#63b8ff" points="1236.36,-282.09 1225.81,-283 1234.63,-288.87 1236.36,-282.09"/>
</a>
</g>
</g>
<!-- Node4 -->
<g id="Node000004" class="node">
<title>Node4</title>
<g id="a_Node000004"><a xlink:href="casadi-namespace_8hpp.html" target="_top" xlink:title=" ">
<polygon fill="white" stroke="#666666" points="829.5,-30 710.5,-30 710.5,0 829.5,0 829.5,-30"/>
<text text-anchor="start" x="718.5" y="-18" font-family="Helvetica,sans-Serif" font-size="10.00">alpaqa/casadi/casadi</text>
<text text-anchor="middle" x="770" y="-7" font-family="Helvetica,sans-Serif" font-size="10.00">&#45;namespace.hpp</text>
</a>
</g>
</g>
<!-- Node1&#45;&gt;Node4 -->
<g id="edge37_Node000001_Node000004" class="edge">
<title>Node1&#45;&gt;Node4</title>
<g id="a_edge37_Node000001_Node000004"><a xlink:title=" ">
<path fill="none" stroke="#63b8ff" d="M1356.7,-339.26C1108.68,-340.02 399.09,-331.87 203,-217 172.15,-198.93 167.71,-185.11 157,-151 153,-138.28 148.4,-131.19 157,-121 225.87,-39.33 554.51,-21.18 700.2,-17.15"/>
<polygon fill="#63b8ff" stroke="#63b8ff" points="700.46,-20.65 710.37,-16.88 700.28,-13.65 700.46,-20.65"/>
</a>
</g>
</g>
<!-- Node12 -->
<g id="Node000012" class="node">
<title>Node12</title>
<g id="a_Node000012"><a xlink:title=" ">
<polygon fill="#e0e0e0" stroke="#999999" points="1413.5,-24.5 1348.5,-24.5 1348.5,-5.5 1413.5,-5.5 1413.5,-24.5"/>
<text text-anchor="middle" x="1381" y="-12.5" font-family="Helvetica,sans-Serif" font-size="10.00">stdexcept</text>
</a>
</g>
</g>
<!-- Node1&#45;&gt;Node12 -->
<g id="edge46_Node000001_Node000012" class="edge">
<title>Node1&#45;&gt;Node12</title>
<g id="a_edge46_Node000001_Node000012"><a xlink:title=" ">
<path fill="none" stroke="#63b8ff" d="M1486.53,-318.87C1527.63,-297.01 1583,-257.46 1583,-203 1583,-203 1583,-203 1583,-135 1583,-61.85 1483.46,-32.76 1424.13,-21.92"/>
<polygon fill="#63b8ff" stroke="#63b8ff" points="1424.35,-18.41 1413.9,-20.16 1423.16,-25.3 1424.35,-18.41"/>
</a>
</g>
</g>
<!-- Node17 -->
<g id="Node000017" class="node">
<title>Node17</title>
<g id="a_Node000017"><a xlink:href="casadi-types_8hpp.html" target="_top" xlink:title=" ">
<polygon fill="white" stroke="#666666" points="145,-85 45,-85 45,-66 145,-66 145,-85"/>
<text text-anchor="middle" x="95" y="-73" font-family="Helvetica,sans-Serif" font-size="10.00">casadi&#45;types.hpp</text>
</a>
</g>
</g>
<!-- Node1&#45;&gt;Node17 -->
<g id="edge48_Node000001_Node000017" class="edge">
<title>Node1&#45;&gt;Node17</title>
<g id="a_edge48_Node000001_Node000017"><a xlink:title=" ">
<path fill="none" stroke="#63b8ff" d="M1356.79,-338.15C1066.91,-336.57 143.03,-328.01 99,-283 48.93,-231.82 74.54,-134.83 88.23,-94.65"/>
<polygon fill="#63b8ff" stroke="#63b8ff" points="91.57,-95.7 91.62,-85.11 84.97,-93.35 91.57,-95.7"/>
</a>
</g>
</g>
<!-- Node19 -->
<g id="Node000019" class="node">
<title>Node19</title>
<g id="a_Node000019"><a xlink:title=" ">
<polygon fill="#e0e0e0" stroke="#999999" points="42,-24.5 0,-24.5 0,-5.5 42,-5.5 42,-24.5"/>
<text text-anchor="middle" x="21" y="-12.5" font-family="Helvetica,sans-Serif" font-size="10.00">array</text>
</a>
</g>
</g>
<!-- Node1&#45;&gt;Node19 -->
<g id="edge44_Node000001_Node000019" class="edge">
<title>Node1&#45;&gt;Node19</title>
<g id="a_edge44_Node000001_Node000019"><a xlink:title=" ">
<path fill="none" stroke="#63b8ff" d="M1356.95,-337.05C1065.81,-331.89 132.61,-313.05 76,-283 36.98,-262.29 17,-247.18 17,-203 17,-203 17,-203 17,-135 17,-99.63 18.79,-58.39 19.97,-34.92"/>
<polygon fill="#63b8ff" stroke="#63b8ff" points="23.48,-34.83 20.51,-24.66 16.49,-34.46 23.48,-34.83"/>
</a>
</g>
</g>
<!-- Node20 -->
<g id="Node000020" class="node">
<title>Node20</title>
<g id="a_Node000020"><a xlink:href="dl_8hpp.html" target="_top" xlink:title=" ">
<polygon fill="white" stroke="#666666" points="1219.5,-85 1118.5,-85 1118.5,-66 1219.5,-66 1219.5,-85"/>
<text text-anchor="middle" x="1169" y="-73" font-family="Helvetica,sans-Serif" font-size="10.00">alpaqa/util/dl.hpp</text>
</a>
</g>
</g>
<!-- Node1&#45;&gt;Node20 -->
<g id="edge43_Node000001_Node000020" class="edge">
<title>Node1&#45;&gt;Node20</title>
<g id="a_edge43_Node000001_Node000020"><a xlink:title=" ">
<path fill="none" stroke="#63b8ff" d="M1456.6,-318.93C1483.79,-277.21 1538.12,-178.6 1488,-121 1455.19,-83.29 1312.61,-76.55 1229.59,-75.91"/>
<polygon fill="#63b8ff" stroke="#63b8ff" points="1229.54,-72.41 1219.53,-75.86 1229.51,-79.41 1229.54,-72.41"/>
</a>
</g>
</g>
<!-- Node25 -->
<g id="Node000025" class="node">
<title>Node25</title>
<g id="a_Node000025"><a xlink:title=" ">
<polygon fill="#e0e0e0" stroke="#999999" points="1415,-145.5 1359,-145.5 1359,-126.5 1415,-126.5 1415,-145.5"/>
<text text-anchor="middle" x="1387" y="-133.5" font-family="Helvetica,sans-Serif" font-size="10.00">optional</text>
</a>
</g>
</g>
<!-- Node1&#45;&gt;Node25 -->
<g id="edge45_Node000001_Node000025" class="edge">
<title>Node1&#45;&gt;Node25</title>
<g id="a_edge45_Node000001_Node000025"><a xlink:title=" ">
<path fill="none" stroke="#63b8ff" d="M1437.53,-318.81C1426.71,-279.88 1402.71,-193.52 1392.15,-155.54"/>
<polygon fill="#63b8ff" stroke="#63b8ff" points="1395.49,-154.49 1389.44,-145.8 1388.75,-156.37 1395.49,-154.49"/>
</a>
</g>
</g>
<!-- Node27 -->
<g id="Node000027" class="node">
<title>Node27</title>
<g id="a_Node000027"><a xlink:title=" ">
<polygon fill="#e0e0e0" stroke="#999999" points="1478.5,-145.5 1433.5,-145.5 1433.5,-126.5 1478.5,-126.5 1478.5,-145.5"/>
<text text-anchor="middle" x="1456" y="-133.5" font-family="Helvetica,sans-Serif" font-size="10.00">utility</text>
</a>
</g>
</g>
<!-- Node1&#45;&gt;Node27 -->
<g id="edge47_Node000001_Node000027" class="edge">
<title>Node1&#45;&gt;Node27</title>
<g id="a_edge47_Node000001_Node000027"><a xlink:title=" ">
<path fill="none" stroke="#63b8ff" d="M1449.19,-318.95C1452.2,-308.42 1455.49,-295.13 1457,-283 1462.63,-237.66 1459.84,-183.79 1457.69,-155.87"/>
<polygon fill="#63b8ff" stroke="#63b8ff" points="1461.15,-155.28 1456.84,-145.6 1454.18,-155.86 1461.15,-155.28"/>
</a>
</g>
</g>
<!-- Node28 -->
<g id="Node000028" class="node">
<title>Node28</title>
<g id="a_Node000028"><a xlink:href="demangled-typename_8hpp.html" target="_top" xlink:title=" ">
<polygon fill="white" stroke="#666666" points="1737,-151 1611,-151 1611,-121 1737,-121 1737,-151"/>
<text text-anchor="start" x="1619" y="-139" font-family="Helvetica,sans-Serif" font-size="10.00">alpaqa/util/demangled</text>
<text text-anchor="middle" x="1674" y="-128" font-family="Helvetica,sans-Serif" font-size="10.00">&#45;typename.hpp</text>
</a>
</g>
</g>
<!-- Node1&#45;&gt;Node28 -->
<g id="edge38_Node000001_Node000028" class="edge">
<title>Node1&#45;&gt;Node28</title>
<g id="a_edge38_Node000001_Node000028"><a xlink:title=" ">
<path fill="none" stroke="#63b8ff" d="M1529.33,-319.79C1553.21,-311.49 1577.81,-299.69 1597,-283 1635.08,-249.89 1657.21,-193.25 1667.31,-161.12"/>
<polygon fill="#63b8ff" stroke="#63b8ff" points="1670.75,-161.81 1670.28,-151.23 1664.05,-159.8 1670.75,-161.81"/>
</a>
</g>
</g>
<!-- Node3 -->
<g id="Node000003" class="node">
<title>Node3</title>
<g id="a_Node000003"><a xlink:title=" ">
<polygon fill="#e0e0e0" stroke="#999999" points="1275.5,-151 1156.5,-151 1156.5,-121 1275.5,-121 1275.5,-151"/>
<text text-anchor="start" x="1164.5" y="-139" font-family="Helvetica,sans-Serif" font-size="10.00">alpaqa/casadi&#45;loader</text>
<text text-anchor="middle" x="1216" y="-128" font-family="Helvetica,sans-Serif" font-size="10.00">&#45;export.h</text>
</a>
</g>
</g>
<!-- Node2&#45;&gt;Node3 -->
<g id="edge2_Node000002_Node000003" class="edge">
<title>Node2&#45;&gt;Node3</title>
<g id="a_edge2_Node000002_Node000003"><a xlink:title=" ">
<path fill="none" stroke="#63b8ff" d="M1179.48,-252.99C1185.1,-243.19 1192.29,-229.65 1197,-217 1203.76,-198.85 1208.69,-177.46 1211.83,-161.37"/>
<polygon fill="#63b8ff" stroke="#63b8ff" points="1215.34,-161.65 1213.72,-151.18 1208.46,-160.38 1215.34,-161.65"/>
</a>
</g>
</g>
<!-- Node2&#45;&gt;Node4 -->
<g id="edge3_Node000002_Node000004" class="edge">
<title>Node2&#45;&gt;Node4</title>
<g id="a_edge3_Node000002_Node000004"><a xlink:title=" ">
<path fill="none" stroke="#63b8ff" d="M1088.74,-255.32C1015.33,-241.3 908.39,-211.62 835,-151 800.2,-122.25 782.71,-70.44 775.05,-40.05"/>
<polygon fill="#63b8ff" stroke="#63b8ff" points="778.45,-39.19 772.74,-30.26 771.64,-40.8 778.45,-39.19"/>
</a>
</g>
</g>
<!-- Node5 -->
<g id="Node000005" class="node">
<title>Node5</title>
<g id="a_Node000005"><a xlink:href="config_8hpp.html" target="_top" xlink:title=" ">
<polygon fill="white" stroke="#666666" points="560.5,-211.5 425.5,-211.5 425.5,-192.5 560.5,-192.5 560.5,-211.5"/>
<text text-anchor="middle" x="493" y="-199.5" font-family="Helvetica,sans-Serif" font-size="10.00">alpaqa/config/config.hpp</text>
</a>
</g>
</g>
<!-- Node2&#45;&gt;Node5 -->
<g id="edge4_Node000002_Node000005" class="edge">
<title>Node2&#45;&gt;Node5</title>
<g id="a_edge4_Node000002_Node000005"><a xlink:title=" ">
<path fill="none" stroke="#63b8ff" d="M1088.88,-259.25C957.07,-246.81 700.02,-222.54 570.92,-210.36"/>
<polygon fill="#63b8ff" stroke="#63b8ff" points="571.01,-206.85 560.72,-209.39 570.35,-213.82 571.01,-206.85"/>
</a>
</g>
</g>
<!-- Node2&#45;&gt;Node12 -->
<g id="edge11_Node000002_Node000012" class="edge">
<title>Node2&#45;&gt;Node12</title>
<g id="a_edge11_Node000002_Node000012"><a xlink:title=" ">
<path fill="none" stroke="#63b8ff" d="M1253.27,-262.16C1328.35,-252.87 1435.38,-226.29 1488,-151 1520.27,-104.84 1447.15,-53.53 1406.24,-29.63"/>
<polygon fill="#63b8ff" stroke="#63b8ff" points="1407.75,-26.47 1397.33,-24.56 1404.29,-32.55 1407.75,-26.47"/>
</a>
</g>
</g>
<!-- Node13 -->
<g id="Node000013" class="node">
<title>Node13</title>
<g id="a_Node000013"><a xlink:title=" ">
<polygon fill="#e0e0e0" stroke="#999999" points="892,-24.5 848,-24.5 848,-5.5 892,-5.5 892,-24.5"/>
<text text-anchor="middle" x="870" y="-12.5" font-family="Helvetica,sans-Serif" font-size="10.00">string</text>
</a>
</g>
</g>
<!-- Node2&#45;&gt;Node13 -->
<g id="edge12_Node000002_Node000013" class="edge">
<title>Node2&#45;&gt;Node13</title>
<g id="a_edge12_Node000002_Node000013"><a xlink:title=" ">
<path fill="none" stroke="#63b8ff" d="M1088.84,-266.81C949.5,-265.32 658.35,-257.14 416,-217 304.32,-198.5 238.9,-240.82 170,-151 78.05,-31.13 693.79,-71.71 839,-30 840.64,-29.53 842.3,-28.99 843.96,-28.39"/>
<polygon fill="#63b8ff" stroke="#63b8ff" points="845.33,-31.62 853.28,-24.61 842.7,-25.13 845.33,-31.62"/>
</a>
</g>
</g>
<!-- Node14 -->
<g id="Node000014" class="node">
<title>Node14</title>
<g id="a_Node000014"><a xlink:title=" ">
<polygon fill="#e0e0e0" stroke="#999999" points="1340.5,-145.5 1293.5,-145.5 1293.5,-126.5 1340.5,-126.5 1340.5,-145.5"/>
<text text-anchor="middle" x="1317" y="-133.5" font-family="Helvetica,sans-Serif" font-size="10.00">vector</text>
</a>
</g>
</g>
<!-- Node2&#45;&gt;Node14 -->
<g id="edge13_Node000002_Node000014" class="edge">
<title>Node2&#45;&gt;Node14</title>
<g id="a_edge13_Node000002_Node000014"><a xlink:title=" ">
<path fill="none" stroke="#63b8ff" d="M1186.9,-252.84C1214.48,-228.28 1270.97,-177.99 1299.57,-152.52"/>
<polygon fill="#63b8ff" stroke="#63b8ff" points="1302.03,-155.01 1307.18,-145.75 1297.38,-149.78 1302.03,-155.01"/>
</a>
</g>
</g>
<!-- Node15 -->
<g id="Node000015" class="node">
<title>Node15</title>
<g id="a_Node000015"><a xlink:href="casadi-external-function_8hpp.html" target="_top" xlink:title=" ">
<polygon fill="white" stroke="#666666" points="1187.5,-217 1062.5,-217 1062.5,-187 1187.5,-187 1187.5,-217"/>
<text text-anchor="start" x="1070.5" y="-205" font-family="Helvetica,sans-Serif" font-size="10.00">alpaqa/casadi/casadi</text>
<text text-anchor="middle" x="1125" y="-194" font-family="Helvetica,sans-Serif" font-size="10.00">&#45;external&#45;function.hpp</text>
</a>
</g>
</g>
<!-- Node2&#45;&gt;Node15 -->
<g id="edge14_Node000002_Node000015" class="edge">
<title>Node2&#45;&gt;Node15</title>
<g id="a_edge14_Node000002_Node000015"><a xlink:title=" ">
<path fill="none" stroke="#63b8ff" d="M1160.79,-252.8C1155.01,-244.76 1147.66,-234.53 1141.12,-225.43"/>
<polygon fill="#63b8ff" stroke="#63b8ff" points="1143.86,-223.24 1135.18,-217.16 1138.17,-227.33 1143.86,-223.24"/>
</a>
</g>
</g>
<!-- Node6 -->
<g id="Node000006" class="node">
<title>Node6</title>
<g id="a_Node000006"><a xlink:href="quadmath-print_8hpp.html" target="_top" xlink:title=" ">
<polygon fill="white" stroke="#666666" points="753.5,-151 632.5,-151 632.5,-121 753.5,-121 753.5,-151"/>
<text text-anchor="start" x="640.5" y="-139" font-family="Helvetica,sans-Serif" font-size="10.00">alpaqa/util/quadmath</text>
<text text-anchor="middle" x="693" y="-128" font-family="Helvetica,sans-Serif" font-size="10.00">/quadmath&#45;print.hpp</text>
</a>
</g>
</g>
<!-- Node5&#45;&gt;Node6 -->
<g id="edge5_Node000005_Node000006" class="edge">
<title>Node5&#45;&gt;Node6</title>
<g id="a_edge5_Node000005_Node000006"><a xlink:title=" ">
<path fill="none" stroke="#63b8ff" d="M519.97,-192.37C550.44,-182.62 600.81,-166.5 639.36,-154.16"/>
<polygon fill="#63b8ff" stroke="#63b8ff" points="640.43,-157.5 648.89,-151.12 638.3,-150.83 640.43,-157.5"/>
</a>
</g>
</g>
<!-- Node7 -->
<g id="Node000007" class="node">
<title>Node7</title>
<g id="a_Node000007"><a xlink:href="quadmath_8hpp.html" target="_top" xlink:title=" ">
<polygon fill="white" stroke="#666666" points="300.5,-151 179.5,-151 179.5,-121 300.5,-121 300.5,-151"/>
<text text-anchor="start" x="187.5" y="-139" font-family="Helvetica,sans-Serif" font-size="10.00">alpaqa/util/quadmath</text>
<text text-anchor="middle" x="240" y="-128" font-family="Helvetica,sans-Serif" font-size="10.00">/quadmath.hpp</text>
</a>
</g>
</g>
<!-- Node5&#45;&gt;Node7 -->
<g id="edge6_Node000005_Node000007" class="edge">
<title>Node5&#45;&gt;Node7</title>
<g id="a_edge6_Node000005_Node000007"><a xlink:title=" ">
<path fill="none" stroke="#63b8ff" d="M459.14,-192.44C419.97,-182.52 354.55,-165.98 305.36,-153.53"/>
<polygon fill="#63b8ff" stroke="#63b8ff" points="305.99,-150.08 295.44,-151.02 304.28,-156.87 305.99,-150.08"/>
</a>
</g>
</g>
<!-- Node8 -->
<g id="Node000008" class="node">
<title>Node8</title>
<g id="a_Node000008"><a xlink:title=" ">
<polygon fill="#e0e0e0" stroke="#999999" points="377.5,-145.5 318.5,-145.5 318.5,-126.5 377.5,-126.5 377.5,-145.5"/>
<text text-anchor="middle" x="348" y="-133.5" font-family="Helvetica,sans-Serif" font-size="10.00">complex</text>
</a>
</g>
</g>
<!-- Node5&#45;&gt;Node8 -->
<g id="edge7_Node000005_Node000008" class="edge">
<title>Node5&#45;&gt;Node8</title>
<g id="a_edge7_Node000005_Node000008"><a xlink:title=" ">
<path fill="none" stroke="#63b8ff" d="M473.44,-192.37C448.69,-181.44 405.83,-162.52 377.19,-149.88"/>
<polygon fill="#63b8ff" stroke="#63b8ff" points="378.27,-146.54 367.71,-145.7 375.44,-152.94 378.27,-146.54"/>
</a>
</g>
</g>
<!-- Node9 -->
<g id="Node000009" class="node">
<title>Node9</title>
<g id="a_Node000009"><a xlink:title=" ">
<polygon fill="#e0e0e0" stroke="#999999" points="440,-145.5 396,-145.5 396,-126.5 440,-126.5 440,-145.5"/>
<text text-anchor="middle" x="418" y="-133.5" font-family="Helvetica,sans-Serif" font-size="10.00">limits</text>
</a>
</g>
</g>
<!-- Node5&#45;&gt;Node9 -->
<g id="edge8_Node000005_Node000009" class="edge">
<title>Node5&#45;&gt;Node9</title>
<g id="a_edge8_Node000005_Node000009"><a xlink:title=" ">
<path fill="none" stroke="#63b8ff" d="M482.89,-192.37C470.99,-182.21 451,-165.16 436.35,-152.65"/>
<polygon fill="#63b8ff" stroke="#63b8ff" points="438.31,-149.73 428.44,-145.91 433.77,-155.06 438.31,-149.73"/>
</a>
</g>
</g>
<!-- Node10 -->
<g id="Node000010" class="node">
<title>Node10</title>
<g id="a_Node000010"><a xlink:title=" ">
<polygon fill="#e0e0e0" stroke="#999999" points="527.5,-145.5 458.5,-145.5 458.5,-126.5 527.5,-126.5 527.5,-145.5"/>
<text text-anchor="middle" x="493" y="-133.5" font-family="Helvetica,sans-Serif" font-size="10.00">type_traits</text>
</a>
</g>
</g>
<!-- Node5&#45;&gt;Node10 -->
<g id="edge9_Node000005_Node000010" class="edge">
<title>Node5&#45;&gt;Node10</title>
<g id="a_edge9_Node000005_Node000010"><a xlink:title=" ">
<path fill="none" stroke="#63b8ff" d="M493,-192.37C493,-183.16 493,-168.29 493,-156.27"/>
<polygon fill="#63b8ff" stroke="#63b8ff" points="496.5,-155.91 493,-145.91 489.5,-155.91 496.5,-155.91"/>
</a>
</g>
</g>
<!-- Node11 -->
<g id="Node000011" class="node">
<title>Node11</title>
<g id="a_Node000011"><a xlink:title=" ">
<polygon fill="#e0e0e0" stroke="#999999" points="614.5,-145.5 545.5,-145.5 545.5,-126.5 614.5,-126.5 614.5,-145.5"/>
<text text-anchor="middle" x="580" y="-133.5" font-family="Helvetica,sans-Serif" font-size="10.00">Eigen/Core</text>
</a>
</g>
</g>
<!-- Node5&#45;&gt;Node11 -->
<g id="edge10_Node000005_Node000011" class="edge">
<title>Node5&#45;&gt;Node11</title>
<g id="a_edge10_Node000005_Node000011"><a xlink:title=" ">
<path fill="none" stroke="#63b8ff" d="M504.73,-192.37C518.87,-181.97 542.86,-164.32 559.95,-151.75"/>
<polygon fill="#63b8ff" stroke="#63b8ff" points="562.19,-154.44 568.17,-145.7 558.05,-148.81 562.19,-154.44"/>
</a>
</g>
</g>
<!-- Node15&#45;&gt;Node3 -->
<g id="edge15_Node000015_Node000003" class="edge">
<title>Node15&#45;&gt;Node3</title>
<g id="a_edge15_Node000015_Node000003"><a xlink:title=" ">
<path fill="none" stroke="#63b8ff" d="M1145.2,-186.8C1157.68,-178.01 1173.9,-166.61 1187.66,-156.93"/>
<polygon fill="#63b8ff" stroke="#63b8ff" points="1189.69,-159.78 1195.86,-151.16 1185.67,-154.05 1189.69,-159.78"/>
</a>
</g>
</g>
<!-- Node15&#45;&gt;Node4 -->
<g id="edge29_Node000015_Node000004" class="edge">
<title>Node15&#45;&gt;Node4</title>
<g id="a_edge29_Node000015_Node000004"><a xlink:title=" ">
<path fill="none" stroke="#63b8ff" d="M1062.39,-194.23C996.71,-186.2 898.7,-171.3 867,-151 844.78,-136.77 804.83,-74.02 783.8,-39.3"/>
<polygon fill="#63b8ff" stroke="#63b8ff" points="786.56,-37.09 778.41,-30.32 780.56,-40.69 786.56,-37.09"/>
</a>
</g>
</g>
<!-- Node15&#45;&gt;Node12 -->
<g id="edge34_Node000015_Node000012" class="edge">
<title>Node15&#45;&gt;Node12</title>
<g id="a_edge34_Node000015_Node000012"><a xlink:title=" ">
<path fill="none" stroke="#63b8ff" d="M1125.53,-186.87C1126.91,-169.42 1131.68,-139.75 1148,-121 1173.87,-91.29 1193.06,-101.14 1229,-85 1272.42,-65.5 1322.68,-42.62 1353.14,-28.73"/>
<polygon fill="#63b8ff" stroke="#63b8ff" points="1354.66,-31.88 1362.3,-24.55 1351.75,-25.51 1354.66,-31.88"/>
</a>
</g>
</g>
<!-- Node15&#45;&gt;Node14 -->
<g id="edge36_Node000015_Node000014" class="edge">
<title>Node15&#45;&gt;Node14</title>
<g id="a_edge36_Node000015_Node000014"><a xlink:title=" ">
<path fill="none" stroke="#63b8ff" d="M1174.85,-186.95C1206.66,-177.61 1248.61,-164.6 1285,-151 1286.21,-150.55 1287.45,-150.07 1288.69,-149.58"/>
<polygon fill="#63b8ff" stroke="#63b8ff" points="1290.29,-152.7 1298.19,-145.64 1287.61,-146.24 1290.29,-152.7"/>
</a>
</g>
</g>
<!-- Node16 -->
<g id="Node000016" class="node">
<title>Node16</title>
<g id="a_Node000016"><a xlink:href="casadi-functions_8hpp.html" target="_top" xlink:title=" ">
<polygon fill="white" stroke="#666666" points="1004,-145.5 886,-145.5 886,-126.5 1004,-126.5 1004,-145.5"/>
<text text-anchor="middle" x="945" y="-133.5" font-family="Helvetica,sans-Serif" font-size="10.00">casadi&#45;functions.hpp</text>
</a>
</g>
</g>
<!-- Node15&#45;&gt;Node16 -->
<g id="edge16_Node000015_Node000016" class="edge">
<title>Node15&#45;&gt;Node16</title>
<g id="a_edge16_Node000015_Node000016"><a xlink:title=" ">
<path fill="none" stroke="#63b8ff" d="M1085.5,-186.95C1053.51,-175.58 1008.95,-159.74 978.65,-148.96"/>
<polygon fill="#63b8ff" stroke="#63b8ff" points="979.55,-145.57 968.95,-145.52 977.2,-152.17 979.55,-145.57"/>
</a>
</g>
</g>
<!-- Node23 -->
<g id="Node000023" class="node">
<title>Node23</title>
<g id="a_Node000023"><a xlink:title=" ">
<polygon fill="#e0e0e0" stroke="#999999" points="1119,-24.5 1061,-24.5 1061,-5.5 1119,-5.5 1119,-24.5"/>
<text text-anchor="middle" x="1090" y="-12.5" font-family="Helvetica,sans-Serif" font-size="10.00">memory</text>
</a>
</g>
</g>
<!-- Node15&#45;&gt;Node23 -->
<g id="edge31_Node000015_Node000023" class="edge">
<title>Node15&#45;&gt;Node23</title>
<g id="a_edge31_Node000015_Node000023"><a xlink:title=" ">
<path fill="none" stroke="#63b8ff" d="M1121.67,-186.59C1119.4,-176.62 1116.39,-163.03 1114,-151 1105.75,-109.51 1097.39,-60.57 1093.05,-34.52"/>
<polygon fill="#63b8ff" stroke="#63b8ff" points="1096.48,-33.85 1091.4,-24.55 1089.58,-34.99 1096.48,-33.85"/>
</a>
</g>
</g>
<!-- Node24 -->
<g id="Node000024" class="node">
<title>Node24</title>
<g id="a_Node000024"><a xlink:title=" ">
<polygon fill="#e0e0e0" stroke="#999999" points="938,-85 886,-85 886,-66 938,-66 938,-85"/>
<text text-anchor="middle" x="912" y="-73" font-family="Helvetica,sans-Serif" font-size="10.00">cassert</text>
</a>
</g>
</g>
<!-- Node15&#45;&gt;Node24 -->
<g id="edge30_Node000015_Node000024" class="edge">
<title>Node15&#45;&gt;Node24</title>
<g id="a_edge30_Node000015_Node000024"><a xlink:title=" ">
<path fill="none" stroke="#63b8ff" d="M1062.27,-197.19C996.63,-191.74 899.99,-179.08 877,-151 862.51,-133.3 879.83,-108.6 894.84,-92.58"/>
<polygon fill="#63b8ff" stroke="#63b8ff" points="897.73,-94.64 902.3,-85.08 892.77,-89.7 897.73,-94.64"/>
</a>
</g>
</g>
<!-- Node15&#45;&gt;Node25 -->
<g id="edge32_Node000015_Node000025" class="edge">
<title>Node15&#45;&gt;Node25</title>
<g id="a_edge32_Node000015_Node000025"><a xlink:title=" ">
<path fill="none" stroke="#63b8ff" d="M1187.69,-189.57C1233.17,-180.67 1295.94,-167.14 1350,-151 1352.14,-150.36 1354.33,-149.66 1356.53,-148.92"/>
<polygon fill="#63b8ff" stroke="#63b8ff" points="1357.8,-152.18 1366.05,-145.52 1355.45,-145.59 1357.8,-152.18"/>
</a>
</g>
</g>
<!-- Node26 -->
<g id="Node000026" class="node">
<title>Node26</title>
<g id="a_Node000026"><a xlink:title=" ">
<polygon fill="#e0e0e0" stroke="#999999" points="1062,-145.5 1022,-145.5 1022,-126.5 1062,-126.5 1062,-145.5"/>
<text text-anchor="middle" x="1042" y="-133.5" font-family="Helvetica,sans-Serif" font-size="10.00">span</text>
</a>
</g>
</g>
<!-- Node15&#45;&gt;Node26 -->
<g id="edge33_Node000015_Node000026" class="edge">
<title>Node15&#45;&gt;Node26</title>
<g id="a_edge33_Node000015_Node000026"><a xlink:title=" ">
<path fill="none" stroke="#63b8ff" d="M1106.58,-186.8C1093.26,-176.53 1075.29,-162.67 1061.69,-152.18"/>
<polygon fill="#63b8ff" stroke="#63b8ff" points="1063.53,-149.18 1053.47,-145.84 1059.25,-154.72 1063.53,-149.18"/>
</a>
</g>
</g>
<!-- Node15&#45;&gt;Node27 -->
<g id="edge35_Node000015_Node000027" class="edge">
<title>Node15&#45;&gt;Node27</title>
<g id="a_edge35_Node000015_Node000027"><a xlink:title=" ">
<path fill="none" stroke="#63b8ff" d="M1187.57,-195.08C1248.78,-188.24 1344.17,-174.74 1424,-151 1425.68,-150.5 1427.39,-149.94 1429.09,-149.33"/>
<polygon fill="#63b8ff" stroke="#63b8ff" points="1430.69,-152.46 1438.69,-145.5 1428.1,-145.95 1430.69,-152.46"/>
</a>
</g>
</g>
<!-- Node16&#45;&gt;Node4 -->
<g id="edge17_Node000016_Node000004" class="edge">
<title>Node16&#45;&gt;Node4</title>
<g id="a_edge17_Node000016_Node000004"><a xlink:title=" ">
<path fill="none" stroke="#63b8ff" d="M948.38,-126.33C953.3,-112.15 960.45,-83.78 947,-66 940.14,-56.94 886.17,-42.49 839.6,-31.45"/>
<polygon fill="#63b8ff" stroke="#63b8ff" points="840.33,-28.03 829.8,-29.15 838.73,-34.84 840.33,-28.03"/>
</a>
</g>
</g>
<!-- Node16&#45;&gt;Node17 -->
<g id="edge18_Node000016_Node000017" class="edge">
<title>Node16&#45;&gt;Node17</title>
<g id="a_edge18_Node000016_Node000017"><a xlink:title=" ">
<path fill="none" stroke="#63b8ff" d="M886,-130.31C850.38,-127.51 804.09,-123.95 763,-121 539.06,-104.93 272.73,-87.77 155.49,-80.32"/>
<polygon fill="#63b8ff" stroke="#63b8ff" points="155.49,-76.81 145.29,-79.67 155.05,-83.8 155.49,-76.81"/>
</a>
</g>
</g>
<!-- Node16&#45;&gt;Node20 -->
<g id="edge23_Node000016_Node000020" class="edge">
<title>Node16&#45;&gt;Node20</title>
<g id="a_edge23_Node000016_Node000020"><a xlink:title=" ">
<path fill="none" stroke="#63b8ff" d="M977.57,-126.49C1016.97,-116.2 1083.39,-98.86 1126.71,-87.54"/>
<polygon fill="#63b8ff" stroke="#63b8ff" points="1127.6,-90.93 1136.39,-85.02 1125.83,-84.16 1127.6,-90.93"/>
</a>
</g>
</g>
<!-- Node16&#45;&gt;Node24 -->
<g id="edge28_Node000016_Node000024" class="edge">
<title>Node16&#45;&gt;Node24</title>
<g id="a_edge28_Node000016_Node000024"><a xlink:title=" ">
<path fill="none" stroke="#63b8ff" d="M940.13,-126.37C935.35,-117.9 927.93,-104.74 921.91,-94.07"/>
<polygon fill="#63b8ff" stroke="#63b8ff" points="924.85,-92.16 916.89,-85.17 918.75,-95.6 924.85,-92.16"/>
</a>
</g>
</g>
<!-- Node17&#45;&gt;Node4 -->
<g id="edge22_Node000017_Node000004" class="edge">
<title>Node17&#45;&gt;Node4</title>
<g id="a_edge22_Node000017_Node000004"><a xlink:title=" ">
<path fill="none" stroke="#63b8ff" d="M145.28,-67.58C149.91,-67.01 154.54,-66.48 159,-66 354.75,-45.01 586.62,-28.25 700.21,-20.56"/>
<polygon fill="#63b8ff" stroke="#63b8ff" points="700.75,-24.03 710.49,-19.87 700.28,-17.05 700.75,-24.03"/>
</a>
</g>
</g>
<!-- Node17&#45;&gt;Node13 -->
<g id="edge21_Node000017_Node000013" class="edge">
<title>Node17&#45;&gt;Node13</title>
<g id="a_edge21_Node000017_Node000013"><a xlink:title=" ">
<path fill="none" stroke="#63b8ff" d="M145.14,-73.87C289.96,-71.67 706.93,-62.59 839,-30 840.73,-29.57 842.49,-29.05 844.24,-28.46"/>
<polygon fill="#63b8ff" stroke="#63b8ff" points="846,-31.53 853.99,-24.57 843.4,-25.03 846,-31.53"/>
</a>
</g>
</g>
<!-- Node18 -->
<g id="Node000018" class="node">
<title>Node18</title>
<g id="a_Node000018"><a xlink:title=" ">
<polygon fill="#e0e0e0" stroke="#999999" points="127,-24.5 63,-24.5 63,-5.5 127,-5.5 127,-24.5"/>
<text text-anchor="middle" x="95" y="-12.5" font-family="Helvetica,sans-Serif" font-size="10.00">algorithm</text>
</a>
</g>
</g>
<!-- Node17&#45;&gt;Node18 -->
<g id="edge19_Node000017_Node000018" class="edge">
<title>Node17&#45;&gt;Node18</title>
<g id="a_edge19_Node000017_Node000018"><a xlink:title=" ">
<path fill="none" stroke="#63b8ff" d="M95,-65.87C95,-57.75 95,-45.31 95,-34.89"/>
<polygon fill="#63b8ff" stroke="#63b8ff" points="98.5,-34.67 95,-24.67 91.5,-34.67 98.5,-34.67"/>
</a>
</g>
</g>
<!-- Node17&#45;&gt;Node19 -->
<g id="edge20_Node000017_Node000019" class="edge">
<title>Node17&#45;&gt;Node19</title>
<g id="a_edge20_Node000017_Node000019"><a xlink:title=" ">
<path fill="none" stroke="#63b8ff" d="M84.08,-65.87C72.49,-56.71 53.97,-42.06 39.98,-31.01"/>
<polygon fill="#63b8ff" stroke="#63b8ff" points="41.98,-28.12 31.96,-24.67 37.64,-33.61 41.98,-28.12"/>
</a>
</g>
</g>
<!-- Node20&#45;&gt;Node12 -->
<g id="edge27_Node000020_Node000012" class="edge">
<title>Node20&#45;&gt;Node12</title>
<g id="a_edge27_Node000020_Node000012"><a xlink:title=" ">
<path fill="none" stroke="#63b8ff" d="M1199.83,-65.99C1236.96,-55.75 1299.45,-38.5 1340.46,-27.19"/>
<polygon fill="#63b8ff" stroke="#63b8ff" points="1341.43,-30.55 1350.14,-24.52 1339.57,-23.8 1341.43,-30.55"/>
</a>
</g>
</g>
<!-- Node21 -->
<g id="Node000021" class="node">
<title>Node21</title>
<g id="a_Node000021"><a xlink:title=" ">
<polygon fill="#e0e0e0" stroke="#999999" points="1654.5,-24.5 1561.5,-24.5 1561.5,-5.5 1654.5,-5.5 1654.5,-24.5"/>
<text text-anchor="middle" x="1608" y="-12.5" font-family="Helvetica,sans-Serif" font-size="10.00">alpaqa/export.h</text>
</a>
</g>
</g>
<!-- Node20&#45;&gt;Node21 -->
<g id="edge24_Node000020_Node000021" class="edge">
<title>Node20&#45;&gt;Node21</title>
<g id="a_edge24_Node000020_Node000021"><a xlink:title=" ">
<path fill="none" stroke="#63b8ff" d="M1219.79,-67.73C1302.31,-56.74 1464.95,-35.06 1551.2,-23.57"/>
<polygon fill="#63b8ff" stroke="#63b8ff" points="1551.87,-27.01 1561.32,-22.22 1550.95,-20.07 1551.87,-27.01"/>
</a>
</g>
</g>
<!-- Node22 -->
<g id="Node000022" class="node">
<title>Node22</title>
<g id="a_Node000022"><a xlink:title=" ">
<polygon fill="#e0e0e0" stroke="#999999" points="1205,-24.5 1137,-24.5 1137,-5.5 1205,-5.5 1205,-24.5"/>
<text text-anchor="middle" x="1171" y="-12.5" font-family="Helvetica,sans-Serif" font-size="10.00">filesystem</text>
</a>
</g>
</g>
<!-- Node20&#45;&gt;Node22 -->
<g id="edge25_Node000020_Node000022" class="edge">
<title>Node20&#45;&gt;Node22</title>
<g id="a_edge25_Node000020_Node000022"><a xlink:title=" ">
<path fill="none" stroke="#63b8ff" d="M1169.3,-65.87C1169.57,-57.75 1170,-45.31 1170.35,-34.89"/>
<polygon fill="#63b8ff" stroke="#63b8ff" points="1173.86,-34.78 1170.7,-24.67 1166.86,-34.54 1173.86,-34.78"/>
</a>
</g>
</g>
<!-- Node20&#45;&gt;Node23 -->
<g id="edge26_Node000020_Node000023" class="edge">
<title>Node20&#45;&gt;Node23</title>
<g id="a_edge26_Node000020_Node000023"><a xlink:title=" ">
<path fill="none" stroke="#63b8ff" d="M1157.34,-65.87C1144.86,-56.62 1124.82,-41.78 1109.84,-30.69"/>
<polygon fill="#63b8ff" stroke="#63b8ff" points="1111.82,-27.81 1101.7,-24.67 1107.66,-33.43 1111.82,-27.81"/>
</a>
</g>
</g>
<!-- Node28&#45;&gt;Node13 -->
<g id="edge41_Node000028_Node000013" class="edge">
<title>Node28&#45;&gt;Node13</title>
<g id="a_edge41_Node000028_Node000013"><a xlink:title=" ">
<path fill="none" stroke="#63b8ff" d="M1610.75,-130.08C1473.79,-119.33 1158.2,-93.98 1110,-85 1033.92,-70.83 947.25,-42.87 901.75,-27.25"/>
<polygon fill="#63b8ff" stroke="#63b8ff" points="902.75,-23.89 892.16,-23.92 900.46,-30.5 902.75,-23.89"/>
</a>
</g>
</g>
<!-- Node29 -->
<g id="Node000029" class="node">
<title>Node29</title>
<g id="a_Node000029"><a xlink:href="export_8hpp.html" target="_top" xlink:title=" ">
<polygon fill="white" stroke="#666666" points="1791.5,-85 1686.5,-85 1686.5,-66 1791.5,-66 1791.5,-85"/>
<text text-anchor="middle" x="1739" y="-73" font-family="Helvetica,sans-Serif" font-size="10.00">alpaqa/export.hpp</text>
</a>
</g>
</g>
<!-- Node28&#45;&gt;Node29 -->
<g id="edge39_Node000028_Node000029" class="edge">
<title>Node28&#45;&gt;Node29</title>
<g id="a_edge39_Node000028_Node000029"><a xlink:title=" ">
<path fill="none" stroke="#63b8ff" d="M1689.73,-120.84C1699.36,-112.17 1711.69,-101.08 1721.61,-92.15"/>
<polygon fill="#63b8ff" stroke="#63b8ff" points="1724.17,-94.56 1729.26,-85.27 1719.49,-89.35 1724.17,-94.56"/>
</a>
</g>
</g>
<!-- Node30 -->
<g id="Node000030" class="node">
<title>Node30</title>
<g id="a_Node000030"><a xlink:title=" ">
<polygon fill="#e0e0e0" stroke="#999999" points="1668.5,-85 1611.5,-85 1611.5,-66 1668.5,-66 1668.5,-85"/>
<text text-anchor="middle" x="1640" y="-73" font-family="Helvetica,sans-Serif" font-size="10.00">typeinfo</text>
</a>
</g>
</g>
<!-- Node28&#45;&gt;Node30 -->
<g id="edge42_Node000028_Node000030" class="edge">
<title>Node28&#45;&gt;Node30</title>
<g id="a_edge42_Node000028_Node000030"><a xlink:title=" ">
<path fill="none" stroke="#63b8ff" d="M1665.77,-120.84C1661.09,-112.78 1655.18,-102.62 1650.2,-94.06"/>
<polygon fill="#63b8ff" stroke="#63b8ff" points="1653.15,-92.15 1645.09,-85.27 1647.09,-95.67 1653.15,-92.15"/>
</a>
</g>
</g>
<!-- Node29&#45;&gt;Node21 -->
<g id="edge40_Node000029_Node000021" class="edge">
<title>Node29&#45;&gt;Node21</title>
<g id="a_edge40_Node000029_Node000021"><a xlink:title=" ">
<path fill="none" stroke="#63b8ff" d="M1719.95,-65.99C1698.03,-56.2 1661.79,-40.02 1636.5,-28.73"/>
<polygon fill="#63b8ff" stroke="#63b8ff" points="1637.63,-25.4 1627.07,-24.52 1634.78,-31.79 1637.63,-25.4"/>
</a>
</g>
</g>
</g>
</svg>

<g id="navigator" transform="translate(0 0)" fill="#404254">
  <rect fill="#f2f5e9" fill-opacity="0.5" stroke="#606060" stroke-width=".5" x="0" y="0" width="60" height="60"/>
  <use id="zoomplus" xlink:href="#zoomPlus" x="17" y="9" onmousedown="handleZoom(evt,'in')"/>
  <use id="zoomminus" xlink:href="#zoomMin" x="42" y="9" onmousedown="handleZoom(evt,'out')"/>
  <use id="reset" xlink:href="#resetDef" x="30" y="36" onmousedown="handleReset()"/>
   <use id="arrowup" xlink:href="#arrowUp" x="0" y="0" onmousedown="handlePan(0,-1)"/>
  <use id="arrowright" xlink:href="#arrowRight" x="0" y="0" onmousedown="handlePan(1,0)"/>
  <use id="arrowdown" xlink:href="#arrowDown" x="0" y="0" onmousedown="handlePan(0,1)"/>
  <use id="arrowleft" xlink:href="#arrowLeft" x="0" y="0" onmousedown="handlePan(-1,0)"/>
</g>
<svg viewBox="0 0 15 15" width="100%" height="30px" preserveAspectRatio="xMaxYMin meet">
 <g id="arrow_out" transform="scale(0.3 0.3)">
  <a xlink:href="CasADiLoader-util_8hpp__incl_org.svg" target="_base">
   <rect id="button" ry="5" rx="5" y="6" x="6" height="38" width="38"
        fill="#f2f5e9" fill-opacity="0.5" stroke="#606060" stroke-width="1.0"/>
   <path id="arrow"
     d="M 11.500037,31.436501 C 11.940474,20.09759 22.043105,11.32322 32.158766,21.979434 L 37.068811,17.246167 C 37.068811,17.246167 37.088388,32 37.088388,32 L 22.160133,31.978069 C 22.160133,31.978069 26.997745,27.140456 26.997745,27.140456 C 18.528582,18.264221 13.291696,25.230495 11.500037,31.436501 z"
     style="fill:#404040;"/>
  </a>
 </g>
</svg>

<style type='text/css'>
<![CDATA[
[data-mouse-over-selected='false'] { opacity: 0.7; }
[data-mouse-over-selected='true']  { opacity: 1.0; }
]]>
</style>
<script type="application/ecmascript"><![CDATA[
document.addEventListener('DOMContentLoaded', (event) => {
  highlightEdges();
  highlightAdjacentNodes();
});
]]></script>
</svg>
