<?xml version="1.0" encoding="UTF-8" standalone="no"?>
<!DOCTYPE svg PUBLIC "-//W3C//DTD SVG 1.1//EN"
 "http://www.w3.org/Graphics/SVG/1.1/DTD/svg11.dtd">
<!-- Generated by graphviz version 2.43.0 (0)
 -->
<!-- Title: src/interop/casadi/include/alpaqa/casadi/casadi&#45;external&#45;function.hpp Pages: 1 -->
<svg width="879pt" height="225pt"
 viewBox="0.00 0.00 879.00 225.00" xmlns="http://www.w3.org/2000/svg" xmlns:xlink="http://www.w3.org/1999/xlink">
<g id="graph0" class="graph" transform="scale(1 1) rotate(0) translate(4 221)">
<title>src/interop/casadi/include/alpaqa/casadi/casadi&#45;external&#45;function.hpp</title>
<!-- Node1 -->
<g id="Node000001" class="node">
<title>Node1</title>
<g id="a_Node000001"><a xlink:title=" ">
<polygon fill="#999999" stroke="#666666" points="661.5,-217 501.5,-217 501.5,-176 661.5,-176 661.5,-217"/>
<text text-anchor="start" x="509.5" y="-205" font-family="Helvetica,sans-Serif" font-size="10.00">src/interop/casadi</text>
<text text-anchor="start" x="509.5" y="-194" font-family="Helvetica,sans-Serif" font-size="10.00">/include/alpaqa/casadi</text>
<text text-anchor="middle" x="581.5" y="-183" font-family="Helvetica,sans-Serif" font-size="10.00">/casadi&#45;external&#45;function.hpp</text>
</a>
</g>
</g>
<!-- Node2 -->
<g id="Node000002" class="node">
<title>Node2</title>
<g id="a_Node000002"><a xlink:title=" ">
<polygon fill="#e0e0e0" stroke="#999999" points="120,-140 1,-140 1,-110 120,-110 120,-140"/>
<text text-anchor="start" x="9" y="-128" font-family="Helvetica,sans-Serif" font-size="10.00">alpaqa/casadi&#45;loader</text>
<text text-anchor="middle" x="60.5" y="-117" font-family="Helvetica,sans-Serif" font-size="10.00">&#45;export.h</text>
</a>
</g>
</g>
<!-- Node1&#45;&gt;Node2 -->
<g id="edge1_Node000001_Node000002" class="edge">
<title>Node1&#45;&gt;Node2</title>
<g id="a_edge1_Node000001_Node000002"><a xlink:title=" ">
<path fill="none" stroke="#63b8ff" d="M501.35,-187.1C411.72,-177.35 262.36,-160.01 134.5,-140 133.05,-139.77 131.58,-139.54 130.1,-139.3"/>
<polygon fill="#63b8ff" stroke="#63b8ff" points="130.66,-135.84 120.22,-137.63 129.5,-142.75 130.66,-135.84"/>
</a>
</g>
</g>
<!-- Node3 -->
<g id="Node000003" class="node">
<title>Node3</title>
<g id="a_Node000003"><a xlink:href="casadi-functions_8hpp.html" target="_top" xlink:title=" ">
<polygon fill="white" stroke="#666666" points="472.5,-134.5 354.5,-134.5 354.5,-115.5 472.5,-115.5 472.5,-134.5"/>
<text text-anchor="middle" x="413.5" y="-122.5" font-family="Helvetica,sans-Serif" font-size="10.00">casadi&#45;functions.hpp</text>
</a>
</g>
</g>
<!-- Node1&#45;&gt;Node3 -->
<g id="edge2_Node000001_Node000003" class="edge">
<title>Node1&#45;&gt;Node3</title>
<g id="a_edge2_Node000001_Node000003"><a xlink:title=" ">
<path fill="none" stroke="#63b8ff" d="M534.26,-175.96C505.13,-163.9 468.65,-148.81 443.45,-138.39"/>
<polygon fill="#63b8ff" stroke="#63b8ff" points="444.63,-135.09 434.06,-134.5 441.96,-141.56 444.63,-135.09"/>
</a>
</g>
</g>
<!-- Node4 -->
<g id="Node000004" class="node">
<title>Node4</title>
<g id="a_Node000004"><a xlink:href="casadi-namespace_8hpp.html" target="_top" xlink:title=" ">
<polygon fill="white" stroke="#666666" points="129,-19 0,-19 0,0 129,0 129,-19"/>
<text text-anchor="middle" x="64.5" y="-7" font-family="Helvetica,sans-Serif" font-size="10.00">casadi&#45;namespace.hpp</text>
</a>
</g>
</g>
<!-- Node1&#45;&gt;Node4 -->
<g id="edge15_Node000001_Node000004" class="edge">
<title>Node1&#45;&gt;Node4</title>
<g id="a_edge15_Node000001_Node000004"><a xlink:title=" ">
<path fill="none" stroke="#63b8ff" d="M501.16,-181.09C414.43,-163.54 273.77,-129.2 162.5,-74 133.81,-59.77 103.21,-38.92 83.98,-25.04"/>
<polygon fill="#63b8ff" stroke="#63b8ff" points="85.89,-22.1 75.75,-19.02 81.76,-27.75 85.89,-22.1"/>
</a>
</g>
</g>
<!-- Node12 -->
<g id="Node000012" class="node">
<title>Node12</title>
<g id="a_Node000012"><a xlink:title=" ">
<polygon fill="#e0e0e0" stroke="#999999" points="607.5,-19 549.5,-19 549.5,0 607.5,0 607.5,-19"/>
<text text-anchor="middle" x="578.5" y="-7" font-family="Helvetica,sans-Serif" font-size="10.00">memory</text>
</a>
</g>
</g>
<!-- Node1&#45;&gt;Node12 -->
<g id="edge17_Node000001_Node000012" class="edge">
<title>Node1&#45;&gt;Node12</title>
<g id="a_edge17_Node000001_Node000012"><a xlink:title=" ">
<path fill="none" stroke="#63b8ff" d="M581.18,-175.7C580.6,-139.86 579.38,-64.67 578.81,-29.46"/>
<polygon fill="#63b8ff" stroke="#63b8ff" points="582.3,-29.1 578.64,-19.16 575.3,-29.21 582.3,-29.1"/>
</a>
</g>
</g>
<!-- Node13 -->
<g id="Node000013" class="node">
<title>Node13</title>
<g id="a_Node000013"><a xlink:title=" ">
<polygon fill="#e0e0e0" stroke="#999999" points="691,-19 626,-19 626,0 691,0 691,-19"/>
<text text-anchor="middle" x="658.5" y="-7" font-family="Helvetica,sans-Serif" font-size="10.00">stdexcept</text>
</a>
</g>
</g>
<!-- Node1&#45;&gt;Node13 -->
<g id="edge20_Node000001_Node000013" class="edge">
<title>Node1&#45;&gt;Node13</title>
<g id="a_edge20_Node000001_Node000013"><a xlink:title=" ">
<path fill="none" stroke="#63b8ff" d="M589.74,-175.7C604.79,-139.55 636.5,-63.36 650.99,-28.55"/>
<polygon fill="#63b8ff" stroke="#63b8ff" points="654.28,-29.74 654.9,-19.16 647.82,-27.05 654.28,-29.74"/>
</a>
</g>
</g>
<!-- Node14 -->
<g id="Node000014" class="node">
<title>Node14</title>
<g id="a_Node000014"><a xlink:title=" ">
<polygon fill="#e0e0e0" stroke="#999999" points="534.5,-74 482.5,-74 482.5,-55 534.5,-55 534.5,-74"/>
<text text-anchor="middle" x="508.5" y="-62" font-family="Helvetica,sans-Serif" font-size="10.00">cassert</text>
</a>
</g>
</g>
<!-- Node1&#45;&gt;Node14 -->
<g id="edge16_Node000001_Node000014" class="edge">
<title>Node1&#45;&gt;Node14</title>
<g id="a_edge16_Node000001_Node000014"><a xlink:title=" ">
<path fill="none" stroke="#63b8ff" d="M569.53,-175.84C563.17,-165.28 555.29,-152 548.5,-140 537.7,-120.9 525.87,-98.7 517.9,-83.53"/>
<polygon fill="#63b8ff" stroke="#63b8ff" points="520.8,-81.52 513.06,-74.28 514.6,-84.77 520.8,-81.52"/>
</a>
</g>
</g>
<!-- Node15 -->
<g id="Node000015" class="node">
<title>Node15</title>
<g id="a_Node000015"><a xlink:title=" ">
<polygon fill="#e0e0e0" stroke="#999999" points="684.5,-134.5 628.5,-134.5 628.5,-115.5 684.5,-115.5 684.5,-134.5"/>
<text text-anchor="middle" x="656.5" y="-122.5" font-family="Helvetica,sans-Serif" font-size="10.00">optional</text>
</a>
</g>
</g>
<!-- Node1&#45;&gt;Node15 -->
<g id="edge18_Node000001_Node000015" class="edge">
<title>Node1&#45;&gt;Node15</title>
<g id="a_edge18_Node000001_Node000015"><a xlink:title=" ">
<path fill="none" stroke="#63b8ff" d="M602.79,-175.77C614.39,-165.02 628.54,-151.91 639.41,-141.84"/>
<polygon fill="#63b8ff" stroke="#63b8ff" points="642.03,-144.18 646.98,-134.82 637.27,-139.05 642.03,-144.18"/>
</a>
</g>
</g>
<!-- Node16 -->
<g id="Node000016" class="node">
<title>Node16</title>
<g id="a_Node000016"><a xlink:title=" ">
<polygon fill="#e0e0e0" stroke="#999999" points="742.5,-134.5 702.5,-134.5 702.5,-115.5 742.5,-115.5 742.5,-134.5"/>
<text text-anchor="middle" x="722.5" y="-122.5" font-family="Helvetica,sans-Serif" font-size="10.00">span</text>
</a>
</g>
</g>
<!-- Node1&#45;&gt;Node16 -->
<g id="edge19_Node000001_Node000016" class="edge">
<title>Node1&#45;&gt;Node16</title>
<g id="a_edge19_Node000001_Node000016"><a xlink:title=" ">
<path fill="none" stroke="#63b8ff" d="M621.15,-175.96C645.17,-164.12 675.13,-149.35 696.23,-138.95"/>
<polygon fill="#63b8ff" stroke="#63b8ff" points="697.83,-142.06 705.25,-134.5 694.73,-135.79 697.83,-142.06"/>
</a>
</g>
</g>
<!-- Node17 -->
<g id="Node000017" class="node">
<title>Node17</title>
<g id="a_Node000017"><a xlink:title=" ">
<polygon fill="#e0e0e0" stroke="#999999" points="806,-134.5 761,-134.5 761,-115.5 806,-115.5 806,-134.5"/>
<text text-anchor="middle" x="783.5" y="-122.5" font-family="Helvetica,sans-Serif" font-size="10.00">utility</text>
</a>
</g>
</g>
<!-- Node1&#45;&gt;Node17 -->
<g id="edge21_Node000001_Node000017" class="edge">
<title>Node1&#45;&gt;Node17</title>
<g id="a_edge21_Node000001_Node000017"><a xlink:title=" ">
<path fill="none" stroke="#63b8ff" d="M646.6,-175.87C678.47,-165.85 717.26,-153.04 751.5,-140 752.71,-139.54 753.94,-139.06 755.18,-138.56"/>
<polygon fill="#63b8ff" stroke="#63b8ff" points="756.8,-141.68 764.67,-134.6 754.1,-135.22 756.8,-141.68"/>
</a>
</g>
</g>
<!-- Node18 -->
<g id="Node000018" class="node">
<title>Node18</title>
<g id="a_Node000018"><a xlink:title=" ">
<polygon fill="#e0e0e0" stroke="#999999" points="871,-134.5 824,-134.5 824,-115.5 871,-115.5 871,-134.5"/>
<text text-anchor="middle" x="847.5" y="-122.5" font-family="Helvetica,sans-Serif" font-size="10.00">vector</text>
</a>
</g>
</g>
<!-- Node1&#45;&gt;Node18 -->
<g id="edge22_Node000001_Node000018" class="edge">
<title>Node1&#45;&gt;Node18</title>
<g id="a_edge22_Node000001_Node000018"><a xlink:title=" ">
<path fill="none" stroke="#63b8ff" d="M661.56,-180.23C707.23,-170.6 765.21,-156.81 815.5,-140 816.94,-139.52 818.4,-139 819.87,-138.45"/>
<polygon fill="#63b8ff" stroke="#63b8ff" points="821.49,-141.57 829.45,-134.57 818.86,-135.08 821.49,-141.57"/>
</a>
</g>
</g>
<!-- Node3&#45;&gt;Node4 -->
<g id="edge3_Node000003_Node000004" class="edge">
<title>Node3&#45;&gt;Node4</title>
<g id="a_edge3_Node000003_Node000004"><a xlink:title=" ">
<path fill="none" stroke="#63b8ff" d="M367.35,-115.49C324.73,-107.03 259.97,-92.63 205.5,-74 202.62,-73.01 132.92,-41.5 92.62,-23.24"/>
<polygon fill="#63b8ff" stroke="#63b8ff" points="93.86,-19.96 83.3,-19.02 90.97,-26.34 93.86,-19.96"/>
</a>
</g>
</g>
<!-- Node5 -->
<g id="Node000005" class="node">
<title>Node5</title>
<g id="a_Node000005"><a xlink:href="casadi-types_8hpp.html" target="_top" xlink:title=" ">
<polygon fill="white" stroke="#666666" points="314.5,-74 214.5,-74 214.5,-55 314.5,-55 314.5,-74"/>
<text text-anchor="middle" x="264.5" y="-62" font-family="Helvetica,sans-Serif" font-size="10.00">casadi&#45;types.hpp</text>
</a>
</g>
</g>
<!-- Node3&#45;&gt;Node5 -->
<g id="edge4_Node000003_Node000005" class="edge">
<title>Node3&#45;&gt;Node5</title>
<g id="a_edge4_Node000003_Node000005"><a xlink:title=" ">
<path fill="none" stroke="#63b8ff" d="M391.83,-115.49C366.56,-105.57 324.59,-89.09 295.78,-77.78"/>
<polygon fill="#63b8ff" stroke="#63b8ff" points="296.78,-74.41 286.19,-74.02 294.22,-80.93 296.78,-74.41"/>
</a>
</g>
</g>
<!-- Node9 -->
<g id="Node000009" class="node">
<title>Node9</title>
<g id="a_Node000009"><a xlink:href="dl_8hpp.html" target="_top" xlink:title=" ">
<polygon fill="white" stroke="#666666" points="464,-74 363,-74 363,-55 464,-55 464,-74"/>
<text text-anchor="middle" x="413.5" y="-62" font-family="Helvetica,sans-Serif" font-size="10.00">alpaqa/util/dl.hpp</text>
</a>
</g>
</g>
<!-- Node3&#45;&gt;Node9 -->
<g id="edge9_Node000003_Node000009" class="edge">
<title>Node3&#45;&gt;Node9</title>
<g id="a_edge9_Node000003_Node000009"><a xlink:title=" ">
<path fill="none" stroke="#63b8ff" d="M413.5,-115.37C413.5,-107.25 413.5,-94.81 413.5,-84.39"/>
<polygon fill="#63b8ff" stroke="#63b8ff" points="417,-84.17 413.5,-74.17 410,-84.17 417,-84.17"/>
</a>
</g>
</g>
<!-- Node3&#45;&gt;Node14 -->
<g id="edge14_Node000003_Node000014" class="edge">
<title>Node3&#45;&gt;Node14</title>
<g id="a_edge14_Node000003_Node000014"><a xlink:title=" ">
<path fill="none" stroke="#63b8ff" d="M427.52,-115.37C442.81,-105.95 467.53,-90.73 485.64,-79.58"/>
<polygon fill="#63b8ff" stroke="#63b8ff" points="487.75,-82.39 494.42,-74.17 484.07,-76.43 487.75,-82.39"/>
</a>
</g>
</g>
<!-- Node5&#45;&gt;Node4 -->
<g id="edge8_Node000005_Node000004" class="edge">
<title>Node5&#45;&gt;Node4</title>
<g id="a_edge8_Node000005_Node000004"><a xlink:title=" ">
<path fill="none" stroke="#63b8ff" d="M232.37,-54.98C198.35,-45.97 144.5,-31.7 107,-21.76"/>
<polygon fill="#63b8ff" stroke="#63b8ff" points="107.45,-18.26 96.89,-19.08 105.66,-25.03 107.45,-18.26"/>
</a>
</g>
</g>
<!-- Node6 -->
<g id="Node000006" class="node">
<title>Node6</title>
<g id="a_Node000006"><a xlink:title=" ">
<polygon fill="#e0e0e0" stroke="#999999" points="211.5,-19 147.5,-19 147.5,0 211.5,0 211.5,-19"/>
<text text-anchor="middle" x="179.5" y="-7" font-family="Helvetica,sans-Serif" font-size="10.00">algorithm</text>
</a>
</g>
</g>
<!-- Node5&#45;&gt;Node6 -->
<g id="edge5_Node000005_Node000006" class="edge">
<title>Node5&#45;&gt;Node6</title>
<g id="a_edge5_Node000005_Node000006"><a xlink:title=" ">
<path fill="none" stroke="#63b8ff" d="M250.84,-54.98C237.66,-46.77 217.47,-34.18 201.93,-24.49"/>
<polygon fill="#63b8ff" stroke="#63b8ff" points="203.74,-21.49 193.41,-19.17 200.04,-27.43 203.74,-21.49"/>
</a>
</g>
</g>
<!-- Node7 -->
<g id="Node000007" class="node">
<title>Node7</title>
<g id="a_Node000007"><a xlink:title=" ">
<polygon fill="#e0e0e0" stroke="#999999" points="271.5,-19 229.5,-19 229.5,0 271.5,0 271.5,-19"/>
<text text-anchor="middle" x="250.5" y="-7" font-family="Helvetica,sans-Serif" font-size="10.00">array</text>
</a>
</g>
</g>
<!-- Node5&#45;&gt;Node7 -->
<g id="edge6_Node000005_Node000007" class="edge">
<title>Node5&#45;&gt;Node7</title>
<g id="a_edge6_Node000005_Node000007"><a xlink:title=" ">
<path fill="none" stroke="#63b8ff" d="M262.19,-54.75C260.33,-47.72 257.66,-37.62 255.35,-28.84"/>
<polygon fill="#63b8ff" stroke="#63b8ff" points="258.71,-27.86 252.77,-19.09 251.94,-29.65 258.71,-27.86"/>
</a>
</g>
</g>
<!-- Node8 -->
<g id="Node000008" class="node">
<title>Node8</title>
<g id="a_Node000008"><a xlink:title=" ">
<polygon fill="#e0e0e0" stroke="#999999" points="333.5,-19 289.5,-19 289.5,0 333.5,0 333.5,-19"/>
<text text-anchor="middle" x="311.5" y="-7" font-family="Helvetica,sans-Serif" font-size="10.00">string</text>
</a>
</g>
</g>
<!-- Node5&#45;&gt;Node8 -->
<g id="edge7_Node000005_Node000008" class="edge">
<title>Node5&#45;&gt;Node8</title>
<g id="a_edge7_Node000005_Node000008"><a xlink:title=" ">
<path fill="none" stroke="#63b8ff" d="M272.26,-54.75C278.97,-47.18 288.84,-36.05 297.01,-26.84"/>
<polygon fill="#63b8ff" stroke="#63b8ff" points="299.87,-28.89 303.88,-19.09 294.63,-24.25 299.87,-28.89"/>
</a>
</g>
</g>
<!-- Node10 -->
<g id="Node000010" class="node">
<title>Node10</title>
<g id="a_Node000010"><a xlink:title=" ">
<polygon fill="#e0e0e0" stroke="#999999" points="445,-19 352,-19 352,0 445,0 445,-19"/>
<text text-anchor="middle" x="398.5" y="-7" font-family="Helvetica,sans-Serif" font-size="10.00">alpaqa/export.h</text>
</a>
</g>
</g>
<!-- Node9&#45;&gt;Node10 -->
<g id="edge10_Node000009_Node000010" class="edge">
<title>Node9&#45;&gt;Node10</title>
<g id="a_edge10_Node000009_Node000010"><a xlink:title=" ">
<path fill="none" stroke="#63b8ff" d="M411.02,-54.75C409.04,-47.72 406.18,-37.62 403.69,-28.84"/>
<polygon fill="#63b8ff" stroke="#63b8ff" points="407.02,-27.76 400.93,-19.09 400.29,-29.66 407.02,-27.76"/>
</a>
</g>
</g>
<!-- Node11 -->
<g id="Node000011" class="node">
<title>Node11</title>
<g id="a_Node000011"><a xlink:title=" ">
<polygon fill="#e0e0e0" stroke="#999999" points="531.5,-19 463.5,-19 463.5,0 531.5,0 531.5,-19"/>
<text text-anchor="middle" x="497.5" y="-7" font-family="Helvetica,sans-Serif" font-size="10.00">filesystem</text>
</a>
</g>
</g>
<!-- Node9&#45;&gt;Node11 -->
<g id="edge11_Node000009_Node000011" class="edge">
<title>Node9&#45;&gt;Node11</title>
<g id="a_edge11_Node000009_Node000011"><a xlink:title=" ">
<path fill="none" stroke="#63b8ff" d="M427,-54.98C439.9,-46.84 459.6,-34.41 474.9,-24.76"/>
<polygon fill="#63b8ff" stroke="#63b8ff" points="477.17,-27.47 483.76,-19.17 473.43,-21.55 477.17,-27.47"/>
</a>
</g>
</g>
<!-- Node9&#45;&gt;Node12 -->
<g id="edge12_Node000009_Node000012" class="edge">
<title>Node9&#45;&gt;Node12</title>
<g id="a_edge12_Node000009_Node000012"><a xlink:title=" ">
<path fill="none" stroke="#63b8ff" d="M440.01,-54.98C467.71,-46.09 511.36,-32.07 542.24,-22.15"/>
<polygon fill="#63b8ff" stroke="#63b8ff" points="543.33,-25.47 551.78,-19.08 541.19,-18.81 543.33,-25.47"/>
</a>
</g>
</g>
<!-- Node9&#45;&gt;Node13 -->
<g id="edge13_Node000009_Node000013" class="edge">
<title>Node9&#45;&gt;Node13</title>
<g id="a_edge13_Node000009_Node000013"><a xlink:title=" ">
<path fill="none" stroke="#63b8ff" d="M452.86,-54.98C497.51,-45.33 570.04,-29.64 615.96,-19.7"/>
<polygon fill="#63b8ff" stroke="#63b8ff" points="616.86,-23.09 625.9,-17.55 615.38,-16.25 616.86,-23.09"/>
</a>
</g>
</g>
</g>
</svg>
