<?xml version="1.0" encoding="UTF-8" standalone="no"?>
<!DOCTYPE svg PUBLIC "-//W3C//DTD SVG 1.1//EN"
 "http://www.w3.org/Graphics/SVG/1.1/DTD/svg11.dtd">
<!-- Generated by graphviz version 2.43.0 (0)
 -->
<!-- Title: src/interop/casadi/include/alpaqa/casadi/CasADiProblem.hpp Pages: 1 -->
<!--zoomable 302 -->

<svg id="main" version="1.1" xmlns="http://www.w3.org/2000/svg" xmlns:xlink="http://www.w3.org/1999/xlink" xml:space="preserve" onload="init(evt)">
<style type="text/css"><![CDATA[
.node, .edge {opacity: 0.7;}
.node.selected, .edge.selected {opacity: 1;}
.edge:hover path { stroke: red; }
.edge:hover polygon { stroke: red; fill: red; }
]]></style>

<defs>
  <circle id="rim" cx="0" cy="0" r="7"/>
  <circle id="rim2" cx="0" cy="0" r="3.5"/>
  <g id="zoomPlus">
    <use xlink:href="#rim" fill="#404040"><set attributeName="fill" to="#808080" begin="zoomplus.mouseover" end="zoomplus.mouseout"/></use>
    <path d="M-4,0h8M0,-4v8" fill="none" stroke="white" stroke-width="1.5" pointer-events="none"/>
  </g>
  <g id="zoomMin">
    <use xlink:href="#rim" fill="#404040"><set attributeName="fill" to="#808080" begin="zoomminus.mouseover" end="zoomminus.mouseout"/></use>
    <path d="M-4,0h8" fill="none" stroke="white" stroke-width="1.5" pointer-events="none"/>
  </g>
  <g id="arrowUp" transform="translate(30 24)">
    <use xlink:href="#rim"/>
    <path pointer-events="none" fill="none" stroke="white" stroke-width="1.5" d="M0,-3.0v7 M-2.5,-0.5L0,-3.0L2.5,-0.5"/>
  </g>
  <g id="arrowRight" transform="rotate(90) translate(36 -43)">
    <use xlink:href="#rim"/>
    <path pointer-events="none" fill="none" stroke="white" stroke-width="1.5" d="M0,-3.0v7 M-2.5,-0.5L0,-3.0L2.5,-0.5"/>
  </g>
  <g id="arrowDown" transform="rotate(180) translate(-30 -48)">
    <use xlink:href="#rim"/>
    <path pointer-events="none" fill="none" stroke="white" stroke-width="1.5" d="M0,-3.0v7 M-2.5,-0.5L0,-3.0L2.5,-0.5"/>
  </g>
  <g id="arrowLeft" transform="rotate(270) translate(-36 17)">
    <use xlink:href="#rim"/>
    <path pointer-events="none" fill="none" stroke="white" stroke-width="1.5" d="M0,-3.0v7 M-2.5,-0.5L0,-3.0L2.5,-0.5"/>
  </g>
  <g id="resetDef">
    <use xlink:href="#rim2" fill="#404040"><set attributeName="fill" to="#808080" begin="reset.mouseover" end="reset.mouseout"/></use>
  </g>
</defs>
<script type="application/ecmascript">
var viewWidth = 1605;
var viewHeight = 302;
var sectionId = 'dynsection-0';
</script>
<script type="application/ecmascript" xlink:href="svg.min.js"/>
<svg id="graph" class="graph">
<g id="viewport">
<title>src/interop/casadi/include/alpaqa/casadi/CasADiProblem.hpp</title>
<!-- Node1 -->
<g id="Node000001" class="node">
<title>Node1</title>
<g id="a_Node000001"><a xlink:title=" ">
<polygon fill="#999999" stroke="#666666" points="1105,-294 980,-294 980,-253 1105,-253 1105,-294"/>
<text text-anchor="start" x="988" y="-282" font-family="Helvetica,sans-Serif" font-size="10.00">src/interop/casadi</text>
<text text-anchor="start" x="988" y="-271" font-family="Helvetica,sans-Serif" font-size="10.00">/include/alpaqa/casadi</text>
<text text-anchor="middle" x="1042.5" y="-260" font-family="Helvetica,sans-Serif" font-size="10.00">/CasADiProblem.hpp</text>
</a>
</g>
</g>
<!-- Node2 -->
<g id="Node000002" class="node">
<title>Node2</title>
<g id="a_Node000002"><a xlink:href="casadi-loader-export_8hpp.html" target="_top" xlink:title=" ">
<polygon fill="white" stroke="#666666" points="863,-217 744,-217 744,-187 863,-187 863,-217"/>
<text text-anchor="start" x="752" y="-205" font-family="Helvetica,sans-Serif" font-size="10.00">alpaqa/casadi&#45;loader</text>
<text text-anchor="middle" x="803.5" y="-194" font-family="Helvetica,sans-Serif" font-size="10.00">&#45;export.hpp</text>
</a>
</g>
</g>
<!-- Node1&#45;&gt;Node2 -->
<g id="edge1_Node000001_Node000002" class="edge">
<title>Node1&#45;&gt;Node2</title>
<g id="a_edge1_Node000001_Node000002"><a xlink:title=" ">
<path fill="none" stroke="#63b8ff" d="M979.71,-254.24C943.17,-243.62 897.43,-230.31 861.71,-219.93"/>
<polygon fill="#63b8ff" stroke="#63b8ff" points="862.49,-216.51 851.91,-217.08 860.54,-223.23 862.49,-216.51"/>
</a>
</g>
</g>
<!-- Node4 -->
<g id="Node000004" class="node">
<title>Node4</title>
<g id="a_Node000004"><a xlink:href="casadi-namespace_8hpp.html" target="_top" xlink:title=" ">
<polygon fill="white" stroke="#666666" points="1578,-30 1459,-30 1459,0 1578,0 1578,-30"/>
<text text-anchor="start" x="1467" y="-18" font-family="Helvetica,sans-Serif" font-size="10.00">alpaqa/casadi/casadi</text>
<text text-anchor="middle" x="1518.5" y="-7" font-family="Helvetica,sans-Serif" font-size="10.00">&#45;namespace.hpp</text>
</a>
</g>
</g>
<!-- Node1&#45;&gt;Node4 -->
<g id="edge3_Node000001_Node000004" class="edge">
<title>Node1&#45;&gt;Node4</title>
<g id="a_edge3_Node000001_Node000004"><a xlink:title=" ">
<path fill="none" stroke="#63b8ff" d="M1105.1,-270.65C1239.94,-266.01 1548.21,-251.69 1579.5,-217 1626.25,-165.17 1569,-78.5 1537.13,-38.05"/>
<polygon fill="#63b8ff" stroke="#63b8ff" points="1539.76,-35.73 1530.76,-30.14 1534.31,-40.13 1539.76,-35.73"/>
</a>
</g>
</g>
<!-- Node5 -->
<g id="Node000005" class="node">
<title>Node5</title>
<g id="a_Node000005"><a xlink:href="config_8hpp.html" target="_top" xlink:title=" ">
<polygon fill="white" stroke="#666666" points="444,-85 309,-85 309,-66 444,-66 444,-85"/>
<text text-anchor="middle" x="376.5" y="-73" font-family="Helvetica,sans-Serif" font-size="10.00">alpaqa/config/config.hpp</text>
</a>
</g>
</g>
<!-- Node1&#45;&gt;Node5 -->
<g id="edge4_Node000001_Node000005" class="edge">
<title>Node1&#45;&gt;Node5</title>
<g id="a_edge4_Node000001_Node000005"><a xlink:title=" ">
<path fill="none" stroke="#63b8ff" d="M979.81,-270.7C831.35,-265.9 467.53,-250.78 424.5,-217 405.01,-201.7 387.72,-130.13 380.32,-95.44"/>
<polygon fill="#63b8ff" stroke="#63b8ff" points="383.66,-94.31 378.2,-85.23 376.81,-95.73 383.66,-94.31"/>
</a>
</g>
</g>
<!-- Node12 -->
<g id="Node000012" class="node">
<title>Node12</title>
<g id="a_Node000012"><a xlink:href="box-constr-problem_8hpp.html" target="_top" xlink:title=" ">
<polygon fill="white" stroke="#666666" points="652.5,-217 536.5,-217 536.5,-187 652.5,-187 652.5,-217"/>
<text text-anchor="start" x="544.5" y="-205" font-family="Helvetica,sans-Serif" font-size="10.00">alpaqa/problem/box</text>
<text text-anchor="middle" x="594.5" y="-194" font-family="Helvetica,sans-Serif" font-size="10.00">&#45;constr&#45;problem.hpp</text>
</a>
</g>
</g>
<!-- Node1&#45;&gt;Node12 -->
<g id="edge11_Node000001_Node000012" class="edge">
<title>Node1&#45;&gt;Node12</title>
<g id="a_edge11_Node000001_Node000012"><a xlink:title=" ">
<path fill="none" stroke="#63b8ff" d="M979.74,-262.76C896.11,-249.79 748.72,-226.92 662.52,-213.55"/>
<polygon fill="#63b8ff" stroke="#63b8ff" points="662.99,-210.08 652.57,-212.01 661.92,-217 662.99,-210.08"/>
</a>
</g>
</g>
<!-- Node20 -->
<g id="Node000020" class="node">
<title>Node20</title>
<g id="a_Node000020"><a xlink:title=" ">
<polygon fill="#e0e0e0" stroke="#999999" points="779.5,-24.5 735.5,-24.5 735.5,-5.5 779.5,-5.5 779.5,-24.5"/>
<text text-anchor="middle" x="757.5" y="-12.5" font-family="Helvetica,sans-Serif" font-size="10.00">string</text>
</a>
</g>
</g>
<!-- Node1&#45;&gt;Node20 -->
<g id="edge37_Node000001_Node000020" class="edge">
<title>Node1&#45;&gt;Node20</title>
<g id="a_edge37_Node000001_Node000020"><a xlink:title=" ">
<path fill="none" stroke="#63b8ff" d="M979.99,-270.72C860.97,-266.52 606.63,-253.45 527.5,-217 488.66,-199.11 474.44,-190.26 457.5,-151 405.56,-30.64 602.38,-72.19 726.5,-30 727.9,-29.52 729.32,-29.01 730.74,-28.47"/>
<polygon fill="#63b8ff" stroke="#63b8ff" points="732.15,-31.67 740.03,-24.6 729.46,-25.21 732.15,-31.67"/>
</a>
</g>
</g>
<!-- Node22 -->
<g id="Node000022" class="node">
<title>Node22</title>
<g id="a_Node000022"><a xlink:href="sparsity_8hpp.html" target="_top" xlink:title=" ">
<polygon fill="white" stroke="#666666" points="1022,-145.5 867,-145.5 867,-126.5 1022,-126.5 1022,-145.5"/>
<text text-anchor="middle" x="944.5" y="-133.5" font-family="Helvetica,sans-Serif" font-size="10.00">alpaqa/problem/sparsity.hpp</text>
</a>
</g>
</g>
<!-- Node1&#45;&gt;Node22 -->
<g id="edge26_Node000001_Node000022" class="edge">
<title>Node1&#45;&gt;Node22</title>
<g id="a_edge26_Node000001_Node000022"><a xlink:title=" ">
<path fill="none" stroke="#63b8ff" d="M1028.25,-252.8C1008.96,-226.13 974.87,-178.99 956.7,-153.87"/>
<polygon fill="#63b8ff" stroke="#63b8ff" points="959.48,-151.74 950.78,-145.69 953.81,-155.84 959.48,-151.74"/>
</a>
</g>
</g>
<!-- Node27 -->
<g id="Node000027" class="node">
<title>Node27</title>
<g id="a_Node000027"><a xlink:href="copyable__unique__ptr_8hpp.html" target="_top" xlink:title=" ">
<polygon fill="white" stroke="#666666" points="1395.5,-217 1279.5,-217 1279.5,-187 1395.5,-187 1395.5,-217"/>
<text text-anchor="start" x="1287.5" y="-205" font-family="Helvetica,sans-Serif" font-size="10.00">alpaqa/util/copyable</text>
<text text-anchor="middle" x="1337.5" y="-194" font-family="Helvetica,sans-Serif" font-size="10.00">_unique_ptr.hpp</text>
</a>
</g>
</g>
<!-- Node1&#45;&gt;Node27 -->
<g id="edge33_Node000001_Node000027" class="edge">
<title>Node1&#45;&gt;Node27</title>
<g id="a_edge33_Node000001_Node000027"><a xlink:title=" ">
<path fill="none" stroke="#63b8ff" d="M1105.06,-257.76C1153.16,-246.43 1219.55,-230.79 1269.06,-219.12"/>
<polygon fill="#63b8ff" stroke="#63b8ff" points="1270.11,-222.47 1279.04,-216.77 1268.51,-215.66 1270.11,-222.47"/>
</a>
</g>
</g>
<!-- Node29 -->
<g id="Node000029" class="node">
<title>Node29</title>
<g id="a_Node000029"><a xlink:title=" ">
<polygon fill="#e0e0e0" stroke="#999999" points="1380.5,-24.5 1312.5,-24.5 1312.5,-5.5 1380.5,-5.5 1380.5,-24.5"/>
<text text-anchor="middle" x="1346.5" y="-12.5" font-family="Helvetica,sans-Serif" font-size="10.00">filesystem</text>
</a>
</g>
</g>
<!-- Node1&#45;&gt;Node29 -->
<g id="edge35_Node000001_Node000029" class="edge">
<title>Node1&#45;&gt;Node29</title>
<g id="a_edge35_Node000001_Node000029"><a xlink:title=" ">
<path fill="none" stroke="#63b8ff" d="M1105,-271C1196.73,-267.49 1361.59,-255.82 1404.5,-217 1455.44,-170.91 1472.48,-125.12 1437.5,-66 1430.64,-54.41 1400.79,-39.32 1377.12,-28.76"/>
<polygon fill="#63b8ff" stroke="#63b8ff" points="1378.33,-25.47 1367.77,-24.67 1375.53,-31.88 1378.33,-25.47"/>
</a>
</g>
</g>
<!-- Node30 -->
<g id="Node000030" class="node">
<title>Node30</title>
<g id="a_Node000030"><a xlink:title=" ">
<polygon fill="#e0e0e0" stroke="#999999" points="1570.5,-211.5 1532.5,-211.5 1532.5,-192.5 1570.5,-192.5 1570.5,-211.5"/>
<text text-anchor="middle" x="1551.5" y="-199.5" font-family="Helvetica,sans-Serif" font-size="10.00">map</text>
</a>
</g>
</g>
<!-- Node1&#45;&gt;Node30 -->
<g id="edge36_Node000001_Node000030" class="edge">
<title>Node1&#45;&gt;Node30</title>
<g id="a_edge36_Node000001_Node000030"><a xlink:title=" ">
<path fill="none" stroke="#63b8ff" d="M1105.17,-270.86C1197.21,-267.18 1373.72,-255.3 1518.5,-217 1520.44,-216.49 1522.42,-215.88 1524.39,-215.21"/>
<polygon fill="#63b8ff" stroke="#63b8ff" points="1525.94,-218.37 1534.02,-211.51 1523.43,-211.83 1525.94,-218.37"/>
</a>
</g>
</g>
<!-- Node31 -->
<g id="Node000031" class="node">
<title>Node31</title>
<g id="a_Node000031"><a xlink:href="casadi-external-function_8hpp.html" target="_top" xlink:title=" ">
<polygon fill="white" stroke="#666666" points="1151,-217 1026,-217 1026,-187 1151,-187 1151,-217"/>
<text text-anchor="start" x="1034" y="-205" font-family="Helvetica,sans-Serif" font-size="10.00">alpaqa/casadi/casadi</text>
<text text-anchor="middle" x="1088.5" y="-194" font-family="Helvetica,sans-Serif" font-size="10.00">&#45;external&#45;function.hpp</text>
</a>
</g>
</g>
<!-- Node1&#45;&gt;Node31 -->
<g id="edge38_Node000001_Node000031" class="edge">
<title>Node1&#45;&gt;Node31</title>
<g id="a_edge38_Node000001_Node000031"><a xlink:title=" ">
<path fill="none" stroke="#63b8ff" d="M1055.56,-252.77C1061.16,-244.31 1067.73,-234.38 1073.52,-225.63"/>
<polygon fill="#63b8ff" stroke="#63b8ff" points="1076.61,-227.31 1079.21,-217.04 1070.77,-223.45 1076.61,-227.31"/>
</a>
</g>
</g>
<!-- Node3 -->
<g id="Node000003" class="node">
<title>Node3</title>
<g id="a_Node000003"><a xlink:title=" ">
<polygon fill="#e0e0e0" stroke="#999999" points="810,-151 691,-151 691,-121 810,-121 810,-151"/>
<text text-anchor="start" x="699" y="-139" font-family="Helvetica,sans-Serif" font-size="10.00">alpaqa/casadi&#45;loader</text>
<text text-anchor="middle" x="750.5" y="-128" font-family="Helvetica,sans-Serif" font-size="10.00">&#45;export.h</text>
</a>
</g>
</g>
<!-- Node2&#45;&gt;Node3 -->
<g id="edge2_Node000002_Node000003" class="edge">
<title>Node2&#45;&gt;Node3</title>
<g id="a_edge2_Node000002_Node000003"><a xlink:title=" ">
<path fill="none" stroke="#63b8ff" d="M791.74,-186.8C784.94,-178.59 776.26,-168.1 768.61,-158.87"/>
<polygon fill="#63b8ff" stroke="#63b8ff" points="771.3,-156.63 762.23,-151.16 765.91,-161.1 771.3,-156.63"/>
</a>
</g>
</g>
<!-- Node6 -->
<g id="Node000006" class="node">
<title>Node6</title>
<g id="a_Node000006"><a xlink:href="quadmath-print_8hpp.html" target="_top" xlink:title=" ">
<polygon fill="white" stroke="#666666" points="639,-30 518,-30 518,0 639,0 639,-30"/>
<text text-anchor="start" x="526" y="-18" font-family="Helvetica,sans-Serif" font-size="10.00">alpaqa/util/quadmath</text>
<text text-anchor="middle" x="578.5" y="-7" font-family="Helvetica,sans-Serif" font-size="10.00">/quadmath&#45;print.hpp</text>
</a>
</g>
</g>
<!-- Node5&#45;&gt;Node6 -->
<g id="edge5_Node000005_Node000006" class="edge">
<title>Node5&#45;&gt;Node6</title>
<g id="a_edge5_Node000005_Node000006"><a xlink:title=" ">
<path fill="none" stroke="#63b8ff" d="M405.87,-65.99C435.71,-57.35 482.71,-43.74 520.15,-32.9"/>
<polygon fill="#63b8ff" stroke="#63b8ff" points="521.3,-36.21 529.94,-30.06 519.36,-29.48 521.3,-36.21"/>
</a>
</g>
</g>
<!-- Node7 -->
<g id="Node000007" class="node">
<title>Node7</title>
<g id="a_Node000007"><a xlink:href="quadmath_8hpp.html" target="_top" xlink:title=" ">
<polygon fill="white" stroke="#666666" points="186,-30 65,-30 65,0 186,0 186,-30"/>
<text text-anchor="start" x="73" y="-18" font-family="Helvetica,sans-Serif" font-size="10.00">alpaqa/util/quadmath</text>
<text text-anchor="middle" x="125.5" y="-7" font-family="Helvetica,sans-Serif" font-size="10.00">/quadmath.hpp</text>
</a>
</g>
</g>
<!-- Node5&#45;&gt;Node7 -->
<g id="edge6_Node000005_Node000007" class="edge">
<title>Node5&#45;&gt;Node7</title>
<g id="a_edge6_Node000005_Node000007"><a xlink:title=" ">
<path fill="none" stroke="#63b8ff" d="M340,-65.99C302.3,-57.21 242.53,-43.27 195.64,-32.35"/>
<polygon fill="#63b8ff" stroke="#63b8ff" points="196.38,-28.93 185.84,-30.06 194.79,-35.74 196.38,-28.93"/>
</a>
</g>
</g>
<!-- Node8 -->
<g id="Node000008" class="node">
<title>Node8</title>
<g id="a_Node000008"><a xlink:title=" ">
<polygon fill="#e0e0e0" stroke="#999999" points="263,-24.5 204,-24.5 204,-5.5 263,-5.5 263,-24.5"/>
<text text-anchor="middle" x="233.5" y="-12.5" font-family="Helvetica,sans-Serif" font-size="10.00">complex</text>
</a>
</g>
</g>
<!-- Node5&#45;&gt;Node8 -->
<g id="edge7_Node000005_Node000008" class="edge">
<title>Node5&#45;&gt;Node8</title>
<g id="a_edge7_Node000005_Node000008"><a xlink:title=" ">
<path fill="none" stroke="#63b8ff" d="M355.71,-65.99C331.56,-56.12 291.52,-39.73 263.88,-28.43"/>
<polygon fill="#63b8ff" stroke="#63b8ff" points="264.9,-25.06 254.32,-24.52 262.25,-31.54 264.9,-25.06"/>
</a>
</g>
</g>
<!-- Node9 -->
<g id="Node000009" class="node">
<title>Node9</title>
<g id="a_Node000009"><a xlink:title=" ">
<polygon fill="#e0e0e0" stroke="#999999" points="412.5,-24.5 368.5,-24.5 368.5,-5.5 412.5,-5.5 412.5,-24.5"/>
<text text-anchor="middle" x="390.5" y="-12.5" font-family="Helvetica,sans-Serif" font-size="10.00">limits</text>
</a>
</g>
</g>
<!-- Node5&#45;&gt;Node9 -->
<g id="edge8_Node000005_Node000009" class="edge">
<title>Node5&#45;&gt;Node9</title>
<g id="a_edge8_Node000005_Node000009"><a xlink:title=" ">
<path fill="none" stroke="#63b8ff" d="M378.57,-65.87C380.53,-57.66 383.55,-45.04 386.06,-34.55"/>
<polygon fill="#63b8ff" stroke="#63b8ff" points="389.5,-35.21 388.43,-24.67 382.69,-33.58 389.5,-35.21"/>
</a>
</g>
</g>
<!-- Node10 -->
<g id="Node000010" class="node">
<title>Node10</title>
<g id="a_Node000010"><a xlink:title=" ">
<polygon fill="#e0e0e0" stroke="#999999" points="350,-24.5 281,-24.5 281,-5.5 350,-5.5 350,-24.5"/>
<text text-anchor="middle" x="315.5" y="-12.5" font-family="Helvetica,sans-Serif" font-size="10.00">type_traits</text>
</a>
</g>
</g>
<!-- Node5&#45;&gt;Node10 -->
<g id="edge9_Node000005_Node000010" class="edge">
<title>Node5&#45;&gt;Node10</title>
<g id="a_edge9_Node000005_Node000010"><a xlink:title=" ">
<path fill="none" stroke="#63b8ff" d="M367.5,-65.87C358.13,-56.88 343.25,-42.61 331.8,-31.64"/>
<polygon fill="#63b8ff" stroke="#63b8ff" points="334.18,-29.06 324.54,-24.67 329.33,-34.12 334.18,-29.06"/>
</a>
</g>
</g>
<!-- Node11 -->
<g id="Node000011" class="node">
<title>Node11</title>
<g id="a_Node000011"><a xlink:title=" ">
<polygon fill="#e0e0e0" stroke="#999999" points="500,-24.5 431,-24.5 431,-5.5 500,-5.5 500,-24.5"/>
<text text-anchor="middle" x="465.5" y="-12.5" font-family="Helvetica,sans-Serif" font-size="10.00">Eigen/Core</text>
</a>
</g>
</g>
<!-- Node5&#45;&gt;Node11 -->
<g id="edge10_Node000005_Node000011" class="edge">
<title>Node5&#45;&gt;Node11</title>
<g id="a_edge10_Node000005_Node000011"><a xlink:title=" ">
<path fill="none" stroke="#63b8ff" d="M389.63,-65.87C403.83,-56.54 426.7,-41.51 443.62,-30.38"/>
<polygon fill="#63b8ff" stroke="#63b8ff" points="445.88,-33.08 452.31,-24.67 442.03,-27.24 445.88,-33.08"/>
</a>
</g>
</g>
<!-- Node13 -->
<g id="Node000013" class="node">
<title>Node13</title>
<g id="a_Node000013"><a xlink:href="box_8hpp.html" target="_top" xlink:title=" ">
<polygon fill="white" stroke="#666666" points="372,-145.5 237,-145.5 237,-126.5 372,-126.5 372,-145.5"/>
<text text-anchor="middle" x="304.5" y="-133.5" font-family="Helvetica,sans-Serif" font-size="10.00">alpaqa/problem/box.hpp</text>
</a>
</g>
</g>
<!-- Node12&#45;&gt;Node13 -->
<g id="edge12_Node000012_Node000013" class="edge">
<title>Node12&#45;&gt;Node13</title>
<g id="a_edge12_Node000012_Node000013"><a xlink:title=" ">
<path fill="none" stroke="#63b8ff" d="M536.16,-188.13C482.47,-176.28 403.73,-158.9 353.29,-147.77"/>
<polygon fill="#63b8ff" stroke="#63b8ff" points="353.81,-144.3 343.29,-145.56 352.3,-151.13 353.81,-144.3"/>
</a>
</g>
</g>
<!-- Node17 -->
<g id="Node000017" class="node">
<title>Node17</title>
<g id="a_Node000017"><a xlink:href="check-dim_8hpp.html" target="_top" xlink:title=" ">
<polygon fill="white" stroke="#666666" points="610,-145.5 467,-145.5 467,-126.5 610,-126.5 610,-145.5"/>
<text text-anchor="middle" x="538.5" y="-133.5" font-family="Helvetica,sans-Serif" font-size="10.00">alpaqa/util/check&#45;dim.hpp</text>
</a>
</g>
</g>
<!-- Node12&#45;&gt;Node17 -->
<g id="edge20_Node000012_Node000017" class="edge">
<title>Node12&#45;&gt;Node17</title>
<g id="a_edge20_Node000012_Node000017"><a xlink:title=" ">
<path fill="none" stroke="#63b8ff" d="M582.07,-186.8C573.43,-176.92 561.88,-163.72 552.84,-153.39"/>
<polygon fill="#63b8ff" stroke="#63b8ff" points="555.46,-151.07 546.24,-145.84 550.19,-155.67 555.46,-151.07"/>
</a>
</g>
</g>
<!-- Node21 -->
<g id="Node000021" class="node">
<title>Node21</title>
<g id="a_Node000021"><a xlink:title=" ">
<polygon fill="#e0e0e0" stroke="#999999" points="673,-145.5 628,-145.5 628,-126.5 673,-126.5 673,-145.5"/>
<text text-anchor="middle" x="650.5" y="-133.5" font-family="Helvetica,sans-Serif" font-size="10.00">utility</text>
</a>
</g>
</g>
<!-- Node12&#45;&gt;Node21 -->
<g id="edge25_Node000012_Node000021" class="edge">
<title>Node12&#45;&gt;Node21</title>
<g id="a_edge25_Node000012_Node000021"><a xlink:title=" ">
<path fill="none" stroke="#63b8ff" d="M606.93,-186.8C615.57,-176.92 627.12,-163.72 636.16,-153.39"/>
<polygon fill="#63b8ff" stroke="#63b8ff" points="638.81,-155.67 642.76,-145.84 633.54,-151.07 638.81,-155.67"/>
</a>
</g>
</g>
<!-- Node13&#45;&gt;Node5 -->
<g id="edge13_Node000013_Node000005" class="edge">
<title>Node13&#45;&gt;Node5</title>
<g id="a_edge13_Node000013_Node000005"><a xlink:title=" ">
<path fill="none" stroke="#63b8ff" d="M315.12,-126.37C326.4,-117.21 344.42,-102.56 358.03,-91.51"/>
<polygon fill="#63b8ff" stroke="#63b8ff" points="360.28,-94.19 365.83,-85.17 355.86,-88.76 360.28,-94.19"/>
</a>
</g>
</g>
<!-- Node14 -->
<g id="Node000014" class="node">
<title>Node14</title>
<g id="a_Node000014"><a xlink:href="float_8hpp.html" target="_top" xlink:title=" ">
<polygon fill="white" stroke="#666666" points="290.5,-85 176.5,-85 176.5,-66 290.5,-66 290.5,-85"/>
<text text-anchor="middle" x="233.5" y="-73" font-family="Helvetica,sans-Serif" font-size="10.00">alpaqa/util/float.hpp</text>
</a>
</g>
</g>
<!-- Node13&#45;&gt;Node14 -->
<g id="edge14_Node000013_Node000014" class="edge">
<title>Node13&#45;&gt;Node14</title>
<g id="a_edge14_Node000013_Node000014"><a xlink:title=" ">
<path fill="none" stroke="#63b8ff" d="M294.02,-126.37C283.01,-117.3 265.46,-102.84 252.09,-91.82"/>
<polygon fill="#63b8ff" stroke="#63b8ff" points="253.96,-88.83 244.02,-85.17 249.51,-94.23 253.96,-88.83"/>
</a>
</g>
</g>
<!-- Node14&#45;&gt;Node7 -->
<g id="edge15_Node000014_Node000007" class="edge">
<title>Node14&#45;&gt;Node7</title>
<g id="a_edge15_Node000014_Node000007"><a xlink:title=" ">
<path fill="none" stroke="#63b8ff" d="M217.56,-65.87C202.57,-57.75 179.61,-45.31 160.37,-34.89"/>
<polygon fill="#63b8ff" stroke="#63b8ff" points="162.02,-31.8 151.56,-30.11 158.68,-37.96 162.02,-31.8"/>
</a>
</g>
</g>
<!-- Node14&#45;&gt;Node8 -->
<g id="edge17_Node000014_Node000008" class="edge">
<title>Node14&#45;&gt;Node8</title>
<g id="a_edge17_Node000014_Node000008"><a xlink:title=" ">
<path fill="none" stroke="#63b8ff" d="M233.5,-65.87C233.5,-57.75 233.5,-45.31 233.5,-34.89"/>
<polygon fill="#63b8ff" stroke="#63b8ff" points="237,-34.67 233.5,-24.67 230,-34.67 237,-34.67"/>
</a>
</g>
</g>
<!-- Node14&#45;&gt;Node10 -->
<g id="edge19_Node000014_Node000010" class="edge">
<title>Node14&#45;&gt;Node10</title>
<g id="a_edge19_Node000014_Node000010"><a xlink:title=" ">
<path fill="none" stroke="#63b8ff" d="M245.6,-65.87C258.56,-56.62 279.36,-41.78 294.9,-30.69"/>
<polygon fill="#63b8ff" stroke="#63b8ff" points="297.24,-33.32 303.35,-24.67 293.18,-27.63 297.24,-33.32"/>
</a>
</g>
</g>
<!-- Node15 -->
<g id="Node000015" class="node">
<title>Node15</title>
<g id="a_Node000015"><a xlink:title=" ">
<polygon fill="#e0e0e0" stroke="#999999" points="47,-24.5 0,-24.5 0,-5.5 47,-5.5 47,-24.5"/>
<text text-anchor="middle" x="23.5" y="-12.5" font-family="Helvetica,sans-Serif" font-size="10.00">cmath</text>
</a>
</g>
</g>
<!-- Node14&#45;&gt;Node15 -->
<g id="edge16_Node000014_Node000015" class="edge">
<title>Node14&#45;&gt;Node15</title>
<g id="a_edge16_Node000014_Node000015"><a xlink:title=" ">
<path fill="none" stroke="#63b8ff" d="M190.84,-65.94C154.42,-58.14 100.87,-45.48 55.5,-30 54.07,-29.51 52.61,-28.98 51.14,-28.43"/>
<polygon fill="#63b8ff" stroke="#63b8ff" points="52.15,-25.06 41.57,-24.53 49.51,-31.55 52.15,-25.06"/>
</a>
</g>
</g>
<!-- Node16 -->
<g id="Node000016" class="node">
<title>Node16</title>
<g id="a_Node000016"><a xlink:title=" ">
<polygon fill="#e0e0e0" stroke="#999999" points="717.5,-24.5 657.5,-24.5 657.5,-5.5 717.5,-5.5 717.5,-24.5"/>
<text text-anchor="middle" x="687.5" y="-12.5" font-family="Helvetica,sans-Serif" font-size="10.00">concepts</text>
</a>
</g>
</g>
<!-- Node14&#45;&gt;Node16 -->
<g id="edge18_Node000014_Node000016" class="edge">
<title>Node14&#45;&gt;Node16</title>
<g id="a_edge18_Node000014_Node000016"><a xlink:title=" ">
<path fill="none" stroke="#63b8ff" d="M290.73,-67.04C293.69,-66.68 296.63,-66.33 299.5,-66 453.95,-48.07 495.75,-63.91 647.5,-30 650.33,-29.37 653.23,-28.6 656.12,-27.75"/>
<polygon fill="#63b8ff" stroke="#63b8ff" points="657.32,-31.04 665.76,-24.64 655.17,-24.38 657.32,-31.04"/>
</a>
</g>
</g>
<!-- Node17&#45;&gt;Node5 -->
<g id="edge21_Node000017_Node000005" class="edge">
<title>Node17&#45;&gt;Node5</title>
<g id="a_edge21_Node000017_Node000005"><a xlink:title=" ">
<path fill="none" stroke="#63b8ff" d="M514.94,-126.49C487.23,-116.49 441.03,-99.8 409.69,-88.49"/>
<polygon fill="#63b8ff" stroke="#63b8ff" points="410.68,-85.12 400.08,-85.02 408.3,-91.71 410.68,-85.12"/>
</a>
</g>
</g>
<!-- Node18 -->
<g id="Node000018" class="node">
<title>Node18</title>
<g id="a_Node000018"><a xlink:title=" ">
<polygon fill="#e0e0e0" stroke="#999999" points="701.5,-85 645.5,-85 645.5,-66 701.5,-66 701.5,-85"/>
<text text-anchor="middle" x="673.5" y="-73" font-family="Helvetica,sans-Serif" font-size="10.00">optional</text>
</a>
</g>
</g>
<!-- Node17&#45;&gt;Node18 -->
<g id="edge22_Node000017_Node000018" class="edge">
<title>Node17&#45;&gt;Node18</title>
<g id="a_edge22_Node000017_Node000018"><a xlink:title=" ">
<path fill="none" stroke="#63b8ff" d="M558.13,-126.49C580.83,-116.66 618.4,-100.38 644.47,-89.08"/>
<polygon fill="#63b8ff" stroke="#63b8ff" points="646.06,-92.2 653.85,-85.02 643.28,-85.78 646.06,-92.2"/>
</a>
</g>
</g>
<!-- Node19 -->
<g id="Node000019" class="node">
<title>Node19</title>
<g id="a_Node000019"><a xlink:title=" ">
<polygon fill="#e0e0e0" stroke="#999999" points="943,-24.5 878,-24.5 878,-5.5 943,-5.5 943,-24.5"/>
<text text-anchor="middle" x="910.5" y="-12.5" font-family="Helvetica,sans-Serif" font-size="10.00">stdexcept</text>
</a>
</g>
</g>
<!-- Node17&#45;&gt;Node19 -->
<g id="edge23_Node000017_Node000019" class="edge">
<title>Node17&#45;&gt;Node19</title>
<g id="a_edge23_Node000017_Node000019"><a xlink:title=" ">
<path fill="none" stroke="#63b8ff" d="M547.67,-126.42C564.1,-111.57 600.23,-81.21 636.5,-66 677.56,-48.79 801.33,-30.47 867.57,-21.54"/>
<polygon fill="#63b8ff" stroke="#63b8ff" points="868.23,-24.98 877.68,-20.19 867.31,-18.04 868.23,-24.98"/>
</a>
</g>
</g>
<!-- Node17&#45;&gt;Node20 -->
<g id="edge24_Node000017_Node000020" class="edge">
<title>Node17&#45;&gt;Node20</title>
<g id="a_edge24_Node000017_Node000020"><a xlink:title=" ">
<path fill="none" stroke="#63b8ff" d="M543.49,-126.35C552.41,-111.68 572.52,-81.93 597.5,-66 647.69,-33.99 670.55,-50.31 726.5,-30 727.72,-29.56 728.95,-29.09 730.2,-28.6"/>
<polygon fill="#63b8ff" stroke="#63b8ff" points="731.8,-31.72 739.66,-24.61 729.09,-25.27 731.8,-31.72"/>
</a>
</g>
</g>
<!-- Node22&#45;&gt;Node5 -->
<g id="edge27_Node000022_Node000005" class="edge">
<title>Node22&#45;&gt;Node5</title>
<g id="a_edge27_Node000022_Node000005"><a xlink:title=" ">
<path fill="none" stroke="#63b8ff" d="M869.82,-126.5C853.26,-124.65 835.79,-122.73 819.5,-121 691.59,-107.41 542.78,-92.69 454.29,-84.04"/>
<polygon fill="#63b8ff" stroke="#63b8ff" points="454.36,-80.53 444.07,-83.05 453.68,-87.5 454.36,-80.53"/>
</a>
</g>
</g>
<!-- Node22&#45;&gt;Node16 -->
<g id="edge31_Node000022_Node000016" class="edge">
<title>Node22&#45;&gt;Node16</title>
<g id="a_edge31_Node000022_Node000016"><a xlink:title=" ">
<path fill="none" stroke="#63b8ff" d="M921.77,-126.34C897.09,-116.79 856.61,-100.67 822.5,-85 783.31,-66.99 738.97,-43.76 712.14,-29.38"/>
<polygon fill="#63b8ff" stroke="#63b8ff" points="713.55,-26.16 703.09,-24.51 710.23,-32.33 713.55,-26.16"/>
</a>
</g>
</g>
<!-- Node23 -->
<g id="Node000023" class="node">
<title>Node23</title>
<g id="a_Node000023"><a xlink:href="export_8hpp.html" target="_top" xlink:title=" ">
<polygon fill="white" stroke="#666666" points="1044,-85 939,-85 939,-66 1044,-66 1044,-85"/>
<text text-anchor="middle" x="991.5" y="-73" font-family="Helvetica,sans-Serif" font-size="10.00">alpaqa/export.hpp</text>
</a>
</g>
</g>
<!-- Node22&#45;&gt;Node23 -->
<g id="edge28_Node000022_Node000023" class="edge">
<title>Node22&#45;&gt;Node23</title>
<g id="a_edge28_Node000022_Node000023"><a xlink:title=" ">
<path fill="none" stroke="#63b8ff" d="M951.44,-126.37C958.45,-117.64 969.46,-103.93 978.17,-93.09"/>
<polygon fill="#63b8ff" stroke="#63b8ff" points="981,-95.16 984.54,-85.17 975.54,-90.77 981,-95.16"/>
</a>
</g>
</g>
<!-- Node25 -->
<g id="Node000025" class="node">
<title>Node25</title>
<g id="a_Node000025"><a xlink:title=" ">
<polygon fill="#e0e0e0" stroke="#999999" points="1114.5,-85 1062.5,-85 1062.5,-66 1114.5,-66 1114.5,-85"/>
<text text-anchor="middle" x="1088.5" y="-73" font-family="Helvetica,sans-Serif" font-size="10.00">cassert</text>
</a>
</g>
</g>
<!-- Node22&#45;&gt;Node25 -->
<g id="edge30_Node000022_Node000025" class="edge">
<title>Node22&#45;&gt;Node25</title>
<g id="a_edge30_Node000022_Node000025"><a xlink:title=" ">
<path fill="none" stroke="#63b8ff" d="M965.44,-126.49C989.86,-116.57 1030.43,-100.09 1058.27,-88.78"/>
<polygon fill="#63b8ff" stroke="#63b8ff" points="1059.59,-92.02 1067.54,-85.02 1056.95,-85.54 1059.59,-92.02"/>
</a>
</g>
</g>
<!-- Node26 -->
<g id="Node000026" class="node">
<title>Node26</title>
<g id="a_Node000026"><a xlink:title=" ">
<polygon fill="#e0e0e0" stroke="#999999" points="882,-85 831,-85 831,-66 882,-66 882,-85"/>
<text text-anchor="middle" x="856.5" y="-73" font-family="Helvetica,sans-Serif" font-size="10.00">variant</text>
</a>
</g>
</g>
<!-- Node22&#45;&gt;Node26 -->
<g id="edge32_Node000022_Node000026" class="edge">
<title>Node22&#45;&gt;Node26</title>
<g id="a_edge32_Node000022_Node000026"><a xlink:title=" ">
<path fill="none" stroke="#63b8ff" d="M931.52,-126.37C917.48,-117.04 894.87,-102.01 878.14,-90.88"/>
<polygon fill="#63b8ff" stroke="#63b8ff" points="879.8,-87.79 869.54,-85.17 875.93,-93.62 879.8,-87.79"/>
</a>
</g>
</g>
<!-- Node24 -->
<g id="Node000024" class="node">
<title>Node24</title>
<g id="a_Node000024"><a xlink:title=" ">
<polygon fill="#e0e0e0" stroke="#999999" points="1095,-24.5 1002,-24.5 1002,-5.5 1095,-5.5 1095,-24.5"/>
<text text-anchor="middle" x="1048.5" y="-12.5" font-family="Helvetica,sans-Serif" font-size="10.00">alpaqa/export.h</text>
</a>
</g>
</g>
<!-- Node23&#45;&gt;Node24 -->
<g id="edge29_Node000023_Node000024" class="edge">
<title>Node23&#45;&gt;Node24</title>
<g id="a_edge29_Node000023_Node000024"><a xlink:title=" ">
<path fill="none" stroke="#63b8ff" d="M999.91,-65.87C1008.58,-56.97 1022.3,-42.89 1032.96,-31.95"/>
<polygon fill="#63b8ff" stroke="#63b8ff" points="1035.58,-34.27 1040.05,-24.67 1030.57,-29.39 1035.58,-34.27"/>
</a>
</g>
</g>
<!-- Node28 -->
<g id="Node000028" class="node">
<title>Node28</title>
<g id="a_Node000028"><a xlink:title=" ">
<polygon fill="#e0e0e0" stroke="#999999" points="1212.5,-24.5 1154.5,-24.5 1154.5,-5.5 1212.5,-5.5 1212.5,-24.5"/>
<text text-anchor="middle" x="1183.5" y="-12.5" font-family="Helvetica,sans-Serif" font-size="10.00">memory</text>
</a>
</g>
</g>
<!-- Node27&#45;&gt;Node28 -->
<g id="edge34_Node000027_Node000028" class="edge">
<title>Node27&#45;&gt;Node28</title>
<g id="a_edge34_Node000027_Node000028"><a xlink:title=" ">
<path fill="none" stroke="#63b8ff" d="M1367.96,-186.94C1382.12,-178.66 1397.56,-166.69 1405.5,-151 1411.52,-139.1 1412.89,-132.1 1405.5,-121 1382.54,-86.5 1357.11,-102.39 1319.5,-85 1280.33,-66.89 1235.91,-43.88 1208.8,-29.54"/>
<polygon fill="#63b8ff" stroke="#63b8ff" points="1210.11,-26.27 1199.64,-24.67 1206.83,-32.45 1210.11,-26.27"/>
</a>
</g>
</g>
<!-- Node31&#45;&gt;Node3 -->
<g id="edge39_Node000031_Node000003" class="edge">
<title>Node31&#45;&gt;Node3</title>
<g id="a_edge39_Node000031_Node000003"><a xlink:title=" ">
<path fill="none" stroke="#63b8ff" d="M1025.72,-189.11C967.3,-178.05 880.42,-161.6 819.96,-150.15"/>
<polygon fill="#63b8ff" stroke="#63b8ff" points="820.59,-146.71 810.11,-148.29 819.29,-153.59 820.59,-146.71"/>
</a>
</g>
</g>
<!-- Node31&#45;&gt;Node4 -->
<g id="edge53_Node000031_Node000004" class="edge">
<title>Node31&#45;&gt;Node4</title>
<g id="a_edge53_Node000031_Node000004"><a xlink:title=" ">
<path fill="none" stroke="#63b8ff" d="M1151.08,-196.07C1230.59,-188.97 1362.66,-174.11 1405.5,-151 1453.28,-125.22 1489.16,-70.23 1506.65,-38.96"/>
<polygon fill="#63b8ff" stroke="#63b8ff" points="1509.77,-40.54 1511.48,-30.08 1503.62,-37.2 1509.77,-40.54"/>
</a>
</g>
</g>
<!-- Node31&#45;&gt;Node18 -->
<g id="edge56_Node000031_Node000018" class="edge">
<title>Node31&#45;&gt;Node18</title>
<g id="a_edge56_Node000031_Node000018"><a xlink:title=" ">
<path fill="none" stroke="#63b8ff" d="M1025.59,-194.9C977.97,-188.51 911.87,-175.79 858.5,-151 838.67,-141.79 838.94,-131.02 819.5,-121 784.79,-103.12 741.67,-91.08 711.32,-84.08"/>
<polygon fill="#63b8ff" stroke="#63b8ff" points="712.07,-80.66 701.55,-81.9 710.54,-87.49 712.07,-80.66"/>
</a>
</g>
</g>
<!-- Node31&#45;&gt;Node19 -->
<g id="edge58_Node000031_Node000019" class="edge">
<title>Node31&#45;&gt;Node19</title>
<g id="a_edge58_Node000031_Node000019"><a xlink:title=" ">
<path fill="none" stroke="#63b8ff" d="M1081.83,-186.83C1072.79,-169.07 1055.04,-138.79 1031.5,-121 993.48,-92.27 963.17,-119.7 930.5,-85 917.83,-71.54 913.13,-50.54 911.41,-35.24"/>
<polygon fill="#63b8ff" stroke="#63b8ff" points="914.87,-34.56 910.6,-24.87 907.89,-35.11 914.87,-34.56"/>
</a>
</g>
</g>
<!-- Node31&#45;&gt;Node21 -->
<g id="edge59_Node000031_Node000021" class="edge">
<title>Node31&#45;&gt;Node21</title>
<g id="a_edge59_Node000031_Node000021"><a xlink:title=" ">
<path fill="none" stroke="#63b8ff" d="M1025.99,-199.15C945.1,-195.45 800.43,-184.33 681.5,-151 679.82,-150.53 678.11,-149.98 676.41,-149.38"/>
<polygon fill="#63b8ff" stroke="#63b8ff" points="677.47,-146.03 666.89,-145.51 674.83,-152.51 677.47,-146.03"/>
</a>
</g>
</g>
<!-- Node31&#45;&gt;Node25 -->
<g id="edge54_Node000031_Node000025" class="edge">
<title>Node31&#45;&gt;Node25</title>
<g id="a_edge54_Node000031_Node000025"><a xlink:title=" ">
<path fill="none" stroke="#63b8ff" d="M1088.5,-186.72C1088.5,-164.12 1088.5,-120.12 1088.5,-95.09"/>
<polygon fill="#63b8ff" stroke="#63b8ff" points="1092,-95.07 1088.5,-85.07 1085,-95.07 1092,-95.07"/>
</a>
</g>
</g>
<!-- Node31&#45;&gt;Node28 -->
<g id="edge55_Node000031_Node000028" class="edge">
<title>Node31&#45;&gt;Node28</title>
<g id="a_edge55_Node000031_Node000028"><a xlink:title=" ">
<path fill="none" stroke="#63b8ff" d="M1151.2,-197.76C1184.35,-192.46 1222.45,-179.91 1243.5,-151 1265.74,-120.46 1259.52,-100.21 1243.5,-66 1236.35,-50.74 1222,-38.51 1209.12,-29.96"/>
<polygon fill="#63b8ff" stroke="#63b8ff" points="1210.89,-26.94 1200.55,-24.65 1207.2,-32.89 1210.89,-26.94"/>
</a>
</g>
</g>
<!-- Node32 -->
<g id="Node000032" class="node">
<title>Node32</title>
<g id="a_Node000032"><a xlink:href="casadi-functions_8hpp.html" target="_top" xlink:title=" ">
<polygon fill="white" stroke="#666666" points="1234.5,-145.5 1116.5,-145.5 1116.5,-126.5 1234.5,-126.5 1234.5,-145.5"/>
<text text-anchor="middle" x="1175.5" y="-133.5" font-family="Helvetica,sans-Serif" font-size="10.00">casadi&#45;functions.hpp</text>
</a>
</g>
</g>
<!-- Node31&#45;&gt;Node32 -->
<g id="edge40_Node000031_Node000032" class="edge">
<title>Node31&#45;&gt;Node32</title>
<g id="a_edge40_Node000031_Node000032"><a xlink:title=" ">
<path fill="none" stroke="#63b8ff" d="M1107.81,-186.8C1121.99,-176.37 1141.19,-162.24 1155.52,-151.69"/>
<polygon fill="#63b8ff" stroke="#63b8ff" points="1157.75,-154.4 1163.73,-145.66 1153.6,-148.76 1157.75,-154.4"/>
</a>
</g>
</g>
<!-- Node37 -->
<g id="Node000037" class="node">
<title>Node37</title>
<g id="a_Node000037"><a xlink:title=" ">
<polygon fill="#e0e0e0" stroke="#999999" points="1330.5,-145.5 1290.5,-145.5 1290.5,-126.5 1330.5,-126.5 1330.5,-145.5"/>
<text text-anchor="middle" x="1310.5" y="-133.5" font-family="Helvetica,sans-Serif" font-size="10.00">span</text>
</a>
</g>
</g>
<!-- Node31&#45;&gt;Node37 -->
<g id="edge57_Node000031_Node000037" class="edge">
<title>Node31&#45;&gt;Node37</title>
<g id="a_edge57_Node000031_Node000037"><a xlink:title=" ">
<path fill="none" stroke="#63b8ff" d="M1149.21,-186.99C1186.33,-177.9 1234.58,-165.14 1276.5,-151 1278.12,-150.45 1279.78,-149.87 1281.44,-149.26"/>
<polygon fill="#63b8ff" stroke="#63b8ff" points="1282.84,-152.47 1290.89,-145.59 1280.3,-145.94 1282.84,-152.47"/>
</a>
</g>
</g>
<!-- Node38 -->
<g id="Node000038" class="node">
<title>Node38</title>
<g id="a_Node000038"><a xlink:title=" ">
<polygon fill="#e0e0e0" stroke="#999999" points="1396,-145.5 1349,-145.5 1349,-126.5 1396,-126.5 1396,-145.5"/>
<text text-anchor="middle" x="1372.5" y="-133.5" font-family="Helvetica,sans-Serif" font-size="10.00">vector</text>
</a>
</g>
</g>
<!-- Node31&#45;&gt;Node38 -->
<g id="edge60_Node000031_Node000038" class="edge">
<title>Node31&#45;&gt;Node38</title>
<g id="a_edge60_Node000031_Node000038"><a xlink:title=" ">
<path fill="none" stroke="#63b8ff" d="M1151.01,-192.19C1202.33,-184.1 1276.55,-170.4 1339.5,-151 1341.18,-150.48 1342.88,-149.91 1344.59,-149.3"/>
<polygon fill="#63b8ff" stroke="#63b8ff" points="1346.21,-152.43 1354.25,-145.53 1343.66,-145.91 1346.21,-152.43"/>
</a>
</g>
</g>
<!-- Node32&#45;&gt;Node4 -->
<g id="edge41_Node000032_Node000004" class="edge">
<title>Node32&#45;&gt;Node4</title>
<g id="a_edge41_Node000032_Node000004"><a xlink:title=" ">
<path fill="none" stroke="#63b8ff" d="M1234.66,-127.3C1300.55,-118.09 1402.43,-101.82 1437.5,-85 1461.33,-73.57 1483.82,-53.37 1499.03,-37.77"/>
<polygon fill="#63b8ff" stroke="#63b8ff" points="1501.96,-39.77 1506.29,-30.1 1496.87,-34.96 1501.96,-39.77"/>
</a>
</g>
</g>
<!-- Node32&#45;&gt;Node25 -->
<g id="edge52_Node000032_Node000025" class="edge">
<title>Node32&#45;&gt;Node25</title>
<g id="a_edge52_Node000032_Node000025"><a xlink:title=" ">
<path fill="none" stroke="#63b8ff" d="M1162.66,-126.37C1148.78,-117.04 1126.43,-102.01 1109.89,-90.88"/>
<polygon fill="#63b8ff" stroke="#63b8ff" points="1111.64,-87.84 1101.39,-85.17 1107.74,-93.65 1111.64,-87.84"/>
</a>
</g>
</g>
<!-- Node33 -->
<g id="Node000033" class="node">
<title>Node33</title>
<g id="a_Node000033"><a xlink:href="casadi-types_8hpp.html" target="_top" xlink:title=" ">
<polygon fill="white" stroke="#666666" points="1428.5,-85 1328.5,-85 1328.5,-66 1428.5,-66 1428.5,-85"/>
<text text-anchor="middle" x="1378.5" y="-73" font-family="Helvetica,sans-Serif" font-size="10.00">casadi&#45;types.hpp</text>
</a>
</g>
</g>
<!-- Node32&#45;&gt;Node33 -->
<g id="edge42_Node000032_Node000033" class="edge">
<title>Node32&#45;&gt;Node33</title>
<g id="a_edge42_Node000032_Node000033"><a xlink:title=" ">
<path fill="none" stroke="#63b8ff" d="M1205.02,-126.49C1240.42,-116.29 1299.9,-99.15 1339.18,-87.83"/>
<polygon fill="#63b8ff" stroke="#63b8ff" points="1340.31,-91.15 1348.95,-85.02 1338.37,-84.42 1340.31,-91.15"/>
</a>
</g>
</g>
<!-- Node36 -->
<g id="Node000036" class="node">
<title>Node36</title>
<g id="a_Node000036"><a xlink:href="dl_8hpp.html" target="_top" xlink:title=" ">
<polygon fill="white" stroke="#666666" points="1234,-85 1133,-85 1133,-66 1234,-66 1234,-85"/>
<text text-anchor="middle" x="1183.5" y="-73" font-family="Helvetica,sans-Serif" font-size="10.00">alpaqa/util/dl.hpp</text>
</a>
</g>
</g>
<!-- Node32&#45;&gt;Node36 -->
<g id="edge47_Node000032_Node000036" class="edge">
<title>Node32&#45;&gt;Node36</title>
<g id="a_edge47_Node000032_Node000036"><a xlink:title=" ">
<path fill="none" stroke="#63b8ff" d="M1176.68,-126.37C1177.79,-118.25 1179.49,-105.81 1180.92,-95.39"/>
<polygon fill="#63b8ff" stroke="#63b8ff" points="1184.43,-95.55 1182.31,-85.17 1177.49,-94.6 1184.43,-95.55"/>
</a>
</g>
</g>
<!-- Node33&#45;&gt;Node4 -->
<g id="edge46_Node000033_Node000004" class="edge">
<title>Node33&#45;&gt;Node4</title>
<g id="a_edge46_Node000033_Node000004"><a xlink:title=" ">
<path fill="none" stroke="#63b8ff" d="M1398.86,-65.99C1418.83,-57.65 1449.91,-44.66 1475.39,-34.02"/>
<polygon fill="#63b8ff" stroke="#63b8ff" points="1476.96,-37.15 1484.84,-30.06 1474.27,-30.69 1476.96,-37.15"/>
</a>
</g>
</g>
<!-- Node33&#45;&gt;Node20 -->
<g id="edge45_Node000033_Node000020" class="edge">
<title>Node33&#45;&gt;Node20</title>
<g id="a_edge45_Node000033_Node000020"><a xlink:title=" ">
<path fill="none" stroke="#63b8ff" d="M1328.23,-70.73C1236.82,-63.73 1037.32,-47.82 869.5,-30 842.58,-27.14 812.11,-23.29 789.75,-20.35"/>
<polygon fill="#63b8ff" stroke="#63b8ff" points="790.16,-16.88 779.78,-19.03 789.24,-23.82 790.16,-16.88"/>
</a>
</g>
</g>
<!-- Node34 -->
<g id="Node000034" class="node">
<title>Node34</title>
<g id="a_Node000034"><a xlink:title=" ">
<polygon fill="#e0e0e0" stroke="#999999" points="1294.5,-24.5 1230.5,-24.5 1230.5,-5.5 1294.5,-5.5 1294.5,-24.5"/>
<text text-anchor="middle" x="1262.5" y="-12.5" font-family="Helvetica,sans-Serif" font-size="10.00">algorithm</text>
</a>
</g>
</g>
<!-- Node33&#45;&gt;Node34 -->
<g id="edge43_Node000033_Node000034" class="edge">
<title>Node33&#45;&gt;Node34</title>
<g id="a_edge43_Node000033_Node000034"><a xlink:title=" ">
<path fill="none" stroke="#63b8ff" d="M1361.38,-65.87C1342.28,-56.23 1311.13,-40.53 1288.9,-29.31"/>
<polygon fill="#63b8ff" stroke="#63b8ff" points="1290.19,-26.05 1279.69,-24.67 1287.04,-32.3 1290.19,-26.05"/>
</a>
</g>
</g>
<!-- Node35 -->
<g id="Node000035" class="node">
<title>Node35</title>
<g id="a_Node000035"><a xlink:title=" ">
<polygon fill="#e0e0e0" stroke="#999999" points="1440.5,-24.5 1398.5,-24.5 1398.5,-5.5 1440.5,-5.5 1440.5,-24.5"/>
<text text-anchor="middle" x="1419.5" y="-12.5" font-family="Helvetica,sans-Serif" font-size="10.00">array</text>
</a>
</g>
</g>
<!-- Node33&#45;&gt;Node35 -->
<g id="edge44_Node000033_Node000035" class="edge">
<title>Node33&#45;&gt;Node35</title>
<g id="a_edge44_Node000033_Node000035"><a xlink:title=" ">
<path fill="none" stroke="#63b8ff" d="M1384.55,-65.87C1390.61,-57.23 1400.09,-43.7 1407.64,-32.92"/>
<polygon fill="#63b8ff" stroke="#63b8ff" points="1410.55,-34.87 1413.43,-24.67 1404.82,-30.85 1410.55,-34.87"/>
</a>
</g>
</g>
<!-- Node36&#45;&gt;Node19 -->
<g id="edge51_Node000036_Node000019" class="edge">
<title>Node36&#45;&gt;Node19</title>
<g id="a_edge51_Node000036_Node000019"><a xlink:title=" ">
<path fill="none" stroke="#63b8ff" d="M1143.8,-65.99C1093.06,-55.12 1005.55,-36.37 953.34,-25.18"/>
<polygon fill="#63b8ff" stroke="#63b8ff" points="953.9,-21.72 943.39,-23.05 952.43,-28.57 953.9,-21.72"/>
</a>
</g>
</g>
<!-- Node36&#45;&gt;Node24 -->
<g id="edge48_Node000036_Node000024" class="edge">
<title>Node36&#45;&gt;Node24</title>
<g id="a_edge48_Node000036_Node000024"><a xlink:title=" ">
<path fill="none" stroke="#63b8ff" d="M1163.87,-65.99C1141.17,-56.16 1103.6,-39.88 1077.53,-28.58"/>
<polygon fill="#63b8ff" stroke="#63b8ff" points="1078.72,-25.28 1068.15,-24.52 1075.94,-31.7 1078.72,-25.28"/>
</a>
</g>
</g>
<!-- Node36&#45;&gt;Node28 -->
<g id="edge50_Node000036_Node000028" class="edge">
<title>Node36&#45;&gt;Node28</title>
<g id="a_edge50_Node000036_Node000028"><a xlink:title=" ">
<path fill="none" stroke="#63b8ff" d="M1183.5,-65.87C1183.5,-57.75 1183.5,-45.31 1183.5,-34.89"/>
<polygon fill="#63b8ff" stroke="#63b8ff" points="1187,-34.67 1183.5,-24.67 1180,-34.67 1187,-34.67"/>
</a>
</g>
</g>
<!-- Node36&#45;&gt;Node29 -->
<g id="edge49_Node000036_Node000029" class="edge">
<title>Node36&#45;&gt;Node29</title>
<g id="a_edge49_Node000036_Node000029"><a xlink:title=" ">
<path fill="none" stroke="#63b8ff" d="M1207.2,-65.99C1235.09,-55.99 1281.57,-39.3 1313.1,-27.99"/>
<polygon fill="#63b8ff" stroke="#63b8ff" points="1314.54,-31.19 1322.77,-24.52 1312.18,-24.6 1314.54,-31.19"/>
</a>
</g>
</g>
</g>
</svg>

<g id="navigator" transform="translate(0 0)" fill="#404254">
  <rect fill="#f2f5e9" fill-opacity="0.5" stroke="#606060" stroke-width=".5" x="0" y="0" width="60" height="60"/>
  <use id="zoomplus" xlink:href="#zoomPlus" x="17" y="9" onmousedown="handleZoom(evt,'in')"/>
  <use id="zoomminus" xlink:href="#zoomMin" x="42" y="9" onmousedown="handleZoom(evt,'out')"/>
  <use id="reset" xlink:href="#resetDef" x="30" y="36" onmousedown="handleReset()"/>
   <use id="arrowup" xlink:href="#arrowUp" x="0" y="0" onmousedown="handlePan(0,-1)"/>
  <use id="arrowright" xlink:href="#arrowRight" x="0" y="0" onmousedown="handlePan(1,0)"/>
  <use id="arrowdown" xlink:href="#arrowDown" x="0" y="0" onmousedown="handlePan(0,1)"/>
  <use id="arrowleft" xlink:href="#arrowLeft" x="0" y="0" onmousedown="handlePan(-1,0)"/>
</g>
<svg viewBox="0 0 15 15" width="100%" height="30px" preserveAspectRatio="xMaxYMin meet">
 <g id="arrow_out" transform="scale(0.3 0.3)">
  <a xlink:href="CasADiProblem_8hpp__incl_org.svg" target="_base">
   <rect id="button" ry="5" rx="5" y="6" x="6" height="38" width="38"
        fill="#f2f5e9" fill-opacity="0.5" stroke="#606060" stroke-width="1.0"/>
   <path id="arrow"
     d="M 11.500037,31.436501 C 11.940474,20.09759 22.043105,11.32322 32.158766,21.979434 L 37.068811,17.246167 C 37.068811,17.246167 37.088388,32 37.088388,32 L 22.160133,31.978069 C 22.160133,31.978069 26.997745,27.140456 26.997745,27.140456 C 18.528582,18.264221 13.291696,25.230495 11.500037,31.436501 z"
     style="fill:#404040;"/>
  </a>
 </g>
</svg>

<style type='text/css'>
<![CDATA[
[data-mouse-over-selected='false'] { opacity: 0.7; }
[data-mouse-over-selected='true']  { opacity: 1.0; }
]]>
</style>
<script type="application/ecmascript"><![CDATA[
document.addEventListener('DOMContentLoaded', (event) => {
  highlightEdges();
  highlightAdjacentNodes();
});
]]></script>
</svg>
