<?xml version="1.0" encoding="UTF-8" standalone="no"?>
<!DOCTYPE svg PUBLIC "-//W3C//DTD SVG 1.1//EN"
 "http://www.w3.org/Graphics/SVG/1.1/DTD/svg11.dtd">
<!-- Generated by graphviz version 2.43.0 (0)
 -->
<!-- Title: src/interop/casadi/include/alpaqa/casadi/CasADiFunctionWrapper.hpp Pages: 1 -->
<!--zoomable 302 -->

<svg id="main" version="1.1" xmlns="http://www.w3.org/2000/svg" xmlns:xlink="http://www.w3.org/1999/xlink" xml:space="preserve" onload="init(evt)">
<style type="text/css"><![CDATA[
.node, .edge {opacity: 0.7;}
.node.selected, .edge.selected {opacity: 1;}
.edge:hover path { stroke: red; }
.edge:hover polygon { stroke: red; fill: red; }
]]></style>

<defs>
  <circle id="rim" cx="0" cy="0" r="7"/>
  <circle id="rim2" cx="0" cy="0" r="3.5"/>
  <g id="zoomPlus">
    <use xlink:href="#rim" fill="#404040"><set attributeName="fill" to="#808080" begin="zoomplus.mouseover" end="zoomplus.mouseout"/></use>
    <path d="M-4,0h8M0,-4v8" fill="none" stroke="white" stroke-width="1.5" pointer-events="none"/>
  </g>
  <g id="zoomMin">
    <use xlink:href="#rim" fill="#404040"><set attributeName="fill" to="#808080" begin="zoomminus.mouseover" end="zoomminus.mouseout"/></use>
    <path d="M-4,0h8" fill="none" stroke="white" stroke-width="1.5" pointer-events="none"/>
  </g>
  <g id="arrowUp" transform="translate(30 24)">
    <use xlink:href="#rim"/>
    <path pointer-events="none" fill="none" stroke="white" stroke-width="1.5" d="M0,-3.0v7 M-2.5,-0.5L0,-3.0L2.5,-0.5"/>
  </g>
  <g id="arrowRight" transform="rotate(90) translate(36 -43)">
    <use xlink:href="#rim"/>
    <path pointer-events="none" fill="none" stroke="white" stroke-width="1.5" d="M0,-3.0v7 M-2.5,-0.5L0,-3.0L2.5,-0.5"/>
  </g>
  <g id="arrowDown" transform="rotate(180) translate(-30 -48)">
    <use xlink:href="#rim"/>
    <path pointer-events="none" fill="none" stroke="white" stroke-width="1.5" d="M0,-3.0v7 M-2.5,-0.5L0,-3.0L2.5,-0.5"/>
  </g>
  <g id="arrowLeft" transform="rotate(270) translate(-36 17)">
    <use xlink:href="#rim"/>
    <path pointer-events="none" fill="none" stroke="white" stroke-width="1.5" d="M0,-3.0v7 M-2.5,-0.5L0,-3.0L2.5,-0.5"/>
  </g>
  <g id="resetDef">
    <use xlink:href="#rim2" fill="#404040"><set attributeName="fill" to="#808080" begin="reset.mouseover" end="reset.mouseout"/></use>
  </g>
</defs>
<script type="application/ecmascript">
var viewWidth = 1468;
var viewHeight = 302;
var sectionId = 'dynsection-0';
</script>
<script type="application/ecmascript" xlink:href="svg.min.js"/>
<svg id="graph" class="graph">
<g id="viewport">
<title>src/interop/casadi/include/alpaqa/casadi/CasADiFunctionWrapper.hpp</title>
<!-- Node1 -->
<g id="Node000001" class="node">
<title>Node1</title>
<g id="a_Node000001"><a xlink:title=" ">
<polygon fill="#999999" stroke="#666666" points="619,-294 461,-294 461,-253 619,-253 619,-294"/>
<text text-anchor="start" x="469" y="-282" font-family="Helvetica,sans-Serif" font-size="10.00">src/interop/casadi</text>
<text text-anchor="start" x="469" y="-271" font-family="Helvetica,sans-Serif" font-size="10.00">/include/alpaqa/casadi</text>
<text text-anchor="middle" x="540" y="-260" font-family="Helvetica,sans-Serif" font-size="10.00">/CasADiFunctionWrapper.hpp</text>
</a>
</g>
</g>
<!-- Node2 -->
<g id="Node000002" class="node">
<title>Node2</title>
<g id="a_Node000002"><a xlink:title=" ">
<polygon fill="#e0e0e0" stroke="#999999" points="250.5,-151 131.5,-151 131.5,-121 250.5,-121 250.5,-151"/>
<text text-anchor="start" x="139.5" y="-139" font-family="Helvetica,sans-Serif" font-size="10.00">alpaqa/casadi&#45;loader</text>
<text text-anchor="middle" x="191" y="-128" font-family="Helvetica,sans-Serif" font-size="10.00">&#45;export.h</text>
</a>
</g>
</g>
<!-- Node1&#45;&gt;Node2 -->
<g id="edge1_Node000001_Node000002" class="edge">
<title>Node1&#45;&gt;Node2</title>
<g id="a_edge1_Node000001_Node000002"><a xlink:title=" ">
<path fill="none" stroke="#63b8ff" d="M489.63,-252.94C421.93,-226.66 302.58,-180.32 237.13,-154.91"/>
<polygon fill="#63b8ff" stroke="#63b8ff" points="238.08,-151.53 227.49,-151.17 235.55,-158.05 238.08,-151.53"/>
</a>
</g>
</g>
<!-- Node3 -->
<g id="Node000003" class="node">
<title>Node3</title>
<g id="a_Node000003"><a xlink:href="casadi-namespace_8hpp.html" target="_top" xlink:title=" ">
<polygon fill="white" stroke="#666666" points="181.5,-30 62.5,-30 62.5,0 181.5,0 181.5,-30"/>
<text text-anchor="start" x="70.5" y="-18" font-family="Helvetica,sans-Serif" font-size="10.00">alpaqa/casadi/casadi</text>
<text text-anchor="middle" x="122" y="-7" font-family="Helvetica,sans-Serif" font-size="10.00">&#45;namespace.hpp</text>
</a>
</g>
</g>
<!-- Node1&#45;&gt;Node3 -->
<g id="edge2_Node000001_Node000003" class="edge">
<title>Node1&#45;&gt;Node3</title>
<g id="a_edge2_Node000001_Node000003"><a xlink:title=" ">
<path fill="none" stroke="#63b8ff" d="M460.95,-261.18C351.21,-243.62 161.66,-206.02 122,-151 98.57,-118.49 106.44,-69.17 114.25,-40.01"/>
<polygon fill="#63b8ff" stroke="#63b8ff" points="117.66,-40.83 117.07,-30.25 110.93,-38.89 117.66,-40.83"/>
</a>
</g>
</g>
<!-- Node4 -->
<g id="Node000004" class="node">
<title>Node4</title>
<g id="a_Node000004"><a xlink:href="config_8hpp.html" target="_top" xlink:title=" ">
<polygon fill="white" stroke="#666666" points="1137.5,-211.5 1002.5,-211.5 1002.5,-192.5 1137.5,-192.5 1137.5,-211.5"/>
<text text-anchor="middle" x="1070" y="-199.5" font-family="Helvetica,sans-Serif" font-size="10.00">alpaqa/config/config.hpp</text>
</a>
</g>
</g>
<!-- Node1&#45;&gt;Node4 -->
<g id="edge3_Node000001_Node000004" class="edge">
<title>Node1&#45;&gt;Node4</title>
<g id="a_edge3_Node000001_Node000004"><a xlink:title=" ">
<path fill="none" stroke="#63b8ff" d="M619.06,-262.13C720.61,-248.82 895.6,-225.87 995.1,-212.82"/>
<polygon fill="#63b8ff" stroke="#63b8ff" points="995.62,-216.28 1005.08,-211.51 994.71,-209.34 995.62,-216.28"/>
</a>
</g>
</g>
<!-- Node11 -->
<g id="Node000011" class="node">
<title>Node11</title>
<g id="a_Node000011"><a xlink:title=" ">
<polygon fill="#e0e0e0" stroke="#999999" points="681.5,-24.5 616.5,-24.5 616.5,-5.5 681.5,-5.5 681.5,-24.5"/>
<text text-anchor="middle" x="649" y="-12.5" font-family="Helvetica,sans-Serif" font-size="10.00">stdexcept</text>
</a>
</g>
</g>
<!-- Node1&#45;&gt;Node11 -->
<g id="edge10_Node000001_Node000011" class="edge">
<title>Node1&#45;&gt;Node11</title>
<g id="a_edge10_Node000001_Node000011"><a xlink:title=" ">
<path fill="none" stroke="#63b8ff" d="M619.21,-264.86C690.34,-253.28 790.64,-224.17 838,-151 878.95,-87.73 759.36,-44.88 691.82,-26.37"/>
<polygon fill="#63b8ff" stroke="#63b8ff" points="692.42,-22.91 681.86,-23.71 690.62,-29.67 692.42,-22.91"/>
</a>
</g>
</g>
<!-- Node12 -->
<g id="Node000012" class="node">
<title>Node12</title>
<g id="a_Node000012"><a xlink:title=" ">
<polygon fill="#e0e0e0" stroke="#999999" points="44,-24.5 0,-24.5 0,-5.5 44,-5.5 44,-24.5"/>
<text text-anchor="middle" x="22" y="-12.5" font-family="Helvetica,sans-Serif" font-size="10.00">string</text>
</a>
</g>
</g>
<!-- Node1&#45;&gt;Node12 -->
<g id="edge11_Node000001_Node000012" class="edge">
<title>Node1&#45;&gt;Node12</title>
<g id="a_edge11_Node000001_Node000012"><a xlink:title=" ">
<path fill="none" stroke="#63b8ff" d="M460.81,-266.69C367.36,-258.79 218.43,-242.64 169,-217 91.69,-176.89 45.02,-75.43 28.65,-34.02"/>
<polygon fill="#63b8ff" stroke="#63b8ff" points="31.9,-32.74 25.06,-24.65 25.37,-35.24 31.9,-32.74"/>
</a>
</g>
</g>
<!-- Node13 -->
<g id="Node000013" class="node">
<title>Node13</title>
<g id="a_Node000013"><a xlink:title=" ">
<polygon fill="#e0e0e0" stroke="#999999" points="829.5,-145.5 782.5,-145.5 782.5,-126.5 829.5,-126.5 829.5,-145.5"/>
<text text-anchor="middle" x="806" y="-133.5" font-family="Helvetica,sans-Serif" font-size="10.00">vector</text>
</a>
</g>
</g>
<!-- Node1&#45;&gt;Node13 -->
<g id="edge12_Node000001_Node000013" class="edge">
<title>Node1&#45;&gt;Node13</title>
<g id="a_edge12_Node000001_Node000013"><a xlink:title=" ">
<path fill="none" stroke="#63b8ff" d="M578.39,-252.94C633.45,-224.9 733.34,-174.02 780.3,-150.09"/>
<polygon fill="#63b8ff" stroke="#63b8ff" points="781.89,-153.21 789.22,-145.55 778.72,-146.97 781.89,-153.21"/>
</a>
</g>
</g>
<!-- Node14 -->
<g id="Node000014" class="node">
<title>Node14</title>
<g id="a_Node000014"><a xlink:href="casadi-external-function_8hpp.html" target="_top" xlink:title=" ">
<polygon fill="white" stroke="#666666" points="602.5,-217 477.5,-217 477.5,-187 602.5,-187 602.5,-217"/>
<text text-anchor="start" x="485.5" y="-205" font-family="Helvetica,sans-Serif" font-size="10.00">alpaqa/casadi/casadi</text>
<text text-anchor="middle" x="540" y="-194" font-family="Helvetica,sans-Serif" font-size="10.00">&#45;external&#45;function.hpp</text>
</a>
</g>
</g>
<!-- Node1&#45;&gt;Node14 -->
<g id="edge13_Node000001_Node000014" class="edge">
<title>Node1&#45;&gt;Node14</title>
<g id="a_edge13_Node000001_Node000014"><a xlink:title=" ">
<path fill="none" stroke="#63b8ff" d="M540,-252.77C540,-244.85 540,-235.63 540,-227.3"/>
<polygon fill="#63b8ff" stroke="#63b8ff" points="543.5,-227.04 540,-217.04 536.5,-227.04 543.5,-227.04"/>
</a>
</g>
</g>
<!-- Node5 -->
<g id="Node000005" class="node">
<title>Node5</title>
<g id="a_Node000005"><a xlink:href="quadmath-print_8hpp.html" target="_top" xlink:title=" ">
<polygon fill="white" stroke="#666666" points="1243.5,-151 1122.5,-151 1122.5,-121 1243.5,-121 1243.5,-151"/>
<text text-anchor="start" x="1130.5" y="-139" font-family="Helvetica,sans-Serif" font-size="10.00">alpaqa/util/quadmath</text>
<text text-anchor="middle" x="1183" y="-128" font-family="Helvetica,sans-Serif" font-size="10.00">/quadmath&#45;print.hpp</text>
</a>
</g>
</g>
<!-- Node4&#45;&gt;Node5 -->
<g id="edge4_Node000004_Node000005" class="edge">
<title>Node4&#45;&gt;Node5</title>
<g id="a_edge4_Node000004_Node000005"><a xlink:title=" ">
<path fill="none" stroke="#63b8ff" d="M1085.24,-192.37C1101.58,-183.11 1128.05,-168.12 1149.32,-156.07"/>
<polygon fill="#63b8ff" stroke="#63b8ff" points="1151.1,-159.09 1158.08,-151.12 1147.65,-153 1151.1,-159.09"/>
</a>
</g>
</g>
<!-- Node6 -->
<g id="Node000006" class="node">
<title>Node6</title>
<g id="a_Node000006"><a xlink:href="quadmath_8hpp.html" target="_top" xlink:title=" ">
<polygon fill="white" stroke="#666666" points="1382.5,-151 1261.5,-151 1261.5,-121 1382.5,-121 1382.5,-151"/>
<text text-anchor="start" x="1269.5" y="-139" font-family="Helvetica,sans-Serif" font-size="10.00">alpaqa/util/quadmath</text>
<text text-anchor="middle" x="1322" y="-128" font-family="Helvetica,sans-Serif" font-size="10.00">/quadmath.hpp</text>
</a>
</g>
</g>
<!-- Node4&#45;&gt;Node6 -->
<g id="edge5_Node000004_Node000006" class="edge">
<title>Node4&#45;&gt;Node6</title>
<g id="a_edge5_Node000004_Node000006"><a xlink:title=" ">
<path fill="none" stroke="#63b8ff" d="M1103.72,-192.44C1142.75,-182.52 1207.91,-165.98 1256.9,-153.53"/>
<polygon fill="#63b8ff" stroke="#63b8ff" points="1257.95,-156.88 1266.78,-151.02 1256.22,-150.09 1257.95,-156.88"/>
</a>
</g>
</g>
<!-- Node7 -->
<g id="Node000007" class="node">
<title>Node7</title>
<g id="a_Node000007"><a xlink:title=" ">
<polygon fill="#e0e0e0" stroke="#999999" points="1459.5,-145.5 1400.5,-145.5 1400.5,-126.5 1459.5,-126.5 1459.5,-145.5"/>
<text text-anchor="middle" x="1430" y="-133.5" font-family="Helvetica,sans-Serif" font-size="10.00">complex</text>
</a>
</g>
</g>
<!-- Node4&#45;&gt;Node7 -->
<g id="edge6_Node000004_Node000007" class="edge">
<title>Node4&#45;&gt;Node7</title>
<g id="a_edge6_Node000004_Node000007"><a xlink:title=" ">
<path fill="none" stroke="#63b8ff" d="M1137.71,-194.45C1203.42,-187.17 1305.61,-173.38 1392,-151 1394.44,-150.37 1396.95,-149.64 1399.45,-148.85"/>
<polygon fill="#63b8ff" stroke="#63b8ff" points="1400.6,-152.15 1408.93,-145.61 1398.34,-145.53 1400.6,-152.15"/>
</a>
</g>
</g>
<!-- Node8 -->
<g id="Node000008" class="node">
<title>Node8</title>
<g id="a_Node000008"><a xlink:title=" ">
<polygon fill="#e0e0e0" stroke="#999999" points="930,-145.5 886,-145.5 886,-126.5 930,-126.5 930,-145.5"/>
<text text-anchor="middle" x="908" y="-133.5" font-family="Helvetica,sans-Serif" font-size="10.00">limits</text>
</a>
</g>
</g>
<!-- Node4&#45;&gt;Node8 -->
<g id="edge7_Node000004_Node000008" class="edge">
<title>Node4&#45;&gt;Node8</title>
<g id="a_edge7_Node000004_Node000008"><a xlink:title=" ">
<path fill="none" stroke="#63b8ff" d="M1046.17,-192.39C1019.78,-182.74 976.08,-166.43 939,-151 937.99,-150.58 936.97,-150.15 935.93,-149.71"/>
<polygon fill="#63b8ff" stroke="#63b8ff" points="937.17,-146.43 926.61,-145.62 934.36,-152.84 937.17,-146.43"/>
</a>
</g>
</g>
<!-- Node9 -->
<g id="Node000009" class="node">
<title>Node9</title>
<g id="a_Node000009"><a xlink:title=" ">
<polygon fill="#e0e0e0" stroke="#999999" points="1017.5,-145.5 948.5,-145.5 948.5,-126.5 1017.5,-126.5 1017.5,-145.5"/>
<text text-anchor="middle" x="983" y="-133.5" font-family="Helvetica,sans-Serif" font-size="10.00">type_traits</text>
</a>
</g>
</g>
<!-- Node4&#45;&gt;Node9 -->
<g id="edge8_Node000004_Node000009" class="edge">
<title>Node4&#45;&gt;Node9</title>
<g id="a_edge8_Node000004_Node000009"><a xlink:title=" ">
<path fill="none" stroke="#63b8ff" d="M1058.27,-192.37C1044.13,-181.97 1020.14,-164.32 1003.05,-151.75"/>
<polygon fill="#63b8ff" stroke="#63b8ff" points="1004.95,-148.81 994.83,-145.7 1000.81,-154.44 1004.95,-148.81"/>
</a>
</g>
</g>
<!-- Node10 -->
<g id="Node000010" class="node">
<title>Node10</title>
<g id="a_Node000010"><a xlink:title=" ">
<polygon fill="#e0e0e0" stroke="#999999" points="1104.5,-145.5 1035.5,-145.5 1035.5,-126.5 1104.5,-126.5 1104.5,-145.5"/>
<text text-anchor="middle" x="1070" y="-133.5" font-family="Helvetica,sans-Serif" font-size="10.00">Eigen/Core</text>
</a>
</g>
</g>
<!-- Node4&#45;&gt;Node10 -->
<g id="edge9_Node000004_Node000010" class="edge">
<title>Node4&#45;&gt;Node10</title>
<g id="a_edge9_Node000004_Node000010"><a xlink:title=" ">
<path fill="none" stroke="#63b8ff" d="M1070,-192.37C1070,-183.16 1070,-168.29 1070,-156.27"/>
<polygon fill="#63b8ff" stroke="#63b8ff" points="1073.5,-155.91 1070,-145.91 1066.5,-155.91 1073.5,-155.91"/>
</a>
</g>
</g>
<!-- Node14&#45;&gt;Node2 -->
<g id="edge14_Node000014_Node000002" class="edge">
<title>Node14&#45;&gt;Node2</title>
<g id="a_edge14_Node000014_Node000002"><a xlink:title=" ">
<path fill="none" stroke="#63b8ff" d="M477.45,-189.76C421.7,-179.71 337.88,-164.52 265,-151 263.55,-150.73 262.09,-150.46 260.62,-150.19"/>
<polygon fill="#63b8ff" stroke="#63b8ff" points="261.24,-146.74 250.77,-148.35 259.95,-153.62 261.24,-146.74"/>
</a>
</g>
</g>
<!-- Node14&#45;&gt;Node3 -->
<g id="edge28_Node000014_Node000003" class="edge">
<title>Node14&#45;&gt;Node3</title>
<g id="a_edge28_Node000014_Node000003"><a xlink:title=" ">
<path fill="none" stroke="#63b8ff" d="M477.27,-193.33C429.6,-186.12 363.08,-173.05 308,-151 284.29,-141.51 281.82,-132.45 259,-121 220.49,-101.68 202.59,-111.98 169,-85 153.61,-72.64 141.3,-53.91 133.14,-39.08"/>
<polygon fill="#63b8ff" stroke="#63b8ff" points="136.13,-37.24 128.39,-30 129.92,-40.48 136.13,-37.24"/>
</a>
</g>
</g>
<!-- Node14&#45;&gt;Node11 -->
<g id="edge33_Node000014_Node000011" class="edge">
<title>Node14&#45;&gt;Node11</title>
<g id="a_edge33_Node000014_Node000011"><a xlink:title=" ">
<path fill="none" stroke="#63b8ff" d="M545.97,-186.8C552.97,-170.55 565.26,-143.3 578,-121 596.46,-88.69 621.51,-53.25 636.39,-32.91"/>
<polygon fill="#63b8ff" stroke="#63b8ff" points="639.33,-34.82 642.45,-24.7 633.7,-30.67 639.33,-34.82"/>
</a>
</g>
</g>
<!-- Node14&#45;&gt;Node13 -->
<g id="edge35_Node000014_Node000013" class="edge">
<title>Node14&#45;&gt;Node13</title>
<g id="a_edge35_Node000014_Node000013"><a xlink:title=" ">
<path fill="none" stroke="#63b8ff" d="M602.65,-190.89C650.04,-182.45 716.39,-168.9 773,-151 774.63,-150.48 776.29,-149.92 777.96,-149.32"/>
<polygon fill="#63b8ff" stroke="#63b8ff" points="779.35,-152.53 787.38,-145.62 776.8,-146.01 779.35,-152.53"/>
</a>
</g>
</g>
<!-- Node15 -->
<g id="Node000015" class="node">
<title>Node15</title>
<g id="a_Node000015"><a xlink:href="casadi-functions_8hpp.html" target="_top" xlink:title=" ">
<polygon fill="white" stroke="#666666" points="435,-145.5 317,-145.5 317,-126.5 435,-126.5 435,-145.5"/>
<text text-anchor="middle" x="376" y="-133.5" font-family="Helvetica,sans-Serif" font-size="10.00">casadi&#45;functions.hpp</text>
</a>
</g>
</g>
<!-- Node14&#45;&gt;Node15 -->
<g id="edge15_Node000014_Node000015" class="edge">
<title>Node14&#45;&gt;Node15</title>
<g id="a_edge15_Node000014_Node000015"><a xlink:title=" ">
<path fill="none" stroke="#63b8ff" d="M504.01,-186.95C475.12,-175.68 434.97,-160.01 407.38,-149.25"/>
<polygon fill="#63b8ff" stroke="#63b8ff" points="408.41,-145.89 397.83,-145.52 405.87,-152.41 408.41,-145.89"/>
</a>
</g>
</g>
<!-- Node22 -->
<g id="Node000022" class="node">
<title>Node22</title>
<g id="a_Node000022"><a xlink:title=" ">
<polygon fill="#e0e0e0" stroke="#999999" points="598,-24.5 540,-24.5 540,-5.5 598,-5.5 598,-24.5"/>
<text text-anchor="middle" x="569" y="-12.5" font-family="Helvetica,sans-Serif" font-size="10.00">memory</text>
</a>
</g>
</g>
<!-- Node14&#45;&gt;Node22 -->
<g id="edge30_Node000014_Node000022" class="edge">
<title>Node14&#45;&gt;Node22</title>
<g id="a_edge30_Node000014_Node000022"><a xlink:title=" ">
<path fill="none" stroke="#63b8ff" d="M539.48,-186.99C538.87,-162.23 539.03,-109.26 549,-66 551.53,-55.01 556.12,-43.28 560.26,-33.94"/>
<polygon fill="#63b8ff" stroke="#63b8ff" points="563.57,-35.13 564.61,-24.59 557.22,-32.18 563.57,-35.13"/>
</a>
</g>
</g>
<!-- Node23 -->
<g id="Node000023" class="node">
<title>Node23</title>
<g id="a_Node000023"><a xlink:title=" ">
<polygon fill="#e0e0e0" stroke="#999999" points="497,-85 445,-85 445,-66 497,-66 497,-85"/>
<text text-anchor="middle" x="471" y="-73" font-family="Helvetica,sans-Serif" font-size="10.00">cassert</text>
</a>
</g>
</g>
<!-- Node14&#45;&gt;Node23 -->
<g id="edge29_Node000014_Node000023" class="edge">
<title>Node14&#45;&gt;Node23</title>
<g id="a_edge29_Node000014_Node000023"><a xlink:title=" ">
<path fill="none" stroke="#63b8ff" d="M529.95,-186.88C523.13,-177.03 514.09,-163.48 507,-151 496.39,-132.33 485.89,-110.06 479,-94.76"/>
<polygon fill="#63b8ff" stroke="#63b8ff" points="482.1,-93.13 474.84,-85.41 475.71,-95.97 482.1,-93.13"/>
</a>
</g>
</g>
<!-- Node24 -->
<g id="Node000024" class="node">
<title>Node24</title>
<g id="a_Node000024"><a xlink:title=" ">
<polygon fill="#e0e0e0" stroke="#999999" points="643,-145.5 587,-145.5 587,-126.5 643,-126.5 643,-145.5"/>
<text text-anchor="middle" x="615" y="-133.5" font-family="Helvetica,sans-Serif" font-size="10.00">optional</text>
</a>
</g>
</g>
<!-- Node14&#45;&gt;Node24 -->
<g id="edge31_Node000014_Node000024" class="edge">
<title>Node14&#45;&gt;Node24</title>
<g id="a_edge31_Node000014_Node000024"><a xlink:title=" ">
<path fill="none" stroke="#63b8ff" d="M556.64,-186.8C568.57,-176.62 584.61,-162.93 596.86,-152.48"/>
<polygon fill="#63b8ff" stroke="#63b8ff" points="599.3,-155 604.64,-145.84 594.76,-149.67 599.3,-155"/>
</a>
</g>
</g>
<!-- Node25 -->
<g id="Node000025" class="node">
<title>Node25</title>
<g id="a_Node000025"><a xlink:title=" ">
<polygon fill="#e0e0e0" stroke="#999999" points="701,-145.5 661,-145.5 661,-126.5 701,-126.5 701,-145.5"/>
<text text-anchor="middle" x="681" y="-133.5" font-family="Helvetica,sans-Serif" font-size="10.00">span</text>
</a>
</g>
</g>
<!-- Node14&#45;&gt;Node25 -->
<g id="edge32_Node000014_Node000025" class="edge">
<title>Node14&#45;&gt;Node25</title>
<g id="a_edge32_Node000014_Node000025"><a xlink:title=" ">
<path fill="none" stroke="#63b8ff" d="M572.46,-186.81C594.88,-176.94 625.35,-163.38 652,-151 652.82,-150.62 653.65,-150.23 654.49,-149.84"/>
<polygon fill="#63b8ff" stroke="#63b8ff" points="656.03,-152.98 663.56,-145.52 653.02,-146.66 656.03,-152.98"/>
</a>
</g>
</g>
<!-- Node26 -->
<g id="Node000026" class="node">
<title>Node26</title>
<g id="a_Node000026"><a xlink:title=" ">
<polygon fill="#e0e0e0" stroke="#999999" points="764.5,-145.5 719.5,-145.5 719.5,-126.5 764.5,-126.5 764.5,-145.5"/>
<text text-anchor="middle" x="742" y="-133.5" font-family="Helvetica,sans-Serif" font-size="10.00">utility</text>
</a>
</g>
</g>
<!-- Node14&#45;&gt;Node26 -->
<g id="edge34_Node000014_Node000026" class="edge">
<title>Node14&#45;&gt;Node26</title>
<g id="a_edge34_Node000014_Node000026"><a xlink:title=" ">
<path fill="none" stroke="#63b8ff" d="M594.16,-186.95C627.84,-177.75 671.84,-164.9 710,-151 711.39,-150.49 712.8,-149.96 714.23,-149.4"/>
<polygon fill="#63b8ff" stroke="#63b8ff" points="715.64,-152.6 723.55,-145.55 712.97,-146.13 715.64,-152.6"/>
</a>
</g>
</g>
<!-- Node15&#45;&gt;Node3 -->
<g id="edge16_Node000015_Node000003" class="edge">
<title>Node15&#45;&gt;Node3</title>
<g id="a_edge16_Node000015_Node000003"><a xlink:title=" ">
<path fill="none" stroke="#63b8ff" d="M321.31,-126.44C284.75,-119.12 236.48,-106.29 198,-85 175.96,-72.8 155.09,-53.04 140.81,-37.78"/>
<polygon fill="#63b8ff" stroke="#63b8ff" points="143.3,-35.31 133.98,-30.28 138.12,-40.03 143.3,-35.31"/>
</a>
</g>
</g>
<!-- Node16 -->
<g id="Node000016" class="node">
<title>Node16</title>
<g id="a_Node000016"><a xlink:href="casadi-types_8hpp.html" target="_top" xlink:title=" ">
<polygon fill="white" stroke="#666666" points="307,-85 207,-85 207,-66 307,-66 307,-85"/>
<text text-anchor="middle" x="257" y="-73" font-family="Helvetica,sans-Serif" font-size="10.00">casadi&#45;types.hpp</text>
</a>
</g>
</g>
<!-- Node15&#45;&gt;Node16 -->
<g id="edge17_Node000015_Node000016" class="edge">
<title>Node15&#45;&gt;Node16</title>
<g id="a_edge17_Node000015_Node000016"><a xlink:title=" ">
<path fill="none" stroke="#63b8ff" d="M358.7,-126.49C338.95,-116.79 306.45,-100.81 283.51,-89.53"/>
<polygon fill="#63b8ff" stroke="#63b8ff" points="284.84,-86.29 274.32,-85.02 281.75,-92.57 284.84,-86.29"/>
</a>
</g>
</g>
<!-- Node19 -->
<g id="Node000019" class="node">
<title>Node19</title>
<g id="a_Node000019"><a xlink:href="dl_8hpp.html" target="_top" xlink:title=" ">
<polygon fill="white" stroke="#666666" points="426.5,-85 325.5,-85 325.5,-66 426.5,-66 426.5,-85"/>
<text text-anchor="middle" x="376" y="-73" font-family="Helvetica,sans-Serif" font-size="10.00">alpaqa/util/dl.hpp</text>
</a>
</g>
</g>
<!-- Node15&#45;&gt;Node19 -->
<g id="edge22_Node000015_Node000019" class="edge">
<title>Node15&#45;&gt;Node19</title>
<g id="a_edge22_Node000015_Node000019"><a xlink:title=" ">
<path fill="none" stroke="#63b8ff" d="M376,-126.37C376,-118.25 376,-105.81 376,-95.39"/>
<polygon fill="#63b8ff" stroke="#63b8ff" points="379.5,-95.17 376,-85.17 372.5,-95.17 379.5,-95.17"/>
</a>
</g>
</g>
<!-- Node15&#45;&gt;Node23 -->
<g id="edge27_Node000015_Node000023" class="edge">
<title>Node15&#45;&gt;Node23</title>
<g id="a_edge27_Node000015_Node000023"><a xlink:title=" ">
<path fill="none" stroke="#63b8ff" d="M390.02,-126.37C405.31,-116.95 430.03,-101.73 448.14,-90.58"/>
<polygon fill="#63b8ff" stroke="#63b8ff" points="450.25,-93.39 456.92,-85.17 446.57,-87.43 450.25,-93.39"/>
</a>
</g>
</g>
<!-- Node16&#45;&gt;Node3 -->
<g id="edge21_Node000016_Node000003" class="edge">
<title>Node16&#45;&gt;Node3</title>
<g id="a_edge21_Node000016_Node000003"><a xlink:title=" ">
<path fill="none" stroke="#63b8ff" d="M237.37,-65.99C218.2,-57.68 188.4,-44.78 163.9,-34.16"/>
<polygon fill="#63b8ff" stroke="#63b8ff" points="165.02,-30.83 154.46,-30.06 162.24,-37.25 165.02,-30.83"/>
</a>
</g>
</g>
<!-- Node16&#45;&gt;Node12 -->
<g id="edge20_Node000016_Node000012" class="edge">
<title>Node16&#45;&gt;Node12</title>
<g id="a_edge20_Node000016_Node000012"><a xlink:title=" ">
<path fill="none" stroke="#63b8ff" d="M206.75,-66.57C164.97,-59.26 104.28,-46.96 53,-30 51.56,-29.52 50.1,-29 48.64,-28.45"/>
<polygon fill="#63b8ff" stroke="#63b8ff" points="49.7,-25.1 39.12,-24.5 47.02,-31.57 49.7,-25.1"/>
</a>
</g>
</g>
<!-- Node17 -->
<g id="Node000017" class="node">
<title>Node17</title>
<g id="a_Node000017"><a xlink:title=" ">
<polygon fill="#e0e0e0" stroke="#999999" points="264,-24.5 200,-24.5 200,-5.5 264,-5.5 264,-24.5"/>
<text text-anchor="middle" x="232" y="-12.5" font-family="Helvetica,sans-Serif" font-size="10.00">algorithm</text>
</a>
</g>
</g>
<!-- Node16&#45;&gt;Node17 -->
<g id="edge18_Node000016_Node000017" class="edge">
<title>Node16&#45;&gt;Node17</title>
<g id="a_edge18_Node000016_Node000017"><a xlink:title=" ">
<path fill="none" stroke="#63b8ff" d="M253.31,-65.87C249.73,-57.49 244.18,-44.51 239.65,-33.89"/>
<polygon fill="#63b8ff" stroke="#63b8ff" points="242.85,-32.49 235.7,-24.67 236.42,-35.24 242.85,-32.49"/>
</a>
</g>
</g>
<!-- Node18 -->
<g id="Node000018" class="node">
<title>Node18</title>
<g id="a_Node000018"><a xlink:title=" ">
<polygon fill="#e0e0e0" stroke="#999999" points="324,-24.5 282,-24.5 282,-5.5 324,-5.5 324,-24.5"/>
<text text-anchor="middle" x="303" y="-12.5" font-family="Helvetica,sans-Serif" font-size="10.00">array</text>
</a>
</g>
</g>
<!-- Node16&#45;&gt;Node18 -->
<g id="edge19_Node000016_Node000018" class="edge">
<title>Node16&#45;&gt;Node18</title>
<g id="a_edge19_Node000016_Node000018"><a xlink:title=" ">
<path fill="none" stroke="#63b8ff" d="M263.79,-65.87C270.65,-57.14 281.43,-43.43 289.95,-32.59"/>
<polygon fill="#63b8ff" stroke="#63b8ff" points="292.75,-34.69 296.18,-24.67 287.25,-30.36 292.75,-34.69"/>
</a>
</g>
</g>
<!-- Node19&#45;&gt;Node11 -->
<g id="edge26_Node000019_Node000011" class="edge">
<title>Node19&#45;&gt;Node11</title>
<g id="a_edge26_Node000019_Node000011"><a xlink:title=" ">
<path fill="none" stroke="#63b8ff" d="M426.9,-66.67C473.99,-58.96 545.76,-46.03 607,-30 609.79,-29.27 612.66,-28.45 615.53,-27.59"/>
<polygon fill="#63b8ff" stroke="#63b8ff" points="616.7,-30.9 625.18,-24.54 614.59,-24.22 616.7,-30.9"/>
</a>
</g>
</g>
<!-- Node20 -->
<g id="Node000020" class="node">
<title>Node20</title>
<g id="a_Node000020"><a xlink:title=" ">
<polygon fill="#e0e0e0" stroke="#999999" points="521.5,-24.5 428.5,-24.5 428.5,-5.5 521.5,-5.5 521.5,-24.5"/>
<text text-anchor="middle" x="475" y="-12.5" font-family="Helvetica,sans-Serif" font-size="10.00">alpaqa/export.h</text>
</a>
</g>
</g>
<!-- Node19&#45;&gt;Node20 -->
<g id="edge23_Node000019_Node000020" class="edge">
<title>Node19&#45;&gt;Node20</title>
<g id="a_edge23_Node000019_Node000020"><a xlink:title=" ">
<path fill="none" stroke="#63b8ff" d="M390.61,-65.87C406.69,-56.36 432.78,-40.95 451.7,-29.77"/>
<polygon fill="#63b8ff" stroke="#63b8ff" points="453.5,-32.77 460.33,-24.67 449.94,-26.74 453.5,-32.77"/>
</a>
</g>
</g>
<!-- Node21 -->
<g id="Node000021" class="node">
<title>Node21</title>
<g id="a_Node000021"><a xlink:title=" ">
<polygon fill="#e0e0e0" stroke="#999999" points="410,-24.5 342,-24.5 342,-5.5 410,-5.5 410,-24.5"/>
<text text-anchor="middle" x="376" y="-12.5" font-family="Helvetica,sans-Serif" font-size="10.00">filesystem</text>
</a>
</g>
</g>
<!-- Node19&#45;&gt;Node21 -->
<g id="edge24_Node000019_Node000021" class="edge">
<title>Node19&#45;&gt;Node21</title>
<g id="a_edge24_Node000019_Node000021"><a xlink:title=" ">
<path fill="none" stroke="#63b8ff" d="M376,-65.87C376,-57.75 376,-45.31 376,-34.89"/>
<polygon fill="#63b8ff" stroke="#63b8ff" points="379.5,-34.67 376,-24.67 372.5,-34.67 379.5,-34.67"/>
</a>
</g>
</g>
<!-- Node19&#45;&gt;Node22 -->
<g id="edge25_Node000019_Node000022" class="edge">
<title>Node19&#45;&gt;Node22</title>
<g id="a_edge25_Node000019_Node000022"><a xlink:title=" ">
<path fill="none" stroke="#63b8ff" d="M407.74,-65.96C439,-57.4 488.03,-43.58 530,-30 532.11,-29.32 534.28,-28.59 536.47,-27.85"/>
<polygon fill="#63b8ff" stroke="#63b8ff" points="537.69,-31.13 545.99,-24.53 535.39,-24.52 537.69,-31.13"/>
</a>
</g>
</g>
</g>
</svg>

<g id="navigator" transform="translate(0 0)" fill="#404254">
  <rect fill="#f2f5e9" fill-opacity="0.5" stroke="#606060" stroke-width=".5" x="0" y="0" width="60" height="60"/>
  <use id="zoomplus" xlink:href="#zoomPlus" x="17" y="9" onmousedown="handleZoom(evt,'in')"/>
  <use id="zoomminus" xlink:href="#zoomMin" x="42" y="9" onmousedown="handleZoom(evt,'out')"/>
  <use id="reset" xlink:href="#resetDef" x="30" y="36" onmousedown="handleReset()"/>
   <use id="arrowup" xlink:href="#arrowUp" x="0" y="0" onmousedown="handlePan(0,-1)"/>
  <use id="arrowright" xlink:href="#arrowRight" x="0" y="0" onmousedown="handlePan(1,0)"/>
  <use id="arrowdown" xlink:href="#arrowDown" x="0" y="0" onmousedown="handlePan(0,1)"/>
  <use id="arrowleft" xlink:href="#arrowLeft" x="0" y="0" onmousedown="handlePan(-1,0)"/>
</g>
<svg viewBox="0 0 15 15" width="100%" height="30px" preserveAspectRatio="xMaxYMin meet">
 <g id="arrow_out" transform="scale(0.3 0.3)">
  <a xlink:href="CasADiFunctionWrapper_8hpp__incl_org.svg" target="_base">
   <rect id="button" ry="5" rx="5" y="6" x="6" height="38" width="38"
        fill="#f2f5e9" fill-opacity="0.5" stroke="#606060" stroke-width="1.0"/>
   <path id="arrow"
     d="M 11.500037,31.436501 C 11.940474,20.09759 22.043105,11.32322 32.158766,21.979434 L 37.068811,17.246167 C 37.068811,17.246167 37.088388,32 37.088388,32 L 22.160133,31.978069 C 22.160133,31.978069 26.997745,27.140456 26.997745,27.140456 C 18.528582,18.264221 13.291696,25.230495 11.500037,31.436501 z"
     style="fill:#404040;"/>
  </a>
 </g>
</svg>

<style type='text/css'>
<![CDATA[
[data-mouse-over-selected='false'] { opacity: 0.7; }
[data-mouse-over-selected='true']  { opacity: 1.0; }
]]>
</style>
<script type="application/ecmascript"><![CDATA[
document.addEventListener('DOMContentLoaded', (event) => {
  highlightEdges();
  highlightAdjacentNodes();
});
]]></script>
</svg>
