<?xml version="1.0" encoding="UTF-8" standalone="no"?>
<!DOCTYPE svg PUBLIC "-//W3C//DTD SVG 1.1//EN"
 "http://www.w3.org/Graphics/SVG/1.1/DTD/svg11.dtd">
<!-- Generated by graphviz version 2.43.0 (0)
 -->
<!-- Title: src/interop/casadi/include/alpaqa/casadi/casadi&#45;functions.hpp Pages: 1 -->
<!--zoomable 159 -->

<svg id="main" version="1.1" xmlns="http://www.w3.org/2000/svg" xmlns:xlink="http://www.w3.org/1999/xlink" xml:space="preserve" onload="init(evt)">
<style type="text/css"><![CDATA[
.node, .edge {opacity: 0.7;}
.node.selected, .edge.selected {opacity: 1;}
.edge:hover path { stroke: red; }
.edge:hover polygon { stroke: red; fill: red; }
]]></style>

<defs>
  <circle id="rim" cx="0" cy="0" r="7"/>
  <circle id="rim2" cx="0" cy="0" r="3.5"/>
  <g id="zoomPlus">
    <use xlink:href="#rim" fill="#404040"><set attributeName="fill" to="#808080" begin="zoomplus.mouseover" end="zoomplus.mouseout"/></use>
    <path d="M-4,0h8M0,-4v8" fill="none" stroke="white" stroke-width="1.5" pointer-events="none"/>
  </g>
  <g id="zoomMin">
    <use xlink:href="#rim" fill="#404040"><set attributeName="fill" to="#808080" begin="zoomminus.mouseover" end="zoomminus.mouseout"/></use>
    <path d="M-4,0h8" fill="none" stroke="white" stroke-width="1.5" pointer-events="none"/>
  </g>
  <g id="arrowUp" transform="translate(30 24)">
    <use xlink:href="#rim"/>
    <path pointer-events="none" fill="none" stroke="white" stroke-width="1.5" d="M0,-3.0v7 M-2.5,-0.5L0,-3.0L2.5,-0.5"/>
  </g>
  <g id="arrowRight" transform="rotate(90) translate(36 -43)">
    <use xlink:href="#rim"/>
    <path pointer-events="none" fill="none" stroke="white" stroke-width="1.5" d="M0,-3.0v7 M-2.5,-0.5L0,-3.0L2.5,-0.5"/>
  </g>
  <g id="arrowDown" transform="rotate(180) translate(-30 -48)">
    <use xlink:href="#rim"/>
    <path pointer-events="none" fill="none" stroke="white" stroke-width="1.5" d="M0,-3.0v7 M-2.5,-0.5L0,-3.0L2.5,-0.5"/>
  </g>
  <g id="arrowLeft" transform="rotate(270) translate(-36 17)">
    <use xlink:href="#rim"/>
    <path pointer-events="none" fill="none" stroke="white" stroke-width="1.5" d="M0,-3.0v7 M-2.5,-0.5L0,-3.0L2.5,-0.5"/>
  </g>
  <g id="resetDef">
    <use xlink:href="#rim2" fill="#404040"><set attributeName="fill" to="#808080" begin="reset.mouseover" end="reset.mouseout"/></use>
  </g>
</defs>
<script type="application/ecmascript">
var viewWidth = 699;
var viewHeight = 159;
var sectionId = 'dynsection-0';
</script>
<script type="application/ecmascript" xlink:href="svg.min.js"/>
<svg id="graph" class="graph">
<g id="viewport">
<title>src/interop/casadi/include/alpaqa/casadi/casadi&#45;functions.hpp</title>
<!-- Node1 -->
<g id="Node000001" class="node">
<title>Node1</title>
<g id="a_Node000001"><a xlink:title=" ">
<polygon fill="#999999" stroke="#666666" points="387,-151 262,-151 262,-110 387,-110 387,-151"/>
<text text-anchor="start" x="270" y="-139" font-family="Helvetica,sans-Serif" font-size="10.00">src/interop/casadi</text>
<text text-anchor="start" x="270" y="-128" font-family="Helvetica,sans-Serif" font-size="10.00">/include/alpaqa/casadi</text>
<text text-anchor="middle" x="324.5" y="-117" font-family="Helvetica,sans-Serif" font-size="10.00">/casadi&#45;functions.hpp</text>
</a>
</g>
</g>
<!-- Node2 -->
<g id="Node000002" class="node">
<title>Node2</title>
<g id="a_Node000002"><a xlink:href="casadi-namespace_8hpp.html" target="_top" xlink:title=" ">
<polygon fill="white" stroke="#666666" points="129,-19 0,-19 0,0 129,0 129,-19"/>
<text text-anchor="middle" x="64.5" y="-7" font-family="Helvetica,sans-Serif" font-size="10.00">casadi&#45;namespace.hpp</text>
</a>
</g>
</g>
<!-- Node1&#45;&gt;Node2 -->
<g id="edge1_Node000001_Node000002" class="edge">
<title>Node1&#45;&gt;Node2</title>
<g id="a_edge1_Node000001_Node000002"><a xlink:title=" ">
<path fill="none" stroke="#63b8ff" d="M275.51,-109.99C250.24,-99.69 219.02,-86.61 191.5,-74 155.73,-57.62 115.19,-36.98 89.74,-23.76"/>
<polygon fill="#63b8ff" stroke="#63b8ff" points="91.25,-20.6 80.77,-19.08 88.02,-26.81 91.25,-20.6"/>
</a>
</g>
</g>
<!-- Node3 -->
<g id="Node000003" class="node">
<title>Node3</title>
<g id="a_Node000003"><a xlink:href="casadi-types_8hpp.html" target="_top" xlink:title=" ">
<polygon fill="white" stroke="#666666" points="300.5,-74 200.5,-74 200.5,-55 300.5,-55 300.5,-74"/>
<text text-anchor="middle" x="250.5" y="-62" font-family="Helvetica,sans-Serif" font-size="10.00">casadi&#45;types.hpp</text>
</a>
</g>
</g>
<!-- Node1&#45;&gt;Node3 -->
<g id="edge2_Node000001_Node000003" class="edge">
<title>Node1&#45;&gt;Node3</title>
<g id="a_edge2_Node000001_Node000003"><a xlink:title=" ">
<path fill="none" stroke="#63b8ff" d="M301.9,-109.95C291.14,-100.65 278.45,-89.68 268.38,-80.96"/>
<polygon fill="#63b8ff" stroke="#63b8ff" points="270.48,-78.15 260.63,-74.26 265.9,-83.45 270.48,-78.15"/>
</a>
</g>
</g>
<!-- Node7 -->
<g id="Node000007" class="node">
<title>Node7</title>
<g id="a_Node000007"><a xlink:href="dl_8hpp.html" target="_top" xlink:title=" ">
<polygon fill="white" stroke="#666666" points="498,-74 397,-74 397,-55 498,-55 498,-74"/>
<text text-anchor="middle" x="447.5" y="-62" font-family="Helvetica,sans-Serif" font-size="10.00">alpaqa/util/dl.hpp</text>
</a>
</g>
</g>
<!-- Node1&#45;&gt;Node7 -->
<g id="edge7_Node000001_Node000007" class="edge">
<title>Node1&#45;&gt;Node7</title>
<g id="a_edge7_Node000001_Node000007"><a xlink:title=" ">
<path fill="none" stroke="#63b8ff" d="M362.07,-109.95C381.51,-99.84 404.71,-87.76 422.03,-78.75"/>
<polygon fill="#63b8ff" stroke="#63b8ff" points="423.73,-81.81 430.99,-74.09 420.5,-75.6 423.73,-81.81"/>
</a>
</g>
</g>
<!-- Node12 -->
<g id="Node000012" class="node">
<title>Node12</title>
<g id="a_Node000012"><a xlink:title=" ">
<polygon fill="#e0e0e0" stroke="#999999" points="568.5,-74 516.5,-74 516.5,-55 568.5,-55 568.5,-74"/>
<text text-anchor="middle" x="542.5" y="-62" font-family="Helvetica,sans-Serif" font-size="10.00">cassert</text>
</a>
</g>
</g>
<!-- Node1&#45;&gt;Node12 -->
<g id="edge12_Node000001_Node000012" class="edge">
<title>Node1&#45;&gt;Node12</title>
<g id="a_edge12_Node000001_Node000012"><a xlink:title=" ">
<path fill="none" stroke="#63b8ff" d="M387.26,-111.07C425.97,-99.71 474.22,-85.55 506.56,-76.05"/>
<polygon fill="#63b8ff" stroke="#63b8ff" points="507.86,-79.32 516.47,-73.14 505.89,-72.6 507.86,-79.32"/>
</a>
</g>
</g>
<!-- Node3&#45;&gt;Node2 -->
<g id="edge6_Node000003_Node000002" class="edge">
<title>Node3&#45;&gt;Node2</title>
<g id="a_edge6_Node000003_Node000002"><a xlink:title=" ">
<path fill="none" stroke="#63b8ff" d="M220.62,-54.98C189.12,-46.01 139.33,-31.82 104.47,-21.89"/>
<polygon fill="#63b8ff" stroke="#63b8ff" points="105.19,-18.46 94.62,-19.08 103.28,-25.19 105.19,-18.46"/>
</a>
</g>
</g>
<!-- Node4 -->
<g id="Node000004" class="node">
<title>Node4</title>
<g id="a_Node000004"><a xlink:title=" ">
<polygon fill="#e0e0e0" stroke="#999999" points="211.5,-19 147.5,-19 147.5,0 211.5,0 211.5,-19"/>
<text text-anchor="middle" x="179.5" y="-7" font-family="Helvetica,sans-Serif" font-size="10.00">algorithm</text>
</a>
</g>
</g>
<!-- Node3&#45;&gt;Node4 -->
<g id="edge3_Node000003_Node000004" class="edge">
<title>Node3&#45;&gt;Node4</title>
<g id="a_edge3_Node000003_Node000004"><a xlink:title=" ">
<path fill="none" stroke="#63b8ff" d="M239.09,-54.98C228.39,-47 212.16,-34.88 199.34,-25.31"/>
<polygon fill="#63b8ff" stroke="#63b8ff" points="201.22,-22.35 191.11,-19.17 197.03,-27.96 201.22,-22.35"/>
</a>
</g>
</g>
<!-- Node5 -->
<g id="Node000005" class="node">
<title>Node5</title>
<g id="a_Node000005"><a xlink:title=" ">
<polygon fill="#e0e0e0" stroke="#999999" points="271.5,-19 229.5,-19 229.5,0 271.5,0 271.5,-19"/>
<text text-anchor="middle" x="250.5" y="-7" font-family="Helvetica,sans-Serif" font-size="10.00">array</text>
</a>
</g>
</g>
<!-- Node3&#45;&gt;Node5 -->
<g id="edge4_Node000003_Node000005" class="edge">
<title>Node3&#45;&gt;Node5</title>
<g id="a_edge4_Node000003_Node000005"><a xlink:title=" ">
<path fill="none" stroke="#63b8ff" d="M250.5,-54.75C250.5,-47.8 250.5,-37.85 250.5,-29.13"/>
<polygon fill="#63b8ff" stroke="#63b8ff" points="254,-29.09 250.5,-19.09 247,-29.09 254,-29.09"/>
</a>
</g>
</g>
<!-- Node6 -->
<g id="Node000006" class="node">
<title>Node6</title>
<g id="a_Node000006"><a xlink:title=" ">
<polygon fill="#e0e0e0" stroke="#999999" points="333.5,-19 289.5,-19 289.5,0 333.5,0 333.5,-19"/>
<text text-anchor="middle" x="311.5" y="-7" font-family="Helvetica,sans-Serif" font-size="10.00">string</text>
</a>
</g>
</g>
<!-- Node3&#45;&gt;Node6 -->
<g id="edge5_Node000003_Node000006" class="edge">
<title>Node3&#45;&gt;Node6</title>
<g id="a_edge5_Node000003_Node000006"><a xlink:title=" ">
<path fill="none" stroke="#63b8ff" d="M260.3,-54.98C269.32,-47.15 282.91,-35.34 293.82,-25.86"/>
<polygon fill="#63b8ff" stroke="#63b8ff" points="296.27,-28.37 301.52,-19.17 291.68,-23.09 296.27,-28.37"/>
</a>
</g>
</g>
<!-- Node8 -->
<g id="Node000008" class="node">
<title>Node8</title>
<g id="a_Node000008"><a xlink:title=" ">
<polygon fill="#e0e0e0" stroke="#999999" points="445,-19 352,-19 352,0 445,0 445,-19"/>
<text text-anchor="middle" x="398.5" y="-7" font-family="Helvetica,sans-Serif" font-size="10.00">alpaqa/export.h</text>
</a>
</g>
</g>
<!-- Node7&#45;&gt;Node8 -->
<g id="edge8_Node000007_Node000008" class="edge">
<title>Node7&#45;&gt;Node8</title>
<g id="a_edge8_Node000007_Node000008"><a xlink:title=" ">
<path fill="none" stroke="#63b8ff" d="M439.41,-54.75C432.34,-47.11 421.91,-35.82 413.35,-26.56"/>
<polygon fill="#63b8ff" stroke="#63b8ff" points="415.8,-24.06 406.44,-19.09 410.66,-28.81 415.8,-24.06"/>
</a>
</g>
</g>
<!-- Node9 -->
<g id="Node000009" class="node">
<title>Node9</title>
<g id="a_Node000009"><a xlink:title=" ">
<polygon fill="#e0e0e0" stroke="#999999" points="531.5,-19 463.5,-19 463.5,0 531.5,0 531.5,-19"/>
<text text-anchor="middle" x="497.5" y="-7" font-family="Helvetica,sans-Serif" font-size="10.00">filesystem</text>
</a>
</g>
</g>
<!-- Node7&#45;&gt;Node9 -->
<g id="edge9_Node000007_Node000009" class="edge">
<title>Node7&#45;&gt;Node9</title>
<g id="a_edge9_Node000007_Node000009"><a xlink:title=" ">
<path fill="none" stroke="#63b8ff" d="M455.76,-54.75C462.96,-47.11 473.61,-35.82 482.35,-26.56"/>
<polygon fill="#63b8ff" stroke="#63b8ff" points="485.08,-28.76 489.4,-19.09 479.99,-23.96 485.08,-28.76"/>
</a>
</g>
</g>
<!-- Node10 -->
<g id="Node000010" class="node">
<title>Node10</title>
<g id="a_Node000010"><a xlink:title=" ">
<polygon fill="#e0e0e0" stroke="#999999" points="607.5,-19 549.5,-19 549.5,0 607.5,0 607.5,-19"/>
<text text-anchor="middle" x="578.5" y="-7" font-family="Helvetica,sans-Serif" font-size="10.00">memory</text>
</a>
</g>
</g>
<!-- Node7&#45;&gt;Node10 -->
<g id="edge10_Node000007_Node000010" class="edge">
<title>Node7&#45;&gt;Node10</title>
<g id="a_edge10_Node000007_Node000010"><a xlink:title=" ">
<path fill="none" stroke="#63b8ff" d="M468.55,-54.98C489.91,-46.34 523.2,-32.87 547.56,-23.02"/>
<polygon fill="#63b8ff" stroke="#63b8ff" points="549.11,-26.17 557.07,-19.17 546.49,-19.68 549.11,-26.17"/>
</a>
</g>
</g>
<!-- Node11 -->
<g id="Node000011" class="node">
<title>Node11</title>
<g id="a_Node000011"><a xlink:title=" ">
<polygon fill="#e0e0e0" stroke="#999999" points="691,-19 626,-19 626,0 691,0 691,-19"/>
<text text-anchor="middle" x="658.5" y="-7" font-family="Helvetica,sans-Serif" font-size="10.00">stdexcept</text>
</a>
</g>
</g>
<!-- Node7&#45;&gt;Node11 -->
<g id="edge11_Node000007_Node000011" class="edge">
<title>Node7&#45;&gt;Node11</title>
<g id="a_edge11_Node000007_Node000011"><a xlink:title=" ">
<path fill="none" stroke="#63b8ff" d="M481.4,-54.98C517.94,-45.81 576.19,-31.18 615.82,-21.22"/>
<polygon fill="#63b8ff" stroke="#63b8ff" points="616.88,-24.56 625.72,-18.73 615.17,-17.77 616.88,-24.56"/>
</a>
</g>
</g>
</g>
</svg>

<g id="navigator" transform="translate(0 0)" fill="#404254">
  <rect fill="#f2f5e9" fill-opacity="0.5" stroke="#606060" stroke-width=".5" x="0" y="0" width="60" height="60"/>
  <use id="zoomplus" xlink:href="#zoomPlus" x="17" y="9" onmousedown="handleZoom(evt,'in')"/>
  <use id="zoomminus" xlink:href="#zoomMin" x="42" y="9" onmousedown="handleZoom(evt,'out')"/>
  <use id="reset" xlink:href="#resetDef" x="30" y="36" onmousedown="handleReset()"/>
   <use id="arrowup" xlink:href="#arrowUp" x="0" y="0" onmousedown="handlePan(0,-1)"/>
  <use id="arrowright" xlink:href="#arrowRight" x="0" y="0" onmousedown="handlePan(1,0)"/>
  <use id="arrowdown" xlink:href="#arrowDown" x="0" y="0" onmousedown="handlePan(0,1)"/>
  <use id="arrowleft" xlink:href="#arrowLeft" x="0" y="0" onmousedown="handlePan(-1,0)"/>
</g>
<svg viewBox="0 0 15 15" width="100%" height="30px" preserveAspectRatio="xMaxYMin meet">
 <g id="arrow_out" transform="scale(0.3 0.3)">
  <a xlink:href="casadi-functions_8hpp__incl_org.svg" target="_base">
   <rect id="button" ry="5" rx="5" y="6" x="6" height="38" width="38"
        fill="#f2f5e9" fill-opacity="0.5" stroke="#606060" stroke-width="1.0"/>
   <path id="arrow"
     d="M 11.500037,31.436501 C 11.940474,20.09759 22.043105,11.32322 32.158766,21.979434 L 37.068811,17.246167 C 37.068811,17.246167 37.088388,32 37.088388,32 L 22.160133,31.978069 C 22.160133,31.978069 26.997745,27.140456 26.997745,27.140456 C 18.528582,18.264221 13.291696,25.230495 11.500037,31.436501 z"
     style="fill:#404040;"/>
  </a>
 </g>
</svg>

<style type='text/css'>
<![CDATA[
[data-mouse-over-selected='false'] { opacity: 0.7; }
[data-mouse-over-selected='true']  { opacity: 1.0; }
]]>
</style>
<script type="application/ecmascript"><![CDATA[
document.addEventListener('DOMContentLoaded', (event) => {
  highlightEdges();
  highlightAdjacentNodes();
});
]]></script>
</svg>
