<?xml version="1.0" encoding="UTF-8" standalone="no"?>
<!DOCTYPE svg PUBLIC "-//W3C//DTD SVG 1.1//EN"
 "http://www.w3.org/Graphics/SVG/1.1/DTD/svg11.dtd">
<!-- Generated by graphviz version 2.43.0 (0)
 -->
<!-- Title: src/interop/casadi/include/alpaqa/casadi/casadi&#45;namespace.hpp Pages: 1 -->
<svg width="907pt" height="577pt"
 viewBox="0.00 0.00 907.00 577.00" xmlns="http://www.w3.org/2000/svg" xmlns:xlink="http://www.w3.org/1999/xlink">
<g id="graph0" class="graph" transform="scale(1 1) rotate(0) translate(4 573)">
<title>src/interop/casadi/include/alpaqa/casadi/casadi&#45;namespace.hpp</title>
<!-- Node1 -->
<g id="Node000001" class="node">
<title>Node1</title>
<g id="a_Node000001"><a xlink:title=" ">
<polygon fill="#999999" stroke="#666666" points="564,-569 432,-569 432,-528 564,-528 564,-569"/>
<text text-anchor="start" x="440" y="-557" font-family="Helvetica,sans-Serif" font-size="10.00">src/interop/casadi</text>
<text text-anchor="start" x="440" y="-546" font-family="Helvetica,sans-Serif" font-size="10.00">/include/alpaqa/casadi</text>
<text text-anchor="middle" x="498" y="-535" font-family="Helvetica,sans-Serif" font-size="10.00">/casadi&#45;namespace.hpp</text>
</a>
</g>
</g>
<!-- Node2 -->
<g id="Node000002" class="node">
<title>Node2</title>
<g id="a_Node000002"><a xlink:href="CasADiControlProblem_8hpp.html" target="_top" xlink:title=" ">
<polygon fill="white" stroke="#666666" points="231,-415 79,-415 79,-374 231,-374 231,-415"/>
<text text-anchor="start" x="87" y="-403" font-family="Helvetica,sans-Serif" font-size="10.00">src/interop/casadi</text>
<text text-anchor="start" x="87" y="-392" font-family="Helvetica,sans-Serif" font-size="10.00">/include/alpaqa/casadi</text>
<text text-anchor="middle" x="155" y="-381" font-family="Helvetica,sans-Serif" font-size="10.00">/CasADiControlProblem.hpp</text>
</a>
</g>
</g>
<!-- Node1&#45;&gt;Node2 -->
<g id="edge1_Node000001_Node000002" class="edge">
<title>Node1&#45;&gt;Node2</title>
<g id="a_edge1_Node000001_Node000002"><a xlink:title=" ">
<path fill="none" stroke="#63b8ff" d="M421.51,-542.68C368.97,-536.61 299.21,-522.9 245,-492 211.56,-472.94 183.25,-437.34 167.74,-415.11"/>
<polygon fill="#63b8ff" stroke="#63b8ff" points="421.46,-546.2 431.78,-543.8 422.22,-539.24 421.46,-546.2"/>
</a>
</g>
</g>
<!-- Node3 -->
<g id="Node000003" class="node">
<title>Node3</title>
<g id="a_Node000003"><a xlink:href="CasADiControlProblem_8tpp.html" target="_top" xlink:title=" ">
<polygon fill="white" stroke="#666666" points="247,-107 63,-107 63,-66 247,-66 247,-107"/>
<text text-anchor="start" x="71" y="-95" font-family="Helvetica,sans-Serif" font-size="10.00">src/interop/casadi</text>
<text text-anchor="start" x="71" y="-84" font-family="Helvetica,sans-Serif" font-size="10.00">/include/alpaqa/implementation</text>
<text text-anchor="middle" x="155" y="-73" font-family="Helvetica,sans-Serif" font-size="10.00">/casadi/CasADiControlProblem.tpp</text>
</a>
</g>
</g>
<!-- Node1&#45;&gt;Node3 -->
<g id="edge27_Node000001_Node000003" class="edge">
<title>Node1&#45;&gt;Node3</title>
<g id="a_edge27_Node000001_Node000003"><a xlink:title=" ">
<path fill="none" stroke="#63b8ff" d="M421.78,-541.42C359.2,-534.58 269.13,-520.47 195,-492 123.08,-464.38 51,-472.54 51,-395.5 51,-395.5 51,-395.5 51,-239.5 51,-183.86 99.05,-133.64 129.82,-107.17"/>
<polygon fill="#63b8ff" stroke="#63b8ff" points="421.66,-544.92 431.97,-542.49 422.39,-537.96 421.66,-544.92"/>
</a>
</g>
</g>
<!-- Node4 -->
<g id="Node000004" class="node">
<title>Node4</title>
<g id="a_Node000004"><a xlink:href="CasADiControlProblem_8cpp.html" target="_top" xlink:title=" ">
<polygon fill="white" stroke="#666666" points="168,-30 0,-30 0,0 168,0 168,-30"/>
<text text-anchor="start" x="8" y="-18" font-family="Helvetica,sans-Serif" font-size="10.00">src/interop/casadi</text>
<text text-anchor="middle" x="84" y="-7" font-family="Helvetica,sans-Serif" font-size="10.00">/src/CasADiControlProblem.cpp</text>
</a>
</g>
</g>
<!-- Node1&#45;&gt;Node4 -->
<g id="edge30_Node000001_Node000004" class="edge">
<title>Node1&#45;&gt;Node4</title>
<g id="a_edge30_Node000001_Node000004"><a xlink:title=" ">
<path fill="none" stroke="#63b8ff" d="M421.58,-545.36C314.91,-541.06 128.13,-528.44 72,-492 29.84,-464.63 13,-445.77 13,-395.5 13,-395.5 13,-395.5 13,-162.5 13,-109.36 51.29,-55.26 71.63,-30.27"/>
<polygon fill="#63b8ff" stroke="#63b8ff" points="421.52,-548.86 431.65,-545.75 421.79,-541.86 421.52,-548.86"/>
</a>
</g>
</g>
<!-- Node5 -->
<g id="Node000005" class="node">
<title>Node5</title>
<g id="a_Node000005"><a xlink:href="CasADiFunctionWrapper_8hpp.html" target="_top" xlink:title=" ">
<polygon fill="white" stroke="#666666" points="521,-261 363,-261 363,-220 521,-220 521,-261"/>
<text text-anchor="start" x="371" y="-249" font-family="Helvetica,sans-Serif" font-size="10.00">src/interop/casadi</text>
<text text-anchor="start" x="371" y="-238" font-family="Helvetica,sans-Serif" font-size="10.00">/include/alpaqa/casadi</text>
<text text-anchor="middle" x="442" y="-227" font-family="Helvetica,sans-Serif" font-size="10.00">/CasADiFunctionWrapper.hpp</text>
</a>
</g>
</g>
<!-- Node1&#45;&gt;Node5 -->
<g id="edge4_Node000001_Node000005" class="edge">
<title>Node1&#45;&gt;Node5</title>
<g id="a_edge4_Node000001_Node000005"><a xlink:title=" ">
<path fill="none" stroke="#63b8ff" d="M492.6,-517.97C481.25,-455.99 455.22,-313.73 445.63,-261.34"/>
<polygon fill="#63b8ff" stroke="#63b8ff" points="489.17,-518.69 494.41,-527.89 496.05,-517.43 489.17,-518.69"/>
</a>
</g>
</g>
<!-- Node6 -->
<g id="Node000006" class="node">
<title>Node6</title>
<g id="a_Node000006"><a xlink:href="CasADiLoader-util_8hpp.html" target="_top" xlink:title=" ">
<polygon fill="white" stroke="#666666" points="459,-184 287,-184 287,-143 459,-143 459,-184"/>
<text text-anchor="start" x="295" y="-172" font-family="Helvetica,sans-Serif" font-size="10.00">src/interop/casadi</text>
<text text-anchor="start" x="295" y="-161" font-family="Helvetica,sans-Serif" font-size="10.00">/include/alpaqa/implementation</text>
<text text-anchor="middle" x="373" y="-150" font-family="Helvetica,sans-Serif" font-size="10.00">/casadi/CasADiLoader&#45;util.hpp</text>
</a>
</g>
</g>
<!-- Node1&#45;&gt;Node6 -->
<g id="edge28_Node000001_Node000006" class="edge">
<title>Node1&#45;&gt;Node6</title>
<g id="a_edge28_Node000001_Node000006"><a xlink:title=" ">
<path fill="none" stroke="#63b8ff" d="M421.7,-541.87C385.13,-535.22 343.6,-521.21 317,-492 287.5,-459.62 297,-439.3 297,-395.5 297,-395.5 297,-395.5 297,-316.5 297,-264.28 333.33,-211.61 355.75,-184.07"/>
<polygon fill="#63b8ff" stroke="#63b8ff" points="421.42,-545.37 431.86,-543.56 422.57,-538.47 421.42,-545.37"/>
</a>
</g>
</g>
<!-- Node7 -->
<g id="Node000007" class="node">
<title>Node7</title>
<g id="a_Node000007"><a xlink:href="CasADiProblem_8tpp.html" target="_top" xlink:title=" ">
<polygon fill="white" stroke="#666666" points="607,-107 435,-107 435,-66 607,-66 607,-107"/>
<text text-anchor="start" x="443" y="-95" font-family="Helvetica,sans-Serif" font-size="10.00">src/interop/casadi</text>
<text text-anchor="start" x="443" y="-84" font-family="Helvetica,sans-Serif" font-size="10.00">/include/alpaqa/implementation</text>
<text text-anchor="middle" x="521" y="-73" font-family="Helvetica,sans-Serif" font-size="10.00">/casadi/CasADiProblem.tpp</text>
</a>
</g>
</g>
<!-- Node1&#45;&gt;Node7 -->
<g id="edge29_Node000001_Node000007" class="edge">
<title>Node1&#45;&gt;Node7</title>
<g id="a_edge29_Node000001_Node000007"><a xlink:title=" ">
<path fill="none" stroke="#63b8ff" d="M421.66,-543.86C379.02,-538.03 327.65,-524.16 293,-492 259.67,-461.06 259,-440.97 259,-395.5 259,-395.5 259,-395.5 259,-239.5 259,-195.79 247.56,-174.37 278,-143 299.73,-120.6 374.13,-105.82 434.94,-97.19"/>
<polygon fill="#63b8ff" stroke="#63b8ff" points="421.38,-547.35 431.74,-545.11 422.25,-540.41 421.38,-547.35"/>
</a>
</g>
</g>
<!-- Node8 -->
<g id="Node000008" class="node">
<title>Node8</title>
<g id="a_Node000008"><a xlink:href="CasADiProblem_8cpp.html" target="_top" xlink:title=" ">
<polygon fill="white" stroke="#666666" points="776.5,-30 643.5,-30 643.5,0 776.5,0 776.5,-30"/>
<text text-anchor="start" x="651.5" y="-18" font-family="Helvetica,sans-Serif" font-size="10.00">src/interop/casadi</text>
<text text-anchor="middle" x="710" y="-7" font-family="Helvetica,sans-Serif" font-size="10.00">/src/CasADiProblem.cpp</text>
</a>
</g>
</g>
<!-- Node1&#45;&gt;Node8 -->
<g id="edge31_Node000001_Node000008" class="edge">
<title>Node1&#45;&gt;Node8</title>
<g id="a_edge31_Node000001_Node000008"><a xlink:title=" ">
<path fill="none" stroke="#63b8ff" d="M574.42,-542.3C661.09,-535.15 795.84,-519.89 838,-492 880.32,-464.01 899,-446.24 899,-395.5 899,-395.5 899,-395.5 899,-162.5 899,-91.3 814.18,-49.75 758.18,-30.08"/>
<polygon fill="#63b8ff" stroke="#63b8ff" points="574.05,-538.81 564.36,-543.11 574.61,-545.79 574.05,-538.81"/>
</a>
</g>
</g>
<!-- Node9 -->
<g id="Node000009" class="node">
<title>Node9</title>
<g id="a_Node000009"><a xlink:href="CompleteCasADiProblem_8cpp.html" target="_top" xlink:title=" ">
<polygon fill="white" stroke="#666666" points="805,-101.5 625,-101.5 625,-71.5 805,-71.5 805,-101.5"/>
<text text-anchor="start" x="633" y="-89.5" font-family="Helvetica,sans-Serif" font-size="10.00">src/interop/casadi</text>
<text text-anchor="middle" x="715" y="-78.5" font-family="Helvetica,sans-Serif" font-size="10.00">/src/CompleteCasADiProblem.cpp</text>
</a>
</g>
</g>
<!-- Node1&#45;&gt;Node9 -->
<g id="edge32_Node000001_Node000009" class="edge">
<title>Node1&#45;&gt;Node9</title>
<g id="a_edge32_Node000001_Node000009"><a xlink:title=" ">
<path fill="none" stroke="#63b8ff" d="M574.22,-547.81C680.68,-543.79 861,-518.77 861,-395.5 861,-395.5 861,-395.5 861,-239.5 861,-172.91 787.21,-124.17 744.55,-101.57"/>
<polygon fill="#63b8ff" stroke="#63b8ff" points="574.04,-544.31 564.16,-548.14 574.27,-551.31 574.04,-544.31"/>
</a>
</g>
</g>
<!-- Node10 -->
<g id="Node000010" class="node">
<title>Node10</title>
<g id="a_Node000010"><a xlink:href="CasADiProblem_8hpp.html" target="_top" xlink:title=" ">
<polygon fill="white" stroke="#666666" points="663.5,-261 538.5,-261 538.5,-220 663.5,-220 663.5,-261"/>
<text text-anchor="start" x="546.5" y="-249" font-family="Helvetica,sans-Serif" font-size="10.00">src/interop/casadi</text>
<text text-anchor="start" x="546.5" y="-238" font-family="Helvetica,sans-Serif" font-size="10.00">/include/alpaqa/casadi</text>
<text text-anchor="middle" x="601" y="-227" font-family="Helvetica,sans-Serif" font-size="10.00">/CasADiProblem.hpp</text>
</a>
</g>
</g>
<!-- Node1&#45;&gt;Node10 -->
<g id="edge13_Node000001_Node000010" class="edge">
<title>Node1&#45;&gt;Node10</title>
<g id="a_edge13_Node000001_Node000010"><a xlink:title=" ">
<path fill="none" stroke="#63b8ff" d="M499.93,-517.52C504.08,-459.52 515.22,-334.38 536,-297 543.93,-282.73 557.05,-270.48 569.43,-261.14"/>
<polygon fill="#63b8ff" stroke="#63b8ff" points="496.41,-517.64 499.21,-527.85 503.4,-518.12 496.41,-517.64"/>
</a>
</g>
</g>
<!-- Node11 -->
<g id="Node000011" class="node">
<title>Node11</title>
<g id="a_Node000011"><a xlink:href="CompleteCasADiProblem_8hpp.html" target="_top" xlink:title=" ">
<polygon fill="white" stroke="#666666" points="797,-184 633,-184 633,-143 797,-143 797,-184"/>
<text text-anchor="start" x="641" y="-172" font-family="Helvetica,sans-Serif" font-size="10.00">src/interop/casadi</text>
<text text-anchor="start" x="641" y="-161" font-family="Helvetica,sans-Serif" font-size="10.00">/include/alpaqa/casadi</text>
<text text-anchor="middle" x="715" y="-150" font-family="Helvetica,sans-Serif" font-size="10.00">/CompleteCasADiProblem.hpp</text>
</a>
</g>
</g>
<!-- Node1&#45;&gt;Node11 -->
<g id="edge17_Node000001_Node000011" class="edge">
<title>Node1&#45;&gt;Node11</title>
<g id="a_edge17_Node000001_Node000011"><a xlink:title=" ">
<path fill="none" stroke="#63b8ff" d="M574.14,-544.3C670.19,-535.7 823,-504.84 823,-395.5 823,-395.5 823,-395.5 823,-316.5 823,-272.79 828.82,-255.98 804,-220 793.56,-204.86 777.5,-193.03 761.89,-184.25"/>
<polygon fill="#63b8ff" stroke="#63b8ff" points="573.84,-540.81 564.16,-545.13 574.42,-547.79 573.84,-540.81"/>
</a>
</g>
</g>
<!-- Node12 -->
<g id="Node000012" class="node">
<title>Node12</title>
<g id="a_Node000012"><a xlink:href="casadi-external-function_8hpp.html" target="_top" xlink:title=" ">
<polygon fill="white" stroke="#666666" points="705,-338 545,-338 545,-297 705,-297 705,-338"/>
<text text-anchor="start" x="553" y="-326" font-family="Helvetica,sans-Serif" font-size="10.00">src/interop/casadi</text>
<text text-anchor="start" x="553" y="-315" font-family="Helvetica,sans-Serif" font-size="10.00">/include/alpaqa/casadi</text>
<text text-anchor="middle" x="625" y="-304" font-family="Helvetica,sans-Serif" font-size="10.00">/casadi&#45;external&#45;function.hpp</text>
</a>
</g>
</g>
<!-- Node1&#45;&gt;Node12 -->
<g id="edge18_Node000001_Node000012" class="edge">
<title>Node1&#45;&gt;Node12</title>
<g id="a_edge18_Node000001_Node000012"><a xlink:title=" ">
<path fill="none" stroke="#63b8ff" d="M555.36,-523.42C598.36,-501.93 654.07,-465.95 680,-415 688.26,-398.76 686.94,-390.85 680,-374 674.22,-359.95 662.97,-347.57 652.14,-338.09"/>
<polygon fill="#63b8ff" stroke="#63b8ff" points="553.58,-520.39 546.12,-527.91 556.64,-526.69 553.58,-520.39"/>
</a>
</g>
</g>
<!-- Node13 -->
<g id="Node000013" class="node">
<title>Node13</title>
<g id="a_Node000013"><a xlink:href="casadi-external-function_8cpp.html" target="_top" xlink:title=" ">
<polygon fill="white" stroke="#666666" points="794.5,-261 681.5,-261 681.5,-220 794.5,-220 794.5,-261"/>
<text text-anchor="start" x="689.5" y="-249" font-family="Helvetica,sans-Serif" font-size="10.00">src/interop/casadi</text>
<text text-anchor="start" x="689.5" y="-238" font-family="Helvetica,sans-Serif" font-size="10.00">/src/casadi&#45;external</text>
<text text-anchor="middle" x="738" y="-227" font-family="Helvetica,sans-Serif" font-size="10.00">&#45;function.cpp</text>
</a>
</g>
</g>
<!-- Node1&#45;&gt;Node13 -->
<g id="edge33_Node000001_Node000013" class="edge">
<title>Node1&#45;&gt;Node13</title>
<g id="a_edge33_Node000001_Node000013"><a xlink:title=" ">
<path fill="none" stroke="#63b8ff" d="M573.66,-528.99C598.14,-520.49 624.29,-508.52 645,-492 718.98,-432.98 734.11,-308.95 737.2,-261"/>
<polygon fill="#63b8ff" stroke="#63b8ff" points="572.4,-525.72 564.01,-532.2 574.61,-532.37 572.4,-525.72"/>
</a>
</g>
</g>
<!-- Node14 -->
<g id="Node000014" class="node">
<title>Node14</title>
<g id="a_Node000014"><a xlink:href="casadi-functions_8hpp.html" target="_top" xlink:title=" ">
<polygon fill="white" stroke="#666666" points="670.5,-415 545.5,-415 545.5,-374 670.5,-374 670.5,-415"/>
<text text-anchor="start" x="553.5" y="-403" font-family="Helvetica,sans-Serif" font-size="10.00">src/interop/casadi</text>
<text text-anchor="start" x="553.5" y="-392" font-family="Helvetica,sans-Serif" font-size="10.00">/include/alpaqa/casadi</text>
<text text-anchor="middle" x="608" y="-381" font-family="Helvetica,sans-Serif" font-size="10.00">/casadi&#45;functions.hpp</text>
</a>
</g>
</g>
<!-- Node1&#45;&gt;Node14 -->
<g id="edge22_Node000001_Node000014" class="edge">
<title>Node1&#45;&gt;Node14</title>
<g id="a_edge22_Node000001_Node000014"><a xlink:title=" ">
<path fill="none" stroke="#63b8ff" d="M518.23,-519.54C540.06,-489.38 574.28,-442.1 593.55,-415.47"/>
<polygon fill="#63b8ff" stroke="#63b8ff" points="515.18,-517.79 512.16,-527.94 520.85,-521.89 515.18,-517.79"/>
</a>
</g>
</g>
<!-- Node15 -->
<g id="Node000015" class="node">
<title>Node15</title>
<g id="a_Node000015"><a xlink:href="casadi-types_8hpp.html" target="_top" xlink:title=" ">
<polygon fill="white" stroke="#666666" points="450.5,-492 325.5,-492 325.5,-451 450.5,-451 450.5,-492"/>
<text text-anchor="start" x="333.5" y="-480" font-family="Helvetica,sans-Serif" font-size="10.00">src/interop/casadi</text>
<text text-anchor="start" x="333.5" y="-469" font-family="Helvetica,sans-Serif" font-size="10.00">/include/alpaqa/casadi</text>
<text text-anchor="middle" x="388" y="-458" font-family="Helvetica,sans-Serif" font-size="10.00">/casadi&#45;types.hpp</text>
</a>
</g>
</g>
<!-- Node1&#45;&gt;Node15 -->
<g id="edge24_Node000001_Node000015" class="edge">
<title>Node1&#45;&gt;Node15</title>
<g id="a_edge24_Node000001_Node000015"><a xlink:title=" ">
<path fill="none" stroke="#63b8ff" d="M460.74,-522.09C446.4,-512.32 430.28,-501.32 416.85,-492.17"/>
<polygon fill="#63b8ff" stroke="#63b8ff" points="459.15,-525.25 469.39,-527.99 463.1,-519.47 459.15,-525.25"/>
</a>
</g>
</g>
<!-- Node2&#45;&gt;Node3 -->
<g id="edge2_Node000002_Node000003" class="edge">
<title>Node2&#45;&gt;Node3</title>
<g id="a_edge2_Node000002_Node000003"><a xlink:title=" ">
<path fill="none" stroke="#63b8ff" d="M155,-363.59C155,-301.41 155,-159.62 155,-107.34"/>
<polygon fill="#63b8ff" stroke="#63b8ff" points="151.5,-363.89 155,-373.89 158.5,-363.89 151.5,-363.89"/>
</a>
</g>
</g>
<!-- Node3&#45;&gt;Node4 -->
<g id="edge3_Node000003_Node000004" class="edge">
<title>Node3&#45;&gt;Node4</title>
<g id="a_edge3_Node000003_Node000004"><a xlink:title=" ">
<path fill="none" stroke="#63b8ff" d="M127.47,-58.55C117.52,-48.81 106.7,-38.22 98.34,-30.04"/>
<polygon fill="#63b8ff" stroke="#63b8ff" points="125.25,-61.28 134.84,-65.77 130.15,-56.27 125.25,-61.28"/>
</a>
</g>
</g>
<!-- Node5&#45;&gt;Node3 -->
<g id="edge5_Node000005_Node000003" class="edge">
<title>Node5&#45;&gt;Node3</title>
<g id="a_edge5_Node000005_Node000003"><a xlink:title=" ">
<path fill="none" stroke="#63b8ff" d="M461.86,-211.13C473.86,-190.18 484.02,-162.11 468,-143 440.21,-109.85 329.11,-96.49 247.13,-91.11"/>
<polygon fill="#63b8ff" stroke="#63b8ff" points="458.72,-209.55 456.49,-219.91 464.69,-213.2 458.72,-209.55"/>
</a>
</g>
</g>
<!-- Node5&#45;&gt;Node6 -->
<g id="edge6_Node000005_Node000006" class="edge">
<title>Node5&#45;&gt;Node6</title>
<g id="a_edge6_Node000005_Node000006"><a xlink:title=" ">
<path fill="none" stroke="#63b8ff" d="M416.91,-212.23C408.34,-202.91 398.92,-192.67 391.01,-184.07"/>
<polygon fill="#63b8ff" stroke="#63b8ff" points="414.52,-214.81 423.87,-219.79 419.68,-210.07 414.52,-214.81"/>
</a>
</g>
</g>
<!-- Node5&#45;&gt;Node7 -->
<g id="edge11_Node000005_Node000007" class="edge">
<title>Node5&#45;&gt;Node7</title>
<g id="a_edge11_Node000005_Node000007"><a xlink:title=" ">
<path fill="none" stroke="#63b8ff" d="M476.98,-213.2C486.04,-204.8 494.94,-194.83 501,-184 514.53,-159.81 518.95,-127.59 520.37,-107.19"/>
<polygon fill="#63b8ff" stroke="#63b8ff" points="474.59,-210.64 469.4,-219.88 479.22,-215.9 474.59,-210.64"/>
</a>
</g>
</g>
<!-- Node5&#45;&gt;Node9 -->
<g id="edge12_Node000005_Node000009" class="edge">
<title>Node5&#45;&gt;Node9</title>
<g id="a_edge12_Node000005_Node000009"><a xlink:title=" ">
<path fill="none" stroke="#63b8ff" d="M486.03,-214.98C543.8,-182.82 643.28,-127.43 689.73,-101.57"/>
<polygon fill="#63b8ff" stroke="#63b8ff" points="484.17,-212.02 477.13,-219.94 487.57,-218.13 484.17,-212.02"/>
</a>
</g>
</g>
<!-- Node6&#45;&gt;Node3 -->
<g id="edge7_Node000006_Node000003" class="edge">
<title>Node6&#45;&gt;Node3</title>
<g id="a_edge7_Node000006_Node000003"><a xlink:title=" ">
<path fill="none" stroke="#63b8ff" d="M306.65,-139.67C276.36,-129.25 240.84,-117.03 211.8,-107.04"/>
<polygon fill="#63b8ff" stroke="#63b8ff" points="305.7,-143.05 316.29,-142.99 307.97,-136.43 305.7,-143.05"/>
</a>
</g>
</g>
<!-- Node6&#45;&gt;Node7 -->
<g id="edge8_Node000006_Node000007" class="edge">
<title>Node6&#45;&gt;Node7</title>
<g id="a_edge8_Node000006_Node000007"><a xlink:title=" ">
<path fill="none" stroke="#63b8ff" d="M420.46,-138.45C440.48,-128.3 463.49,-116.64 482.44,-107.04"/>
<polygon fill="#63b8ff" stroke="#63b8ff" points="418.84,-135.35 411.5,-142.99 422,-141.59 418.84,-135.35"/>
</a>
</g>
</g>
<!-- Node6&#45;&gt;Node9 -->
<g id="edge10_Node000006_Node000009" class="edge">
<title>Node6&#45;&gt;Node9</title>
<g id="a_edge10_Node000006_Node000009"><a xlink:title=" ">
<path fill="none" stroke="#63b8ff" d="M469.25,-141.39C527.43,-128.63 599.98,-112.72 651.13,-101.51"/>
<polygon fill="#63b8ff" stroke="#63b8ff" points="468.32,-138.01 459.3,-143.57 469.82,-144.85 468.32,-138.01"/>
</a>
</g>
</g>
<!-- Node7&#45;&gt;Node8 -->
<g id="edge9_Node000007_Node000008" class="edge">
<title>Node7&#45;&gt;Node8</title>
<g id="a_edge9_Node000007_Node000008"><a xlink:title=" ">
<path fill="none" stroke="#63b8ff" d="M583.84,-62.39C612.99,-51.67 646.69,-39.28 671.92,-30"/>
<polygon fill="#63b8ff" stroke="#63b8ff" points="582.33,-59.22 574.15,-65.96 584.74,-65.79 582.33,-59.22"/>
</a>
</g>
</g>
<!-- Node10&#45;&gt;Node7 -->
<g id="edge16_Node000010_Node000007" class="edge">
<title>Node10&#45;&gt;Node7</title>
<g id="a_edge16_Node000010_Node000007"><a xlink:title=" ">
<path fill="none" stroke="#63b8ff" d="M585.88,-210.76C569.98,-180.57 545.41,-133.87 531.51,-107.47"/>
<polygon fill="#63b8ff" stroke="#63b8ff" points="582.95,-212.72 590.71,-219.94 589.14,-209.46 582.95,-212.72"/>
</a>
</g>
</g>
<!-- Node10&#45;&gt;Node11 -->
<g id="edge14_Node000010_Node000011" class="edge">
<title>Node10&#45;&gt;Node11</title>
<g id="a_edge14_Node000010_Node000011"><a xlink:title=" ">
<path fill="none" stroke="#63b8ff" d="M639.2,-214.37C654.16,-204.53 671.06,-193.41 685.1,-184.17"/>
<polygon fill="#63b8ff" stroke="#63b8ff" points="637.09,-211.57 630.65,-219.99 640.93,-217.42 637.09,-211.57"/>
</a>
</g>
</g>
<!-- Node11&#45;&gt;Node9 -->
<g id="edge15_Node000011_Node000009" class="edge">
<title>Node11&#45;&gt;Node9</title>
<g id="a_edge15_Node000011_Node000009"><a xlink:title=" ">
<path fill="none" stroke="#63b8ff" d="M715,-132.61C715,-122.01 715,-110.57 715,-101.86"/>
<polygon fill="#63b8ff" stroke="#63b8ff" points="711.5,-132.79 715,-142.79 718.5,-132.79 711.5,-132.79"/>
</a>
</g>
</g>
<!-- Node12&#45;&gt;Node5 -->
<g id="edge19_Node000012_Node000005" class="edge">
<title>Node12&#45;&gt;Node5</title>
<g id="a_edge19_Node000012_Node000005"><a xlink:title=" ">
<path fill="none" stroke="#63b8ff" d="M567.98,-293.13C542.84,-282.83 513.64,-270.86 489.68,-261.04"/>
<polygon fill="#63b8ff" stroke="#63b8ff" points="566.82,-296.44 577.4,-296.99 569.47,-289.96 566.82,-296.44"/>
</a>
</g>
</g>
<!-- Node12&#45;&gt;Node10 -->
<g id="edge20_Node000012_Node000010" class="edge">
<title>Node12&#45;&gt;Node10</title>
<g id="a_edge20_Node000012_Node000010"><a xlink:title=" ">
<path fill="none" stroke="#63b8ff" d="M615.64,-287.26C612.83,-278.48 609.82,-269.07 607.26,-261.07"/>
<polygon fill="#63b8ff" stroke="#63b8ff" points="612.31,-288.34 618.69,-296.79 618.98,-286.2 612.31,-288.34"/>
</a>
</g>
</g>
<!-- Node12&#45;&gt;Node13 -->
<g id="edge21_Node000012_Node000013" class="edge">
<title>Node12&#45;&gt;Node13</title>
<g id="a_edge21_Node000012_Node000013"><a xlink:title=" ">
<path fill="none" stroke="#63b8ff" d="M662.86,-291.37C677.69,-281.53 694.44,-270.41 708.36,-261.17"/>
<polygon fill="#63b8ff" stroke="#63b8ff" points="660.79,-288.54 654.39,-296.99 664.66,-294.38 660.79,-288.54"/>
</a>
</g>
</g>
<!-- Node14&#45;&gt;Node12 -->
<g id="edge23_Node000014_Node000012" class="edge">
<title>Node14&#45;&gt;Node12</title>
<g id="a_edge23_Node000014_Node000012"><a xlink:title=" ">
<path fill="none" stroke="#63b8ff" d="M614.69,-363.98C616.66,-355.28 618.77,-345.98 620.56,-338.07"/>
<polygon fill="#63b8ff" stroke="#63b8ff" points="611.26,-363.27 612.47,-373.79 618.09,-364.82 611.26,-363.27"/>
</a>
</g>
</g>
<!-- Node15&#45;&gt;Node6 -->
<g id="edge26_Node000015_Node000006" class="edge">
<title>Node15&#45;&gt;Node6</title>
<g id="a_edge26_Node000015_Node000006"><a xlink:title=" ">
<path fill="none" stroke="#63b8ff" d="M378.32,-441.16C364.13,-394.3 340.74,-299.69 354,-220 356.04,-207.74 360.45,-194.56 364.51,-184.13"/>
<polygon fill="#63b8ff" stroke="#63b8ff" points="375.05,-442.44 381.36,-450.95 381.73,-440.36 375.05,-442.44"/>
</a>
</g>
</g>
<!-- Node15&#45;&gt;Node14 -->
<g id="edge25_Node000015_Node000014" class="edge">
<title>Node15&#45;&gt;Node14</title>
<g id="a_edge25_Node000015_Node000014"><a xlink:title=" ">
<path fill="none" stroke="#63b8ff" d="M454.95,-447.67C485.53,-437.25 521.37,-425.03 550.68,-415.04"/>
<polygon fill="#63b8ff" stroke="#63b8ff" points="453.56,-444.45 445.23,-450.99 455.82,-451.08 453.56,-444.45"/>
</a>
</g>
</g>
</g>
</svg>
