<?xml version="1.0" encoding="UTF-8" standalone="no"?>
<!DOCTYPE svg PUBLIC "-//W3C//DTD SVG 1.1//EN"
 "http://www.w3.org/Graphics/SVG/1.1/DTD/svg11.dtd">
<!-- Generated by graphviz version 2.43.0 (0)
 -->
<!-- Title: validate_num_args Pages: 1 -->
<svg width="288pt" height="86pt"
 viewBox="0.00 0.00 288.00 86.00" xmlns="http://www.w3.org/2000/svg" xmlns:xlink="http://www.w3.org/1999/xlink">
<g id="graph0" class="graph" transform="scale(1 1) rotate(0) translate(4 82)">
<title>validate_num_args</title>
<!-- Node1 -->
<g id="Node000001" class="node">
<title>Node1</title>
<g id="a_Node000001"><a xlink:title=" ">
<polygon fill="#999999" stroke="#666666" points="110,-48.5 0,-48.5 0,-29.5 110,-29.5 110,-48.5"/>
<text text-anchor="middle" x="55" y="-36.5" font-family="Helvetica,sans-Serif" font-size="10.00">validate_num_args</text>
</a>
</g>
</g>
<!-- Node2 -->
<g id="Node000002" class="node">
<title>Node2</title>
<g id="a_Node000002"><a xlink:href="classalpaqa_1_1casadi_1_1Function.html#a4ba83e8705bfceadf5efa1a1e9df8acd" target="_top" xlink:title=" ">
<polygon fill="white" stroke="#666666" points="280,-78 146,-78 146,-48 280,-48 280,-78"/>
<text text-anchor="start" x="154" y="-66" font-family="Helvetica,sans-Serif" font-size="10.00">alpaqa::casadi::Function</text>
<text text-anchor="middle" x="213" y="-55" font-family="Helvetica,sans-Serif" font-size="10.00">::n_in</text>
</a>
</g>
</g>
<!-- Node1&#45;&gt;Node2 -->
<g id="edge1_Node000001_Node000002" class="edge">
<title>Node1&#45;&gt;Node2</title>
<g id="a_edge1_Node000001_Node000002"><a xlink:title=" ">
<path fill="none" stroke="#63b8ff" d="M110.12,-47.33C118.41,-48.6 127.09,-49.94 135.75,-51.27"/>
<polygon fill="#63b8ff" stroke="#63b8ff" points="135.45,-54.76 145.87,-52.83 136.52,-47.85 135.45,-54.76"/>
</a>
</g>
</g>
<!-- Node3 -->
<g id="Node000003" class="node">
<title>Node3</title>
<g id="a_Node000003"><a xlink:href="classalpaqa_1_1casadi_1_1Function.html#a312ff44362f2dc12550e551cd56e1b11" target="_top" xlink:title=" ">
<polygon fill="white" stroke="#666666" points="280,-30 146,-30 146,0 280,0 280,-30"/>
<text text-anchor="start" x="154" y="-18" font-family="Helvetica,sans-Serif" font-size="10.00">alpaqa::casadi::Function</text>
<text text-anchor="middle" x="213" y="-7" font-family="Helvetica,sans-Serif" font-size="10.00">::n_out</text>
</a>
</g>
</g>
<!-- Node1&#45;&gt;Node3 -->
<g id="edge2_Node000001_Node000003" class="edge">
<title>Node1&#45;&gt;Node3</title>
<g id="a_edge2_Node000001_Node000003"><a xlink:title=" ">
<path fill="none" stroke="#63b8ff" d="M110.12,-30.67C118.41,-29.4 127.09,-28.06 135.75,-26.73"/>
<polygon fill="#63b8ff" stroke="#63b8ff" points="136.52,-30.15 145.87,-25.17 135.45,-23.24 136.52,-30.15"/>
</a>
</g>
</g>
</g>
</svg>
