<?xml version="1.0" encoding="UTF-8" standalone="no"?>
<!DOCTYPE svg PUBLIC "-//W3C//DTD SVG 1.1//EN"
 "http://www.w3.org/Graphics/SVG/1.1/DTD/svg11.dtd">
<!-- Generated by graphviz version 2.43.0 (0)
 -->
<!-- Title: size2 Pages: 1 -->
<svg width="390pt" height="153pt"
 viewBox="0.00 0.00 390.00 153.00" xmlns="http://www.w3.org/2000/svg" xmlns:xlink="http://www.w3.org/1999/xlink">

<svg id="main" version="1.1" xmlns="http://www.w3.org/2000/svg" xmlns:xlink="http://www.w3.org/1999/xlink" xml:space="preserve" onload="init(evt)">
<style type="text/css"><![CDATA[
.node, .edge {opacity: 0.7;}
.node.selected, .edge.selected {opacity: 1;}
.edge:hover path { stroke: red; }
.edge:hover polygon { stroke: red; fill: red; }
]]></style>
<script type="application/ecmascript" xlink:href="svg.min.js"/>
<svg id="graph" class="graph">
<g id="graph0" class="graph" transform="scale(1 1) rotate(0) translate(4 149)">
<title>size2</title>
<!-- Node1 -->
<g id="Node000001" class="node">
<title>Node1</title>
<g id="a_Node000001"><a xlink:title=" ">
<polygon fill="#999999" stroke="#666666" points="382,-72.5 340,-72.5 340,-53.5 382,-53.5 382,-72.5"/>
<text text-anchor="middle" x="361" y="-60.5" font-family="Helvetica,sans-Serif" font-size="10.00">size2</text>
</a>
</g>
</g>
<!-- Node2 -->
<g id="Node000002" class="node">
<title>Node2</title>
<g id="a_Node000002"><a xlink:href="classalpaqa_1_1casadi_1_1Function_1_1Sparsity.html#a9439c38a6608062dd54ac3cb31427acd" target="_top" xlink:title=" ">
<polygon fill="white" stroke="#666666" points="255,-115.5 219,-115.5 219,-96.5 255,-96.5 255,-115.5"/>
<text text-anchor="middle" x="237" y="-103.5" font-family="Helvetica,sans-Serif" font-size="10.00">size</text>
</a>
</g>
</g>
<!-- Node1&#45;&gt;Node2 -->
<g id="edge1_Node000001_Node000002" class="edge">
<title>Node1&#45;&gt;Node2</title>
<g id="a_edge1_Node000001_Node000002"><a xlink:title=" ">
<path fill="none" stroke="#63b8ff" d="M330.33,-76.53C321.9,-80.15 312.66,-83.91 304,-87 287.6,-92.85 268.44,-98.21 255,-101.73"/>
<polygon fill="#63b8ff" stroke="#63b8ff" points="332.01,-79.62 339.76,-72.4 329.2,-73.21 332.01,-79.62"/>
</a>
</g>
</g>
<!-- Node5 -->
<g id="Node000005" class="node">
<title>Node5</title>
<g id="a_Node000005"><a xlink:href="classalpaqa_1_1casadi_1_1Function.html#ae255e7ee6b1290819c1bb219e856be9e" target="_top" xlink:title=" ">
<polygon fill="white" stroke="#666666" points="304,-78 170,-78 170,-48 304,-48 304,-78"/>
<text text-anchor="start" x="178" y="-66" font-family="Helvetica,sans-Serif" font-size="10.00">alpaqa::casadi::Function</text>
<text text-anchor="middle" x="237" y="-55" font-family="Helvetica,sans-Serif" font-size="10.00">::size2_in</text>
</a>
</g>
</g>
<!-- Node1&#45;&gt;Node5 -->
<g id="edge4_Node000001_Node000005" class="edge">
<title>Node1&#45;&gt;Node5</title>
<g id="a_edge4_Node000001_Node000005"><a xlink:title=" ">
<path fill="none" stroke="#63b8ff" d="M329.74,-63C321.85,-63 313.02,-63 304.05,-63"/>
<polygon fill="#63b8ff" stroke="#63b8ff" points="329.85,-66.5 339.85,-63 329.85,-59.5 329.85,-66.5"/>
</a>
</g>
</g>
<!-- Node6 -->
<g id="Node000006" class="node">
<title>Node6</title>
<g id="a_Node000006"><a xlink:href="classalpaqa_1_1casadi_1_1Function.html#a9616740daa35fcafb634c983749b9330" target="_top" xlink:title=" ">
<polygon fill="white" stroke="#666666" points="304,-30 170,-30 170,0 304,0 304,-30"/>
<text text-anchor="start" x="178" y="-18" font-family="Helvetica,sans-Serif" font-size="10.00">alpaqa::casadi::Function</text>
<text text-anchor="middle" x="237" y="-7" font-family="Helvetica,sans-Serif" font-size="10.00">::size2_out</text>
</a>
</g>
</g>
<!-- Node1&#45;&gt;Node6 -->
<g id="edge5_Node000001_Node000006" class="edge">
<title>Node1&#45;&gt;Node6</title>
<g id="a_edge5_Node000001_Node000006"><a xlink:title=" ">
<path fill="none" stroke="#63b8ff" d="M330.67,-50.06C322.11,-46.39 312.72,-42.45 304,-39 296.4,-35.99 288.26,-32.92 280.38,-30.01"/>
<polygon fill="#63b8ff" stroke="#63b8ff" points="329.33,-53.3 339.9,-54.06 332.11,-46.87 329.33,-53.3"/>
</a>
</g>
</g>
<!-- Node3 -->
<g id="Node000003" class="node">
<title>Node3</title>
<g id="a_Node000003"><a xlink:href="classalpaqa_1_1casadi_1_1Function.html#a70b502b409b5a15e3bd28a26d51825b6" target="_top" xlink:title=" ">
<polygon fill="white" stroke="#666666" points="134,-145 0,-145 0,-115 134,-115 134,-145"/>
<text text-anchor="start" x="8" y="-133" font-family="Helvetica,sans-Serif" font-size="10.00">alpaqa::casadi::Function</text>
<text text-anchor="middle" x="67" y="-122" font-family="Helvetica,sans-Serif" font-size="10.00">::size_in</text>
</a>
</g>
</g>
<!-- Node2&#45;&gt;Node3 -->
<g id="edge2_Node000002_Node000003" class="edge">
<title>Node2&#45;&gt;Node3</title>
<g id="a_edge2_Node000002_Node000003"><a xlink:title=" ">
<path fill="none" stroke="#63b8ff" d="M208.97,-109.86C188.82,-112.74 160.42,-116.8 134.37,-120.52"/>
<polygon fill="#63b8ff" stroke="#63b8ff" points="209.56,-113.31 218.97,-108.43 208.57,-106.38 209.56,-113.31"/>
</a>
</g>
</g>
<!-- Node4 -->
<g id="Node000004" class="node">
<title>Node4</title>
<g id="a_Node000004"><a xlink:href="classalpaqa_1_1casadi_1_1Function.html#a82f402602a7a1ee9c0e06e0324274a7a" target="_top" xlink:title=" ">
<polygon fill="white" stroke="#666666" points="134,-97 0,-97 0,-67 134,-67 134,-97"/>
<text text-anchor="start" x="8" y="-85" font-family="Helvetica,sans-Serif" font-size="10.00">alpaqa::casadi::Function</text>
<text text-anchor="middle" x="67" y="-74" font-family="Helvetica,sans-Serif" font-size="10.00">::size_out</text>
</a>
</g>
</g>
<!-- Node2&#45;&gt;Node4 -->
<g id="edge3_Node000002_Node000004" class="edge">
<title>Node2&#45;&gt;Node4</title>
<g id="a_edge3_Node000002_Node000004"><a xlink:title=" ">
<path fill="none" stroke="#63b8ff" d="M208.97,-102.14C188.82,-99.26 160.42,-95.2 134.37,-91.48"/>
<polygon fill="#63b8ff" stroke="#63b8ff" points="208.57,-105.62 218.97,-103.57 209.56,-98.69 208.57,-105.62"/>
</a>
</g>
</g>
</g>
</svg>
</svg>

<style type='text/css'>
<![CDATA[
[data-mouse-over-selected='false'] { opacity: 0.7; }
[data-mouse-over-selected='true']  { opacity: 1.0; }
]]>
</style>
<script type="application/ecmascript"><![CDATA[
document.addEventListener('DOMContentLoaded', (event) => {
  highlightEdges();
  highlightAdjacentNodes();
});
]]></script>
</svg>
