<?xml version="1.0" encoding="UTF-8" standalone="no"?>
<!DOCTYPE svg PUBLIC "-//W3C//DTD SVG 1.1//EN"
 "http://www.w3.org/Graphics/SVG/1.1/DTD/svg11.dtd">
<!-- Generated by graphviz version 2.43.0 (0)
 -->
<!-- Title: size Pages: 1 -->
<svg width="214pt" height="86pt"
 viewBox="0.00 0.00 214.00 86.00" xmlns="http://www.w3.org/2000/svg" xmlns:xlink="http://www.w3.org/1999/xlink">
<g id="graph0" class="graph" transform="scale(1 1) rotate(0) translate(4 82)">
<title>size</title>
<!-- Node1 -->
<g id="Node000001" class="node">
<title>Node1</title>
<g id="a_Node000001"><a xlink:title=" ">
<polygon fill="#999999" stroke="#666666" points="206,-48.5 170,-48.5 170,-29.5 206,-29.5 206,-48.5"/>
<text text-anchor="middle" x="188" y="-36.5" font-family="Helvetica,sans-Serif" font-size="10.00">size</text>
</a>
</g>
</g>
<!-- Node2 -->
<g id="Node000002" class="node">
<title>Node2</title>
<g id="a_Node000002"><a xlink:href="classalpaqa_1_1casadi_1_1Function.html#a70b502b409b5a15e3bd28a26d51825b6" target="_top" xlink:title=" ">
<polygon fill="white" stroke="#666666" points="134,-78 0,-78 0,-48 134,-48 134,-78"/>
<text text-anchor="start" x="8" y="-66" font-family="Helvetica,sans-Serif" font-size="10.00">alpaqa::casadi::Function</text>
<text text-anchor="middle" x="67" y="-55" font-family="Helvetica,sans-Serif" font-size="10.00">::size_in</text>
</a>
</g>
</g>
<!-- Node1&#45;&gt;Node2 -->
<g id="edge1_Node000001_Node000002" class="edge">
<title>Node1&#45;&gt;Node2</title>
<g id="a_edge1_Node000001_Node000002"><a xlink:title=" ">
<path fill="none" stroke="#63b8ff" d="M160.01,-44.44C152.17,-46.02 143.24,-47.82 134.11,-49.67"/>
<polygon fill="#63b8ff" stroke="#63b8ff" points="160.84,-47.85 169.95,-42.44 159.46,-40.98 160.84,-47.85"/>
</a>
</g>
</g>
<!-- Node3 -->
<g id="Node000003" class="node">
<title>Node3</title>
<g id="a_Node000003"><a xlink:href="classalpaqa_1_1casadi_1_1Function.html#a82f402602a7a1ee9c0e06e0324274a7a" target="_top" xlink:title=" ">
<polygon fill="white" stroke="#666666" points="134,-30 0,-30 0,0 134,0 134,-30"/>
<text text-anchor="start" x="8" y="-18" font-family="Helvetica,sans-Serif" font-size="10.00">alpaqa::casadi::Function</text>
<text text-anchor="middle" x="67" y="-7" font-family="Helvetica,sans-Serif" font-size="10.00">::size_out</text>
</a>
</g>
</g>
<!-- Node1&#45;&gt;Node3 -->
<g id="edge2_Node000001_Node000003" class="edge">
<title>Node1&#45;&gt;Node3</title>
<g id="a_edge2_Node000001_Node000003"><a xlink:title=" ">
<path fill="none" stroke="#63b8ff" d="M160.01,-33.56C152.17,-31.98 143.24,-30.18 134.11,-28.33"/>
<polygon fill="#63b8ff" stroke="#63b8ff" points="159.46,-37.02 169.95,-35.56 160.84,-30.15 159.46,-37.02"/>
</a>
</g>
</g>
</g>
</svg>
