<?xml version="1.0" encoding="UTF-8" standalone="no"?>
<!DOCTYPE svg PUBLIC "-//W3C//DTD SVG 1.1//EN"
 "http://www.w3.org/Graphics/SVG/1.1/DTD/svg11.dtd">
<!-- Generated by graphviz version 2.43.0 (0)
 -->
<!-- Title: src/interop/casadi/include/alpaqa/casadi/CompleteCasADiProblem.hpp Pages: 1 -->
<!--zoomable 357 -->

<svg id="main" version="1.1" xmlns="http://www.w3.org/2000/svg" xmlns:xlink="http://www.w3.org/1999/xlink" xml:space="preserve" onload="init(evt)">
<style type="text/css"><![CDATA[
.node, .edge {opacity: 0.7;}
.node.selected, .edge.selected {opacity: 1;}
.edge:hover path { stroke: red; }
.edge:hover polygon { stroke: red; fill: red; }
]]></style>

<defs>
  <circle id="rim" cx="0" cy="0" r="7"/>
  <circle id="rim2" cx="0" cy="0" r="3.5"/>
  <g id="zoomPlus">
    <use xlink:href="#rim" fill="#404040"><set attributeName="fill" to="#808080" begin="zoomplus.mouseover" end="zoomplus.mouseout"/></use>
    <path d="M-4,0h8M0,-4v8" fill="none" stroke="white" stroke-width="1.5" pointer-events="none"/>
  </g>
  <g id="zoomMin">
    <use xlink:href="#rim" fill="#404040"><set attributeName="fill" to="#808080" begin="zoomminus.mouseover" end="zoomminus.mouseout"/></use>
    <path d="M-4,0h8" fill="none" stroke="white" stroke-width="1.5" pointer-events="none"/>
  </g>
  <g id="arrowUp" transform="translate(30 24)">
    <use xlink:href="#rim"/>
    <path pointer-events="none" fill="none" stroke="white" stroke-width="1.5" d="M0,-3.0v7 M-2.5,-0.5L0,-3.0L2.5,-0.5"/>
  </g>
  <g id="arrowRight" transform="rotate(90) translate(36 -43)">
    <use xlink:href="#rim"/>
    <path pointer-events="none" fill="none" stroke="white" stroke-width="1.5" d="M0,-3.0v7 M-2.5,-0.5L0,-3.0L2.5,-0.5"/>
  </g>
  <g id="arrowDown" transform="rotate(180) translate(-30 -48)">
    <use xlink:href="#rim"/>
    <path pointer-events="none" fill="none" stroke="white" stroke-width="1.5" d="M0,-3.0v7 M-2.5,-0.5L0,-3.0L2.5,-0.5"/>
  </g>
  <g id="arrowLeft" transform="rotate(270) translate(-36 17)">
    <use xlink:href="#rim"/>
    <path pointer-events="none" fill="none" stroke="white" stroke-width="1.5" d="M0,-3.0v7 M-2.5,-0.5L0,-3.0L2.5,-0.5"/>
  </g>
  <g id="resetDef">
    <use xlink:href="#rim2" fill="#404040"><set attributeName="fill" to="#808080" begin="reset.mouseover" end="reset.mouseout"/></use>
  </g>
</defs>
<script type="application/ecmascript">
var viewWidth = 1523;
var viewHeight = 357;
var sectionId = 'dynsection-0';
</script>
<script type="application/ecmascript" xlink:href="svg.min.js"/>
<svg id="graph" class="graph">
<g id="viewport">
<title>src/interop/casadi/include/alpaqa/casadi/CompleteCasADiProblem.hpp</title>
<!-- Node1 -->
<g id="Node000001" class="node">
<title>Node1</title>
<g id="a_Node000001"><a xlink:title=" ">
<polygon fill="#999999" stroke="#666666" points="975.5,-349 811.5,-349 811.5,-308 975.5,-308 975.5,-349"/>
<text text-anchor="start" x="819.5" y="-337" font-family="Helvetica,sans-Serif" font-size="10.00">src/interop/casadi</text>
<text text-anchor="start" x="819.5" y="-326" font-family="Helvetica,sans-Serif" font-size="10.00">/include/alpaqa/casadi</text>
<text text-anchor="middle" x="893.5" y="-315" font-family="Helvetica,sans-Serif" font-size="10.00">/CompleteCasADiProblem.hpp</text>
</a>
</g>
</g>
<!-- Node2 -->
<g id="Node000002" class="node">
<title>Node2</title>
<g id="a_Node000002"><a xlink:title=" ">
<polygon fill="#e0e0e0" stroke="#999999" points="259,-151 140,-151 140,-121 259,-121 259,-151"/>
<text text-anchor="start" x="148" y="-139" font-family="Helvetica,sans-Serif" font-size="10.00">alpaqa/casadi&#45;loader</text>
<text text-anchor="middle" x="199.5" y="-128" font-family="Helvetica,sans-Serif" font-size="10.00">&#45;export.h</text>
</a>
</g>
</g>
<!-- Node1&#45;&gt;Node2 -->
<g id="edge1_Node000001_Node000002" class="edge">
<title>Node1&#45;&gt;Node2</title>
<g id="a_edge1_Node000001_Node000002"><a xlink:title=" ">
<path fill="none" stroke="#63b8ff" d="M811.45,-325.67C649.38,-320.28 296.67,-299.17 213.5,-217 198.98,-202.65 196.4,-178.95 196.91,-161.06"/>
<polygon fill="#63b8ff" stroke="#63b8ff" points="200.4,-161.25 197.52,-151.06 193.42,-160.83 200.4,-161.25"/>
</a>
</g>
</g>
<!-- Node3 -->
<g id="Node000003" class="node">
<title>Node3</title>
<g id="a_Node000003"><a xlink:href="CasADiProblem_8hpp.html" target="_top" xlink:title=" ">
<polygon fill="white" stroke="#666666" points="985.5,-272 801.5,-272 801.5,-253 985.5,-253 985.5,-272"/>
<text text-anchor="middle" x="893.5" y="-260" font-family="Helvetica,sans-Serif" font-size="10.00">alpaqa/casadi/CasADiProblem.hpp</text>
</a>
</g>
</g>
<!-- Node1&#45;&gt;Node3 -->
<g id="edge2_Node000001_Node000003" class="edge">
<title>Node1&#45;&gt;Node3</title>
<g id="a_edge2_Node000001_Node000003"><a xlink:title=" ">
<path fill="none" stroke="#63b8ff" d="M893.5,-307.95C893.5,-299.85 893.5,-290.5 893.5,-282.47"/>
<polygon fill="#63b8ff" stroke="#63b8ff" points="897,-282.26 893.5,-272.26 890,-282.26 897,-282.26"/>
</a>
</g>
</g>
<!-- Node5 -->
<g id="Node000005" class="node">
<title>Node5</title>
<g id="a_Node000005"><a xlink:href="casadi-namespace_8hpp.html" target="_top" xlink:title=" ">
<polygon fill="white" stroke="#666666" points="1515,-30 1396,-30 1396,0 1515,0 1515,-30"/>
<text text-anchor="start" x="1404" y="-18" font-family="Helvetica,sans-Serif" font-size="10.00">alpaqa/casadi/casadi</text>
<text text-anchor="middle" x="1455.5" y="-7" font-family="Helvetica,sans-Serif" font-size="10.00">&#45;namespace.hpp</text>
</a>
</g>
</g>
<!-- Node1&#45;&gt;Node5 -->
<g id="edge63_Node000001_Node000005" class="edge">
<title>Node1&#45;&gt;Node5</title>
<g id="a_edge63_Node000001_Node000005"><a xlink:title=" ">
<path fill="none" stroke="#63b8ff" d="M975.61,-327.24C1138.83,-324.51 1488.5,-306.56 1488.5,-203 1488.5,-203 1488.5,-203 1488.5,-135 1488.5,-100.86 1475.73,-63.14 1466.08,-39.51"/>
<polygon fill="#63b8ff" stroke="#63b8ff" points="1469.3,-38.15 1462.18,-30.3 1462.85,-40.87 1469.3,-38.15"/>
</a>
</g>
</g>
<!-- Node4 -->
<g id="Node000004" class="node">
<title>Node4</title>
<g id="a_Node000004"><a xlink:href="casadi-loader-export_8hpp.html" target="_top" xlink:title=" ">
<polygon fill="white" stroke="#666666" points="342,-217 223,-217 223,-187 342,-187 342,-217"/>
<text text-anchor="start" x="231" y="-205" font-family="Helvetica,sans-Serif" font-size="10.00">alpaqa/casadi&#45;loader</text>
<text text-anchor="middle" x="282.5" y="-194" font-family="Helvetica,sans-Serif" font-size="10.00">&#45;export.hpp</text>
</a>
</g>
</g>
<!-- Node3&#45;&gt;Node4 -->
<g id="edge3_Node000003_Node000004" class="edge">
<title>Node3&#45;&gt;Node4</title>
<g id="a_edge3_Node000003_Node000004"><a xlink:title=" ">
<path fill="none" stroke="#63b8ff" d="M804.66,-252.99C682.21,-241.27 464.1,-220.39 352.5,-209.7"/>
<polygon fill="#63b8ff" stroke="#63b8ff" points="352.65,-206.2 342.36,-208.73 351.99,-213.17 352.65,-206.2"/>
</a>
</g>
</g>
<!-- Node3&#45;&gt;Node5 -->
<g id="edge5_Node000003_Node000005" class="edge">
<title>Node3&#45;&gt;Node5</title>
<g id="a_edge5_Node000003_Node000005"><a xlink:title=" ">
<path fill="none" stroke="#63b8ff" d="M985.58,-258.47C1083.23,-253.94 1230.07,-242.94 1279.5,-217 1358.73,-175.43 1418.49,-82.37 1443.14,-39.03"/>
<polygon fill="#63b8ff" stroke="#63b8ff" points="1446.31,-40.53 1448.12,-30.09 1440.19,-37.12 1446.31,-40.53"/>
</a>
</g>
</g>
<!-- Node6 -->
<g id="Node000006" class="node">
<title>Node6</title>
<g id="a_Node000006"><a xlink:href="config_8hpp.html" target="_top" xlink:title=" ">
<polygon fill="white" stroke="#666666" points="440,-85 305,-85 305,-66 440,-66 440,-85"/>
<text text-anchor="middle" x="372.5" y="-73" font-family="Helvetica,sans-Serif" font-size="10.00">alpaqa/config/config.hpp</text>
</a>
</g>
</g>
<!-- Node3&#45;&gt;Node6 -->
<g id="edge6_Node000003_Node000006" class="edge">
<title>Node3&#45;&gt;Node6</title>
<g id="a_edge6_Node000003_Node000006"><a xlink:title=" ">
<path fill="none" stroke="#63b8ff" d="M801.49,-262.23C641.28,-262.38 318.21,-257.44 213.5,-217 169.54,-200.02 150.98,-193.45 130.5,-151 124.71,-138.99 121.97,-131.25 130.5,-121 141.13,-108.24 228.15,-94.56 294.83,-85.79"/>
<polygon fill="#63b8ff" stroke="#63b8ff" points="295.46,-89.24 304.92,-84.48 294.56,-82.29 295.46,-89.24"/>
</a>
</g>
</g>
<!-- Node13 -->
<g id="Node000013" class="node">
<title>Node13</title>
<g id="a_Node000013"><a xlink:href="box-constr-problem_8hpp.html" target="_top" xlink:title=" ">
<polygon fill="white" stroke="#666666" points="615.5,-217 499.5,-217 499.5,-187 615.5,-187 615.5,-217"/>
<text text-anchor="start" x="507.5" y="-205" font-family="Helvetica,sans-Serif" font-size="10.00">alpaqa/problem/box</text>
<text text-anchor="middle" x="557.5" y="-194" font-family="Helvetica,sans-Serif" font-size="10.00">&#45;constr&#45;problem.hpp</text>
</a>
</g>
</g>
<!-- Node3&#45;&gt;Node13 -->
<g id="edge13_Node000003_Node000013" class="edge">
<title>Node3&#45;&gt;Node13</title>
<g id="a_edge13_Node000003_Node000013"><a xlink:title=" ">
<path fill="none" stroke="#63b8ff" d="M844.64,-252.99C787.03,-242.96 690.89,-226.22 625.89,-214.91"/>
<polygon fill="#63b8ff" stroke="#63b8ff" points="626.19,-211.41 615.73,-213.14 624.99,-218.3 626.19,-211.41"/>
</a>
</g>
</g>
<!-- Node21 -->
<g id="Node000021" class="node">
<title>Node21</title>
<g id="a_Node000021"><a xlink:title=" ">
<polygon fill="#e0e0e0" stroke="#999999" points="1149.5,-24.5 1105.5,-24.5 1105.5,-5.5 1149.5,-5.5 1149.5,-24.5"/>
<text text-anchor="middle" x="1127.5" y="-12.5" font-family="Helvetica,sans-Serif" font-size="10.00">string</text>
</a>
</g>
</g>
<!-- Node3&#45;&gt;Node21 -->
<g id="edge39_Node000003_Node000021" class="edge">
<title>Node3&#45;&gt;Node21</title>
<g id="a_edge39_Node000003_Node000021"><a xlink:title=" ">
<path fill="none" stroke="#63b8ff" d="M985.88,-259.68C1070.87,-256.16 1188.96,-246.01 1224.5,-217 1258.49,-189.26 1267.12,-160.24 1247.5,-121 1235.57,-97.15 1219.83,-102.26 1199.5,-85 1179.23,-67.79 1157.37,-46.4 1143.12,-32.04"/>
<polygon fill="#63b8ff" stroke="#63b8ff" points="1145.56,-29.52 1136.05,-24.85 1140.57,-34.43 1145.56,-29.52"/>
</a>
</g>
</g>
<!-- Node23 -->
<g id="Node000023" class="node">
<title>Node23</title>
<g id="a_Node000023"><a xlink:href="sparsity_8hpp.html" target="_top" xlink:title=" ">
<polygon fill="white" stroke="#666666" points="848,-145.5 693,-145.5 693,-126.5 848,-126.5 848,-145.5"/>
<text text-anchor="middle" x="770.5" y="-133.5" font-family="Helvetica,sans-Serif" font-size="10.00">alpaqa/problem/sparsity.hpp</text>
</a>
</g>
</g>
<!-- Node3&#45;&gt;Node23 -->
<g id="edge28_Node000003_Node000023" class="edge">
<title>Node3&#45;&gt;Node23</title>
<g id="a_edge28_Node000003_Node000023"><a xlink:title=" ">
<path fill="none" stroke="#63b8ff" d="M871.56,-252.85C854.66,-245.35 831.55,-233.14 815.5,-217 797.73,-199.12 784.74,-172.8 777.41,-155.29"/>
<polygon fill="#63b8ff" stroke="#63b8ff" points="780.53,-153.67 773.58,-145.68 774.03,-156.26 780.53,-153.67"/>
</a>
</g>
</g>
<!-- Node28 -->
<g id="Node000028" class="node">
<title>Node28</title>
<g id="a_Node000028"><a xlink:href="copyable__unique__ptr_8hpp.html" target="_top" xlink:title=" ">
<polygon fill="white" stroke="#666666" points="1215.5,-217 1099.5,-217 1099.5,-187 1215.5,-187 1215.5,-217"/>
<text text-anchor="start" x="1107.5" y="-205" font-family="Helvetica,sans-Serif" font-size="10.00">alpaqa/util/copyable</text>
<text text-anchor="middle" x="1157.5" y="-194" font-family="Helvetica,sans-Serif" font-size="10.00">_unique_ptr.hpp</text>
</a>
</g>
</g>
<!-- Node3&#45;&gt;Node28 -->
<g id="edge35_Node000003_Node000028" class="edge">
<title>Node3&#45;&gt;Node28</title>
<g id="a_edge35_Node000003_Node000028"><a xlink:title=" ">
<path fill="none" stroke="#63b8ff" d="M931.89,-252.99C973.05,-243.87 1039.22,-229.21 1089.29,-218.12"/>
<polygon fill="#63b8ff" stroke="#63b8ff" points="1090.07,-221.53 1099.07,-215.95 1088.55,-214.69 1090.07,-221.53"/>
</a>
</g>
</g>
<!-- Node30 -->
<g id="Node000030" class="node">
<title>Node30</title>
<g id="a_Node000030"><a xlink:title=" ">
<polygon fill="#e0e0e0" stroke="#999999" points="1377.5,-24.5 1309.5,-24.5 1309.5,-5.5 1377.5,-5.5 1377.5,-24.5"/>
<text text-anchor="middle" x="1343.5" y="-12.5" font-family="Helvetica,sans-Serif" font-size="10.00">filesystem</text>
</a>
</g>
</g>
<!-- Node3&#45;&gt;Node30 -->
<g id="edge37_Node000003_Node000030" class="edge">
<title>Node3&#45;&gt;Node30</title>
<g id="a_edge37_Node000003_Node000030"><a xlink:title=" ">
<path fill="none" stroke="#63b8ff" d="M985.81,-259.67C1077.14,-256.18 1209.11,-246.09 1250.5,-217 1313.19,-172.95 1334.63,-75.69 1341.06,-34.75"/>
<polygon fill="#63b8ff" stroke="#63b8ff" points="1344.53,-35.18 1342.49,-24.79 1337.6,-34.18 1344.53,-35.18"/>
</a>
</g>
</g>
<!-- Node31 -->
<g id="Node000031" class="node">
<title>Node31</title>
<g id="a_Node000031"><a xlink:title=" ">
<polygon fill="#e0e0e0" stroke="#999999" points="862.5,-211.5 824.5,-211.5 824.5,-192.5 862.5,-192.5 862.5,-211.5"/>
<text text-anchor="middle" x="843.5" y="-199.5" font-family="Helvetica,sans-Serif" font-size="10.00">map</text>
</a>
</g>
</g>
<!-- Node3&#45;&gt;Node31 -->
<g id="edge38_Node000003_Node000031" class="edge">
<title>Node3&#45;&gt;Node31</title>
<g id="a_edge38_Node000003_Node000031"><a xlink:title=" ">
<path fill="none" stroke="#63b8ff" d="M886.12,-252.87C878.59,-244.05 866.71,-230.16 857.41,-219.27"/>
<polygon fill="#63b8ff" stroke="#63b8ff" points="860.07,-217 850.91,-211.67 854.74,-221.54 860.07,-217"/>
</a>
</g>
</g>
<!-- Node32 -->
<g id="Node000032" class="node">
<title>Node32</title>
<g id="a_Node000032"><a xlink:href="casadi-external-function_8hpp.html" target="_top" xlink:title=" ">
<polygon fill="white" stroke="#666666" points="1006,-217 881,-217 881,-187 1006,-187 1006,-217"/>
<text text-anchor="start" x="889" y="-205" font-family="Helvetica,sans-Serif" font-size="10.00">alpaqa/casadi/casadi</text>
<text text-anchor="middle" x="943.5" y="-194" font-family="Helvetica,sans-Serif" font-size="10.00">&#45;external&#45;function.hpp</text>
</a>
</g>
</g>
<!-- Node3&#45;&gt;Node32 -->
<g id="edge40_Node000003_Node000032" class="edge">
<title>Node3&#45;&gt;Node32</title>
<g id="a_edge40_Node000003_Node000032"><a xlink:title=" ">
<path fill="none" stroke="#63b8ff" d="M900.88,-252.87C907.16,-245.52 916.46,-234.63 924.77,-224.91"/>
<polygon fill="#63b8ff" stroke="#63b8ff" points="927.6,-226.99 931.44,-217.11 922.28,-222.44 927.6,-226.99"/>
</a>
</g>
</g>
<!-- Node4&#45;&gt;Node2 -->
<g id="edge4_Node000004_Node000002" class="edge">
<title>Node4&#45;&gt;Node2</title>
<g id="a_edge4_Node000004_Node000002"><a xlink:title=" ">
<path fill="none" stroke="#63b8ff" d="M264.08,-186.8C252.9,-178.18 238.45,-167.04 226.06,-157.48"/>
<polygon fill="#63b8ff" stroke="#63b8ff" points="227.93,-154.5 217.87,-151.16 223.65,-160.04 227.93,-154.5"/>
</a>
</g>
</g>
<!-- Node7 -->
<g id="Node000007" class="node">
<title>Node7</title>
<g id="a_Node000007"><a xlink:href="quadmath-print_8hpp.html" target="_top" xlink:title=" ">
<polygon fill="white" stroke="#666666" points="639,-30 518,-30 518,0 639,0 639,-30"/>
<text text-anchor="start" x="526" y="-18" font-family="Helvetica,sans-Serif" font-size="10.00">alpaqa/util/quadmath</text>
<text text-anchor="middle" x="578.5" y="-7" font-family="Helvetica,sans-Serif" font-size="10.00">/quadmath&#45;print.hpp</text>
</a>
</g>
</g>
<!-- Node6&#45;&gt;Node7 -->
<g id="edge7_Node000006_Node000007" class="edge">
<title>Node6&#45;&gt;Node7</title>
<g id="a_edge7_Node000006_Node000007"><a xlink:title=" ">
<path fill="none" stroke="#63b8ff" d="M402.45,-65.99C432.88,-57.35 480.82,-43.74 518.99,-32.9"/>
<polygon fill="#63b8ff" stroke="#63b8ff" points="520.31,-36.16 528.97,-30.06 518.4,-29.43 520.31,-36.16"/>
</a>
</g>
</g>
<!-- Node8 -->
<g id="Node000008" class="node">
<title>Node8</title>
<g id="a_Node000008"><a xlink:href="quadmath_8hpp.html" target="_top" xlink:title=" ">
<polygon fill="white" stroke="#666666" points="350,-30 229,-30 229,0 350,0 350,-30"/>
<text text-anchor="start" x="237" y="-18" font-family="Helvetica,sans-Serif" font-size="10.00">alpaqa/util/quadmath</text>
<text text-anchor="middle" x="289.5" y="-7" font-family="Helvetica,sans-Serif" font-size="10.00">/quadmath.hpp</text>
</a>
</g>
</g>
<!-- Node6&#45;&gt;Node8 -->
<g id="edge8_Node000006_Node000008" class="edge">
<title>Node6&#45;&gt;Node8</title>
<g id="a_edge8_Node000006_Node000008"><a xlink:title=" ">
<path fill="none" stroke="#63b8ff" d="M360.25,-65.87C349.1,-58 332.2,-46.09 317.71,-35.89"/>
<polygon fill="#63b8ff" stroke="#63b8ff" points="319.72,-33.01 309.53,-30.11 315.68,-38.74 319.72,-33.01"/>
</a>
</g>
</g>
<!-- Node9 -->
<g id="Node000009" class="node">
<title>Node9</title>
<g id="a_Node000009"><a xlink:title=" ">
<polygon fill="#e0e0e0" stroke="#999999" points="124,-24.5 65,-24.5 65,-5.5 124,-5.5 124,-24.5"/>
<text text-anchor="middle" x="94.5" y="-12.5" font-family="Helvetica,sans-Serif" font-size="10.00">complex</text>
</a>
</g>
</g>
<!-- Node6&#45;&gt;Node9 -->
<g id="edge9_Node000006_Node000009" class="edge">
<title>Node6&#45;&gt;Node9</title>
<g id="a_edge9_Node000006_Node000009"><a xlink:title=" ">
<path fill="none" stroke="#63b8ff" d="M310.69,-65.99C261.83,-58.56 192.16,-46.39 132.5,-30 130.21,-29.37 127.87,-28.67 125.52,-27.91"/>
<polygon fill="#63b8ff" stroke="#63b8ff" points="126.59,-24.58 116,-24.64 124.32,-31.2 126.59,-24.58"/>
</a>
</g>
</g>
<!-- Node10 -->
<g id="Node000010" class="node">
<title>Node10</title>
<g id="a_Node000010"><a xlink:title=" ">
<polygon fill="#e0e0e0" stroke="#999999" points="412.5,-24.5 368.5,-24.5 368.5,-5.5 412.5,-5.5 412.5,-24.5"/>
<text text-anchor="middle" x="390.5" y="-12.5" font-family="Helvetica,sans-Serif" font-size="10.00">limits</text>
</a>
</g>
</g>
<!-- Node6&#45;&gt;Node10 -->
<g id="edge10_Node000006_Node000010" class="edge">
<title>Node6&#45;&gt;Node10</title>
<g id="a_edge10_Node000006_Node000010"><a xlink:title=" ">
<path fill="none" stroke="#63b8ff" d="M375.16,-65.87C377.68,-57.66 381.56,-45.04 384.79,-34.55"/>
<polygon fill="#63b8ff" stroke="#63b8ff" points="388.24,-35.25 387.83,-24.67 381.55,-33.2 388.24,-35.25"/>
</a>
</g>
</g>
<!-- Node11 -->
<g id="Node000011" class="node">
<title>Node11</title>
<g id="a_Node000011"><a xlink:title=" ">
<polygon fill="#e0e0e0" stroke="#999999" points="211,-24.5 142,-24.5 142,-5.5 211,-5.5 211,-24.5"/>
<text text-anchor="middle" x="176.5" y="-12.5" font-family="Helvetica,sans-Serif" font-size="10.00">type_traits</text>
</a>
</g>
</g>
<!-- Node6&#45;&gt;Node11 -->
<g id="edge11_Node000006_Node000011" class="edge">
<title>Node6&#45;&gt;Node11</title>
<g id="a_edge11_Node000006_Node000011"><a xlink:title=" ">
<path fill="none" stroke="#63b8ff" d="M341.93,-65.92C310.99,-57.16 261.8,-43.03 219.5,-30 217.07,-29.25 214.57,-28.47 212.05,-27.67"/>
<polygon fill="#63b8ff" stroke="#63b8ff" points="212.97,-24.29 202.38,-24.57 210.83,-30.96 212.97,-24.29"/>
</a>
</g>
</g>
<!-- Node12 -->
<g id="Node000012" class="node">
<title>Node12</title>
<g id="a_Node000012"><a xlink:title=" ">
<polygon fill="#e0e0e0" stroke="#999999" points="500,-24.5 431,-24.5 431,-5.5 500,-5.5 500,-24.5"/>
<text text-anchor="middle" x="465.5" y="-12.5" font-family="Helvetica,sans-Serif" font-size="10.00">Eigen/Core</text>
</a>
</g>
</g>
<!-- Node6&#45;&gt;Node12 -->
<g id="edge12_Node000006_Node000012" class="edge">
<title>Node6&#45;&gt;Node12</title>
<g id="a_edge12_Node000006_Node000012"><a xlink:title=" ">
<path fill="none" stroke="#63b8ff" d="M386.22,-65.87C401.2,-56.45 425.39,-41.23 443.12,-30.08"/>
<polygon fill="#63b8ff" stroke="#63b8ff" points="445.12,-32.95 451.72,-24.67 441.39,-27.03 445.12,-32.95"/>
</a>
</g>
</g>
<!-- Node14 -->
<g id="Node000014" class="node">
<title>Node14</title>
<g id="a_Node000014"><a xlink:href="box_8hpp.html" target="_top" xlink:title=" ">
<polygon fill="white" stroke="#666666" points="412,-145.5 277,-145.5 277,-126.5 412,-126.5 412,-145.5"/>
<text text-anchor="middle" x="344.5" y="-133.5" font-family="Helvetica,sans-Serif" font-size="10.00">alpaqa/problem/box.hpp</text>
</a>
</g>
</g>
<!-- Node13&#45;&gt;Node14 -->
<g id="edge14_Node000013_Node000014" class="edge">
<title>Node13&#45;&gt;Node14</title>
<g id="a_edge14_Node000013_Node000014"><a xlink:title=" ">
<path fill="none" stroke="#63b8ff" d="M510.76,-186.95C472.25,-175.38 418.33,-159.18 382.46,-148.41"/>
<polygon fill="#63b8ff" stroke="#63b8ff" points="383.43,-145.04 372.85,-145.52 381.42,-151.75 383.43,-145.04"/>
</a>
</g>
</g>
<!-- Node18 -->
<g id="Node000018" class="node">
<title>Node18</title>
<g id="a_Node000018"><a xlink:href="check-dim_8hpp.html" target="_top" xlink:title=" ">
<polygon fill="white" stroke="#666666" points="573,-145.5 430,-145.5 430,-126.5 573,-126.5 573,-145.5"/>
<text text-anchor="middle" x="501.5" y="-133.5" font-family="Helvetica,sans-Serif" font-size="10.00">alpaqa/util/check&#45;dim.hpp</text>
</a>
</g>
</g>
<!-- Node13&#45;&gt;Node18 -->
<g id="edge22_Node000013_Node000018" class="edge">
<title>Node13&#45;&gt;Node18</title>
<g id="a_edge22_Node000013_Node000018"><a xlink:title=" ">
<path fill="none" stroke="#63b8ff" d="M545.07,-186.8C536.43,-176.92 524.88,-163.72 515.84,-153.39"/>
<polygon fill="#63b8ff" stroke="#63b8ff" points="518.46,-151.07 509.24,-145.84 513.19,-155.67 518.46,-151.07"/>
</a>
</g>
</g>
<!-- Node22 -->
<g id="Node000022" class="node">
<title>Node22</title>
<g id="a_Node000022"><a xlink:title=" ">
<polygon fill="#e0e0e0" stroke="#999999" points="636,-145.5 591,-145.5 591,-126.5 636,-126.5 636,-145.5"/>
<text text-anchor="middle" x="613.5" y="-133.5" font-family="Helvetica,sans-Serif" font-size="10.00">utility</text>
</a>
</g>
</g>
<!-- Node13&#45;&gt;Node22 -->
<g id="edge27_Node000013_Node000022" class="edge">
<title>Node13&#45;&gt;Node22</title>
<g id="a_edge27_Node000013_Node000022"><a xlink:title=" ">
<path fill="none" stroke="#63b8ff" d="M569.93,-186.8C578.57,-176.92 590.12,-163.72 599.16,-153.39"/>
<polygon fill="#63b8ff" stroke="#63b8ff" points="601.81,-155.67 605.76,-145.84 596.54,-151.07 601.81,-155.67"/>
</a>
</g>
</g>
<!-- Node14&#45;&gt;Node6 -->
<g id="edge15_Node000014_Node000006" class="edge">
<title>Node14&#45;&gt;Node6</title>
<g id="a_edge15_Node000014_Node000006"><a xlink:title=" ">
<path fill="none" stroke="#63b8ff" d="M348.63,-126.37C352.64,-117.99 358.85,-105.01 363.94,-94.39"/>
<polygon fill="#63b8ff" stroke="#63b8ff" points="367.19,-95.7 368.35,-85.17 360.88,-92.68 367.19,-95.7"/>
</a>
</g>
</g>
<!-- Node15 -->
<g id="Node000015" class="node">
<title>Node15</title>
<g id="a_Node000015"><a xlink:href="float_8hpp.html" target="_top" xlink:title=" ">
<polygon fill="white" stroke="#666666" points="268.5,-85 154.5,-85 154.5,-66 268.5,-66 268.5,-85"/>
<text text-anchor="middle" x="211.5" y="-73" font-family="Helvetica,sans-Serif" font-size="10.00">alpaqa/util/float.hpp</text>
</a>
</g>
</g>
<!-- Node14&#45;&gt;Node15 -->
<g id="edge16_Node000014_Node000015" class="edge">
<title>Node14&#45;&gt;Node15</title>
<g id="a_edge16_Node000014_Node000015"><a xlink:title=" ">
<path fill="none" stroke="#63b8ff" d="M325.16,-126.49C302.8,-116.66 265.79,-100.38 240.1,-89.08"/>
<polygon fill="#63b8ff" stroke="#63b8ff" points="241.43,-85.84 230.86,-85.02 238.61,-92.25 241.43,-85.84"/>
</a>
</g>
</g>
<!-- Node15&#45;&gt;Node8 -->
<g id="edge17_Node000015_Node000008" class="edge">
<title>Node15&#45;&gt;Node8</title>
<g id="a_edge17_Node000015_Node000008"><a xlink:title=" ">
<path fill="none" stroke="#63b8ff" d="M223.01,-65.87C233.4,-58.08 249.08,-46.32 262.6,-36.17"/>
<polygon fill="#63b8ff" stroke="#63b8ff" points="264.78,-38.91 270.68,-30.11 260.58,-33.31 264.78,-38.91"/>
</a>
</g>
</g>
<!-- Node15&#45;&gt;Node9 -->
<g id="edge19_Node000015_Node000009" class="edge">
<title>Node15&#45;&gt;Node9</title>
<g id="a_edge19_Node000015_Node000009"><a xlink:title=" ">
<path fill="none" stroke="#63b8ff" d="M194.49,-65.99C175.08,-56.29 143.11,-40.31 120.56,-29.03"/>
<polygon fill="#63b8ff" stroke="#63b8ff" points="122.04,-25.86 111.53,-24.52 118.91,-32.12 122.04,-25.86"/>
</a>
</g>
</g>
<!-- Node15&#45;&gt;Node11 -->
<g id="edge21_Node000015_Node000011" class="edge">
<title>Node15&#45;&gt;Node11</title>
<g id="a_edge21_Node000015_Node000011"><a xlink:title=" ">
<path fill="none" stroke="#63b8ff" d="M206.34,-65.87C201.27,-57.4 193.4,-44.24 187.01,-33.57"/>
<polygon fill="#63b8ff" stroke="#63b8ff" points="189.82,-31.45 181.69,-24.67 183.82,-35.05 189.82,-31.45"/>
</a>
</g>
</g>
<!-- Node16 -->
<g id="Node000016" class="node">
<title>Node16</title>
<g id="a_Node000016"><a xlink:title=" ">
<polygon fill="#e0e0e0" stroke="#999999" points="47,-24.5 0,-24.5 0,-5.5 47,-5.5 47,-24.5"/>
<text text-anchor="middle" x="23.5" y="-12.5" font-family="Helvetica,sans-Serif" font-size="10.00">cmath</text>
</a>
</g>
</g>
<!-- Node15&#45;&gt;Node16 -->
<g id="edge18_Node000015_Node000016" class="edge">
<title>Node15&#45;&gt;Node16</title>
<g id="a_edge18_Node000015_Node000016"><a xlink:title=" ">
<path fill="none" stroke="#63b8ff" d="M176.38,-65.92C144.48,-57.8 96.31,-44.67 55.5,-30 54.11,-29.5 52.69,-28.97 51.27,-28.42"/>
<polygon fill="#63b8ff" stroke="#63b8ff" points="52.52,-25.15 41.94,-24.57 49.85,-31.62 52.52,-25.15"/>
</a>
</g>
</g>
<!-- Node17 -->
<g id="Node000017" class="node">
<title>Node17</title>
<g id="a_Node000017"><a xlink:title=" ">
<polygon fill="#e0e0e0" stroke="#999999" points="717.5,-24.5 657.5,-24.5 657.5,-5.5 717.5,-5.5 717.5,-24.5"/>
<text text-anchor="middle" x="687.5" y="-12.5" font-family="Helvetica,sans-Serif" font-size="10.00">concepts</text>
</a>
</g>
</g>
<!-- Node15&#45;&gt;Node17 -->
<g id="edge20_Node000015_Node000017" class="edge">
<title>Node15&#45;&gt;Node17</title>
<g id="a_edge20_Node000015_Node000017"><a xlink:title=" ">
<path fill="none" stroke="#63b8ff" d="M268.9,-68.68C387.22,-56.67 647.35,-30.26 648.5,-30 651.33,-29.36 654.23,-28.57 657.12,-27.7"/>
<polygon fill="#63b8ff" stroke="#63b8ff" points="658.34,-30.98 666.73,-24.51 656.14,-24.34 658.34,-30.98"/>
</a>
</g>
</g>
<!-- Node18&#45;&gt;Node6 -->
<g id="edge23_Node000018_Node000006" class="edge">
<title>Node18&#45;&gt;Node6</title>
<g id="a_edge23_Node000018_Node000006"><a xlink:title=" ">
<path fill="none" stroke="#63b8ff" d="M482.74,-126.49C461.15,-116.7 425.47,-100.52 400.57,-89.23"/>
<polygon fill="#63b8ff" stroke="#63b8ff" points="401.83,-85.96 391.28,-85.02 398.94,-92.33 401.83,-85.96"/>
</a>
</g>
</g>
<!-- Node19 -->
<g id="Node000019" class="node">
<title>Node19</title>
<g id="a_Node000019"><a xlink:title=" ">
<polygon fill="#e0e0e0" stroke="#999999" points="617.5,-85 561.5,-85 561.5,-66 617.5,-66 617.5,-85"/>
<text text-anchor="middle" x="589.5" y="-73" font-family="Helvetica,sans-Serif" font-size="10.00">optional</text>
</a>
</g>
</g>
<!-- Node18&#45;&gt;Node19 -->
<g id="edge24_Node000018_Node000019" class="edge">
<title>Node18&#45;&gt;Node19</title>
<g id="a_edge24_Node000018_Node000019"><a xlink:title=" ">
<path fill="none" stroke="#63b8ff" d="M514.48,-126.37C528.52,-117.04 551.13,-102.01 567.86,-90.88"/>
<polygon fill="#63b8ff" stroke="#63b8ff" points="570.07,-93.62 576.46,-85.17 566.2,-87.79 570.07,-93.62"/>
</a>
</g>
</g>
<!-- Node20 -->
<g id="Node000020" class="node">
<title>Node20</title>
<g id="a_Node000020"><a xlink:title=" ">
<polygon fill="#e0e0e0" stroke="#999999" points="900,-24.5 835,-24.5 835,-5.5 900,-5.5 900,-24.5"/>
<text text-anchor="middle" x="867.5" y="-12.5" font-family="Helvetica,sans-Serif" font-size="10.00">stdexcept</text>
</a>
</g>
</g>
<!-- Node18&#45;&gt;Node20 -->
<g id="edge25_Node000018_Node000020" class="edge">
<title>Node18&#45;&gt;Node20</title>
<g id="a_edge25_Node000018_Node000020"><a xlink:title=" ">
<path fill="none" stroke="#63b8ff" d="M500.96,-126.26C500.57,-111.45 502.14,-81.51 519.5,-66 530.8,-55.9 734.08,-31.37 824.61,-20.89"/>
<polygon fill="#63b8ff" stroke="#63b8ff" points="825.28,-24.33 834.82,-19.71 824.48,-17.38 825.28,-24.33"/>
</a>
</g>
</g>
<!-- Node18&#45;&gt;Node21 -->
<g id="edge26_Node000018_Node000021" class="edge">
<title>Node18&#45;&gt;Node21</title>
<g id="a_edge26_Node000018_Node000021"><a xlink:title=" ">
<path fill="none" stroke="#63b8ff" d="M504.97,-126.31C511.6,-111.01 527.66,-79.57 552.5,-66 658.81,-7.9 978.97,-59.4 1096.5,-30 1098.23,-29.57 1099.99,-29.04 1101.74,-28.45"/>
<polygon fill="#63b8ff" stroke="#63b8ff" points="1103.5,-31.51 1111.48,-24.55 1100.9,-25.01 1103.5,-31.51"/>
</a>
</g>
</g>
<!-- Node23&#45;&gt;Node6 -->
<g id="edge29_Node000023_Node000006" class="edge">
<title>Node23&#45;&gt;Node6</title>
<g id="a_edge29_Node000023_Node000006"><a xlink:title=" ">
<path fill="none" stroke="#63b8ff" d="M712.63,-126.49C640.41,-115.88 517.11,-97.76 440.47,-86.49"/>
<polygon fill="#63b8ff" stroke="#63b8ff" points="440.85,-83.01 430.44,-85.02 439.83,-89.93 440.85,-83.01"/>
</a>
</g>
</g>
<!-- Node23&#45;&gt;Node17 -->
<g id="edge33_Node000023_Node000017" class="edge">
<title>Node23&#45;&gt;Node17</title>
<g id="a_edge33_Node000023_Node000017"><a xlink:title=" ">
<path fill="none" stroke="#63b8ff" d="M728.62,-126.47C705.75,-119.45 679.35,-106.94 665.5,-85 655.37,-68.95 664.83,-47.84 674.31,-33.22"/>
<polygon fill="#63b8ff" stroke="#63b8ff" points="677.43,-34.85 680.33,-24.66 671.71,-30.83 677.43,-34.85"/>
</a>
</g>
</g>
<!-- Node24 -->
<g id="Node000024" class="node">
<title>Node24</title>
<g id="a_Node000024"><a xlink:href="export_8hpp.html" target="_top" xlink:title=" ">
<polygon fill="white" stroke="#666666" points="848,-85 743,-85 743,-66 848,-66 848,-85"/>
<text text-anchor="middle" x="795.5" y="-73" font-family="Helvetica,sans-Serif" font-size="10.00">alpaqa/export.hpp</text>
</a>
</g>
</g>
<!-- Node23&#45;&gt;Node24 -->
<g id="edge30_Node000023_Node000024" class="edge">
<title>Node23&#45;&gt;Node24</title>
<g id="a_edge30_Node000023_Node000024"><a xlink:title=" ">
<path fill="none" stroke="#63b8ff" d="M774.19,-126.37C777.77,-117.99 783.32,-105.01 787.85,-94.39"/>
<polygon fill="#63b8ff" stroke="#63b8ff" points="791.08,-95.74 791.8,-85.17 784.65,-92.99 791.08,-95.74"/>
</a>
</g>
</g>
<!-- Node26 -->
<g id="Node000026" class="node">
<title>Node26</title>
<g id="a_Node000026"><a xlink:title=" ">
<polygon fill="#e0e0e0" stroke="#999999" points="994.5,-85 942.5,-85 942.5,-66 994.5,-66 994.5,-85"/>
<text text-anchor="middle" x="968.5" y="-73" font-family="Helvetica,sans-Serif" font-size="10.00">cassert</text>
</a>
</g>
</g>
<!-- Node23&#45;&gt;Node26 -->
<g id="edge32_Node000023_Node000026" class="edge">
<title>Node23&#45;&gt;Node26</title>
<g id="a_edge32_Node000023_Node000026"><a xlink:title=" ">
<path fill="none" stroke="#63b8ff" d="M799.29,-126.49C834.54,-116.08 894.25,-98.44 932.5,-87.14"/>
<polygon fill="#63b8ff" stroke="#63b8ff" points="933.61,-90.46 942.21,-84.27 931.62,-83.75 933.61,-90.46"/>
</a>
</g>
</g>
<!-- Node27 -->
<g id="Node000027" class="node">
<title>Node27</title>
<g id="a_Node000027"><a xlink:title=" ">
<polygon fill="#e0e0e0" stroke="#999999" points="725,-85 674,-85 674,-66 725,-66 725,-85"/>
<text text-anchor="middle" x="699.5" y="-73" font-family="Helvetica,sans-Serif" font-size="10.00">variant</text>
</a>
</g>
</g>
<!-- Node23&#45;&gt;Node27 -->
<g id="edge34_Node000023_Node000027" class="edge">
<title>Node23&#45;&gt;Node27</title>
<g id="a_edge34_Node000023_Node000027"><a xlink:title=" ">
<path fill="none" stroke="#63b8ff" d="M760.02,-126.37C749.01,-117.3 731.46,-102.84 718.09,-91.82"/>
<polygon fill="#63b8ff" stroke="#63b8ff" points="719.96,-88.83 710.02,-85.17 715.51,-94.23 719.96,-88.83"/>
</a>
</g>
</g>
<!-- Node25 -->
<g id="Node000025" class="node">
<title>Node25</title>
<g id="a_Node000025"><a xlink:title=" ">
<polygon fill="#e0e0e0" stroke="#999999" points="1011,-24.5 918,-24.5 918,-5.5 1011,-5.5 1011,-24.5"/>
<text text-anchor="middle" x="964.5" y="-12.5" font-family="Helvetica,sans-Serif" font-size="10.00">alpaqa/export.h</text>
</a>
</g>
</g>
<!-- Node24&#45;&gt;Node25 -->
<g id="edge31_Node000024_Node000025" class="edge">
<title>Node24&#45;&gt;Node25</title>
<g id="a_edge31_Node000024_Node000025"><a xlink:title=" ">
<path fill="none" stroke="#63b8ff" d="M820.07,-65.99C849.11,-55.94 897.6,-39.16 930.3,-27.84"/>
<polygon fill="#63b8ff" stroke="#63b8ff" points="931.59,-31.1 939.9,-24.52 929.3,-24.48 931.59,-31.1"/>
</a>
</g>
</g>
<!-- Node29 -->
<g id="Node000029" class="node">
<title>Node29</title>
<g id="a_Node000029"><a xlink:title=" ">
<polygon fill="#e0e0e0" stroke="#999999" points="1087.5,-24.5 1029.5,-24.5 1029.5,-5.5 1087.5,-5.5 1087.5,-24.5"/>
<text text-anchor="middle" x="1058.5" y="-12.5" font-family="Helvetica,sans-Serif" font-size="10.00">memory</text>
</a>
</g>
</g>
<!-- Node28&#45;&gt;Node29 -->
<g id="edge36_Node000028_Node000029" class="edge">
<title>Node28&#45;&gt;Node29</title>
<g id="a_edge36_Node000028_Node000029"><a xlink:title=" ">
<path fill="none" stroke="#63b8ff" d="M1191.73,-186.95C1206.8,-178.84 1222.99,-167.02 1231.5,-151 1237.75,-139.22 1238.27,-132.49 1231.5,-121 1214.73,-92.55 1194.87,-101.9 1166.5,-85 1135.89,-66.77 1101.32,-44.35 1079.72,-30.11"/>
<polygon fill="#63b8ff" stroke="#63b8ff" points="1081.58,-27.15 1071.3,-24.55 1077.71,-32.98 1081.58,-27.15"/>
</a>
</g>
</g>
<!-- Node32&#45;&gt;Node2 -->
<g id="edge41_Node000032_Node000002" class="edge">
<title>Node32&#45;&gt;Node2</title>
<g id="a_edge41_Node000032_Node000002"><a xlink:title=" ">
<path fill="none" stroke="#63b8ff" d="M880.75,-188.29C877.63,-187.82 874.53,-187.38 871.5,-187 607.96,-153.67 535.86,-185.41 269.1,-151.08"/>
<polygon fill="#63b8ff" stroke="#63b8ff" points="269.49,-147.6 259.12,-149.78 268.58,-154.54 269.49,-147.6"/>
</a>
</g>
</g>
<!-- Node32&#45;&gt;Node5 -->
<g id="edge55_Node000032_Node000005" class="edge">
<title>Node32&#45;&gt;Node5</title>
<g id="a_edge55_Node000032_Node000005"><a xlink:title=" ">
<path fill="none" stroke="#63b8ff" d="M1006.22,-196.07C1065.58,-190.02 1156.51,-177.16 1231.5,-151 1289.34,-130.82 1300.11,-116.75 1352.5,-85 1378.43,-69.29 1407.01,-49.97 1427.48,-35.78"/>
<polygon fill="#63b8ff" stroke="#63b8ff" points="1429.52,-38.62 1435.72,-30.03 1425.51,-32.88 1429.52,-38.62"/>
</a>
</g>
</g>
<!-- Node32&#45;&gt;Node19 -->
<g id="edge58_Node000032_Node000019" class="edge">
<title>Node32&#45;&gt;Node19</title>
<g id="a_edge58_Node000032_Node000019"><a xlink:title=" ">
<path fill="none" stroke="#63b8ff" d="M880.67,-188.78C877.57,-188.18 874.5,-187.58 871.5,-187 788.4,-170.92 761.52,-186.1 684.5,-151 682.34,-150.01 635.55,-113.03 608.46,-91.55"/>
<polygon fill="#63b8ff" stroke="#63b8ff" points="610.45,-88.66 600.44,-85.19 606.1,-94.14 610.45,-88.66"/>
</a>
</g>
</g>
<!-- Node32&#45;&gt;Node20 -->
<g id="edge60_Node000032_Node000020" class="edge">
<title>Node32&#45;&gt;Node20</title>
<g id="a_edge60_Node000032_Node000020"><a xlink:title=" ">
<path fill="none" stroke="#63b8ff" d="M927.87,-186.63C918.63,-177.31 907.41,-164.44 900.5,-151 880.71,-112.51 872.45,-61.68 869.28,-34.7"/>
<polygon fill="#63b8ff" stroke="#63b8ff" points="872.75,-34.27 868.21,-24.7 865.79,-35.02 872.75,-34.27"/>
</a>
</g>
</g>
<!-- Node32&#45;&gt;Node22 -->
<g id="edge61_Node000032_Node000022" class="edge">
<title>Node32&#45;&gt;Node22</title>
<g id="a_edge61_Node000032_Node000022"><a xlink:title=" ">
<path fill="none" stroke="#63b8ff" d="M880.69,-188.67C877.59,-188.1 874.51,-187.54 871.5,-187 773.53,-169.5 746.63,-176.74 650.5,-151 648.2,-150.39 645.85,-149.68 643.51,-148.92"/>
<polygon fill="#63b8ff" stroke="#63b8ff" points="644.6,-145.6 634,-145.59 642.28,-152.2 644.6,-145.6"/>
</a>
</g>
</g>
<!-- Node32&#45;&gt;Node26 -->
<g id="edge56_Node000032_Node000026" class="edge">
<title>Node32&#45;&gt;Node26</title>
<g id="a_edge56_Node000032_Node000026"><a xlink:title=" ">
<path fill="none" stroke="#63b8ff" d="M946.37,-186.72C950.91,-164.12 959.74,-120.12 964.77,-95.09"/>
<polygon fill="#63b8ff" stroke="#63b8ff" points="968.24,-95.56 966.78,-85.07 961.38,-94.18 968.24,-95.56"/>
</a>
</g>
</g>
<!-- Node32&#45;&gt;Node29 -->
<g id="edge57_Node000032_Node000029" class="edge">
<title>Node32&#45;&gt;Node29</title>
<g id="a_edge57_Node000032_Node000029"><a xlink:title=" ">
<path fill="none" stroke="#63b8ff" d="M937.19,-186.91C926.48,-160.62 908.2,-103.37 933.5,-66 936.25,-61.93 989.34,-41.63 1025.44,-28.18"/>
<polygon fill="#63b8ff" stroke="#63b8ff" points="1026.96,-31.35 1035.11,-24.58 1024.52,-24.78 1026.96,-31.35"/>
</a>
</g>
</g>
<!-- Node33 -->
<g id="Node000033" class="node">
<title>Node33</title>
<g id="a_Node000033"><a xlink:href="casadi-functions_8hpp.html" target="_top" xlink:title=" ">
<polygon fill="white" stroke="#666666" points="1222.5,-145.5 1104.5,-145.5 1104.5,-126.5 1222.5,-126.5 1222.5,-145.5"/>
<text text-anchor="middle" x="1163.5" y="-133.5" font-family="Helvetica,sans-Serif" font-size="10.00">casadi&#45;functions.hpp</text>
</a>
</g>
</g>
<!-- Node32&#45;&gt;Node33 -->
<g id="edge42_Node000032_Node000033" class="edge">
<title>Node32&#45;&gt;Node33</title>
<g id="a_edge42_Node000032_Node000033"><a xlink:title=" ">
<path fill="none" stroke="#63b8ff" d="M991.78,-186.95C1031.55,-175.38 1087.24,-159.18 1124.29,-148.41"/>
<polygon fill="#63b8ff" stroke="#63b8ff" points="1125.6,-151.67 1134.22,-145.52 1123.64,-144.95 1125.6,-151.67"/>
</a>
</g>
</g>
<!-- Node38 -->
<g id="Node000038" class="node">
<title>Node38</title>
<g id="a_Node000038"><a xlink:title=" ">
<polygon fill="#e0e0e0" stroke="#999999" points="1020.5,-145.5 980.5,-145.5 980.5,-126.5 1020.5,-126.5 1020.5,-145.5"/>
<text text-anchor="middle" x="1000.5" y="-133.5" font-family="Helvetica,sans-Serif" font-size="10.00">span</text>
</a>
</g>
</g>
<!-- Node32&#45;&gt;Node38 -->
<g id="edge59_Node000032_Node000038" class="edge">
<title>Node32&#45;&gt;Node38</title>
<g id="a_edge59_Node000032_Node000038"><a xlink:title=" ">
<path fill="none" stroke="#63b8ff" d="M956.15,-186.8C964.95,-176.92 976.7,-163.72 985.9,-153.39"/>
<polygon fill="#63b8ff" stroke="#63b8ff" points="988.59,-155.64 992.62,-145.84 983.36,-150.98 988.59,-155.64"/>
</a>
</g>
</g>
<!-- Node39 -->
<g id="Node000039" class="node">
<title>Node39</title>
<g id="a_Node000039"><a xlink:title=" ">
<polygon fill="#e0e0e0" stroke="#999999" points="1086,-145.5 1039,-145.5 1039,-126.5 1086,-126.5 1086,-145.5"/>
<text text-anchor="middle" x="1062.5" y="-133.5" font-family="Helvetica,sans-Serif" font-size="10.00">vector</text>
</a>
</g>
</g>
<!-- Node32&#45;&gt;Node39 -->
<g id="edge62_Node000032_Node000039" class="edge">
<title>Node32&#45;&gt;Node39</title>
<g id="a_edge62_Node000032_Node000039"><a xlink:title=" ">
<path fill="none" stroke="#63b8ff" d="M969.62,-186.95C989.84,-176.08 1017.68,-161.11 1037.59,-150.4"/>
<polygon fill="#63b8ff" stroke="#63b8ff" points="1039.51,-153.34 1046.66,-145.52 1036.2,-147.17 1039.51,-153.34"/>
</a>
</g>
</g>
<!-- Node33&#45;&gt;Node5 -->
<g id="edge43_Node000033_Node000005" class="edge">
<title>Node33&#45;&gt;Node5</title>
<g id="a_edge43_Node000033_Node000005"><a xlink:title=" ">
<path fill="none" stroke="#63b8ff" d="M1194.37,-126.46C1225.82,-117.41 1275.75,-102.1 1317.5,-85 1353.91,-70.08 1393.97,-49.57 1421.51,-34.79"/>
<polygon fill="#63b8ff" stroke="#63b8ff" points="1423.21,-37.85 1430.34,-30.01 1419.88,-31.69 1423.21,-37.85"/>
</a>
</g>
</g>
<!-- Node33&#45;&gt;Node26 -->
<g id="edge54_Node000033_Node000026" class="edge">
<title>Node33&#45;&gt;Node26</title>
<g id="a_edge54_Node000033_Node000026"><a xlink:title=" ">
<path fill="none" stroke="#63b8ff" d="M1135.15,-126.49C1100.68,-116.15 1042.45,-98.69 1004.75,-87.38"/>
<polygon fill="#63b8ff" stroke="#63b8ff" points="1005.29,-83.88 994.7,-84.36 1003.28,-90.59 1005.29,-83.88"/>
</a>
</g>
</g>
<!-- Node34 -->
<g id="Node000034" class="node">
<title>Node34</title>
<g id="a_Node000034"><a xlink:href="casadi-types_8hpp.html" target="_top" xlink:title=" ">
<polygon fill="white" stroke="#666666" points="1308.5,-85 1208.5,-85 1208.5,-66 1308.5,-66 1308.5,-85"/>
<text text-anchor="middle" x="1258.5" y="-73" font-family="Helvetica,sans-Serif" font-size="10.00">casadi&#45;types.hpp</text>
</a>
</g>
</g>
<!-- Node33&#45;&gt;Node34 -->
<g id="edge44_Node000033_Node000034" class="edge">
<title>Node33&#45;&gt;Node34</title>
<g id="a_edge44_Node000033_Node000034"><a xlink:title=" ">
<path fill="none" stroke="#63b8ff" d="M1177.52,-126.37C1192.81,-116.95 1217.53,-101.73 1235.64,-90.58"/>
<polygon fill="#63b8ff" stroke="#63b8ff" points="1237.75,-93.39 1244.42,-85.17 1234.07,-87.43 1237.75,-93.39"/>
</a>
</g>
</g>
<!-- Node37 -->
<g id="Node000037" class="node">
<title>Node37</title>
<g id="a_Node000037"><a xlink:href="dl_8hpp.html" target="_top" xlink:title=" ">
<polygon fill="white" stroke="#666666" points="1114,-85 1013,-85 1013,-66 1114,-66 1114,-85"/>
<text text-anchor="middle" x="1063.5" y="-73" font-family="Helvetica,sans-Serif" font-size="10.00">alpaqa/util/dl.hpp</text>
</a>
</g>
</g>
<!-- Node33&#45;&gt;Node37 -->
<g id="edge49_Node000033_Node000037" class="edge">
<title>Node33&#45;&gt;Node37</title>
<g id="a_edge49_Node000033_Node000037"><a xlink:title=" ">
<path fill="none" stroke="#63b8ff" d="M1148.74,-126.37C1132.5,-116.86 1106.15,-101.45 1087.04,-90.27"/>
<polygon fill="#63b8ff" stroke="#63b8ff" points="1088.71,-87.2 1078.32,-85.17 1085.18,-93.24 1088.71,-87.2"/>
</a>
</g>
</g>
<!-- Node34&#45;&gt;Node5 -->
<g id="edge48_Node000034_Node000005" class="edge">
<title>Node34&#45;&gt;Node5</title>
<g id="a_edge48_Node000034_Node000005"><a xlink:title=" ">
<path fill="none" stroke="#63b8ff" d="M1287.15,-65.99C1316.12,-57.39 1361.7,-43.86 1398.13,-33.04"/>
<polygon fill="#63b8ff" stroke="#63b8ff" points="1399.55,-36.27 1408.14,-30.06 1397.56,-29.56 1399.55,-36.27"/>
</a>
</g>
</g>
<!-- Node34&#45;&gt;Node21 -->
<g id="edge47_Node000034_Node000021" class="edge">
<title>Node34&#45;&gt;Node21</title>
<g id="a_edge47_Node000034_Node000021"><a xlink:title=" ">
<path fill="none" stroke="#63b8ff" d="M1238.94,-65.83C1218.77,-56.89 1186.42,-42.52 1158.5,-30 1157.65,-29.62 1156.79,-29.23 1155.92,-28.84"/>
<polygon fill="#63b8ff" stroke="#63b8ff" points="1157.07,-25.52 1146.51,-24.61 1154.19,-31.9 1157.07,-25.52"/>
</a>
</g>
</g>
<!-- Node35 -->
<g id="Node000035" class="node">
<title>Node35</title>
<g id="a_Node000035"><a xlink:title=" ">
<polygon fill="#e0e0e0" stroke="#999999" points="1231.5,-24.5 1167.5,-24.5 1167.5,-5.5 1231.5,-5.5 1231.5,-24.5"/>
<text text-anchor="middle" x="1199.5" y="-12.5" font-family="Helvetica,sans-Serif" font-size="10.00">algorithm</text>
</a>
</g>
</g>
<!-- Node34&#45;&gt;Node35 -->
<g id="edge45_Node000034_Node000035" class="edge">
<title>Node34&#45;&gt;Node35</title>
<g id="a_edge45_Node000034_Node000035"><a xlink:title=" ">
<path fill="none" stroke="#63b8ff" d="M1249.79,-65.87C1240.82,-56.97 1226.62,-42.89 1215.59,-31.95"/>
<polygon fill="#63b8ff" stroke="#63b8ff" points="1217.81,-29.22 1208.24,-24.67 1212.88,-34.19 1217.81,-29.22"/>
</a>
</g>
</g>
<!-- Node36 -->
<g id="Node000036" class="node">
<title>Node36</title>
<g id="a_Node000036"><a xlink:title=" ">
<polygon fill="#e0e0e0" stroke="#999999" points="1291.5,-24.5 1249.5,-24.5 1249.5,-5.5 1291.5,-5.5 1291.5,-24.5"/>
<text text-anchor="middle" x="1270.5" y="-12.5" font-family="Helvetica,sans-Serif" font-size="10.00">array</text>
</a>
</g>
</g>
<!-- Node34&#45;&gt;Node36 -->
<g id="edge46_Node000034_Node000036" class="edge">
<title>Node34&#45;&gt;Node36</title>
<g id="a_edge46_Node000034_Node000036"><a xlink:title=" ">
<path fill="none" stroke="#63b8ff" d="M1260.27,-65.87C1261.95,-57.66 1264.54,-45.04 1266.69,-34.55"/>
<polygon fill="#63b8ff" stroke="#63b8ff" points="1270.14,-35.17 1268.72,-24.67 1263.28,-33.76 1270.14,-35.17"/>
</a>
</g>
</g>
<!-- Node37&#45;&gt;Node20 -->
<g id="edge53_Node000037_Node000020" class="edge">
<title>Node37&#45;&gt;Node20</title>
<g id="a_edge53_Node000037_Node000020"><a xlink:title=" ">
<path fill="none" stroke="#63b8ff" d="M1032.71,-66C1001.55,-57.3 952.02,-43.22 909.5,-30 907.21,-29.29 904.85,-28.54 902.48,-27.78"/>
<polygon fill="#63b8ff" stroke="#63b8ff" points="903.36,-24.38 892.77,-24.61 901.18,-31.04 903.36,-24.38"/>
</a>
</g>
</g>
<!-- Node37&#45;&gt;Node25 -->
<g id="edge50_Node000037_Node000025" class="edge">
<title>Node37&#45;&gt;Node25</title>
<g id="a_edge50_Node000037_Node000025"><a xlink:title=" ">
<path fill="none" stroke="#63b8ff" d="M1048.89,-65.87C1032.81,-56.36 1006.72,-40.95 987.8,-29.77"/>
<polygon fill="#63b8ff" stroke="#63b8ff" points="989.56,-26.74 979.17,-24.67 986,-32.77 989.56,-26.74"/>
</a>
</g>
</g>
<!-- Node37&#45;&gt;Node29 -->
<g id="edge52_Node000037_Node000029" class="edge">
<title>Node37&#45;&gt;Node29</title>
<g id="a_edge52_Node000037_Node000029"><a xlink:title=" ">
<path fill="none" stroke="#63b8ff" d="M1062.76,-65.87C1062.07,-57.75 1061,-45.31 1060.11,-34.89"/>
<polygon fill="#63b8ff" stroke="#63b8ff" points="1063.58,-34.33 1059.24,-24.67 1056.61,-34.93 1063.58,-34.33"/>
</a>
</g>
</g>
<!-- Node37&#45;&gt;Node30 -->
<g id="edge51_Node000037_Node000030" class="edge">
<title>Node37&#45;&gt;Node30</title>
<g id="a_edge51_Node000037_Node000030"><a xlink:title=" ">
<path fill="none" stroke="#63b8ff" d="M1114.31,-66.91C1162.58,-59.24 1237.02,-46.22 1300.5,-30 1303.45,-29.25 1306.49,-28.4 1309.53,-27.51"/>
<polygon fill="#63b8ff" stroke="#63b8ff" points="1310.58,-30.84 1319.1,-24.55 1308.51,-24.16 1310.58,-30.84"/>
</a>
</g>
</g>
</g>
</svg>

<g id="navigator" transform="translate(0 0)" fill="#404254">
  <rect fill="#f2f5e9" fill-opacity="0.5" stroke="#606060" stroke-width=".5" x="0" y="0" width="60" height="60"/>
  <use id="zoomplus" xlink:href="#zoomPlus" x="17" y="9" onmousedown="handleZoom(evt,'in')"/>
  <use id="zoomminus" xlink:href="#zoomMin" x="42" y="9" onmousedown="handleZoom(evt,'out')"/>
  <use id="reset" xlink:href="#resetDef" x="30" y="36" onmousedown="handleReset()"/>
   <use id="arrowup" xlink:href="#arrowUp" x="0" y="0" onmousedown="handlePan(0,-1)"/>
  <use id="arrowright" xlink:href="#arrowRight" x="0" y="0" onmousedown="handlePan(1,0)"/>
  <use id="arrowdown" xlink:href="#arrowDown" x="0" y="0" onmousedown="handlePan(0,1)"/>
  <use id="arrowleft" xlink:href="#arrowLeft" x="0" y="0" onmousedown="handlePan(-1,0)"/>
</g>
<svg viewBox="0 0 15 15" width="100%" height="30px" preserveAspectRatio="xMaxYMin meet">
 <g id="arrow_out" transform="scale(0.3 0.3)">
  <a xlink:href="CompleteCasADiProblem_8hpp__incl_org.svg" target="_base">
   <rect id="button" ry="5" rx="5" y="6" x="6" height="38" width="38"
        fill="#f2f5e9" fill-opacity="0.5" stroke="#606060" stroke-width="1.0"/>
   <path id="arrow"
     d="M 11.500037,31.436501 C 11.940474,20.09759 22.043105,11.32322 32.158766,21.979434 L 37.068811,17.246167 C 37.068811,17.246167 37.088388,32 37.088388,32 L 22.160133,31.978069 C 22.160133,31.978069 26.997745,27.140456 26.997745,27.140456 C 18.528582,18.264221 13.291696,25.230495 11.500037,31.436501 z"
     style="fill:#404040;"/>
  </a>
 </g>
</svg>

<style type='text/css'>
<![CDATA[
[data-mouse-over-selected='false'] { opacity: 0.7; }
[data-mouse-over-selected='true']  { opacity: 1.0; }
]]>
</style>
<script type="application/ecmascript"><![CDATA[
document.addEventListener('DOMContentLoaded', (event) => {
  highlightEdges();
  highlightAdjacentNodes();
});
]]></script>
</svg>
