<?xml version="1.0" encoding="UTF-8" standalone="no"?>
<!DOCTYPE svg PUBLIC "-//W3C//DTD SVG 1.1//EN"
 "http://www.w3.org/Graphics/SVG/1.1/DTD/svg11.dtd">
<!-- Generated by graphviz version 2.43.0 (0)
 -->
<!-- Title: load_func Pages: 1 -->
<svg width="607pt" height="134pt"
 viewBox="0.00 0.00 607.00 134.00" xmlns="http://www.w3.org/2000/svg" xmlns:xlink="http://www.w3.org/1999/xlink">
<g id="graph0" class="graph" transform="scale(1 1) rotate(0) translate(4 130)">
<title>load_func</title>
<!-- Node1 -->
<g id="Node000001" class="node">
<title>Node1</title>
<g id="a_Node000001"><a xlink:title=" ">
<polygon fill="#999999" stroke="#666666" points="599,-72.5 535,-72.5 535,-53.5 599,-53.5 599,-72.5"/>
<text text-anchor="middle" x="567" y="-60.5" font-family="Helvetica,sans-Serif" font-size="10.00">load_func</text>
</a>
</g>
</g>
<!-- Node2 -->
<g id="Node000002" class="node">
<title>Node2</title>
<g id="a_Node000002"><a xlink:href="classalpaqa_1_1dl_1_1DLControlProblem.html#ae799884f00a1e0ac63424d489a224d67" target="_top" xlink:title="Load a problem from a shared library.">
<polygon fill="white" stroke="#666666" points="499,-126 340,-126 340,-96 499,-96 499,-126"/>
<text text-anchor="start" x="348" y="-114" font-family="Helvetica,sans-Serif" font-size="10.00">alpaqa::dl::DLControlProblem</text>
<text text-anchor="middle" x="419.5" y="-103" font-family="Helvetica,sans-Serif" font-size="10.00">::DLControlProblem</text>
</a>
</g>
</g>
<!-- Node1&#45;&gt;Node2 -->
<g id="edge1_Node000001_Node000002" class="edge">
<title>Node1&#45;&gt;Node2</title>
<g id="a_edge1_Node000001_Node000002"><a xlink:title=" ">
<path fill="none" stroke="#63b8ff" d="M530.87,-75.94C520.63,-79.61 509.4,-83.55 499,-87 489.94,-90.01 480.24,-93.08 470.86,-95.99"/>
<polygon fill="#63b8ff" stroke="#63b8ff" points="532.11,-79.21 540.33,-72.52 529.73,-72.63 532.11,-79.21"/>
</a>
</g>
</g>
<!-- Node3 -->
<g id="Node000003" class="node">
<title>Node3</title>
<g id="a_Node000003"><a xlink:href="classalpaqa_1_1dl_1_1DLProblem.html#aab4dba3b5080fca12a47b5dffd17f419" target="_top" xlink:title="Load a problem from a shared library.">
<polygon fill="white" stroke="#666666" points="481.5,-78 357.5,-78 357.5,-48 481.5,-48 481.5,-78"/>
<text text-anchor="start" x="365.5" y="-66" font-family="Helvetica,sans-Serif" font-size="10.00">alpaqa::dl::DLProblem</text>
<text text-anchor="middle" x="419.5" y="-55" font-family="Helvetica,sans-Serif" font-size="10.00">::DLProblem</text>
</a>
</g>
</g>
<!-- Node1&#45;&gt;Node3 -->
<g id="edge2_Node000001_Node000003" class="edge">
<title>Node1&#45;&gt;Node3</title>
<g id="a_edge2_Node000001_Node000003"><a xlink:title=" ">
<path fill="none" stroke="#63b8ff" d="M524.5,-63C511.15,-63 496.06,-63 481.61,-63"/>
<polygon fill="#63b8ff" stroke="#63b8ff" points="524.79,-66.5 534.79,-63 524.79,-59.5 524.79,-66.5"/>
</a>
</g>
</g>
<!-- Node4 -->
<g id="Node000004" class="node">
<title>Node4</title>
<g id="a_Node000004"><a xlink:href="structalpaqa_1_1casadi_1_1ExternalFunction.html#ace993fa3a5c98352088dbfdb46722849" target="_top" xlink:title=" ">
<polygon fill="white" stroke="#666666" points="486.5,-30 352.5,-30 352.5,0 486.5,0 486.5,-30"/>
<text text-anchor="start" x="360.5" y="-18" font-family="Helvetica,sans-Serif" font-size="10.00">alpaqa::casadi::External</text>
<text text-anchor="middle" x="419.5" y="-7" font-family="Helvetica,sans-Serif" font-size="10.00">Function::load</text>
</a>
</g>
</g>
<!-- Node1&#45;&gt;Node4 -->
<g id="edge3_Node000001_Node000004" class="edge">
<title>Node1&#45;&gt;Node4</title>
<g id="a_edge3_Node000001_Node000004"><a xlink:title=" ">
<path fill="none" stroke="#63b8ff" d="M530.87,-50.06C520.63,-46.39 509.4,-42.45 499,-39 489.94,-35.99 480.24,-32.92 470.86,-30.01"/>
<polygon fill="#63b8ff" stroke="#63b8ff" points="529.73,-53.37 540.33,-53.48 532.11,-46.79 529.73,-53.37"/>
</a>
</g>
</g>
<!-- Node5 -->
<g id="Node000005" class="node">
<title>Node5</title>
<g id="a_Node000005"><a xlink:href="classalpaqa_1_1casadi_1_1Function.html#a7c7a57080a254796931aa2752ed9ca16" target="_top" xlink:title=" ">
<polygon fill="white" stroke="#666666" points="304,-30 170,-30 170,0 304,0 304,-30"/>
<text text-anchor="start" x="178" y="-18" font-family="Helvetica,sans-Serif" font-size="10.00">alpaqa::casadi::Function</text>
<text text-anchor="middle" x="237" y="-7" font-family="Helvetica,sans-Serif" font-size="10.00">::load</text>
</a>
</g>
</g>
<!-- Node4&#45;&gt;Node5 -->
<g id="edge4_Node000004_Node000005" class="edge">
<title>Node4&#45;&gt;Node5</title>
<g id="a_edge4_Node000004_Node000005"><a xlink:title=" ">
<path fill="none" stroke="#63b8ff" d="M342.26,-15C329.6,-15 316.56,-15 304.18,-15"/>
<polygon fill="#63b8ff" stroke="#63b8ff" points="342.31,-18.5 352.31,-15 342.31,-11.5 342.31,-18.5"/>
</a>
</g>
</g>
<!-- Node6 -->
<g id="Node000006" class="node">
<title>Node6</title>
<g id="a_Node000006"><a xlink:href="classalpaqa_1_1casadi_1_1Function.html#ab254e3ce9b93c927891b62bd56da92fc" target="_top" xlink:title=" ">
<polygon fill="white" stroke="#666666" points="134,-30 0,-30 0,0 134,0 134,-30"/>
<text text-anchor="start" x="8" y="-18" font-family="Helvetica,sans-Serif" font-size="10.00">alpaqa::casadi::Function</text>
<text text-anchor="middle" x="67" y="-7" font-family="Helvetica,sans-Serif" font-size="10.00">::Function</text>
</a>
</g>
</g>
<!-- Node5&#45;&gt;Node6 -->
<g id="edge5_Node000005_Node000006" class="edge">
<title>Node5&#45;&gt;Node6</title>
<g id="a_edge5_Node000005_Node000006"><a xlink:title=" ">
<path fill="none" stroke="#63b8ff" d="M159.41,-15C150.99,-15 142.47,-15 134.19,-15"/>
<polygon fill="#63b8ff" stroke="#63b8ff" points="159.6,-18.5 169.6,-15 159.6,-11.5 159.6,-18.5"/>
</a>
</g>
</g>
</g>
</svg>
