<?xml version="1.0" encoding="UTF-8" standalone="no"?>
<!DOCTYPE svg PUBLIC "-//W3C//DTD SVG 1.1//EN"
 "http://www.w3.org/Graphics/SVG/1.1/DTD/svg11.dtd">
<!-- Generated by graphviz version 2.43.0 (0)
 -->
<!-- Title: src/interop/casadi/include/alpaqa/casadi/CasADiFunctionWrapper.hpp Pages: 1 -->
<!--zoomable 357 -->

<svg id="main" version="1.1" xmlns="http://www.w3.org/2000/svg" xmlns:xlink="http://www.w3.org/1999/xlink" xml:space="preserve" onload="init(evt)">
<style type="text/css"><![CDATA[
.node, .edge {opacity: 0.7;}
.node.selected, .edge.selected {opacity: 1;}
.edge:hover path { stroke: red; }
.edge:hover polygon { stroke: red; fill: red; }
]]></style>

<defs>
  <circle id="rim" cx="0" cy="0" r="7"/>
  <circle id="rim2" cx="0" cy="0" r="3.5"/>
  <g id="zoomPlus">
    <use xlink:href="#rim" fill="#404040"><set attributeName="fill" to="#808080" begin="zoomplus.mouseover" end="zoomplus.mouseout"/></use>
    <path d="M-4,0h8M0,-4v8" fill="none" stroke="white" stroke-width="1.5" pointer-events="none"/>
  </g>
  <g id="zoomMin">
    <use xlink:href="#rim" fill="#404040"><set attributeName="fill" to="#808080" begin="zoomminus.mouseover" end="zoomminus.mouseout"/></use>
    <path d="M-4,0h8" fill="none" stroke="white" stroke-width="1.5" pointer-events="none"/>
  </g>
  <g id="arrowUp" transform="translate(30 24)">
    <use xlink:href="#rim"/>
    <path pointer-events="none" fill="none" stroke="white" stroke-width="1.5" d="M0,-3.0v7 M-2.5,-0.5L0,-3.0L2.5,-0.5"/>
  </g>
  <g id="arrowRight" transform="rotate(90) translate(36 -43)">
    <use xlink:href="#rim"/>
    <path pointer-events="none" fill="none" stroke="white" stroke-width="1.5" d="M0,-3.0v7 M-2.5,-0.5L0,-3.0L2.5,-0.5"/>
  </g>
  <g id="arrowDown" transform="rotate(180) translate(-30 -48)">
    <use xlink:href="#rim"/>
    <path pointer-events="none" fill="none" stroke="white" stroke-width="1.5" d="M0,-3.0v7 M-2.5,-0.5L0,-3.0L2.5,-0.5"/>
  </g>
  <g id="arrowLeft" transform="rotate(270) translate(-36 17)">
    <use xlink:href="#rim"/>
    <path pointer-events="none" fill="none" stroke="white" stroke-width="1.5" d="M0,-3.0v7 M-2.5,-0.5L0,-3.0L2.5,-0.5"/>
  </g>
  <g id="resetDef">
    <use xlink:href="#rim2" fill="#404040"><set attributeName="fill" to="#808080" begin="reset.mouseover" end="reset.mouseout"/></use>
  </g>
</defs>
<script type="application/ecmascript">
var viewWidth = 1493;
var viewHeight = 357;
var sectionId = 'dynsection-0';
</script>
<script type="application/ecmascript" xlink:href="svg.min.js"/>
<svg id="graph" class="graph">
<g id="viewport">
<title>src/interop/casadi/include/alpaqa/casadi/CasADiFunctionWrapper.hpp</title>
<!-- Node1 -->
<g id="Node000001" class="node">
<title>Node1</title>
<g id="a_Node000001"><a xlink:title=" ">
<polygon fill="#999999" stroke="#666666" points="781.65,-349 623.65,-349 623.65,-308 781.65,-308 781.65,-349"/>
<text text-anchor="start" x="631.65" y="-337" font-family="Helvetica,sans-Serif" font-size="10.00">src/interop/casadi</text>
<text text-anchor="start" x="631.65" y="-326" font-family="Helvetica,sans-Serif" font-size="10.00">/include/alpaqa/casadi</text>
<text text-anchor="middle" x="702.65" y="-315" font-family="Helvetica,sans-Serif" font-size="10.00">/CasADiFunctionWrapper.hpp</text>
</a>
</g>
</g>
<!-- Node2 -->
<g id="Node000002" class="node">
<title>Node2</title>
<g id="a_Node000002"><a xlink:title=" ">
<polygon fill="#e0e0e0" stroke="#999999" points="138.15,-206 19.15,-206 19.15,-176 138.15,-176 138.15,-206"/>
<text text-anchor="start" x="27.15" y="-194" font-family="Helvetica,sans-Serif" font-size="10.00">alpaqa/casadi&#45;loader</text>
<text text-anchor="middle" x="78.65" y="-183" font-family="Helvetica,sans-Serif" font-size="10.00">&#45;export.h</text>
</a>
</g>
</g>
<!-- Node1&#45;&gt;Node2 -->
<g id="edge1_Node000001_Node000002" class="edge">
<title>Node1&#45;&gt;Node2</title>
<g id="a_edge1_Node000001_Node000002"><a xlink:title=" ">
<path fill="none" stroke="#63b8ff" d="M623.3,-318.68C549.54,-309.69 436.89,-293.95 340.65,-272 265.29,-254.81 180.02,-227.2 127.8,-209.33"/>
<polygon fill="#63b8ff" stroke="#63b8ff" points="128.72,-205.95 118.12,-206.01 126.44,-212.57 128.72,-205.95"/>
</a>
</g>
</g>
<!-- Node3 -->
<g id="Node000003" class="node">
<title>Node3</title>
<g id="a_Node000003"><a xlink:href="casadi-namespace_8hpp.html" target="_top" xlink:title=" ">
<polygon fill="white" stroke="#666666" points="947.15,-85 828.15,-85 828.15,-55 947.15,-55 947.15,-85"/>
<text text-anchor="start" x="836.15" y="-73" font-family="Helvetica,sans-Serif" font-size="10.00">alpaqa/casadi/casadi</text>
<text text-anchor="middle" x="887.65" y="-62" font-family="Helvetica,sans-Serif" font-size="10.00">&#45;namespace.hpp</text>
</a>
</g>
</g>
<!-- Node1&#45;&gt;Node3 -->
<g id="edge2_Node000001_Node000003" class="edge">
<title>Node1&#45;&gt;Node3</title>
<g id="a_edge2_Node000001_Node000003"><a xlink:title=" ">
<path fill="none" stroke="#63b8ff" d="M720.84,-307.87C730.29,-297.44 741.87,-284.26 751.65,-272 796.74,-215.5 807.04,-200.46 846.65,-140 856.52,-124.94 866.87,-107.51 874.7,-93.94"/>
<polygon fill="#63b8ff" stroke="#63b8ff" points="877.75,-95.65 879.69,-85.23 871.68,-92.17 877.75,-95.65"/>
</a>
</g>
</g>
<!-- Node4 -->
<g id="Node000004" class="node">
<title>Node4</title>
<g id="a_Node000004"><a xlink:href="config_8hpp.html" target="_top" xlink:title=" ">
<polygon fill="white" stroke="#666666" points="1286.15,-266.5 1151.15,-266.5 1151.15,-247.5 1286.15,-247.5 1286.15,-266.5"/>
<text text-anchor="middle" x="1218.65" y="-254.5" font-family="Helvetica,sans-Serif" font-size="10.00">alpaqa/config/config.hpp</text>
</a>
</g>
</g>
<!-- Node1&#45;&gt;Node4 -->
<g id="edge3_Node000001_Node000004" class="edge">
<title>Node1&#45;&gt;Node4</title>
<g id="a_edge3_Node000001_Node000004"><a xlink:title=" ">
<path fill="none" stroke="#63b8ff" d="M781.87,-316.83C880.91,-303.49 1049.12,-280.83 1145.33,-267.88"/>
<polygon fill="#63b8ff" stroke="#63b8ff" points="1145.82,-271.34 1155.26,-266.54 1144.89,-264.4 1145.82,-271.34"/>
</a>
</g>
</g>
<!-- Node11 -->
<g id="Node000011" class="node">
<title>Node11</title>
<g id="a_Node000011"><a xlink:title=" ">
<polygon fill="#e0e0e0" stroke="#999999" points="199.15,-79.5 134.15,-79.5 134.15,-60.5 199.15,-60.5 199.15,-79.5"/>
<text text-anchor="middle" x="166.65" y="-67.5" font-family="Helvetica,sans-Serif" font-size="10.00">stdexcept</text>
</a>
</g>
</g>
<!-- Node1&#45;&gt;Node11 -->
<g id="edge10_Node000001_Node000011" class="edge">
<title>Node1&#45;&gt;Node11</title>
<g id="a_edge10_Node000001_Node000011"><a xlink:title=" ">
<path fill="none" stroke="#63b8ff" d="M623.48,-326.57C457.37,-322.69 81.82,-303.12 9.65,-206 -30.68,-151.72 73.04,-104.32 130.88,-82.99"/>
<polygon fill="#63b8ff" stroke="#63b8ff" points="132.2,-86.24 140.42,-79.56 129.83,-79.65 132.2,-86.24"/>
</a>
</g>
</g>
<!-- Node12 -->
<g id="Node000012" class="node">
<title>Node12</title>
<g id="a_Node000012"><a xlink:title=" ">
<polygon fill="#e0e0e0" stroke="#999999" points="667.65,-79.5 623.65,-79.5 623.65,-60.5 667.65,-60.5 667.65,-79.5"/>
<text text-anchor="middle" x="645.65" y="-67.5" font-family="Helvetica,sans-Serif" font-size="10.00">string</text>
</a>
</g>
</g>
<!-- Node1&#45;&gt;Node12 -->
<g id="edge11_Node000001_Node000012" class="edge">
<title>Node1&#45;&gt;Node12</title>
<g id="a_edge11_Node000001_Node000012"><a xlink:title=" ">
<path fill="none" stroke="#63b8ff" d="M715.07,-307.91C732.55,-277.59 759.63,-218.38 734.65,-176 717.89,-147.55 690.93,-165.26 669.65,-140 657.55,-125.62 651.41,-104.76 648.4,-89.75"/>
<polygon fill="#63b8ff" stroke="#63b8ff" points="651.8,-88.87 646.65,-79.61 644.9,-90.06 651.8,-88.87"/>
</a>
</g>
</g>
<!-- Node13 -->
<g id="Node000013" class="node">
<title>Node13</title>
<g id="a_Node000013"><a xlink:title=" ">
<polygon fill="#e0e0e0" stroke="#999999" points="726.15,-200.5 679.15,-200.5 679.15,-181.5 726.15,-181.5 726.15,-200.5"/>
<text text-anchor="middle" x="702.65" y="-188.5" font-family="Helvetica,sans-Serif" font-size="10.00">vector</text>
</a>
</g>
</g>
<!-- Node1&#45;&gt;Node13 -->
<g id="edge12_Node000001_Node000013" class="edge">
<title>Node1&#45;&gt;Node13</title>
<g id="a_edge12_Node000001_Node000013"><a xlink:title=" ">
<path fill="none" stroke="#63b8ff" d="M702.65,-307.8C702.65,-281.83 702.65,-236.45 702.65,-210.89"/>
<polygon fill="#63b8ff" stroke="#63b8ff" points="706.15,-210.69 702.65,-200.69 699.15,-210.69 706.15,-210.69"/>
</a>
</g>
</g>
<!-- Node14 -->
<g id="Node000014" class="node">
<title>Node14</title>
<g id="a_Node000014"><a xlink:href="casadi-external-function_8hpp.html" target="_top" xlink:title=" ">
<polygon fill="white" stroke="#666666" points="475.15,-272 350.15,-272 350.15,-242 475.15,-242 475.15,-272"/>
<text text-anchor="start" x="358.15" y="-260" font-family="Helvetica,sans-Serif" font-size="10.00">alpaqa/casadi/casadi</text>
<text text-anchor="middle" x="412.65" y="-249" font-family="Helvetica,sans-Serif" font-size="10.00">&#45;external&#45;function.hpp</text>
</a>
</g>
</g>
<!-- Node1&#45;&gt;Node14 -->
<g id="edge13_Node000001_Node000014" class="edge">
<title>Node1&#45;&gt;Node14</title>
<g id="a_edge13_Node000001_Node000014"><a xlink:title=" ">
<path fill="none" stroke="#63b8ff" d="M623.41,-308.51C578.76,-297.81 523.55,-284.58 480.84,-274.34"/>
<polygon fill="#63b8ff" stroke="#63b8ff" points="481.64,-270.93 471.1,-272.01 480.01,-277.74 481.64,-270.93"/>
</a>
</g>
</g>
<!-- Node5 -->
<g id="Node000005" class="node">
<title>Node5</title>
<g id="a_Node000005"><a xlink:href="quadmath-print_8hpp.html" target="_top" xlink:title=" ">
<polygon fill="white" stroke="#666666" points="1032.15,-206 911.15,-206 911.15,-176 1032.15,-176 1032.15,-206"/>
<text text-anchor="start" x="919.15" y="-194" font-family="Helvetica,sans-Serif" font-size="10.00">alpaqa/util/quadmath</text>
<text text-anchor="middle" x="971.65" y="-183" font-family="Helvetica,sans-Serif" font-size="10.00">/quadmath&#45;print.hpp</text>
</a>
</g>
</g>
<!-- Node4&#45;&gt;Node5 -->
<g id="edge4_Node000004_Node000005" class="edge">
<title>Node4&#45;&gt;Node5</title>
<g id="a_edge4_Node000004_Node000005"><a xlink:title=" ">
<path fill="none" stroke="#63b8ff" d="M1185.6,-247.44C1147.35,-237.52 1083.48,-220.98 1035.47,-208.53"/>
<polygon fill="#63b8ff" stroke="#63b8ff" points="1036.34,-205.15 1025.78,-206.02 1034.58,-211.92 1036.34,-205.15"/>
</a>
</g>
</g>
<!-- Node6 -->
<g id="Node000006" class="node">
<title>Node6</title>
<g id="a_Node000006"><a xlink:href="quadmath_8hpp.html" target="_top" xlink:title=" ">
<polygon fill="white" stroke="#666666" points="1171.15,-206 1050.15,-206 1050.15,-176 1171.15,-176 1171.15,-206"/>
<text text-anchor="start" x="1058.15" y="-194" font-family="Helvetica,sans-Serif" font-size="10.00">alpaqa/util/quadmath</text>
<text text-anchor="middle" x="1110.65" y="-183" font-family="Helvetica,sans-Serif" font-size="10.00">/quadmath.hpp</text>
</a>
</g>
</g>
<!-- Node4&#45;&gt;Node6 -->
<g id="edge5_Node000004_Node000006" class="edge">
<title>Node4&#45;&gt;Node6</title>
<g id="a_edge5_Node000004_Node000006"><a xlink:title=" ">
<path fill="none" stroke="#63b8ff" d="M1204.09,-247.37C1188.54,-238.16 1163.4,-223.26 1143.12,-211.24"/>
<polygon fill="#63b8ff" stroke="#63b8ff" points="1144.86,-208.2 1134.47,-206.12 1141.29,-214.22 1144.86,-208.2"/>
</a>
</g>
</g>
<!-- Node7 -->
<g id="Node000007" class="node">
<title>Node7</title>
<g id="a_Node000007"><a xlink:title=" ">
<polygon fill="#e0e0e0" stroke="#999999" points="1248.15,-200.5 1189.15,-200.5 1189.15,-181.5 1248.15,-181.5 1248.15,-200.5"/>
<text text-anchor="middle" x="1218.65" y="-188.5" font-family="Helvetica,sans-Serif" font-size="10.00">complex</text>
</a>
</g>
</g>
<!-- Node4&#45;&gt;Node7 -->
<g id="edge6_Node000004_Node000007" class="edge">
<title>Node4&#45;&gt;Node7</title>
<g id="a_edge6_Node000004_Node000007"><a xlink:title=" ">
<path fill="none" stroke="#63b8ff" d="M1218.65,-247.37C1218.65,-238.16 1218.65,-223.29 1218.65,-211.27"/>
<polygon fill="#63b8ff" stroke="#63b8ff" points="1222.15,-210.91 1218.65,-200.91 1215.15,-210.91 1222.15,-210.91"/>
</a>
</g>
</g>
<!-- Node8 -->
<g id="Node000008" class="node">
<title>Node8</title>
<g id="a_Node000008"><a xlink:title=" ">
<polygon fill="#e0e0e0" stroke="#999999" points="1310.65,-200.5 1266.65,-200.5 1266.65,-181.5 1310.65,-181.5 1310.65,-200.5"/>
<text text-anchor="middle" x="1288.65" y="-188.5" font-family="Helvetica,sans-Serif" font-size="10.00">limits</text>
</a>
</g>
</g>
<!-- Node4&#45;&gt;Node8 -->
<g id="edge7_Node000004_Node000008" class="edge">
<title>Node4&#45;&gt;Node8</title>
<g id="a_edge7_Node000004_Node000008"><a xlink:title=" ">
<path fill="none" stroke="#63b8ff" d="M1228.09,-247.37C1239.2,-237.21 1257.86,-220.16 1271.53,-207.65"/>
<polygon fill="#63b8ff" stroke="#63b8ff" points="1273.9,-210.24 1278.91,-200.91 1269.17,-205.07 1273.9,-210.24"/>
</a>
</g>
</g>
<!-- Node9 -->
<g id="Node000009" class="node">
<title>Node9</title>
<g id="a_Node000009"><a xlink:title=" ">
<polygon fill="#e0e0e0" stroke="#999999" points="1398.15,-200.5 1329.15,-200.5 1329.15,-181.5 1398.15,-181.5 1398.15,-200.5"/>
<text text-anchor="middle" x="1363.65" y="-188.5" font-family="Helvetica,sans-Serif" font-size="10.00">type_traits</text>
</a>
</g>
</g>
<!-- Node4&#45;&gt;Node9 -->
<g id="edge8_Node000004_Node000009" class="edge">
<title>Node4&#45;&gt;Node9</title>
<g id="a_edge8_Node000004_Node000009"><a xlink:title=" ">
<path fill="none" stroke="#63b8ff" d="M1238.21,-247.37C1262.97,-236.44 1305.83,-217.52 1334.46,-204.88"/>
<polygon fill="#63b8ff" stroke="#63b8ff" points="1336.21,-207.94 1343.95,-200.7 1333.38,-201.54 1336.21,-207.94"/>
</a>
</g>
</g>
<!-- Node10 -->
<g id="Node000010" class="node">
<title>Node10</title>
<g id="a_Node000010"><a xlink:title=" ">
<polygon fill="#e0e0e0" stroke="#999999" points="1485.15,-200.5 1416.15,-200.5 1416.15,-181.5 1485.15,-181.5 1485.15,-200.5"/>
<text text-anchor="middle" x="1450.65" y="-188.5" font-family="Helvetica,sans-Serif" font-size="10.00">Eigen/Core</text>
</a>
</g>
</g>
<!-- Node4&#45;&gt;Node10 -->
<g id="edge9_Node000004_Node000010" class="edge">
<title>Node4&#45;&gt;Node10</title>
<g id="a_edge9_Node000004_Node000010"><a xlink:title=" ">
<path fill="none" stroke="#63b8ff" d="M1253.3,-247.45C1291.33,-237.93 1354.1,-221.79 1407.65,-206 1410.25,-205.24 1412.92,-204.42 1415.61,-203.59"/>
<polygon fill="#63b8ff" stroke="#63b8ff" points="1416.79,-206.89 1425.26,-200.53 1414.67,-200.21 1416.79,-206.89"/>
</a>
</g>
</g>
<!-- Node14&#45;&gt;Node2 -->
<g id="edge14_Node000014_Node000002" class="edge">
<title>Node14&#45;&gt;Node2</title>
<g id="a_edge14_Node000014_Node000002"><a xlink:title=" ">
<path fill="none" stroke="#63b8ff" d="M349.83,-243.96C292.49,-232.97 207.87,-216.76 148.44,-205.37"/>
<polygon fill="#63b8ff" stroke="#63b8ff" points="148.87,-201.89 138.39,-203.45 147.55,-208.77 148.87,-201.89"/>
</a>
</g>
</g>
<!-- Node14&#45;&gt;Node3 -->
<g id="edge31_Node000014_Node000003" class="edge">
<title>Node14&#45;&gt;Node3</title>
<g id="a_edge31_Node000014_Node000003"><a xlink:title=" ">
<path fill="none" stroke="#63b8ff" d="M475.46,-244.56C515.73,-236.21 568.69,-223.33 613.65,-206 640,-195.85 643.27,-186.04 669.65,-176 733.73,-151.61 759.96,-173.72 819.65,-140 840.29,-128.35 858.81,-108.62 871.29,-93.23"/>
<polygon fill="#63b8ff" stroke="#63b8ff" points="874.16,-95.24 877.58,-85.21 868.66,-90.92 874.16,-95.24"/>
</a>
</g>
</g>
<!-- Node14&#45;&gt;Node11 -->
<g id="edge36_Node000014_Node000011" class="edge">
<title>Node14&#45;&gt;Node11</title>
<g id="a_edge36_Node000014_Node000011"><a xlink:title=" ">
<path fill="none" stroke="#63b8ff" d="M350.02,-247.14C298.82,-238.7 231.72,-224.56 211.65,-206 178.35,-175.2 169.67,-119.13 167.43,-89.88"/>
<polygon fill="#63b8ff" stroke="#63b8ff" points="170.91,-89.55 166.83,-79.78 163.92,-89.97 170.91,-89.55"/>
</a>
</g>
</g>
<!-- Node14&#45;&gt;Node13 -->
<g id="edge38_Node000014_Node000013" class="edge">
<title>Node14&#45;&gt;Node13</title>
<g id="a_edge38_Node000014_Node000013"><a xlink:title=" ">
<path fill="none" stroke="#63b8ff" d="M475.18,-246.41C526.56,-237.85 601,-223.92 664.65,-206 666.94,-205.36 669.28,-204.64 671.63,-203.88"/>
<polygon fill="#63b8ff" stroke="#63b8ff" points="672.84,-207.17 681.14,-200.59 670.55,-200.55 672.84,-207.17"/>
</a>
</g>
</g>
<!-- Node15 -->
<g id="Node000015" class="node">
<title>Node15</title>
<g id="a_Node000015"><a xlink:href="dl-flags_8hpp.html" target="_top" xlink:title=" ">
<polygon fill="white" stroke="#666666" points="405.65,-79.5 277.65,-79.5 277.65,-60.5 405.65,-60.5 405.65,-79.5"/>
<text text-anchor="middle" x="341.65" y="-67.5" font-family="Helvetica,sans-Serif" font-size="10.00">alpaqa/util/dl&#45;flags.hpp</text>
</a>
</g>
</g>
<!-- Node14&#45;&gt;Node15 -->
<g id="edge15_Node000014_Node000015" class="edge">
<title>Node14&#45;&gt;Node15</title>
<g id="a_edge15_Node000014_Node000015"><a xlink:title=" ">
<path fill="none" stroke="#63b8ff" d="M349.78,-247.68C300.99,-239.78 239.13,-226.1 223.65,-206 187.67,-159.25 269.63,-107.73 314.63,-84.13"/>
<polygon fill="#63b8ff" stroke="#63b8ff" points="316.31,-87.2 323.62,-79.52 313.12,-80.97 316.31,-87.2"/>
</a>
</g>
</g>
<!-- Node17 -->
<g id="Node000017" class="node">
<title>Node17</title>
<g id="a_Node000017"><a xlink:href="casadi-functions_8hpp.html" target="_top" xlink:title=" ">
<polygon fill="white" stroke="#666666" points="584.65,-200.5 466.65,-200.5 466.65,-181.5 584.65,-181.5 584.65,-200.5"/>
<text text-anchor="middle" x="525.65" y="-188.5" font-family="Helvetica,sans-Serif" font-size="10.00">casadi&#45;functions.hpp</text>
</a>
</g>
</g>
<!-- Node14&#45;&gt;Node17 -->
<g id="edge17_Node000014_Node000017" class="edge">
<title>Node14&#45;&gt;Node17</title>
<g id="a_edge17_Node000014_Node000017"><a xlink:title=" ">
<path fill="none" stroke="#63b8ff" d="M437.45,-241.95C456.57,-231.13 482.85,-216.24 501.74,-205.54"/>
<polygon fill="#63b8ff" stroke="#63b8ff" points="503.64,-208.49 510.62,-200.52 500.19,-202.4 503.64,-208.49"/>
</a>
</g>
</g>
<!-- Node23 -->
<g id="Node000023" class="node">
<title>Node23</title>
<g id="a_Node000023"><a xlink:title=" ">
<polygon fill="#e0e0e0" stroke="#999999" points="605.65,-79.5 547.65,-79.5 547.65,-60.5 605.65,-60.5 605.65,-79.5"/>
<text text-anchor="middle" x="576.65" y="-67.5" font-family="Helvetica,sans-Serif" font-size="10.00">memory</text>
</a>
</g>
</g>
<!-- Node14&#45;&gt;Node23 -->
<g id="edge33_Node000014_Node000023" class="edge">
<title>Node14&#45;&gt;Node23</title>
<g id="a_edge33_Node000014_Node000023"><a xlink:title=" ">
<path fill="none" stroke="#63b8ff" d="M475.26,-246.89C521.61,-238.72 579.14,-225.07 593.65,-206 620.03,-171.35 599.6,-116.59 586.1,-88.66"/>
<polygon fill="#63b8ff" stroke="#63b8ff" points="589.19,-87 581.54,-79.67 582.94,-90.17 589.19,-87"/>
</a>
</g>
</g>
<!-- Node24 -->
<g id="Node000024" class="node">
<title>Node24</title>
<g id="a_Node000024"><a xlink:title=" ">
<polygon fill="#e0e0e0" stroke="#999999" points="456.65,-140 404.65,-140 404.65,-121 456.65,-121 456.65,-140"/>
<text text-anchor="middle" x="430.65" y="-128" font-family="Helvetica,sans-Serif" font-size="10.00">cassert</text>
</a>
</g>
</g>
<!-- Node14&#45;&gt;Node24 -->
<g id="edge32_Node000014_Node000024" class="edge">
<title>Node14&#45;&gt;Node24</title>
<g id="a_edge32_Node000014_Node000024"><a xlink:title=" ">
<path fill="none" stroke="#63b8ff" d="M414.72,-241.72C417.99,-219.12 424.35,-175.12 427.97,-150.09"/>
<polygon fill="#63b8ff" stroke="#63b8ff" points="431.45,-150.47 429.42,-140.07 424.52,-149.47 431.45,-150.47"/>
</a>
</g>
</g>
<!-- Node25 -->
<g id="Node000025" class="node">
<title>Node25</title>
<g id="a_Node000025"><a xlink:title=" ">
<polygon fill="#e0e0e0" stroke="#999999" points="288.65,-200.5 232.65,-200.5 232.65,-181.5 288.65,-181.5 288.65,-200.5"/>
<text text-anchor="middle" x="260.65" y="-188.5" font-family="Helvetica,sans-Serif" font-size="10.00">optional</text>
</a>
</g>
</g>
<!-- Node14&#45;&gt;Node25 -->
<g id="edge34_Node000014_Node000025" class="edge">
<title>Node14&#45;&gt;Node25</title>
<g id="a_edge34_Node000014_Node000025"><a xlink:title=" ">
<path fill="none" stroke="#63b8ff" d="M379.3,-241.95C352.76,-230.78 315.96,-215.29 290.41,-204.53"/>
<polygon fill="#63b8ff" stroke="#63b8ff" points="291.46,-201.17 280.88,-200.52 288.74,-207.62 291.46,-201.17"/>
</a>
</g>
</g>
<!-- Node26 -->
<g id="Node000026" class="node">
<title>Node26</title>
<g id="a_Node000026"><a xlink:title=" ">
<polygon fill="#e0e0e0" stroke="#999999" points="346.65,-200.5 306.65,-200.5 306.65,-181.5 346.65,-181.5 346.65,-200.5"/>
<text text-anchor="middle" x="326.65" y="-188.5" font-family="Helvetica,sans-Serif" font-size="10.00">span</text>
</a>
</g>
</g>
<!-- Node14&#45;&gt;Node26 -->
<g id="edge35_Node000014_Node000026" class="edge">
<title>Node14&#45;&gt;Node26</title>
<g id="a_edge35_Node000014_Node000026"><a xlink:title=" ">
<path fill="none" stroke="#63b8ff" d="M393.57,-241.8C379.63,-231.43 360.79,-217.4 346.65,-206.88"/>
<polygon fill="#63b8ff" stroke="#63b8ff" points="348.65,-204.01 338.54,-200.84 344.47,-209.62 348.65,-204.01"/>
</a>
</g>
</g>
<!-- Node27 -->
<g id="Node000027" class="node">
<title>Node27</title>
<g id="a_Node000027"><a xlink:title=" ">
<polygon fill="#e0e0e0" stroke="#999999" points="410.15,-200.5 365.15,-200.5 365.15,-181.5 410.15,-181.5 410.15,-200.5"/>
<text text-anchor="middle" x="387.65" y="-188.5" font-family="Helvetica,sans-Serif" font-size="10.00">utility</text>
</a>
</g>
</g>
<!-- Node14&#45;&gt;Node27 -->
<g id="edge37_Node000014_Node000027" class="edge">
<title>Node14&#45;&gt;Node27</title>
<g id="a_edge37_Node000014_Node000027"><a xlink:title=" ">
<path fill="none" stroke="#63b8ff" d="M407.11,-241.8C403.48,-232.5 398.7,-220.27 394.79,-210.26"/>
<polygon fill="#63b8ff" stroke="#63b8ff" points="398.01,-208.89 391.11,-200.84 391.49,-211.43 398.01,-208.89"/>
</a>
</g>
</g>
<!-- Node16 -->
<g id="Node000016" class="node">
<title>Node16</title>
<g id="a_Node000016"><a xlink:title=" ">
<polygon fill="#e0e0e0" stroke="#999999" points="477.15,-19 384.15,-19 384.15,0 477.15,0 477.15,-19"/>
<text text-anchor="middle" x="430.65" y="-7" font-family="Helvetica,sans-Serif" font-size="10.00">alpaqa/export.h</text>
</a>
</g>
</g>
<!-- Node15&#45;&gt;Node16 -->
<g id="edge16_Node000015_Node000016" class="edge">
<title>Node15&#45;&gt;Node16</title>
<g id="a_edge16_Node000015_Node000016"><a xlink:title=" ">
<path fill="none" stroke="#63b8ff" d="M354.79,-60.37C368.98,-51.04 391.85,-36.01 408.77,-24.88"/>
<polygon fill="#63b8ff" stroke="#63b8ff" points="411.03,-27.58 417.47,-19.17 407.19,-21.74 411.03,-27.58"/>
</a>
</g>
</g>
<!-- Node17&#45;&gt;Node3 -->
<g id="edge18_Node000017_Node000003" class="edge">
<title>Node17&#45;&gt;Node3</title>
<g id="a_edge18_Node000017_Node000003"><a xlink:title=" ">
<path fill="none" stroke="#63b8ff" d="M584.82,-181.62C650.45,-171.81 751.82,-154.99 787.65,-140 816.13,-128.09 844.73,-107.24 864,-91.58"/>
<polygon fill="#63b8ff" stroke="#63b8ff" points="866.46,-94.09 871.92,-85.01 861.99,-88.7 866.46,-94.09"/>
</a>
</g>
</g>
<!-- Node18 -->
<g id="Node000018" class="node">
<title>Node18</title>
<g id="a_Node000018"><a xlink:href="casadi-types_8hpp.html" target="_top" xlink:title=" ">
<polygon fill="white" stroke="#666666" points="778.65,-140 678.65,-140 678.65,-121 778.65,-121 778.65,-140"/>
<text text-anchor="middle" x="728.65" y="-128" font-family="Helvetica,sans-Serif" font-size="10.00">casadi&#45;types.hpp</text>
</a>
</g>
</g>
<!-- Node17&#45;&gt;Node18 -->
<g id="edge19_Node000017_Node000018" class="edge">
<title>Node17&#45;&gt;Node18</title>
<g id="a_edge19_Node000017_Node000018"><a xlink:title=" ">
<path fill="none" stroke="#63b8ff" d="M555.17,-181.49C590.58,-171.29 650.06,-154.15 689.33,-142.83"/>
<polygon fill="#63b8ff" stroke="#63b8ff" points="690.46,-146.15 699.1,-140.02 688.52,-139.42 690.46,-146.15"/>
</a>
</g>
</g>
<!-- Node21 -->
<g id="Node000021" class="node">
<title>Node21</title>
<g id="a_Node000021"><a xlink:href="dl_8hpp.html" target="_top" xlink:title=" ">
<polygon fill="white" stroke="#666666" points="576.15,-140 475.15,-140 475.15,-121 576.15,-121 576.15,-140"/>
<text text-anchor="middle" x="525.65" y="-128" font-family="Helvetica,sans-Serif" font-size="10.00">alpaqa/util/dl.hpp</text>
</a>
</g>
</g>
<!-- Node17&#45;&gt;Node21 -->
<g id="edge24_Node000017_Node000021" class="edge">
<title>Node17&#45;&gt;Node21</title>
<g id="a_edge24_Node000017_Node000021"><a xlink:title=" ">
<path fill="none" stroke="#63b8ff" d="M525.65,-181.37C525.65,-173.25 525.65,-160.81 525.65,-150.39"/>
<polygon fill="#63b8ff" stroke="#63b8ff" points="529.15,-150.17 525.65,-140.17 522.15,-150.17 529.15,-150.17"/>
</a>
</g>
</g>
<!-- Node17&#45;&gt;Node24 -->
<g id="edge30_Node000017_Node000024" class="edge">
<title>Node17&#45;&gt;Node24</title>
<g id="a_edge30_Node000017_Node000024"><a xlink:title=" ">
<path fill="none" stroke="#63b8ff" d="M511.64,-181.37C496.34,-171.95 471.62,-156.73 453.51,-145.58"/>
<polygon fill="#63b8ff" stroke="#63b8ff" points="455.08,-142.43 444.73,-140.17 451.41,-148.39 455.08,-142.43"/>
</a>
</g>
</g>
<!-- Node18&#45;&gt;Node3 -->
<g id="edge23_Node000018_Node000003" class="edge">
<title>Node18&#45;&gt;Node3</title>
<g id="a_edge23_Node000018_Node000003"><a xlink:title=" ">
<path fill="none" stroke="#63b8ff" d="M751.77,-120.99C774.76,-112.54 810.69,-99.32 839.83,-88.59"/>
<polygon fill="#63b8ff" stroke="#63b8ff" points="841.25,-91.8 849.43,-85.06 838.83,-85.23 841.25,-91.8"/>
</a>
</g>
</g>
<!-- Node18&#45;&gt;Node12 -->
<g id="edge22_Node000018_Node000012" class="edge">
<title>Node18&#45;&gt;Node12</title>
<g id="a_edge22_Node000018_Node000012"><a xlink:title=" ">
<path fill="none" stroke="#63b8ff" d="M716.41,-120.87C703.29,-111.62 682.24,-96.78 666.5,-85.69"/>
<polygon fill="#63b8ff" stroke="#63b8ff" points="668.14,-82.57 657.95,-79.67 664.11,-88.29 668.14,-82.57"/>
</a>
</g>
</g>
<!-- Node19 -->
<g id="Node000019" class="node">
<title>Node19</title>
<g id="a_Node000019"><a xlink:title=" ">
<polygon fill="#e0e0e0" stroke="#999999" points="749.65,-79.5 685.65,-79.5 685.65,-60.5 749.65,-60.5 749.65,-79.5"/>
<text text-anchor="middle" x="717.65" y="-67.5" font-family="Helvetica,sans-Serif" font-size="10.00">algorithm</text>
</a>
</g>
</g>
<!-- Node18&#45;&gt;Node19 -->
<g id="edge20_Node000018_Node000019" class="edge">
<title>Node18&#45;&gt;Node19</title>
<g id="a_edge20_Node000018_Node000019"><a xlink:title=" ">
<path fill="none" stroke="#63b8ff" d="M727.03,-120.87C725.49,-112.66 723.12,-100.04 721.14,-89.55"/>
<polygon fill="#63b8ff" stroke="#63b8ff" points="724.57,-88.85 719.28,-79.67 717.69,-90.14 724.57,-88.85"/>
</a>
</g>
</g>
<!-- Node20 -->
<g id="Node000020" class="node">
<title>Node20</title>
<g id="a_Node000020"><a xlink:title=" ">
<polygon fill="#e0e0e0" stroke="#999999" points="809.65,-79.5 767.65,-79.5 767.65,-60.5 809.65,-60.5 809.65,-79.5"/>
<text text-anchor="middle" x="788.65" y="-67.5" font-family="Helvetica,sans-Serif" font-size="10.00">array</text>
</a>
</g>
</g>
<!-- Node18&#45;&gt;Node20 -->
<g id="edge21_Node000018_Node000020" class="edge">
<title>Node18&#45;&gt;Node20</title>
<g id="a_edge21_Node000018_Node000020"><a xlink:title=" ">
<path fill="none" stroke="#63b8ff" d="M737.51,-120.87C746.64,-111.97 761.08,-97.89 772.29,-86.95"/>
<polygon fill="#63b8ff" stroke="#63b8ff" points="775.05,-89.15 779.76,-79.67 770.16,-84.14 775.05,-89.15"/>
</a>
</g>
</g>
<!-- Node21&#45;&gt;Node11 -->
<g id="edge29_Node000021_Node000011" class="edge">
<title>Node21&#45;&gt;Node11</title>
<g id="a_edge29_Node000021_Node000011"><a xlink:title=" ">
<path fill="none" stroke="#63b8ff" d="M474.98,-121.24C403.98,-109.67 276.14,-88.84 209.58,-77.99"/>
<polygon fill="#63b8ff" stroke="#63b8ff" points="209.87,-74.5 199.44,-76.34 208.75,-81.41 209.87,-74.5"/>
</a>
</g>
</g>
<!-- Node21&#45;&gt;Node15 -->
<g id="edge26_Node000021_Node000015" class="edge">
<title>Node21&#45;&gt;Node15</title>
<g id="a_edge26_Node000021_Node000015"><a xlink:title=" ">
<path fill="none" stroke="#63b8ff" d="M498.9,-120.99C467.01,-110.86 413.58,-93.87 377.98,-82.55"/>
<polygon fill="#63b8ff" stroke="#63b8ff" points="379.03,-79.21 368.44,-79.52 376.91,-85.88 379.03,-79.21"/>
</a>
</g>
</g>
<!-- Node21&#45;&gt;Node16 -->
<g id="edge25_Node000021_Node000016" class="edge">
<title>Node21&#45;&gt;Node16</title>
<g id="a_edge25_Node000021_Node000016"><a xlink:title=" ">
<path fill="none" stroke="#63b8ff" d="M524.65,-120.8C522.54,-105.91 516.46,-75.2 500.65,-55 490.2,-41.64 474.54,-31.15 460.68,-23.72"/>
<polygon fill="#63b8ff" stroke="#63b8ff" points="461.97,-20.45 451.46,-19.07 458.81,-26.7 461.97,-20.45"/>
</a>
</g>
</g>
<!-- Node22 -->
<g id="Node000022" class="node">
<title>Node22</title>
<g id="a_Node000022"><a xlink:title=" ">
<polygon fill="#e0e0e0" stroke="#999999" points="491.65,-79.5 423.65,-79.5 423.65,-60.5 491.65,-60.5 491.65,-79.5"/>
<text text-anchor="middle" x="457.65" y="-67.5" font-family="Helvetica,sans-Serif" font-size="10.00">filesystem</text>
</a>
</g>
</g>
<!-- Node21&#45;&gt;Node22 -->
<g id="edge27_Node000021_Node000022" class="edge">
<title>Node21&#45;&gt;Node22</title>
<g id="a_edge27_Node000021_Node000022"><a xlink:title=" ">
<path fill="none" stroke="#63b8ff" d="M515.62,-120.87C505.07,-111.8 488.27,-97.34 475.46,-86.32"/>
<polygon fill="#63b8ff" stroke="#63b8ff" points="477.59,-83.54 467.73,-79.67 473.03,-88.84 477.59,-83.54"/>
</a>
</g>
</g>
<!-- Node21&#45;&gt;Node23 -->
<g id="edge28_Node000021_Node000023" class="edge">
<title>Node21&#45;&gt;Node23</title>
<g id="a_edge28_Node000021_Node000023"><a xlink:title=" ">
<path fill="none" stroke="#63b8ff" d="M533.18,-120.87C540.86,-112.05 552.98,-98.16 562.47,-87.27"/>
<polygon fill="#63b8ff" stroke="#63b8ff" points="565.16,-89.51 569.1,-79.67 559.89,-84.91 565.16,-89.51"/>
</a>
</g>
</g>
</g>
</svg>

<g id="navigator" transform="translate(0 0)" fill="#404254">
  <rect fill="#f2f5e9" fill-opacity="0.5" stroke="#606060" stroke-width=".5" x="0" y="0" width="60" height="60"/>
  <use id="zoomplus" xlink:href="#zoomPlus" x="17" y="9" onmousedown="handleZoom(evt,'in')"/>
  <use id="zoomminus" xlink:href="#zoomMin" x="42" y="9" onmousedown="handleZoom(evt,'out')"/>
  <use id="reset" xlink:href="#resetDef" x="30" y="36" onmousedown="handleReset()"/>
   <use id="arrowup" xlink:href="#arrowUp" x="0" y="0" onmousedown="handlePan(0,-1)"/>
  <use id="arrowright" xlink:href="#arrowRight" x="0" y="0" onmousedown="handlePan(1,0)"/>
  <use id="arrowdown" xlink:href="#arrowDown" x="0" y="0" onmousedown="handlePan(0,1)"/>
  <use id="arrowleft" xlink:href="#arrowLeft" x="0" y="0" onmousedown="handlePan(-1,0)"/>
</g>
<svg viewBox="0 0 15 15" width="100%" height="30px" preserveAspectRatio="xMaxYMin meet">
 <g id="arrow_out" transform="scale(0.3 0.3)">
  <a xlink:href="CasADiFunctionWrapper_8hpp__incl_org.svg" target="_base">
   <rect id="button" ry="5" rx="5" y="6" x="6" height="38" width="38"
        fill="#f2f5e9" fill-opacity="0.5" stroke="#606060" stroke-width="1.0"/>
   <path id="arrow"
     d="M 11.500037,31.436501 C 11.940474,20.09759 22.043105,11.32322 32.158766,21.979434 L 37.068811,17.246167 C 37.068811,17.246167 37.088388,32 37.088388,32 L 22.160133,31.978069 C 22.160133,31.978069 26.997745,27.140456 26.997745,27.140456 C 18.528582,18.264221 13.291696,25.230495 11.500037,31.436501 z"
     style="fill:#404040;"/>
  </a>
 </g>
</svg>

<style type='text/css'>
<![CDATA[
[data-mouse-over-selected='false'] { opacity: 0.7; }
[data-mouse-over-selected='true']  { opacity: 1.0; }
]]>
</style>
<script type="application/ecmascript"><![CDATA[
document.addEventListener('DOMContentLoaded', (event) => {
  highlightEdges();
  highlightAdjacentNodes();
});
]]></script>
</svg>
