<?xml version="1.0" encoding="UTF-8" standalone="no"?>
<!DOCTYPE svg PUBLIC "-//W3C//DTD SVG 1.1//EN"
 "http://www.w3.org/Graphics/SVG/1.1/DTD/svg11.dtd">
<!-- Generated by graphviz version 2.43.0 (0)
 -->
<!-- Title: IpoptAdapter Pages: 1 -->
<svg width="149pt" height="423pt"
 viewBox="0.00 0.00 149.00 423.00" xmlns="http://www.w3.org/2000/svg" xmlns:xlink="http://www.w3.org/1999/xlink">

<svg id="main" version="1.1" xmlns="http://www.w3.org/2000/svg" xmlns:xlink="http://www.w3.org/1999/xlink" xml:space="preserve" onload="init(evt)">
<style type="text/css"><![CDATA[
.node, .edge {opacity: 0.7;}
.node.selected, .edge.selected {opacity: 1;}
.edge:hover path { stroke: red; }
.edge:hover polygon { stroke: red; fill: red; }
]]></style>
<script type="application/ecmascript" xlink:href="svg.min.js"/>
<svg id="graph" class="graph">
<g id="graph0" class="graph" transform="scale(1 1) rotate(0) translate(4 419)">
<title>IpoptAdapter</title>
<!-- Node1 -->
<g id="Node000001" class="node">
<title>Node1</title>
<g id="a_Node000001"><a xlink:title="Based on https://coin&#45;or.github.io/Ipopt/INTERFACES.html.">
<polygon fill="#999999" stroke="transparent" points="141,-330 0,-330 0,0 141,0 141,-330"/>
<text text-anchor="start" x="39" y="-318" font-family="Helvetica,sans-Serif" font-size="10.00">IpoptAdapter</text>
<text text-anchor="start" x="4.5" y="-303" font-family="Helvetica,sans-Serif" font-size="10.00">+</text>
<text text-anchor="start" x="17.5" y="-303" font-family="Helvetica,sans-Serif" font-size="10.00">problem</text>
<text text-anchor="start" x="4.5" y="-288" font-family="Helvetica,sans-Serif" font-size="10.00">+</text>
<text text-anchor="start" x="17.5" y="-288" font-family="Helvetica,sans-Serif" font-size="10.00">initial_guess</text>
<text text-anchor="start" x="4.5" y="-273" font-family="Helvetica,sans-Serif" font-size="10.00">+</text>
<text text-anchor="start" x="17.5" y="-273" font-family="Helvetica,sans-Serif" font-size="10.00">initial_guess_bounds</text>
<text text-anchor="start" x="17.5" y="-262" font-family="Helvetica,sans-Serif" font-size="10.00">_multipliers</text>
<text text-anchor="start" x="4.5" y="-247" font-family="Helvetica,sans-Serif" font-size="10.00">+</text>
<text text-anchor="start" x="17.5" y="-247" font-family="Helvetica,sans-Serif" font-size="10.00">initial_guess_multipliers</text>
<text text-anchor="start" x="4.5" y="-232" font-family="Helvetica,sans-Serif" font-size="10.00">+</text>
<text text-anchor="start" x="17.5" y="-232" font-family="Helvetica,sans-Serif" font-size="10.00">results</text>
<text text-anchor="start" x="7" y="-217" font-family="Helvetica,sans-Serif" font-size="10.00">&#45;</text>
<text text-anchor="start" x="17.5" y="-217" font-family="Helvetica,sans-Serif" font-size="10.00">orig_sparsity_jac_g</text>
<text text-anchor="start" x="7" y="-202" font-family="Helvetica,sans-Serif" font-size="10.00">&#45;</text>
<text text-anchor="start" x="17.5" y="-202" font-family="Helvetica,sans-Serif" font-size="10.00">orig_sparsity_hess_L</text>
<text text-anchor="start" x="7" y="-187" font-family="Helvetica,sans-Serif" font-size="10.00">&#45;</text>
<text text-anchor="start" x="17.5" y="-187" font-family="Helvetica,sans-Serif" font-size="10.00">cvt_sparsity_jac_g</text>
<text text-anchor="start" x="7" y="-172" font-family="Helvetica,sans-Serif" font-size="10.00">&#45;</text>
<text text-anchor="start" x="17.5" y="-172" font-family="Helvetica,sans-Serif" font-size="10.00">cvt_sparsity_hess_L</text>
<text text-anchor="start" x="4.5" y="-157" font-family="Helvetica,sans-Serif" font-size="10.00">+</text>
<text text-anchor="start" x="17.5" y="-157" font-family="Helvetica,sans-Serif" font-size="10.00">IpoptAdapter()</text>
<text text-anchor="start" x="4.5" y="-142" font-family="Helvetica,sans-Serif" font-size="10.00">+</text>
<text text-anchor="start" x="17.5" y="-142" font-family="Helvetica,sans-Serif" font-size="10.00">IpoptAdapter()</text>
<text text-anchor="start" x="6" y="-127" font-family="Helvetica,sans-Serif" font-size="10.00">*</text>
<text text-anchor="start" x="17.5" y="-127" font-family="Helvetica,sans-Serif" font-size="10.00">get_nlp_info()</text>
<text text-anchor="start" x="6" y="-112" font-family="Helvetica,sans-Serif" font-size="10.00">*</text>
<text text-anchor="start" x="17.5" y="-112" font-family="Helvetica,sans-Serif" font-size="10.00">get_bounds_info()</text>
<text text-anchor="start" x="6" y="-97" font-family="Helvetica,sans-Serif" font-size="10.00">*</text>
<text text-anchor="start" x="17.5" y="-97" font-family="Helvetica,sans-Serif" font-size="10.00">get_starting_point()</text>
<text text-anchor="start" x="6" y="-82" font-family="Helvetica,sans-Serif" font-size="10.00">*</text>
<text text-anchor="start" x="17.5" y="-82" font-family="Helvetica,sans-Serif" font-size="10.00">eval_f()</text>
<text text-anchor="start" x="6" y="-67" font-family="Helvetica,sans-Serif" font-size="10.00">*</text>
<text text-anchor="start" x="17.5" y="-67" font-family="Helvetica,sans-Serif" font-size="10.00">eval_grad_f()</text>
<text text-anchor="start" x="6" y="-52" font-family="Helvetica,sans-Serif" font-size="10.00">*</text>
<text text-anchor="start" x="17.5" y="-52" font-family="Helvetica,sans-Serif" font-size="10.00">eval_g()</text>
<text text-anchor="start" x="6" y="-37" font-family="Helvetica,sans-Serif" font-size="10.00">*</text>
<text text-anchor="start" x="17.5" y="-37" font-family="Helvetica,sans-Serif" font-size="10.00">eval_jac_g()</text>
<text text-anchor="start" x="6" y="-22" font-family="Helvetica,sans-Serif" font-size="10.00">*</text>
<text text-anchor="start" x="17.5" y="-22" font-family="Helvetica,sans-Serif" font-size="10.00">eval_h()</text>
<text text-anchor="start" x="6" y="-7" font-family="Helvetica,sans-Serif" font-size="10.00">*</text>
<text text-anchor="start" x="17.5" y="-7" font-family="Helvetica,sans-Serif" font-size="10.00">finalize_solution()</text>
<polygon fill="#666666" stroke="#666666" points="0.5,-313 0.5,-313 141.5,-313 141.5,-313 0.5,-313"/>
<polygon fill="#666666" stroke="#666666" points="0.5,-167 0.5,-167 15.5,-167 15.5,-167 0.5,-167"/>
<polygon fill="#666666" stroke="#666666" points="15.5,-167 15.5,-167 141.5,-167 141.5,-167 15.5,-167"/>
<polygon fill="none" stroke="#666666" points="0,0 0,-330 141,-330 141,0 0,0"/>
</a>
</g>
</g>
<!-- Node2 -->
<g id="Node000002" class="node">
<title>Node2</title>
<g id="a_Node000002"><a xlink:title=" ">
<polygon fill="white" stroke="transparent" points="88,-415 53,-415 53,-366 88,-366 88,-415"/>
<text text-anchor="start" x="58.5" y="-402.5" font-family="Helvetica,sans-Serif" font-size="10.00">TNLP</text>
<text text-anchor="start" x="69" y="-387.5" font-family="Helvetica,sans-Serif" font-size="10.00"> </text>
<text text-anchor="start" x="69" y="-372.5" font-family="Helvetica,sans-Serif" font-size="10.00"> </text>
<polygon fill="#666666" stroke="#666666" points="53.5,-397.5 53.5,-397.5 88.5,-397.5 88.5,-397.5 53.5,-397.5"/>
<polygon fill="#666666" stroke="#666666" points="53.5,-382.5 53.5,-382.5 88.5,-382.5 88.5,-382.5 53.5,-382.5"/>
<polygon fill="none" stroke="#666666" points="53,-366 53,-415 88,-415 88,-366 53,-366"/>
</a>
</g>
</g>
<!-- Node2&#45;&gt;Node1 -->
<g id="edge1_Node000001_Node000002" class="edge">
<title>Node2&#45;&gt;Node1</title>
<g id="a_edge1_Node000001_Node000002"><a xlink:title=" ">
<path fill="none" stroke="#63b8ff" d="M70.5,-355.45C70.5,-347.81 70.5,-339.21 70.5,-330"/>
<polygon fill="none" stroke="#63b8ff" points="67,-355.58 70.5,-365.58 74,-355.58 67,-355.58"/>
</a>
</g>
</g>
</g>
</svg>
</svg>

<style type='text/css'>
<![CDATA[
[data-mouse-over-selected='false'] { opacity: 0.7; }
[data-mouse-over-selected='true']  { opacity: 1.0; }
]]>
</style>
<script type="application/ecmascript"><![CDATA[
document.addEventListener('DOMContentLoaded', (event) => {
  highlightEdges();
  highlightAdjacentNodes();
});
]]></script>
</svg>
