<?xml version="1.0" encoding="UTF-8" standalone="no"?>
<!DOCTYPE svg PUBLIC "-//W3C//DTD SVG 1.1//EN"
 "http://www.w3.org/Graphics/SVG/1.1/DTD/svg11.dtd">
<!-- Generated by graphviz version 2.43.0 (0)
 -->
<!-- Title: options Pages: 1 -->
<!--zoomable 562 -->

<svg id="main" version="1.1" xmlns="http://www.w3.org/2000/svg" xmlns:xlink="http://www.w3.org/1999/xlink" xml:space="preserve" onload="init(evt)">
<style type="text/css"><![CDATA[
.node, .edge {opacity: 0.7;}
.node.selected, .edge.selected {opacity: 1;}
.edge:hover path { stroke: red; }
.edge:hover polygon { stroke: red; fill: red; }
]]></style>

<defs>
  <circle id="rim" cx="0" cy="0" r="7"/>
  <circle id="rim2" cx="0" cy="0" r="3.5"/>
  <g id="zoomPlus">
    <use xlink:href="#rim" fill="#404040"><set attributeName="fill" to="#808080" begin="zoomplus.mouseover" end="zoomplus.mouseout"/></use>
    <path d="M-4,0h8M0,-4v8" fill="none" stroke="white" stroke-width="1.5" pointer-events="none"/>
  </g>
  <g id="zoomMin">
    <use xlink:href="#rim" fill="#404040"><set attributeName="fill" to="#808080" begin="zoomminus.mouseover" end="zoomminus.mouseout"/></use>
    <path d="M-4,0h8" fill="none" stroke="white" stroke-width="1.5" pointer-events="none"/>
  </g>
  <g id="arrowUp" transform="translate(30 24)">
    <use xlink:href="#rim"/>
    <path pointer-events="none" fill="none" stroke="white" stroke-width="1.5" d="M0,-3.0v7 M-2.5,-0.5L0,-3.0L2.5,-0.5"/>
  </g>
  <g id="arrowRight" transform="rotate(90) translate(36 -43)">
    <use xlink:href="#rim"/>
    <path pointer-events="none" fill="none" stroke="white" stroke-width="1.5" d="M0,-3.0v7 M-2.5,-0.5L0,-3.0L2.5,-0.5"/>
  </g>
  <g id="arrowDown" transform="rotate(180) translate(-30 -48)">
    <use xlink:href="#rim"/>
    <path pointer-events="none" fill="none" stroke="white" stroke-width="1.5" d="M0,-3.0v7 M-2.5,-0.5L0,-3.0L2.5,-0.5"/>
  </g>
  <g id="arrowLeft" transform="rotate(270) translate(-36 17)">
    <use xlink:href="#rim"/>
    <path pointer-events="none" fill="none" stroke="white" stroke-width="1.5" d="M0,-3.0v7 M-2.5,-0.5L0,-3.0L2.5,-0.5"/>
  </g>
  <g id="resetDef">
    <use xlink:href="#rim2" fill="#404040"><set attributeName="fill" to="#808080" begin="reset.mouseover" end="reset.mouseout"/></use>
  </g>
</defs>
<script type="application/ecmascript">
var viewWidth = 643;
var viewHeight = 562;
var sectionId = 'dynsection-3';
</script>
<script type="application/ecmascript" xlink:href="svg.min.js"/>
<svg id="graph" class="graph">
<g id="viewport">
<title>options</title>
<!-- Node1 -->
<g id="Node000001" class="node">
<title>Node1</title>
<g id="a_Node000001"><a xlink:title=" ">
<polygon fill="#999999" stroke="#666666" points="635,-460 582,-460 582,-441 635,-441 635,-460"/>
<text text-anchor="middle" x="608.5" y="-448" font-family="Helvetica,sans-Serif" font-size="10.00">options</text>
</a>
</g>
</g>
<!-- Node2 -->
<g id="Node000002" class="node">
<title>Node2</title>
<g id="a_Node000002"><a xlink:href="problem_8cpp.html#ae36fc572e3716fb2dbe8ff77cfe1ee10" target="_top" xlink:title=" ">
<polygon fill="white" stroke="#666666" points="436,-549 353,-549 353,-530 436,-530 436,-549"/>
<text text-anchor="middle" x="394.5" y="-537" font-family="Helvetica,sans-Serif" font-size="10.00">load_problem</text>
</a>
</g>
</g>
<!-- Node1&#45;&gt;Node2 -->
<g id="edge1_Node000001_Node000002" class="edge">
<title>Node1&#45;&gt;Node2</title>
<g id="a_edge1_Node000001_Node000002"><a xlink:title=" ">
<path fill="none" stroke="#63b8ff" d="M575.33,-464.01C532.07,-482.17 456.21,-514.01 418.35,-529.91"/>
<polygon fill="#63b8ff" stroke="#63b8ff" points="576.95,-467.12 584.81,-460.02 574.24,-460.67 576.95,-467.12"/>
</a>
</g>
</g>
<!-- Node4 -->
<g id="Node000004" class="node">
<title>Node4</title>
<g id="a_Node000004"><a xlink:href="classOptions.html#a8ca2e3915e8acf3cd04e02180e66e9ab" target="_top" xlink:title=" ">
<polygon fill="white" stroke="#666666" points="546,-441 472,-441 472,-422 546,-422 546,-441"/>
<text text-anchor="middle" x="509" y="-429" font-family="Helvetica,sans-Serif" font-size="10.00">set_params</text>
</a>
</g>
</g>
<!-- Node1&#45;&gt;Node4 -->
<g id="edge3_Node000001_Node000004" class="edge">
<title>Node1&#45;&gt;Node4</title>
<g id="a_edge3_Node000001_Node000004"><a xlink:title=" ">
<path fill="none" stroke="#63b8ff" d="M571.96,-443.57C563.53,-441.93 554.53,-440.18 546.08,-438.53"/>
<polygon fill="#63b8ff" stroke="#63b8ff" points="571.4,-447.03 581.88,-445.51 572.74,-440.16 571.4,-447.03"/>
</a>
</g>
</g>
<!-- Node3 -->
<g id="Node000003" class="node">
<title>Node3</title>
<g id="a_Node000003"><a xlink:href="alpaqa-driver_8cpp.html#ac0f2228420376f4db7e1274f2b41667c" target="_top" xlink:title=" ">
<polygon fill="white" stroke="#666666" points="90.5,-497 49.5,-497 49.5,-478 90.5,-478 90.5,-497"/>
<text text-anchor="middle" x="70" y="-485" font-family="Helvetica,sans-Serif" font-size="10.00">main</text>
</a>
</g>
</g>
<!-- Node2&#45;&gt;Node3 -->
<g id="edge2_Node000002_Node000003" class="edge">
<title>Node2&#45;&gt;Node3</title>
<g id="a_edge2_Node000002_Node000003"><a xlink:title=" ">
<path fill="none" stroke="#63b8ff" d="M342.66,-548.28C298.02,-554.21 231.7,-558.64 176,-544.5 139.81,-535.31 102.6,-510.86 83.7,-497.16"/>
<polygon fill="#63b8ff" stroke="#63b8ff" points="343.26,-551.73 352.68,-546.88 342.29,-544.8 343.26,-551.73"/>
</a>
</g>
</g>
<!-- Node5 -->
<g id="Node000005" class="node">
<title>Node5</title>
<g id="a_Node000005"><a xlink:href="options_8hpp.html#a91fca5414dbe50bec5104c59d9ebda11" target="_top" xlink:title=" ">
<polygon fill="white" stroke="#666666" points="431.5,-347 357.5,-347 357.5,-328 431.5,-328 431.5,-347"/>
<text text-anchor="middle" x="394.5" y="-335" font-family="Helvetica,sans-Serif" font-size="10.00">set_params</text>
</a>
</g>
</g>
<!-- Node4&#45;&gt;Node5 -->
<g id="edge4_Node000004_Node000005" class="edge">
<title>Node4&#45;&gt;Node5</title>
<g id="a_edge4_Node000004_Node000005"><a xlink:title=" ">
<path fill="none" stroke="#63b8ff" d="M488.45,-415.17C464.88,-395.47 426.03,-363.01 406.89,-347.01"/>
<polygon fill="#63b8ff" stroke="#63b8ff" points="486.47,-418.07 496.38,-421.79 490.95,-412.7 486.47,-418.07"/>
</a>
</g>
</g>
<!-- Node5&#45;&gt;Node3 -->
<g id="edge15_Node000005_Node000003" class="edge">
<title>Node5&#45;&gt;Node3</title>
<g id="a_edge15_Node000005_Node000003"><a xlink:title=" ">
<path fill="none" stroke="#63b8ff" d="M388.42,-356.91C379.5,-386.68 357.95,-442.85 317,-468.5 244.4,-513.98 135.09,-500 90.74,-491.7"/>
<polygon fill="#63b8ff" stroke="#63b8ff" points="391.8,-357.82 391.15,-347.24 385.06,-355.92 391.8,-357.82"/>
</a>
</g>
</g>
<!-- Node6 -->
<g id="Node000006" class="node">
<title>Node6</title>
<g id="a_Node000006"><a xlink:href="namespaceanonymous__namespace_02problem_8cpp_03.html#a1b79c8c67d4bc5eba618a86e8b0a7744" target="_top" xlink:title=" ">
<polygon fill="white" stroke="#666666" points="314,-254 179,-254 179,-213 314,-213 314,-254"/>
<text text-anchor="start" x="187" y="-242" font-family="Helvetica,sans-Serif" font-size="10.00">anonymous_namespace</text>
<text text-anchor="start" x="187" y="-231" font-family="Helvetica,sans-Serif" font-size="10.00">{problem::cpp}::get</text>
<text text-anchor="middle" x="246.5" y="-220" font-family="Helvetica,sans-Serif" font-size="10.00">_dl_flags</text>
</a>
</g>
</g>
<!-- Node5&#45;&gt;Node6 -->
<g id="edge5_Node000005_Node000006" class="edge">
<title>Node5&#45;&gt;Node6</title>
<g id="a_edge5_Node000005_Node000006"><a xlink:title=" ">
<path fill="none" stroke="#63b8ff" d="M372.67,-321.58C357.4,-310 336.08,-294.05 317,-280.5 304.53,-271.64 290.6,-262.15 278.5,-254.02"/>
<polygon fill="#63b8ff" stroke="#63b8ff" points="370.83,-324.57 380.91,-327.84 375.06,-319 370.83,-324.57"/>
</a>
</g>
</g>
<!-- Node7 -->
<g id="Node000007" class="node">
<title>Node7</title>
<g id="a_Node000007"><a xlink:href="alpaqa-driver_8cpp.html#a53c823aeddf0a1b037645504d26ee7cd" target="_top" xlink:title=" ">
<polygon fill="white" stroke="#666666" points="297,-459 196,-459 196,-440 297,-440 297,-459"/>
<text text-anchor="middle" x="246.5" y="-447" font-family="Helvetica,sans-Serif" font-size="10.00">get_output_paths</text>
</a>
</g>
</g>
<!-- Node5&#45;&gt;Node7 -->
<g id="edge7_Node000005_Node000007" class="edge">
<title>Node5&#45;&gt;Node7</title>
<g id="a_edge7_Node000005_Node000007"><a xlink:title=" ">
<path fill="none" stroke="#63b8ff" d="M383.39,-356C370.71,-377.44 346.94,-412.28 317,-431.5 311.02,-435.34 304.26,-438.36 297.36,-440.74"/>
<polygon fill="#63b8ff" stroke="#63b8ff" points="386.5,-357.61 388.42,-347.19 380.42,-354.14 386.5,-357.61"/>
</a>
</g>
</g>
<!-- Node8 -->
<g id="Node000008" class="node">
<title>Node8</title>
<g id="a_Node000008"><a xlink:href="alpaqa-driver_8cpp.html#a62667720f096806ed08c60e4207f8972" target="_top" xlink:title=" ">
<polygon fill="white" stroke="#666666" points="301,-422 192,-422 192,-403 301,-403 301,-422"/>
<text text-anchor="middle" x="246.5" y="-410" font-family="Helvetica,sans-Serif" font-size="10.00">get_output_stream</text>
</a>
</g>
</g>
<!-- Node5&#45;&gt;Node8 -->
<g id="edge9_Node000005_Node000008" class="edge">
<title>Node5&#45;&gt;Node8</title>
<g id="a_edge9_Node000005_Node000008"><a xlink:title=" ">
<path fill="none" stroke="#63b8ff" d="M375.09,-353.99C360.32,-366.44 338.56,-383.1 317,-393.5 309.23,-397.25 300.59,-400.36 292.13,-402.9"/>
<polygon fill="#63b8ff" stroke="#63b8ff" points="377.64,-356.41 382.92,-347.23 373.07,-351.11 377.64,-356.41"/>
</a>
</g>
</g>
<!-- Node9 -->
<g id="Node000009" class="node">
<title>Node9</title>
<g id="a_Node000009"><a xlink:href="alpaqa-driver_8cpp.html#a3430011226186bf05d5c2552270587b7" target="_top" xlink:title=" ">
<polygon fill="white" stroke="#666666" points="300,-535 193,-535 193,-516 300,-516 300,-535"/>
<text text-anchor="middle" x="246.5" y="-523" font-family="Helvetica,sans-Serif" font-size="10.00">get_solver_builder</text>
</a>
</g>
</g>
<!-- Node5&#45;&gt;Node9 -->
<g id="edge11_Node000005_Node000009" class="edge">
<title>Node5&#45;&gt;Node9</title>
<g id="a_edge11_Node000005_Node000009"><a xlink:title=" ">
<path fill="none" stroke="#63b8ff" d="M389.55,-357.33C381.72,-391.55 361.04,-461.82 317,-501.5 309.98,-507.82 301.21,-512.5 292.3,-515.94"/>
<polygon fill="#63b8ff" stroke="#63b8ff" points="393.04,-357.72 391.73,-347.2 386.2,-356.24 393.04,-357.72"/>
</a>
</g>
</g>
<!-- Node10 -->
<g id="Node000010" class="node">
<title>Node10</title>
<g id="a_Node000010"><a xlink:href="namespaceanonymous__namespace_02problem_8cpp_03.html#ab42fb3dc0421d6c6c1f45d753a95a2c4" target="_top" xlink:title=" ">
<polygon fill="white" stroke="#666666" points="314,-177 179,-177 179,-136 314,-136 314,-177"/>
<text text-anchor="start" x="187" y="-165" font-family="Helvetica,sans-Serif" font-size="10.00">anonymous_namespace</text>
<text text-anchor="start" x="187" y="-154" font-family="Helvetica,sans-Serif" font-size="10.00">{problem::cpp}::load</text>
<text text-anchor="middle" x="246.5" y="-143" font-family="Helvetica,sans-Serif" font-size="10.00">_initial_guess</text>
</a>
</g>
</g>
<!-- Node5&#45;&gt;Node10 -->
<g id="edge13_Node000005_Node000010" class="edge">
<title>Node5&#45;&gt;Node10</title>
<g id="a_edge13_Node000005_Node000010"><a xlink:title=" ">
<path fill="none" stroke="#63b8ff" d="M385.94,-318.43C374.28,-290.75 349.78,-238.86 317,-203.5 307.69,-193.46 295.85,-184.45 284.59,-177.08"/>
<polygon fill="#63b8ff" stroke="#63b8ff" points="382.74,-319.85 389.77,-327.78 389.22,-317.2 382.74,-319.85"/>
</a>
</g>
</g>
<!-- Node11 -->
<g id="Node000011" class="node">
<title>Node11</title>
<g id="a_Node000011"><a xlink:href="alm-driver_8hpp.html#ae4ef291d9ec9d55ee804b5723ea2e641" target="_top" xlink:title=" ">
<polygon fill="white" stroke="#666666" points="298,-309 195,-309 195,-290 298,-290 298,-309"/>
<text text-anchor="middle" x="246.5" y="-297" font-family="Helvetica,sans-Serif" font-size="10.00">make_alm_solver</text>
</a>
</g>
</g>
<!-- Node5&#45;&gt;Node11 -->
<g id="edge16_Node000005_Node000011" class="edge">
<title>Node5&#45;&gt;Node11</title>
<g id="a_edge16_Node000005_Node000011"><a xlink:title=" ">
<path fill="none" stroke="#63b8ff" d="M347.67,-325.57C327.22,-320.25 303.44,-314.06 284.19,-309.05"/>
<polygon fill="#63b8ff" stroke="#63b8ff" points="346.85,-328.97 357.41,-328.11 348.61,-322.2 346.85,-328.97"/>
</a>
</g>
</g>
<!-- Node12 -->
<g id="Node000012" class="node">
<title>Node12</title>
<g id="a_Node000012"><a xlink:href="namespaceanonymous__namespace_02fista-driver_8cpp_03.html#a479d5f0dacbf404f04a694bb1be6f6c5" target="_top" xlink:title=" ">
<polygon fill="white" stroke="#666666" points="138.5,-90 1.5,-90 1.5,-49 138.5,-49 138.5,-90"/>
<text text-anchor="start" x="9.5" y="-78" font-family="Helvetica,sans-Serif" font-size="10.00">anonymous_namespace</text>
<text text-anchor="start" x="9.5" y="-67" font-family="Helvetica,sans-Serif" font-size="10.00">{fista&#45;driver::cpp}</text>
<text text-anchor="middle" x="70" y="-56" font-family="Helvetica,sans-Serif" font-size="10.00">::make_fista_driver_impl</text>
</a>
</g>
</g>
<!-- Node5&#45;&gt;Node12 -->
<g id="edge20_Node000005_Node000012" class="edge">
<title>Node5&#45;&gt;Node12</title>
<g id="a_edge20_Node000005_Node000012"><a xlink:title=" ">
<path fill="none" stroke="#63b8ff" d="M393.66,-317.78C392.85,-271.77 383.88,-157.07 317,-101.5 267.81,-60.62 192.91,-56.4 138.68,-60.07"/>
<polygon fill="#63b8ff" stroke="#63b8ff" points="390.16,-317.93 393.71,-327.91 397.16,-317.89 390.16,-317.93"/>
</a>
</g>
</g>
<!-- Node13 -->
<g id="Node000013" class="node">
<title>Node13</title>
<g id="a_Node000013"><a xlink:href="namespaceanonymous__namespace_02panoc-driver_8cpp_03.html#ab2ca1091ea82102367666b62756cd7f6" target="_top" xlink:title=" ">
<polygon fill="white" stroke="#666666" points="140,-339 0,-339 0,-298 140,-298 140,-339"/>
<text text-anchor="start" x="8" y="-327" font-family="Helvetica,sans-Serif" font-size="10.00">anonymous_namespace</text>
<text text-anchor="start" x="8" y="-316" font-family="Helvetica,sans-Serif" font-size="10.00">{panoc&#45;driver::cpp}</text>
<text text-anchor="middle" x="70" y="-305" font-family="Helvetica,sans-Serif" font-size="10.00">::make_panoc_like_driver</text>
</a>
</g>
</g>
<!-- Node5&#45;&gt;Node13 -->
<g id="edge24_Node000005_Node000013" class="edge">
<title>Node5&#45;&gt;Node13</title>
<g id="a_edge24_Node000005_Node000013"><a xlink:title=" ">
<path fill="none" stroke="#63b8ff" d="M347.43,-334.79C293.22,-331.59 202.69,-326.26 140.07,-322.57"/>
<polygon fill="#63b8ff" stroke="#63b8ff" points="347.26,-338.28 357.44,-335.38 347.67,-331.29 347.26,-338.28"/>
</a>
</g>
</g>
<!-- Node14 -->
<g id="Node000014" class="node">
<title>Node14</title>
<g id="a_Node000014"><a xlink:href="namespaceanonymous__namespace_02pantr-driver_8cpp_03.html#a39b6aa8ff07d8400d404f191bdccd499" target="_top" xlink:title=" ">
<polygon fill="white" stroke="#666666" points="139,-224 1,-224 1,-183 139,-183 139,-224"/>
<text text-anchor="start" x="9" y="-212" font-family="Helvetica,sans-Serif" font-size="10.00">anonymous_namespace</text>
<text text-anchor="start" x="9" y="-201" font-family="Helvetica,sans-Serif" font-size="10.00">{pantr&#45;driver::cpp}</text>
<text text-anchor="middle" x="70" y="-190" font-family="Helvetica,sans-Serif" font-size="10.00">::make_pantr_like_solver</text>
</a>
</g>
</g>
<!-- Node5&#45;&gt;Node14 -->
<g id="edge25_Node000005_Node000014" class="edge">
<title>Node5&#45;&gt;Node14</title>
<g id="a_edge25_Node000005_Node000014"><a xlink:title=" ">
<path fill="none" stroke="#63b8ff" d="M393.26,-317.53C391.52,-274.03 380.55,-171.06 317,-126.5 265.69,-90.52 235.56,-107 176,-126.5 142.27,-137.54 110.42,-164 90.83,-182.81"/>
<polygon fill="#63b8ff" stroke="#63b8ff" points="389.76,-317.78 393.53,-327.68 396.76,-317.59 389.76,-317.78"/>
</a>
</g>
</g>
<!-- Node15 -->
<g id="Node000015" class="node">
<title>Node15</title>
<g id="a_Node000015"><a xlink:href="namespaceanonymous__namespace_02fista-driver_8cpp_03.html#a6f96d677b5961c6a4fcaa773f37ca65b" target="_top" xlink:title=" ">
<polygon fill="white" stroke="#666666" points="317,-41 176,-41 176,0 317,0 317,-41"/>
<text text-anchor="start" x="184" y="-29" font-family="Helvetica,sans-Serif" font-size="10.00">anonymous_namespace</text>
<text text-anchor="start" x="184" y="-18" font-family="Helvetica,sans-Serif" font-size="10.00">{fista&#45;driver::cpp}</text>
<text text-anchor="middle" x="246.5" y="-7" font-family="Helvetica,sans-Serif" font-size="10.00">::make_inner_fista_solver</text>
</a>
</g>
</g>
<!-- Node5&#45;&gt;Node15 -->
<g id="edge21_Node000005_Node000015" class="edge">
<title>Node5&#45;&gt;Node15</title>
<g id="a_edge21_Node000005_Node000015"><a xlink:title=" ">
<path fill="none" stroke="#63b8ff" d="M393.43,-318C392.26,-268.47 382.77,-136.07 317,-55.5 312.47,-49.95 306.84,-45.2 300.76,-41.16"/>
<polygon fill="#63b8ff" stroke="#63b8ff" points="389.93,-318.05 393.58,-328 396.93,-317.95 389.93,-318.05"/>
</a>
</g>
</g>
<!-- Node16 -->
<g id="Node000016" class="node">
<title>Node16</title>
<g id="a_Node000016"><a xlink:href="alm-driver_8hpp.html#a51b2a2cde56762bcb43a2f4da0913f98" target="_top" xlink:title=" ">
<polygon fill="white" stroke="#666666" points="301,-385 192,-385 192,-366 301,-366 301,-385"/>
<text text-anchor="middle" x="246.5" y="-373" font-family="Helvetica,sans-Serif" font-size="10.00">make_inner_solver</text>
</a>
</g>
</g>
<!-- Node5&#45;&gt;Node16 -->
<g id="edge23_Node000005_Node000016" class="edge">
<title>Node5&#45;&gt;Node16</title>
<g id="a_edge23_Node000005_Node000016"><a xlink:title=" ">
<path fill="none" stroke="#63b8ff" d="M347.67,-349.43C327.22,-354.75 303.44,-360.94 284.19,-365.95"/>
<polygon fill="#63b8ff" stroke="#63b8ff" points="348.61,-352.8 357.41,-346.89 346.85,-346.03 348.61,-352.8"/>
</a>
</g>
</g>
<!-- Node6&#45;&gt;Node6 -->
<g id="edge6_Node000006_Node000006" class="edge">
<title>Node6&#45;&gt;Node6</title>
<g id="a_edge6_Node000006_Node000006"><a xlink:title=" ">
<path fill="none" stroke="#63b8ff" d="M271.96,-263.96C268.18,-268.74 259.69,-272 246.5,-272 225.4,-272 216.33,-263.65 219.3,-254.1"/>
<polygon fill="#63b8ff" stroke="#63b8ff" points="275.41,-264.55 273.7,-254.1 268.52,-263.34 275.41,-264.55"/>
</a>
</g>
</g>
<!-- Node7&#45;&gt;Node3 -->
<g id="edge8_Node000007_Node000003" class="edge">
<title>Node7&#45;&gt;Node3</title>
<g id="a_edge8_Node000007_Node000003"><a xlink:title=" ">
<path fill="none" stroke="#63b8ff" d="M191.6,-461.24C157.42,-468.68 115.19,-477.88 90.85,-483.18"/>
<polygon fill="#63b8ff" stroke="#63b8ff" points="192.44,-464.64 201.47,-459.09 190.95,-457.8 192.44,-464.64"/>
</a>
</g>
</g>
<!-- Node8&#45;&gt;Node3 -->
<g id="edge10_Node000008_Node000003" class="edge">
<title>Node8&#45;&gt;Node3</title>
<g id="a_edge10_Node000008_Node000003"><a xlink:title=" ">
<path fill="none" stroke="#63b8ff" d="M194.65,-424.98C188.3,-426.96 181.95,-429.13 176,-431.5 142.79,-444.7 106.51,-465.64 86.48,-477.82"/>
<polygon fill="#63b8ff" stroke="#63b8ff" points="195.97,-428.24 204.57,-422.06 193.99,-421.53 195.97,-428.24"/>
</a>
</g>
</g>
<!-- Node9&#45;&gt;Node3 -->
<g id="edge12_Node000009_Node000003" class="edge">
<title>Node9&#45;&gt;Node3</title>
<g id="a_edge12_Node000009_Node000003"><a xlink:title=" ">
<path fill="none" stroke="#63b8ff" d="M191.6,-513.76C157.42,-506.32 115.19,-497.12 90.85,-491.82"/>
<polygon fill="#63b8ff" stroke="#63b8ff" points="190.95,-517.2 201.47,-515.91 192.44,-510.36 190.95,-517.2"/>
</a>
</g>
</g>
<!-- Node10&#45;&gt;Node10 -->
<g id="edge14_Node000010_Node000010" class="edge">
<title>Node10&#45;&gt;Node10</title>
<g id="a_edge14_Node000010_Node000010"><a xlink:title=" ">
<path fill="none" stroke="#63b8ff" d="M271.96,-186.96C268.18,-191.74 259.69,-195 246.5,-195 225.4,-195 216.33,-186.65 219.3,-177.1"/>
<polygon fill="#63b8ff" stroke="#63b8ff" points="275.41,-187.55 273.7,-177.1 268.52,-186.34 275.41,-187.55"/>
</a>
</g>
</g>
<!-- Node11&#45;&gt;Node12 -->
<g id="edge17_Node000011_Node000012" class="edge">
<title>Node11&#45;&gt;Node12</title>
<g id="a_edge17_Node000011_Node000012"><a xlink:title=" ">
<path fill="none" stroke="#63b8ff" d="M185.76,-287.68C182.23,-285.64 178.94,-283.27 176,-280.5 139.51,-246.06 162.06,-218.57 140,-173.5 124.95,-142.75 102.19,-110.34 86.98,-90.03"/>
<polygon fill="#63b8ff" stroke="#63b8ff" points="184.38,-290.9 194.91,-292.06 187.4,-284.58 184.38,-290.9"/>
</a>
</g>
</g>
<!-- Node11&#45;&gt;Node13 -->
<g id="edge18_Node000011_Node000013" class="edge">
<title>Node11&#45;&gt;Node13</title>
<g id="a_edge18_Node000011_Node000013"><a xlink:title=" ">
<path fill="none" stroke="#63b8ff" d="M184.37,-306.16C170.08,-307.71 154.77,-309.38 140.17,-310.97"/>
<polygon fill="#63b8ff" stroke="#63b8ff" points="185,-309.61 194.56,-305.05 184.24,-302.65 185,-309.61"/>
</a>
</g>
</g>
<!-- Node11&#45;&gt;Node14 -->
<g id="edge19_Node000011_Node000014" class="edge">
<title>Node11&#45;&gt;Node14</title>
<g id="a_edge19_Node000011_Node000014"><a xlink:title=" ">
<path fill="none" stroke="#63b8ff" d="M191.33,-286.8C186.05,-284.94 180.86,-282.85 176,-280.5 145.26,-265.66 114.25,-241.54 93.99,-224.24"/>
<polygon fill="#63b8ff" stroke="#63b8ff" points="190.27,-290.14 200.87,-289.9 192.44,-283.48 190.27,-290.14"/>
</a>
</g>
</g>
<!-- Node15&#45;&gt;Node12 -->
<g id="edge22_Node000015_Node000012" class="edge">
<title>Node15&#45;&gt;Node12</title>
<g id="a_edge22_Node000015_Node000012"><a xlink:title=" ">
<path fill="none" stroke="#63b8ff" d="M165.94,-42.84C156.81,-45.4 147.57,-48 138.62,-50.51"/>
<polygon fill="#63b8ff" stroke="#63b8ff" points="167.1,-46.15 175.78,-40.08 165.21,-39.41 167.1,-46.15"/>
</a>
</g>
</g>
</g>
</svg>

<g id="navigator" transform="translate(0 0)" fill="#404254">
  <rect fill="#f2f5e9" fill-opacity="0.5" stroke="#606060" stroke-width=".5" x="0" y="0" width="60" height="60"/>
  <use id="zoomplus" xlink:href="#zoomPlus" x="17" y="9" onmousedown="handleZoom(evt,'in')"/>
  <use id="zoomminus" xlink:href="#zoomMin" x="42" y="9" onmousedown="handleZoom(evt,'out')"/>
  <use id="reset" xlink:href="#resetDef" x="30" y="36" onmousedown="handleReset()"/>
   <use id="arrowup" xlink:href="#arrowUp" x="0" y="0" onmousedown="handlePan(0,-1)"/>
  <use id="arrowright" xlink:href="#arrowRight" x="0" y="0" onmousedown="handlePan(1,0)"/>
  <use id="arrowdown" xlink:href="#arrowDown" x="0" y="0" onmousedown="handlePan(0,1)"/>
  <use id="arrowleft" xlink:href="#arrowLeft" x="0" y="0" onmousedown="handlePan(-1,0)"/>
</g>
<svg viewBox="0 0 15 15" width="100%" height="30px" preserveAspectRatio="xMaxYMin meet">
 <g id="arrow_out" transform="scale(0.3 0.3)">
  <a xlink:href="classOptions_a502ee531f4e5cdc1c8dd78e9409a4e8e_icgraph_org.svg" target="_base">
   <rect id="button" ry="5" rx="5" y="6" x="6" height="38" width="38"
        fill="#f2f5e9" fill-opacity="0.5" stroke="#606060" stroke-width="1.0"/>
   <path id="arrow"
     d="M 11.500037,31.436501 C 11.940474,20.09759 22.043105,11.32322 32.158766,21.979434 L 37.068811,17.246167 C 37.068811,17.246167 37.088388,32 37.088388,32 L 22.160133,31.978069 C 22.160133,31.978069 26.997745,27.140456 26.997745,27.140456 C 18.528582,18.264221 13.291696,25.230495 11.500037,31.436501 z"
     style="fill:#404040;"/>
  </a>
 </g>
</svg>

<style type='text/css'>
<![CDATA[
[data-mouse-over-selected='false'] { opacity: 0.7; }
[data-mouse-over-selected='true']  { opacity: 1.0; }
]]>
</style>
<script type="application/ecmascript"><![CDATA[
document.addEventListener('DOMContentLoaded', (event) => {
  highlightEdges();
  highlightAdjacentNodes();
});
]]></script>
</svg>
