<?xml version="1.0" encoding="UTF-8" standalone="no"?>
<!DOCTYPE svg PUBLIC "-//W3C//DTD SVG 1.1//EN"
 "http://www.w3.org/Graphics/SVG/1.1/DTD/svg11.dtd">
<!-- Generated by graphviz version 2.43.0 (0)
 -->
<!-- Title: eval_grad_f Pages: 1 -->
<svg width="610pt" height="76pt"
 viewBox="0.00 0.00 610.00 75.50" xmlns="http://www.w3.org/2000/svg" xmlns:xlink="http://www.w3.org/1999/xlink">
<g id="graph0" class="graph" transform="scale(1 1) rotate(0) translate(4 71.5)">
<title>eval_grad_f</title>
<!-- Node1 -->
<g id="Node000001" class="node">
<title>Node1</title>
<g id="a_Node000001"><a xlink:title="[Required] Function that evaluates the gradient of the cost,">
<polygon fill="#999999" stroke="#666666" points="602,-45.5 528,-45.5 528,-26.5 602,-26.5 602,-45.5"/>
<text text-anchor="middle" x="565" y="-33.5" font-family="Helvetica,sans-Serif" font-size="10.00">eval_grad_f</text>
</a>
</g>
</g>
<!-- Node2 -->
<g id="Node000002" class="node">
<title>Node2</title>
<g id="a_Node000002"><a xlink:href="gradient-checker_8cpp.html#aa87afd38b7fb114000f0f42aeb65f429" target="_top" xlink:title=" ">
<polygon fill="white" stroke="#666666" points="490,-67.5 375,-67.5 375,-48.5 490,-48.5 490,-67.5"/>
<text text-anchor="middle" x="432.5" y="-55.5" font-family="Helvetica,sans-Serif" font-size="10.00">default_eval_grad_L</text>
</a>
</g>
</g>
<!-- Node1&#45;&gt;Node2 -->
<g id="edge1_Node000001_Node000002" class="edge">
<title>Node1&#45;&gt;Node2</title>
<g id="a_edge1_Node000001_Node000002"><a xlink:title=" ">
<path fill="none" stroke="#63b8ff" d="M518.02,-43.75C508.95,-45.28 499.33,-46.9 489.95,-48.48"/>
<polygon fill="#63b8ff" stroke="#63b8ff" points="518.72,-47.18 527.99,-42.07 517.55,-40.28 518.72,-47.18"/>
</a>
</g>
</g>
<!-- Node6 -->
<g id="Node000006" class="node">
<title>Node6</title>
<g id="a_Node000006"><a xlink:href="classalpaqa_1_1IpoptAdapter.html#a32b41ff45ea1fc9ce5fa895cd6fe3835" target="_top" xlink:title=" ">
<polygon fill="white" stroke="#666666" points="492,-30 373,-30 373,0 492,0 492,-30"/>
<text text-anchor="start" x="381" y="-18" font-family="Helvetica,sans-Serif" font-size="10.00">alpaqa::IpoptAdapter</text>
<text text-anchor="middle" x="432.5" y="-7" font-family="Helvetica,sans-Serif" font-size="10.00">::eval_grad_f</text>
</a>
</g>
</g>
<!-- Node1&#45;&gt;Node6 -->
<g id="edge5_Node000001_Node000006" class="edge">
<title>Node1&#45;&gt;Node6</title>
<g id="a_edge5_Node000001_Node000006"><a xlink:title=" ">
<path fill="none" stroke="#63b8ff" d="M517.86,-28.57C509.63,-27.25 500.96,-25.86 492.44,-24.48"/>
<polygon fill="#63b8ff" stroke="#63b8ff" points="517.57,-32.07 527.99,-30.21 518.68,-25.16 517.57,-32.07"/>
</a>
</g>
</g>
<!-- Node3 -->
<g id="Node000003" class="node">
<title>Node3</title>
<g id="a_Node000003"><a xlink:href="gradient-checker_8cpp.html#ae866f6e8a0c670569583f9be21f4db7b" target="_top" xlink:title=" ">
<polygon fill="white" stroke="#666666" points="337,-67.5 209,-67.5 209,-48.5 337,-48.5 337,-67.5"/>
<text text-anchor="middle" x="273" y="-55.5" font-family="Helvetica,sans-Serif" font-size="10.00">default_eval_ψ_grad_ψ</text>
</a>
</g>
</g>
<!-- Node2&#45;&gt;Node3 -->
<g id="edge2_Node000002_Node000003" class="edge">
<title>Node2&#45;&gt;Node3</title>
<g id="a_edge2_Node000002_Node000003"><a xlink:title=" ">
<path fill="none" stroke="#63b8ff" d="M364.52,-58C355.46,-58 346.18,-58 337.18,-58"/>
<polygon fill="#63b8ff" stroke="#63b8ff" points="364.64,-61.5 374.64,-58 364.64,-54.5 364.64,-61.5"/>
</a>
</g>
</g>
<!-- Node4 -->
<g id="Node000004" class="node">
<title>Node4</title>
<g id="a_Node000004"><a xlink:href="gradient-checker_8cpp.html#aff809b3945d62b51f641c0176ba90e7c" target="_top" xlink:title=" ">
<polygon fill="white" stroke="#666666" points="173,-67.5 77,-67.5 77,-48.5 173,-48.5 173,-67.5"/>
<text text-anchor="middle" x="125" y="-55.5" font-family="Helvetica,sans-Serif" font-size="10.00">check_gradients</text>
</a>
</g>
</g>
<!-- Node3&#45;&gt;Node4 -->
<g id="edge3_Node000003_Node000004" class="edge">
<title>Node3&#45;&gt;Node4</title>
<g id="a_edge3_Node000003_Node000004"><a xlink:title=" ">
<path fill="none" stroke="#63b8ff" d="M198.74,-58C190.14,-58 181.55,-58 173.44,-58"/>
<polygon fill="#63b8ff" stroke="#63b8ff" points="198.81,-61.5 208.81,-58 198.81,-54.5 198.81,-61.5"/>
</a>
</g>
</g>
<!-- Node5 -->
<g id="Node000005" class="node">
<title>Node5</title>
<g id="a_Node000005"><a xlink:href="gradient-checker_8cpp.html#ac0f2228420376f4db7e1274f2b41667c" target="_top" xlink:title=" ">
<polygon fill="white" stroke="#666666" points="41,-67.5 0,-67.5 0,-48.5 41,-48.5 41,-67.5"/>
<text text-anchor="middle" x="20.5" y="-55.5" font-family="Helvetica,sans-Serif" font-size="10.00">main</text>
</a>
</g>
</g>
<!-- Node4&#45;&gt;Node5 -->
<g id="edge4_Node000004_Node000005" class="edge">
<title>Node4&#45;&gt;Node5</title>
<g id="a_edge4_Node000004_Node000005"><a xlink:title=" ">
<path fill="none" stroke="#63b8ff" d="M66.87,-58C57.62,-58 48.63,-58 41.13,-58"/>
<polygon fill="#63b8ff" stroke="#63b8ff" points="66.95,-61.5 76.95,-58 66.95,-54.5 66.95,-61.5"/>
</a>
</g>
</g>
</g>
</svg>
