<?xml version="1.0" encoding="UTF-8" standalone="no"?>
<!DOCTYPE svg PUBLIC "-//W3C//DTD SVG 1.1//EN"
 "http://www.w3.org/Graphics/SVG/1.1/DTD/svg11.dtd">
<!-- Generated by graphviz version 2.43.0 (0)
 -->
<!-- Title: CasADiFunctionEvaluator&lt; Conf, N_in, N_out &gt; Pages: 1 -->
<svg width="160pt" height="785pt"
 viewBox="0.00 0.00 160.00 785.00" xmlns="http://www.w3.org/2000/svg" xmlns:xlink="http://www.w3.org/1999/xlink">
<g id="graph0" class="graph" transform="scale(1 1) rotate(0) translate(4 781)">
<title>CasADiFunctionEvaluator&lt; Conf, N_in, N_out &gt;</title>
<!-- Node1 -->
<g id="Node000001" class="node">
<title>Node1</title>
<g id="a_Node000001"><a xlink:title="Class for evaluating CasADi functions, allocating the necessary workspace storage in advance for allo...">
<polygon fill="#999999" stroke="transparent" points="152,-135 0,-135 0,0 152,0 152,-135"/>
<text text-anchor="start" x="14" y="-122.5" font-family="Helvetica,sans-Serif" font-size="10.00">CasADiFunctionEvaluator</text>
<text text-anchor="start" x="22" y="-111.5" font-family="Helvetica,sans-Serif" font-size="10.00">&lt; Conf, N_in, N_out &gt;</text>
<text text-anchor="start" x="74" y="-96.5" font-family="Helvetica,sans-Serif" font-size="10.00"> </text>
<text text-anchor="start" x="4" y="-81.5" font-family="Helvetica,sans-Serif" font-size="10.00">+</text>
<text text-anchor="start" x="17" y="-81.5" font-family="Helvetica,sans-Serif" font-size="10.00">CasADiFunctionEvaluator()</text>
<text text-anchor="start" x="4" y="-66.5" font-family="Helvetica,sans-Serif" font-size="10.00">+</text>
<text text-anchor="start" x="17" y="-66.5" font-family="Helvetica,sans-Serif" font-size="10.00">CasADiFunctionEvaluator()</text>
<text text-anchor="start" x="4" y="-51.5" font-family="Helvetica,sans-Serif" font-size="10.00">+</text>
<text text-anchor="start" x="17" y="-51.5" font-family="Helvetica,sans-Serif" font-size="10.00">validate_dimensions()</text>
<text text-anchor="start" x="4" y="-36.5" font-family="Helvetica,sans-Serif" font-size="10.00">+</text>
<text text-anchor="start" x="17" y="-36.5" font-family="Helvetica,sans-Serif" font-size="10.00">operator()()</text>
<text text-anchor="start" x="4" y="-21.5" font-family="Helvetica,sans-Serif" font-size="10.00">+</text>
<text text-anchor="start" x="17" y="-21.5" font-family="Helvetica,sans-Serif" font-size="10.00">validate_num_args()</text>
<text text-anchor="start" x="4" y="-6.5" font-family="Helvetica,sans-Serif" font-size="10.00">+</text>
<text text-anchor="start" x="17" y="-6.5" font-family="Helvetica,sans-Serif" font-size="10.00">validate_dimensions()</text>
<polygon fill="#666666" stroke="#666666" points="0,-106.5 0,-106.5 152,-106.5 152,-106.5 0,-106.5"/>
<polygon fill="#666666" stroke="#666666" points="0,-91.5 0,-91.5 152,-91.5 152,-91.5 0,-91.5"/>
<polygon fill="none" stroke="#666666" points="0,0 0,-135 152,-135 152,0 0,0"/>
</a>
</g>
</g>
<!-- Node2 -->
<g id="Node000002" class="node">
<title>Node2</title>
<g id="a_Node000002"><a xlink:href="classalpaqa_1_1casadi_1_1Function.html" target="_top" xlink:title="Class that loads and calls pre&#45;compiled CasADi functions in a DLL/SO file.">
<polygon fill="white" stroke="transparent" points="120.5,-501 31.5,-501 31.5,-182 120.5,-182 120.5,-501"/>
<text text-anchor="start" x="55.5" y="-488.5" font-family="Helvetica,sans-Serif" font-size="10.00">Function</text>
<text text-anchor="start" x="38.5" y="-473.5" font-family="Helvetica,sans-Serif" font-size="10.00">&#45;</text>
<text text-anchor="start" x="49" y="-473.5" font-family="Helvetica,sans-Serif" font-size="10.00">so_handle</text>
<text text-anchor="start" x="38.5" y="-458.5" font-family="Helvetica,sans-Serif" font-size="10.00">&#45;</text>
<text text-anchor="start" x="49" y="-458.5" font-family="Helvetica,sans-Serif" font-size="10.00">work</text>
<text text-anchor="start" x="38.5" y="-443.5" font-family="Helvetica,sans-Serif" font-size="10.00">&#45;</text>
<text text-anchor="start" x="49" y="-443.5" font-family="Helvetica,sans-Serif" font-size="10.00">mem</text>
<text text-anchor="start" x="36" y="-428.5" font-family="Helvetica,sans-Serif" font-size="10.00">+</text>
<text text-anchor="start" x="49" y="-428.5" font-family="Helvetica,sans-Serif" font-size="10.00">Function()</text>
<text text-anchor="start" x="36" y="-413.5" font-family="Helvetica,sans-Serif" font-size="10.00">+</text>
<text text-anchor="start" x="49" y="-413.5" font-family="Helvetica,sans-Serif" font-size="10.00">Function()</text>
<text text-anchor="start" x="36" y="-398.5" font-family="Helvetica,sans-Serif" font-size="10.00">+</text>
<text text-anchor="start" x="49" y="-398.5" font-family="Helvetica,sans-Serif" font-size="10.00">Function()</text>
<text text-anchor="start" x="36" y="-383.5" font-family="Helvetica,sans-Serif" font-size="10.00">+</text>
<text text-anchor="start" x="49" y="-383.5" font-family="Helvetica,sans-Serif" font-size="10.00">~Function()</text>
<text text-anchor="start" x="36" y="-368.5" font-family="Helvetica,sans-Serif" font-size="10.00">+</text>
<text text-anchor="start" x="49" y="-368.5" font-family="Helvetica,sans-Serif" font-size="10.00">n_in()</text>
<text text-anchor="start" x="36" y="-353.5" font-family="Helvetica,sans-Serif" font-size="10.00">+</text>
<text text-anchor="start" x="49" y="-353.5" font-family="Helvetica,sans-Serif" font-size="10.00">n_out()</text>
<text text-anchor="start" x="36" y="-338.5" font-family="Helvetica,sans-Serif" font-size="10.00">+</text>
<text text-anchor="start" x="49" y="-338.5" font-family="Helvetica,sans-Serif" font-size="10.00">size_in()</text>
<text text-anchor="start" x="36" y="-323.5" font-family="Helvetica,sans-Serif" font-size="10.00">+</text>
<text text-anchor="start" x="49" y="-323.5" font-family="Helvetica,sans-Serif" font-size="10.00">size_out()</text>
<text text-anchor="start" x="36" y="-308.5" font-family="Helvetica,sans-Serif" font-size="10.00">+</text>
<text text-anchor="start" x="49" y="-308.5" font-family="Helvetica,sans-Serif" font-size="10.00">size1_in()</text>
<text text-anchor="start" x="36" y="-293.5" font-family="Helvetica,sans-Serif" font-size="10.00">+</text>
<text text-anchor="start" x="49" y="-293.5" font-family="Helvetica,sans-Serif" font-size="10.00">size1_out()</text>
<text text-anchor="start" x="36" y="-278.5" font-family="Helvetica,sans-Serif" font-size="10.00">+</text>
<text text-anchor="start" x="49" y="-278.5" font-family="Helvetica,sans-Serif" font-size="10.00">size2_in()</text>
<text text-anchor="start" x="36" y="-263.5" font-family="Helvetica,sans-Serif" font-size="10.00">+</text>
<text text-anchor="start" x="49" y="-263.5" font-family="Helvetica,sans-Serif" font-size="10.00">size2_out()</text>
<text text-anchor="start" x="36" y="-248.5" font-family="Helvetica,sans-Serif" font-size="10.00">+</text>
<text text-anchor="start" x="49" y="-248.5" font-family="Helvetica,sans-Serif" font-size="10.00">sparsity_in()</text>
<text text-anchor="start" x="36" y="-233.5" font-family="Helvetica,sans-Serif" font-size="10.00">+</text>
<text text-anchor="start" x="49" y="-233.5" font-family="Helvetica,sans-Serif" font-size="10.00">sparsity_out()</text>
<text text-anchor="start" x="36" y="-218.5" font-family="Helvetica,sans-Serif" font-size="10.00">+</text>
<text text-anchor="start" x="49" y="-218.5" font-family="Helvetica,sans-Serif" font-size="10.00">operator()()</text>
<text text-anchor="start" x="38.5" y="-203.5" font-family="Helvetica,sans-Serif" font-size="10.00">&#45;</text>
<text text-anchor="start" x="49" y="-203.5" font-family="Helvetica,sans-Serif" font-size="10.00">load()</text>
<text text-anchor="start" x="38.5" y="-188.5" font-family="Helvetica,sans-Serif" font-size="10.00">&#45;</text>
<text text-anchor="start" x="49" y="-188.5" font-family="Helvetica,sans-Serif" font-size="10.00">init_work()</text>
<polygon fill="#666666" stroke="#666666" points="32,-483.5 32,-483.5 121,-483.5 121,-483.5 32,-483.5"/>
<polygon fill="#666666" stroke="#666666" points="32,-438.5 32,-438.5 47,-438.5 47,-438.5 32,-438.5"/>
<polygon fill="#666666" stroke="#666666" points="47,-438.5 47,-438.5 121,-438.5 121,-438.5 47,-438.5"/>
<polygon fill="none" stroke="#666666" points="31.5,-182 31.5,-501 120.5,-501 120.5,-182 31.5,-182"/>
</a>
</g>
</g>
<!-- Node2&#45;&gt;Node1 -->
<g id="edge1_Node000001_Node000002" class="edge">
<title>Node2&#45;&gt;Node1</title>
<g id="a_edge1_Node000001_Node000002"><a xlink:title=" ">
<path fill="none" stroke="#63b8ff" d="M76,-181.88C76,-170.03 76,-158.41 76,-147.39"/>
<polygon fill="none" stroke="#63b8ff" points="76,-147.24 72,-141.24 76,-135.24 80,-141.24 76,-147.24"/>
</a>
</g>
<text text-anchor="middle" x="90" y="-156" font-family="Helvetica,sans-Serif" font-size="10.00" fill="grey"> +fun</text>
</g>
<!-- Node3 -->
<g id="Node000003" class="node">
<title>Node3</title>
<g id="a_Node000003"><a xlink:href="classalpaqa_1_1casadi_1_1Function.html#structalpaqa_1_1casadi_1_1Function_1_1Functions" target="_top" xlink:title=" ">
<polygon fill="white" stroke="transparent" points="117,-777 35,-777 35,-548 117,-548 117,-777"/>
<text text-anchor="start" x="52.5" y="-764.5" font-family="Helvetica,sans-Serif" font-size="10.00">Functions</text>
<text text-anchor="start" x="39" y="-749.5" font-family="Helvetica,sans-Serif" font-size="10.00">+</text>
<text text-anchor="start" x="52" y="-749.5" font-family="Helvetica,sans-Serif" font-size="10.00">incref</text>
<text text-anchor="start" x="39" y="-734.5" font-family="Helvetica,sans-Serif" font-size="10.00">+</text>
<text text-anchor="start" x="52" y="-734.5" font-family="Helvetica,sans-Serif" font-size="10.00">decref</text>
<text text-anchor="start" x="39" y="-719.5" font-family="Helvetica,sans-Serif" font-size="10.00">+</text>
<text text-anchor="start" x="52" y="-719.5" font-family="Helvetica,sans-Serif" font-size="10.00">n_in</text>
<text text-anchor="start" x="39" y="-704.5" font-family="Helvetica,sans-Serif" font-size="10.00">+</text>
<text text-anchor="start" x="52" y="-704.5" font-family="Helvetica,sans-Serif" font-size="10.00">n_out</text>
<text text-anchor="start" x="39" y="-689.5" font-family="Helvetica,sans-Serif" font-size="10.00">+</text>
<text text-anchor="start" x="52" y="-689.5" font-family="Helvetica,sans-Serif" font-size="10.00">name_in</text>
<text text-anchor="start" x="39" y="-674.5" font-family="Helvetica,sans-Serif" font-size="10.00">+</text>
<text text-anchor="start" x="52" y="-674.5" font-family="Helvetica,sans-Serif" font-size="10.00">name_out</text>
<text text-anchor="start" x="39" y="-659.5" font-family="Helvetica,sans-Serif" font-size="10.00">+</text>
<text text-anchor="start" x="52" y="-659.5" font-family="Helvetica,sans-Serif" font-size="10.00">sparsity_in</text>
<text text-anchor="start" x="39" y="-644.5" font-family="Helvetica,sans-Serif" font-size="10.00">+</text>
<text text-anchor="start" x="52" y="-644.5" font-family="Helvetica,sans-Serif" font-size="10.00">sparsity_out</text>
<text text-anchor="start" x="39" y="-629.5" font-family="Helvetica,sans-Serif" font-size="10.00">+</text>
<text text-anchor="start" x="52" y="-629.5" font-family="Helvetica,sans-Serif" font-size="10.00">alloc_mem</text>
<text text-anchor="start" x="39" y="-614.5" font-family="Helvetica,sans-Serif" font-size="10.00">+</text>
<text text-anchor="start" x="52" y="-614.5" font-family="Helvetica,sans-Serif" font-size="10.00">init_mem</text>
<text text-anchor="start" x="39" y="-599.5" font-family="Helvetica,sans-Serif" font-size="10.00">+</text>
<text text-anchor="start" x="52" y="-599.5" font-family="Helvetica,sans-Serif" font-size="10.00">free_mem</text>
<text text-anchor="start" x="39" y="-584.5" font-family="Helvetica,sans-Serif" font-size="10.00">+</text>
<text text-anchor="start" x="52" y="-584.5" font-family="Helvetica,sans-Serif" font-size="10.00">work</text>
<text text-anchor="start" x="39" y="-569.5" font-family="Helvetica,sans-Serif" font-size="10.00">+</text>
<text text-anchor="start" x="52" y="-569.5" font-family="Helvetica,sans-Serif" font-size="10.00">call</text>
<text text-anchor="start" x="74" y="-554.5" font-family="Helvetica,sans-Serif" font-size="10.00"> </text>
<polygon fill="#666666" stroke="#666666" points="35,-759.5 35,-759.5 117,-759.5 117,-759.5 35,-759.5"/>
<polygon fill="#666666" stroke="#666666" points="35,-564.5 35,-564.5 50,-564.5 50,-564.5 35,-564.5"/>
<polygon fill="#666666" stroke="#666666" points="50,-564.5 50,-564.5 117,-564.5 117,-564.5 50,-564.5"/>
<polygon fill="none" stroke="#666666" points="35,-548 35,-777 117,-777 117,-548 35,-548"/>
</a>
</g>
</g>
<!-- Node3&#45;&gt;Node2 -->
<g id="edge2_Node000002_Node000003" class="edge">
<title>Node3&#45;&gt;Node2</title>
<g id="a_edge2_Node000002_Node000003"><a xlink:title=" ">
<path fill="none" stroke="#63b8ff" d="M76,-547.68C76,-536.46 76,-524.91 76,-513.28"/>
<polygon fill="none" stroke="#63b8ff" points="76,-513.14 72,-507.14 76,-501.14 80,-507.14 76,-513.14"/>
</a>
</g>
<text text-anchor="middle" x="102" y="-522" font-family="Helvetica,sans-Serif" font-size="10.00" fill="grey"> &#45;functions</text>
</g>
</g>
</svg>
