<?xml version="1.0" encoding="UTF-8" standalone="no"?>
<!DOCTYPE svg PUBLIC "-//W3C//DTD SVG 1.1//EN"
 "http://www.w3.org/Graphics/SVG/1.1/DTD/svg11.dtd">
<!-- Generated by graphviz version 2.43.0 (0)
 -->
<!-- Title: size1_in Pages: 1 -->
<svg width="234pt" height="76pt"
 viewBox="0.00 0.00 234.00 75.50" xmlns="http://www.w3.org/2000/svg" xmlns:xlink="http://www.w3.org/1999/xlink">
<g id="graph0" class="graph" transform="scale(1 1) rotate(0) translate(4 71.5)">
<title>size1_in</title>
<!-- Node1 -->
<g id="Node000001" class="node">
<title>Node1</title>
<g id="a_Node000001"><a xlink:title=" ">
<polygon fill="#999999" stroke="#666666" points="56,-40 0,-40 0,-21 56,-21 56,-40"/>
<text text-anchor="middle" x="28" y="-28" font-family="Helvetica,sans-Serif" font-size="10.00">size1_in</text>
</a>
</g>
</g>
<!-- Node2 -->
<g id="Node000002" class="node">
<title>Node2</title>
<g id="a_Node000002"><a xlink:href="classalpaqa_1_1casadi_1_1Function_1_1Sparsity.html#a1ab71d0404def2c8157558a36d4c53cb" target="_top" xlink:title=" ">
<polygon fill="white" stroke="#666666" points="226,-67.5 92,-67.5 92,-37.5 226,-37.5 226,-67.5"/>
<text text-anchor="start" x="100" y="-55.5" font-family="Helvetica,sans-Serif" font-size="10.00">alpaqa::casadi::Function</text>
<text text-anchor="middle" x="159" y="-44.5" font-family="Helvetica,sans-Serif" font-size="10.00">::Sparsity::size1</text>
</a>
</g>
</g>
<!-- Node1&#45;&gt;Node2 -->
<g id="edge1_Node000001_Node000002" class="edge">
<title>Node1&#45;&gt;Node2</title>
<g id="a_edge1_Node000001_Node000002"><a xlink:title=" ">
<path fill="none" stroke="#63b8ff" d="M56.04,-35.11C63.8,-36.44 72.67,-37.95 81.86,-39.51"/>
<polygon fill="#63b8ff" stroke="#63b8ff" points="81.48,-43 91.92,-41.23 82.65,-36.1 81.48,-43"/>
</a>
</g>
</g>
<!-- Node3 -->
<g id="Node000003" class="node">
<title>Node3</title>
<g id="a_Node000003"><a xlink:href="classalpaqa_1_1casadi_1_1Function.html#a8a88f2123c5e6ababc7a780c62412f65" target="_top" xlink:title=" ">
<polygon fill="white" stroke="#666666" points="194,-19 124,-19 124,0 194,0 194,-19"/>
<text text-anchor="middle" x="159" y="-7" font-family="Helvetica,sans-Serif" font-size="10.00">sparsity_in</text>
</a>
</g>
</g>
<!-- Node1&#45;&gt;Node3 -->
<g id="edge2_Node000001_Node000003" class="edge">
<title>Node1&#45;&gt;Node3</title>
<g id="a_edge2_Node000001_Node000003"><a xlink:title=" ">
<path fill="none" stroke="#63b8ff" d="M56.04,-26.1C72.7,-23.39 94.46,-19.84 113.6,-16.73"/>
<polygon fill="#63b8ff" stroke="#63b8ff" points="114.31,-20.16 123.62,-15.1 113.18,-13.25 114.31,-20.16"/>
</a>
</g>
</g>
</g>
</svg>
