<?xml version="1.0" encoding="UTF-8" standalone="no"?>
<!DOCTYPE svg PUBLIC "-//W3C//DTD SVG 1.1//EN"
 "http://www.w3.org/Graphics/SVG/1.1/DTD/svg11.dtd">
<!-- Generated by graphviz version 2.43.0 (0)
 -->
<!-- Title: src/alpaqa/include/alpaqa/util/dl.hpp Pages: 1 -->
<svg width="879pt" height="489pt"
 viewBox="0.00 0.00 879.00 489.00" xmlns="http://www.w3.org/2000/svg" xmlns:xlink="http://www.w3.org/1999/xlink">
<g id="graph0" class="graph" transform="scale(1 1) rotate(0) translate(4 485)">
<title>src/alpaqa/include/alpaqa/util/dl.hpp</title>
<!-- Node1 -->
<g id="Node000001" class="node">
<title>Node1</title>
<g id="a_Node000001"><a xlink:title=" ">
<polygon fill="#999999" stroke="#666666" points="559.5,-481 454.5,-481 454.5,-451 559.5,-451 559.5,-481"/>
<text text-anchor="start" x="462.5" y="-469" font-family="Helvetica,sans-Serif" font-size="10.00">src/alpaqa/include</text>
<text text-anchor="middle" x="507" y="-458" font-family="Helvetica,sans-Serif" font-size="10.00">/alpaqa/util/dl.hpp</text>
</a>
</g>
</g>
<!-- Node2 -->
<g id="Node000002" class="node">
<title>Node2</title>
<g id="a_Node000002"><a xlink:href="dl_8cpp.html" target="_top" xlink:title=" ">
<polygon fill="white" stroke="#666666" points="297.5,-409.5 194.5,-409.5 194.5,-379.5 297.5,-379.5 297.5,-409.5"/>
<text text-anchor="start" x="202.5" y="-397.5" font-family="Helvetica,sans-Serif" font-size="10.00">src/alpaqa/src/util</text>
<text text-anchor="middle" x="246" y="-386.5" font-family="Helvetica,sans-Serif" font-size="10.00">/dl.cpp</text>
</a>
</g>
</g>
<!-- Node1&#45;&gt;Node2 -->
<g id="edge1_Node000001_Node000002" class="edge">
<title>Node1&#45;&gt;Node2</title>
<g id="a_edge1_Node000001_Node000002"><a xlink:title=" ">
<path fill="none" stroke="#63b8ff" d="M444.42,-450.63C404.6,-441.19 352.05,-428.19 306,-415 300.1,-413.31 293.92,-411.43 287.85,-409.52"/>
<polygon fill="#63b8ff" stroke="#63b8ff" points="443.72,-454.06 454.25,-452.95 445.32,-447.25 443.72,-454.06"/>
</a>
</g>
</g>
<!-- Node3 -->
<g id="Node000003" class="node">
<title>Node3</title>
<g id="a_Node000003"><a xlink:href="casadi-functions_8hpp.html" target="_top" xlink:title=" ">
<polygon fill="white" stroke="#666666" points="440.5,-415 315.5,-415 315.5,-374 440.5,-374 440.5,-415"/>
<text text-anchor="start" x="323.5" y="-403" font-family="Helvetica,sans-Serif" font-size="10.00">src/interop/casadi</text>
<text text-anchor="start" x="323.5" y="-392" font-family="Helvetica,sans-Serif" font-size="10.00">/include/alpaqa/casadi</text>
<text text-anchor="middle" x="378" y="-381" font-family="Helvetica,sans-Serif" font-size="10.00">/casadi&#45;functions.hpp</text>
</a>
</g>
</g>
<!-- Node1&#45;&gt;Node3 -->
<g id="edge2_Node000001_Node000003" class="edge">
<title>Node1&#45;&gt;Node3</title>
<g id="a_edge2_Node000001_Node000003"><a xlink:title=" ">
<path fill="none" stroke="#63b8ff" d="M471.94,-446.11C454.08,-436.49 432.37,-424.79 414.33,-415.07"/>
<polygon fill="#63b8ff" stroke="#63b8ff" points="470.43,-449.27 480.89,-450.94 473.75,-443.11 470.43,-449.27"/>
</a>
</g>
</g>
<!-- Node8 -->
<g id="Node000008" class="node">
<title>Node8</title>
<g id="a_Node000008"><a xlink:href="CasADiLoader-util_8hpp.html" target="_top" xlink:title=" ">
<polygon fill="white" stroke="#666666" points="468,-184 296,-184 296,-143 468,-143 468,-184"/>
<text text-anchor="start" x="304" y="-172" font-family="Helvetica,sans-Serif" font-size="10.00">src/interop/casadi</text>
<text text-anchor="start" x="304" y="-161" font-family="Helvetica,sans-Serif" font-size="10.00">/include/alpaqa/implementation</text>
<text text-anchor="middle" x="382" y="-150" font-family="Helvetica,sans-Serif" font-size="10.00">/casadi/CasADiLoader&#45;util.hpp</text>
</a>
</g>
</g>
<!-- Node1&#45;&gt;Node8 -->
<g id="edge19_Node000001_Node000008" class="edge">
<title>Node1&#45;&gt;Node8</title>
<g id="a_edge19_Node000001_Node000008"><a xlink:title=" ">
<path fill="none" stroke="#63b8ff" d="M512.08,-440.94C520.58,-394.06 532.56,-289.08 487,-220 476.5,-204.08 459.88,-192.42 442.93,-184.01"/>
<polygon fill="#63b8ff" stroke="#63b8ff" points="508.64,-440.31 510.19,-450.79 515.51,-441.63 508.64,-440.31"/>
</a>
</g>
</g>
<!-- Node14 -->
<g id="Node000014" class="node">
<title>Node14</title>
<g id="a_Node000014"><a xlink:href="casadi-external-function_8cpp.html" target="_top" xlink:title=" ">
<polygon fill="white" stroke="#666666" points="478.5,-261 365.5,-261 365.5,-220 478.5,-220 478.5,-261"/>
<text text-anchor="start" x="373.5" y="-249" font-family="Helvetica,sans-Serif" font-size="10.00">src/interop/casadi</text>
<text text-anchor="start" x="373.5" y="-238" font-family="Helvetica,sans-Serif" font-size="10.00">/src/casadi&#45;external</text>
<text text-anchor="middle" x="422" y="-227" font-family="Helvetica,sans-Serif" font-size="10.00">&#45;function.cpp</text>
</a>
</g>
</g>
<!-- Node1&#45;&gt;Node14 -->
<g id="edge20_Node000001_Node000014" class="edge">
<title>Node1&#45;&gt;Node14</title>
<g id="a_edge20_Node000001_Node000014"><a xlink:title=" ">
<path fill="none" stroke="#63b8ff" d="M497.98,-441.29C481.13,-396.99 445.17,-302.41 429.52,-261.28"/>
<polygon fill="#63b8ff" stroke="#63b8ff" points="494.73,-442.58 501.55,-450.68 501.27,-440.09 494.73,-442.58"/>
</a>
</g>
</g>
<!-- Node15 -->
<g id="Node000015" class="node">
<title>Node15</title>
<g id="a_Node000015"><a xlink:href="cutest-functions_8hpp.html" target="_top" xlink:title=" ">
<polygon fill="white" stroke="#666666" points="672.5,-409.5 535.5,-409.5 535.5,-379.5 672.5,-379.5 672.5,-409.5"/>
<text text-anchor="start" x="543.5" y="-397.5" font-family="Helvetica,sans-Serif" font-size="10.00">src/interop/cutest</text>
<text text-anchor="middle" x="604" y="-386.5" font-family="Helvetica,sans-Serif" font-size="10.00">/src/cutest&#45;functions.hpp</text>
</a>
</g>
</g>
<!-- Node1&#45;&gt;Node15 -->
<g id="edge21_Node000001_Node000015" class="edge">
<title>Node1&#45;&gt;Node15</title>
<g id="a_edge21_Node000001_Node000015"><a xlink:title=" ">
<path fill="none" stroke="#63b8ff" d="M535,-444.94C550.82,-433.6 570.21,-419.71 584.4,-409.54"/>
<polygon fill="#63b8ff" stroke="#63b8ff" points="532.72,-442.27 526.63,-450.94 536.8,-447.96 532.72,-442.27"/>
</a>
</g>
</g>
<!-- Node16 -->
<g id="Node000016" class="node">
<title>Node16</title>
<g id="a_Node000016"><a xlink:href="cutest-loader_8cpp.html" target="_top" xlink:title=" ">
<polygon fill="white" stroke="#666666" points="698.5,-332.5 577.5,-332.5 577.5,-302.5 698.5,-302.5 698.5,-332.5"/>
<text text-anchor="start" x="585.5" y="-320.5" font-family="Helvetica,sans-Serif" font-size="10.00">src/interop/cutest</text>
<text text-anchor="middle" x="638" y="-309.5" font-family="Helvetica,sans-Serif" font-size="10.00">/src/cutest&#45;loader.cpp</text>
</a>
</g>
</g>
<!-- Node1&#45;&gt;Node16 -->
<g id="edge23_Node000001_Node000016" class="edge">
<title>Node1&#45;&gt;Node16</title>
<g id="a_edge23_Node000001_Node000016"><a xlink:title=" ">
<path fill="none" stroke="#63b8ff" d="M569.79,-455.19C614.22,-446.82 668.25,-433.23 682,-415 701.74,-388.83 672.75,-352.4 653.26,-332.63"/>
<polygon fill="#63b8ff" stroke="#63b8ff" points="569.1,-451.76 559.9,-457 570.36,-458.64 569.1,-451.76"/>
</a>
</g>
</g>
<!-- Node17 -->
<g id="Node000017" class="node">
<title>Node17</title>
<g id="a_Node000017"><a xlink:href="dl-problem_8hpp.html" target="_top" xlink:title=" ">
<polygon fill="white" stroke="#666666" points="871,-409.5 729,-409.5 729,-379.5 871,-379.5 871,-409.5"/>
<text text-anchor="start" x="737" y="-397.5" font-family="Helvetica,sans-Serif" font-size="10.00">src/interop/dl/include</text>
<text text-anchor="middle" x="800" y="-386.5" font-family="Helvetica,sans-Serif" font-size="10.00">/alpaqa/dl/dl&#45;problem.hpp</text>
</a>
</g>
</g>
<!-- Node1&#45;&gt;Node17 -->
<g id="edge24_Node000001_Node000017" class="edge">
<title>Node1&#45;&gt;Node17</title>
<g id="a_edge24_Node000001_Node000017"><a xlink:title=" ">
<path fill="none" stroke="#63b8ff" d="M569.58,-450.16C620.26,-438.13 691.17,-421.31 740.9,-409.52"/>
<polygon fill="#63b8ff" stroke="#63b8ff" points="568.64,-446.78 559.72,-452.49 570.26,-453.59 568.64,-446.78"/>
</a>
</g>
</g>
<!-- Node4 -->
<g id="Node000004" class="node">
<title>Node4</title>
<g id="a_Node000004"><a xlink:href="casadi-external-function_8hpp.html" target="_top" xlink:title=" ">
<polygon fill="white" stroke="#666666" points="395,-338 235,-338 235,-297 395,-297 395,-338"/>
<text text-anchor="start" x="243" y="-326" font-family="Helvetica,sans-Serif" font-size="10.00">src/interop/casadi</text>
<text text-anchor="start" x="243" y="-315" font-family="Helvetica,sans-Serif" font-size="10.00">/include/alpaqa/casadi</text>
<text text-anchor="middle" x="315" y="-304" font-family="Helvetica,sans-Serif" font-size="10.00">/casadi&#45;external&#45;function.hpp</text>
</a>
</g>
</g>
<!-- Node3&#45;&gt;Node4 -->
<g id="edge3_Node000003_Node000004" class="edge">
<title>Node3&#45;&gt;Node4</title>
<g id="a_edge3_Node000003_Node000004"><a xlink:title=" ">
<path fill="none" stroke="#63b8ff" d="M354.86,-365.95C347.09,-356.7 338.59,-346.58 331.44,-338.07"/>
<polygon fill="#63b8ff" stroke="#63b8ff" points="352.34,-368.39 361.45,-373.79 357.7,-363.89 352.34,-368.39"/>
</a>
</g>
</g>
<!-- Node5 -->
<g id="Node000005" class="node">
<title>Node5</title>
<g id="a_Node000005"><a xlink:href="CasADiFunctionWrapper_8hpp.html" target="_top" xlink:title=" ">
<polygon fill="white" stroke="#666666" points="347,-261 189,-261 189,-220 347,-220 347,-261"/>
<text text-anchor="start" x="197" y="-249" font-family="Helvetica,sans-Serif" font-size="10.00">src/interop/casadi</text>
<text text-anchor="start" x="197" y="-238" font-family="Helvetica,sans-Serif" font-size="10.00">/include/alpaqa/casadi</text>
<text text-anchor="middle" x="268" y="-227" font-family="Helvetica,sans-Serif" font-size="10.00">/CasADiFunctionWrapper.hpp</text>
</a>
</g>
</g>
<!-- Node4&#45;&gt;Node5 -->
<g id="edge4_Node000004_Node000005" class="edge">
<title>Node4&#45;&gt;Node5</title>
<g id="a_edge4_Node000004_Node000005"><a xlink:title=" ">
<path fill="none" stroke="#63b8ff" d="M297.21,-288.11C291.56,-279.09 285.44,-269.33 280.27,-261.07"/>
<polygon fill="#63b8ff" stroke="#63b8ff" points="294.38,-290.18 302.65,-296.79 300.31,-286.46 294.38,-290.18"/>
</a>
</g>
</g>
<!-- Node12 -->
<g id="Node000012" class="node">
<title>Node12</title>
<g id="a_Node000012"><a xlink:href="CasADiProblem_8hpp.html" target="_top" xlink:title=" ">
<polygon fill="white" stroke="#666666" points="170.5,-261 45.5,-261 45.5,-220 170.5,-220 170.5,-261"/>
<text text-anchor="start" x="53.5" y="-249" font-family="Helvetica,sans-Serif" font-size="10.00">src/interop/casadi</text>
<text text-anchor="start" x="53.5" y="-238" font-family="Helvetica,sans-Serif" font-size="10.00">/include/alpaqa/casadi</text>
<text text-anchor="middle" x="108" y="-227" font-family="Helvetica,sans-Serif" font-size="10.00">/CasADiProblem.hpp</text>
</a>
</g>
</g>
<!-- Node4&#45;&gt;Node12 -->
<g id="edge14_Node000004_Node000012" class="edge">
<title>Node4&#45;&gt;Node12</title>
<g id="a_edge14_Node000004_Node000012"><a xlink:title=" ">
<path fill="none" stroke="#63b8ff" d="M251.63,-293.54C222.94,-283.15 189.39,-270.99 161.94,-261.04"/>
<polygon fill="#63b8ff" stroke="#63b8ff" points="250.56,-296.87 261.15,-296.99 252.94,-290.29 250.56,-296.87"/>
</a>
</g>
</g>
<!-- Node4&#45;&gt;Node14 -->
<g id="edge18_Node000004_Node000014" class="edge">
<title>Node4&#45;&gt;Node14</title>
<g id="a_edge18_Node000004_Node000014"><a xlink:title=" ">
<path fill="none" stroke="#63b8ff" d="M351.25,-291.09C365.19,-281.32 380.88,-270.32 393.93,-261.17"/>
<polygon fill="#63b8ff" stroke="#63b8ff" points="349.01,-288.38 342.83,-296.99 353.03,-294.12 349.01,-288.38"/>
</a>
</g>
</g>
<!-- Node6 -->
<g id="Node000006" class="node">
<title>Node6</title>
<g id="a_Node000006"><a xlink:href="CasADiControlProblem_8tpp.html" target="_top" xlink:title=" ">
<polygon fill="white" stroke="#666666" points="582,-107 398,-107 398,-66 582,-66 582,-107"/>
<text text-anchor="start" x="406" y="-95" font-family="Helvetica,sans-Serif" font-size="10.00">src/interop/casadi</text>
<text text-anchor="start" x="406" y="-84" font-family="Helvetica,sans-Serif" font-size="10.00">/include/alpaqa/implementation</text>
<text text-anchor="middle" x="490" y="-73" font-family="Helvetica,sans-Serif" font-size="10.00">/casadi/CasADiControlProblem.tpp</text>
</a>
</g>
</g>
<!-- Node5&#45;&gt;Node6 -->
<g id="edge5_Node000005_Node000006" class="edge">
<title>Node5&#45;&gt;Node6</title>
<g id="a_edge5_Node000005_Node000006"><a xlink:title=" ">
<path fill="none" stroke="#63b8ff" d="M357.03,-218.22C411.93,-204.71 472.7,-188.87 477,-184 495.56,-162.95 495.51,-128.62 493.19,-107.09"/>
<polygon fill="#63b8ff" stroke="#63b8ff" points="356.09,-214.85 347.21,-220.63 357.76,-221.64 356.09,-214.85"/>
</a>
</g>
</g>
<!-- Node5&#45;&gt;Node8 -->
<g id="edge7_Node000005_Node000008" class="edge">
<title>Node5&#45;&gt;Node8</title>
<g id="a_edge7_Node000005_Node000008"><a xlink:title=" ">
<path fill="none" stroke="#63b8ff" d="M306.2,-214.37C321.16,-204.53 338.06,-193.41 352.1,-184.17"/>
<polygon fill="#63b8ff" stroke="#63b8ff" points="304.09,-211.57 297.65,-219.99 307.93,-217.42 304.09,-211.57"/>
</a>
</g>
</g>
<!-- Node9 -->
<g id="Node000009" class="node">
<title>Node9</title>
<g id="a_Node000009"><a xlink:href="CasADiProblem_8tpp.html" target="_top" xlink:title=" ">
<polygon fill="white" stroke="#666666" points="374,-107 202,-107 202,-66 374,-66 374,-107"/>
<text text-anchor="start" x="210" y="-95" font-family="Helvetica,sans-Serif" font-size="10.00">src/interop/casadi</text>
<text text-anchor="start" x="210" y="-84" font-family="Helvetica,sans-Serif" font-size="10.00">/include/alpaqa/implementation</text>
<text text-anchor="middle" x="288" y="-73" font-family="Helvetica,sans-Serif" font-size="10.00">/casadi/CasADiProblem.tpp</text>
</a>
</g>
</g>
<!-- Node5&#45;&gt;Node9 -->
<g id="edge12_Node000005_Node000009" class="edge">
<title>Node5&#45;&gt;Node9</title>
<g id="a_edge12_Node000005_Node000009"><a xlink:title=" ">
<path fill="none" stroke="#63b8ff" d="M271.88,-209.98C275.86,-179.76 281.93,-133.64 285.37,-107.47"/>
<polygon fill="#63b8ff" stroke="#63b8ff" points="268.41,-209.57 270.57,-219.94 275.35,-210.48 268.41,-209.57"/>
</a>
</g>
</g>
<!-- Node11 -->
<g id="Node000011" class="node">
<title>Node11</title>
<g id="a_Node000011"><a xlink:href="CompleteCasADiProblem_8cpp.html" target="_top" xlink:title=" ">
<polygon fill="white" stroke="#666666" points="184,-101.5 4,-101.5 4,-71.5 184,-71.5 184,-101.5"/>
<text text-anchor="start" x="12" y="-89.5" font-family="Helvetica,sans-Serif" font-size="10.00">src/interop/casadi</text>
<text text-anchor="middle" x="94" y="-78.5" font-family="Helvetica,sans-Serif" font-size="10.00">/src/CompleteCasADiProblem.cpp</text>
</a>
</g>
</g>
<!-- Node5&#45;&gt;Node11 -->
<g id="edge13_Node000005_Node000011" class="edge">
<title>Node5&#45;&gt;Node11</title>
<g id="a_edge13_Node000005_Node000011"><a xlink:title=" ">
<path fill="none" stroke="#63b8ff" d="M243.81,-212.4C225.29,-192.3 198.65,-164.73 173,-143 154.84,-127.62 132.52,-112.22 116.24,-101.56"/>
<polygon fill="#63b8ff" stroke="#63b8ff" points="241.41,-214.96 250.73,-219.98 246.57,-210.24 241.41,-214.96"/>
</a>
</g>
</g>
<!-- Node7 -->
<g id="Node000007" class="node">
<title>Node7</title>
<g id="a_Node000007"><a xlink:href="CasADiControlProblem_8cpp.html" target="_top" xlink:title=" ">
<polygon fill="white" stroke="#666666" points="574,-30 406,-30 406,0 574,0 574,-30"/>
<text text-anchor="start" x="414" y="-18" font-family="Helvetica,sans-Serif" font-size="10.00">src/interop/casadi</text>
<text text-anchor="middle" x="490" y="-7" font-family="Helvetica,sans-Serif" font-size="10.00">/src/CasADiControlProblem.cpp</text>
</a>
</g>
</g>
<!-- Node6&#45;&gt;Node7 -->
<g id="edge6_Node000006_Node000007" class="edge">
<title>Node6&#45;&gt;Node7</title>
<g id="a_edge6_Node000006_Node000007"><a xlink:title=" ">
<path fill="none" stroke="#63b8ff" d="M490,-55.66C490,-46.76 490,-37.42 490,-30.04"/>
<polygon fill="#63b8ff" stroke="#63b8ff" points="486.5,-55.77 490,-65.77 493.5,-55.77 486.5,-55.77"/>
</a>
</g>
</g>
<!-- Node8&#45;&gt;Node6 -->
<g id="edge8_Node000008_Node000006" class="edge">
<title>Node8&#45;&gt;Node6</title>
<g id="a_edge8_Node000008_Node000006"><a xlink:title=" ">
<path fill="none" stroke="#63b8ff" d="M418.59,-137.09C432.66,-127.32 448.49,-116.32 461.67,-107.17"/>
<polygon fill="#63b8ff" stroke="#63b8ff" points="416.31,-134.41 410.09,-142.99 420.3,-140.16 416.31,-134.41"/>
</a>
</g>
</g>
<!-- Node8&#45;&gt;Node9 -->
<g id="edge9_Node000008_Node000009" class="edge">
<title>Node8&#45;&gt;Node9</title>
<g id="a_edge9_Node000008_Node000009"><a xlink:title=" ">
<path fill="none" stroke="#63b8ff" d="M349.22,-136.35C337.17,-126.73 323.74,-116.01 312.53,-107.07"/>
<polygon fill="#63b8ff" stroke="#63b8ff" points="347.3,-139.29 357.3,-142.79 351.67,-133.82 347.3,-139.29"/>
</a>
</g>
</g>
<!-- Node8&#45;&gt;Node11 -->
<g id="edge11_Node000008_Node000011" class="edge">
<title>Node8&#45;&gt;Node11</title>
<g id="a_edge11_Node000008_Node000011"><a xlink:title=" ">
<path fill="none" stroke="#63b8ff" d="M297.28,-140.44C249.04,-127.88 190.06,-112.52 148.08,-101.58"/>
<polygon fill="#63b8ff" stroke="#63b8ff" points="296.52,-143.86 307.08,-142.99 298.29,-137.08 296.52,-143.86"/>
</a>
</g>
</g>
<!-- Node10 -->
<g id="Node000010" class="node">
<title>Node10</title>
<g id="a_Node000010"><a xlink:href="CasADiProblem_8cpp.html" target="_top" xlink:title=" ">
<polygon fill="white" stroke="#666666" points="354.5,-30 221.5,-30 221.5,0 354.5,0 354.5,-30"/>
<text text-anchor="start" x="229.5" y="-18" font-family="Helvetica,sans-Serif" font-size="10.00">src/interop/casadi</text>
<text text-anchor="middle" x="288" y="-7" font-family="Helvetica,sans-Serif" font-size="10.00">/src/CasADiProblem.cpp</text>
</a>
</g>
</g>
<!-- Node9&#45;&gt;Node10 -->
<g id="edge10_Node000009_Node000010" class="edge">
<title>Node9&#45;&gt;Node10</title>
<g id="a_edge10_Node000009_Node000010"><a xlink:title=" ">
<path fill="none" stroke="#63b8ff" d="M288,-55.66C288,-46.76 288,-37.42 288,-30.04"/>
<polygon fill="#63b8ff" stroke="#63b8ff" points="284.5,-55.77 288,-65.77 291.5,-55.77 284.5,-55.77"/>
</a>
</g>
</g>
<!-- Node12&#45;&gt;Node9 -->
<g id="edge17_Node000012_Node000009" class="edge">
<title>Node12&#45;&gt;Node9</title>
<g id="a_edge17_Node000012_Node000009"><a xlink:title=" ">
<path fill="none" stroke="#63b8ff" d="M138.86,-213.44C174.54,-183.31 232.49,-134.37 264.64,-107.23"/>
<polygon fill="#63b8ff" stroke="#63b8ff" points="136.55,-210.81 131.16,-219.94 141.06,-216.16 136.55,-210.81"/>
</a>
</g>
</g>
<!-- Node13 -->
<g id="Node000013" class="node">
<title>Node13</title>
<g id="a_Node000013"><a xlink:href="CompleteCasADiProblem_8hpp.html" target="_top" xlink:title=" ">
<polygon fill="white" stroke="#666666" points="164,-184 0,-184 0,-143 164,-143 164,-184"/>
<text text-anchor="start" x="8" y="-172" font-family="Helvetica,sans-Serif" font-size="10.00">src/interop/casadi</text>
<text text-anchor="start" x="8" y="-161" font-family="Helvetica,sans-Serif" font-size="10.00">/include/alpaqa/casadi</text>
<text text-anchor="middle" x="82" y="-150" font-family="Helvetica,sans-Serif" font-size="10.00">/CompleteCasADiProblem.hpp</text>
</a>
</g>
</g>
<!-- Node12&#45;&gt;Node13 -->
<g id="edge15_Node000012_Node000013" class="edge">
<title>Node12&#45;&gt;Node13</title>
<g id="a_edge15_Node000012_Node000013"><a xlink:title=" ">
<path fill="none" stroke="#63b8ff" d="M97.86,-210.26C94.82,-201.48 91.56,-192.07 88.79,-184.07"/>
<polygon fill="#63b8ff" stroke="#63b8ff" points="94.59,-211.49 101.17,-219.79 101.2,-209.2 94.59,-211.49"/>
</a>
</g>
</g>
<!-- Node13&#45;&gt;Node11 -->
<g id="edge16_Node000013_Node000011" class="edge">
<title>Node13&#45;&gt;Node11</title>
<g id="a_edge16_Node000013_Node000011"><a xlink:title=" ">
<path fill="none" stroke="#63b8ff" d="M86.78,-132.61C88.48,-122.01 90.31,-110.57 91.7,-101.86"/>
<polygon fill="#63b8ff" stroke="#63b8ff" points="83.28,-132.37 85.15,-142.79 90.19,-133.47 83.28,-132.37"/>
</a>
</g>
</g>
<!-- Node15&#45;&gt;Node16 -->
<g id="edge22_Node000015_Node000016" class="edge">
<title>Node15&#45;&gt;Node16</title>
<g id="a_edge22_Node000015_Node000016"><a xlink:title=" ">
<path fill="none" stroke="#63b8ff" d="M614.59,-370.15C620.17,-357.82 626.84,-343.11 631.63,-332.54"/>
<polygon fill="#63b8ff" stroke="#63b8ff" points="611.34,-368.84 610.4,-379.39 617.71,-371.73 611.34,-368.84"/>
</a>
</g>
</g>
<!-- Node18 -->
<g id="Node000018" class="node">
<title>Node18</title>
<g id="a_Node000018"><a xlink:href="dl-problem_8cpp.html" target="_top" xlink:title=" ">
<polygon fill="white" stroke="#666666" points="849,-332.5 751,-332.5 751,-302.5 849,-302.5 849,-332.5"/>
<text text-anchor="start" x="759" y="-320.5" font-family="Helvetica,sans-Serif" font-size="10.00">src/interop/dl/src</text>
<text text-anchor="middle" x="800" y="-309.5" font-family="Helvetica,sans-Serif" font-size="10.00">/dl&#45;problem.cpp</text>
</a>
</g>
</g>
<!-- Node17&#45;&gt;Node18 -->
<g id="edge25_Node000017_Node000018" class="edge">
<title>Node17&#45;&gt;Node18</title>
<g id="a_edge25_Node000017_Node000018"><a xlink:title=" ">
<path fill="none" stroke="#63b8ff" d="M800,-369.04C800,-356.95 800,-342.79 800,-332.54"/>
<polygon fill="#63b8ff" stroke="#63b8ff" points="796.5,-369.39 800,-379.39 803.5,-369.39 796.5,-369.39"/>
</a>
</g>
</g>
</g>
</svg>
