<?xml version="1.0" encoding="UTF-8" standalone="no"?>
<!DOCTYPE svg PUBLIC "-//W3C//DTD SVG 1.1//EN"
 "http://www.w3.org/Graphics/SVG/1.1/DTD/svg11.dtd">
<!-- Generated by graphviz version 2.43.0 (0)
 -->
<!-- Title: src/interop/ipopt/src/ipopt&#45;params.cpp Pages: 1 -->
<svg width="1314pt" height="291pt"
 viewBox="0.00 0.00 1313.50 291.00" xmlns="http://www.w3.org/2000/svg" xmlns:xlink="http://www.w3.org/1999/xlink">
<g id="graph0" class="graph" transform="scale(1 1) rotate(0) translate(4 287)">
<title>src/interop/ipopt/src/ipopt&#45;params.cpp</title>
<!-- Node1 -->
<g id="Node000001" class="node">
<title>Node1</title>
<g id="a_Node000001"><a xlink:title=" ">
<polygon fill="#999999" stroke="#666666" points="940,-283 827,-283 827,-253 940,-253 940,-283"/>
<text text-anchor="start" x="835" y="-271" font-family="Helvetica,sans-Serif" font-size="10.00">src/interop/ipopt/src</text>
<text text-anchor="middle" x="883.5" y="-260" font-family="Helvetica,sans-Serif" font-size="10.00">/ipopt&#45;params.cpp</text>
</a>
</g>
</g>
<!-- Node2 -->
<g id="Node000002" class="node">
<title>Node2</title>
<g id="a_Node000002"><a xlink:href="params_8tpp.html" target="_top" xlink:title=" ">
<polygon fill="white" stroke="#666666" points="806,-217 675,-217 675,-187 806,-187 806,-217"/>
<text text-anchor="start" x="683" y="-205" font-family="Helvetica,sans-Serif" font-size="10.00">alpaqa/implementation</text>
<text text-anchor="middle" x="740.5" y="-194" font-family="Helvetica,sans-Serif" font-size="10.00">/params/params.tpp</text>
</a>
</g>
</g>
<!-- Node1&#45;&gt;Node2 -->
<g id="edge1_Node000001_Node000002" class="edge">
<title>Node1&#45;&gt;Node2</title>
<g id="a_edge1_Node000001_Node000002"><a xlink:title=" ">
<path fill="none" stroke="#63b8ff" d="M852.12,-252.95C831.26,-243.62 803.66,-231.27 781.12,-221.18"/>
<polygon fill="#63b8ff" stroke="#63b8ff" points="782.37,-217.9 771.81,-217.01 779.51,-224.29 782.37,-217.9"/>
</a>
</g>
</g>
<!-- Node29 -->
<g id="Node000029" class="node">
<title>Node29</title>
<g id="a_Node000029"><a xlink:title=" ">
<polygon fill="#e0e0e0" stroke="#999999" points="943,-217 824,-217 824,-187 943,-187 943,-217"/>
<text text-anchor="start" x="832" y="-205" font-family="Helvetica,sans-Serif" font-size="10.00">alpaqa/ipopt&#45;adapter</text>
<text text-anchor="middle" x="883.5" y="-194" font-family="Helvetica,sans-Serif" font-size="10.00">&#45;export.h</text>
</a>
</g>
</g>
<!-- Node1&#45;&gt;Node29 -->
<g id="edge36_Node000001_Node000029" class="edge">
<title>Node1&#45;&gt;Node29</title>
<g id="a_edge36_Node000001_Node000029"><a xlink:title=" ">
<path fill="none" stroke="#63b8ff" d="M883.5,-252.8C883.5,-245.34 883.5,-235.99 883.5,-227.41"/>
<polygon fill="#63b8ff" stroke="#63b8ff" points="887,-227.16 883.5,-217.16 880,-227.16 887,-227.16"/>
</a>
</g>
</g>
<!-- Node30 -->
<g id="Node000030" class="node">
<title>Node30</title>
<g id="a_Node000030"><a xlink:title=" ">
<polygon fill="#e0e0e0" stroke="#999999" points="1087.5,-211.5 961.5,-211.5 961.5,-192.5 1087.5,-192.5 1087.5,-211.5"/>
<text text-anchor="middle" x="1024.5" y="-199.5" font-family="Helvetica,sans-Serif" font-size="10.00">IpIpoptApplication.hpp</text>
</a>
</g>
</g>
<!-- Node1&#45;&gt;Node30 -->
<g id="edge37_Node000001_Node000030" class="edge">
<title>Node1&#45;&gt;Node30</title>
<g id="a_edge37_Node000001_Node000030"><a xlink:title=" ">
<path fill="none" stroke="#63b8ff" d="M914.44,-252.95C938.95,-241.83 972.89,-226.42 996.58,-215.67"/>
<polygon fill="#63b8ff" stroke="#63b8ff" points="998.08,-218.84 1005.74,-211.52 995.18,-212.46 998.08,-218.84"/>
</a>
</g>
</g>
<!-- Node3 -->
<g id="Node000003" class="node">
<title>Node3</title>
<g id="a_Node000003"><a xlink:href="params_8hpp.html" target="_top" xlink:title=" ">
<polygon fill="white" stroke="#666666" points="567.5,-145.5 417.5,-145.5 417.5,-126.5 567.5,-126.5 567.5,-145.5"/>
<text text-anchor="middle" x="492.5" y="-133.5" font-family="Helvetica,sans-Serif" font-size="10.00">alpaqa/params/params.hpp</text>
</a>
</g>
</g>
<!-- Node2&#45;&gt;Node3 -->
<g id="edge2_Node000002_Node000003" class="edge">
<title>Node2&#45;&gt;Node3</title>
<g id="a_edge2_Node000002_Node000003"><a xlink:title=" ">
<path fill="none" stroke="#63b8ff" d="M686.08,-186.95C640.76,-175.26 577.12,-158.84 535.36,-148.06"/>
<polygon fill="#63b8ff" stroke="#63b8ff" points="536.06,-144.63 525.5,-145.52 534.31,-151.41 536.06,-144.63"/>
</a>
</g>
</g>
<!-- Node4 -->
<g id="Node000004" class="node">
<title>Node4</title>
<g id="a_Node000004"><a xlink:href="config_8hpp.html" target="_top" xlink:title=" ">
<polygon fill="white" stroke="#666666" points="306,-85 171,-85 171,-66 306,-66 306,-85"/>
<text text-anchor="middle" x="238.5" y="-73" font-family="Helvetica,sans-Serif" font-size="10.00">alpaqa/config/config.hpp</text>
</a>
</g>
</g>
<!-- Node2&#45;&gt;Node4 -->
<g id="edge17_Node000002_Node000004" class="edge">
<title>Node2&#45;&gt;Node4</title>
<g id="a_edge17_Node000002_Node000004"><a xlink:title=" ">
<path fill="none" stroke="#63b8ff" d="M674.84,-196.24C607.06,-190.15 498.8,-177.09 408.5,-151 354.91,-135.52 296.07,-106.91 263.58,-90.01"/>
<polygon fill="#63b8ff" stroke="#63b8ff" points="264.86,-86.73 254.38,-85.17 261.6,-92.92 264.86,-86.73"/>
</a>
</g>
</g>
<!-- Node18 -->
<g id="Node000018" class="node">
<title>Node18</title>
<g id="a_Node000018"><a xlink:href="structs_8hpp.html" target="_top" xlink:title=" ">
<polygon fill="white" stroke="#666666" points="736.5,-145.5 590.5,-145.5 590.5,-126.5 736.5,-126.5 736.5,-145.5"/>
<text text-anchor="middle" x="663.5" y="-133.5" font-family="Helvetica,sans-Serif" font-size="10.00">alpaqa/params/structs.hpp</text>
</a>
</g>
</g>
<!-- Node2&#45;&gt;Node18 -->
<g id="edge18_Node000002_Node000018" class="edge">
<title>Node2&#45;&gt;Node18</title>
<g id="a_edge18_Node000002_Node000018"><a xlink:title=" ">
<path fill="none" stroke="#63b8ff" d="M723.41,-186.8C711.17,-176.62 694.7,-162.93 682.12,-152.48"/>
<polygon fill="#63b8ff" stroke="#63b8ff" points="684.07,-149.54 674.14,-145.84 679.59,-154.93 684.07,-149.54"/>
</a>
</g>
</g>
<!-- Node20 -->
<g id="Node000020" class="node">
<title>Node20</title>
<g id="a_Node000020"><a xlink:href="any-ptr_8hpp.html" target="_top" xlink:title=" ">
<polygon fill="white" stroke="#666666" points="882,-145.5 755,-145.5 755,-126.5 882,-126.5 882,-145.5"/>
<text text-anchor="middle" x="818.5" y="-133.5" font-family="Helvetica,sans-Serif" font-size="10.00">alpaqa/util/any&#45;ptr.hpp</text>
</a>
</g>
</g>
<!-- Node2&#45;&gt;Node20 -->
<g id="edge21_Node000002_Node000020" class="edge">
<title>Node2&#45;&gt;Node20</title>
<g id="a_edge21_Node000002_Node000020"><a xlink:title=" ">
<path fill="none" stroke="#63b8ff" d="M757.81,-186.8C770.21,-176.62 786.9,-162.93 799.63,-152.48"/>
<polygon fill="#63b8ff" stroke="#63b8ff" points="802.21,-154.89 807.72,-145.84 797.77,-149.48 802.21,-154.89"/>
</a>
</g>
</g>
<!-- Node23 -->
<g id="Node000023" class="node">
<title>Node23</title>
<g id="a_Node000023"><a xlink:href="demangled-typename_8hpp.html" target="_top" xlink:title=" ">
<polygon fill="white" stroke="#666666" points="1026.5,-151 900.5,-151 900.5,-121 1026.5,-121 1026.5,-151"/>
<text text-anchor="start" x="908.5" y="-139" font-family="Helvetica,sans-Serif" font-size="10.00">alpaqa/util/demangled</text>
<text text-anchor="middle" x="963.5" y="-128" font-family="Helvetica,sans-Serif" font-size="10.00">&#45;typename.hpp</text>
</a>
</g>
</g>
<!-- Node2&#45;&gt;Node23 -->
<g id="edge25_Node000002_Node000023" class="edge">
<title>Node2&#45;&gt;Node23</title>
<g id="a_edge25_Node000002_Node000023"><a xlink:title=" ">
<path fill="none" stroke="#63b8ff" d="M789.44,-186.95C823.42,-177.2 868.88,-164.16 904.81,-153.84"/>
<polygon fill="#63b8ff" stroke="#63b8ff" points="906.03,-157.14 914.68,-151.01 904.1,-150.41 906.03,-157.14"/>
</a>
</g>
</g>
<!-- Node25 -->
<g id="Node000025" class="node">
<title>Node25</title>
<g id="a_Node000025"><a xlink:href="string-util_8hpp.html" target="_top" xlink:title=" ">
<polygon fill="white" stroke="#666666" points="1144,-151 1045,-151 1045,-121 1144,-121 1144,-151"/>
<text text-anchor="start" x="1053" y="-139" font-family="Helvetica,sans-Serif" font-size="10.00">alpaqa/util/string</text>
<text text-anchor="middle" x="1094.5" y="-128" font-family="Helvetica,sans-Serif" font-size="10.00">&#45;util.hpp</text>
</a>
</g>
</g>
<!-- Node2&#45;&gt;Node25 -->
<g id="edge29_Node000002_Node000025" class="edge">
<title>Node2&#45;&gt;Node25</title>
<g id="a_edge29_Node000002_Node000025"><a xlink:title=" ">
<path fill="none" stroke="#63b8ff" d="M806.34,-188.62C809.43,-188.07 812.5,-187.53 815.5,-187 909.95,-170.46 936.65,-170.43 1034.92,-151.02"/>
<polygon fill="#63b8ff" stroke="#63b8ff" points="1035.86,-154.41 1044.98,-149.02 1034.49,-147.54 1035.86,-154.41"/>
</a>
</g>
</g>
<!-- Node3&#45;&gt;Node4 -->
<g id="edge3_Node000003_Node000004" class="edge">
<title>Node3&#45;&gt;Node4</title>
<g id="a_edge3_Node000003_Node000004"><a xlink:title=" ">
<path fill="none" stroke="#63b8ff" d="M455.57,-126.49C410.61,-116.14 334.62,-98.64 285.53,-87.33"/>
<polygon fill="#63b8ff" stroke="#63b8ff" points="286.01,-83.85 275.48,-85.02 284.44,-90.67 286.01,-83.85"/>
</a>
</g>
</g>
<!-- Node11 -->
<g id="Node000011" class="node">
<title>Node11</title>
<g id="a_Node000011"><a xlink:href="export_8hpp.html" target="_top" xlink:title=" ">
<polygon fill="white" stroke="#666666" points="702,-85 597,-85 597,-66 702,-66 702,-85"/>
<text text-anchor="middle" x="649.5" y="-73" font-family="Helvetica,sans-Serif" font-size="10.00">alpaqa/export.hpp</text>
</a>
</g>
</g>
<!-- Node3&#45;&gt;Node11 -->
<g id="edge10_Node000003_Node000011" class="edge">
<title>Node3&#45;&gt;Node11</title>
<g id="a_edge10_Node000003_Node000011"><a xlink:title=" ">
<path fill="none" stroke="#63b8ff" d="M515.33,-126.49C542.07,-116.53 586.58,-99.95 616.94,-88.63"/>
<polygon fill="#63b8ff" stroke="#63b8ff" points="618.49,-91.79 626.64,-85.02 616.05,-85.23 618.49,-91.79"/>
</a>
</g>
</g>
<!-- Node13 -->
<g id="Node000013" class="node">
<title>Node13</title>
<g id="a_Node000013"><a xlink:title=" ">
<polygon fill="#e0e0e0" stroke="#999999" points="380.5,-85 324.5,-85 324.5,-66 380.5,-66 380.5,-85"/>
<text text-anchor="middle" x="352.5" y="-73" font-family="Helvetica,sans-Serif" font-size="10.00">optional</text>
</a>
</g>
</g>
<!-- Node3&#45;&gt;Node13 -->
<g id="edge12_Node000003_Node000013" class="edge">
<title>Node3&#45;&gt;Node13</title>
<g id="a_edge12_Node000003_Node000013"><a xlink:title=" ">
<path fill="none" stroke="#63b8ff" d="M472.14,-126.49C448.5,-116.62 409.3,-100.23 382.25,-88.93"/>
<polygon fill="#63b8ff" stroke="#63b8ff" points="383.46,-85.64 372.88,-85.02 380.76,-92.1 383.46,-85.64"/>
</a>
</g>
</g>
<!-- Node14 -->
<g id="Node000014" class="node">
<title>Node14</title>
<g id="a_Node000014"><a xlink:title=" ">
<polygon fill="#e0e0e0" stroke="#999999" points="438.5,-85 398.5,-85 398.5,-66 438.5,-66 438.5,-85"/>
<text text-anchor="middle" x="418.5" y="-73" font-family="Helvetica,sans-Serif" font-size="10.00">span</text>
</a>
</g>
</g>
<!-- Node3&#45;&gt;Node14 -->
<g id="edge13_Node000003_Node000014" class="edge">
<title>Node3&#45;&gt;Node14</title>
<g id="a_edge13_Node000003_Node000014"><a xlink:title=" ">
<path fill="none" stroke="#63b8ff" d="M481.58,-126.37C469.99,-117.21 451.47,-102.56 437.48,-91.51"/>
<polygon fill="#63b8ff" stroke="#63b8ff" points="439.48,-88.62 429.46,-85.17 435.14,-94.11 439.48,-88.62"/>
</a>
</g>
</g>
<!-- Node15 -->
<g id="Node000015" class="node">
<title>Node15</title>
<g id="a_Node000015"><a xlink:title=" ">
<polygon fill="#e0e0e0" stroke="#999999" points="522,-85 457,-85 457,-66 522,-66 522,-85"/>
<text text-anchor="middle" x="489.5" y="-73" font-family="Helvetica,sans-Serif" font-size="10.00">stdexcept</text>
</a>
</g>
</g>
<!-- Node3&#45;&gt;Node15 -->
<g id="edge14_Node000003_Node000015" class="edge">
<title>Node3&#45;&gt;Node15</title>
<g id="a_edge14_Node000003_Node000015"><a xlink:title=" ">
<path fill="none" stroke="#63b8ff" d="M492.06,-126.37C491.64,-118.25 491,-105.81 490.47,-95.39"/>
<polygon fill="#63b8ff" stroke="#63b8ff" points="493.95,-94.97 489.94,-85.17 486.96,-95.33 493.95,-94.97"/>
</a>
</g>
</g>
<!-- Node16 -->
<g id="Node000016" class="node">
<title>Node16</title>
<g id="a_Node000016"><a xlink:title=" ">
<polygon fill="#e0e0e0" stroke="#999999" points="793,-85 720,-85 720,-66 793,-66 793,-85"/>
<text text-anchor="middle" x="756.5" y="-73" font-family="Helvetica,sans-Serif" font-size="10.00">string_view</text>
</a>
</g>
</g>
<!-- Node3&#45;&gt;Node16 -->
<g id="edge15_Node000003_Node000016" class="edge">
<title>Node3&#45;&gt;Node16</title>
<g id="a_edge15_Node000003_Node000016"><a xlink:title=" ">
<path fill="none" stroke="#63b8ff" d="M530.89,-126.49C578.35,-115.98 659.07,-98.09 710,-86.8"/>
<polygon fill="#63b8ff" stroke="#63b8ff" points="710.76,-90.22 719.77,-84.64 709.25,-83.39 710.76,-90.22"/>
</a>
</g>
</g>
<!-- Node17 -->
<g id="Node000017" class="node">
<title>Node17</title>
<g id="a_Node000017"><a xlink:title=" ">
<polygon fill="#e0e0e0" stroke="#999999" points="1019,-85 978,-85 978,-66 1019,-66 1019,-85"/>
<text text-anchor="middle" x="998.5" y="-73" font-family="Helvetica,sans-Serif" font-size="10.00">tuple</text>
</a>
</g>
</g>
<!-- Node3&#45;&gt;Node17 -->
<g id="edge16_Node000003_Node000017" class="edge">
<title>Node3&#45;&gt;Node17</title>
<g id="a_edge16_Node000003_Node000017"><a xlink:title=" ">
<path fill="none" stroke="#63b8ff" d="M543.25,-126.45C555.74,-124.5 569.08,-122.55 581.5,-121 750.08,-99.94 797.59,-116.84 967.66,-85.02"/>
<polygon fill="#63b8ff" stroke="#63b8ff" points="968.54,-88.42 977.71,-83.11 967.23,-81.54 968.54,-88.42"/>
</a>
</g>
</g>
<!-- Node5 -->
<g id="Node000005" class="node">
<title>Node5</title>
<g id="a_Node000005"><a xlink:href="quadmath-print_8hpp.html" target="_top" xlink:title=" ">
<polygon fill="white" stroke="#666666" points="487,-30 366,-30 366,0 487,0 487,-30"/>
<text text-anchor="start" x="374" y="-18" font-family="Helvetica,sans-Serif" font-size="10.00">alpaqa/util/quadmath</text>
<text text-anchor="middle" x="426.5" y="-7" font-family="Helvetica,sans-Serif" font-size="10.00">/quadmath&#45;print.hpp</text>
</a>
</g>
</g>
<!-- Node4&#45;&gt;Node5 -->
<g id="edge4_Node000004_Node000005" class="edge">
<title>Node4&#45;&gt;Node5</title>
<g id="a_edge4_Node000004_Node000005"><a xlink:title=" ">
<path fill="none" stroke="#63b8ff" d="M265.84,-65.99C293.48,-57.39 336.98,-43.86 371.75,-33.04"/>
<polygon fill="#63b8ff" stroke="#63b8ff" points="372.79,-36.38 381.3,-30.06 370.71,-29.69 372.79,-36.38"/>
</a>
</g>
</g>
<!-- Node6 -->
<g id="Node000006" class="node">
<title>Node6</title>
<g id="a_Node000006"><a xlink:href="quadmath_8hpp.html" target="_top" xlink:title=" ">
<polygon fill="white" stroke="#666666" points="121,-30 0,-30 0,0 121,0 121,-30"/>
<text text-anchor="start" x="8" y="-18" font-family="Helvetica,sans-Serif" font-size="10.00">alpaqa/util/quadmath</text>
<text text-anchor="middle" x="60.5" y="-7" font-family="Helvetica,sans-Serif" font-size="10.00">/quadmath.hpp</text>
</a>
</g>
</g>
<!-- Node4&#45;&gt;Node6 -->
<g id="edge5_Node000004_Node000006" class="edge">
<title>Node4&#45;&gt;Node6</title>
<g id="a_edge5_Node000004_Node000006"><a xlink:title=" ">
<path fill="none" stroke="#63b8ff" d="M212.62,-65.99C186.66,-57.46 145.96,-44.09 113.19,-33.32"/>
<polygon fill="#63b8ff" stroke="#63b8ff" points="113.89,-29.86 103.29,-30.06 111.7,-36.51 113.89,-29.86"/>
</a>
</g>
</g>
<!-- Node7 -->
<g id="Node000007" class="node">
<title>Node7</title>
<g id="a_Node000007"><a xlink:title=" ">
<polygon fill="#e0e0e0" stroke="#999999" points="198,-24.5 139,-24.5 139,-5.5 198,-5.5 198,-24.5"/>
<text text-anchor="middle" x="168.5" y="-12.5" font-family="Helvetica,sans-Serif" font-size="10.00">complex</text>
</a>
</g>
</g>
<!-- Node4&#45;&gt;Node7 -->
<g id="edge6_Node000004_Node000007" class="edge">
<title>Node4&#45;&gt;Node7</title>
<g id="a_edge6_Node000004_Node000007"><a xlink:title=" ">
<path fill="none" stroke="#63b8ff" d="M228.17,-65.87C217.31,-56.8 200.01,-42.34 186.83,-31.32"/>
<polygon fill="#63b8ff" stroke="#63b8ff" points="188.79,-28.39 178.87,-24.67 184.3,-33.77 188.79,-28.39"/>
</a>
</g>
</g>
<!-- Node8 -->
<g id="Node000008" class="node">
<title>Node8</title>
<g id="a_Node000008"><a xlink:title=" ">
<polygon fill="#e0e0e0" stroke="#999999" points="260.5,-24.5 216.5,-24.5 216.5,-5.5 260.5,-5.5 260.5,-24.5"/>
<text text-anchor="middle" x="238.5" y="-12.5" font-family="Helvetica,sans-Serif" font-size="10.00">limits</text>
</a>
</g>
</g>
<!-- Node4&#45;&gt;Node8 -->
<g id="edge7_Node000004_Node000008" class="edge">
<title>Node4&#45;&gt;Node8</title>
<g id="a_edge7_Node000004_Node000008"><a xlink:title=" ">
<path fill="none" stroke="#63b8ff" d="M238.5,-65.87C238.5,-57.75 238.5,-45.31 238.5,-34.89"/>
<polygon fill="#63b8ff" stroke="#63b8ff" points="242,-34.67 238.5,-24.67 235,-34.67 242,-34.67"/>
</a>
</g>
</g>
<!-- Node9 -->
<g id="Node000009" class="node">
<title>Node9</title>
<g id="a_Node000009"><a xlink:title=" ">
<polygon fill="#e0e0e0" stroke="#999999" points="820,-24.5 751,-24.5 751,-5.5 820,-5.5 820,-24.5"/>
<text text-anchor="middle" x="785.5" y="-12.5" font-family="Helvetica,sans-Serif" font-size="10.00">type_traits</text>
</a>
</g>
</g>
<!-- Node4&#45;&gt;Node9 -->
<g id="edge8_Node000004_Node000009" class="edge">
<title>Node4&#45;&gt;Node9</title>
<g id="a_edge8_Node000004_Node000009"><a xlink:title=" ">
<path fill="none" stroke="#63b8ff" d="M306.1,-66.97C309.28,-66.64 312.42,-66.31 315.5,-66 488.68,-48.45 532.96,-53.02 705.5,-30 717.07,-28.46 729.51,-26.45 741.07,-24.44"/>
<polygon fill="#63b8ff" stroke="#63b8ff" points="741.71,-27.88 750.94,-22.68 740.48,-20.99 741.71,-27.88"/>
</a>
</g>
</g>
<!-- Node10 -->
<g id="Node000010" class="node">
<title>Node10</title>
<g id="a_Node000010"><a xlink:title=" ">
<polygon fill="#e0e0e0" stroke="#999999" points="348,-24.5 279,-24.5 279,-5.5 348,-5.5 348,-24.5"/>
<text text-anchor="middle" x="313.5" y="-12.5" font-family="Helvetica,sans-Serif" font-size="10.00">Eigen/Core</text>
</a>
</g>
</g>
<!-- Node4&#45;&gt;Node10 -->
<g id="edge9_Node000004_Node000010" class="edge">
<title>Node4&#45;&gt;Node10</title>
<g id="a_edge9_Node000004_Node000010"><a xlink:title=" ">
<path fill="none" stroke="#63b8ff" d="M249.57,-65.87C261.31,-56.71 280.09,-42.06 294.26,-31.01"/>
<polygon fill="#63b8ff" stroke="#63b8ff" points="296.66,-33.58 302.39,-24.67 292.35,-28.06 296.66,-33.58"/>
</a>
</g>
</g>
<!-- Node12 -->
<g id="Node000012" class="node">
<title>Node12</title>
<g id="a_Node000012"><a xlink:title=" ">
<polygon fill="#e0e0e0" stroke="#999999" points="696,-24.5 603,-24.5 603,-5.5 696,-5.5 696,-24.5"/>
<text text-anchor="middle" x="649.5" y="-12.5" font-family="Helvetica,sans-Serif" font-size="10.00">alpaqa/export.h</text>
</a>
</g>
</g>
<!-- Node11&#45;&gt;Node12 -->
<g id="edge11_Node000011_Node000012" class="edge">
<title>Node11&#45;&gt;Node12</title>
<g id="a_edge11_Node000011_Node000012"><a xlink:title=" ">
<path fill="none" stroke="#63b8ff" d="M649.5,-65.87C649.5,-57.75 649.5,-45.31 649.5,-34.89"/>
<polygon fill="#63b8ff" stroke="#63b8ff" points="653,-34.67 649.5,-24.67 646,-34.67 653,-34.67"/>
</a>
</g>
</g>
<!-- Node18&#45;&gt;Node16 -->
<g id="edge20_Node000018_Node000016" class="edge">
<title>Node18&#45;&gt;Node16</title>
<g id="a_edge20_Node000018_Node000016"><a xlink:title=" ">
<path fill="none" stroke="#63b8ff" d="M677.22,-126.37C692.2,-116.95 716.39,-101.73 734.12,-90.58"/>
<polygon fill="#63b8ff" stroke="#63b8ff" points="736.12,-93.45 742.72,-85.17 732.39,-87.53 736.12,-93.45"/>
</a>
</g>
</g>
<!-- Node19 -->
<g id="Node000019" class="node">
<title>Node19</title>
<g id="a_Node000019"><a xlink:title=" ">
<polygon fill="#e0e0e0" stroke="#999999" points="578.5,-85 540.5,-85 540.5,-66 578.5,-66 578.5,-85"/>
<text text-anchor="middle" x="559.5" y="-73" font-family="Helvetica,sans-Serif" font-size="10.00">map</text>
</a>
</g>
</g>
<!-- Node18&#45;&gt;Node19 -->
<g id="edge19_Node000018_Node000019" class="edge">
<title>Node18&#45;&gt;Node19</title>
<g id="a_edge19_Node000018_Node000019"><a xlink:title=" ">
<path fill="none" stroke="#63b8ff" d="M648.15,-126.37C631.18,-116.82 603.6,-101.31 583.71,-90.12"/>
<polygon fill="#63b8ff" stroke="#63b8ff" points="585.34,-87.02 574.91,-85.17 581.91,-93.12 585.34,-87.02"/>
</a>
</g>
</g>
<!-- Node20&#45;&gt;Node9 -->
<g id="edge23_Node000020_Node000009" class="edge">
<title>Node20&#45;&gt;Node9</title>
<g id="a_edge23_Node000020_Node000009"><a xlink:title=" ">
<path fill="none" stroke="#63b8ff" d="M816.8,-126.43C814.14,-113.32 808.64,-87.52 802.5,-66 799.47,-55.37 795.52,-43.65 792.19,-34.24"/>
<polygon fill="#63b8ff" stroke="#63b8ff" points="795.46,-32.99 788.78,-24.77 788.87,-35.36 795.46,-32.99"/>
</a>
</g>
</g>
<!-- Node21 -->
<g id="Node000021" class="node">
<title>Node21</title>
<g id="a_Node000021"><a xlink:title=" ">
<polygon fill="#e0e0e0" stroke="#999999" points="885,-85 850,-85 850,-66 885,-66 885,-85"/>
<text text-anchor="middle" x="867.5" y="-73" font-family="Helvetica,sans-Serif" font-size="10.00">any</text>
</a>
</g>
</g>
<!-- Node20&#45;&gt;Node21 -->
<g id="edge22_Node000020_Node000021" class="edge">
<title>Node20&#45;&gt;Node21</title>
<g id="a_edge22_Node000020_Node000021"><a xlink:title=" ">
<path fill="none" stroke="#63b8ff" d="M825.73,-126.37C833.04,-117.64 844.52,-103.93 853.6,-93.09"/>
<polygon fill="#63b8ff" stroke="#63b8ff" points="856.5,-95.08 860.24,-85.17 851.14,-90.59 856.5,-95.08"/>
</a>
</g>
</g>
<!-- Node22 -->
<g id="Node000022" class="node">
<title>Node22</title>
<g id="a_Node000022"><a xlink:title=" ">
<polygon fill="#e0e0e0" stroke="#999999" points="960,-85 903,-85 903,-66 960,-66 960,-85"/>
<text text-anchor="middle" x="931.5" y="-73" font-family="Helvetica,sans-Serif" font-size="10.00">typeinfo</text>
</a>
</g>
</g>
<!-- Node20&#45;&gt;Node22 -->
<g id="edge24_Node000020_Node000022" class="edge">
<title>Node20&#45;&gt;Node22</title>
<g id="a_edge24_Node000020_Node000022"><a xlink:title=" ">
<path fill="none" stroke="#63b8ff" d="M835.17,-126.37C853.78,-116.73 884.12,-101.03 905.78,-89.81"/>
<polygon fill="#63b8ff" stroke="#63b8ff" points="907.49,-92.87 914.76,-85.17 904.27,-86.66 907.49,-92.87"/>
</a>
</g>
</g>
<!-- Node23&#45;&gt;Node11 -->
<g id="edge26_Node000023_Node000011" class="edge">
<title>Node23&#45;&gt;Node11</title>
<g id="a_edge26_Node000023_Node000011"><a xlink:title=" ">
<path fill="none" stroke="#63b8ff" d="M900.29,-122.67C897.32,-122.1 894.38,-121.54 891.5,-121 828.41,-109.07 755.98,-95.81 706.93,-86.89"/>
<polygon fill="#63b8ff" stroke="#63b8ff" points="707.29,-83.4 696.83,-85.06 706.04,-90.29 707.29,-83.4"/>
</a>
</g>
</g>
<!-- Node23&#45;&gt;Node22 -->
<g id="edge28_Node000023_Node000022" class="edge">
<title>Node23&#45;&gt;Node22</title>
<g id="a_edge28_Node000023_Node000022"><a xlink:title=" ">
<path fill="none" stroke="#63b8ff" d="M955.75,-120.84C951.35,-112.78 945.79,-102.62 941.1,-94.06"/>
<polygon fill="#63b8ff" stroke="#63b8ff" points="944.16,-92.36 936.3,-85.27 938.02,-95.72 944.16,-92.36"/>
</a>
</g>
</g>
<!-- Node24 -->
<g id="Node000024" class="node">
<title>Node24</title>
<g id="a_Node000024"><a xlink:title=" ">
<polygon fill="#e0e0e0" stroke="#999999" points="1081.5,-85 1037.5,-85 1037.5,-66 1081.5,-66 1081.5,-85"/>
<text text-anchor="middle" x="1059.5" y="-73" font-family="Helvetica,sans-Serif" font-size="10.00">string</text>
</a>
</g>
</g>
<!-- Node23&#45;&gt;Node24 -->
<g id="edge27_Node000023_Node000024" class="edge">
<title>Node23&#45;&gt;Node24</title>
<g id="a_edge27_Node000023_Node000024"><a xlink:title=" ">
<path fill="none" stroke="#63b8ff" d="M986.74,-120.84C1001.9,-111.6 1021.61,-99.59 1036.69,-90.4"/>
<polygon fill="#63b8ff" stroke="#63b8ff" points="1038.68,-93.29 1045.4,-85.09 1035.04,-87.31 1038.68,-93.29"/>
</a>
</g>
</g>
<!-- Node25&#45;&gt;Node16 -->
<g id="edge34_Node000025_Node000016" class="edge">
<title>Node25&#45;&gt;Node16</title>
<g id="a_edge34_Node000025_Node000016"><a xlink:title=" ">
<path fill="none" stroke="#63b8ff" d="M1044.98,-122.97C1041.78,-122.28 1038.6,-121.61 1035.5,-121 954.36,-104.93 859.06,-90.72 803.46,-82.89"/>
<polygon fill="#63b8ff" stroke="#63b8ff" points="803.6,-79.38 793.22,-81.46 802.63,-86.31 803.6,-79.38"/>
</a>
</g>
</g>
<!-- Node25&#45;&gt;Node17 -->
<g id="edge35_Node000025_Node000017" class="edge">
<title>Node25&#45;&gt;Node17</title>
<g id="a_edge35_Node000025_Node000017"><a xlink:title=" ">
<path fill="none" stroke="#63b8ff" d="M1071.26,-120.84C1056.1,-111.6 1036.39,-99.59 1021.31,-90.4"/>
<polygon fill="#63b8ff" stroke="#63b8ff" points="1022.96,-87.31 1012.6,-85.09 1019.32,-93.29 1022.96,-87.31"/>
</a>
</g>
</g>
<!-- Node25&#45;&gt;Node24 -->
<g id="edge33_Node000025_Node000024" class="edge">
<title>Node25&#45;&gt;Node24</title>
<g id="a_edge33_Node000025_Node000024"><a xlink:title=" ">
<path fill="none" stroke="#63b8ff" d="M1086.03,-120.84C1081.21,-112.78 1075.13,-102.62 1070,-94.06"/>
<polygon fill="#63b8ff" stroke="#63b8ff" points="1072.88,-92.05 1064.74,-85.27 1066.88,-95.64 1072.88,-92.05"/>
</a>
</g>
</g>
<!-- Node26 -->
<g id="Node000026" class="node">
<title>Node26</title>
<g id="a_Node000026"><a xlink:title=" ">
<polygon fill="#e0e0e0" stroke="#999999" points="1163.5,-85 1099.5,-85 1099.5,-66 1163.5,-66 1163.5,-85"/>
<text text-anchor="middle" x="1131.5" y="-73" font-family="Helvetica,sans-Serif" font-size="10.00">algorithm</text>
</a>
</g>
</g>
<!-- Node25&#45;&gt;Node26 -->
<g id="edge30_Node000025_Node000026" class="edge">
<title>Node25&#45;&gt;Node26</title>
<g id="a_edge30_Node000025_Node000026"><a xlink:title=" ">
<path fill="none" stroke="#63b8ff" d="M1103.46,-120.84C1108.61,-112.69 1115.12,-102.4 1120.57,-93.78"/>
<polygon fill="#63b8ff" stroke="#63b8ff" points="1123.57,-95.59 1125.96,-85.27 1117.65,-91.85 1123.57,-95.59"/>
</a>
</g>
</g>
<!-- Node27 -->
<g id="Node000027" class="node">
<title>Node27</title>
<g id="a_Node000027"><a xlink:title=" ">
<polygon fill="#e0e0e0" stroke="#999999" points="1237.5,-85 1181.5,-85 1181.5,-66 1237.5,-66 1237.5,-85"/>
<text text-anchor="middle" x="1209.5" y="-73" font-family="Helvetica,sans-Serif" font-size="10.00">numeric</text>
</a>
</g>
</g>
<!-- Node25&#45;&gt;Node27 -->
<g id="edge31_Node000025_Node000027" class="edge">
<title>Node25&#45;&gt;Node27</title>
<g id="a_edge31_Node000025_Node000027"><a xlink:title=" ">
<path fill="none" stroke="#63b8ff" d="M1122.05,-120.99C1140.72,-111.49 1165.24,-99.02 1183.56,-89.69"/>
<polygon fill="#63b8ff" stroke="#63b8ff" points="1185.19,-92.79 1192.52,-85.14 1182.02,-86.55 1185.19,-92.79"/>
</a>
</g>
</g>
<!-- Node28 -->
<g id="Node000028" class="node">
<title>Node28</title>
<g id="a_Node000028"><a xlink:title=" ">
<polygon fill="#e0e0e0" stroke="#999999" points="1305.5,-85 1255.5,-85 1255.5,-66 1305.5,-66 1305.5,-85"/>
<text text-anchor="middle" x="1280.5" y="-73" font-family="Helvetica,sans-Serif" font-size="10.00">ranges</text>
</a>
</g>
</g>
<!-- Node25&#45;&gt;Node28 -->
<g id="edge32_Node000025_Node000028" class="edge">
<title>Node25&#45;&gt;Node28</title>
<g id="a_edge32_Node000025_Node000028"><a xlink:title=" ">
<path fill="none" stroke="#63b8ff" d="M1139.05,-120.99C1171.78,-110.69 1215.63,-96.9 1245.78,-87.42"/>
<polygon fill="#63b8ff" stroke="#63b8ff" points="1246.96,-90.72 1255.44,-84.38 1244.86,-84.04 1246.96,-90.72"/>
</a>
</g>
</g>
</g>
</svg>
