<?xml version="1.0" encoding="UTF-8" standalone="no"?>
<!DOCTYPE svg PUBLIC "-//W3C//DTD SVG 1.1//EN"
 "http://www.w3.org/Graphics/SVG/1.1/DTD/svg11.dtd">
<!-- Generated by graphviz version 2.43.0 (0)
 -->
<!-- Title: get_dl_flags Pages: 1 -->
<svg width="1451pt" height="285pt"
 viewBox="0.00 0.00 1451.00 284.50" xmlns="http://www.w3.org/2000/svg" xmlns:xlink="http://www.w3.org/1999/xlink">
<g id="graph0" class="graph" transform="scale(1 1) rotate(0) translate(4 280.5)">
<title>get_dl_flags</title>
<!-- Node1 -->
<g id="Node000001" class="node">
<title>Node1</title>
<g id="a_Node000001"><a xlink:title=" ">
<polygon fill="#999999" stroke="#666666" points="75,-143 0,-143 0,-124 75,-124 75,-143"/>
<text text-anchor="middle" x="37.5" y="-131" font-family="Helvetica,sans-Serif" font-size="10.00">get_dl_flags</text>
</a>
</g>
</g>
<!-- Node1&#45;&gt;Node1 -->
<g id="edge1_Node000001_Node000001" class="edge">
<title>Node1&#45;&gt;Node1</title>
<g id="a_edge1_Node000001_Node000001"><a xlink:title=" ">
<path fill="none" stroke="#63b8ff" d="M20.55,-143.08C12.3,-151.73 17.95,-161 37.5,-161 49.72,-161 56.51,-157.38 57.87,-152.55"/>
<polygon fill="#63b8ff" stroke="#63b8ff" points="61.14,-151.3 54.45,-143.08 54.55,-153.68 61.14,-151.3"/>
</a>
</g>
</g>
<!-- Node2 -->
<g id="Node000002" class="node">
<title>Node2</title>
<g id="a_Node000002"><a xlink:href="options_8hpp.html#a91fca5414dbe50bec5104c59d9ebda11" target="_top" xlink:title=" ">
<polygon fill="white" stroke="#666666" points="185,-143 111,-143 111,-124 185,-124 185,-143"/>
<text text-anchor="middle" x="148" y="-131" font-family="Helvetica,sans-Serif" font-size="10.00">set_params</text>
</a>
</g>
</g>
<!-- Node1&#45;&gt;Node2 -->
<g id="edge2_Node000001_Node000002" class="edge">
<title>Node1&#45;&gt;Node2</title>
<g id="a_edge2_Node000001_Node000002"><a xlink:title=" ">
<path fill="none" stroke="#63b8ff" d="M75.23,-133.5C83.36,-133.5 92.08,-133.5 100.54,-133.5"/>
<polygon fill="#63b8ff" stroke="#63b8ff" points="100.67,-137 110.67,-133.5 100.67,-130 100.67,-137"/>
</a>
</g>
</g>
<!-- Node3 -->
<g id="Node000003" class="node">
<title>Node3</title>
<g id="a_Node000003"><a xlink:href="classOptions.html#a8ca2e3915e8acf3cd04e02180e66e9ab" target="_top" xlink:title=" ">
<polygon fill="white" stroke="#666666" points="338,-143 221,-143 221,-124 338,-124 338,-143"/>
<text text-anchor="middle" x="279.5" y="-131" font-family="Helvetica,sans-Serif" font-size="10.00">Options::set_params</text>
</a>
</g>
</g>
<!-- Node2&#45;&gt;Node3 -->
<g id="edge3_Node000002_Node000003" class="edge">
<title>Node2&#45;&gt;Node3</title>
<g id="a_edge3_Node000002_Node000003"><a xlink:title=" ">
<path fill="none" stroke="#63b8ff" d="M185.07,-133.5C193.12,-133.5 201.91,-133.5 210.77,-133.5"/>
<polygon fill="#63b8ff" stroke="#63b8ff" points="210.77,-137 220.77,-133.5 210.77,-130 210.77,-137"/>
</a>
</g>
</g>
<!-- Node4 -->
<g id="Node000004" class="node">
<title>Node4</title>
<g id="a_Node000004"><a xlink:href="namespacealpaqa_1_1params.html#a1f2f7590328c20e04138a91eee5e0e98" target="_top" xlink:title="Get the first argument as a JSON object j.">
<polygon fill="white" stroke="#666666" points="488,-276.5 374,-276.5 374,-246.5 488,-246.5 488,-276.5"/>
<text text-anchor="start" x="382" y="-264.5" font-family="Helvetica,sans-Serif" font-size="10.00">alpaqa::params::get</text>
<text text-anchor="middle" x="431" y="-253.5" font-family="Helvetica,sans-Serif" font-size="10.00">_param</text>
</a>
</g>
</g>
<!-- Node3&#45;&gt;Node4 -->
<g id="edge4_Node000003_Node000004" class="edge">
<title>Node3&#45;&gt;Node4</title>
<g id="a_edge4_Node000003_Node000004"><a xlink:title=" ">
<path fill="none" stroke="#63b8ff" d="M286.91,-143.09C300.71,-163.07 335.12,-209.64 374,-237.5 375.89,-238.85 377.86,-240.15 379.89,-241.39"/>
<polygon fill="#63b8ff" stroke="#63b8ff" points="378.65,-244.7 389.1,-246.47 382.03,-238.57 378.65,-244.7"/>
</a>
</g>
</g>
<!-- Node7 -->
<g id="Node000007" class="node">
<title>Node7</title>
<g id="a_Node000007"><a xlink:href="namespacealpaqa_1_1util.html#a381655901120dbb2a07cec1df230595e" target="_top" xlink:title="Join the list of strings into a single string, using the separator given by opt.">
<polygon fill="white" stroke="#666666" points="478.5,-228.5 383.5,-228.5 383.5,-198.5 478.5,-198.5 478.5,-228.5"/>
<text text-anchor="start" x="391.5" y="-216.5" font-family="Helvetica,sans-Serif" font-size="10.00">alpaqa::util::join</text>
<text text-anchor="middle" x="431" y="-205.5" font-family="Helvetica,sans-Serif" font-size="10.00">_quote</text>
</a>
</g>
</g>
<!-- Node3&#45;&gt;Node7 -->
<g id="edge7_Node000003_Node000007" class="edge">
<title>Node3&#45;&gt;Node7</title>
<g id="a_edge7_Node000003_Node000007"><a xlink:title=" ">
<path fill="none" stroke="#63b8ff" d="M295.05,-143.05C313.15,-154.74 345.19,-174.78 374,-189.5 377.11,-191.09 380.35,-192.67 383.63,-194.21"/>
<polygon fill="#63b8ff" stroke="#63b8ff" points="382.37,-197.48 392.92,-198.45 385.28,-191.11 382.37,-197.48"/>
</a>
</g>
</g>
<!-- Node8 -->
<g id="Node000008" class="node">
<title>Node8</title>
<g id="a_Node000008"><a xlink:href="classOptions.html#a32a1a00438ef83609a2ecf66d9e77056" target="_top" xlink:title=" ">
<polygon fill="white" stroke="#666666" points="485.5,-180 376.5,-180 376.5,-161 485.5,-161 485.5,-180"/>
<text text-anchor="middle" x="431" y="-168" font-family="Helvetica,sans-Serif" font-size="10.00">Options::json_flags</text>
</a>
</g>
</g>
<!-- Node3&#45;&gt;Node8 -->
<g id="edge8_Node000003_Node000008" class="edge">
<title>Node3&#45;&gt;Node8</title>
<g id="a_edge8_Node000003_Node000008"><a xlink:title=" ">
<path fill="none" stroke="#63b8ff" d="M319,-143.03C338.02,-147.74 361.17,-153.47 381.4,-158.47"/>
<polygon fill="#63b8ff" stroke="#63b8ff" points="380.82,-161.93 391.37,-160.94 382.5,-155.14 380.82,-161.93"/>
</a>
</g>
</g>
<!-- Node9 -->
<g id="Node000009" class="node">
<title>Node9</title>
<g id="a_Node000009"><a xlink:href="classOptions.html#a502ee531f4e5cdc1c8dd78e9409a4e8e" target="_top" xlink:title=" ">
<polygon fill="white" stroke="#666666" points="479,-143 383,-143 383,-124 479,-124 479,-143"/>
<text text-anchor="middle" x="431" y="-131" font-family="Helvetica,sans-Serif" font-size="10.00">Options::options</text>
</a>
</g>
</g>
<!-- Node3&#45;&gt;Node9 -->
<g id="edge9_Node000003_Node000009" class="edge">
<title>Node3&#45;&gt;Node9</title>
<g id="a_edge9_Node000003_Node000009"><a xlink:title=" ">
<path fill="none" stroke="#63b8ff" d="M338.3,-133.5C349.62,-133.5 361.5,-133.5 372.8,-133.5"/>
<polygon fill="#63b8ff" stroke="#63b8ff" points="372.99,-137 382.99,-133.5 372.99,-130 372.99,-137"/>
</a>
</g>
</g>
<!-- Node10 -->
<g id="Node000010" class="node">
<title>Node10</title>
<g id="a_Node000010"><a xlink:href="namespacealpaqa_1_1params.html#ab8eefa468e61c2fa2c0e5349c1b3ef12" target="_top" xlink:title="Update/overwrite the first argument based on the JSON object j.">
<polygon fill="white" stroke="#666666" points="651.5,-110.5 538.5,-110.5 538.5,-80.5 651.5,-80.5 651.5,-110.5"/>
<text text-anchor="start" x="546.5" y="-98.5" font-family="Helvetica,sans-Serif" font-size="10.00">alpaqa::params::set</text>
<text text-anchor="middle" x="595" y="-87.5" font-family="Helvetica,sans-Serif" font-size="10.00">_param</text>
</a>
</g>
</g>
<!-- Node3&#45;&gt;Node10 -->
<g id="edge10_Node000003_Node000010" class="edge">
<title>Node3&#45;&gt;Node10</title>
<g id="a_edge10_Node000003_Node000010"><a xlink:title=" ">
<path fill="none" stroke="#63b8ff" d="M325.05,-123.98C340.5,-120.94 357.96,-117.77 374,-115.5 425.5,-108.22 484.18,-103.04 527.98,-99.78"/>
<polygon fill="#63b8ff" stroke="#63b8ff" points="528.5,-103.25 538.22,-99.03 527.99,-96.27 528.5,-103.25"/>
</a>
</g>
</g>
<!-- Node18 -->
<g id="Node000018" class="node">
<title>Node18</title>
<g id="a_Node000018"><a xlink:href="namespacealpaqa_1_1params.html#abadc98653193fbd05b658d62b34f75e7" target="_top" xlink:title="Overwrites t based on the options that start with prefix.">
<polygon fill="white" stroke="#666666" points="487.5,-67.5 374.5,-67.5 374.5,-37.5 487.5,-37.5 487.5,-67.5"/>
<text text-anchor="start" x="382.5" y="-55.5" font-family="Helvetica,sans-Serif" font-size="10.00">alpaqa::params::set</text>
<text text-anchor="middle" x="431" y="-44.5" font-family="Helvetica,sans-Serif" font-size="10.00">_params</text>
</a>
</g>
</g>
<!-- Node3&#45;&gt;Node18 -->
<g id="edge18_Node000003_Node000018" class="edge">
<title>Node3&#45;&gt;Node18</title>
<g id="a_edge18_Node000003_Node000018"><a xlink:title=" ">
<path fill="none" stroke="#63b8ff" d="M297.31,-123.95C315.96,-113.41 347,-96 374,-81.5 379.63,-78.48 385.61,-75.32 391.48,-72.25"/>
<polygon fill="#63b8ff" stroke="#63b8ff" points="393.3,-75.26 400.56,-67.54 390.07,-69.04 393.3,-75.26"/>
</a>
</g>
</g>
<!-- Node20 -->
<g id="Node000020" class="node">
<title>Node20</title>
<g id="a_Node000020"><a xlink:href="classOptions.html#a12df8f934f6bafb37bf4e64529917d06" target="_top" xlink:title=" ">
<polygon fill="white" stroke="#666666" points="472.5,-19 389.5,-19 389.5,0 472.5,0 472.5,-19"/>
<text text-anchor="middle" x="431" y="-7" font-family="Helvetica,sans-Serif" font-size="10.00">Options::used</text>
</a>
</g>
</g>
<!-- Node3&#45;&gt;Node20 -->
<g id="edge21_Node000003_Node000020" class="edge">
<title>Node3&#45;&gt;Node20</title>
<g id="a_edge21_Node000003_Node000020"><a xlink:title=" ">
<path fill="none" stroke="#63b8ff" d="M286.52,-123.88C299.81,-103.41 333.71,-55.2 374,-28.5 376.96,-26.54 380.14,-24.76 383.42,-23.16"/>
<polygon fill="#63b8ff" stroke="#63b8ff" points="385.09,-26.25 392.88,-19.06 382.31,-19.83 385.09,-26.25"/>
</a>
</g>
</g>
<!-- Node5 -->
<g id="Node000005" class="node">
<title>Node5</title>
<g id="a_Node000005"><a xlink:href="namespacealpaqa_1_1params.html#a2ed398728f87219847d2db047fa70195" target="_top" xlink:title=" ">
<polygon fill="white" stroke="#666666" points="652,-276.5 538,-276.5 538,-246.5 652,-246.5 652,-276.5"/>
<text text-anchor="start" x="546" y="-264.5" font-family="Helvetica,sans-Serif" font-size="10.00">alpaqa::params::get</text>
<text text-anchor="middle" x="595" y="-253.5" font-family="Helvetica,sans-Serif" font-size="10.00">_param_default</text>
</a>
</g>
</g>
<!-- Node4&#45;&gt;Node5 -->
<g id="edge5_Node000004_Node000005" class="edge">
<title>Node4&#45;&gt;Node5</title>
<g id="a_edge5_Node000004_Node000005"><a xlink:title=" ">
<path fill="none" stroke="#63b8ff" d="M488.21,-261.5C500.9,-261.5 514.49,-261.5 527.55,-261.5"/>
<polygon fill="#63b8ff" stroke="#63b8ff" points="527.89,-265 537.89,-261.5 527.89,-258 527.89,-265"/>
</a>
</g>
</g>
<!-- Node6 -->
<g id="Node000006" class="node">
<title>Node6</title>
<g id="a_Node000006"><a xlink:href="namespacealpaqa.html#ad0c64aea84b4b70c07be417122dd8e3f" target="_top" xlink:title=" ">
<polygon fill="white" stroke="#666666" points="818,-271 702,-271 702,-252 818,-252 818,-271"/>
<text text-anchor="middle" x="760" y="-259" font-family="Helvetica,sans-Serif" font-size="10.00">alpaqa::enum_name</text>
</a>
</g>
</g>
<!-- Node5&#45;&gt;Node6 -->
<g id="edge6_Node000005_Node000006" class="edge">
<title>Node5&#45;&gt;Node6</title>
<g id="a_edge6_Node000005_Node000006"><a xlink:title=" ">
<path fill="none" stroke="#63b8ff" d="M652.1,-261.5C664.94,-261.5 678.71,-261.5 691.97,-261.5"/>
<polygon fill="#63b8ff" stroke="#63b8ff" points="691.97,-265 701.97,-261.5 691.97,-258 691.97,-265"/>
</a>
</g>
</g>
<!-- Node11 -->
<g id="Node000011" class="node">
<title>Node11</title>
<g id="a_Node000011"><a xlink:href="namespacealpaqa_1_1params.html#a39fab1bdf1cebbc5e1574eac16a9af53" target="_top" xlink:title=" ">
<polygon fill="white" stroke="#666666" points="816.5,-110.5 703.5,-110.5 703.5,-80.5 816.5,-80.5 816.5,-110.5"/>
<text text-anchor="start" x="711.5" y="-98.5" font-family="Helvetica,sans-Serif" font-size="10.00">alpaqa::params::set</text>
<text text-anchor="middle" x="760" y="-87.5" font-family="Helvetica,sans-Serif" font-size="10.00">_param_default</text>
</a>
</g>
</g>
<!-- Node10&#45;&gt;Node11 -->
<g id="edge11_Node000010_Node000011" class="edge">
<title>Node10&#45;&gt;Node11</title>
<g id="a_edge11_Node000010_Node000011"><a xlink:title=" ">
<path fill="none" stroke="#63b8ff" d="M651.64,-95.5C664.94,-95.5 679.27,-95.5 692.99,-95.5"/>
<polygon fill="#63b8ff" stroke="#63b8ff" points="693.33,-99 703.33,-95.5 693.33,-92 693.33,-99"/>
</a>
</g>
</g>
<!-- Node12 -->
<g id="Node000012" class="node">
<title>Node12</title>
<g id="a_Node000012"><a xlink:href="demangled-typename_8cpp.html#a994032931a27ca4de5eea3f786057b17" target="_top" xlink:title="Get the pretty name of the given type as a string.">
<polygon fill="white" stroke="#666666" points="980,-127 854,-127 854,-108 980,-108 980,-127"/>
<text text-anchor="middle" x="917" y="-115" font-family="Helvetica,sans-Serif" font-size="10.00">demangled_typename</text>
</a>
</g>
</g>
<!-- Node11&#45;&gt;Node12 -->
<g id="edge12_Node000011_Node000012" class="edge">
<title>Node11&#45;&gt;Node12</title>
<g id="a_edge12_Node000011_Node000012"><a xlink:title=" ">
<path fill="none" stroke="#63b8ff" d="M816.52,-103.38C825.39,-104.64 834.67,-105.96 843.86,-107.26"/>
<polygon fill="#63b8ff" stroke="#63b8ff" points="843.37,-110.73 853.76,-108.67 844.35,-103.8 843.37,-110.73"/>
</a>
</g>
</g>
<!-- Node13 -->
<g id="Node000013" class="node">
<title>Node13</title>
<g id="a_Node000013"><a xlink:href="namespacealpaqa_1_1params_1_1detail.html#a13c61ce864494c3fe91b86bf8ffda476" target="_top" xlink:title=" ">
<polygon fill="white" stroke="#666666" points="980,-89.5 854,-89.5 854,-59.5 980,-59.5 980,-89.5"/>
<text text-anchor="start" x="862" y="-77.5" font-family="Helvetica,sans-Serif" font-size="10.00">alpaqa::params::detail</text>
<text text-anchor="middle" x="917" y="-66.5" font-family="Helvetica,sans-Serif" font-size="10.00">::set_param_json</text>
</a>
</g>
</g>
<!-- Node11&#45;&gt;Node13 -->
<g id="edge13_Node000011_Node000013" class="edge">
<title>Node11&#45;&gt;Node13</title>
<g id="a_edge13_Node000011_Node000013"><a xlink:title=" ">
<path fill="none" stroke="#63b8ff" d="M816.52,-87.98C825.29,-86.79 834.48,-85.55 843.57,-84.31"/>
<polygon fill="#63b8ff" stroke="#63b8ff" points="844.32,-87.74 853.76,-82.93 843.38,-80.81 844.32,-87.74"/>
</a>
</g>
</g>
<!-- Node14 -->
<g id="Node000014" class="node">
<title>Node14</title>
<g id="a_Node000014"><a xlink:href="namespacealpaqa_1_1params_1_1detail.html#a5eef50360de8527b24463d00629819f8" target="_top" xlink:title=" ">
<polygon fill="white" stroke="#666666" points="1142,-89.5 1016,-89.5 1016,-59.5 1142,-59.5 1142,-89.5"/>
<text text-anchor="start" x="1024" y="-77.5" font-family="Helvetica,sans-Serif" font-size="10.00">alpaqa::params::detail</text>
<text text-anchor="middle" x="1079" y="-66.5" font-family="Helvetica,sans-Serif" font-size="10.00">::find_param_or_throw</text>
</a>
</g>
</g>
<!-- Node13&#45;&gt;Node14 -->
<g id="edge14_Node000013_Node000014" class="edge">
<title>Node13&#45;&gt;Node14</title>
<g id="a_edge14_Node000013_Node000014"><a xlink:title=" ">
<path fill="none" stroke="#63b8ff" d="M980.32,-74.5C988.62,-74.5 997.18,-74.5 1005.63,-74.5"/>
<polygon fill="#63b8ff" stroke="#63b8ff" points="1005.85,-78 1015.85,-74.5 1005.85,-71 1005.85,-78"/>
</a>
</g>
</g>
<!-- Node15 -->
<g id="Node000015" class="node">
<title>Node15</title>
<g id="a_Node000015"><a xlink:href="namespacealpaqa_1_1params_1_1detail.html#a6aa41a8827ffd36b3e2a8e7346a44f19" target="_top" xlink:title=" ">
<polygon fill="white" stroke="#666666" points="1304,-89.5 1178,-89.5 1178,-59.5 1304,-59.5 1304,-89.5"/>
<text text-anchor="start" x="1186" y="-77.5" font-family="Helvetica,sans-Serif" font-size="10.00">alpaqa::params::detail</text>
<text text-anchor="middle" x="1241" y="-66.5" font-family="Helvetica,sans-Serif" font-size="10.00">::join_sorted_keys</text>
</a>
</g>
</g>
<!-- Node14&#45;&gt;Node15 -->
<g id="edge15_Node000014_Node000015" class="edge">
<title>Node14&#45;&gt;Node15</title>
<g id="a_edge15_Node000014_Node000015"><a xlink:title=" ">
<path fill="none" stroke="#63b8ff" d="M1142.32,-74.5C1150.62,-74.5 1159.18,-74.5 1167.63,-74.5"/>
<polygon fill="#63b8ff" stroke="#63b8ff" points="1167.85,-78 1177.85,-74.5 1167.85,-71 1167.85,-78"/>
</a>
</g>
</g>
<!-- Node16 -->
<g id="Node000016" class="node">
<title>Node16</title>
<g id="a_Node000016"><a xlink:href="namespacealpaqa_1_1util.html#aa93b2039064bcb3304233064c0485c9b" target="_top" xlink:title="Join the list of strings into a single string, using the separator given by opt.">
<polygon fill="white" stroke="#666666" points="1439,-106 1344,-106 1344,-87 1439,-87 1439,-106"/>
<text text-anchor="middle" x="1391.5" y="-94" font-family="Helvetica,sans-Serif" font-size="10.00">alpaqa::util::join</text>
</a>
</g>
</g>
<!-- Node15&#45;&gt;Node16 -->
<g id="edge16_Node000015_Node000016" class="edge">
<title>Node15&#45;&gt;Node16</title>
<g id="a_edge16_Node000015_Node000016"><a xlink:title=" ">
<path fill="none" stroke="#63b8ff" d="M1304.12,-83.7C1314.03,-85.17 1324.23,-86.68 1334,-88.13"/>
<polygon fill="#63b8ff" stroke="#63b8ff" points="1333.59,-91.61 1344,-89.61 1334.62,-84.68 1333.59,-91.61"/>
</a>
</g>
</g>
<!-- Node17 -->
<g id="Node000017" class="node">
<title>Node17</title>
<g id="a_Node000017"><a xlink:href="namespacealpaqa_1_1util.html#ab38ac790b4155e7631dfb11d7dfff1c3" target="_top" xlink:title="Sort the given range of strings in&#45;place in a case&#45;insensitive manner.">
<polygon fill="white" stroke="#666666" points="1443,-68.5 1340,-68.5 1340,-38.5 1443,-38.5 1443,-68.5"/>
<text text-anchor="start" x="1348" y="-56.5" font-family="Helvetica,sans-Serif" font-size="10.00">alpaqa::util::sort</text>
<text text-anchor="middle" x="1391.5" y="-45.5" font-family="Helvetica,sans-Serif" font-size="10.00">_case_insensitive</text>
</a>
</g>
</g>
<!-- Node15&#45;&gt;Node17 -->
<g id="edge17_Node000015_Node000017" class="edge">
<title>Node15&#45;&gt;Node17</title>
<g id="a_edge17_Node000015_Node000017"><a xlink:title=" ">
<path fill="none" stroke="#63b8ff" d="M1304.12,-65.72C1312.59,-64.52 1321.28,-63.29 1329.74,-62.09"/>
<polygon fill="#63b8ff" stroke="#63b8ff" points="1330.48,-65.52 1339.89,-60.66 1329.5,-58.59 1330.48,-65.52"/>
</a>
</g>
</g>
<!-- Node18&#45;&gt;Node10 -->
<g id="edge19_Node000018_Node000010" class="edge">
<title>Node18&#45;&gt;Node10</title>
<g id="a_edge19_Node000018_Node000010"><a xlink:title=" ">
<path fill="none" stroke="#63b8ff" d="M487.75,-67.3C500.93,-70.8 515.11,-74.56 528.67,-78.16"/>
<polygon fill="#63b8ff" stroke="#63b8ff" points="527.86,-81.56 538.42,-80.75 529.65,-74.8 527.86,-81.56"/>
</a>
</g>
</g>
<!-- Node19 -->
<g id="Node000019" class="node">
<title>Node19</title>
<g id="a_Node000019"><a xlink:href="namespacealpaqa_1_1params.html#aa3666becfea1ef2eb24d83f592c123e9" target="_top" xlink:title="Split the string full on the first occurrence of tok.">
<polygon fill="white" stroke="#666666" points="666,-62 524,-62 524,-43 666,-43 666,-62"/>
<text text-anchor="middle" x="595" y="-50" font-family="Helvetica,sans-Serif" font-size="10.00">alpaqa::params::split_key</text>
</a>
</g>
</g>
<!-- Node18&#45;&gt;Node19 -->
<g id="edge20_Node000018_Node000019" class="edge">
<title>Node18&#45;&gt;Node19</title>
<g id="a_edge20_Node000018_Node000019"><a xlink:title=" ">
<path fill="none" stroke="#63b8ff" d="M487.75,-52.5C496.11,-52.5 504.86,-52.5 513.6,-52.5"/>
<polygon fill="#63b8ff" stroke="#63b8ff" points="513.84,-56 523.84,-52.5 513.84,-49 513.84,-56"/>
</a>
</g>
</g>
</g>
</svg>
