<?xml version="1.0" encoding="UTF-8" standalone="no"?>
<!DOCTYPE svg PUBLIC "-//W3C//DTD SVG 1.1//EN"
 "http://www.w3.org/Graphics/SVG/1.1/DTD/svg11.dtd">
<!-- Generated by graphviz version 2.43.0 (0)
 -->
<!-- Title: check_dim_msg Pages: 1 -->
<svg width="306pt" height="113pt"
 viewBox="0.00 0.00 306.00 112.50" xmlns="http://www.w3.org/2000/svg" xmlns:xlink="http://www.w3.org/1999/xlink">
<g id="graph0" class="graph" transform="scale(1 1) rotate(0) translate(4 108.5)">
<title>check_dim_msg</title>
<!-- Node1 -->
<g id="Node000001" class="node">
<title>Node1</title>
<g id="a_Node000001"><a xlink:title=" ">
<polygon fill="#999999" stroke="#666666" points="298,-56 203,-56 203,-37 298,-37 298,-56"/>
<text text-anchor="middle" x="250.5" y="-44" font-family="Helvetica,sans-Serif" font-size="10.00">check_dim_msg</text>
</a>
</g>
</g>
<!-- Node2 -->
<g id="Node000002" class="node">
<title>Node2</title>
<g id="a_Node000002"><a xlink:href="classalpaqa_1_1CasADiControlProblem.html#a42d586c61708cc2c925e8ae813ef523b" target="_top" xlink:title=" ">
<polygon fill="white" stroke="#666666" points="167,-104.5 0,-104.5 0,-74.5 167,-74.5 167,-104.5"/>
<text text-anchor="start" x="8" y="-92.5" font-family="Helvetica,sans-Serif" font-size="10.00">alpaqa::CasADiControlProblem</text>
<text text-anchor="middle" x="83.5" y="-81.5" font-family="Helvetica,sans-Serif" font-size="10.00">::check</text>
</a>
</g>
</g>
<!-- Node1&#45;&gt;Node2 -->
<g id="edge1_Node000001_Node000002" class="edge">
<title>Node1&#45;&gt;Node2</title>
<g id="a_edge1_Node000001_Node000002"><a xlink:title=" ">
<path fill="none" stroke="#63b8ff" d="M203.01,-58.62C184.09,-63.55 162.01,-69.3 142.08,-74.49"/>
<polygon fill="#63b8ff" stroke="#63b8ff" points="204.09,-61.95 212.88,-56.04 202.32,-55.18 204.09,-61.95"/>
</a>
</g>
</g>
<!-- Node3 -->
<g id="Node000003" class="node">
<title>Node3</title>
<g id="a_Node000003"><a xlink:href="namespacealpaqa_1_1util.html#ad8c231896e7be7cd900ff0b72ca207a9" target="_top" xlink:title=" ">
<polygon fill="white" stroke="#666666" points="118,-56 49,-56 49,-37 118,-37 118,-56"/>
<text text-anchor="middle" x="83.5" y="-44" font-family="Helvetica,sans-Serif" font-size="10.00">check_dim</text>
</a>
</g>
</g>
<!-- Node1&#45;&gt;Node3 -->
<g id="edge2_Node000001_Node000003" class="edge">
<title>Node1&#45;&gt;Node3</title>
<g id="a_edge2_Node000001_Node000003"><a xlink:title=" ">
<path fill="none" stroke="#63b8ff" d="M192.61,-46.5C167.77,-46.5 139.49,-46.5 118.09,-46.5"/>
<polygon fill="#63b8ff" stroke="#63b8ff" points="192.66,-50 202.66,-46.5 192.66,-43 192.66,-50"/>
</a>
</g>
</g>
<!-- Node4 -->
<g id="Node000004" class="node">
<title>Node4</title>
<g id="a_Node000004"><a xlink:href="namespacealpaqa_1_1util.html#a5c8d4dc69647418a2240d870f0d098a2" target="_top" xlink:title=" ">
<polygon fill="white" stroke="#666666" points="118,-19 49,-19 49,0 118,0 118,-19"/>
<text text-anchor="middle" x="83.5" y="-7" font-family="Helvetica,sans-Serif" font-size="10.00">check_dim</text>
</a>
</g>
</g>
<!-- Node1&#45;&gt;Node4 -->
<g id="edge3_Node000001_Node000004" class="edge">
<title>Node1&#45;&gt;Node4</title>
<g id="a_edge3_Node000001_Node000004"><a xlink:title=" ">
<path fill="none" stroke="#63b8ff" d="M196.98,-34.72C171.1,-28.92 140.68,-22.1 118.01,-17.01"/>
<polygon fill="#63b8ff" stroke="#63b8ff" points="196.48,-38.2 207.01,-36.97 198.02,-31.37 196.48,-38.2"/>
</a>
</g>
</g>
</g>
</svg>
