<?xml version="1.0" encoding="UTF-8" standalone="no"?>
<!DOCTYPE svg PUBLIC "-//W3C//DTD SVG 1.1//EN"
 "http://www.w3.org/Graphics/SVG/1.1/DTD/svg11.dtd">
<!-- Generated by graphviz version 2.43.0 (0)
 -->
<!-- Title: set_param_default Pages: 1 -->
<!--zoomable 543 -->

<svg id="main" version="1.1" xmlns="http://www.w3.org/2000/svg" xmlns:xlink="http://www.w3.org/1999/xlink" xml:space="preserve" onload="init(evt)">
<style type="text/css"><![CDATA[
.node, .edge {opacity: 0.7;}
.node.selected, .edge.selected {opacity: 1;}
.edge:hover path { stroke: red; }
.edge:hover polygon { stroke: red; fill: red; }
]]></style>

<defs>
  <circle id="rim" cx="0" cy="0" r="7"/>
  <circle id="rim2" cx="0" cy="0" r="3.5"/>
  <g id="zoomPlus">
    <use xlink:href="#rim" fill="#404040"><set attributeName="fill" to="#808080" begin="zoomplus.mouseover" end="zoomplus.mouseout"/></use>
    <path d="M-4,0h8M0,-4v8" fill="none" stroke="white" stroke-width="1.5" pointer-events="none"/>
  </g>
  <g id="zoomMin">
    <use xlink:href="#rim" fill="#404040"><set attributeName="fill" to="#808080" begin="zoomminus.mouseover" end="zoomminus.mouseout"/></use>
    <path d="M-4,0h8" fill="none" stroke="white" stroke-width="1.5" pointer-events="none"/>
  </g>
  <g id="arrowUp" transform="translate(30 24)">
    <use xlink:href="#rim"/>
    <path pointer-events="none" fill="none" stroke="white" stroke-width="1.5" d="M0,-3.0v7 M-2.5,-0.5L0,-3.0L2.5,-0.5"/>
  </g>
  <g id="arrowRight" transform="rotate(90) translate(36 -43)">
    <use xlink:href="#rim"/>
    <path pointer-events="none" fill="none" stroke="white" stroke-width="1.5" d="M0,-3.0v7 M-2.5,-0.5L0,-3.0L2.5,-0.5"/>
  </g>
  <g id="arrowDown" transform="rotate(180) translate(-30 -48)">
    <use xlink:href="#rim"/>
    <path pointer-events="none" fill="none" stroke="white" stroke-width="1.5" d="M0,-3.0v7 M-2.5,-0.5L0,-3.0L2.5,-0.5"/>
  </g>
  <g id="arrowLeft" transform="rotate(270) translate(-36 17)">
    <use xlink:href="#rim"/>
    <path pointer-events="none" fill="none" stroke="white" stroke-width="1.5" d="M0,-3.0v7 M-2.5,-0.5L0,-3.0L2.5,-0.5"/>
  </g>
  <g id="resetDef">
    <use xlink:href="#rim2" fill="#404040"><set attributeName="fill" to="#808080" begin="reset.mouseover" end="reset.mouseout"/></use>
  </g>
</defs>
<script type="application/ecmascript">
var viewWidth = 1012;
var viewHeight = 543;
var sectionId = 'dynsection-13';
</script>
<script type="application/ecmascript" xlink:href="svg.min.js"/>
<svg id="graph" class="graph">
<g id="viewport">
<title>set_param_default</title>
<!-- Node1 -->
<g id="Node000001" class="node">
<title>Node1</title>
<g id="a_Node000001"><a xlink:title=" ">
<polygon fill="#999999" stroke="#666666" points="1004,-421 896,-421 896,-402 1004,-402 1004,-421"/>
<text text-anchor="middle" x="950" y="-409" font-family="Helvetica,sans-Serif" font-size="10.00">set_param_default</text>
</a>
</g>
</g>
<!-- Node2 -->
<g id="Node000002" class="node">
<title>Node2</title>
<g id="a_Node000002"><a xlink:href="namespacealpaqa_1_1params.html#acc88b03bbba758799e35f747f8c486a5" target="_top" xlink:title=" ">
<polygon fill="white" stroke="#666666" points="860,-514 792,-514 792,-495 860,-495 860,-514"/>
<text text-anchor="middle" x="826" y="-502" font-family="Helvetica,sans-Serif" font-size="10.00">set_param</text>
</a>
</g>
</g>
<!-- Node1&#45;&gt;Node2 -->
<g id="edge1_Node000001_Node000002" class="edge">
<title>Node1&#45;&gt;Node2</title>
<g id="a_edge1_Node000001_Node000002"><a xlink:title=" ">
<path fill="none" stroke="#63b8ff" d="M931.2,-428.36C913.82,-444.36 886.23,-468.56 860,-486.5 855.69,-489.45 850.85,-492.31 846.24,-494.85"/>
<polygon fill="#63b8ff" stroke="#63b8ff" points="933.93,-430.6 938.86,-421.23 929.16,-425.48 933.93,-430.6"/>
</a>
</g>
</g>
<!-- Node3 -->
<g id="Node000003" class="node">
<title>Node3</title>
<g id="a_Node000003"><a xlink:href="namespacealpaqa_1_1params.html#a8b9871d44068a0406bac89246422849e" target="_top" xlink:title=" ">
<polygon fill="white" stroke="#666666" points="860,-477 792,-477 792,-458 860,-458 860,-477"/>
<text text-anchor="middle" x="826" y="-465" font-family="Helvetica,sans-Serif" font-size="10.00">set_param</text>
</a>
</g>
</g>
<!-- Node1&#45;&gt;Node3 -->
<g id="edge2_Node000001_Node000003" class="edge">
<title>Node1&#45;&gt;Node3</title>
<g id="a_edge2_Node000001_Node000003"><a xlink:title=" ">
<path fill="none" stroke="#63b8ff" d="M918.74,-425.39C896.62,-435.54 867.19,-449.05 847.7,-458"/>
<polygon fill="#63b8ff" stroke="#63b8ff" points="920.4,-428.48 928.03,-421.13 917.48,-422.12 920.4,-428.48"/>
</a>
</g>
</g>
<!-- Node4 -->
<g id="Node000004" class="node">
<title>Node4</title>
<g id="a_Node000004"><a xlink:href="namespacealpaqa_1_1params.html#aa55cf9105eb52b8114309a10303aef30" target="_top" xlink:title=" ">
<polygon fill="white" stroke="#666666" points="860,-440 792,-440 792,-421 860,-421 860,-440"/>
<text text-anchor="middle" x="826" y="-428" font-family="Helvetica,sans-Serif" font-size="10.00">set_param</text>
</a>
</g>
</g>
<!-- Node1&#45;&gt;Node4 -->
<g id="edge3_Node000001_Node000004" class="edge">
<title>Node1&#45;&gt;Node4</title>
<g id="a_edge3_Node000001_Node000004"><a xlink:title=" ">
<path fill="none" stroke="#63b8ff" d="M885.89,-421.33C877.06,-422.7 868.28,-424.07 860.31,-425.31"/>
<polygon fill="#63b8ff" stroke="#63b8ff" points="886.5,-424.78 895.84,-419.78 885.42,-417.86 886.5,-424.78"/>
</a>
</g>
</g>
<!-- Node5 -->
<g id="Node000005" class="node">
<title>Node5</title>
<g id="a_Node000005"><a xlink:href="namespacealpaqa_1_1params.html#a989ff73b0bce74dc762d6b7aa34b1168" target="_top" xlink:title=" ">
<polygon fill="white" stroke="#666666" points="860,-403 792,-403 792,-384 860,-384 860,-403"/>
<text text-anchor="middle" x="826" y="-391" font-family="Helvetica,sans-Serif" font-size="10.00">set_param</text>
</a>
</g>
</g>
<!-- Node1&#45;&gt;Node5 -->
<g id="edge4_Node000001_Node000005" class="edge">
<title>Node1&#45;&gt;Node5</title>
<g id="a_edge4_Node000001_Node000005"><a xlink:title=" ">
<path fill="none" stroke="#63b8ff" d="M885.89,-402.19C877.06,-400.89 868.28,-399.59 860.31,-398.41"/>
<polygon fill="#63b8ff" stroke="#63b8ff" points="885.44,-405.66 895.84,-403.66 886.46,-398.74 885.44,-405.66"/>
</a>
</g>
</g>
<!-- Node6 -->
<g id="Node000006" class="node">
<title>Node6</title>
<g id="a_Node000006"><a xlink:href="namespacealpaqa_1_1params.html#ab8eefa468e61c2fa2c0e5349c1b3ef12" target="_top" xlink:title="Update/overwrite the first argument based on the JSON object j.">
<polygon fill="white" stroke="#666666" points="860,-366 792,-366 792,-347 860,-347 860,-366"/>
<text text-anchor="middle" x="826" y="-354" font-family="Helvetica,sans-Serif" font-size="10.00">set_param</text>
</a>
</g>
</g>
<!-- Node1&#45;&gt;Node6 -->
<g id="edge5_Node000001_Node000006" class="edge">
<title>Node1&#45;&gt;Node6</title>
<g id="a_edge5_Node000001_Node000006"><a xlink:title=" ">
<path fill="none" stroke="#63b8ff" d="M918.57,-397.78C896.74,-387.94 867.86,-374.92 848.42,-366.16"/>
<polygon fill="#63b8ff" stroke="#63b8ff" points="917.19,-401 927.75,-401.92 920.07,-394.62 917.19,-401"/>
</a>
</g>
</g>
<!-- Node28 -->
<g id="Node000028" class="node">
<title>Node28</title>
<g id="a_Node000028"><a xlink:href="namespacealpaqa_1_1params.html#a8d32a134fb842020101c332293223279" target="_top" xlink:title="Update/overwrite the first argument based on the option in s.">
<polygon fill="white" stroke="#666666" points="860,-329 792,-329 792,-310 860,-310 860,-329"/>
<text text-anchor="middle" x="826" y="-317" font-family="Helvetica,sans-Serif" font-size="10.00">set_param</text>
</a>
</g>
</g>
<!-- Node1&#45;&gt;Node28 -->
<g id="edge37_Node000001_Node000028" class="edge">
<title>Node1&#45;&gt;Node28</title>
<g id="a_edge37_Node000001_Node000028"><a xlink:title=" ">
<path fill="none" stroke="#63b8ff" d="M930.75,-395.02C913.23,-379.57 885.71,-356.27 860,-338.5 855.21,-335.19 849.82,-331.91 844.8,-329.04"/>
<polygon fill="#63b8ff" stroke="#63b8ff" points="928.69,-397.88 938.49,-401.91 933.35,-392.65 928.69,-397.88"/>
</a>
</g>
</g>
<!-- Node7 -->
<g id="Node000007" class="node">
<title>Node7</title>
<g id="a_Node000007"><a xlink:href="structalpaqa_1_1params_1_1attribute__accessor_3_01json_01_4.html#a0a5b45f6960fbd1a33565256fa3570c6" target="_top" xlink:title=" ">
<polygon fill="white" stroke="#666666" points="756,-529.5 616,-529.5 616,-499.5 756,-499.5 756,-529.5"/>
<text text-anchor="start" x="624" y="-517.5" font-family="Helvetica,sans-Serif" font-size="10.00">alpaqa::params::attribute</text>
<text text-anchor="middle" x="686" y="-506.5" font-family="Helvetica,sans-Serif" font-size="10.00">_accessor&lt; json &gt;::make</text>
</a>
</g>
</g>
<!-- Node6&#45;&gt;Node7 -->
<g id="edge6_Node000006_Node000007" class="edge">
<title>Node6&#45;&gt;Node7</title>
<g id="a_edge6_Node000006_Node000007"><a xlink:title=" ">
<path fill="none" stroke="#63b8ff" d="M795.04,-372.19C793.95,-373.24 792.93,-374.34 792,-375.5 758.5,-417.28 793.27,-452.04 756,-490.5 752.65,-493.96 748.77,-496.92 744.59,-499.46"/>
<polygon fill="#63b8ff" stroke="#63b8ff" points="797.19,-374.95 802.98,-366.08 792.92,-369.41 797.19,-374.95"/>
</a>
</g>
</g>
<!-- Node8 -->
<g id="Node000008" class="node">
<title>Node8</title>
<g id="a_Node000008"><a xlink:href="structalpaqa_1_1params_1_1attribute__accessor_3_01ParamString_01_4.html#a0a5b45f6960fbd1a33565256fa3570c6" target="_top" xlink:title=" ">
<polygon fill="white" stroke="#666666" points="756,-481 616,-481 616,-440 756,-440 756,-481"/>
<text text-anchor="start" x="624" y="-469" font-family="Helvetica,sans-Serif" font-size="10.00">alpaqa::params::attribute</text>
<text text-anchor="start" x="624" y="-458" font-family="Helvetica,sans-Serif" font-size="10.00">_accessor&lt; ParamString</text>
<text text-anchor="middle" x="686" y="-447" font-family="Helvetica,sans-Serif" font-size="10.00"> &gt;::make</text>
</a>
</g>
</g>
<!-- Node6&#45;&gt;Node8 -->
<g id="edge7_Node000006_Node000008" class="edge">
<title>Node6&#45;&gt;Node8</title>
<g id="a_edge7_Node000006_Node000008"><a xlink:title=" ">
<path fill="none" stroke="#63b8ff" d="M796.1,-371.98C794.66,-373.1 793.28,-374.28 792,-375.5 770.57,-395.9 778.66,-412.47 756,-431.5 752.32,-434.59 748.26,-437.4 744.01,-439.93"/>
<polygon fill="#63b8ff" stroke="#63b8ff" points="798.42,-374.63 804.74,-366.13 794.5,-368.84 798.42,-374.63"/>
</a>
</g>
</g>
<!-- Node9 -->
<g id="Node000009" class="node">
<title>Node9</title>
<g id="a_Node000009"><a xlink:href="namespacealpaqa_1_1params.html#af8d85f5413c4507303b00e5fb7279aea" target="_top" xlink:title=" ">
<polygon fill="white" stroke="#666666" points="720,-422 652,-422 652,-403 720,-403 720,-422"/>
<text text-anchor="middle" x="686" y="-410" font-family="Helvetica,sans-Serif" font-size="10.00">set_param</text>
</a>
</g>
</g>
<!-- Node6&#45;&gt;Node9 -->
<g id="edge8_Node000006_Node000009" class="edge">
<title>Node6&#45;&gt;Node9</title>
<g id="a_edge8_Node000006_Node000009"><a xlink:title=" ">
<path fill="none" stroke="#63b8ff" d="M799.21,-371.1C781.56,-381.03 760.54,-392.69 756,-394.5 744.61,-399.04 731.72,-402.76 720.18,-405.61"/>
<polygon fill="#63b8ff" stroke="#63b8ff" points="801.05,-374.09 808.04,-366.13 797.61,-367.99 801.05,-374.09"/>
</a>
</g>
</g>
<!-- Node10 -->
<g id="Node000010" class="node">
<title>Node10</title>
<g id="a_Node000010"><a xlink:href="namespacealpaqa_1_1params.html#a257fd29e6f4f447cb00eb1f8affdebec" target="_top" xlink:title=" ">
<polygon fill="white" stroke="#666666" points="720,-385 652,-385 652,-366 720,-366 720,-385"/>
<text text-anchor="middle" x="686" y="-373" font-family="Helvetica,sans-Serif" font-size="10.00">set_param</text>
</a>
</g>
</g>
<!-- Node6&#45;&gt;Node10 -->
<g id="edge9_Node000006_Node000010" class="edge">
<title>Node6&#45;&gt;Node10</title>
<g id="a_edge9_Node000006_Node000010"><a xlink:title=" ">
<path fill="none" stroke="#63b8ff" d="M781.9,-362.43C762.01,-365.17 738.77,-368.37 720.26,-370.92"/>
<polygon fill="#63b8ff" stroke="#63b8ff" points="782.52,-365.88 791.95,-361.05 781.56,-358.95 782.52,-365.88"/>
</a>
</g>
</g>
<!-- Node11 -->
<g id="Node000011" class="node">
<title>Node11</title>
<g id="a_Node000011"><a xlink:href="namespacealpaqa_1_1params.html#a09b0cea46e22a098adb003df71cfbe14" target="_top" xlink:title=" ">
<polygon fill="white" stroke="#666666" points="720,-348 652,-348 652,-329 720,-329 720,-348"/>
<text text-anchor="middle" x="686" y="-336" font-family="Helvetica,sans-Serif" font-size="10.00">set_param</text>
</a>
</g>
</g>
<!-- Node6&#45;&gt;Node11 -->
<g id="edge10_Node000006_Node000011" class="edge">
<title>Node6&#45;&gt;Node11</title>
<g id="a_edge10_Node000006_Node000011"><a xlink:title=" ">
<path fill="none" stroke="#63b8ff" d="M781.9,-350.88C762.01,-348.28 738.77,-345.25 720.26,-342.84"/>
<polygon fill="#63b8ff" stroke="#63b8ff" points="781.58,-354.37 791.95,-352.19 782.48,-347.42 781.58,-354.37"/>
</a>
</g>
</g>
<!-- Node12 -->
<g id="Node000012" class="node">
<title>Node12</title>
<g id="a_Node000012"><a xlink:href="namespacealpaqa_1_1params.html#ac4f7014f0993230c417d5f192b784f6a" target="_top" xlink:title=" ">
<polygon fill="white" stroke="#666666" points="720,-311 652,-311 652,-292 720,-292 720,-311"/>
<text text-anchor="middle" x="686" y="-299" font-family="Helvetica,sans-Serif" font-size="10.00">set_param</text>
</a>
</g>
</g>
<!-- Node6&#45;&gt;Node12 -->
<g id="edge11_Node000006_Node000012" class="edge">
<title>Node6&#45;&gt;Node12</title>
<g id="a_edge11_Node000006_Node000012"><a xlink:title=" ">
<path fill="none" stroke="#63b8ff" d="M797.76,-341.94C780.4,-332.72 760.38,-322.22 756,-320.5 744.55,-316 731.64,-312.14 720.11,-309.09"/>
<polygon fill="#63b8ff" stroke="#63b8ff" points="796.54,-345.25 807.01,-346.86 799.83,-339.07 796.54,-345.25"/>
</a>
</g>
</g>
<!-- Node13 -->
<g id="Node000013" class="node">
<title>Node13</title>
<g id="a_Node000013"><a xlink:href="classOptions.html#a8ca2e3915e8acf3cd04e02180e66e9ab" target="_top" xlink:title=" ">
<polygon fill="white" stroke="#666666" points="580,-254 463,-254 463,-235 580,-235 580,-254"/>
<text text-anchor="middle" x="521.5" y="-242" font-family="Helvetica,sans-Serif" font-size="10.00">Options::set_params</text>
</a>
</g>
</g>
<!-- Node6&#45;&gt;Node13 -->
<g id="edge12_Node000006_Node000013" class="edge">
<title>Node6&#45;&gt;Node13</title>
<g id="a_edge12_Node000006_Node000013"><a xlink:title=" ">
<path fill="none" stroke="#63b8ff" d="M795.06,-341.1C794,-340.26 792.97,-339.4 792,-338.5 770.53,-318.69 780.46,-299.47 756,-283.5 727.74,-265.05 639.62,-254.22 580.09,-248.83"/>
<polygon fill="#63b8ff" stroke="#63b8ff" points="793.46,-344.24 803.71,-346.91 797.36,-338.43 793.46,-344.24"/>
</a>
</g>
</g>
<!-- Node27 -->
<g id="Node000027" class="node">
<title>Node27</title>
<g id="a_Node000027"><a xlink:href="namespacealpaqa_1_1params.html#abadc98653193fbd05b658d62b34f75e7" target="_top" xlink:title="Overwrites t based on the options that start with prefix.">
<polygon fill="white" stroke="#666666" points="723,-235 649,-235 649,-216 723,-216 723,-235"/>
<text text-anchor="middle" x="686" y="-223" font-family="Helvetica,sans-Serif" font-size="10.00">set_params</text>
</a>
</g>
</g>
<!-- Node6&#45;&gt;Node27 -->
<g id="edge35_Node000006_Node000027" class="edge">
<title>Node6&#45;&gt;Node27</title>
<g id="a_edge35_Node000006_Node000027"><a xlink:title=" ">
<path fill="none" stroke="#63b8ff" d="M794.35,-340.89C793.52,-340.13 792.74,-339.33 792,-338.5 763.61,-306.64 786.91,-278.91 756,-249.5 747,-240.93 734.77,-235.41 723.12,-231.85"/>
<polygon fill="#63b8ff" stroke="#63b8ff" points="792.42,-343.82 802.52,-347 796.6,-338.21 792.42,-343.82"/>
</a>
</g>
</g>
<!-- Node14 -->
<g id="Node000014" class="node">
<title>Node14</title>
<g id="a_Node000014"><a xlink:href="options_8hpp.html#a91fca5414dbe50bec5104c59d9ebda11" target="_top" xlink:title=" ">
<polygon fill="white" stroke="#666666" points="427,-254 353,-254 353,-235 427,-235 427,-254"/>
<text text-anchor="middle" x="390" y="-242" font-family="Helvetica,sans-Serif" font-size="10.00">set_params</text>
</a>
</g>
</g>
<!-- Node13&#45;&gt;Node14 -->
<g id="edge13_Node000013_Node000014" class="edge">
<title>Node13&#45;&gt;Node14</title>
<g id="a_edge13_Node000013_Node000014"><a xlink:title=" ">
<path fill="none" stroke="#63b8ff" d="M452.93,-244.5C444.05,-244.5 435.25,-244.5 427.18,-244.5"/>
<polygon fill="#63b8ff" stroke="#63b8ff" points="452.95,-248 462.95,-244.5 452.95,-241 452.95,-248"/>
</a>
</g>
</g>
<!-- Node15 -->
<g id="Node000015" class="node">
<title>Node15</title>
<g id="a_Node000015"><a xlink:href="namespaceanonymous__namespace_02problem_8cpp_03.html#a1b79c8c67d4bc5eba618a86e8b0a7744" target="_top" xlink:title=" ">
<polygon fill="white" stroke="#666666" points="314,-517 179,-517 179,-476 314,-476 314,-517"/>
<text text-anchor="start" x="187" y="-505" font-family="Helvetica,sans-Serif" font-size="10.00">anonymous_namespace</text>
<text text-anchor="start" x="187" y="-494" font-family="Helvetica,sans-Serif" font-size="10.00">{problem::cpp}::get</text>
<text text-anchor="middle" x="246.5" y="-483" font-family="Helvetica,sans-Serif" font-size="10.00">_dl_flags</text>
</a>
</g>
</g>
<!-- Node14&#45;&gt;Node15 -->
<g id="edge14_Node000014_Node000015" class="edge">
<title>Node14&#45;&gt;Node15</title>
<g id="a_edge14_Node000014_Node000015"><a xlink:title=" ">
<path fill="none" stroke="#63b8ff" d="M387.4,-264.64C383.12,-306.19 367.98,-402.46 317,-461.5 312.23,-467.02 306.38,-471.77 300.12,-475.83"/>
<polygon fill="#63b8ff" stroke="#63b8ff" points="390.91,-264.72 388.34,-254.45 383.94,-264.08 390.91,-264.72"/>
</a>
</g>
</g>
<!-- Node16 -->
<g id="Node000016" class="node">
<title>Node16</title>
<g id="a_Node000016"><a xlink:href="alpaqa-driver_8cpp.html#a53c823aeddf0a1b037645504d26ee7cd" target="_top" xlink:title=" ">
<polygon fill="white" stroke="#666666" points="297,-419 196,-419 196,-400 297,-400 297,-419"/>
<text text-anchor="middle" x="246.5" y="-407" font-family="Helvetica,sans-Serif" font-size="10.00">get_output_paths</text>
</a>
</g>
</g>
<!-- Node14&#45;&gt;Node16 -->
<g id="edge16_Node000014_Node000016" class="edge">
<title>Node14&#45;&gt;Node16</title>
<g id="a_edge16_Node000014_Node000016"><a xlink:title=" ">
<path fill="none" stroke="#63b8ff" d="M384.99,-263.93C377.42,-295.58 357.97,-358.07 317,-391.5 311.21,-396.23 304.31,-399.73 297.15,-402.32"/>
<polygon fill="#63b8ff" stroke="#63b8ff" points="388.41,-264.65 387.19,-254.12 381.58,-263.12 388.41,-264.65"/>
</a>
</g>
</g>
<!-- Node17 -->
<g id="Node000017" class="node">
<title>Node17</title>
<g id="a_Node000017"><a xlink:href="alpaqa-driver_8cpp.html#ac0f2228420376f4db7e1274f2b41667c" target="_top" xlink:title=" ">
<polygon fill="white" stroke="#666666" points="90.5,-400 49.5,-400 49.5,-381 90.5,-381 90.5,-400"/>
<text text-anchor="middle" x="70" y="-388" font-family="Helvetica,sans-Serif" font-size="10.00">main</text>
</a>
</g>
</g>
<!-- Node14&#45;&gt;Node17 -->
<g id="edge24_Node000014_Node000017" class="edge">
<title>Node14&#45;&gt;Node17</title>
<g id="a_edge24_Node000014_Node000017"><a xlink:title=" ">
<path fill="none" stroke="#63b8ff" d="M388.08,-264.58C385.08,-303.97 372.18,-390.83 317,-428.5 243.47,-478.69 128.99,-423.5 87.07,-400.03"/>
<polygon fill="#63b8ff" stroke="#63b8ff" points="391.59,-264.59 388.72,-254.39 384.6,-264.15 391.59,-264.59"/>
</a>
</g>
</g>
<!-- Node18 -->
<g id="Node000018" class="node">
<title>Node18</title>
<g id="a_Node000018"><a xlink:href="alpaqa-driver_8cpp.html#a62667720f096806ed08c60e4207f8972" target="_top" xlink:title=" ">
<polygon fill="white" stroke="#666666" points="301,-382 192,-382 192,-363 301,-363 301,-382"/>
<text text-anchor="middle" x="246.5" y="-370" font-family="Helvetica,sans-Serif" font-size="10.00">get_output_stream</text>
</a>
</g>
</g>
<!-- Node14&#45;&gt;Node18 -->
<g id="edge18_Node000014_Node000018" class="edge">
<title>Node14&#45;&gt;Node18</title>
<g id="a_edge18_Node000014_Node000018"><a xlink:title=" ">
<path fill="none" stroke="#63b8ff" d="M381.68,-263.58C371.18,-288.36 349.45,-331.22 317,-354.5 312.24,-357.91 306.89,-360.68 301.31,-362.93"/>
<polygon fill="#63b8ff" stroke="#63b8ff" points="384.98,-264.75 385.5,-254.17 378.5,-262.12 384.98,-264.75"/>
</a>
</g>
</g>
<!-- Node19 -->
<g id="Node000019" class="node">
<title>Node19</title>
<g id="a_Node000019"><a xlink:href="alpaqa-driver_8cpp.html#a3430011226186bf05d5c2552270587b7" target="_top" xlink:title=" ">
<polygon fill="white" stroke="#666666" points="300,-345 193,-345 193,-326 300,-326 300,-345"/>
<text text-anchor="middle" x="246.5" y="-333" font-family="Helvetica,sans-Serif" font-size="10.00">get_solver_builder</text>
</a>
</g>
</g>
<!-- Node14&#45;&gt;Node19 -->
<g id="edge20_Node000014_Node000019" class="edge">
<title>Node14&#45;&gt;Node19</title>
<g id="a_edge20_Node000014_Node000019"><a xlink:title=" ">
<path fill="none" stroke="#63b8ff" d="M375.87,-262.57C362.79,-279.27 341.2,-303.55 317,-317.5 311.06,-320.92 304.47,-323.71 297.77,-325.97"/>
<polygon fill="#63b8ff" stroke="#63b8ff" points="378.98,-264.26 382.23,-254.18 373.4,-260.04 378.98,-264.26"/>
</a>
</g>
</g>
<!-- Node20 -->
<g id="Node000020" class="node">
<title>Node20</title>
<g id="a_Node000020"><a xlink:href="namespaceanonymous__namespace_02problem_8cpp_03.html#ab42fb3dc0421d6c6c1f45d753a95a2c4" target="_top" xlink:title=" ">
<polygon fill="white" stroke="#666666" points="314,-290 179,-290 179,-249 314,-249 314,-290"/>
<text text-anchor="start" x="187" y="-278" font-family="Helvetica,sans-Serif" font-size="10.00">anonymous_namespace</text>
<text text-anchor="start" x="187" y="-267" font-family="Helvetica,sans-Serif" font-size="10.00">{problem::cpp}::load</text>
<text text-anchor="middle" x="246.5" y="-256" font-family="Helvetica,sans-Serif" font-size="10.00">_initial_guess</text>
</a>
</g>
</g>
<!-- Node14&#45;&gt;Node20 -->
<g id="edge22_Node000014_Node000020" class="edge">
<title>Node14&#45;&gt;Node20</title>
<g id="a_edge22_Node000014_Node000020"><a xlink:title=" ">
<path fill="none" stroke="#63b8ff" d="M342.84,-252.66C333.63,-254.28 323.79,-256.02 314.05,-257.74"/>
<polygon fill="#63b8ff" stroke="#63b8ff" points="343.69,-256.06 352.93,-250.87 342.47,-249.17 343.69,-256.06"/>
</a>
</g>
</g>
<!-- Node21 -->
<g id="Node000021" class="node">
<title>Node21</title>
<g id="a_Node000021"><a xlink:href="alm-driver_8hpp.html#ae4ef291d9ec9d55ee804b5723ea2e641" target="_top" xlink:title=" ">
<polygon fill="white" stroke="#666666" points="298,-133 195,-133 195,-114 298,-114 298,-133"/>
<text text-anchor="middle" x="246.5" y="-121" font-family="Helvetica,sans-Serif" font-size="10.00">make_alm_solver</text>
</a>
</g>
</g>
<!-- Node14&#45;&gt;Node21 -->
<g id="edge25_Node000014_Node000021" class="edge">
<title>Node14&#45;&gt;Node21</title>
<g id="a_edge25_Node000014_Node000021"><a xlink:title=" ">
<path fill="none" stroke="#63b8ff" d="M380.88,-225.62C369.85,-202.26 347.91,-162.97 317,-141.5 311.37,-137.59 304.95,-134.53 298.34,-132.13"/>
<polygon fill="#63b8ff" stroke="#63b8ff" points="377.74,-227.16 385.05,-234.83 384.11,-224.28 377.74,-227.16"/>
</a>
</g>
</g>
<!-- Node22 -->
<g id="Node000022" class="node">
<title>Node22</title>
<g id="a_Node000022"><a xlink:href="namespaceanonymous__namespace_02fista-driver_8cpp_03.html#a479d5f0dacbf404f04a694bb1be6f6c5" target="_top" xlink:title=" ">
<polygon fill="white" stroke="#666666" points="138.5,-192 1.5,-192 1.5,-151 138.5,-151 138.5,-192"/>
<text text-anchor="start" x="9.5" y="-180" font-family="Helvetica,sans-Serif" font-size="10.00">anonymous_namespace</text>
<text text-anchor="start" x="9.5" y="-169" font-family="Helvetica,sans-Serif" font-size="10.00">{fista&#45;driver::cpp}</text>
<text text-anchor="middle" x="70" y="-158" font-family="Helvetica,sans-Serif" font-size="10.00">::make_fista_driver_impl</text>
</a>
</g>
</g>
<!-- Node14&#45;&gt;Node22 -->
<g id="edge29_Node000014_Node000022" class="edge">
<title>Node14&#45;&gt;Node22</title>
<g id="a_edge29_Node000014_Node000022"><a xlink:title=" ">
<path fill="none" stroke="#63b8ff" d="M342.71,-235.85C299.43,-227.55 233.09,-214.27 176,-200.5 163.87,-197.57 151.01,-194.23 138.61,-190.88"/>
<polygon fill="#63b8ff" stroke="#63b8ff" points="342.18,-239.31 352.66,-237.75 343.49,-232.43 342.18,-239.31"/>
</a>
</g>
</g>
<!-- Node23 -->
<g id="Node000023" class="node">
<title>Node23</title>
<g id="a_Node000023"><a xlink:href="namespaceanonymous__namespace_02panoc-driver_8cpp_03.html#ab2ca1091ea82102367666b62756cd7f6" target="_top" xlink:title=" ">
<polygon fill="white" stroke="#666666" points="140,-132 0,-132 0,-91 140,-91 140,-132"/>
<text text-anchor="start" x="8" y="-120" font-family="Helvetica,sans-Serif" font-size="10.00">anonymous_namespace</text>
<text text-anchor="start" x="8" y="-109" font-family="Helvetica,sans-Serif" font-size="10.00">{panoc&#45;driver::cpp}</text>
<text text-anchor="middle" x="70" y="-98" font-family="Helvetica,sans-Serif" font-size="10.00">::make_panoc_like_driver</text>
</a>
</g>
</g>
<!-- Node14&#45;&gt;Node23 -->
<g id="edge33_Node000014_Node000023" class="edge">
<title>Node14&#45;&gt;Node23</title>
<g id="a_edge33_Node000014_Node000023"><a xlink:title=" ">
<path fill="none" stroke="#63b8ff" d="M385.53,-224.79C378.75,-192.93 360.41,-130.99 317,-104.5 263.39,-71.78 190.23,-78.95 137.66,-90.98"/>
<polygon fill="#63b8ff" stroke="#63b8ff" points="382.12,-225.56 387.47,-234.7 388.99,-224.22 382.12,-225.56"/>
</a>
</g>
</g>
<!-- Node24 -->
<g id="Node000024" class="node">
<title>Node24</title>
<g id="a_Node000024"><a xlink:href="namespaceanonymous__namespace_02pantr-driver_8cpp_03.html#a39b6aa8ff07d8400d404f191bdccd499" target="_top" xlink:title=" ">
<polygon fill="white" stroke="#666666" points="139,-70 1,-70 1,-29 139,-29 139,-70"/>
<text text-anchor="start" x="9" y="-58" font-family="Helvetica,sans-Serif" font-size="10.00">anonymous_namespace</text>
<text text-anchor="start" x="9" y="-47" font-family="Helvetica,sans-Serif" font-size="10.00">{pantr&#45;driver::cpp}</text>
<text text-anchor="middle" x="70" y="-36" font-family="Helvetica,sans-Serif" font-size="10.00">::make_pantr_like_solver</text>
</a>
</g>
</g>
<!-- Node14&#45;&gt;Node24 -->
<g id="edge34_Node000014_Node000024" class="edge">
<title>Node14&#45;&gt;Node24</title>
<g id="a_edge34_Node000014_Node000024"><a xlink:title=" ">
<path fill="none" stroke="#63b8ff" d="M386.82,-224.79C381.72,-188.95 365.5,-113.5 317,-77.5 266.26,-39.84 192.68,-36.2 139.22,-39.92"/>
<polygon fill="#63b8ff" stroke="#63b8ff" points="383.38,-225.45 388.11,-234.93 390.32,-224.57 383.38,-225.45"/>
</a>
</g>
</g>
<!-- Node25 -->
<g id="Node000025" class="node">
<title>Node25</title>
<g id="a_Node000025"><a xlink:href="namespaceanonymous__namespace_02fista-driver_8cpp_03.html#a6f96d677b5961c6a4fcaa773f37ca65b" target="_top" xlink:title=" ">
<polygon fill="white" stroke="#666666" points="317,-192 176,-192 176,-151 317,-151 317,-192"/>
<text text-anchor="start" x="184" y="-180" font-family="Helvetica,sans-Serif" font-size="10.00">anonymous_namespace</text>
<text text-anchor="start" x="184" y="-169" font-family="Helvetica,sans-Serif" font-size="10.00">{fista&#45;driver::cpp}</text>
<text text-anchor="middle" x="246.5" y="-158" font-family="Helvetica,sans-Serif" font-size="10.00">::make_inner_fista_solver</text>
</a>
</g>
</g>
<!-- Node14&#45;&gt;Node25 -->
<g id="edge30_Node000014_Node000025" class="edge">
<title>Node14&#45;&gt;Node25</title>
<g id="a_edge30_Node000014_Node000025"><a xlink:title=" ">
<path fill="none" stroke="#63b8ff" d="M361.81,-229.99C348.36,-222.86 331.86,-214.16 317,-206.5 307.87,-201.79 298.04,-196.8 288.73,-192.1"/>
<polygon fill="#63b8ff" stroke="#63b8ff" points="360.53,-233.27 371,-234.88 363.81,-227.09 360.53,-233.27"/>
</a>
</g>
</g>
<!-- Node26 -->
<g id="Node000026" class="node">
<title>Node26</title>
<g id="a_Node000026"><a xlink:href="alm-driver_8hpp.html#a51b2a2cde56762bcb43a2f4da0913f98" target="_top" xlink:title=" ">
<polygon fill="white" stroke="#666666" points="301,-19 192,-19 192,0 301,0 301,-19"/>
<text text-anchor="middle" x="246.5" y="-7" font-family="Helvetica,sans-Serif" font-size="10.00">make_inner_solver</text>
</a>
</g>
</g>
<!-- Node14&#45;&gt;Node26 -->
<g id="edge32_Node000014_Node000026" class="edge">
<title>Node14&#45;&gt;Node26</title>
<g id="a_edge32_Node000014_Node000026"><a xlink:title=" ">
<path fill="none" stroke="#63b8ff" d="M387.89,-224.93C384.5,-183.77 370.94,-87.64 317,-33.5 310.69,-27.17 302.64,-22.51 294.26,-19.07"/>
<polygon fill="#63b8ff" stroke="#63b8ff" points="384.4,-225.26 388.6,-234.99 391.39,-224.77 384.4,-225.26"/>
</a>
</g>
</g>
<!-- Node15&#45;&gt;Node15 -->
<g id="edge15_Node000015_Node000015" class="edge">
<title>Node15&#45;&gt;Node15</title>
<g id="a_edge15_Node000015_Node000015"><a xlink:title=" ">
<path fill="none" stroke="#63b8ff" d="M270.93,-526.96C267.3,-531.74 259.15,-535 246.5,-535 226.25,-535 217.55,-526.65 220.4,-517.1"/>
<polygon fill="#63b8ff" stroke="#63b8ff" points="274.38,-527.54 272.6,-517.1 267.48,-526.37 274.38,-527.54"/>
</a>
</g>
</g>
<!-- Node16&#45;&gt;Node17 -->
<g id="edge17_Node000016_Node000017" class="edge">
<title>Node16&#45;&gt;Node17</title>
<g id="a_edge17_Node000016_Node000017"><a xlink:title=" ">
<path fill="none" stroke="#63b8ff" d="M185.92,-403.01C152.87,-399.41 113.91,-395.17 90.9,-392.67"/>
<polygon fill="#63b8ff" stroke="#63b8ff" points="185.64,-406.5 195.96,-404.11 186.4,-399.54 185.64,-406.5"/>
</a>
</g>
</g>
<!-- Node18&#45;&gt;Node17 -->
<g id="edge19_Node000018_Node000017" class="edge">
<title>Node18&#45;&gt;Node17</title>
<g id="a_edge19_Node000018_Node000017"><a xlink:title=" ">
<path fill="none" stroke="#63b8ff" d="M181.48,-379.1C149.37,-382.42 112.74,-386.19 90.76,-388.46"/>
<polygon fill="#63b8ff" stroke="#63b8ff" points="182.13,-382.56 191.72,-378.05 181.41,-375.59 182.13,-382.56"/>
</a>
</g>
</g>
<!-- Node19&#45;&gt;Node17 -->
<g id="edge21_Node000019_Node000017" class="edge">
<title>Node19&#45;&gt;Node17</title>
<g id="a_edge21_Node000019_Node000017"><a xlink:title=" ">
<path fill="none" stroke="#63b8ff" d="M199.24,-347.71C191.46,-349.89 183.48,-352.2 176,-354.5 145.98,-363.74 111.62,-375.81 90.62,-383.36"/>
<polygon fill="#63b8ff" stroke="#63b8ff" points="200.24,-351.06 208.94,-345.03 198.37,-344.31 200.24,-351.06"/>
</a>
</g>
</g>
<!-- Node20&#45;&gt;Node20 -->
<g id="edge23_Node000020_Node000020" class="edge">
<title>Node20&#45;&gt;Node20</title>
<g id="a_edge23_Node000020_Node000020"><a xlink:title=" ">
<path fill="none" stroke="#63b8ff" d="M270.93,-299.96C267.3,-304.74 259.15,-308 246.5,-308 226.25,-308 217.55,-299.65 220.4,-290.1"/>
<polygon fill="#63b8ff" stroke="#63b8ff" points="274.38,-300.54 272.6,-290.1 267.48,-299.37 274.38,-300.54"/>
</a>
</g>
</g>
<!-- Node21&#45;&gt;Node22 -->
<g id="edge26_Node000021_Node000022" class="edge">
<title>Node21&#45;&gt;Node22</title>
<g id="a_edge26_Node000021_Node000022"><a xlink:title=" ">
<path fill="none" stroke="#63b8ff" d="M198.03,-135.63C190.64,-137.56 183.11,-139.56 176,-141.5 163.93,-144.79 151.1,-148.37 138.71,-151.89"/>
<polygon fill="#63b8ff" stroke="#63b8ff" points="199.15,-138.95 207.94,-133.04 197.38,-132.18 199.15,-138.95"/>
</a>
</g>
</g>
<!-- Node21&#45;&gt;Node23 -->
<g id="edge27_Node000021_Node000023" class="edge">
<title>Node21&#45;&gt;Node23</title>
<g id="a_edge27_Node000021_Node000023"><a xlink:title=" ">
<path fill="none" stroke="#63b8ff" d="M184.37,-119.3C170.08,-118.31 154.77,-117.26 140.17,-116.26"/>
<polygon fill="#63b8ff" stroke="#63b8ff" points="184.34,-122.8 194.56,-120 184.82,-115.82 184.34,-122.8"/>
</a>
</g>
</g>
<!-- Node21&#45;&gt;Node24 -->
<g id="edge28_Node000021_Node000024" class="edge">
<title>Node21&#45;&gt;Node24</title>
<g id="a_edge28_Node000021_Node000024"><a xlink:title=" ">
<path fill="none" stroke="#63b8ff" d="M213.55,-109.95C187.22,-98.78 149.45,-82.77 119.41,-70.03"/>
<polygon fill="#63b8ff" stroke="#63b8ff" points="212.47,-113.3 223.04,-113.98 215.2,-106.85 212.47,-113.3"/>
</a>
</g>
</g>
<!-- Node25&#45;&gt;Node22 -->
<g id="edge31_Node000025_Node000022" class="edge">
<title>Node25&#45;&gt;Node22</title>
<g id="a_edge31_Node000025_Node000022"><a xlink:title=" ">
<path fill="none" stroke="#63b8ff" d="M165.65,-171.5C156.61,-171.5 147.48,-171.5 138.62,-171.5"/>
<polygon fill="#63b8ff" stroke="#63b8ff" points="165.78,-175 175.78,-171.5 165.78,-168 165.78,-175"/>
</a>
</g>
</g>
<!-- Node27&#45;&gt;Node13 -->
<g id="edge36_Node000027_Node000013" class="edge">
<title>Node27&#45;&gt;Node13</title>
<g id="a_edge36_Node000027_Node000013"><a xlink:title=" ">
<path fill="none" stroke="#63b8ff" d="M638.85,-230.9C620.59,-233.03 599.41,-235.51 580.16,-237.76"/>
<polygon fill="#63b8ff" stroke="#63b8ff" points="639.41,-234.35 648.94,-229.72 638.6,-227.4 639.41,-234.35"/>
</a>
</g>
</g>
</g>
</svg>

<g id="navigator" transform="translate(0 0)" fill="#404254">
  <rect fill="#f2f5e9" fill-opacity="0.5" stroke="#606060" stroke-width=".5" x="0" y="0" width="60" height="60"/>
  <use id="zoomplus" xlink:href="#zoomPlus" x="17" y="9" onmousedown="handleZoom(evt,'in')"/>
  <use id="zoomminus" xlink:href="#zoomMin" x="42" y="9" onmousedown="handleZoom(evt,'out')"/>
  <use id="reset" xlink:href="#resetDef" x="30" y="36" onmousedown="handleReset()"/>
   <use id="arrowup" xlink:href="#arrowUp" x="0" y="0" onmousedown="handlePan(0,-1)"/>
  <use id="arrowright" xlink:href="#arrowRight" x="0" y="0" onmousedown="handlePan(1,0)"/>
  <use id="arrowdown" xlink:href="#arrowDown" x="0" y="0" onmousedown="handlePan(0,1)"/>
  <use id="arrowleft" xlink:href="#arrowLeft" x="0" y="0" onmousedown="handlePan(-1,0)"/>
</g>
<svg viewBox="0 0 15 15" width="100%" height="30px" preserveAspectRatio="xMaxYMin meet">
 <g id="arrow_out" transform="scale(0.3 0.3)">
  <a xlink:href="namespacealpaqa_1_1params_a39fab1bdf1cebbc5e1574eac16a9af53_icgraph_org.svg" target="_base">
   <rect id="button" ry="5" rx="5" y="6" x="6" height="38" width="38"
        fill="#f2f5e9" fill-opacity="0.5" stroke="#606060" stroke-width="1.0"/>
   <path id="arrow"
     d="M 11.500037,31.436501 C 11.940474,20.09759 22.043105,11.32322 32.158766,21.979434 L 37.068811,17.246167 C 37.068811,17.246167 37.088388,32 37.088388,32 L 22.160133,31.978069 C 22.160133,31.978069 26.997745,27.140456 26.997745,27.140456 C 18.528582,18.264221 13.291696,25.230495 11.500037,31.436501 z"
     style="fill:#404040;"/>
  </a>
 </g>
</svg>

<style type='text/css'>
<![CDATA[
[data-mouse-over-selected='false'] { opacity: 0.7; }
[data-mouse-over-selected='true']  { opacity: 1.0; }
]]>
</style>
<script type="application/ecmascript"><![CDATA[
document.addEventListener('DOMContentLoaded', (event) => {
  highlightEdges();
  highlightAdjacentNodes();
});
]]></script>
</svg>
