<?xml version="1.0" encoding="UTF-8" standalone="no"?>
<!DOCTYPE svg PUBLIC "-//W3C//DTD SVG 1.1//EN"
 "http://www.w3.org/Graphics/SVG/1.1/DTD/svg11.dtd">
<!-- Generated by graphviz version 2.43.0 (0)
 -->
<!-- Title: enum_name Pages: 1 -->
<svg width="1024pt" height="543pt"
 viewBox="0.00 0.00 1024.00 543.00" xmlns="http://www.w3.org/2000/svg" xmlns:xlink="http://www.w3.org/1999/xlink">
<g id="graph0" class="graph" transform="scale(1 1) rotate(0) translate(4 539)">
<title>enum_name</title>
<!-- Node1 -->
<g id="Node000001" class="node">
<title>Node1</title>
<g id="a_Node000001"><a xlink:title=" ">
<polygon fill="#999999" stroke="#666666" points="1016,-280 939,-280 939,-261 1016,-261 1016,-280"/>
<text text-anchor="middle" x="977.5" y="-268" font-family="Helvetica,sans-Serif" font-size="10.00">enum_name</text>
</a>
</g>
</g>
<!-- Node2 -->
<g id="Node000002" class="node">
<title>Node2</title>
<g id="a_Node000002"><a xlink:href="namespacealpaqa_1_1params.html#a2ed398728f87219847d2db047fa70195" target="_top" xlink:title=" ">
<polygon fill="white" stroke="#666666" points="903,-328.5 789,-328.5 789,-298.5 903,-298.5 903,-328.5"/>
<text text-anchor="start" x="797" y="-316.5" font-family="Helvetica,sans-Serif" font-size="10.00">alpaqa::params::get</text>
<text text-anchor="middle" x="846" y="-305.5" font-family="Helvetica,sans-Serif" font-size="10.00">_param_default</text>
</a>
</g>
</g>
<!-- Node1&#45;&gt;Node2 -->
<g id="edge1_Node000001_Node000002" class="edge">
<title>Node1&#45;&gt;Node2</title>
<g id="a_edge1_Node000001_Node000002"><a xlink:title=" ">
<path fill="none" stroke="#63b8ff" d="M938.15,-283.23C923.73,-288.02 907.19,-293.51 892.19,-298.49"/>
<polygon fill="#63b8ff" stroke="#63b8ff" points="939.37,-286.52 947.76,-280.04 937.17,-279.87 939.37,-286.52"/>
</a>
</g>
</g>
<!-- Node21 -->
<g id="Node000021" class="node">
<title>Node21</title>
<g id="a_Node000021"><a xlink:href="namespacealpaqa.html#a4ed614cb5771cd1fc48ef1d82a6319b1" target="_top" xlink:title=" ">
<polygon fill="white" stroke="#666666" points="883,-280 809,-280 809,-261 883,-261 883,-280"/>
<text text-anchor="middle" x="846" y="-268" font-family="Helvetica,sans-Serif" font-size="10.00">operator&lt;&lt;</text>
</a>
</g>
</g>
<!-- Node1&#45;&gt;Node21 -->
<g id="edge29_Node000001_Node000021" class="edge">
<title>Node1&#45;&gt;Node21</title>
<g id="a_edge29_Node000001_Node000021"><a xlink:title=" ">
<path fill="none" stroke="#63b8ff" d="M928.58,-270.5C913.6,-270.5 897.33,-270.5 883.29,-270.5"/>
<polygon fill="#63b8ff" stroke="#63b8ff" points="928.7,-274 938.7,-270.5 928.7,-267 928.7,-274"/>
</a>
</g>
</g>
<!-- Node22 -->
<g id="Node000022" class="node">
<title>Node22</title>
<g id="a_Node000022"><a xlink:href="namespacealpaqa.html#a797997145c9f744791f3b96e8db4cf39" target="_top" xlink:title=" ">
<polygon fill="white" stroke="#666666" points="883,-243 809,-243 809,-224 883,-224 883,-243"/>
<text text-anchor="middle" x="846" y="-231" font-family="Helvetica,sans-Serif" font-size="10.00">operator&lt;&lt;</text>
</a>
</g>
</g>
<!-- Node1&#45;&gt;Node22 -->
<g id="edge30_Node000001_Node000022" class="edge">
<title>Node1&#45;&gt;Node22</title>
<g id="a_edge30_Node000001_Node000022"><a xlink:title=" ">
<path fill="none" stroke="#63b8ff" d="M933.36,-258.17C916.21,-253.27 896.77,-247.72 880.69,-243.12"/>
<polygon fill="#63b8ff" stroke="#63b8ff" points="932.57,-261.59 943.15,-260.97 934.5,-254.86 932.57,-261.59"/>
</a>
</g>
</g>
<!-- Node3 -->
<g id="Node000003" class="node">
<title>Node3</title>
<g id="a_Node000003"><a xlink:href="namespacealpaqa_1_1params.html#ac41193c19fc55cee0820ccbf0b51f19a" target="_top" xlink:title=" ">
<polygon fill="white" stroke="#666666" points="753,-376.5 639,-376.5 639,-346.5 753,-346.5 753,-376.5"/>
<text text-anchor="start" x="647" y="-364.5" font-family="Helvetica,sans-Serif" font-size="10.00">alpaqa::params::get</text>
<text text-anchor="middle" x="696" y="-353.5" font-family="Helvetica,sans-Serif" font-size="10.00">_param</text>
</a>
</g>
</g>
<!-- Node2&#45;&gt;Node3 -->
<g id="edge2_Node000002_Node000003" class="edge">
<title>Node2&#45;&gt;Node3</title>
<g id="a_edge2_Node000002_Node000003"><a xlink:title=" ">
<path fill="none" stroke="#63b8ff" d="M788.87,-331.71C773.81,-336.59 757.71,-341.81 743.26,-346.5"/>
<polygon fill="#63b8ff" stroke="#63b8ff" points="790.15,-334.97 798.58,-328.56 787.99,-328.31 790.15,-334.97"/>
</a>
</g>
</g>
<!-- Node4 -->
<g id="Node000004" class="node">
<title>Node4</title>
<g id="a_Node000004"><a xlink:href="namespacealpaqa_1_1params.html#aa9f7e1616af20dacef3f25bf8c32942d" target="_top" xlink:title=" ">
<polygon fill="white" stroke="#666666" points="753,-328.5 639,-328.5 639,-298.5 753,-298.5 753,-328.5"/>
<text text-anchor="start" x="647" y="-316.5" font-family="Helvetica,sans-Serif" font-size="10.00">alpaqa::params::get</text>
<text text-anchor="middle" x="696" y="-305.5" font-family="Helvetica,sans-Serif" font-size="10.00">_param</text>
</a>
</g>
</g>
<!-- Node2&#45;&gt;Node4 -->
<g id="edge3_Node000002_Node000004" class="edge">
<title>Node2&#45;&gt;Node4</title>
<g id="a_edge3_Node000002_Node000004"><a xlink:title=" ">
<path fill="none" stroke="#63b8ff" d="M778.44,-313.5C770.02,-313.5 761.46,-313.5 753.22,-313.5"/>
<polygon fill="#63b8ff" stroke="#63b8ff" points="778.63,-317 788.63,-313.5 778.63,-310 778.63,-317"/>
</a>
</g>
</g>
<!-- Node5 -->
<g id="Node000005" class="node">
<title>Node5</title>
<g id="a_Node000005"><a xlink:href="namespacealpaqa_1_1params.html#a1f2f7590328c20e04138a91eee5e0e98" target="_top" xlink:title="Get the first argument as a JSON object j.">
<polygon fill="white" stroke="#666666" points="753,-280.5 639,-280.5 639,-250.5 753,-250.5 753,-280.5"/>
<text text-anchor="start" x="647" y="-268.5" font-family="Helvetica,sans-Serif" font-size="10.00">alpaqa::params::get</text>
<text text-anchor="middle" x="696" y="-257.5" font-family="Helvetica,sans-Serif" font-size="10.00">_param</text>
</a>
</g>
</g>
<!-- Node2&#45;&gt;Node5 -->
<g id="edge4_Node000002_Node000005" class="edge">
<title>Node2&#45;&gt;Node5</title>
<g id="a_edge4_Node000002_Node000005"><a xlink:title=" ">
<path fill="none" stroke="#63b8ff" d="M788.87,-295.29C773.81,-290.41 757.71,-285.19 743.26,-280.5"/>
<polygon fill="#63b8ff" stroke="#63b8ff" points="787.99,-298.69 798.58,-298.44 790.15,-292.03 787.99,-298.69"/>
</a>
</g>
</g>
<!-- Node6 -->
<g id="Node000006" class="node">
<title>Node6</title>
<g id="a_Node000006"><a xlink:href="structalpaqa_1_1params_1_1attribute__accessor_3_01json_01_4.html#a0a5b45f6960fbd1a33565256fa3570c6" target="_top" xlink:title=" ">
<polygon fill="white" stroke="#666666" points="603,-302.5 463,-302.5 463,-272.5 603,-272.5 603,-302.5"/>
<text text-anchor="start" x="471" y="-290.5" font-family="Helvetica,sans-Serif" font-size="10.00">alpaqa::params::attribute</text>
<text text-anchor="middle" x="533" y="-279.5" font-family="Helvetica,sans-Serif" font-size="10.00">_accessor&lt; json &gt;::make</text>
</a>
</g>
</g>
<!-- Node5&#45;&gt;Node6 -->
<g id="edge5_Node000005_Node000006" class="edge">
<title>Node5&#45;&gt;Node6</title>
<g id="a_edge5_Node000005_Node000006"><a xlink:title=" ">
<path fill="none" stroke="#63b8ff" d="M628.55,-274.58C620.12,-275.73 611.49,-276.91 603.03,-278.07"/>
<polygon fill="#63b8ff" stroke="#63b8ff" points="629.26,-278.02 638.69,-273.19 628.31,-271.08 629.26,-278.02"/>
</a>
</g>
</g>
<!-- Node7 -->
<g id="Node000007" class="node">
<title>Node7</title>
<g id="a_Node000007"><a xlink:href="classOptions.html#a8ca2e3915e8acf3cd04e02180e66e9ab" target="_top" xlink:title=" ">
<polygon fill="white" stroke="#666666" points="591.5,-254 474.5,-254 474.5,-235 591.5,-235 591.5,-254"/>
<text text-anchor="middle" x="533" y="-242" font-family="Helvetica,sans-Serif" font-size="10.00">Options::set_params</text>
</a>
</g>
</g>
<!-- Node5&#45;&gt;Node7 -->
<g id="edge6_Node000005_Node000007" class="edge">
<title>Node5&#45;&gt;Node7</title>
<g id="a_edge6_Node000005_Node000007"><a xlink:title=" ">
<path fill="none" stroke="#63b8ff" d="M628.54,-256.83C616.29,-255.23 603.6,-253.58 591.64,-252.02"/>
<polygon fill="#63b8ff" stroke="#63b8ff" points="628.32,-260.33 638.69,-258.16 629.23,-253.39 628.32,-260.33"/>
</a>
</g>
</g>
<!-- Node8 -->
<g id="Node000008" class="node">
<title>Node8</title>
<g id="a_Node000008"><a xlink:href="options_8hpp.html#a91fca5414dbe50bec5104c59d9ebda11" target="_top" xlink:title=" ">
<polygon fill="white" stroke="#666666" points="427,-254 353,-254 353,-235 427,-235 427,-254"/>
<text text-anchor="middle" x="390" y="-242" font-family="Helvetica,sans-Serif" font-size="10.00">set_params</text>
</a>
</g>
</g>
<!-- Node7&#45;&gt;Node8 -->
<g id="edge7_Node000007_Node000008" class="edge">
<title>Node7&#45;&gt;Node8</title>
<g id="a_edge7_Node000007_Node000008"><a xlink:title=" ">
<path fill="none" stroke="#63b8ff" d="M464.05,-244.5C451.27,-244.5 438.37,-244.5 427.05,-244.5"/>
<polygon fill="#63b8ff" stroke="#63b8ff" points="464.24,-248 474.24,-244.5 464.24,-241 464.24,-248"/>
</a>
</g>
</g>
<!-- Node9 -->
<g id="Node000009" class="node">
<title>Node9</title>
<g id="a_Node000009"><a xlink:href="namespaceanonymous__namespace_02problem_8cpp_03.html#a1b79c8c67d4bc5eba618a86e8b0a7744" target="_top" xlink:title=" ">
<polygon fill="white" stroke="#666666" points="314,-517 179,-517 179,-476 314,-476 314,-517"/>
<text text-anchor="start" x="187" y="-505" font-family="Helvetica,sans-Serif" font-size="10.00">anonymous_namespace</text>
<text text-anchor="start" x="187" y="-494" font-family="Helvetica,sans-Serif" font-size="10.00">{problem::cpp}::get</text>
<text text-anchor="middle" x="246.5" y="-483" font-family="Helvetica,sans-Serif" font-size="10.00">_dl_flags</text>
</a>
</g>
</g>
<!-- Node8&#45;&gt;Node9 -->
<g id="edge8_Node000008_Node000009" class="edge">
<title>Node8&#45;&gt;Node9</title>
<g id="a_edge8_Node000008_Node000009"><a xlink:title=" ">
<path fill="none" stroke="#63b8ff" d="M387.4,-264.64C383.12,-306.19 367.98,-402.46 317,-461.5 312.23,-467.02 306.38,-471.77 300.12,-475.83"/>
<polygon fill="#63b8ff" stroke="#63b8ff" points="390.91,-264.72 388.34,-254.45 383.94,-264.08 390.91,-264.72"/>
</a>
</g>
</g>
<!-- Node10 -->
<g id="Node000010" class="node">
<title>Node10</title>
<g id="a_Node000010"><a xlink:href="alpaqa-driver_8cpp.html#a53c823aeddf0a1b037645504d26ee7cd" target="_top" xlink:title=" ">
<polygon fill="white" stroke="#666666" points="297,-419 196,-419 196,-400 297,-400 297,-419"/>
<text text-anchor="middle" x="246.5" y="-407" font-family="Helvetica,sans-Serif" font-size="10.00">get_output_paths</text>
</a>
</g>
</g>
<!-- Node8&#45;&gt;Node10 -->
<g id="edge10_Node000008_Node000010" class="edge">
<title>Node8&#45;&gt;Node10</title>
<g id="a_edge10_Node000008_Node000010"><a xlink:title=" ">
<path fill="none" stroke="#63b8ff" d="M384.99,-263.93C377.42,-295.58 357.97,-358.07 317,-391.5 311.21,-396.23 304.31,-399.73 297.15,-402.32"/>
<polygon fill="#63b8ff" stroke="#63b8ff" points="388.41,-264.65 387.19,-254.12 381.58,-263.12 388.41,-264.65"/>
</a>
</g>
</g>
<!-- Node11 -->
<g id="Node000011" class="node">
<title>Node11</title>
<g id="a_Node000011"><a xlink:href="alpaqa-driver_8cpp.html#ac0f2228420376f4db7e1274f2b41667c" target="_top" xlink:title=" ">
<polygon fill="white" stroke="#666666" points="90.5,-400 49.5,-400 49.5,-381 90.5,-381 90.5,-400"/>
<text text-anchor="middle" x="70" y="-388" font-family="Helvetica,sans-Serif" font-size="10.00">main</text>
</a>
</g>
</g>
<!-- Node8&#45;&gt;Node11 -->
<g id="edge18_Node000008_Node000011" class="edge">
<title>Node8&#45;&gt;Node11</title>
<g id="a_edge18_Node000008_Node000011"><a xlink:title=" ">
<path fill="none" stroke="#63b8ff" d="M388.08,-264.58C385.08,-303.97 372.18,-390.83 317,-428.5 243.47,-478.69 128.99,-423.5 87.07,-400.03"/>
<polygon fill="#63b8ff" stroke="#63b8ff" points="391.59,-264.59 388.72,-254.39 384.6,-264.15 391.59,-264.59"/>
</a>
</g>
</g>
<!-- Node12 -->
<g id="Node000012" class="node">
<title>Node12</title>
<g id="a_Node000012"><a xlink:href="alpaqa-driver_8cpp.html#a62667720f096806ed08c60e4207f8972" target="_top" xlink:title=" ">
<polygon fill="white" stroke="#666666" points="301,-382 192,-382 192,-363 301,-363 301,-382"/>
<text text-anchor="middle" x="246.5" y="-370" font-family="Helvetica,sans-Serif" font-size="10.00">get_output_stream</text>
</a>
</g>
</g>
<!-- Node8&#45;&gt;Node12 -->
<g id="edge12_Node000008_Node000012" class="edge">
<title>Node8&#45;&gt;Node12</title>
<g id="a_edge12_Node000008_Node000012"><a xlink:title=" ">
<path fill="none" stroke="#63b8ff" d="M381.68,-263.58C371.18,-288.36 349.45,-331.22 317,-354.5 312.24,-357.91 306.89,-360.68 301.31,-362.93"/>
<polygon fill="#63b8ff" stroke="#63b8ff" points="384.98,-264.75 385.5,-254.17 378.5,-262.12 384.98,-264.75"/>
</a>
</g>
</g>
<!-- Node13 -->
<g id="Node000013" class="node">
<title>Node13</title>
<g id="a_Node000013"><a xlink:href="alpaqa-driver_8cpp.html#a3430011226186bf05d5c2552270587b7" target="_top" xlink:title=" ">
<polygon fill="white" stroke="#666666" points="300,-345 193,-345 193,-326 300,-326 300,-345"/>
<text text-anchor="middle" x="246.5" y="-333" font-family="Helvetica,sans-Serif" font-size="10.00">get_solver_builder</text>
</a>
</g>
</g>
<!-- Node8&#45;&gt;Node13 -->
<g id="edge14_Node000008_Node000013" class="edge">
<title>Node8&#45;&gt;Node13</title>
<g id="a_edge14_Node000008_Node000013"><a xlink:title=" ">
<path fill="none" stroke="#63b8ff" d="M375.87,-262.57C362.79,-279.27 341.2,-303.55 317,-317.5 311.06,-320.92 304.47,-323.71 297.77,-325.97"/>
<polygon fill="#63b8ff" stroke="#63b8ff" points="378.98,-264.26 382.23,-254.18 373.4,-260.04 378.98,-264.26"/>
</a>
</g>
</g>
<!-- Node14 -->
<g id="Node000014" class="node">
<title>Node14</title>
<g id="a_Node000014"><a xlink:href="namespaceanonymous__namespace_02problem_8cpp_03.html#ab42fb3dc0421d6c6c1f45d753a95a2c4" target="_top" xlink:title=" ">
<polygon fill="white" stroke="#666666" points="314,-290 179,-290 179,-249 314,-249 314,-290"/>
<text text-anchor="start" x="187" y="-278" font-family="Helvetica,sans-Serif" font-size="10.00">anonymous_namespace</text>
<text text-anchor="start" x="187" y="-267" font-family="Helvetica,sans-Serif" font-size="10.00">{problem::cpp}::load</text>
<text text-anchor="middle" x="246.5" y="-256" font-family="Helvetica,sans-Serif" font-size="10.00">_initial_guess</text>
</a>
</g>
</g>
<!-- Node8&#45;&gt;Node14 -->
<g id="edge16_Node000008_Node000014" class="edge">
<title>Node8&#45;&gt;Node14</title>
<g id="a_edge16_Node000008_Node000014"><a xlink:title=" ">
<path fill="none" stroke="#63b8ff" d="M342.84,-252.66C333.63,-254.28 323.79,-256.02 314.05,-257.74"/>
<polygon fill="#63b8ff" stroke="#63b8ff" points="343.69,-256.06 352.93,-250.87 342.47,-249.17 343.69,-256.06"/>
</a>
</g>
</g>
<!-- Node15 -->
<g id="Node000015" class="node">
<title>Node15</title>
<g id="a_Node000015"><a xlink:href="alm-driver_8hpp.html#ae4ef291d9ec9d55ee804b5723ea2e641" target="_top" xlink:title=" ">
<polygon fill="white" stroke="#666666" points="298,-133 195,-133 195,-114 298,-114 298,-133"/>
<text text-anchor="middle" x="246.5" y="-121" font-family="Helvetica,sans-Serif" font-size="10.00">make_alm_solver</text>
</a>
</g>
</g>
<!-- Node8&#45;&gt;Node15 -->
<g id="edge19_Node000008_Node000015" class="edge">
<title>Node8&#45;&gt;Node15</title>
<g id="a_edge19_Node000008_Node000015"><a xlink:title=" ">
<path fill="none" stroke="#63b8ff" d="M380.78,-225.87C369.66,-202.8 347.61,-163.96 317,-142.5 311.37,-138.55 304.95,-135.42 298.34,-132.94"/>
<polygon fill="#63b8ff" stroke="#63b8ff" points="377.62,-227.36 385,-234.96 383.97,-224.41 377.62,-227.36"/>
</a>
</g>
</g>
<!-- Node16 -->
<g id="Node000016" class="node">
<title>Node16</title>
<g id="a_Node000016"><a xlink:href="namespaceanonymous__namespace_02fista-driver_8cpp_03.html#a479d5f0dacbf404f04a694bb1be6f6c5" target="_top" xlink:title=" ">
<polygon fill="white" stroke="#666666" points="138.5,-192 1.5,-192 1.5,-151 138.5,-151 138.5,-192"/>
<text text-anchor="start" x="9.5" y="-180" font-family="Helvetica,sans-Serif" font-size="10.00">anonymous_namespace</text>
<text text-anchor="start" x="9.5" y="-169" font-family="Helvetica,sans-Serif" font-size="10.00">{fista&#45;driver::cpp}</text>
<text text-anchor="middle" x="70" y="-158" font-family="Helvetica,sans-Serif" font-size="10.00">::make_fista_driver_impl</text>
</a>
</g>
</g>
<!-- Node8&#45;&gt;Node16 -->
<g id="edge23_Node000008_Node000016" class="edge">
<title>Node8&#45;&gt;Node16</title>
<g id="a_edge23_Node000008_Node000016"><a xlink:title=" ">
<path fill="none" stroke="#63b8ff" d="M342.67,-236.24C299.37,-228.26 233.01,-215.38 176,-201.5 163.84,-198.54 150.97,-195.11 138.57,-191.66"/>
<polygon fill="#63b8ff" stroke="#63b8ff" points="342.16,-239.71 352.63,-238.06 343.42,-232.82 342.16,-239.71"/>
</a>
</g>
</g>
<!-- Node17 -->
<g id="Node000017" class="node">
<title>Node17</title>
<g id="a_Node000017"><a xlink:href="namespaceanonymous__namespace_02panoc-driver_8cpp_03.html#ab2ca1091ea82102367666b62756cd7f6" target="_top" xlink:title=" ">
<polygon fill="white" stroke="#666666" points="140,-132 0,-132 0,-91 140,-91 140,-132"/>
<text text-anchor="start" x="8" y="-120" font-family="Helvetica,sans-Serif" font-size="10.00">anonymous_namespace</text>
<text text-anchor="start" x="8" y="-109" font-family="Helvetica,sans-Serif" font-size="10.00">{panoc&#45;driver::cpp}</text>
<text text-anchor="middle" x="70" y="-98" font-family="Helvetica,sans-Serif" font-size="10.00">::make_panoc_like_driver</text>
</a>
</g>
</g>
<!-- Node8&#45;&gt;Node17 -->
<g id="edge27_Node000008_Node000017" class="edge">
<title>Node8&#45;&gt;Node17</title>
<g id="a_edge27_Node000008_Node000017"><a xlink:title=" ">
<path fill="none" stroke="#63b8ff" d="M385.49,-224.93C378.64,-193.28 360.2,-131.78 317,-105.5 263.98,-73.26 191.94,-79.53 139.52,-91"/>
<polygon fill="#63b8ff" stroke="#63b8ff" points="382.06,-225.65 387.45,-234.77 388.93,-224.28 382.06,-225.65"/>
</a>
</g>
</g>
<!-- Node18 -->
<g id="Node000018" class="node">
<title>Node18</title>
<g id="a_Node000018"><a xlink:href="namespaceanonymous__namespace_02pantr-driver_8cpp_03.html#a39b6aa8ff07d8400d404f191bdccd499" target="_top" xlink:title=" ">
<polygon fill="white" stroke="#666666" points="139,-70 1,-70 1,-29 139,-29 139,-70"/>
<text text-anchor="start" x="9" y="-58" font-family="Helvetica,sans-Serif" font-size="10.00">anonymous_namespace</text>
<text text-anchor="start" x="9" y="-47" font-family="Helvetica,sans-Serif" font-size="10.00">{pantr&#45;driver::cpp}</text>
<text text-anchor="middle" x="70" y="-36" font-family="Helvetica,sans-Serif" font-size="10.00">::make_pantr_like_solver</text>
</a>
</g>
</g>
<!-- Node8&#45;&gt;Node18 -->
<g id="edge28_Node000008_Node000018" class="edge">
<title>Node8&#45;&gt;Node18</title>
<g id="a_edge28_Node000008_Node000018"><a xlink:title=" ">
<path fill="none" stroke="#63b8ff" d="M386.77,-224.92C381.58,-189.32 365.22,-114.36 317,-78.5 266.27,-40.78 192.69,-36.81 139.23,-40.28"/>
<polygon fill="#63b8ff" stroke="#63b8ff" points="383.32,-225.53 388.09,-235 390.26,-224.63 383.32,-225.53"/>
</a>
</g>
</g>
<!-- Node19 -->
<g id="Node000019" class="node">
<title>Node19</title>
<g id="a_Node000019"><a xlink:href="namespaceanonymous__namespace_02fista-driver_8cpp_03.html#a6f96d677b5961c6a4fcaa773f37ca65b" target="_top" xlink:title=" ">
<polygon fill="white" stroke="#666666" points="317,-192 176,-192 176,-151 317,-151 317,-192"/>
<text text-anchor="start" x="184" y="-180" font-family="Helvetica,sans-Serif" font-size="10.00">anonymous_namespace</text>
<text text-anchor="start" x="184" y="-169" font-family="Helvetica,sans-Serif" font-size="10.00">{fista&#45;driver::cpp}</text>
<text text-anchor="middle" x="246.5" y="-158" font-family="Helvetica,sans-Serif" font-size="10.00">::make_inner_fista_solver</text>
</a>
</g>
</g>
<!-- Node8&#45;&gt;Node19 -->
<g id="edge24_Node000008_Node000019" class="edge">
<title>Node8&#45;&gt;Node19</title>
<g id="a_edge24_Node000008_Node000019"><a xlink:title=" ">
<path fill="none" stroke="#63b8ff" d="M361.81,-229.99C348.36,-222.86 331.86,-214.16 317,-206.5 307.87,-201.79 298.04,-196.8 288.73,-192.1"/>
<polygon fill="#63b8ff" stroke="#63b8ff" points="360.53,-233.27 371,-234.88 363.81,-227.09 360.53,-233.27"/>
</a>
</g>
</g>
<!-- Node20 -->
<g id="Node000020" class="node">
<title>Node20</title>
<g id="a_Node000020"><a xlink:href="alm-driver_8hpp.html#a51b2a2cde56762bcb43a2f4da0913f98" target="_top" xlink:title=" ">
<polygon fill="white" stroke="#666666" points="301,-19 192,-19 192,0 301,0 301,-19"/>
<text text-anchor="middle" x="246.5" y="-7" font-family="Helvetica,sans-Serif" font-size="10.00">make_inner_solver</text>
</a>
</g>
</g>
<!-- Node8&#45;&gt;Node20 -->
<g id="edge26_Node000008_Node000020" class="edge">
<title>Node8&#45;&gt;Node20</title>
<g id="a_edge26_Node000008_Node000020"><a xlink:title=" ">
<path fill="none" stroke="#63b8ff" d="M387.89,-224.93C384.5,-183.77 370.94,-87.64 317,-33.5 310.69,-27.17 302.64,-22.51 294.26,-19.07"/>
<polygon fill="#63b8ff" stroke="#63b8ff" points="384.4,-225.26 388.6,-234.99 391.39,-224.77 384.4,-225.26"/>
</a>
</g>
</g>
<!-- Node9&#45;&gt;Node9 -->
<g id="edge9_Node000009_Node000009" class="edge">
<title>Node9&#45;&gt;Node9</title>
<g id="a_edge9_Node000009_Node000009"><a xlink:title=" ">
<path fill="none" stroke="#63b8ff" d="M270.93,-526.96C267.3,-531.74 259.15,-535 246.5,-535 226.25,-535 217.55,-526.65 220.4,-517.1"/>
<polygon fill="#63b8ff" stroke="#63b8ff" points="274.38,-527.54 272.6,-517.1 267.48,-526.37 274.38,-527.54"/>
</a>
</g>
</g>
<!-- Node10&#45;&gt;Node11 -->
<g id="edge11_Node000010_Node000011" class="edge">
<title>Node10&#45;&gt;Node11</title>
<g id="a_edge11_Node000010_Node000011"><a xlink:title=" ">
<path fill="none" stroke="#63b8ff" d="M185.92,-403.01C152.87,-399.41 113.91,-395.17 90.9,-392.67"/>
<polygon fill="#63b8ff" stroke="#63b8ff" points="185.64,-406.5 195.96,-404.11 186.4,-399.54 185.64,-406.5"/>
</a>
</g>
</g>
<!-- Node12&#45;&gt;Node11 -->
<g id="edge13_Node000012_Node000011" class="edge">
<title>Node12&#45;&gt;Node11</title>
<g id="a_edge13_Node000012_Node000011"><a xlink:title=" ">
<path fill="none" stroke="#63b8ff" d="M181.48,-379.1C149.37,-382.42 112.74,-386.19 90.76,-388.46"/>
<polygon fill="#63b8ff" stroke="#63b8ff" points="182.13,-382.56 191.72,-378.05 181.41,-375.59 182.13,-382.56"/>
</a>
</g>
</g>
<!-- Node13&#45;&gt;Node11 -->
<g id="edge15_Node000013_Node000011" class="edge">
<title>Node13&#45;&gt;Node11</title>
<g id="a_edge15_Node000013_Node000011"><a xlink:title=" ">
<path fill="none" stroke="#63b8ff" d="M199.24,-347.71C191.46,-349.89 183.48,-352.2 176,-354.5 145.98,-363.74 111.62,-375.81 90.62,-383.36"/>
<polygon fill="#63b8ff" stroke="#63b8ff" points="200.24,-351.06 208.94,-345.03 198.37,-344.31 200.24,-351.06"/>
</a>
</g>
</g>
<!-- Node14&#45;&gt;Node14 -->
<g id="edge17_Node000014_Node000014" class="edge">
<title>Node14&#45;&gt;Node14</title>
<g id="a_edge17_Node000014_Node000014"><a xlink:title=" ">
<path fill="none" stroke="#63b8ff" d="M270.93,-299.96C267.3,-304.74 259.15,-308 246.5,-308 226.25,-308 217.55,-299.65 220.4,-290.1"/>
<polygon fill="#63b8ff" stroke="#63b8ff" points="274.38,-300.54 272.6,-290.1 267.48,-299.37 274.38,-300.54"/>
</a>
</g>
</g>
<!-- Node15&#45;&gt;Node16 -->
<g id="edge20_Node000015_Node000016" class="edge">
<title>Node15&#45;&gt;Node16</title>
<g id="a_edge20_Node000015_Node000016"><a xlink:title=" ">
<path fill="none" stroke="#63b8ff" d="M200.68,-135.74C192.47,-137.98 183.97,-140.31 176,-142.5 163.96,-145.81 151.16,-149.34 138.77,-152.75"/>
<polygon fill="#63b8ff" stroke="#63b8ff" points="201.77,-139.06 210.5,-133.05 199.93,-132.31 201.77,-139.06"/>
</a>
</g>
</g>
<!-- Node15&#45;&gt;Node17 -->
<g id="edge21_Node000015_Node000017" class="edge">
<title>Node15&#45;&gt;Node17</title>
<g id="a_edge21_Node000015_Node000017"><a xlink:title=" ">
<path fill="none" stroke="#63b8ff" d="M184.37,-119.3C170.08,-118.31 154.77,-117.26 140.17,-116.26"/>
<polygon fill="#63b8ff" stroke="#63b8ff" points="184.34,-122.8 194.56,-120 184.82,-115.82 184.34,-122.8"/>
</a>
</g>
</g>
<!-- Node15&#45;&gt;Node18 -->
<g id="edge22_Node000015_Node000018" class="edge">
<title>Node15&#45;&gt;Node18</title>
<g id="a_edge22_Node000015_Node000018"><a xlink:title=" ">
<path fill="none" stroke="#63b8ff" d="M213.55,-109.95C187.22,-98.78 149.45,-82.77 119.41,-70.03"/>
<polygon fill="#63b8ff" stroke="#63b8ff" points="212.47,-113.3 223.04,-113.98 215.2,-106.85 212.47,-113.3"/>
</a>
</g>
</g>
<!-- Node19&#45;&gt;Node16 -->
<g id="edge25_Node000019_Node000016" class="edge">
<title>Node19&#45;&gt;Node16</title>
<g id="a_edge25_Node000019_Node000016"><a xlink:title=" ">
<path fill="none" stroke="#63b8ff" d="M165.65,-171.5C156.61,-171.5 147.48,-171.5 138.62,-171.5"/>
<polygon fill="#63b8ff" stroke="#63b8ff" points="165.78,-175 175.78,-171.5 165.78,-168 165.78,-175"/>
</a>
</g>
</g>
</g>
</svg>
