<?xml version="1.0" encoding="UTF-8" standalone="no"?>
<!DOCTYPE svg PUBLIC "-//W3C//DTD SVG 1.1//EN"
 "http://www.w3.org/Graphics/SVG/1.1/DTD/svg11.dtd">
<!-- Generated by graphviz version 2.43.0 (0)
 -->
<!-- Title: load_func Pages: 1 -->
<svg width="607pt" height="182pt"
 viewBox="0.00 0.00 607.00 182.00" xmlns="http://www.w3.org/2000/svg" xmlns:xlink="http://www.w3.org/1999/xlink">
<g id="graph0" class="graph" transform="scale(1 1) rotate(0) translate(4 178)">
<title>load_func</title>
<!-- Node1 -->
<g id="Node000001" class="node">
<title>Node1</title>
<g id="a_Node000001"><a xlink:title="Get a pointer to a function inside of a loaded DLL or SO file.">
<polygon fill="#999999" stroke="#666666" points="599,-96.5 535,-96.5 535,-77.5 599,-77.5 599,-96.5"/>
<text text-anchor="middle" x="567" y="-84.5" font-family="Helvetica,sans-Serif" font-size="10.00">load_func</text>
</a>
</g>
</g>
<!-- Node2 -->
<g id="Node000002" class="node">
<title>Node2</title>
<g id="a_Node000002"><a xlink:href="classalpaqa_1_1dl_1_1DLControlProblem.html#a4c9b3654c0a058fbf697cf2f02269f4f" target="_top" xlink:title="Load a problem from a shared library.">
<polygon fill="white" stroke="#666666" points="499,-174 340,-174 340,-144 499,-144 499,-174"/>
<text text-anchor="start" x="348" y="-162" font-family="Helvetica,sans-Serif" font-size="10.00">alpaqa::dl::DLControlProblem</text>
<text text-anchor="middle" x="419.5" y="-151" font-family="Helvetica,sans-Serif" font-size="10.00">::DLControlProblem</text>
</a>
</g>
</g>
<!-- Node1&#45;&gt;Node2 -->
<g id="edge1_Node000001_Node000002" class="edge">
<title>Node1&#45;&gt;Node2</title>
<g id="a_edge1_Node000001_Node000002"><a xlink:title=" ">
<path fill="none" stroke="#63b8ff" d="M546.82,-103.32C533.97,-113.58 516.3,-126.45 499,-135 492.23,-138.35 484.9,-141.34 477.53,-143.98"/>
<polygon fill="#63b8ff" stroke="#63b8ff" points="549.36,-105.77 554.87,-96.72 544.92,-100.35 549.36,-105.77"/>
</a>
</g>
</g>
<!-- Node3 -->
<g id="Node000003" class="node">
<title>Node3</title>
<g id="a_Node000003"><a xlink:href="classalpaqa_1_1dl_1_1DLProblem.html#a7d2e63f4609e330037cf09bbc12e3c20" target="_top" xlink:title="Load a problem from a shared library.">
<polygon fill="white" stroke="#666666" points="481.5,-126 357.5,-126 357.5,-96 481.5,-96 481.5,-126"/>
<text text-anchor="start" x="365.5" y="-114" font-family="Helvetica,sans-Serif" font-size="10.00">alpaqa::dl::DLProblem</text>
<text text-anchor="middle" x="419.5" y="-103" font-family="Helvetica,sans-Serif" font-size="10.00">::DLProblem</text>
</a>
</g>
</g>
<!-- Node1&#45;&gt;Node3 -->
<g id="edge2_Node000001_Node000003" class="edge">
<title>Node1&#45;&gt;Node3</title>
<g id="a_edge2_Node000001_Node000003"><a xlink:title=" ">
<path fill="none" stroke="#63b8ff" d="M524.89,-93.78C511.44,-96 496.2,-98.51 481.61,-100.92"/>
<polygon fill="#63b8ff" stroke="#63b8ff" points="525.49,-97.23 534.79,-92.15 524.35,-90.32 525.49,-97.23"/>
</a>
</g>
</g>
<!-- Node4 -->
<g id="Node000004" class="node">
<title>Node4</title>
<g id="a_Node000004"><a xlink:href="structalpaqa_1_1cutest_1_1Function.html#a27747782ea9485747aa4cfb19995f890" target="_top" xlink:title=" ">
<polygon fill="white" stroke="#666666" points="486,-78 353,-78 353,-48 486,-48 486,-78"/>
<text text-anchor="start" x="361" y="-66" font-family="Helvetica,sans-Serif" font-size="10.00">alpaqa::cutest::Function</text>
<text text-anchor="middle" x="419.5" y="-55" font-family="Helvetica,sans-Serif" font-size="10.00">::load</text>
</a>
</g>
</g>
<!-- Node1&#45;&gt;Node4 -->
<g id="edge3_Node000001_Node000004" class="edge">
<title>Node1&#45;&gt;Node4</title>
<g id="a_edge3_Node000001_Node000004"><a xlink:title=" ">
<path fill="none" stroke="#63b8ff" d="M524.63,-80.18C512.61,-78.19 499.18,-75.98 486.06,-73.81"/>
<polygon fill="#63b8ff" stroke="#63b8ff" points="524.35,-83.68 534.79,-81.85 525.49,-76.77 524.35,-83.68"/>
</a>
</g>
</g>
<!-- Node5 -->
<g id="Node000005" class="node">
<title>Node5</title>
<g id="a_Node000005"><a xlink:href="structalpaqa_1_1casadi_1_1ExternalFunction.html#ace993fa3a5c98352088dbfdb46722849" target="_top" xlink:title=" ">
<polygon fill="white" stroke="#666666" points="486.5,-30 352.5,-30 352.5,0 486.5,0 486.5,-30"/>
<text text-anchor="start" x="360.5" y="-18" font-family="Helvetica,sans-Serif" font-size="10.00">alpaqa::casadi::External</text>
<text text-anchor="middle" x="419.5" y="-7" font-family="Helvetica,sans-Serif" font-size="10.00">Function::load</text>
</a>
</g>
</g>
<!-- Node1&#45;&gt;Node5 -->
<g id="edge4_Node000001_Node000005" class="edge">
<title>Node1&#45;&gt;Node5</title>
<g id="a_edge4_Node000001_Node000005"><a xlink:title=" ">
<path fill="none" stroke="#63b8ff" d="M546.82,-70.68C533.97,-60.42 516.3,-47.55 499,-39 492.23,-35.65 484.9,-32.66 477.53,-30.02"/>
<polygon fill="#63b8ff" stroke="#63b8ff" points="544.92,-73.65 554.87,-77.28 549.36,-68.23 544.92,-73.65"/>
</a>
</g>
</g>
<!-- Node6 -->
<g id="Node000006" class="node">
<title>Node6</title>
<g id="a_Node000006"><a xlink:href="classalpaqa_1_1casadi_1_1Function.html#a7c7a57080a254796931aa2752ed9ca16" target="_top" xlink:title=" ">
<polygon fill="white" stroke="#666666" points="304,-30 170,-30 170,0 304,0 304,-30"/>
<text text-anchor="start" x="178" y="-18" font-family="Helvetica,sans-Serif" font-size="10.00">alpaqa::casadi::Function</text>
<text text-anchor="middle" x="237" y="-7" font-family="Helvetica,sans-Serif" font-size="10.00">::load</text>
</a>
</g>
</g>
<!-- Node5&#45;&gt;Node6 -->
<g id="edge5_Node000005_Node000006" class="edge">
<title>Node5&#45;&gt;Node6</title>
<g id="a_edge5_Node000005_Node000006"><a xlink:title=" ">
<path fill="none" stroke="#63b8ff" d="M342.26,-15C329.6,-15 316.56,-15 304.18,-15"/>
<polygon fill="#63b8ff" stroke="#63b8ff" points="342.31,-18.5 352.31,-15 342.31,-11.5 342.31,-18.5"/>
</a>
</g>
</g>
<!-- Node7 -->
<g id="Node000007" class="node">
<title>Node7</title>
<g id="a_Node000007"><a xlink:href="classalpaqa_1_1casadi_1_1Function.html#ab254e3ce9b93c927891b62bd56da92fc" target="_top" xlink:title=" ">
<polygon fill="white" stroke="#666666" points="134,-30 0,-30 0,0 134,0 134,-30"/>
<text text-anchor="start" x="8" y="-18" font-family="Helvetica,sans-Serif" font-size="10.00">alpaqa::casadi::Function</text>
<text text-anchor="middle" x="67" y="-7" font-family="Helvetica,sans-Serif" font-size="10.00">::Function</text>
</a>
</g>
</g>
<!-- Node6&#45;&gt;Node7 -->
<g id="edge6_Node000006_Node000007" class="edge">
<title>Node6&#45;&gt;Node7</title>
<g id="a_edge6_Node000006_Node000007"><a xlink:title=" ">
<path fill="none" stroke="#63b8ff" d="M159.41,-15C150.99,-15 142.47,-15 134.19,-15"/>
<polygon fill="#63b8ff" stroke="#63b8ff" points="159.6,-18.5 169.6,-15 159.6,-11.5 159.6,-18.5"/>
</a>
</g>
</g>
</g>
</svg>
