<?xml version="1.0" encoding="UTF-8" standalone="no"?>
<!DOCTYPE svg PUBLIC "-//W3C//DTD SVG 1.1//EN"
 "http://www.w3.org/Graphics/SVG/1.1/DTD/svg11.dtd">
<!-- Generated by graphviz version 2.43.0 (0)
 -->
<!-- Title: join Pages: 1 -->
<svg width="1619pt" height="668pt"
 viewBox="0.00 0.00 1619.00 667.50" xmlns="http://www.w3.org/2000/svg" xmlns:xlink="http://www.w3.org/1999/xlink">
<g id="graph0" class="graph" transform="scale(1 1) rotate(0) translate(4 663.5)">
<title>join</title>
<!-- Node1 -->
<g id="Node000001" class="node">
<title>Node1</title>
<g id="a_Node000001"><a xlink:title="Join the list of strings into a single string, using the separator given by opt.">
<polygon fill="#999999" stroke="#666666" points="1611,-162.5 1576,-162.5 1576,-143.5 1611,-143.5 1611,-162.5"/>
<text text-anchor="middle" x="1593.5" y="-150.5" font-family="Helvetica,sans-Serif" font-size="10.00">join</text>
</a>
</g>
</g>
<!-- Node2 -->
<g id="Node000002" class="node">
<title>Node2</title>
<g id="a_Node000002"><a xlink:href="namespacealpaqa_1_1params_1_1detail.html#a1654f67837e3fdbf09fd2636294375f4" target="_top" xlink:title=" ">
<polygon fill="white" stroke="#666666" points="1540,-578 1414,-578 1414,-548 1540,-548 1540,-578"/>
<text text-anchor="start" x="1422" y="-566" font-family="Helvetica,sans-Serif" font-size="10.00">alpaqa::params::detail</text>
<text text-anchor="middle" x="1477" y="-555" font-family="Helvetica,sans-Serif" font-size="10.00">::find_param</text>
</a>
</g>
</g>
<!-- Node1&#45;&gt;Node2 -->
<g id="edge1_Node000001_Node000002" class="edge">
<title>Node1&#45;&gt;Node2</title>
<g id="a_edge1_Node000001_Node000002"><a xlink:title=" ">
<path fill="none" stroke="#63b8ff" d="M1592.21,-172.85C1590.81,-242.64 1582.96,-475.7 1540,-534 1535.84,-539.64 1530.31,-544.23 1524.25,-547.94"/>
<polygon fill="#63b8ff" stroke="#63b8ff" points="1595.71,-172.83 1592.38,-162.77 1588.71,-172.7 1595.71,-172.83"/>
</a>
</g>
</g>
<!-- Node4 -->
<g id="Node000004" class="node">
<title>Node4</title>
<g id="a_Node000004"><a xlink:href="alpaqa-driver_8cpp.html#a3430011226186bf05d5c2552270587b7" target="_top" xlink:title=" ">
<polygon fill="white" stroke="#666666" points="300,-659.5 193,-659.5 193,-640.5 300,-640.5 300,-659.5"/>
<text text-anchor="middle" x="246.5" y="-647.5" font-family="Helvetica,sans-Serif" font-size="10.00">get_solver_builder</text>
</a>
</g>
</g>
<!-- Node1&#45;&gt;Node4 -->
<g id="edge3_Node000001_Node000004" class="edge">
<title>Node1&#45;&gt;Node4</title>
<g id="a_edge3_Node000001_Node000004"><a xlink:title=" ">
<path fill="none" stroke="#63b8ff" d="M1588.09,-172.55C1569.68,-248.54 1491.64,-520 1316,-520 1316,-520 1316,-520 520.5,-520 417.26,-520 412.94,-593.87 317,-632 308.89,-635.22 300.02,-638.03 291.41,-640.4"/>
<polygon fill="#63b8ff" stroke="#63b8ff" points="1591.5,-173.35 1590.38,-162.82 1584.68,-171.75 1591.5,-173.35"/>
</a>
</g>
</g>
<!-- Node6 -->
<g id="Node000006" class="node">
<title>Node6</title>
<g id="a_Node000006"><a xlink:href="namespacealpaqa_1_1params_1_1detail.html#a6aa41a8827ffd36b3e2a8e7346a44f19" target="_top" xlink:title=" ">
<polygon fill="white" stroke="#666666" points="1540,-190 1414,-190 1414,-160 1540,-160 1540,-190"/>
<text text-anchor="start" x="1422" y="-178" font-family="Helvetica,sans-Serif" font-size="10.00">alpaqa::params::detail</text>
<text text-anchor="middle" x="1477" y="-167" font-family="Helvetica,sans-Serif" font-size="10.00">::join_sorted_keys</text>
</a>
</g>
</g>
<!-- Node1&#45;&gt;Node6 -->
<g id="edge5_Node000001_Node000006" class="edge">
<title>Node1&#45;&gt;Node6</title>
<g id="a_edge5_Node000001_Node000006"><a xlink:title=" ">
<path fill="none" stroke="#63b8ff" d="M1565.74,-158.14C1557.96,-159.64 1549.12,-161.33 1540.12,-163.06"/>
<polygon fill="#63b8ff" stroke="#63b8ff" points="1566.45,-161.57 1575.61,-156.25 1565.12,-154.7 1566.45,-161.57"/>
</a>
</g>
</g>
<!-- Node29 -->
<g id="Node000029" class="node">
<title>Node29</title>
<g id="a_Node000029"><a xlink:href="namespaceanonymous__namespace_02panoc-driver_8cpp_03.html#ab2ca1091ea82102367666b62756cd7f6" target="_top" xlink:title=" ">
<polygon fill="white" stroke="#666666" points="140,-202.5 0,-202.5 0,-161.5 140,-161.5 140,-202.5"/>
<text text-anchor="start" x="8" y="-190.5" font-family="Helvetica,sans-Serif" font-size="10.00">anonymous_namespace</text>
<text text-anchor="start" x="8" y="-179.5" font-family="Helvetica,sans-Serif" font-size="10.00">{panoc&#45;driver::cpp}</text>
<text text-anchor="middle" x="70" y="-168.5" font-family="Helvetica,sans-Serif" font-size="10.00">::make_panoc_like_driver</text>
</a>
</g>
</g>
<!-- Node1&#45;&gt;Node29 -->
<g id="edge47_Node000001_Node000029" class="edge">
<title>Node1&#45;&gt;Node29</title>
<g id="a_edge47_Node000001_Node000029"><a xlink:title=" ">
<path fill="none" stroke="#63b8ff" d="M1566.17,-143.84C1517.44,-127.72 1409.61,-96 1316,-96 1316,-96 1316,-96 389,-96 289.2,-96 177.7,-135.96 116.82,-161.4"/>
<polygon fill="#63b8ff" stroke="#63b8ff" points="1565.32,-147.25 1575.91,-147.11 1567.55,-140.61 1565.32,-147.25"/>
</a>
</g>
</g>
<!-- Node30 -->
<g id="Node000030" class="node">
<title>Node30</title>
<g id="a_Node000030"><a xlink:href="namespaceanonymous__namespace_02pantr-driver_8cpp_03.html#a39b6aa8ff07d8400d404f191bdccd499" target="_top" xlink:title=" ">
<polygon fill="white" stroke="#666666" points="139,-143.5 1,-143.5 1,-102.5 139,-102.5 139,-143.5"/>
<text text-anchor="start" x="9" y="-131.5" font-family="Helvetica,sans-Serif" font-size="10.00">anonymous_namespace</text>
<text text-anchor="start" x="9" y="-120.5" font-family="Helvetica,sans-Serif" font-size="10.00">{pantr&#45;driver::cpp}</text>
<text text-anchor="middle" x="70" y="-109.5" font-family="Helvetica,sans-Serif" font-size="10.00">::make_pantr_like_solver</text>
</a>
</g>
</g>
<!-- Node1&#45;&gt;Node30 -->
<g id="edge48_Node000001_Node000030" class="edge">
<title>Node1&#45;&gt;Node30</title>
<g id="a_edge48_Node000001_Node000030"><a xlink:title=" ">
<path fill="none" stroke="#63b8ff" d="M1579.02,-135.44C1569.39,-124.13 1555.43,-110.08 1540,-102 1450.12,-54.93 1417.46,-58 1316,-58 1316,-58 1316,-58 389,-58 298.84,-58 197.16,-83.39 133.58,-102.43"/>
<polygon fill="#63b8ff" stroke="#63b8ff" points="1576.48,-137.86 1585.51,-143.41 1581.91,-133.44 1576.48,-137.86"/>
</a>
</g>
</g>
<!-- Node37 -->
<g id="Node000037" class="node">
<title>Node37</title>
<g id="a_Node000037"><a xlink:href="namespacealpaqa_1_1params.html#a172934d3e00e044be5f7b312b461a965" target="_top" xlink:title="Set t to the value of s.value.">
<polygon fill="white" stroke="#666666" points="1533.5,-30 1420.5,-30 1420.5,0 1533.5,0 1533.5,-30"/>
<text text-anchor="start" x="1428.5" y="-18" font-family="Helvetica,sans-Serif" font-size="10.00">alpaqa::params::set</text>
<text text-anchor="middle" x="1477" y="-7" font-family="Helvetica,sans-Serif" font-size="10.00">_param_default</text>
</a>
</g>
</g>
<!-- Node1&#45;&gt;Node37 -->
<g id="edge49_Node000001_Node000037" class="edge">
<title>Node1&#45;&gt;Node37</title>
<g id="a_edge49_Node000001_Node000037"><a xlink:title=" ">
<path fill="none" stroke="#63b8ff" d="M1587.51,-133.58C1580.51,-109.73 1565.65,-69.36 1540,-44 1534.42,-38.49 1527.6,-33.89 1520.55,-30.1"/>
<polygon fill="#63b8ff" stroke="#63b8ff" points="1584.15,-134.55 1590.19,-143.25 1590.9,-132.68 1584.15,-134.55"/>
</a>
</g>
</g>
<!-- Node3 -->
<g id="Node000003" class="node">
<title>Node3</title>
<g id="a_Node000003"><a xlink:href="namespacealpaqa_1_1params.html#ac7a64e730d2b802c657ce5790042edd9" target="_top" xlink:title="Use s to index into the struct type T and overwrite the attribute given by s.key.">
<polygon fill="white" stroke="#666666" points="1371.5,-578 1258.5,-578 1258.5,-548 1371.5,-548 1371.5,-578"/>
<text text-anchor="start" x="1266.5" y="-566" font-family="Helvetica,sans-Serif" font-size="10.00">alpaqa::params::set</text>
<text text-anchor="middle" x="1315" y="-555" font-family="Helvetica,sans-Serif" font-size="10.00">_param_default</text>
</a>
</g>
</g>
<!-- Node2&#45;&gt;Node3 -->
<g id="edge2_Node000002_Node000003" class="edge">
<title>Node2&#45;&gt;Node3</title>
<g id="a_edge2_Node000002_Node000003"><a xlink:title=" ">
<path fill="none" stroke="#63b8ff" d="M1403.5,-563C1392.8,-563 1381.92,-563 1371.63,-563"/>
<polygon fill="#63b8ff" stroke="#63b8ff" points="1403.68,-566.5 1413.68,-563 1403.68,-559.5 1403.68,-566.5"/>
</a>
</g>
</g>
<!-- Node5 -->
<g id="Node000005" class="node">
<title>Node5</title>
<g id="a_Node000005"><a xlink:href="alpaqa-driver_8cpp.html#ac0f2228420376f4db7e1274f2b41667c" target="_top" xlink:title=" ">
<polygon fill="white" stroke="#666666" points="90.5,-603.5 49.5,-603.5 49.5,-584.5 90.5,-584.5 90.5,-603.5"/>
<text text-anchor="middle" x="70" y="-591.5" font-family="Helvetica,sans-Serif" font-size="10.00">main</text>
</a>
</g>
</g>
<!-- Node4&#45;&gt;Node5 -->
<g id="edge4_Node000004_Node000005" class="edge">
<title>Node4&#45;&gt;Node5</title>
<g id="a_edge4_Node000004_Node000005"><a xlink:title=" ">
<path fill="none" stroke="#63b8ff" d="M196.14,-637.83C189.35,-635.97 182.48,-634.01 176,-632 145.81,-622.65 111.5,-609.8 90.55,-601.7"/>
<polygon fill="#63b8ff" stroke="#63b8ff" points="195.43,-641.26 205.99,-640.45 197.23,-634.5 195.43,-641.26"/>
</a>
</g>
</g>
<!-- Node7 -->
<g id="Node000007" class="node">
<title>Node7</title>
<g id="a_Node000007"><a xlink:href="namespacealpaqa_1_1params_1_1detail.html#a5eef50360de8527b24463d00629819f8" target="_top" xlink:title=" ">
<polygon fill="white" stroke="#666666" points="1378,-214 1252,-214 1252,-184 1378,-184 1378,-214"/>
<text text-anchor="start" x="1260" y="-202" font-family="Helvetica,sans-Serif" font-size="10.00">alpaqa::params::detail</text>
<text text-anchor="middle" x="1315" y="-191" font-family="Helvetica,sans-Serif" font-size="10.00">::find_param_or_throw</text>
</a>
</g>
</g>
<!-- Node6&#45;&gt;Node7 -->
<g id="edge6_Node000006_Node000007" class="edge">
<title>Node6&#45;&gt;Node7</title>
<g id="a_edge6_Node000006_Node000007"><a xlink:title=" ">
<path fill="none" stroke="#63b8ff" d="M1403.73,-185.84C1395.19,-187.12 1386.53,-188.42 1378.15,-189.68"/>
<polygon fill="#63b8ff" stroke="#63b8ff" points="1404.31,-189.29 1413.68,-184.35 1403.27,-182.37 1404.31,-189.29"/>
</a>
</g>
</g>
<!-- Node35 -->
<g id="Node000035" class="node">
<title>Node35</title>
<g id="a_Node000035"><a xlink:href="namespacealpaqa_1_1params_1_1detail.html#a8a49de2a7dbaeb39342d4a6cf820ea3b" target="_top" xlink:title=" ">
<polygon fill="white" stroke="#666666" points="1378,-166 1252,-166 1252,-136 1378,-136 1378,-166"/>
<text text-anchor="start" x="1260" y="-154" font-family="Helvetica,sans-Serif" font-size="10.00">alpaqa::params::detail</text>
<text text-anchor="middle" x="1315" y="-143" font-family="Helvetica,sans-Serif" font-size="10.00">::find_param_or_throw</text>
</a>
</g>
</g>
<!-- Node6&#45;&gt;Node35 -->
<g id="edge45_Node000006_Node000035" class="edge">
<title>Node6&#45;&gt;Node35</title>
<g id="a_edge45_Node000006_Node000035"><a xlink:title=" ">
<path fill="none" stroke="#63b8ff" d="M1403.73,-164.16C1395.19,-162.88 1386.53,-161.58 1378.15,-160.32"/>
<polygon fill="#63b8ff" stroke="#63b8ff" points="1403.27,-167.63 1413.68,-165.65 1404.31,-160.71 1403.27,-167.63"/>
</a>
</g>
</g>
<!-- Node36 -->
<g id="Node000036" class="node">
<title>Node36</title>
<g id="a_Node000036"><a xlink:href="namespacealpaqa_1_1params.html#ae11b3e4b8e294860692e0da635ed8ca3" target="_top" xlink:title=" ">
<polygon fill="white" stroke="#666666" points="1371.5,-262 1258.5,-262 1258.5,-232 1371.5,-232 1371.5,-262"/>
<text text-anchor="start" x="1266.5" y="-250" font-family="Helvetica,sans-Serif" font-size="10.00">alpaqa::params::set</text>
<text text-anchor="middle" x="1315" y="-239" font-family="Helvetica,sans-Serif" font-size="10.00">_param_default</text>
</a>
</g>
</g>
<!-- Node6&#45;&gt;Node36 -->
<g id="edge46_Node000006_Node000036" class="edge">
<title>Node6&#45;&gt;Node36</title>
<g id="a_edge46_Node000006_Node000036"><a xlink:title=" ">
<path fill="none" stroke="#63b8ff" d="M1437.71,-194.71C1419.75,-203.7 1397.95,-214.27 1378,-223 1371.13,-226.01 1363.75,-229.03 1356.56,-231.88"/>
<polygon fill="#63b8ff" stroke="#63b8ff" points="1439.37,-197.79 1446.72,-190.16 1436.21,-191.54 1439.37,-197.79"/>
</a>
</g>
</g>
<!-- Node8 -->
<g id="Node000008" class="node">
<title>Node8</title>
<g id="a_Node000008"><a xlink:href="namespacealpaqa_1_1params_1_1detail.html#a13c61ce864494c3fe91b86bf8ffda476" target="_top" xlink:title=" ">
<polygon fill="white" stroke="#666666" points="1216,-226 1090,-226 1090,-196 1216,-196 1216,-226"/>
<text text-anchor="start" x="1098" y="-214" font-family="Helvetica,sans-Serif" font-size="10.00">alpaqa::params::detail</text>
<text text-anchor="middle" x="1153" y="-203" font-family="Helvetica,sans-Serif" font-size="10.00">::set_param_json</text>
</a>
</g>
</g>
<!-- Node7&#45;&gt;Node8 -->
<g id="edge7_Node000007_Node000008" class="edge">
<title>Node7&#45;&gt;Node8</title>
<g id="a_edge7_Node000007_Node000008"><a xlink:title=" ">
<path fill="none" stroke="#63b8ff" d="M1241.45,-204.44C1233,-205.07 1224.44,-205.72 1216.15,-206.34"/>
<polygon fill="#63b8ff" stroke="#63b8ff" points="1241.97,-207.91 1251.68,-203.67 1241.45,-200.93 1241.97,-207.91"/>
</a>
</g>
</g>
<!-- Node9 -->
<g id="Node000009" class="node">
<title>Node9</title>
<g id="a_Node000009"><a xlink:href="namespacealpaqa_1_1params.html#a39fab1bdf1cebbc5e1574eac16a9af53" target="_top" xlink:title=" ">
<polygon fill="white" stroke="#666666" points="1054,-250 941,-250 941,-220 1054,-220 1054,-250"/>
<text text-anchor="start" x="949" y="-238" font-family="Helvetica,sans-Serif" font-size="10.00">alpaqa::params::set</text>
<text text-anchor="middle" x="997.5" y="-227" font-family="Helvetica,sans-Serif" font-size="10.00">_param_default</text>
</a>
</g>
</g>
<!-- Node8&#45;&gt;Node9 -->
<g id="edge8_Node000008_Node000009" class="edge">
<title>Node8&#45;&gt;Node9</title>
<g id="a_edge8_Node000008_Node000009"><a xlink:title=" ">
<path fill="none" stroke="#63b8ff" d="M1079.68,-222.31C1071.21,-223.63 1062.66,-224.97 1054.46,-226.25"/>
<polygon fill="#63b8ff" stroke="#63b8ff" points="1080.23,-225.76 1089.57,-220.76 1079.15,-218.85 1080.23,-225.76"/>
</a>
</g>
</g>
<!-- Node10 -->
<g id="Node000010" class="node">
<title>Node10</title>
<g id="a_Node000010"><a xlink:href="namespacealpaqa_1_1params.html#acc88b03bbba758799e35f747f8c486a5" target="_top" xlink:title=" ">
<polygon fill="white" stroke="#666666" points="905,-250 792,-250 792,-220 905,-220 905,-250"/>
<text text-anchor="start" x="800" y="-238" font-family="Helvetica,sans-Serif" font-size="10.00">alpaqa::params::set</text>
<text text-anchor="middle" x="848.5" y="-227" font-family="Helvetica,sans-Serif" font-size="10.00">_param</text>
</a>
</g>
</g>
<!-- Node9&#45;&gt;Node10 -->
<g id="edge9_Node000009_Node000010" class="edge">
<title>Node9&#45;&gt;Node10</title>
<g id="a_edge9_Node000009_Node000010"><a xlink:title=" ">
<path fill="none" stroke="#63b8ff" d="M930.92,-235C922.32,-235 913.57,-235 905.15,-235"/>
<polygon fill="#63b8ff" stroke="#63b8ff" points="930.93,-238.5 940.93,-235 930.93,-231.5 930.93,-238.5"/>
</a>
</g>
</g>
<!-- Node11 -->
<g id="Node000011" class="node">
<title>Node11</title>
<g id="a_Node000011"><a xlink:href="namespacealpaqa_1_1params.html#a8b9871d44068a0406bac89246422849e" target="_top" xlink:title=" ">
<polygon fill="white" stroke="#666666" points="905,-202 792,-202 792,-172 905,-172 905,-202"/>
<text text-anchor="start" x="800" y="-190" font-family="Helvetica,sans-Serif" font-size="10.00">alpaqa::params::set</text>
<text text-anchor="middle" x="848.5" y="-179" font-family="Helvetica,sans-Serif" font-size="10.00">_param</text>
</a>
</g>
</g>
<!-- Node9&#45;&gt;Node11 -->
<g id="edge10_Node000009_Node000011" class="edge">
<title>Node9&#45;&gt;Node11</title>
<g id="a_edge10_Node000009_Node000011"><a xlink:title=" ">
<path fill="none" stroke="#63b8ff" d="M940.74,-216.79C925.79,-211.91 909.8,-206.69 895.44,-202"/>
<polygon fill="#63b8ff" stroke="#63b8ff" points="939.8,-220.17 950.39,-219.94 941.97,-213.51 939.8,-220.17"/>
</a>
</g>
</g>
<!-- Node12 -->
<g id="Node000012" class="node">
<title>Node12</title>
<g id="a_Node000012"><a xlink:href="namespacealpaqa_1_1params.html#aa55cf9105eb52b8114309a10303aef30" target="_top" xlink:title=" ">
<polygon fill="white" stroke="#666666" points="905,-154 792,-154 792,-124 905,-124 905,-154"/>
<text text-anchor="start" x="800" y="-142" font-family="Helvetica,sans-Serif" font-size="10.00">alpaqa::params::set</text>
<text text-anchor="middle" x="848.5" y="-131" font-family="Helvetica,sans-Serif" font-size="10.00">_param</text>
</a>
</g>
</g>
<!-- Node9&#45;&gt;Node12 -->
<g id="edge11_Node000009_Node000012" class="edge">
<title>Node9&#45;&gt;Node12</title>
<g id="a_edge11_Node000009_Node000012"><a xlink:title=" ">
<path fill="none" stroke="#63b8ff" d="M972.32,-213.13C954.57,-197.8 929.39,-177.54 905,-163 899.68,-159.83 893.86,-156.85 888.06,-154.13"/>
<polygon fill="#63b8ff" stroke="#63b8ff" points="970.1,-215.83 979.93,-219.79 974.71,-210.57 970.1,-215.83"/>
</a>
</g>
</g>
<!-- Node13 -->
<g id="Node000013" class="node">
<title>Node13</title>
<g id="a_Node000013"><a xlink:href="namespacealpaqa_1_1params.html#a989ff73b0bce74dc762d6b7aa34b1168" target="_top" xlink:title=" ">
<polygon fill="white" stroke="#666666" points="905,-394 792,-394 792,-364 905,-364 905,-394"/>
<text text-anchor="start" x="800" y="-382" font-family="Helvetica,sans-Serif" font-size="10.00">alpaqa::params::set</text>
<text text-anchor="middle" x="848.5" y="-371" font-family="Helvetica,sans-Serif" font-size="10.00">_param</text>
</a>
</g>
</g>
<!-- Node9&#45;&gt;Node13 -->
<g id="edge12_Node000009_Node000013" class="edge">
<title>Node9&#45;&gt;Node13</title>
<g id="a_edge12_Node000009_Node000013"><a xlink:title=" ">
<path fill="none" stroke="#63b8ff" d="M983.33,-258.95C967.69,-285.51 939.34,-328.15 905,-355 900.7,-358.36 895.86,-361.35 890.87,-363.98"/>
<polygon fill="#63b8ff" stroke="#63b8ff" points="986.37,-260.69 988.33,-250.28 980.3,-257.2 986.37,-260.69"/>
</a>
</g>
</g>
<!-- Node14 -->
<g id="Node000014" class="node">
<title>Node14</title>
<g id="a_Node000014"><a xlink:href="namespacealpaqa_1_1params.html#ab8eefa468e61c2fa2c0e5349c1b3ef12" target="_top" xlink:title="Update/overwrite the first argument based on the JSON object j.">
<polygon fill="white" stroke="#666666" points="905,-346 792,-346 792,-316 905,-316 905,-346"/>
<text text-anchor="start" x="800" y="-334" font-family="Helvetica,sans-Serif" font-size="10.00">alpaqa::params::set</text>
<text text-anchor="middle" x="848.5" y="-323" font-family="Helvetica,sans-Serif" font-size="10.00">_param</text>
</a>
</g>
</g>
<!-- Node9&#45;&gt;Node14 -->
<g id="edge13_Node000009_Node000014" class="edge">
<title>Node9&#45;&gt;Node14</title>
<g id="a_edge13_Node000009_Node000014"><a xlink:title=" ">
<path fill="none" stroke="#63b8ff" d="M972.32,-256.87C954.57,-272.2 929.39,-292.46 905,-307 899.68,-310.17 893.86,-313.15 888.06,-315.87"/>
<polygon fill="#63b8ff" stroke="#63b8ff" points="974.71,-259.43 979.93,-250.21 970.1,-254.17 974.71,-259.43"/>
</a>
</g>
</g>
<!-- Node34 -->
<g id="Node000034" class="node">
<title>Node34</title>
<g id="a_Node000034"><a xlink:href="namespacealpaqa_1_1params.html#a8d32a134fb842020101c332293223279" target="_top" xlink:title="Update/overwrite the first argument based on the option in s.">
<polygon fill="white" stroke="#666666" points="905,-298 792,-298 792,-268 905,-268 905,-298"/>
<text text-anchor="start" x="800" y="-286" font-family="Helvetica,sans-Serif" font-size="10.00">alpaqa::params::set</text>
<text text-anchor="middle" x="848.5" y="-275" font-family="Helvetica,sans-Serif" font-size="10.00">_param</text>
</a>
</g>
</g>
<!-- Node9&#45;&gt;Node34 -->
<g id="edge44_Node000009_Node000034" class="edge">
<title>Node9&#45;&gt;Node34</title>
<g id="a_edge44_Node000009_Node000034"><a xlink:title=" ">
<path fill="none" stroke="#63b8ff" d="M940.74,-253.21C925.79,-258.09 909.8,-263.31 895.44,-268"/>
<polygon fill="#63b8ff" stroke="#63b8ff" points="941.97,-256.49 950.39,-250.06 939.8,-249.83 941.97,-256.49"/>
</a>
</g>
</g>
<!-- Node15 -->
<g id="Node000015" class="node">
<title>Node15</title>
<g id="a_Node000015"><a xlink:href="structalpaqa_1_1params_1_1attribute__accessor_3_01json_01_4.html#a0a5b45f6960fbd1a33565256fa3570c6" target="_top" xlink:title=" ">
<polygon fill="white" stroke="#666666" points="756,-358 616,-358 616,-328 756,-328 756,-358"/>
<text text-anchor="start" x="624" y="-346" font-family="Helvetica,sans-Serif" font-size="10.00">alpaqa::params::attribute</text>
<text text-anchor="middle" x="686" y="-335" font-family="Helvetica,sans-Serif" font-size="10.00">_accessor&lt; json &gt;::make</text>
</a>
</g>
</g>
<!-- Node14&#45;&gt;Node15 -->
<g id="edge14_Node000014_Node000015" class="edge">
<title>Node14&#45;&gt;Node15</title>
<g id="a_edge14_Node000014_Node000015"><a xlink:title=" ">
<path fill="none" stroke="#63b8ff" d="M781.68,-335.92C773.27,-336.55 764.63,-337.2 756.16,-337.83"/>
<polygon fill="#63b8ff" stroke="#63b8ff" points="782.1,-339.4 791.82,-335.16 781.58,-332.42 782.1,-339.4"/>
</a>
</g>
</g>
<!-- Node16 -->
<g id="Node000016" class="node">
<title>Node16</title>
<g id="a_Node000016"><a xlink:href="structalpaqa_1_1params_1_1attribute__accessor_3_01ParamString_01_4.html#a0a5b45f6960fbd1a33565256fa3570c6" target="_top" xlink:title=" ">
<polygon fill="white" stroke="#666666" points="756,-309.5 616,-309.5 616,-268.5 756,-268.5 756,-309.5"/>
<text text-anchor="start" x="624" y="-297.5" font-family="Helvetica,sans-Serif" font-size="10.00">alpaqa::params::attribute</text>
<text text-anchor="start" x="624" y="-286.5" font-family="Helvetica,sans-Serif" font-size="10.00">_accessor&lt; ParamString</text>
<text text-anchor="middle" x="686" y="-275.5" font-family="Helvetica,sans-Serif" font-size="10.00"> &gt;::make</text>
</a>
</g>
</g>
<!-- Node14&#45;&gt;Node16 -->
<g id="edge15_Node000014_Node000016" class="edge">
<title>Node14&#45;&gt;Node16</title>
<g id="a_edge15_Node000014_Node000016"><a xlink:title=" ">
<path fill="none" stroke="#63b8ff" d="M781.96,-313.85C773.46,-311.62 764.72,-309.34 756.16,-307.1"/>
<polygon fill="#63b8ff" stroke="#63b8ff" points="781.25,-317.28 791.82,-316.43 783.03,-310.51 781.25,-317.28"/>
</a>
</g>
</g>
<!-- Node17 -->
<g id="Node000017" class="node">
<title>Node17</title>
<g id="a_Node000017"><a xlink:href="namespacealpaqa_1_1params.html#af8d85f5413c4507303b00e5fb7279aea" target="_top" xlink:title=" ">
<polygon fill="white" stroke="#666666" points="742.5,-250 629.5,-250 629.5,-220 742.5,-220 742.5,-250"/>
<text text-anchor="start" x="637.5" y="-238" font-family="Helvetica,sans-Serif" font-size="10.00">alpaqa::params::set</text>
<text text-anchor="middle" x="686" y="-227" font-family="Helvetica,sans-Serif" font-size="10.00">_param</text>
</a>
</g>
</g>
<!-- Node14&#45;&gt;Node17 -->
<g id="edge16_Node000014_Node000017" class="edge">
<title>Node14&#45;&gt;Node17</title>
<g id="a_edge16_Node000014_Node000017"><a xlink:title=" ">
<path fill="none" stroke="#63b8ff" d="M797.49,-310.91C795.59,-309.67 793.75,-308.36 792,-307 771.26,-290.81 777.22,-275.55 756,-260 750.76,-256.16 744.87,-252.86 738.79,-250.03"/>
<polygon fill="#63b8ff" stroke="#63b8ff" points="795.74,-313.94 806.14,-315.97 799.27,-307.9 795.74,-313.94"/>
</a>
</g>
</g>
<!-- Node18 -->
<g id="Node000018" class="node">
<title>Node18</title>
<g id="a_Node000018"><a xlink:href="namespacealpaqa_1_1params.html#a257fd29e6f4f447cb00eb1f8affdebec" target="_top" xlink:title=" ">
<polygon fill="white" stroke="#666666" points="742.5,-202 629.5,-202 629.5,-172 742.5,-172 742.5,-202"/>
<text text-anchor="start" x="637.5" y="-190" font-family="Helvetica,sans-Serif" font-size="10.00">alpaqa::params::set</text>
<text text-anchor="middle" x="686" y="-179" font-family="Helvetica,sans-Serif" font-size="10.00">_param</text>
</a>
</g>
</g>
<!-- Node14&#45;&gt;Node18 -->
<g id="edge17_Node000014_Node000018" class="edge">
<title>Node14&#45;&gt;Node18</title>
<g id="a_edge17_Node000014_Node000018"><a xlink:title=" ">
<path fill="none" stroke="#63b8ff" d="M794.88,-309.78C793.88,-308.89 792.92,-307.96 792,-307 760.58,-273.99 788.61,-242.83 756,-211 752.1,-207.19 747.56,-203.98 742.71,-201.28"/>
<polygon fill="#63b8ff" stroke="#63b8ff" points="793.06,-312.79 803.18,-315.94 797.23,-307.17 793.06,-312.79"/>
</a>
</g>
</g>
<!-- Node19 -->
<g id="Node000019" class="node">
<title>Node19</title>
<g id="a_Node000019"><a xlink:href="namespacealpaqa_1_1params.html#a09b0cea46e22a098adb003df71cfbe14" target="_top" xlink:title=" ">
<polygon fill="white" stroke="#666666" points="742.5,-154 629.5,-154 629.5,-124 742.5,-124 742.5,-154"/>
<text text-anchor="start" x="637.5" y="-142" font-family="Helvetica,sans-Serif" font-size="10.00">alpaqa::params::set</text>
<text text-anchor="middle" x="686" y="-131" font-family="Helvetica,sans-Serif" font-size="10.00">_param</text>
</a>
</g>
</g>
<!-- Node14&#45;&gt;Node19 -->
<g id="edge18_Node000014_Node000019" class="edge">
<title>Node14&#45;&gt;Node19</title>
<g id="a_edge18_Node000014_Node000019"><a xlink:title=" ">
<path fill="none" stroke="#63b8ff" d="M794.3,-309.49C793.5,-308.69 792.73,-307.86 792,-307 749.31,-256.71 800.51,-211.69 756,-163 752.15,-158.79 747.52,-155.31 742.51,-152.45"/>
<polygon fill="#63b8ff" stroke="#63b8ff" points="792.27,-312.36 802.24,-315.95 796.69,-306.93 792.27,-312.36"/>
</a>
</g>
</g>
<!-- Node20 -->
<g id="Node000020" class="node">
<title>Node20</title>
<g id="a_Node000020"><a xlink:href="namespacealpaqa_1_1params.html#ac4f7014f0993230c417d5f192b784f6a" target="_top" xlink:title=" ">
<polygon fill="white" stroke="#666666" points="742.5,-492 629.5,-492 629.5,-462 742.5,-462 742.5,-492"/>
<text text-anchor="start" x="637.5" y="-480" font-family="Helvetica,sans-Serif" font-size="10.00">alpaqa::params::set</text>
<text text-anchor="middle" x="686" y="-469" font-family="Helvetica,sans-Serif" font-size="10.00">_param</text>
</a>
</g>
</g>
<!-- Node14&#45;&gt;Node20 -->
<g id="edge19_Node000014_Node000020" class="edge">
<title>Node14&#45;&gt;Node20</title>
<g id="a_edge19_Node000014_Node000020"><a xlink:title=" ">
<path fill="none" stroke="#63b8ff" d="M794.87,-352.21C793.87,-353.11 792.91,-354.03 792,-355 760.12,-388.72 789.09,-420.47 756,-453 752.11,-456.82 747.58,-460.04 742.74,-462.74"/>
<polygon fill="#63b8ff" stroke="#63b8ff" points="797.23,-354.82 803.16,-346.04 793.05,-349.21 797.23,-354.82"/>
</a>
</g>
</g>
<!-- Node21 -->
<g id="Node000021" class="node">
<title>Node21</title>
<g id="a_Node000021"><a xlink:href="classOptions.html#a8ca2e3915e8acf3cd04e02180e66e9ab" target="_top" xlink:title=" ">
<polygon fill="white" stroke="#666666" points="580,-416.5 463,-416.5 463,-397.5 580,-397.5 580,-416.5"/>
<text text-anchor="middle" x="521.5" y="-404.5" font-family="Helvetica,sans-Serif" font-size="10.00">Options::set_params</text>
</a>
</g>
</g>
<!-- Node14&#45;&gt;Node21 -->
<g id="edge20_Node000014_Node000021" class="edge">
<title>Node14&#45;&gt;Node21</title>
<g id="a_edge20_Node000014_Node000021"><a xlink:title=" ">
<path fill="none" stroke="#63b8ff" d="M804.58,-349.99C789.45,-356.11 772.19,-362.48 756,-367 697.17,-383.42 628.02,-394.25 580.32,-400.45"/>
<polygon fill="#63b8ff" stroke="#63b8ff" points="806.27,-353.08 814.17,-346.02 803.59,-346.61 806.27,-353.08"/>
</a>
</g>
</g>
<!-- Node33 -->
<g id="Node000033" class="node">
<title>Node33</title>
<g id="a_Node000033"><a xlink:href="namespacealpaqa_1_1params.html#abadc98653193fbd05b658d62b34f75e7" target="_top" xlink:title="Overwrites t based on the options that start with prefix.">
<polygon fill="white" stroke="#666666" points="742.5,-444 629.5,-444 629.5,-414 742.5,-414 742.5,-444"/>
<text text-anchor="start" x="637.5" y="-432" font-family="Helvetica,sans-Serif" font-size="10.00">alpaqa::params::set</text>
<text text-anchor="middle" x="686" y="-421" font-family="Helvetica,sans-Serif" font-size="10.00">_params</text>
</a>
</g>
</g>
<!-- Node14&#45;&gt;Node33 -->
<g id="edge42_Node000014_Node000033" class="edge">
<title>Node14&#45;&gt;Node33</title>
<g id="a_edge42_Node000014_Node000033"><a xlink:title=" ">
<path fill="none" stroke="#63b8ff" d="M797.52,-351.14C795.61,-352.37 793.76,-353.65 792,-355 771.64,-370.54 776.44,-384.56 756,-400 748.85,-405.4 740.54,-410 732.21,-413.84"/>
<polygon fill="#63b8ff" stroke="#63b8ff" points="799.3,-354.15 806.2,-346.12 795.8,-348.09 799.3,-354.15"/>
</a>
</g>
</g>
<!-- Node22 -->
<g id="Node000022" class="node">
<title>Node22</title>
<g id="a_Node000022"><a xlink:href="options_8hpp.html#a91fca5414dbe50bec5104c59d9ebda11" target="_top" xlink:title=" ">
<polygon fill="white" stroke="#666666" points="427,-416.5 353,-416.5 353,-397.5 427,-397.5 427,-416.5"/>
<text text-anchor="middle" x="390" y="-404.5" font-family="Helvetica,sans-Serif" font-size="10.00">set_params</text>
</a>
</g>
</g>
<!-- Node21&#45;&gt;Node22 -->
<g id="edge21_Node000021_Node000022" class="edge">
<title>Node21&#45;&gt;Node22</title>
<g id="a_edge21_Node000021_Node000022"><a xlink:title=" ">
<path fill="none" stroke="#63b8ff" d="M452.93,-407C444.05,-407 435.25,-407 427.18,-407"/>
<polygon fill="#63b8ff" stroke="#63b8ff" points="452.95,-410.5 462.95,-407 452.95,-403.5 452.95,-410.5"/>
</a>
</g>
</g>
<!-- Node22&#45;&gt;Node4 -->
<g id="edge28_Node000022_Node000004" class="edge">
<title>Node22&#45;&gt;Node4</title>
<g id="a_edge28_Node000022_Node000004"><a xlink:title=" ">
<path fill="none" stroke="#63b8ff" d="M381.57,-426.19C373.99,-446.03 362.08,-477.98 353,-506 335.04,-561.4 358.69,-591.33 317,-632 312.18,-636.7 306.3,-640.22 300.03,-642.84"/>
<polygon fill="#63b8ff" stroke="#63b8ff" points="384.87,-427.35 385.19,-416.76 378.34,-424.84 384.87,-427.35"/>
</a>
</g>
</g>
<!-- Node22&#45;&gt;Node5 -->
<g id="edge31_Node000022_Node000005" class="edge">
<title>Node22&#45;&gt;Node5</title>
<g id="a_edge31_Node000022_Node000005"><a xlink:title=" ">
<path fill="none" stroke="#63b8ff" d="M376.5,-424.73C363.52,-441.85 341.68,-467.28 317,-482 261.16,-515.31 234.86,-493.38 176,-521 138.82,-538.45 100.54,-568.8 82.17,-584.3"/>
<polygon fill="#63b8ff" stroke="#63b8ff" points="379.34,-426.77 382.45,-416.64 373.7,-422.63 379.34,-426.77"/>
</a>
</g>
</g>
<!-- Node23 -->
<g id="Node000023" class="node">
<title>Node23</title>
<g id="a_Node000023"><a xlink:href="namespaceanonymous__namespace_02problem_8cpp_03.html#a1b79c8c67d4bc5eba618a86e8b0a7744" target="_top" xlink:title=" ">
<polygon fill="white" stroke="#666666" points="314,-454.5 179,-454.5 179,-413.5 314,-413.5 314,-454.5"/>
<text text-anchor="start" x="187" y="-442.5" font-family="Helvetica,sans-Serif" font-size="10.00">anonymous_namespace</text>
<text text-anchor="start" x="187" y="-431.5" font-family="Helvetica,sans-Serif" font-size="10.00">{problem::cpp}::get</text>
<text text-anchor="middle" x="246.5" y="-420.5" font-family="Helvetica,sans-Serif" font-size="10.00">_dl_flags</text>
</a>
</g>
</g>
<!-- Node22&#45;&gt;Node23 -->
<g id="edge22_Node000022_Node000023" class="edge">
<title>Node22&#45;&gt;Node23</title>
<g id="a_edge22_Node000022_Node000023"><a xlink:title=" ">
<path fill="none" stroke="#63b8ff" d="M342.84,-415.81C333.63,-417.57 323.79,-419.44 314.05,-421.3"/>
<polygon fill="#63b8ff" stroke="#63b8ff" points="343.76,-419.2 352.93,-413.88 342.45,-412.32 343.76,-419.2"/>
</a>
</g>
</g>
<!-- Node24 -->
<g id="Node000024" class="node">
<title>Node24</title>
<g id="a_Node000024"><a xlink:href="alpaqa-driver_8cpp.html#a53c823aeddf0a1b037645504d26ee7cd" target="_top" xlink:title=" ">
<polygon fill="white" stroke="#666666" points="297,-622.5 196,-622.5 196,-603.5 297,-603.5 297,-622.5"/>
<text text-anchor="middle" x="246.5" y="-610.5" font-family="Helvetica,sans-Serif" font-size="10.00">get_output_paths</text>
</a>
</g>
</g>
<!-- Node22&#45;&gt;Node24 -->
<g id="edge24_Node000022_Node000024" class="edge">
<title>Node22&#45;&gt;Node24</title>
<g id="a_edge24_Node000022_Node000024"><a xlink:title=" ">
<path fill="none" stroke="#63b8ff" d="M381.96,-426.06C364.5,-473.26 320.34,-592.02 317,-595 311.33,-600.07 304.42,-603.74 297.17,-606.4"/>
<polygon fill="#63b8ff" stroke="#63b8ff" points="385.25,-427.25 385.44,-416.66 378.69,-424.82 385.25,-427.25"/>
</a>
</g>
</g>
<!-- Node25 -->
<g id="Node000025" class="node">
<title>Node25</title>
<g id="a_Node000025"><a xlink:href="alpaqa-driver_8cpp.html#a62667720f096806ed08c60e4207f8972" target="_top" xlink:title=" ">
<polygon fill="white" stroke="#666666" points="301,-585.5 192,-585.5 192,-566.5 301,-566.5 301,-585.5"/>
<text text-anchor="middle" x="246.5" y="-573.5" font-family="Helvetica,sans-Serif" font-size="10.00">get_output_stream</text>
</a>
</g>
</g>
<!-- Node22&#45;&gt;Node25 -->
<g id="edge26_Node000022_Node000025" class="edge">
<title>Node22&#45;&gt;Node25</title>
<g id="a_edge26_Node000022_Node000025"><a xlink:title=" ">
<path fill="none" stroke="#63b8ff" d="M382.17,-426.2C368.83,-462.71 338.72,-540.09 317,-558 312.29,-561.89 306.83,-564.94 301.09,-567.35"/>
<polygon fill="#63b8ff" stroke="#63b8ff" points="385.51,-427.28 385.61,-416.68 378.92,-424.9 385.51,-427.28"/>
</a>
</g>
</g>
<!-- Node26 -->
<g id="Node000026" class="node">
<title>Node26</title>
<g id="a_Node000026"><a xlink:href="namespaceanonymous__namespace_02problem_8cpp_03.html#ab42fb3dc0421d6c6c1f45d753a95a2c4" target="_top" xlink:title=" ">
<polygon fill="white" stroke="#666666" points="314,-279.5 179,-279.5 179,-238.5 314,-238.5 314,-279.5"/>
<text text-anchor="start" x="187" y="-267.5" font-family="Helvetica,sans-Serif" font-size="10.00">anonymous_namespace</text>
<text text-anchor="start" x="187" y="-256.5" font-family="Helvetica,sans-Serif" font-size="10.00">{problem::cpp}::load</text>
<text text-anchor="middle" x="246.5" y="-245.5" font-family="Helvetica,sans-Serif" font-size="10.00">_initial_guess</text>
</a>
</g>
</g>
<!-- Node22&#45;&gt;Node26 -->
<g id="edge29_Node000022_Node000026" class="edge">
<title>Node22&#45;&gt;Node26</title>
<g id="a_edge29_Node000022_Node000026"><a xlink:title=" ">
<path fill="none" stroke="#63b8ff" d="M378.48,-388.68C365.71,-367.46 342.7,-332.2 317,-307 306.63,-296.84 293.89,-287.35 282.16,-279.55"/>
<polygon fill="#63b8ff" stroke="#63b8ff" points="375.5,-390.52 383.59,-397.36 381.53,-386.97 375.5,-390.52"/>
</a>
</g>
</g>
<!-- Node27 -->
<g id="Node000027" class="node">
<title>Node27</title>
<g id="a_Node000027"><a xlink:href="alm-driver_8hpp.html#ae4ef291d9ec9d55ee804b5723ea2e641" target="_top" xlink:title=" ">
<polygon fill="white" stroke="#666666" points="298,-181.5 195,-181.5 195,-162.5 298,-162.5 298,-181.5"/>
<text text-anchor="middle" x="246.5" y="-169.5" font-family="Helvetica,sans-Serif" font-size="10.00">make_alm_solver</text>
</a>
</g>
</g>
<!-- Node22&#45;&gt;Node27 -->
<g id="edge32_Node000022_Node000027" class="edge">
<title>Node22&#45;&gt;Node27</title>
<g id="a_edge32_Node000022_Node000027"><a xlink:title=" ">
<path fill="none" stroke="#63b8ff" d="M387.89,-387.43C384.5,-346.27 370.94,-250.14 317,-196 310.69,-189.67 302.64,-185.01 294.26,-181.57"/>
<polygon fill="#63b8ff" stroke="#63b8ff" points="384.4,-387.76 388.6,-397.49 391.39,-387.27 384.4,-387.76"/>
</a>
</g>
</g>
<!-- Node28 -->
<g id="Node000028" class="node">
<title>Node28</title>
<g id="a_Node000028"><a xlink:href="namespaceanonymous__namespace_02fista-driver_8cpp_03.html#a479d5f0dacbf404f04a694bb1be6f6c5" target="_top" xlink:title=" ">
<polygon fill="white" stroke="#666666" points="138.5,-356.5 1.5,-356.5 1.5,-315.5 138.5,-315.5 138.5,-356.5"/>
<text text-anchor="start" x="9.5" y="-344.5" font-family="Helvetica,sans-Serif" font-size="10.00">anonymous_namespace</text>
<text text-anchor="start" x="9.5" y="-333.5" font-family="Helvetica,sans-Serif" font-size="10.00">{fista&#45;driver::cpp}</text>
<text text-anchor="middle" x="70" y="-322.5" font-family="Helvetica,sans-Serif" font-size="10.00">::make_fista_driver_impl</text>
</a>
</g>
</g>
<!-- Node22&#45;&gt;Node28 -->
<g id="edge36_Node000022_Node000028" class="edge">
<title>Node22&#45;&gt;Node28</title>
<g id="a_edge36_Node000022_Node000028"><a xlink:title=" ">
<path fill="none" stroke="#63b8ff" d="M343.04,-399.36C299.73,-391.88 233.14,-379.63 176,-366 163.83,-363.1 150.95,-359.7 138.55,-356.25"/>
<polygon fill="#63b8ff" stroke="#63b8ff" points="342.54,-402.83 352.99,-401.07 343.73,-395.93 342.54,-402.83"/>
</a>
</g>
</g>
<!-- Node22&#45;&gt;Node29 -->
<g id="edge40_Node000022_Node000029" class="edge">
<title>Node22&#45;&gt;Node29</title>
<g id="a_edge40_Node000022_Node000029"><a xlink:title=" ">
<path fill="none" stroke="#63b8ff" d="M387.05,-387.53C382.26,-350.65 366.45,-270.69 317,-230 290.5,-208.19 203.25,-195.03 140.18,-188.15"/>
<polygon fill="#63b8ff" stroke="#63b8ff" points="383.58,-387.97 388.21,-397.5 390.53,-387.16 383.58,-387.97"/>
</a>
</g>
</g>
<!-- Node22&#45;&gt;Node30 -->
<g id="edge41_Node000022_Node000030" class="edge">
<title>Node22&#45;&gt;Node30</title>
<g id="a_edge41_Node000022_Node000030"><a xlink:title=" ">
<path fill="none" stroke="#63b8ff" d="M386.25,-387.34C378.27,-333.24 353.33,-184.1 317,-153 268.46,-111.45 193.46,-108.01 139.03,-112.45"/>
<polygon fill="#63b8ff" stroke="#63b8ff" points="382.8,-387.97 387.69,-397.37 389.73,-386.97 382.8,-387.97"/>
</a>
</g>
</g>
<!-- Node31 -->
<g id="Node000031" class="node">
<title>Node31</title>
<g id="a_Node000031"><a xlink:href="namespaceanonymous__namespace_02fista-driver_8cpp_03.html#a6f96d677b5961c6a4fcaa773f37ca65b" target="_top" xlink:title=" ">
<polygon fill="white" stroke="#666666" points="317,-356.5 176,-356.5 176,-315.5 317,-315.5 317,-356.5"/>
<text text-anchor="start" x="184" y="-344.5" font-family="Helvetica,sans-Serif" font-size="10.00">anonymous_namespace</text>
<text text-anchor="start" x="184" y="-333.5" font-family="Helvetica,sans-Serif" font-size="10.00">{fista&#45;driver::cpp}</text>
<text text-anchor="middle" x="246.5" y="-322.5" font-family="Helvetica,sans-Serif" font-size="10.00">::make_inner_fista_solver</text>
</a>
</g>
</g>
<!-- Node22&#45;&gt;Node31 -->
<g id="edge37_Node000022_Node000031" class="edge">
<title>Node22&#45;&gt;Node31</title>
<g id="a_edge37_Node000022_Node000031"><a xlink:title=" ">
<path fill="none" stroke="#63b8ff" d="M360.73,-392.81C340.07,-382.45 311.73,-368.23 288.57,-356.61"/>
<polygon fill="#63b8ff" stroke="#63b8ff" points="359.41,-396.07 369.92,-397.42 362.55,-389.81 359.41,-396.07"/>
</a>
</g>
</g>
<!-- Node32 -->
<g id="Node000032" class="node">
<title>Node32</title>
<g id="a_Node000032"><a xlink:href="alm-driver_8hpp.html#a51b2a2cde56762bcb43a2f4da0913f98" target="_top" xlink:title=" ">
<polygon fill="white" stroke="#666666" points="301,-548.5 192,-548.5 192,-529.5 301,-529.5 301,-548.5"/>
<text text-anchor="middle" x="246.5" y="-536.5" font-family="Helvetica,sans-Serif" font-size="10.00">make_inner_solver</text>
</a>
</g>
</g>
<!-- Node22&#45;&gt;Node32 -->
<g id="edge39_Node000022_Node000032" class="edge">
<title>Node22&#45;&gt;Node32</title>
<g id="a_edge39_Node000022_Node000032"><a xlink:title=" ">
<path fill="none" stroke="#63b8ff" d="M381,-426.04C369.98,-450.06 347.92,-491.12 317,-515 308.92,-521.24 299.1,-525.93 289.42,-529.42"/>
<polygon fill="#63b8ff" stroke="#63b8ff" points="384.33,-427.16 385.16,-416.6 377.92,-424.34 384.33,-427.16"/>
</a>
</g>
</g>
<!-- Node23&#45;&gt;Node23 -->
<g id="edge23_Node000023_Node000023" class="edge">
<title>Node23&#45;&gt;Node23</title>
<g id="a_edge23_Node000023_Node000023"><a xlink:title=" ">
<path fill="none" stroke="#63b8ff" d="M270.93,-464.46C267.3,-469.24 259.15,-472.5 246.5,-472.5 226.25,-472.5 217.55,-464.15 220.4,-454.6"/>
<polygon fill="#63b8ff" stroke="#63b8ff" points="274.38,-465.04 272.6,-454.6 267.48,-463.87 274.38,-465.04"/>
</a>
</g>
</g>
<!-- Node24&#45;&gt;Node5 -->
<g id="edge25_Node000024_Node000005" class="edge">
<title>Node24&#45;&gt;Node5</title>
<g id="a_edge25_Node000024_Node000005"><a xlink:title=" ">
<path fill="none" stroke="#63b8ff" d="M185.92,-606.51C152.87,-602.91 113.91,-598.67 90.9,-596.17"/>
<polygon fill="#63b8ff" stroke="#63b8ff" points="185.64,-610 195.96,-607.61 186.4,-603.04 185.64,-610"/>
</a>
</g>
</g>
<!-- Node25&#45;&gt;Node5 -->
<g id="edge27_Node000025_Node000005" class="edge">
<title>Node25&#45;&gt;Node5</title>
<g id="a_edge27_Node000025_Node000005"><a xlink:title=" ">
<path fill="none" stroke="#63b8ff" d="M181.48,-582.6C149.37,-585.92 112.74,-589.69 90.76,-591.96"/>
<polygon fill="#63b8ff" stroke="#63b8ff" points="182.13,-586.06 191.72,-581.55 181.41,-579.09 182.13,-586.06"/>
</a>
</g>
</g>
<!-- Node26&#45;&gt;Node26 -->
<g id="edge30_Node000026_Node000026" class="edge">
<title>Node26&#45;&gt;Node26</title>
<g id="a_edge30_Node000026_Node000026"><a xlink:title=" ">
<path fill="none" stroke="#63b8ff" d="M270.93,-289.46C267.3,-294.24 259.15,-297.5 246.5,-297.5 226.25,-297.5 217.55,-289.15 220.4,-279.6"/>
<polygon fill="#63b8ff" stroke="#63b8ff" points="274.38,-290.04 272.6,-279.6 267.48,-288.87 274.38,-290.04"/>
</a>
</g>
</g>
<!-- Node27&#45;&gt;Node28 -->
<g id="edge33_Node000027_Node000028" class="edge">
<title>Node27&#45;&gt;Node28</title>
<g id="a_edge33_Node000027_Node000028"><a xlink:title=" ">
<path fill="none" stroke="#63b8ff" d="M225.34,-187.98C211.23,-199.37 192.1,-215.21 176,-230 145.09,-258.38 111.25,-293.29 90.57,-315.1"/>
<polygon fill="#63b8ff" stroke="#63b8ff" points="227.79,-190.5 233.4,-181.52 223.41,-185.04 227.79,-190.5"/>
</a>
</g>
</g>
<!-- Node27&#45;&gt;Node29 -->
<g id="edge34_Node000027_Node000029" class="edge">
<title>Node27&#45;&gt;Node29</title>
<g id="a_edge34_Node000027_Node000029"><a xlink:title=" ">
<path fill="none" stroke="#63b8ff" d="M184.37,-175.5C170.08,-176.32 154.77,-177.2 140.17,-178.04"/>
<polygon fill="#63b8ff" stroke="#63b8ff" points="184.77,-178.99 194.56,-174.92 184.37,-172 184.77,-178.99"/>
</a>
</g>
</g>
<!-- Node27&#45;&gt;Node30 -->
<g id="edge35_Node000027_Node000030" class="edge">
<title>Node27&#45;&gt;Node30</title>
<g id="a_edge35_Node000027_Node000030"><a xlink:title=" ">
<path fill="none" stroke="#63b8ff" d="M201.64,-159.69C182.77,-154.38 160.25,-148.06 139.28,-142.17"/>
<polygon fill="#63b8ff" stroke="#63b8ff" points="200.87,-163.1 211.44,-162.44 202.76,-156.36 200.87,-163.1"/>
</a>
</g>
</g>
<!-- Node31&#45;&gt;Node28 -->
<g id="edge38_Node000031_Node000028" class="edge">
<title>Node31&#45;&gt;Node28</title>
<g id="a_edge38_Node000031_Node000028"><a xlink:title=" ">
<path fill="none" stroke="#63b8ff" d="M165.65,-336C156.61,-336 147.48,-336 138.62,-336"/>
<polygon fill="#63b8ff" stroke="#63b8ff" points="165.78,-339.5 175.78,-336 165.78,-332.5 165.78,-339.5"/>
</a>
</g>
</g>
<!-- Node33&#45;&gt;Node21 -->
<g id="edge43_Node000033_Node000021" class="edge">
<title>Node33&#45;&gt;Node21</title>
<g id="a_edge43_Node000033_Node000021"><a xlink:title=" ">
<path fill="none" stroke="#63b8ff" d="M618.92,-420.05C606.08,-418.32 592.72,-416.51 580.18,-414.81"/>
<polygon fill="#63b8ff" stroke="#63b8ff" points="618.7,-423.56 629.08,-421.43 619.64,-416.62 618.7,-423.56"/>
</a>
</g>
</g>
</g>
</svg>
