<?xml version="1.0" encoding="UTF-8" standalone="no"?>
<!DOCTYPE svg PUBLIC "-//W3C//DTD SVG 1.1//EN"
 "http://www.w3.org/Graphics/SVG/1.1/DTD/svg11.dtd">
<!-- Generated by graphviz version 2.43.0 (0)
 -->
<!-- Title: is_bound Pages: 1 -->
<!--zoomable 205 -->

<svg id="main" version="1.1" xmlns="http://www.w3.org/2000/svg" xmlns:xlink="http://www.w3.org/1999/xlink" xml:space="preserve" onload="init(evt)">
<style type="text/css"><![CDATA[
.node, .edge {opacity: 0.7;}
.node.selected, .edge.selected {opacity: 1;}
.edge:hover path { stroke: red; }
.edge:hover polygon { stroke: red; fill: red; }
]]></style>

<defs>
  <circle id="rim" cx="0" cy="0" r="7"/>
  <circle id="rim2" cx="0" cy="0" r="3.5"/>
  <g id="zoomPlus">
    <use xlink:href="#rim" fill="#404040"><set attributeName="fill" to="#808080" begin="zoomplus.mouseover" end="zoomplus.mouseout"/></use>
    <path d="M-4,0h8M0,-4v8" fill="none" stroke="white" stroke-width="1.5" pointer-events="none"/>
  </g>
  <g id="zoomMin">
    <use xlink:href="#rim" fill="#404040"><set attributeName="fill" to="#808080" begin="zoomminus.mouseover" end="zoomminus.mouseout"/></use>
    <path d="M-4,0h8" fill="none" stroke="white" stroke-width="1.5" pointer-events="none"/>
  </g>
  <g id="arrowUp" transform="translate(30 24)">
    <use xlink:href="#rim"/>
    <path pointer-events="none" fill="none" stroke="white" stroke-width="1.5" d="M0,-3.0v7 M-2.5,-0.5L0,-3.0L2.5,-0.5"/>
  </g>
  <g id="arrowRight" transform="rotate(90) translate(36 -43)">
    <use xlink:href="#rim"/>
    <path pointer-events="none" fill="none" stroke="white" stroke-width="1.5" d="M0,-3.0v7 M-2.5,-0.5L0,-3.0L2.5,-0.5"/>
  </g>
  <g id="arrowDown" transform="rotate(180) translate(-30 -48)">
    <use xlink:href="#rim"/>
    <path pointer-events="none" fill="none" stroke="white" stroke-width="1.5" d="M0,-3.0v7 M-2.5,-0.5L0,-3.0L2.5,-0.5"/>
  </g>
  <g id="arrowLeft" transform="rotate(270) translate(-36 17)">
    <use xlink:href="#rim"/>
    <path pointer-events="none" fill="none" stroke="white" stroke-width="1.5" d="M0,-3.0v7 M-2.5,-0.5L0,-3.0L2.5,-0.5"/>
  </g>
  <g id="resetDef">
    <use xlink:href="#rim2" fill="#404040"><set attributeName="fill" to="#808080" begin="reset.mouseover" end="reset.mouseout"/></use>
  </g>
</defs>
<script type="application/ecmascript">
var viewWidth = 605;
var viewHeight = 205;
var sectionId = 'dynsection-3';
</script>
<script type="application/ecmascript" xlink:href="svg.min.js"/>
<svg id="graph" class="graph">
<g id="viewport">
<title>is_bound</title>
<!-- Node1 -->
<g id="Node000001" class="node">
<title>Node1</title>
<g id="a_Node000001"><a xlink:title="Check if the variable with the given index has bound constraints, i.e.">
<polygon fill="#999999" stroke="#666666" points="597,-105 537,-105 537,-86 597,-86 597,-105"/>
<text text-anchor="middle" x="567" y="-93" font-family="Helvetica,sans-Serif" font-size="10.00">is_bound</text>
</a>
</g>
</g>
<!-- Node2 -->
<g id="Node000002" class="node">
<title>Node2</title>
<g id="a_Node000002"><a xlink:href="structalpaqa_1_1LinConstrConverter.html#afff90c502e060851bb5be5d46ef5f561" target="_top" xlink:title=" ">
<polygon fill="white" stroke="#666666" points="322,-148.5 179,-148.5 179,-118.5 322,-118.5 322,-148.5"/>
<text text-anchor="start" x="187" y="-136.5" font-family="Helvetica,sans-Serif" font-size="10.00">add_box_constr_to_constr</text>
<text text-anchor="middle" x="250.5" y="-125.5" font-family="Helvetica,sans-Serif" font-size="10.00">_matrix</text>
</a>
</g>
</g>
<!-- Node1&#45;&gt;Node2 -->
<g id="edge1_Node000001_Node000002" class="edge">
<title>Node1&#45;&gt;Node2</title>
<g id="a_edge1_Node000001_Node000002"><a xlink:title=" ">
<path fill="none" stroke="#63b8ff" d="M527.1,-107.57C518.57,-109.85 509.54,-111.99 501,-113.5 441.2,-124.08 372.34,-129.07 322.13,-131.42"/>
<polygon fill="#63b8ff" stroke="#63b8ff" points="528.14,-110.91 536.83,-104.85 526.25,-104.17 528.14,-110.91"/>
</a>
</g>
</g>
<!-- Node5 -->
<g id="Node000005" class="node">
<title>Node5</title>
<g id="a_Node000005"><a xlink:href="structalpaqa_1_1LinConstrConverter.html#a43c6d67e83f07aa67fa248d1609b7be8" target="_top" xlink:title=" ">
<polygon fill="white" stroke="#666666" points="501,-193.5 358,-193.5 358,-163.5 501,-163.5 501,-193.5"/>
<text text-anchor="start" x="366" y="-181.5" font-family="Helvetica,sans-Serif" font-size="10.00">add_box_constr_to_constr</text>
<text text-anchor="middle" x="429.5" y="-170.5" font-family="Helvetica,sans-Serif" font-size="10.00">_matrix_inplace</text>
</a>
</g>
</g>
<!-- Node1&#45;&gt;Node5 -->
<g id="edge4_Node000001_Node000005" class="edge">
<title>Node1&#45;&gt;Node5</title>
<g id="a_edge4_Node000001_Node000005"><a xlink:title=" ">
<path fill="none" stroke="#63b8ff" d="M548.12,-111.92C535.57,-122.9 518.04,-137.18 501,-147.5 491.28,-153.39 480.24,-158.78 469.83,-163.36"/>
<polygon fill="#63b8ff" stroke="#63b8ff" points="550.47,-114.52 555.6,-105.25 545.81,-109.29 550.47,-114.52"/>
</a>
</g>
</g>
<!-- Node7 -->
<g id="Node000007" class="node">
<title>Node7</title>
<g id="a_Node000007"><a xlink:href="structalpaqa_1_1LinConstrConverter.html#abb10aadefa9f6c1ae1bde9ba04ae90ca" target="_top" xlink:title=" ">
<polygon fill="white" stroke="#666666" points="501,-67.5 358,-67.5 358,-37.5 501,-37.5 501,-67.5"/>
<text text-anchor="start" x="366" y="-55.5" font-family="Helvetica,sans-Serif" font-size="10.00">add_box_constr_to_constr</text>
<text text-anchor="middle" x="429.5" y="-44.5" font-family="Helvetica,sans-Serif" font-size="10.00">_matrix_inplace_vec</text>
</a>
</g>
</g>
<!-- Node1&#45;&gt;Node7 -->
<g id="edge6_Node000001_Node000007" class="edge">
<title>Node1&#45;&gt;Node7</title>
<g id="a_edge6_Node000001_Node000007"><a xlink:title=" ">
<path fill="none" stroke="#63b8ff" d="M527.23,-83.2C511.86,-78.32 494.03,-72.66 477.91,-67.54"/>
<polygon fill="#63b8ff" stroke="#63b8ff" points="526.34,-86.59 536.93,-86.28 528.46,-79.91 526.34,-86.59"/>
</a>
</g>
</g>
<!-- Node9 -->
<g id="Node000009" class="node">
<title>Node9</title>
<g id="a_Node000009"><a xlink:href="structalpaqa_1_1LinConstrConverter.html#aa199880d745352ec6c0262da91a9a452" target="_top" xlink:title=" ">
<polygon fill="white" stroke="#666666" points="471.5,-105 387.5,-105 387.5,-86 471.5,-86 471.5,-105"/>
<text text-anchor="middle" x="429.5" y="-93" font-family="Helvetica,sans-Serif" font-size="10.00">count_bounds</text>
</a>
</g>
</g>
<!-- Node1&#45;&gt;Node9 -->
<g id="edge8_Node000001_Node000009" class="edge">
<title>Node1&#45;&gt;Node9</title>
<g id="a_edge8_Node000001_Node000009"><a xlink:title=" ">
<path fill="none" stroke="#63b8ff" d="M526.62,-95.5C509.34,-95.5 489.07,-95.5 471.6,-95.5"/>
<polygon fill="#63b8ff" stroke="#63b8ff" points="526.93,-99 536.93,-95.5 526.93,-92 526.93,-99"/>
</a>
</g>
</g>
<!-- Node11 -->
<g id="Node000011" class="node">
<title>Node11</title>
<g id="a_Node000011"><a xlink:href="structalpaqa_1_1LinConstrConverter.html#ac88c0c936335726c98d0d6c36d0be9e7" target="_top" xlink:title=" ">
<polygon fill="white" stroke="#666666" points="459.5,-19 399.5,-19 399.5,0 459.5,0 459.5,-19"/>
<text text-anchor="middle" x="429.5" y="-7" font-family="Helvetica,sans-Serif" font-size="10.00">is_bound</text>
</a>
</g>
</g>
<!-- Node1&#45;&gt;Node11 -->
<g id="edge11_Node000001_Node000011" class="edge">
<title>Node1&#45;&gt;Node11</title>
<g id="a_edge11_Node000001_Node000011"><a xlink:title=" ">
<path fill="none" stroke="#63b8ff" d="M553.08,-77.54C541.2,-62.31 522.25,-41.01 501,-28.5 488.44,-21.11 472.93,-16.52 459.67,-13.71"/>
<polygon fill="#63b8ff" stroke="#63b8ff" points="550.41,-79.81 559.22,-85.69 556,-75.6 550.41,-79.81"/>
</a>
</g>
</g>
<!-- Node3 -->
<g id="Node000003" class="node">
<title>Node3</title>
<g id="a_Node000003"><a xlink:href="structalpaqa_1_1LinConstrConverter.html#a0ee59cb7fda24428de07e47b412d9050" target="_top" xlink:title=" ">
<polygon fill="white" stroke="#666666" points="143,-172.5 0,-172.5 0,-142.5 143,-142.5 143,-172.5"/>
<text text-anchor="start" x="8" y="-160.5" font-family="Helvetica,sans-Serif" font-size="10.00">add_box_constr_to_constr</text>
<text text-anchor="middle" x="71.5" y="-149.5" font-family="Helvetica,sans-Serif" font-size="10.00">_matrix</text>
</a>
</g>
</g>
<!-- Node2&#45;&gt;Node3 -->
<g id="edge2_Node000002_Node000003" class="edge">
<title>Node2&#45;&gt;Node3</title>
<g id="a_edge2_Node000002_Node000003"><a xlink:title=" ">
<path fill="none" stroke="#63b8ff" d="M168.79,-144.44C160.22,-145.61 151.55,-146.78 143.11,-147.93"/>
<polygon fill="#63b8ff" stroke="#63b8ff" points="169.34,-147.9 178.78,-143.09 168.4,-140.96 169.34,-147.9"/>
</a>
</g>
</g>
<!-- Node4 -->
<g id="Node000004" class="node">
<title>Node4</title>
<g id="a_Node000004"><a xlink:href="structalpaqa_1_1LinConstrConverter.html#a9ebecedcd4e24a2d1336293047b06f78" target="_top" xlink:title=" ">
<polygon fill="white" stroke="#666666" points="143,-124.5 0,-124.5 0,-94.5 143,-94.5 143,-124.5"/>
<text text-anchor="start" x="8" y="-112.5" font-family="Helvetica,sans-Serif" font-size="10.00">add_box_constr_to_constr</text>
<text text-anchor="middle" x="71.5" y="-101.5" font-family="Helvetica,sans-Serif" font-size="10.00">_matrix</text>
</a>
</g>
</g>
<!-- Node2&#45;&gt;Node4 -->
<g id="edge3_Node000002_Node000004" class="edge">
<title>Node2&#45;&gt;Node4</title>
<g id="a_edge3_Node000002_Node000004"><a xlink:title=" ">
<path fill="none" stroke="#63b8ff" d="M168.79,-122.56C160.22,-121.39 151.55,-120.22 143.11,-119.07"/>
<polygon fill="#63b8ff" stroke="#63b8ff" points="168.4,-126.04 178.78,-123.91 169.34,-119.1 168.4,-126.04"/>
</a>
</g>
</g>
<!-- Node6 -->
<g id="Node000006" class="node">
<title>Node6</title>
<g id="a_Node000006"><a xlink:href="structalpaqa_1_1LinConstrConverter.html#abda58619a88364152aae228c2cea568b" target="_top" xlink:title=" ">
<polygon fill="white" stroke="#666666" points="322,-196.5 179,-196.5 179,-166.5 322,-166.5 322,-196.5"/>
<text text-anchor="start" x="187" y="-184.5" font-family="Helvetica,sans-Serif" font-size="10.00">add_box_constr_to_constr</text>
<text text-anchor="middle" x="250.5" y="-173.5" font-family="Helvetica,sans-Serif" font-size="10.00">_matrix_inplace</text>
</a>
</g>
</g>
<!-- Node5&#45;&gt;Node6 -->
<g id="edge5_Node000005_Node000006" class="edge">
<title>Node5&#45;&gt;Node6</title>
<g id="a_edge5_Node000005_Node000006"><a xlink:title=" ">
<path fill="none" stroke="#63b8ff" d="M347.51,-179.87C339.03,-180.02 330.46,-180.16 322.11,-180.3"/>
<polygon fill="#63b8ff" stroke="#63b8ff" points="347.84,-183.37 357.78,-179.7 347.72,-176.37 347.84,-183.37"/>
</a>
</g>
</g>
<!-- Node8 -->
<g id="Node000008" class="node">
<title>Node8</title>
<g id="a_Node000008"><a xlink:href="structalpaqa_1_1LinConstrConverter.html#a64b0ceb9cab71fa3657a63e58ef8b5a3" target="_top" xlink:title=" ">
<polygon fill="white" stroke="#666666" points="322,-62.5 179,-62.5 179,-32.5 322,-32.5 322,-62.5"/>
<text text-anchor="start" x="187" y="-50.5" font-family="Helvetica,sans-Serif" font-size="10.00">add_box_constr_to_constr</text>
<text text-anchor="middle" x="250.5" y="-39.5" font-family="Helvetica,sans-Serif" font-size="10.00">_matrix_inplace_vec</text>
</a>
</g>
</g>
<!-- Node7&#45;&gt;Node8 -->
<g id="edge7_Node000007_Node000008" class="edge">
<title>Node7&#45;&gt;Node8</title>
<g id="a_edge7_Node000007_Node000008"><a xlink:title=" ">
<path fill="none" stroke="#63b8ff" d="M347.79,-50.22C339.22,-49.98 330.55,-49.73 322.11,-49.49"/>
<polygon fill="#63b8ff" stroke="#63b8ff" points="347.69,-53.72 357.78,-50.5 347.88,-46.72 347.69,-53.72"/>
</a>
</g>
</g>
<!-- Node9&#45;&gt;Node2 -->
<g id="edge9_Node000009_Node000002" class="edge">
<title>Node9&#45;&gt;Node2</title>
<g id="a_edge9_Node000009_Node000002"><a xlink:title=" ">
<path fill="none" stroke="#63b8ff" d="M377.47,-106.46C360,-110.21 340.15,-114.47 321.46,-118.48"/>
<polygon fill="#63b8ff" stroke="#63b8ff" points="378.41,-109.83 387.45,-104.31 376.94,-102.99 378.41,-109.83"/>
</a>
</g>
</g>
<!-- Node10 -->
<g id="Node000010" class="node">
<title>Node10</title>
<g id="a_Node000010"><a xlink:href="structalpaqa_1_1LinConstrConverter.html#a3c8162c090625d7c923a8e2a4d799207" target="_top" xlink:title=" ">
<polygon fill="white" stroke="#666666" points="292.5,-100 208.5,-100 208.5,-81 292.5,-81 292.5,-100"/>
<text text-anchor="middle" x="250.5" y="-88" font-family="Helvetica,sans-Serif" font-size="10.00">count_bounds</text>
</a>
</g>
</g>
<!-- Node9&#45;&gt;Node10 -->
<g id="edge10_Node000009_Node000010" class="edge">
<title>Node9&#45;&gt;Node10</title>
<g id="a_edge10_Node000009_Node000010"><a xlink:title=" ">
<path fill="none" stroke="#63b8ff" d="M377.43,-94.06C350.51,-93.3 317.92,-92.38 292.64,-91.66"/>
<polygon fill="#63b8ff" stroke="#63b8ff" points="377.35,-97.56 387.45,-94.34 377.55,-90.56 377.35,-97.56"/>
</a>
</g>
</g>
</g>
</svg>

<g id="navigator" transform="translate(0 0)" fill="#404254">
  <rect fill="#f2f5e9" fill-opacity="0.5" stroke="#606060" stroke-width=".5" x="0" y="0" width="60" height="60"/>
  <use id="zoomplus" xlink:href="#zoomPlus" x="17" y="9" onmousedown="handleZoom(evt,'in')"/>
  <use id="zoomminus" xlink:href="#zoomMin" x="42" y="9" onmousedown="handleZoom(evt,'out')"/>
  <use id="reset" xlink:href="#resetDef" x="30" y="36" onmousedown="handleReset()"/>
   <use id="arrowup" xlink:href="#arrowUp" x="0" y="0" onmousedown="handlePan(0,-1)"/>
  <use id="arrowright" xlink:href="#arrowRight" x="0" y="0" onmousedown="handlePan(1,0)"/>
  <use id="arrowdown" xlink:href="#arrowDown" x="0" y="0" onmousedown="handlePan(0,1)"/>
  <use id="arrowleft" xlink:href="#arrowLeft" x="0" y="0" onmousedown="handlePan(-1,0)"/>
</g>
<svg viewBox="0 0 15 15" width="100%" height="30px" preserveAspectRatio="xMaxYMin meet">
 <g id="arrow_out" transform="scale(0.3 0.3)">
  <a xlink:href="structalpaqa_1_1LinConstrConverter_aa7668b0df53654f4f6681905b9f49453_icgraph_org.svg" target="_base">
   <rect id="button" ry="5" rx="5" y="6" x="6" height="38" width="38"
        fill="#f2f5e9" fill-opacity="0.5" stroke="#606060" stroke-width="1.0"/>
   <path id="arrow"
     d="M 11.500037,31.436501 C 11.940474,20.09759 22.043105,11.32322 32.158766,21.979434 L 37.068811,17.246167 C 37.068811,17.246167 37.088388,32 37.088388,32 L 22.160133,31.978069 C 22.160133,31.978069 26.997745,27.140456 26.997745,27.140456 C 18.528582,18.264221 13.291696,25.230495 11.500037,31.436501 z"
     style="fill:#404040;"/>
  </a>
 </g>
</svg>

<style type='text/css'>
<![CDATA[
[data-mouse-over-selected='false'] { opacity: 0.7; }
[data-mouse-over-selected='true']  { opacity: 1.0; }
]]>
</style>
<script type="application/ecmascript"><![CDATA[
document.addEventListener('DOMContentLoaded', (event) => {
  highlightEdges();
  highlightAdjacentNodes();
});
]]></script>
</svg>
