<?xml version="1.0" encoding="UTF-8" standalone="no"?>
<!DOCTYPE svg PUBLIC "-//W3C//DTD SVG 1.1//EN"
 "http://www.w3.org/Graphics/SVG/1.1/DTD/svg11.dtd">
<!-- Generated by graphviz version 2.43.0 (0)
 -->
<!-- Title: src/interop/casadi/include/alpaqa/casadi/casadi&#45;external&#45;function.hpp Pages: 1 -->
<!--zoomable 280 -->

<svg id="main" version="1.1" xmlns="http://www.w3.org/2000/svg" xmlns:xlink="http://www.w3.org/1999/xlink" xml:space="preserve" onload="init(evt)">
<style type="text/css"><![CDATA[
.node, .edge {opacity: 0.7;}
.node.selected, .edge.selected {opacity: 1;}
.edge:hover path { stroke: red; }
.edge:hover polygon { stroke: red; fill: red; }
]]></style>

<defs>
  <circle id="rim" cx="0" cy="0" r="7"/>
  <circle id="rim2" cx="0" cy="0" r="3.5"/>
  <g id="zoomPlus">
    <use xlink:href="#rim" fill="#404040"><set attributeName="fill" to="#808080" begin="zoomplus.mouseover" end="zoomplus.mouseout"/></use>
    <path d="M-4,0h8M0,-4v8" fill="none" stroke="white" stroke-width="1.5" pointer-events="none"/>
  </g>
  <g id="zoomMin">
    <use xlink:href="#rim" fill="#404040"><set attributeName="fill" to="#808080" begin="zoomminus.mouseover" end="zoomminus.mouseout"/></use>
    <path d="M-4,0h8" fill="none" stroke="white" stroke-width="1.5" pointer-events="none"/>
  </g>
  <g id="arrowUp" transform="translate(30 24)">
    <use xlink:href="#rim"/>
    <path pointer-events="none" fill="none" stroke="white" stroke-width="1.5" d="M0,-3.0v7 M-2.5,-0.5L0,-3.0L2.5,-0.5"/>
  </g>
  <g id="arrowRight" transform="rotate(90) translate(36 -43)">
    <use xlink:href="#rim"/>
    <path pointer-events="none" fill="none" stroke="white" stroke-width="1.5" d="M0,-3.0v7 M-2.5,-0.5L0,-3.0L2.5,-0.5"/>
  </g>
  <g id="arrowDown" transform="rotate(180) translate(-30 -48)">
    <use xlink:href="#rim"/>
    <path pointer-events="none" fill="none" stroke="white" stroke-width="1.5" d="M0,-3.0v7 M-2.5,-0.5L0,-3.0L2.5,-0.5"/>
  </g>
  <g id="arrowLeft" transform="rotate(270) translate(-36 17)">
    <use xlink:href="#rim"/>
    <path pointer-events="none" fill="none" stroke="white" stroke-width="1.5" d="M0,-3.0v7 M-2.5,-0.5L0,-3.0L2.5,-0.5"/>
  </g>
  <g id="resetDef">
    <use xlink:href="#rim2" fill="#404040"><set attributeName="fill" to="#808080" begin="reset.mouseover" end="reset.mouseout"/></use>
  </g>
</defs>
<script type="application/ecmascript">
var viewWidth = 871;
var viewHeight = 280;
var sectionId = 'dynsection-0';
</script>
<script type="application/ecmascript" xlink:href="svg.min.js"/>
<svg id="graph" class="graph">
<g id="viewport">
<title>src/interop/casadi/include/alpaqa/casadi/casadi&#45;external&#45;function.hpp</title>
<!-- Node1 -->
<g id="Node000001" class="node">
<title>Node1</title>
<g id="a_Node000001"><a xlink:title=" ">
<polygon fill="#999999" stroke="#666666" points="585.5,-272 425.5,-272 425.5,-231 585.5,-231 585.5,-272"/>
<text text-anchor="start" x="433.5" y="-260" font-family="Helvetica,sans-Serif" font-size="10.00">src/interop/casadi</text>
<text text-anchor="start" x="433.5" y="-249" font-family="Helvetica,sans-Serif" font-size="10.00">/include/alpaqa/casadi</text>
<text text-anchor="middle" x="505.5" y="-238" font-family="Helvetica,sans-Serif" font-size="10.00">/casadi&#45;external&#45;function.hpp</text>
</a>
</g>
</g>
<!-- Node2 -->
<g id="Node000002" class="node">
<title>Node2</title>
<g id="a_Node000002"><a xlink:title=" ">
<polygon fill="#e0e0e0" stroke="#999999" points="119,-195 0,-195 0,-165 119,-165 119,-195"/>
<text text-anchor="start" x="8" y="-183" font-family="Helvetica,sans-Serif" font-size="10.00">alpaqa/casadi&#45;loader</text>
<text text-anchor="middle" x="59.5" y="-172" font-family="Helvetica,sans-Serif" font-size="10.00">&#45;export.h</text>
</a>
</g>
</g>
<!-- Node1&#45;&gt;Node2 -->
<g id="edge1_Node000001_Node000002" class="edge">
<title>Node1&#45;&gt;Node2</title>
<g id="a_edge1_Node000001_Node000002"><a xlink:title=" ">
<path fill="none" stroke="#63b8ff" d="M425.17,-239.44C349.73,-228.83 233.78,-211.96 133.5,-195 132.05,-194.75 130.58,-194.5 129.11,-194.25"/>
<polygon fill="#63b8ff" stroke="#63b8ff" points="129.69,-190.8 119.24,-192.51 128.48,-197.69 129.69,-190.8"/>
</a>
</g>
</g>
<!-- Node3 -->
<g id="Node000003" class="node">
<title>Node3</title>
<g id="a_Node000003"><a xlink:href="dl-flags_8hpp.html" target="_top" xlink:title=" ">
<polygon fill="white" stroke="#666666" points="444.5,-74 316.5,-74 316.5,-55 444.5,-55 444.5,-74"/>
<text text-anchor="middle" x="380.5" y="-62" font-family="Helvetica,sans-Serif" font-size="10.00">alpaqa/util/dl&#45;flags.hpp</text>
</a>
</g>
</g>
<!-- Node1&#45;&gt;Node3 -->
<g id="edge2_Node000001_Node000003" class="edge">
<title>Node1&#45;&gt;Node3</title>
<g id="a_edge2_Node000001_Node000003"><a xlink:title=" ">
<path fill="none" stroke="#63b8ff" d="M470.68,-230.76C456.66,-221.41 441.3,-209.17 430.5,-195 404.3,-160.61 390.27,-110.84 384.22,-84.12"/>
<polygon fill="#63b8ff" stroke="#63b8ff" points="387.61,-83.24 382.1,-74.19 380.76,-84.7 387.61,-83.24"/>
</a>
</g>
</g>
<!-- Node5 -->
<g id="Node000005" class="node">
<title>Node5</title>
<g id="a_Node000005"><a xlink:href="casadi-functions_8hpp.html" target="_top" xlink:title=" ">
<polygon fill="white" stroke="#666666" points="564.5,-189.5 446.5,-189.5 446.5,-170.5 564.5,-170.5 564.5,-189.5"/>
<text text-anchor="middle" x="505.5" y="-177.5" font-family="Helvetica,sans-Serif" font-size="10.00">casadi&#45;functions.hpp</text>
</a>
</g>
</g>
<!-- Node1&#45;&gt;Node5 -->
<g id="edge4_Node000001_Node000005" class="edge">
<title>Node1&#45;&gt;Node5</title>
<g id="a_edge4_Node000001_Node000005"><a xlink:title=" ">
<path fill="none" stroke="#63b8ff" d="M505.5,-230.77C505.5,-221.08 505.5,-209.46 505.5,-199.88"/>
<polygon fill="#63b8ff" stroke="#63b8ff" points="509,-199.82 505.5,-189.82 502,-199.82 509,-199.82"/>
</a>
</g>
</g>
<!-- Node6 -->
<g id="Node000006" class="node">
<title>Node6</title>
<g id="a_Node000006"><a xlink:href="casadi-namespace_8hpp.html" target="_top" xlink:title=" ">
<polygon fill="white" stroke="#666666" points="592,-74 463,-74 463,-55 592,-55 592,-74"/>
<text text-anchor="middle" x="527.5" y="-62" font-family="Helvetica,sans-Serif" font-size="10.00">casadi&#45;namespace.hpp</text>
</a>
</g>
</g>
<!-- Node1&#45;&gt;Node6 -->
<g id="edge18_Node000001_Node000006" class="edge">
<title>Node1&#45;&gt;Node6</title>
<g id="a_edge18_Node000001_Node000006"><a xlink:title=" ">
<path fill="none" stroke="#63b8ff" d="M470.31,-230.95C457.52,-221.84 444.49,-209.73 437.5,-195 431.78,-182.95 432.71,-177.44 437.5,-165 451.39,-128.93 485.1,-97.8 507.09,-80.38"/>
<polygon fill="#63b8ff" stroke="#63b8ff" points="509.36,-83.05 515.15,-74.18 505.09,-77.5 509.36,-83.05"/>
</a>
</g>
</g>
<!-- Node13 -->
<g id="Node000013" class="node">
<title>Node13</title>
<g id="a_Node000013"><a xlink:title=" ">
<polygon fill="#e0e0e0" stroke="#999999" points="90.5,-74 32.5,-74 32.5,-55 90.5,-55 90.5,-74"/>
<text text-anchor="middle" x="61.5" y="-62" font-family="Helvetica,sans-Serif" font-size="10.00">memory</text>
</a>
</g>
</g>
<!-- Node1&#45;&gt;Node13 -->
<g id="edge20_Node000001_Node000013" class="edge">
<title>Node1&#45;&gt;Node13</title>
<g id="a_edge20_Node000001_Node000013"><a xlink:title=" ">
<path fill="none" stroke="#63b8ff" d="M425.39,-238.82C377.96,-230.22 317.4,-216.27 266.5,-195 192.69,-164.16 115.51,-107.75 80.62,-80.73"/>
<polygon fill="#63b8ff" stroke="#63b8ff" points="82.35,-77.63 72.32,-74.22 78.04,-83.14 82.35,-77.63"/>
</a>
</g>
</g>
<!-- Node14 -->
<g id="Node000014" class="node">
<title>Node14</title>
<g id="a_Node000014"><a xlink:title=" ">
<polygon fill="#e0e0e0" stroke="#999999" points="174,-74 109,-74 109,-55 174,-55 174,-74"/>
<text text-anchor="middle" x="141.5" y="-62" font-family="Helvetica,sans-Serif" font-size="10.00">stdexcept</text>
</a>
</g>
</g>
<!-- Node1&#45;&gt;Node14 -->
<g id="edge23_Node000001_Node000014" class="edge">
<title>Node1&#45;&gt;Node14</title>
<g id="a_edge23_Node000001_Node000014"><a xlink:title=" ">
<path fill="none" stroke="#63b8ff" d="M434.96,-230.98C371.33,-211.35 276.9,-177.11 204.5,-129 185.01,-116.05 166.63,-96.33 154.81,-82.31"/>
<polygon fill="#63b8ff" stroke="#63b8ff" points="157.39,-79.94 148.35,-74.43 151.98,-84.38 157.39,-79.94"/>
</a>
</g>
</g>
<!-- Node15 -->
<g id="Node000015" class="node">
<title>Node15</title>
<g id="a_Node000015"><a xlink:title=" ">
<polygon fill="#e0e0e0" stroke="#999999" points="703.5,-129 651.5,-129 651.5,-110 703.5,-110 703.5,-129"/>
<text text-anchor="middle" x="677.5" y="-117" font-family="Helvetica,sans-Serif" font-size="10.00">cassert</text>
</a>
</g>
</g>
<!-- Node1&#45;&gt;Node15 -->
<g id="edge19_Node000001_Node000015" class="edge">
<title>Node1&#45;&gt;Node15</title>
<g id="a_edge19_Node000001_Node000015"><a xlink:title=" ">
<path fill="none" stroke="#63b8ff" d="M529.61,-230.88C558.28,-207.56 603.32,-171.04 611.5,-165 625.81,-154.43 642.42,-143.24 655.4,-134.72"/>
<polygon fill="#63b8ff" stroke="#63b8ff" points="657.65,-137.43 664.12,-129.04 653.83,-131.57 657.65,-137.43"/>
</a>
</g>
</g>
<!-- Node16 -->
<g id="Node000016" class="node">
<title>Node16</title>
<g id="a_Node000016"><a xlink:title=" ">
<polygon fill="#e0e0e0" stroke="#999999" points="676.5,-189.5 620.5,-189.5 620.5,-170.5 676.5,-170.5 676.5,-189.5"/>
<text text-anchor="middle" x="648.5" y="-177.5" font-family="Helvetica,sans-Serif" font-size="10.00">optional</text>
</a>
</g>
</g>
<!-- Node1&#45;&gt;Node16 -->
<g id="edge21_Node000001_Node000016" class="edge">
<title>Node1&#45;&gt;Node16</title>
<g id="a_edge21_Node000001_Node000016"><a xlink:title=" ">
<path fill="none" stroke="#63b8ff" d="M545.71,-230.96C570.07,-219.12 600.46,-204.35 621.86,-193.95"/>
<polygon fill="#63b8ff" stroke="#63b8ff" points="623.54,-197.02 631,-189.5 620.48,-190.73 623.54,-197.02"/>
</a>
</g>
</g>
<!-- Node17 -->
<g id="Node000017" class="node">
<title>Node17</title>
<g id="a_Node000017"><a xlink:title=" ">
<polygon fill="#e0e0e0" stroke="#999999" points="734.5,-189.5 694.5,-189.5 694.5,-170.5 734.5,-170.5 734.5,-189.5"/>
<text text-anchor="middle" x="714.5" y="-177.5" font-family="Helvetica,sans-Serif" font-size="10.00">span</text>
</a>
</g>
</g>
<!-- Node1&#45;&gt;Node17 -->
<g id="edge22_Node000001_Node000017" class="edge">
<title>Node1&#45;&gt;Node17</title>
<g id="a_edge22_Node000001_Node000017"><a xlink:title=" ">
<path fill="none" stroke="#63b8ff" d="M577.74,-230.93C610.97,-221.24 650.65,-208.69 685.5,-195 686.51,-194.6 687.54,-194.18 688.58,-193.75"/>
<polygon fill="#63b8ff" stroke="#63b8ff" points="690.14,-196.88 697.82,-189.58 687.27,-190.5 690.14,-196.88"/>
</a>
</g>
</g>
<!-- Node18 -->
<g id="Node000018" class="node">
<title>Node18</title>
<g id="a_Node000018"><a xlink:title=" ">
<polygon fill="#e0e0e0" stroke="#999999" points="798,-189.5 753,-189.5 753,-170.5 798,-170.5 798,-189.5"/>
<text text-anchor="middle" x="775.5" y="-177.5" font-family="Helvetica,sans-Serif" font-size="10.00">utility</text>
</a>
</g>
</g>
<!-- Node1&#45;&gt;Node18 -->
<g id="edge24_Node000001_Node000018" class="edge">
<title>Node1&#45;&gt;Node18</title>
<g id="a_edge24_Node000001_Node000018"><a xlink:title=" ">
<path fill="none" stroke="#63b8ff" d="M585.57,-235.65C632.23,-226.05 691.86,-212.16 743.5,-195 744.94,-194.52 746.4,-194 747.87,-193.46"/>
<polygon fill="#63b8ff" stroke="#63b8ff" points="749.49,-196.58 757.45,-189.58 746.87,-190.09 749.49,-196.58"/>
</a>
</g>
</g>
<!-- Node19 -->
<g id="Node000019" class="node">
<title>Node19</title>
<g id="a_Node000019"><a xlink:title=" ">
<polygon fill="#e0e0e0" stroke="#999999" points="863,-189.5 816,-189.5 816,-170.5 863,-170.5 863,-189.5"/>
<text text-anchor="middle" x="839.5" y="-177.5" font-family="Helvetica,sans-Serif" font-size="10.00">vector</text>
</a>
</g>
</g>
<!-- Node1&#45;&gt;Node19 -->
<g id="edge25_Node000001_Node000019" class="edge">
<title>Node1&#45;&gt;Node19</title>
<g id="a_edge25_Node000001_Node000019"><a xlink:title=" ">
<path fill="none" stroke="#63b8ff" d="M585.55,-240.92C647.12,-232.33 733.84,-217.55 807.5,-195 809.13,-194.5 810.8,-193.94 812.46,-193.34"/>
<polygon fill="#63b8ff" stroke="#63b8ff" points="813.85,-196.55 821.84,-189.59 811.25,-190.05 813.85,-196.55"/>
</a>
</g>
</g>
<!-- Node4 -->
<g id="Node000004" class="node">
<title>Node4</title>
<g id="a_Node000004"><a xlink:title=" ">
<polygon fill="#e0e0e0" stroke="#999999" points="338,-19 245,-19 245,0 338,0 338,-19"/>
<text text-anchor="middle" x="291.5" y="-7" font-family="Helvetica,sans-Serif" font-size="10.00">alpaqa/export.h</text>
</a>
</g>
</g>
<!-- Node3&#45;&gt;Node4 -->
<g id="edge3_Node000003_Node000004" class="edge">
<title>Node3&#45;&gt;Node4</title>
<g id="a_edge3_Node000003_Node000004"><a xlink:title=" ">
<path fill="none" stroke="#63b8ff" d="M366.2,-54.98C352.4,-46.77 331.26,-34.18 314.99,-24.49"/>
<polygon fill="#63b8ff" stroke="#63b8ff" points="316.44,-21.28 306.06,-19.17 312.86,-27.29 316.44,-21.28"/>
</a>
</g>
</g>
<!-- Node5&#45;&gt;Node6 -->
<g id="edge5_Node000005_Node000006" class="edge">
<title>Node5&#45;&gt;Node6</title>
<g id="a_edge5_Node000005_Node000006"><a xlink:title=" ">
<path fill="none" stroke="#63b8ff" d="M507.15,-170.47C510.69,-152.23 519.05,-109.07 523.89,-84.14"/>
<polygon fill="#63b8ff" stroke="#63b8ff" points="527.36,-84.61 525.83,-74.13 520.49,-83.28 527.36,-84.61"/>
</a>
</g>
</g>
<!-- Node7 -->
<g id="Node000007" class="node">
<title>Node7</title>
<g id="a_Node000007"><a xlink:href="casadi-types_8hpp.html" target="_top" xlink:title=" ">
<polygon fill="white" stroke="#666666" points="633.5,-129 533.5,-129 533.5,-110 633.5,-110 633.5,-129"/>
<text text-anchor="middle" x="583.5" y="-117" font-family="Helvetica,sans-Serif" font-size="10.00">casadi&#45;types.hpp</text>
</a>
</g>
</g>
<!-- Node5&#45;&gt;Node7 -->
<g id="edge6_Node000005_Node000007" class="edge">
<title>Node5&#45;&gt;Node7</title>
<g id="a_edge6_Node000005_Node000007"><a xlink:title=" ">
<path fill="none" stroke="#63b8ff" d="M517.01,-170.37C529.34,-161.12 549.12,-146.28 563.91,-135.19"/>
<polygon fill="#63b8ff" stroke="#63b8ff" points="566.04,-137.97 571.94,-129.17 561.84,-132.37 566.04,-137.97"/>
</a>
</g>
</g>
<!-- Node11 -->
<g id="Node000011" class="node">
<title>Node11</title>
<g id="a_Node000011"><a xlink:href="dl_8hpp.html" target="_top" xlink:title=" ">
<polygon fill="white" stroke="#666666" points="315,-129 214,-129 214,-110 315,-110 315,-129"/>
<text text-anchor="middle" x="264.5" y="-117" font-family="Helvetica,sans-Serif" font-size="10.00">alpaqa/util/dl.hpp</text>
</a>
</g>
</g>
<!-- Node5&#45;&gt;Node11 -->
<g id="edge11_Node000005_Node000011" class="edge">
<title>Node5&#45;&gt;Node11</title>
<g id="a_edge11_Node000005_Node000011"><a xlink:title=" ">
<path fill="none" stroke="#63b8ff" d="M470.46,-170.49C427.89,-160.16 356.01,-142.71 309.41,-131.4"/>
<polygon fill="#63b8ff" stroke="#63b8ff" points="310.13,-127.97 299.59,-129.02 308.48,-134.78 310.13,-127.97"/>
</a>
</g>
</g>
<!-- Node5&#45;&gt;Node15 -->
<g id="edge17_Node000005_Node000015" class="edge">
<title>Node5&#45;&gt;Node15</title>
<g id="a_edge17_Node000005_Node000015"><a xlink:title=" ">
<path fill="none" stroke="#63b8ff" d="M530.51,-170.49C560.06,-160.44 609.41,-143.66 642.69,-132.34"/>
<polygon fill="#63b8ff" stroke="#63b8ff" points="644.12,-135.55 652.46,-129.02 641.87,-128.92 644.12,-135.55"/>
</a>
</g>
</g>
<!-- Node7&#45;&gt;Node6 -->
<g id="edge10_Node000007_Node000006" class="edge">
<title>Node7&#45;&gt;Node6</title>
<g id="a_edge10_Node000007_Node000006"><a xlink:title=" ">
<path fill="none" stroke="#63b8ff" d="M574.5,-109.98C566.31,-102.23 553.99,-90.58 544.03,-81.14"/>
<polygon fill="#63b8ff" stroke="#63b8ff" points="546.33,-78.5 536.66,-74.17 541.52,-83.59 546.33,-78.5"/>
</a>
</g>
</g>
<!-- Node8 -->
<g id="Node000008" class="node">
<title>Node8</title>
<g id="a_Node000008"><a xlink:title=" ">
<polygon fill="#e0e0e0" stroke="#999999" points="674.5,-74 610.5,-74 610.5,-55 674.5,-55 674.5,-74"/>
<text text-anchor="middle" x="642.5" y="-62" font-family="Helvetica,sans-Serif" font-size="10.00">algorithm</text>
</a>
</g>
</g>
<!-- Node7&#45;&gt;Node8 -->
<g id="edge7_Node000007_Node000008" class="edge">
<title>Node7&#45;&gt;Node8</title>
<g id="a_edge7_Node000007_Node000008"><a xlink:title=" ">
<path fill="none" stroke="#63b8ff" d="M592.98,-109.98C601.7,-102.15 614.84,-90.34 625.4,-80.86"/>
<polygon fill="#63b8ff" stroke="#63b8ff" points="627.75,-83.46 632.85,-74.17 623.07,-78.25 627.75,-83.46"/>
</a>
</g>
</g>
<!-- Node9 -->
<g id="Node000009" class="node">
<title>Node9</title>
<g id="a_Node000009"><a xlink:title=" ">
<polygon fill="#e0e0e0" stroke="#999999" points="734.5,-74 692.5,-74 692.5,-55 734.5,-55 734.5,-74"/>
<text text-anchor="middle" x="713.5" y="-62" font-family="Helvetica,sans-Serif" font-size="10.00">array</text>
</a>
</g>
</g>
<!-- Node7&#45;&gt;Node9 -->
<g id="edge8_Node000007_Node000009" class="edge">
<title>Node7&#45;&gt;Node9</title>
<g id="a_edge8_Node000007_Node000009"><a xlink:title=" ">
<path fill="none" stroke="#63b8ff" d="M604.39,-109.98C625.58,-101.34 658.63,-87.87 682.8,-78.02"/>
<polygon fill="#63b8ff" stroke="#63b8ff" points="684.29,-81.19 692.23,-74.17 681.65,-74.7 684.29,-81.19"/>
</a>
</g>
</g>
<!-- Node10 -->
<g id="Node000010" class="node">
<title>Node10</title>
<g id="a_Node000010"><a xlink:title=" ">
<polygon fill="#e0e0e0" stroke="#999999" points="796.5,-74 752.5,-74 752.5,-55 796.5,-55 796.5,-74"/>
<text text-anchor="middle" x="774.5" y="-62" font-family="Helvetica,sans-Serif" font-size="10.00">string</text>
</a>
</g>
</g>
<!-- Node7&#45;&gt;Node10 -->
<g id="edge9_Node000007_Node000010" class="edge">
<title>Node7&#45;&gt;Node10</title>
<g id="a_edge9_Node000007_Node000010"><a xlink:title=" ">
<path fill="none" stroke="#63b8ff" d="M614.19,-109.98C649.32,-100.24 706.59,-84.34 742.33,-74.43"/>
<polygon fill="#63b8ff" stroke="#63b8ff" points="743.54,-77.72 752.24,-71.68 741.67,-70.98 743.54,-77.72"/>
</a>
</g>
</g>
<!-- Node11&#45;&gt;Node3 -->
<g id="edge13_Node000011_Node000003" class="edge">
<title>Node11&#45;&gt;Node3</title>
<g id="a_edge13_Node000011_Node000003"><a xlink:title=" ">
<path fill="none" stroke="#63b8ff" d="M283.14,-109.98C301.8,-101.46 330.75,-88.23 352.24,-78.41"/>
<polygon fill="#63b8ff" stroke="#63b8ff" points="353.88,-81.51 361.52,-74.17 350.97,-75.14 353.88,-81.51"/>
</a>
</g>
</g>
<!-- Node11&#45;&gt;Node4 -->
<g id="edge12_Node000011_Node000004" class="edge">
<title>Node11&#45;&gt;Node4</title>
<g id="a_edge12_Node000011_Node000004"><a xlink:title=" ">
<path fill="none" stroke="#63b8ff" d="M251.5,-109.99C235.05,-98.1 210.16,-75.66 221.5,-55 229.27,-40.85 243.67,-30.56 257.39,-23.46"/>
<polygon fill="#63b8ff" stroke="#63b8ff" points="259.16,-26.49 266.69,-19.05 256.16,-20.17 259.16,-26.49"/>
</a>
</g>
</g>
<!-- Node12 -->
<g id="Node000012" class="node">
<title>Node12</title>
<g id="a_Node000012"><a xlink:title=" ">
<polygon fill="#e0e0e0" stroke="#999999" points="298.5,-74 230.5,-74 230.5,-55 298.5,-55 298.5,-74"/>
<text text-anchor="middle" x="264.5" y="-62" font-family="Helvetica,sans-Serif" font-size="10.00">filesystem</text>
</a>
</g>
</g>
<!-- Node11&#45;&gt;Node12 -->
<g id="edge14_Node000011_Node000012" class="edge">
<title>Node11&#45;&gt;Node12</title>
<g id="a_edge14_Node000011_Node000012"><a xlink:title=" ">
<path fill="none" stroke="#63b8ff" d="M264.5,-109.75C264.5,-102.8 264.5,-92.85 264.5,-84.13"/>
<polygon fill="#63b8ff" stroke="#63b8ff" points="268,-84.09 264.5,-74.09 261,-84.09 268,-84.09"/>
</a>
</g>
</g>
<!-- Node11&#45;&gt;Node13 -->
<g id="edge15_Node000011_Node000013" class="edge">
<title>Node11&#45;&gt;Node13</title>
<g id="a_edge15_Node000011_Node000013"><a xlink:title=" ">
<path fill="none" stroke="#63b8ff" d="M231.88,-109.98C196.08,-100.64 138.63,-85.64 100.48,-75.68"/>
<polygon fill="#63b8ff" stroke="#63b8ff" points="101.3,-72.27 90.74,-73.13 99.53,-79.05 101.3,-72.27"/>
</a>
</g>
</g>
<!-- Node11&#45;&gt;Node14 -->
<g id="edge16_Node000011_Node000014" class="edge">
<title>Node11&#45;&gt;Node14</title>
<g id="a_edge16_Node000011_Node000014"><a xlink:title=" ">
<path fill="none" stroke="#63b8ff" d="M244.74,-109.98C224.77,-101.38 193.7,-87.99 170.85,-78.15"/>
<polygon fill="#63b8ff" stroke="#63b8ff" points="172.19,-74.91 161.62,-74.17 169.42,-81.34 172.19,-74.91"/>
</a>
</g>
</g>
</g>
</svg>

<g id="navigator" transform="translate(0 0)" fill="#404254">
  <rect fill="#f2f5e9" fill-opacity="0.5" stroke="#606060" stroke-width=".5" x="0" y="0" width="60" height="60"/>
  <use id="zoomplus" xlink:href="#zoomPlus" x="17" y="9" onmousedown="handleZoom(evt,'in')"/>
  <use id="zoomminus" xlink:href="#zoomMin" x="42" y="9" onmousedown="handleZoom(evt,'out')"/>
  <use id="reset" xlink:href="#resetDef" x="30" y="36" onmousedown="handleReset()"/>
   <use id="arrowup" xlink:href="#arrowUp" x="0" y="0" onmousedown="handlePan(0,-1)"/>
  <use id="arrowright" xlink:href="#arrowRight" x="0" y="0" onmousedown="handlePan(1,0)"/>
  <use id="arrowdown" xlink:href="#arrowDown" x="0" y="0" onmousedown="handlePan(0,1)"/>
  <use id="arrowleft" xlink:href="#arrowLeft" x="0" y="0" onmousedown="handlePan(-1,0)"/>
</g>
<svg viewBox="0 0 15 15" width="100%" height="30px" preserveAspectRatio="xMaxYMin meet">
 <g id="arrow_out" transform="scale(0.3 0.3)">
  <a xlink:href="casadi-external-function_8hpp__incl_org.svg" target="_base">
   <rect id="button" ry="5" rx="5" y="6" x="6" height="38" width="38"
        fill="#f2f5e9" fill-opacity="0.5" stroke="#606060" stroke-width="1.0"/>
   <path id="arrow"
     d="M 11.500037,31.436501 C 11.940474,20.09759 22.043105,11.32322 32.158766,21.979434 L 37.068811,17.246167 C 37.068811,17.246167 37.088388,32 37.088388,32 L 22.160133,31.978069 C 22.160133,31.978069 26.997745,27.140456 26.997745,27.140456 C 18.528582,18.264221 13.291696,25.230495 11.500037,31.436501 z"
     style="fill:#404040;"/>
  </a>
 </g>
</svg>

<style type='text/css'>
<![CDATA[
[data-mouse-over-selected='false'] { opacity: 0.7; }
[data-mouse-over-selected='true']  { opacity: 1.0; }
]]>
</style>
<script type="application/ecmascript"><![CDATA[
document.addEventListener('DOMContentLoaded', (event) => {
  highlightEdges();
  highlightAdjacentNodes();
});
]]></script>
</svg>
