<?xml version="1.0" encoding="UTF-8" standalone="no"?>
<!DOCTYPE svg PUBLIC "-//W3C//DTD SVG 1.1//EN"
 "http://www.w3.org/Graphics/SVG/1.1/DTD/svg11.dtd">
<!-- Generated by graphviz version 2.43.0 (0)
 -->
<!-- Title: src/interop/casadi/include/alpaqa/casadi/CasADiControlProblem.hpp Pages: 1 -->
<svg width="1083pt" height="247pt"
 viewBox="0.00 0.00 1082.50 247.00" xmlns="http://www.w3.org/2000/svg" xmlns:xlink="http://www.w3.org/1999/xlink">
<g id="graph0" class="graph" transform="scale(1 1) rotate(0) translate(4 243)">
<title>src/interop/casadi/include/alpaqa/casadi/CasADiControlProblem.hpp</title>
<!-- Node1 -->
<g id="Node000001" class="node">
<title>Node1</title>
<g id="a_Node000001"><a xlink:title=" ">
<polygon fill="#999999" stroke="#666666" points="633.5,-239 481.5,-239 481.5,-198 633.5,-198 633.5,-239"/>
<text text-anchor="start" x="489.5" y="-227" font-family="Helvetica,sans-Serif" font-size="10.00">src/interop/casadi</text>
<text text-anchor="start" x="489.5" y="-216" font-family="Helvetica,sans-Serif" font-size="10.00">/include/alpaqa/casadi</text>
<text text-anchor="middle" x="557.5" y="-205" font-family="Helvetica,sans-Serif" font-size="10.00">/CasADiControlProblem.hpp</text>
</a>
</g>
</g>
<!-- Node2 -->
<g id="Node000002" class="node">
<title>Node2</title>
<g id="a_Node000002"><a xlink:href="casadi-ocp-loader-export_8hpp.html" target="_top" xlink:title=" ">
<polygon fill="white" stroke="#666666" points="217.5,-162 77.5,-162 77.5,-132 217.5,-132 217.5,-162"/>
<text text-anchor="start" x="85.5" y="-150" font-family="Helvetica,sans-Serif" font-size="10.00">alpaqa/casadi&#45;ocp&#45;loader</text>
<text text-anchor="middle" x="147.5" y="-139" font-family="Helvetica,sans-Serif" font-size="10.00">&#45;export.hpp</text>
</a>
</g>
</g>
<!-- Node1&#45;&gt;Node2 -->
<g id="edge1_Node000001_Node000002" class="edge">
<title>Node1&#45;&gt;Node2</title>
<g id="a_edge1_Node000001_Node000002"><a xlink:title=" ">
<path fill="none" stroke="#63b8ff" d="M481.21,-204.91C416.4,-194.17 320.6,-178.19 227.57,-162.18"/>
<polygon fill="#63b8ff" stroke="#63b8ff" points="228.15,-158.73 217.71,-160.48 226.97,-165.62 228.15,-158.73"/>
</a>
</g>
</g>
<!-- Node4 -->
<g id="Node000004" class="node">
<title>Node4</title>
<g id="a_Node000004"><a xlink:href="casadi-namespace_8hpp.html" target="_top" xlink:title=" ">
<polygon fill="white" stroke="#666666" points="355,-162 236,-162 236,-132 355,-132 355,-162"/>
<text text-anchor="start" x="244" y="-150" font-family="Helvetica,sans-Serif" font-size="10.00">alpaqa/casadi/casadi</text>
<text text-anchor="middle" x="295.5" y="-139" font-family="Helvetica,sans-Serif" font-size="10.00">&#45;namespace.hpp</text>
</a>
</g>
</g>
<!-- Node1&#45;&gt;Node4 -->
<g id="edge3_Node000001_Node000004" class="edge">
<title>Node1&#45;&gt;Node4</title>
<g id="a_edge3_Node000001_Node000004"><a xlink:title=" ">
<path fill="none" stroke="#63b8ff" d="M483.82,-197.96C444.22,-187.45 395.92,-174.64 358.15,-164.62"/>
<polygon fill="#63b8ff" stroke="#63b8ff" points="358.85,-161.18 348.29,-162 357.06,-167.95 358.85,-161.18"/>
</a>
</g>
</g>
<!-- Node5 -->
<g id="Node000005" class="node">
<title>Node5</title>
<g id="a_Node000005"><a xlink:href="config_8hpp.html" target="_top" xlink:title=" ">
<polygon fill="white" stroke="#666666" points="417,-90.5 282,-90.5 282,-71.5 417,-71.5 417,-90.5"/>
<text text-anchor="middle" x="349.5" y="-78.5" font-family="Helvetica,sans-Serif" font-size="10.00">alpaqa/config/config.hpp</text>
</a>
</g>
</g>
<!-- Node1&#45;&gt;Node5 -->
<g id="edge4_Node000001_Node000005" class="edge">
<title>Node1&#45;&gt;Node5</title>
<g id="a_edge4_Node000001_Node000005"><a xlink:title=" ">
<path fill="none" stroke="#63b8ff" d="M481.23,-200.81C454.43,-192.33 425.33,-179.9 402.5,-162 381.36,-145.43 365.82,-117.99 357.22,-99.95"/>
<polygon fill="#63b8ff" stroke="#63b8ff" points="360.38,-98.46 353.06,-90.8 354.01,-101.35 360.38,-98.46"/>
</a>
</g>
</g>
<!-- Node12 -->
<g id="Node000012" class="node">
<title>Node12</title>
<g id="a_Node000012"><a xlink:href="box_8hpp.html" target="_top" xlink:title=" ">
<polygon fill="white" stroke="#666666" points="547,-156.5 412,-156.5 412,-137.5 547,-137.5 547,-156.5"/>
<text text-anchor="middle" x="479.5" y="-144.5" font-family="Helvetica,sans-Serif" font-size="10.00">alpaqa/problem/box.hpp</text>
</a>
</g>
</g>
<!-- Node1&#45;&gt;Node12 -->
<g id="edge11_Node000001_Node000012" class="edge">
<title>Node1&#45;&gt;Node12</title>
<g id="a_edge11_Node000001_Node000012"><a xlink:title=" ">
<path fill="none" stroke="#63b8ff" d="M535.36,-197.77C523.18,-186.92 508.29,-173.65 496.94,-163.54"/>
<polygon fill="#63b8ff" stroke="#63b8ff" points="499.19,-160.86 489.4,-156.82 494.54,-166.09 499.19,-160.86"/>
</a>
</g>
</g>
<!-- Node16 -->
<g id="Node000016" class="node">
<title>Node16</title>
<g id="a_Node000016"><a xlink:href="check-dim_8hpp.html" target="_top" xlink:title=" ">
<polygon fill="white" stroke="#666666" points="708,-156.5 565,-156.5 565,-137.5 708,-137.5 708,-156.5"/>
<text text-anchor="middle" x="636.5" y="-144.5" font-family="Helvetica,sans-Serif" font-size="10.00">alpaqa/util/check&#45;dim.hpp</text>
</a>
</g>
</g>
<!-- Node1&#45;&gt;Node16 -->
<g id="edge19_Node000001_Node000016" class="edge">
<title>Node1&#45;&gt;Node16</title>
<g id="a_edge19_Node000001_Node000016"><a xlink:title=" ">
<path fill="none" stroke="#63b8ff" d="M579.93,-197.77C592.26,-186.92 607.34,-173.65 618.83,-163.54"/>
<polygon fill="#63b8ff" stroke="#63b8ff" points="621.28,-166.05 626.47,-156.82 616.65,-160.8 621.28,-166.05"/>
</a>
</g>
</g>
<!-- Node20 -->
<g id="Node000020" class="node">
<title>Node20</title>
<g id="a_Node000020"><a xlink:href="copyable__unique__ptr_8hpp.html" target="_top" xlink:title=" ">
<polygon fill="white" stroke="#666666" points="842.5,-162 726.5,-162 726.5,-132 842.5,-132 842.5,-162"/>
<text text-anchor="start" x="734.5" y="-150" font-family="Helvetica,sans-Serif" font-size="10.00">alpaqa/util/copyable</text>
<text text-anchor="middle" x="784.5" y="-139" font-family="Helvetica,sans-Serif" font-size="10.00">_unique_ptr.hpp</text>
</a>
</g>
</g>
<!-- Node1&#45;&gt;Node20 -->
<g id="edge24_Node000001_Node000020" class="edge">
<title>Node1&#45;&gt;Node20</title>
<g id="a_edge24_Node000001_Node000020"><a xlink:title=" ">
<path fill="none" stroke="#63b8ff" d="M621.34,-197.96C655.21,-187.59 696.43,-174.97 728.96,-165"/>
<polygon fill="#63b8ff" stroke="#63b8ff" points="730.22,-168.28 738.76,-162 728.17,-161.58 730.22,-168.28"/>
</a>
</g>
</g>
<!-- Node22 -->
<g id="Node000022" class="node">
<title>Node22</title>
<g id="a_Node000022"><a xlink:href="dl-flags_8hpp.html" target="_top" xlink:title=" ">
<polygon fill="white" stroke="#666666" points="988.5,-156.5 860.5,-156.5 860.5,-137.5 988.5,-137.5 988.5,-156.5"/>
<text text-anchor="middle" x="924.5" y="-144.5" font-family="Helvetica,sans-Serif" font-size="10.00">alpaqa/util/dl&#45;flags.hpp</text>
</a>
</g>
</g>
<!-- Node1&#45;&gt;Node22 -->
<g id="edge26_Node000001_Node000022" class="edge">
<title>Node1&#45;&gt;Node22</title>
<g id="a_edge26_Node000001_Node000022"><a xlink:title=" ">
<path fill="none" stroke="#63b8ff" d="M633.66,-203.19C693.02,-192.01 777.51,-176.08 851.5,-162 857.57,-160.84 863.93,-159.63 870.25,-158.42"/>
<polygon fill="#63b8ff" stroke="#63b8ff" points="870.95,-161.85 880.11,-156.53 869.63,-154.98 870.95,-161.85"/>
</a>
</g>
</g>
<!-- Node24 -->
<g id="Node000024" class="node">
<title>Node24</title>
<g id="a_Node000024"><a xlink:title=" ">
<polygon fill="#e0e0e0" stroke="#999999" points="1074.5,-156.5 1006.5,-156.5 1006.5,-137.5 1074.5,-137.5 1074.5,-156.5"/>
<text text-anchor="middle" x="1040.5" y="-144.5" font-family="Helvetica,sans-Serif" font-size="10.00">filesystem</text>
</a>
</g>
</g>
<!-- Node1&#45;&gt;Node24 -->
<g id="edge28_Node000001_Node000024" class="edge">
<title>Node1&#45;&gt;Node24</title>
<g id="a_edge28_Node000001_Node000024"><a xlink:title=" ">
<path fill="none" stroke="#63b8ff" d="M633.77,-212.28C722.12,-205.23 871.65,-190.16 997.5,-162 1000.72,-161.28 1004.04,-160.42 1007.34,-159.48"/>
<polygon fill="#63b8ff" stroke="#63b8ff" points="1008.52,-162.78 1017.07,-156.52 1006.48,-156.09 1008.52,-162.78"/>
</a>
</g>
</g>
<!-- Node3 -->
<g id="Node000003" class="node">
<title>Node3</title>
<g id="a_Node000003"><a xlink:title=" ">
<polygon fill="#e0e0e0" stroke="#999999" points="217.5,-96 77.5,-96 77.5,-66 217.5,-66 217.5,-96"/>
<text text-anchor="start" x="85.5" y="-84" font-family="Helvetica,sans-Serif" font-size="10.00">alpaqa/casadi&#45;ocp&#45;loader</text>
<text text-anchor="middle" x="147.5" y="-73" font-family="Helvetica,sans-Serif" font-size="10.00">&#45;export.h</text>
</a>
</g>
</g>
<!-- Node2&#45;&gt;Node3 -->
<g id="edge2_Node000002_Node000003" class="edge">
<title>Node2&#45;&gt;Node3</title>
<g id="a_edge2_Node000002_Node000003"><a xlink:title=" ">
<path fill="none" stroke="#63b8ff" d="M147.5,-131.8C147.5,-124.34 147.5,-114.99 147.5,-106.41"/>
<polygon fill="#63b8ff" stroke="#63b8ff" points="151,-106.16 147.5,-96.16 144,-106.16 151,-106.16"/>
</a>
</g>
</g>
<!-- Node6 -->
<g id="Node000006" class="node">
<title>Node6</title>
<g id="a_Node000006"><a xlink:href="quadmath-print_8hpp.html" target="_top" xlink:title=" ">
<polygon fill="white" stroke="#666666" points="121,-30 0,-30 0,0 121,0 121,-30"/>
<text text-anchor="start" x="8" y="-18" font-family="Helvetica,sans-Serif" font-size="10.00">alpaqa/util/quadmath</text>
<text text-anchor="middle" x="60.5" y="-7" font-family="Helvetica,sans-Serif" font-size="10.00">/quadmath&#45;print.hpp</text>
</a>
</g>
</g>
<!-- Node5&#45;&gt;Node6 -->
<g id="edge5_Node000005_Node000006" class="edge">
<title>Node5&#45;&gt;Node6</title>
<g id="a_edge5_Node000005_Node000006"><a xlink:title=" ">
<path fill="none" stroke="#63b8ff" d="M310.82,-71.44C264.97,-61.28 187.66,-44.16 131.06,-31.63"/>
<polygon fill="#63b8ff" stroke="#63b8ff" points="131.62,-28.16 121.1,-29.42 130.1,-35 131.62,-28.16"/>
</a>
</g>
</g>
<!-- Node7 -->
<g id="Node000007" class="node">
<title>Node7</title>
<g id="a_Node000007"><a xlink:href="quadmath_8hpp.html" target="_top" xlink:title=" ">
<polygon fill="white" stroke="#666666" points="410,-30 289,-30 289,0 410,0 410,-30"/>
<text text-anchor="start" x="297" y="-18" font-family="Helvetica,sans-Serif" font-size="10.00">alpaqa/util/quadmath</text>
<text text-anchor="middle" x="349.5" y="-7" font-family="Helvetica,sans-Serif" font-size="10.00">/quadmath.hpp</text>
</a>
</g>
</g>
<!-- Node5&#45;&gt;Node7 -->
<g id="edge6_Node000005_Node000007" class="edge">
<title>Node5&#45;&gt;Node7</title>
<g id="a_edge6_Node000005_Node000007"><a xlink:title=" ">
<path fill="none" stroke="#63b8ff" d="M349.5,-71.37C349.5,-63.49 349.5,-51.45 349.5,-40.6"/>
<polygon fill="#63b8ff" stroke="#63b8ff" points="353,-40.36 349.5,-30.36 346,-40.36 353,-40.36"/>
</a>
</g>
</g>
<!-- Node8 -->
<g id="Node000008" class="node">
<title>Node8</title>
<g id="a_Node000008"><a xlink:title=" ">
<polygon fill="#e0e0e0" stroke="#999999" points="487,-24.5 428,-24.5 428,-5.5 487,-5.5 487,-24.5"/>
<text text-anchor="middle" x="457.5" y="-12.5" font-family="Helvetica,sans-Serif" font-size="10.00">complex</text>
</a>
</g>
</g>
<!-- Node5&#45;&gt;Node8 -->
<g id="edge7_Node000005_Node000008" class="edge">
<title>Node5&#45;&gt;Node8</title>
<g id="a_edge7_Node000005_Node000008"><a xlink:title=" ">
<path fill="none" stroke="#63b8ff" d="M364.07,-71.37C382.02,-60.73 412.77,-42.51 434.06,-29.89"/>
<polygon fill="#63b8ff" stroke="#63b8ff" points="436,-32.81 442.82,-24.7 432.43,-26.79 436,-32.81"/>
</a>
</g>
</g>
<!-- Node9 -->
<g id="Node000009" class="node">
<title>Node9</title>
<g id="a_Node000009"><a xlink:title=" ">
<polygon fill="#e0e0e0" stroke="#999999" points="183.5,-24.5 139.5,-24.5 139.5,-5.5 183.5,-5.5 183.5,-24.5"/>
<text text-anchor="middle" x="161.5" y="-12.5" font-family="Helvetica,sans-Serif" font-size="10.00">limits</text>
</a>
</g>
</g>
<!-- Node5&#45;&gt;Node9 -->
<g id="edge8_Node000005_Node000009" class="edge">
<title>Node5&#45;&gt;Node9</title>
<g id="a_edge8_Node000005_Node000009"><a xlink:title=" ">
<path fill="none" stroke="#63b8ff" d="M319.04,-71.44C287.15,-62.21 235.77,-46.6 192.5,-30 191.29,-29.54 190.06,-29.05 188.82,-28.55"/>
<polygon fill="#63b8ff" stroke="#63b8ff" points="189.95,-25.22 179.38,-24.5 187.2,-31.66 189.95,-25.22"/>
</a>
</g>
</g>
<!-- Node10 -->
<g id="Node000010" class="node">
<title>Node10</title>
<g id="a_Node000010"><a xlink:title=" ">
<polygon fill="#e0e0e0" stroke="#999999" points="574,-24.5 505,-24.5 505,-5.5 574,-5.5 574,-24.5"/>
<text text-anchor="middle" x="539.5" y="-12.5" font-family="Helvetica,sans-Serif" font-size="10.00">type_traits</text>
</a>
</g>
</g>
<!-- Node5&#45;&gt;Node10 -->
<g id="edge9_Node000005_Node000010" class="edge">
<title>Node5&#45;&gt;Node10</title>
<g id="a_edge9_Node000005_Node000010"><a xlink:title=" ">
<path fill="none" stroke="#63b8ff" d="M375.12,-71.37C408.51,-60.12 467.01,-40.42 504.47,-27.8"/>
<polygon fill="#63b8ff" stroke="#63b8ff" points="505.62,-31.11 513.98,-24.6 503.38,-24.47 505.62,-31.11"/>
</a>
</g>
</g>
<!-- Node11 -->
<g id="Node000011" class="node">
<title>Node11</title>
<g id="a_Node000011"><a xlink:title=" ">
<polygon fill="#e0e0e0" stroke="#999999" points="271,-24.5 202,-24.5 202,-5.5 271,-5.5 271,-24.5"/>
<text text-anchor="middle" x="236.5" y="-12.5" font-family="Helvetica,sans-Serif" font-size="10.00">Eigen/Core</text>
</a>
</g>
</g>
<!-- Node5&#45;&gt;Node11 -->
<g id="edge10_Node000005_Node000011" class="edge">
<title>Node5&#45;&gt;Node11</title>
<g id="a_edge10_Node000005_Node000011"><a xlink:title=" ">
<path fill="none" stroke="#63b8ff" d="M334.26,-71.37C315.39,-60.68 283.02,-42.35 260.73,-29.72"/>
<polygon fill="#63b8ff" stroke="#63b8ff" points="262.29,-26.58 251.86,-24.7 258.84,-32.67 262.29,-26.58"/>
</a>
</g>
</g>
<!-- Node12&#45;&gt;Node5 -->
<g id="edge12_Node000012_Node000005" class="edge">
<title>Node12&#45;&gt;Node5</title>
<g id="a_edge12_Node000012_Node000005"><a xlink:title=" ">
<path fill="none" stroke="#63b8ff" d="M461.97,-137.37C439.97,-126.54 402.01,-107.85 376.35,-95.22"/>
<polygon fill="#63b8ff" stroke="#63b8ff" points="377.69,-91.98 367.17,-90.7 374.6,-98.26 377.69,-91.98"/>
</a>
</g>
</g>
<!-- Node13 -->
<g id="Node000013" class="node">
<title>Node13</title>
<g id="a_Node000013"><a xlink:href="float_8hpp.html" target="_top" xlink:title=" ">
<polygon fill="white" stroke="#666666" points="549.5,-90.5 435.5,-90.5 435.5,-71.5 549.5,-71.5 549.5,-90.5"/>
<text text-anchor="middle" x="492.5" y="-78.5" font-family="Helvetica,sans-Serif" font-size="10.00">alpaqa/util/float.hpp</text>
</a>
</g>
</g>
<!-- Node12&#45;&gt;Node13 -->
<g id="edge13_Node000012_Node000013" class="edge">
<title>Node12&#45;&gt;Node13</title>
<g id="a_edge13_Node000012_Node000013"><a xlink:title=" ">
<path fill="none" stroke="#63b8ff" d="M481.25,-137.37C483.14,-128.07 486.21,-112.98 488.66,-100.9"/>
<polygon fill="#63b8ff" stroke="#63b8ff" points="492.13,-101.4 490.69,-90.91 485.27,-100.01 492.13,-101.4"/>
</a>
</g>
</g>
<!-- Node13&#45;&gt;Node7 -->
<g id="edge14_Node000013_Node000007" class="edge">
<title>Node13&#45;&gt;Node7</title>
<g id="a_edge14_Node000013_Node000007"><a xlink:title=" ">
<path fill="none" stroke="#63b8ff" d="M473.21,-71.37C452.07,-61.91 417.54,-46.45 390.33,-34.27"/>
<polygon fill="#63b8ff" stroke="#63b8ff" points="391.6,-31.01 381.04,-30.12 388.74,-37.4 391.6,-31.01"/>
</a>
</g>
</g>
<!-- Node13&#45;&gt;Node8 -->
<g id="edge16_Node000013_Node000008" class="edge">
<title>Node13&#45;&gt;Node8</title>
<g id="a_edge16_Node000013_Node000008"><a xlink:title=" ">
<path fill="none" stroke="#63b8ff" d="M487.78,-71.37C482.54,-61.78 473.93,-46.05 467.23,-33.8"/>
<polygon fill="#63b8ff" stroke="#63b8ff" points="470.24,-32 462.37,-24.91 464.1,-35.36 470.24,-32"/>
</a>
</g>
</g>
<!-- Node13&#45;&gt;Node10 -->
<g id="edge18_Node000013_Node000010" class="edge">
<title>Node13&#45;&gt;Node10</title>
<g id="a_edge18_Node000013_Node000010"><a xlink:title=" ">
<path fill="none" stroke="#63b8ff" d="M498.84,-71.37C506.02,-61.59 517.89,-45.42 526.96,-33.08"/>
<polygon fill="#63b8ff" stroke="#63b8ff" points="529.86,-35.04 532.96,-24.91 524.22,-30.89 529.86,-35.04"/>
</a>
</g>
</g>
<!-- Node14 -->
<g id="Node000014" class="node">
<title>Node14</title>
<g id="a_Node000014"><a xlink:title=" ">
<polygon fill="#e0e0e0" stroke="#999999" points="639,-24.5 592,-24.5 592,-5.5 639,-5.5 639,-24.5"/>
<text text-anchor="middle" x="615.5" y="-12.5" font-family="Helvetica,sans-Serif" font-size="10.00">cmath</text>
</a>
</g>
</g>
<!-- Node13&#45;&gt;Node14 -->
<g id="edge15_Node000013_Node000014" class="edge">
<title>Node13&#45;&gt;Node14</title>
<g id="a_edge15_Node000013_Node000014"><a xlink:title=" ">
<path fill="none" stroke="#63b8ff" d="M509.09,-71.37C529.81,-60.59 565.5,-42.02 589.78,-29.38"/>
<polygon fill="#63b8ff" stroke="#63b8ff" points="591.53,-32.42 598.78,-24.7 588.3,-26.21 591.53,-32.42"/>
</a>
</g>
</g>
<!-- Node15 -->
<g id="Node000015" class="node">
<title>Node15</title>
<g id="a_Node000015"><a xlink:title=" ">
<polygon fill="#e0e0e0" stroke="#999999" points="717.5,-24.5 657.5,-24.5 657.5,-5.5 717.5,-5.5 717.5,-24.5"/>
<text text-anchor="middle" x="687.5" y="-12.5" font-family="Helvetica,sans-Serif" font-size="10.00">concepts</text>
</a>
</g>
</g>
<!-- Node13&#45;&gt;Node15 -->
<g id="edge17_Node000013_Node000015" class="edge">
<title>Node13&#45;&gt;Node15</title>
<g id="a_edge17_Node000013_Node000015"><a xlink:title=" ">
<path fill="none" stroke="#63b8ff" d="M519.73,-71.44C550.73,-61.64 602.88,-45 647.5,-30 649.6,-29.3 651.75,-28.56 653.92,-27.82"/>
<polygon fill="#63b8ff" stroke="#63b8ff" points="655.11,-31.11 663.42,-24.54 652.82,-24.5 655.11,-31.11"/>
</a>
</g>
</g>
<!-- Node16&#45;&gt;Node5 -->
<g id="edge20_Node000016_Node000005" class="edge">
<title>Node16&#45;&gt;Node5</title>
<g id="a_edge20_Node000016_Node000005"><a xlink:title=" ">
<path fill="none" stroke="#63b8ff" d="M598.09,-137.44C546.33,-125.89 454.17,-105.34 397.78,-92.77"/>
<polygon fill="#63b8ff" stroke="#63b8ff" points="398.2,-89.27 387.68,-90.51 396.68,-96.11 398.2,-89.27"/>
</a>
</g>
</g>
<!-- Node17 -->
<g id="Node000017" class="node">
<title>Node17</title>
<g id="a_Node000017"><a xlink:title=" ">
<polygon fill="#e0e0e0" stroke="#999999" points="623.5,-90.5 567.5,-90.5 567.5,-71.5 623.5,-71.5 623.5,-90.5"/>
<text text-anchor="middle" x="595.5" y="-78.5" font-family="Helvetica,sans-Serif" font-size="10.00">optional</text>
</a>
</g>
</g>
<!-- Node16&#45;&gt;Node17 -->
<g id="edge21_Node000016_Node000017" class="edge">
<title>Node16&#45;&gt;Node17</title>
<g id="a_edge21_Node000016_Node000017"><a xlink:title=" ">
<path fill="none" stroke="#63b8ff" d="M630.97,-137.37C624.77,-127.69 614.55,-111.74 606.67,-99.44"/>
<polygon fill="#63b8ff" stroke="#63b8ff" points="609.55,-97.44 601.2,-90.91 603.65,-101.21 609.55,-97.44"/>
</a>
</g>
</g>
<!-- Node18 -->
<g id="Node000018" class="node">
<title>Node18</title>
<g id="a_Node000018"><a xlink:title=" ">
<polygon fill="#e0e0e0" stroke="#999999" points="707,-90.5 642,-90.5 642,-71.5 707,-71.5 707,-90.5"/>
<text text-anchor="middle" x="674.5" y="-78.5" font-family="Helvetica,sans-Serif" font-size="10.00">stdexcept</text>
</a>
</g>
</g>
<!-- Node16&#45;&gt;Node18 -->
<g id="edge22_Node000016_Node000018" class="edge">
<title>Node16&#45;&gt;Node18</title>
<g id="a_edge22_Node000016_Node000018"><a xlink:title=" ">
<path fill="none" stroke="#63b8ff" d="M641.62,-137.37C647.32,-127.78 656.66,-112.05 663.93,-99.8"/>
<polygon fill="#63b8ff" stroke="#63b8ff" points="667.12,-101.29 669.21,-90.91 661.1,-97.72 667.12,-101.29"/>
</a>
</g>
</g>
<!-- Node19 -->
<g id="Node000019" class="node">
<title>Node19</title>
<g id="a_Node000019"><a xlink:title=" ">
<polygon fill="#e0e0e0" stroke="#999999" points="769.5,-90.5 725.5,-90.5 725.5,-71.5 769.5,-71.5 769.5,-90.5"/>
<text text-anchor="middle" x="747.5" y="-78.5" font-family="Helvetica,sans-Serif" font-size="10.00">string</text>
</a>
</g>
</g>
<!-- Node16&#45;&gt;Node19 -->
<g id="edge23_Node000016_Node000019" class="edge">
<title>Node16&#45;&gt;Node19</title>
<g id="a_edge23_Node000016_Node000019"><a xlink:title=" ">
<path fill="none" stroke="#63b8ff" d="M651.47,-137.37C670.01,-126.68 701.81,-108.35 723.7,-95.72"/>
<polygon fill="#63b8ff" stroke="#63b8ff" points="725.5,-98.73 732.41,-90.7 722,-92.66 725.5,-98.73"/>
</a>
</g>
</g>
<!-- Node21 -->
<g id="Node000021" class="node">
<title>Node21</title>
<g id="a_Node000021"><a xlink:title=" ">
<polygon fill="#e0e0e0" stroke="#999999" points="845.5,-90.5 787.5,-90.5 787.5,-71.5 845.5,-71.5 845.5,-90.5"/>
<text text-anchor="middle" x="816.5" y="-78.5" font-family="Helvetica,sans-Serif" font-size="10.00">memory</text>
</a>
</g>
</g>
<!-- Node20&#45;&gt;Node21 -->
<g id="edge25_Node000020_Node000021" class="edge">
<title>Node20&#45;&gt;Node21</title>
<g id="a_edge25_Node000020_Node000021"><a xlink:title=" ">
<path fill="none" stroke="#63b8ff" d="M791.6,-131.8C796.3,-122.41 802.49,-110.02 807.53,-99.95"/>
<polygon fill="#63b8ff" stroke="#63b8ff" points="810.74,-101.35 812.08,-90.84 804.48,-98.22 810.74,-101.35"/>
</a>
</g>
</g>
<!-- Node23 -->
<g id="Node000023" class="node">
<title>Node23</title>
<g id="a_Node000023"><a xlink:title=" ">
<polygon fill="#e0e0e0" stroke="#999999" points="971,-90.5 878,-90.5 878,-71.5 971,-71.5 971,-90.5"/>
<text text-anchor="middle" x="924.5" y="-78.5" font-family="Helvetica,sans-Serif" font-size="10.00">alpaqa/export.h</text>
</a>
</g>
</g>
<!-- Node22&#45;&gt;Node23 -->
<g id="edge27_Node000022_Node000023" class="edge">
<title>Node22&#45;&gt;Node23</title>
<g id="a_edge27_Node000022_Node000023"><a xlink:title=" ">
<path fill="none" stroke="#63b8ff" d="M924.5,-137.37C924.5,-128.16 924.5,-113.29 924.5,-101.27"/>
<polygon fill="#63b8ff" stroke="#63b8ff" points="928,-100.91 924.5,-90.91 921,-100.91 928,-100.91"/>
</a>
</g>
</g>
</g>
</svg>
