<?xml version="1.0" encoding="UTF-8" standalone="no"?>
<!DOCTYPE svg PUBLIC "-//W3C//DTD SVG 1.1//EN"
 "http://www.w3.org/Graphics/SVG/1.1/DTD/svg11.dtd">
<!-- Generated by graphviz version 2.43.0 (0)
 -->
<!-- Title: src/interop/casadi/src/casadi&#45;external&#45;function.cpp Pages: 1 -->
<svg width="958pt" height="346pt"
 viewBox="0.00 0.00 958.12 346.00" xmlns="http://www.w3.org/2000/svg" xmlns:xlink="http://www.w3.org/1999/xlink">
<g id="graph0" class="graph" transform="scale(1 1) rotate(0) translate(4 342)">
<title>src/interop/casadi/src/casadi&#45;external&#45;function.cpp</title>
<!-- Node1 -->
<g id="Node000001" class="node">
<title>Node1</title>
<g id="a_Node000001"><a xlink:title=" ">
<polygon fill="#999999" stroke="#666666" points="340.62,-338 227.62,-338 227.62,-297 340.62,-297 340.62,-338"/>
<text text-anchor="start" x="235.62" y="-326" font-family="Helvetica,sans-Serif" font-size="10.00">src/interop/casadi</text>
<text text-anchor="start" x="235.62" y="-315" font-family="Helvetica,sans-Serif" font-size="10.00">/src/casadi&#45;external</text>
<text text-anchor="middle" x="284.12" y="-304" font-family="Helvetica,sans-Serif" font-size="10.00">&#45;function.cpp</text>
</a>
</g>
</g>
<!-- Node2 -->
<g id="Node000002" class="node">
<title>Node2</title>
<g id="a_Node000002"><a xlink:href="casadi-external-function_8hpp.html" target="_top" xlink:title=" ">
<polygon fill="white" stroke="#666666" points="346.62,-261 221.62,-261 221.62,-231 346.62,-231 346.62,-261"/>
<text text-anchor="start" x="229.62" y="-249" font-family="Helvetica,sans-Serif" font-size="10.00">alpaqa/casadi/casadi</text>
<text text-anchor="middle" x="284.12" y="-238" font-family="Helvetica,sans-Serif" font-size="10.00">&#45;external&#45;function.hpp</text>
</a>
</g>
</g>
<!-- Node1&#45;&gt;Node2 -->
<g id="edge1_Node000001_Node000002" class="edge">
<title>Node1&#45;&gt;Node2</title>
<g id="a_edge1_Node000001_Node000002"><a xlink:title=" ">
<path fill="none" stroke="#63b8ff" d="M284.12,-296.77C284.12,-288.85 284.12,-279.63 284.12,-271.3"/>
<polygon fill="#63b8ff" stroke="#63b8ff" points="287.62,-271.04 284.12,-261.04 280.62,-271.04 287.62,-271.04"/>
</a>
</g>
</g>
<!-- Node7 -->
<g id="Node000007" class="node">
<title>Node7</title>
<g id="a_Node000007"><a xlink:href="casadi-namespace_8hpp.html" target="_top" xlink:title=" ">
<polygon fill="white" stroke="#666666" points="189.62,-74 60.62,-74 60.62,-55 189.62,-55 189.62,-74"/>
<text text-anchor="middle" x="125.12" y="-62" font-family="Helvetica,sans-Serif" font-size="10.00">casadi&#45;namespace.hpp</text>
</a>
</g>
</g>
<!-- Node1&#45;&gt;Node7 -->
<g id="edge27_Node000001_Node000007" class="edge">
<title>Node1&#45;&gt;Node7</title>
<g id="a_edge27_Node000001_Node000007"><a xlink:title=" ">
<path fill="none" stroke="#63b8ff" d="M227.57,-310.12C161.11,-299.27 53.61,-270.43 4.12,-195 -4.02,-182.6 2.02,-119.39 9.12,-110 21.31,-93.89 40.11,-83.61 59.05,-77.05"/>
<polygon fill="#63b8ff" stroke="#63b8ff" points="60.14,-80.37 68.63,-74.03 58.04,-73.7 60.14,-80.37"/>
</a>
</g>
</g>
<!-- Node12 -->
<g id="Node000012" class="node">
<title>Node12</title>
<g id="a_Node000012"><a xlink:href="dl_8hpp.html" target="_top" xlink:title=" ">
<polygon fill="white" stroke="#666666" points="776.62,-129 675.62,-129 675.62,-110 776.62,-110 776.62,-129"/>
<text text-anchor="middle" x="726.12" y="-117" font-family="Helvetica,sans-Serif" font-size="10.00">alpaqa/util/dl.hpp</text>
</a>
</g>
</g>
<!-- Node1&#45;&gt;Node12 -->
<g id="edge28_Node000001_Node000012" class="edge">
<title>Node1&#45;&gt;Node12</title>
<g id="a_edge28_Node000001_Node000012"><a xlink:title=" ">
<path fill="none" stroke="#63b8ff" d="M340.82,-306.04C415.8,-290.4 550.11,-256.04 650.12,-195 675.63,-179.43 699.25,-153.78 713.18,-137.01"/>
<polygon fill="#63b8ff" stroke="#63b8ff" points="715.97,-139.13 719.54,-129.16 710.53,-134.73 715.97,-139.13"/>
</a>
</g>
</g>
<!-- Node3 -->
<g id="Node000003" class="node">
<title>Node3</title>
<g id="a_Node000003"><a xlink:title=" ">
<polygon fill="#e0e0e0" stroke="#999999" points="444.62,-195 325.62,-195 325.62,-165 444.62,-165 444.62,-195"/>
<text text-anchor="start" x="333.62" y="-183" font-family="Helvetica,sans-Serif" font-size="10.00">alpaqa/casadi&#45;loader</text>
<text text-anchor="middle" x="385.12" y="-172" font-family="Helvetica,sans-Serif" font-size="10.00">&#45;export.h</text>
</a>
</g>
</g>
<!-- Node2&#45;&gt;Node3 -->
<g id="edge2_Node000002_Node000003" class="edge">
<title>Node2&#45;&gt;Node3</title>
<g id="a_edge2_Node000002_Node000003"><a xlink:title=" ">
<path fill="none" stroke="#63b8ff" d="M306.53,-230.8C320.52,-221.93 338.73,-210.39 354.1,-200.66"/>
<polygon fill="#63b8ff" stroke="#63b8ff" points="356.19,-203.47 362.76,-195.16 352.44,-197.56 356.19,-203.47"/>
</a>
</g>
</g>
<!-- Node4 -->
<g id="Node000004" class="node">
<title>Node4</title>
<g id="a_Node000004"><a xlink:href="dl-flags_8hpp.html" target="_top" xlink:title=" ">
<polygon fill="white" stroke="#666666" points="950.12,-74 822.12,-74 822.12,-55 950.12,-55 950.12,-74"/>
<text text-anchor="middle" x="886.12" y="-62" font-family="Helvetica,sans-Serif" font-size="10.00">alpaqa/util/dl&#45;flags.hpp</text>
</a>
</g>
</g>
<!-- Node2&#45;&gt;Node4 -->
<g id="edge3_Node000002_Node000004" class="edge">
<title>Node2&#45;&gt;Node4</title>
<g id="a_edge3_Node000002_Node000004"><a xlink:title=" ">
<path fill="none" stroke="#63b8ff" d="M346.91,-242.44C420.85,-238.05 546.68,-226.29 650.12,-195 714.42,-175.54 727.44,-161.73 786.12,-129 814.15,-113.36 845.18,-93.19 865.12,-79.82"/>
<polygon fill="#63b8ff" stroke="#63b8ff" points="867.12,-82.69 873.46,-74.2 863.21,-76.89 867.12,-82.69"/>
</a>
</g>
</g>
<!-- Node6 -->
<g id="Node000006" class="node">
<title>Node6</title>
<g id="a_Node000006"><a xlink:href="casadi-functions_8hpp.html" target="_top" xlink:title=" ">
<polygon fill="white" stroke="#666666" points="619.12,-189.5 501.12,-189.5 501.12,-170.5 619.12,-170.5 619.12,-189.5"/>
<text text-anchor="middle" x="560.12" y="-177.5" font-family="Helvetica,sans-Serif" font-size="10.00">casadi&#45;functions.hpp</text>
</a>
</g>
</g>
<!-- Node2&#45;&gt;Node6 -->
<g id="edge5_Node000002_Node000006" class="edge">
<title>Node2&#45;&gt;Node6</title>
<g id="a_edge5_Node000002_Node000006"><a xlink:title=" ">
<path fill="none" stroke="#63b8ff" d="M344.69,-230.95C395.54,-219.16 467.14,-202.56 513.59,-191.79"/>
<polygon fill="#63b8ff" stroke="#63b8ff" points="514.43,-195.19 523.39,-189.52 512.85,-188.37 514.43,-195.19"/>
</a>
</g>
</g>
<!-- Node2&#45;&gt;Node7 -->
<g id="edge19_Node000002_Node000007" class="edge">
<title>Node2&#45;&gt;Node7</title>
<g id="a_edge19_Node000002_Node000007"><a xlink:title=" ">
<path fill="none" stroke="#63b8ff" d="M221.55,-241.93C152.49,-237.07 47.81,-224.87 23.12,-195 -0.95,-165.88 2.42,-141.61 23.12,-110 33.47,-94.18 50.82,-83.95 68.3,-77.35"/>
<polygon fill="#63b8ff" stroke="#63b8ff" points="69.65,-80.59 77.98,-74.05 67.39,-73.97 69.65,-80.59"/>
</a>
</g>
</g>
<!-- Node14 -->
<g id="Node000014" class="node">
<title>Node14</title>
<g id="a_Node000014"><a xlink:title=" ">
<polygon fill="#e0e0e0" stroke="#999999" points="536.12,-74 478.12,-74 478.12,-55 536.12,-55 536.12,-74"/>
<text text-anchor="middle" x="507.12" y="-62" font-family="Helvetica,sans-Serif" font-size="10.00">memory</text>
</a>
</g>
</g>
<!-- Node2&#45;&gt;Node14 -->
<g id="edge21_Node000002_Node000014" class="edge">
<title>Node2&#45;&gt;Node14</title>
<g id="a_edge21_Node000002_Node000014"><a xlink:title=" ">
<path fill="none" stroke="#63b8ff" d="M221.53,-243.51C138.93,-239.28 9.14,-223.45 56.12,-165 171.85,-20.99 281.8,-111.52 468.28,-74.08"/>
<polygon fill="#63b8ff" stroke="#63b8ff" points="469.01,-77.5 478.07,-72.01 467.56,-70.65 469.01,-77.5"/>
</a>
</g>
</g>
<!-- Node15 -->
<g id="Node000015" class="node">
<title>Node15</title>
<g id="a_Node000015"><a xlink:title=" ">
<polygon fill="#e0e0e0" stroke="#999999" points="679.62,-74 614.62,-74 614.62,-55 679.62,-55 679.62,-74"/>
<text text-anchor="middle" x="647.12" y="-62" font-family="Helvetica,sans-Serif" font-size="10.00">stdexcept</text>
</a>
</g>
</g>
<!-- Node2&#45;&gt;Node15 -->
<g id="edge24_Node000002_Node000015" class="edge">
<title>Node2&#45;&gt;Node15</title>
<g id="a_edge24_Node000002_Node000015"><a xlink:title=" ">
<path fill="none" stroke="#63b8ff" d="M346.91,-244.54C435.23,-242.51 589.68,-233.38 628.12,-195 657.37,-165.79 654.64,-112.69 650.61,-84.41"/>
<polygon fill="#63b8ff" stroke="#63b8ff" points="654.02,-83.57 648.95,-74.26 647.11,-84.7 654.02,-83.57"/>
</a>
</g>
</g>
<!-- Node16 -->
<g id="Node000016" class="node">
<title>Node16</title>
<g id="a_Node000016"><a xlink:title=" ">
<polygon fill="#e0e0e0" stroke="#999999" points="454.12,-129 402.12,-129 402.12,-110 454.12,-110 454.12,-129"/>
<text text-anchor="middle" x="428.12" y="-117" font-family="Helvetica,sans-Serif" font-size="10.00">cassert</text>
</a>
</g>
</g>
<!-- Node2&#45;&gt;Node16 -->
<g id="edge20_Node000002_Node000016" class="edge">
<title>Node2&#45;&gt;Node16</title>
<g id="a_edge20_Node000002_Node000016"><a xlink:title=" ">
<path fill="none" stroke="#63b8ff" d="M346.99,-234.58C389.8,-226.05 440.98,-212.55 454.12,-195 467.13,-177.6 454.04,-153.16 442.19,-137.08"/>
<polygon fill="#63b8ff" stroke="#63b8ff" points="444.85,-134.8 435.91,-129.11 439.35,-139.13 444.85,-134.8"/>
</a>
</g>
</g>
<!-- Node17 -->
<g id="Node000017" class="node">
<title>Node17</title>
<g id="a_Node000017"><a xlink:title=" ">
<polygon fill="#e0e0e0" stroke="#999999" points="121.12,-189.5 65.12,-189.5 65.12,-170.5 121.12,-170.5 121.12,-189.5"/>
<text text-anchor="middle" x="93.12" y="-177.5" font-family="Helvetica,sans-Serif" font-size="10.00">optional</text>
</a>
</g>
</g>
<!-- Node2&#45;&gt;Node17 -->
<g id="edge22_Node000002_Node000017" class="edge">
<title>Node2&#45;&gt;Node17</title>
<g id="a_edge22_Node000002_Node000017"><a xlink:title=" ">
<path fill="none" stroke="#63b8ff" d="M238.78,-230.91C208,-221.19 166.45,-207.76 130.12,-195 128.47,-194.42 126.78,-193.82 125.08,-193.2"/>
<polygon fill="#63b8ff" stroke="#63b8ff" points="125.95,-189.79 115.36,-189.61 123.53,-196.36 125.95,-189.79"/>
</a>
</g>
</g>
<!-- Node18 -->
<g id="Node000018" class="node">
<title>Node18</title>
<g id="a_Node000018"><a xlink:title=" ">
<polygon fill="#e0e0e0" stroke="#999999" points="179.12,-189.5 139.12,-189.5 139.12,-170.5 179.12,-170.5 179.12,-189.5"/>
<text text-anchor="middle" x="159.12" y="-177.5" font-family="Helvetica,sans-Serif" font-size="10.00">span</text>
</a>
</g>
</g>
<!-- Node2&#45;&gt;Node18 -->
<g id="edge23_Node000002_Node000018" class="edge">
<title>Node2&#45;&gt;Node18</title>
<g id="a_edge23_Node000002_Node000018"><a xlink:title=" ">
<path fill="none" stroke="#63b8ff" d="M256.68,-230.95C235.25,-219.98 205.67,-204.83 184.71,-194.11"/>
<polygon fill="#63b8ff" stroke="#63b8ff" points="186.25,-190.96 175.75,-189.52 183.06,-197.19 186.25,-190.96"/>
</a>
</g>
</g>
<!-- Node19 -->
<g id="Node000019" class="node">
<title>Node19</title>
<g id="a_Node000019"><a xlink:title=" ">
<polygon fill="#e0e0e0" stroke="#999999" points="242.62,-189.5 197.62,-189.5 197.62,-170.5 242.62,-170.5 242.62,-189.5"/>
<text text-anchor="middle" x="220.12" y="-177.5" font-family="Helvetica,sans-Serif" font-size="10.00">utility</text>
</a>
</g>
</g>
<!-- Node2&#45;&gt;Node19 -->
<g id="edge25_Node000002_Node000019" class="edge">
<title>Node2&#45;&gt;Node19</title>
<g id="a_edge25_Node000002_Node000019"><a xlink:title=" ">
<path fill="none" stroke="#63b8ff" d="M269.91,-230.8C259.94,-220.82 246.57,-207.46 236.2,-197.09"/>
<polygon fill="#63b8ff" stroke="#63b8ff" points="238.51,-194.44 228.96,-189.84 233.56,-199.39 238.51,-194.44"/>
</a>
</g>
</g>
<!-- Node20 -->
<g id="Node000020" class="node">
<title>Node20</title>
<g id="a_Node000020"><a xlink:title=" ">
<polygon fill="#e0e0e0" stroke="#999999" points="307.62,-189.5 260.62,-189.5 260.62,-170.5 307.62,-170.5 307.62,-189.5"/>
<text text-anchor="middle" x="284.12" y="-177.5" font-family="Helvetica,sans-Serif" font-size="10.00">vector</text>
</a>
</g>
</g>
<!-- Node2&#45;&gt;Node20 -->
<g id="edge26_Node000002_Node000020" class="edge">
<title>Node2&#45;&gt;Node20</title>
<g id="a_edge26_Node000002_Node000020"><a xlink:title=" ">
<path fill="none" stroke="#63b8ff" d="M284.12,-230.8C284.12,-221.7 284.12,-209.79 284.12,-199.9"/>
<polygon fill="#63b8ff" stroke="#63b8ff" points="287.62,-199.84 284.12,-189.84 280.62,-199.84 287.62,-199.84"/>
</a>
</g>
</g>
<!-- Node5 -->
<g id="Node000005" class="node">
<title>Node5</title>
<g id="a_Node000005"><a xlink:title=" ">
<polygon fill="#e0e0e0" stroke="#999999" points="843.62,-19 750.62,-19 750.62,0 843.62,0 843.62,-19"/>
<text text-anchor="middle" x="797.12" y="-7" font-family="Helvetica,sans-Serif" font-size="10.00">alpaqa/export.h</text>
</a>
</g>
</g>
<!-- Node4&#45;&gt;Node5 -->
<g id="edge4_Node000004_Node000005" class="edge">
<title>Node4&#45;&gt;Node5</title>
<g id="a_edge4_Node000004_Node000005"><a xlink:title=" ">
<path fill="none" stroke="#63b8ff" d="M871.82,-54.98C858.02,-46.77 836.88,-34.18 820.6,-24.49"/>
<polygon fill="#63b8ff" stroke="#63b8ff" points="822.06,-21.28 811.68,-19.17 818.48,-27.29 822.06,-21.28"/>
</a>
</g>
</g>
<!-- Node6&#45;&gt;Node7 -->
<g id="edge6_Node000006_Node000007" class="edge">
<title>Node6&#45;&gt;Node7</title>
<g id="a_edge6_Node000006_Node000007"><a xlink:title=" ">
<path fill="none" stroke="#63b8ff" d="M551.39,-170.47C535.39,-155.42 499.66,-124.37 463.12,-110 377.02,-76.15 270.04,-67.05 199.79,-65.09"/>
<polygon fill="#63b8ff" stroke="#63b8ff" points="199.78,-61.59 189.7,-64.85 199.61,-68.59 199.78,-61.59"/>
</a>
</g>
</g>
<!-- Node8 -->
<g id="Node000008" class="node">
<title>Node8</title>
<g id="a_Node000008"><a xlink:href="casadi-types_8hpp.html" target="_top" xlink:title=" ">
<polygon fill="white" stroke="#666666" points="610.12,-129 510.12,-129 510.12,-110 610.12,-110 610.12,-129"/>
<text text-anchor="middle" x="560.12" y="-117" font-family="Helvetica,sans-Serif" font-size="10.00">casadi&#45;types.hpp</text>
</a>
</g>
</g>
<!-- Node6&#45;&gt;Node8 -->
<g id="edge7_Node000006_Node000008" class="edge">
<title>Node6&#45;&gt;Node8</title>
<g id="a_edge7_Node000006_Node000008"><a xlink:title=" ">
<path fill="none" stroke="#63b8ff" d="M560.12,-170.37C560.12,-162.25 560.12,-149.81 560.12,-139.39"/>
<polygon fill="#63b8ff" stroke="#63b8ff" points="563.62,-139.17 560.12,-129.17 556.62,-139.17 563.62,-139.17"/>
</a>
</g>
</g>
<!-- Node6&#45;&gt;Node12 -->
<g id="edge12_Node000006_Node000012" class="edge">
<title>Node6&#45;&gt;Node12</title>
<g id="a_edge12_Node000006_Node000012"><a xlink:title=" ">
<path fill="none" stroke="#63b8ff" d="M584.25,-170.49C612.65,-160.49 659.99,-143.8 692.1,-132.49"/>
<polygon fill="#63b8ff" stroke="#63b8ff" points="693.68,-135.64 701.95,-129.02 691.35,-129.04 693.68,-135.64"/>
</a>
</g>
</g>
<!-- Node6&#45;&gt;Node16 -->
<g id="edge18_Node000006_Node000016" class="edge">
<title>Node6&#45;&gt;Node16</title>
<g id="a_edge18_Node000006_Node000016"><a xlink:title=" ">
<path fill="none" stroke="#63b8ff" d="M540.92,-170.49C518.73,-160.66 481.99,-144.38 456.5,-133.08"/>
<polygon fill="#63b8ff" stroke="#63b8ff" points="457.89,-129.87 447.33,-129.02 455.06,-136.27 457.89,-129.87"/>
</a>
</g>
</g>
<!-- Node8&#45;&gt;Node7 -->
<g id="edge11_Node000008_Node000007" class="edge">
<title>Node8&#45;&gt;Node7</title>
<g id="a_edge11_Node000008_Node000007"><a xlink:title=" ">
<path fill="none" stroke="#63b8ff" d="M509.82,-111.76C505.18,-111.16 500.56,-110.56 496.12,-110 393.62,-97.05 275.07,-82.99 200.1,-74.21"/>
<polygon fill="#63b8ff" stroke="#63b8ff" points="200.16,-70.7 189.82,-73.01 199.35,-77.65 200.16,-70.7"/>
</a>
</g>
</g>
<!-- Node9 -->
<g id="Node000009" class="node">
<title>Node9</title>
<g id="a_Node000009"><a xlink:title=" ">
<polygon fill="#e0e0e0" stroke="#999999" points="460.12,-74 396.12,-74 396.12,-55 460.12,-55 460.12,-74"/>
<text text-anchor="middle" x="428.12" y="-62" font-family="Helvetica,sans-Serif" font-size="10.00">algorithm</text>
</a>
</g>
</g>
<!-- Node8&#45;&gt;Node9 -->
<g id="edge8_Node000008_Node000009" class="edge">
<title>Node8&#45;&gt;Node9</title>
<g id="a_edge8_Node000008_Node000009"><a xlink:title=" ">
<path fill="none" stroke="#63b8ff" d="M538.91,-109.98C517.39,-101.34 483.83,-87.87 459.29,-78.02"/>
<polygon fill="#63b8ff" stroke="#63b8ff" points="460.29,-74.65 449.71,-74.17 457.69,-81.14 460.29,-74.65"/>
</a>
</g>
</g>
<!-- Node10 -->
<g id="Node000010" class="node">
<title>Node10</title>
<g id="a_Node000010"><a xlink:title=" ">
<polygon fill="#e0e0e0" stroke="#999999" points="596.12,-74 554.12,-74 554.12,-55 596.12,-55 596.12,-74"/>
<text text-anchor="middle" x="575.12" y="-62" font-family="Helvetica,sans-Serif" font-size="10.00">array</text>
</a>
</g>
</g>
<!-- Node8&#45;&gt;Node10 -->
<g id="edge9_Node000008_Node000010" class="edge">
<title>Node8&#45;&gt;Node10</title>
<g id="a_edge9_Node000008_Node000010"><a xlink:title=" ">
<path fill="none" stroke="#63b8ff" d="M562.59,-109.75C564.58,-102.72 567.44,-92.62 569.92,-83.84"/>
<polygon fill="#63b8ff" stroke="#63b8ff" points="573.33,-84.66 572.69,-74.09 566.59,-82.76 573.33,-84.66"/>
</a>
</g>
</g>
<!-- Node11 -->
<g id="Node000011" class="node">
<title>Node11</title>
<g id="a_Node000011"><a xlink:title=" ">
<polygon fill="#e0e0e0" stroke="#999999" points="378.12,-74 334.12,-74 334.12,-55 378.12,-55 378.12,-74"/>
<text text-anchor="middle" x="356.12" y="-62" font-family="Helvetica,sans-Serif" font-size="10.00">string</text>
</a>
</g>
</g>
<!-- Node8&#45;&gt;Node11 -->
<g id="edge10_Node000008_Node000011" class="edge">
<title>Node8&#45;&gt;Node11</title>
<g id="a_edge10_Node000008_Node000011"><a xlink:title=" ">
<path fill="none" stroke="#63b8ff" d="M526.26,-109.96C493.33,-101.62 441.65,-88.42 387.83,-74.16"/>
<polygon fill="#63b8ff" stroke="#63b8ff" points="388.68,-70.76 378.12,-71.58 386.89,-77.53 388.68,-70.76"/>
</a>
</g>
</g>
<!-- Node12&#45;&gt;Node4 -->
<g id="edge14_Node000012_Node000004" class="edge">
<title>Node12&#45;&gt;Node4</title>
<g id="a_edge14_Node000012_Node000004"><a xlink:title=" ">
<path fill="none" stroke="#63b8ff" d="M751.82,-109.98C778.57,-101.13 820.64,-87.19 850.57,-77.28"/>
<polygon fill="#63b8ff" stroke="#63b8ff" points="851.82,-80.55 860.21,-74.08 849.61,-73.9 851.82,-80.55"/>
</a>
</g>
</g>
<!-- Node12&#45;&gt;Node5 -->
<g id="edge13_Node000012_Node000005" class="edge">
<title>Node12&#45;&gt;Node5</title>
<g id="a_edge13_Node000012_Node000005"><a xlink:title=" ">
<path fill="none" stroke="#63b8ff" d="M723.77,-109.61C720.87,-96.68 717.43,-72.32 727.12,-55 735,-40.91 749.41,-30.63 763.11,-23.52"/>
<polygon fill="#63b8ff" stroke="#63b8ff" points="764.87,-26.55 772.39,-19.09 761.86,-20.23 764.87,-26.55"/>
</a>
</g>
</g>
<!-- Node13 -->
<g id="Node000013" class="node">
<title>Node13</title>
<g id="a_Node000013"><a xlink:title=" ">
<polygon fill="#e0e0e0" stroke="#999999" points="804.12,-74 736.12,-74 736.12,-55 804.12,-55 804.12,-74"/>
<text text-anchor="middle" x="770.12" y="-62" font-family="Helvetica,sans-Serif" font-size="10.00">filesystem</text>
</a>
</g>
</g>
<!-- Node12&#45;&gt;Node13 -->
<g id="edge15_Node000012_Node000013" class="edge">
<title>Node12&#45;&gt;Node13</title>
<g id="a_edge15_Node000012_Node000013"><a xlink:title=" ">
<path fill="none" stroke="#63b8ff" d="M733.38,-109.75C739.66,-102.18 748.9,-91.05 756.55,-81.84"/>
<polygon fill="#63b8ff" stroke="#63b8ff" points="759.29,-84.02 762.99,-74.09 753.91,-79.55 759.29,-84.02"/>
</a>
</g>
</g>
<!-- Node12&#45;&gt;Node14 -->
<g id="edge16_Node000012_Node000014" class="edge">
<title>Node12&#45;&gt;Node14</title>
<g id="a_edge16_Node000012_Node000014"><a xlink:title=" ">
<path fill="none" stroke="#63b8ff" d="M690.93,-109.98C651.36,-100.41 587.28,-84.9 546.18,-74.95"/>
<polygon fill="#63b8ff" stroke="#63b8ff" points="546.8,-71.5 536.26,-72.55 545.16,-78.31 546.8,-71.5"/>
</a>
</g>
</g>
<!-- Node12&#45;&gt;Node15 -->
<g id="edge17_Node000012_Node000015" class="edge">
<title>Node12&#45;&gt;Node15</title>
<g id="a_edge17_Node000012_Node000015"><a xlink:title=" ">
<path fill="none" stroke="#63b8ff" d="M713.42,-109.98C701.29,-101.84 682.76,-89.41 668.37,-79.76"/>
<polygon fill="#63b8ff" stroke="#63b8ff" points="670.29,-76.84 660.04,-74.17 666.39,-82.65 670.29,-76.84"/>
</a>
</g>
</g>
</g>
</svg>
