<?xml version="1.0" encoding="UTF-8" standalone="no"?>
<!DOCTYPE svg PUBLIC "-//W3C//DTD SVG 1.1//EN"
 "http://www.w3.org/Graphics/SVG/1.1/DTD/svg11.dtd">
<!-- Generated by graphviz version 2.43.0 (0)
 -->
<!-- Title: src/interop/casadi/include/alpaqa/casadi/CasADiProblem.hpp Pages: 1 -->
<svg width="1693pt" height="357pt"
 viewBox="0.00 0.00 1692.92 357.00" xmlns="http://www.w3.org/2000/svg" xmlns:xlink="http://www.w3.org/1999/xlink">
<g id="graph0" class="graph" transform="scale(1 1) rotate(0) translate(4 353)">
<title>src/interop/casadi/include/alpaqa/casadi/CasADiProblem.hpp</title>
<!-- Node1 -->
<g id="Node000001" class="node">
<title>Node1</title>
<g id="a_Node000001"><a xlink:title=" ">
<polygon fill="#999999" stroke="#666666" points="1205.42,-349 1080.42,-349 1080.42,-308 1205.42,-308 1205.42,-349"/>
<text text-anchor="start" x="1088.42" y="-337" font-family="Helvetica,sans-Serif" font-size="10.00">src/interop/casadi</text>
<text text-anchor="start" x="1088.42" y="-326" font-family="Helvetica,sans-Serif" font-size="10.00">/include/alpaqa/casadi</text>
<text text-anchor="middle" x="1142.92" y="-315" font-family="Helvetica,sans-Serif" font-size="10.00">/CasADiProblem.hpp</text>
</a>
</g>
</g>
<!-- Node2 -->
<g id="Node000002" class="node">
<title>Node2</title>
<g id="a_Node000002"><a xlink:href="casadi-loader-export_8hpp.html" target="_top" xlink:title=" ">
<polygon fill="white" stroke="#666666" points="1007.42,-272 888.42,-272 888.42,-242 1007.42,-242 1007.42,-272"/>
<text text-anchor="start" x="896.42" y="-260" font-family="Helvetica,sans-Serif" font-size="10.00">alpaqa/casadi&#45;loader</text>
<text text-anchor="middle" x="947.92" y="-249" font-family="Helvetica,sans-Serif" font-size="10.00">&#45;export.hpp</text>
</a>
</g>
</g>
<!-- Node1&#45;&gt;Node2 -->
<g id="edge1_Node000001_Node000002" class="edge">
<title>Node1&#45;&gt;Node2</title>
<g id="a_edge1_Node000001_Node000002"><a xlink:title=" ">
<path fill="none" stroke="#63b8ff" d="M1088.08,-307.96C1059.36,-297.72 1024.49,-285.29 996.71,-275.39"/>
<polygon fill="#63b8ff" stroke="#63b8ff" points="997.8,-272.06 987.21,-272 995.45,-278.66 997.8,-272.06"/>
</a>
</g>
</g>
<!-- Node4 -->
<g id="Node000004" class="node">
<title>Node4</title>
<g id="a_Node000004"><a xlink:href="casadi-namespace_8hpp.html" target="_top" xlink:title=" ">
<polygon fill="white" stroke="#666666" points="1322.42,-85 1203.42,-85 1203.42,-55 1322.42,-55 1322.42,-85"/>
<text text-anchor="start" x="1211.42" y="-73" font-family="Helvetica,sans-Serif" font-size="10.00">alpaqa/casadi/casadi</text>
<text text-anchor="middle" x="1262.92" y="-62" font-family="Helvetica,sans-Serif" font-size="10.00">&#45;namespace.hpp</text>
</a>
</g>
</g>
<!-- Node1&#45;&gt;Node4 -->
<g id="edge3_Node000001_Node000004" class="edge">
<title>Node1&#45;&gt;Node4</title>
<g id="a_edge3_Node000001_Node000004"><a xlink:title=" ">
<path fill="none" stroke="#63b8ff" d="M1205.46,-313.6C1260.34,-297.74 1336.84,-265.85 1372.92,-206 1379.8,-194.58 1378.94,-187.9 1372.92,-176 1360.71,-151.89 1343.87,-158.23 1323.92,-140 1307.93,-125.4 1291.79,-106.93 1280.13,-92.78"/>
<polygon fill="#63b8ff" stroke="#63b8ff" points="1282.83,-90.57 1273.81,-85.01 1277.4,-94.98 1282.83,-90.57"/>
</a>
</g>
</g>
<!-- Node5 -->
<g id="Node000005" class="node">
<title>Node5</title>
<g id="a_Node000005"><a xlink:href="config_8hpp.html" target="_top" xlink:title=" ">
<polygon fill="white" stroke="#666666" points="455.42,-140 320.42,-140 320.42,-121 455.42,-121 455.42,-140"/>
<text text-anchor="middle" x="387.92" y="-128" font-family="Helvetica,sans-Serif" font-size="10.00">alpaqa/config/config.hpp</text>
</a>
</g>
</g>
<!-- Node1&#45;&gt;Node5 -->
<g id="edge4_Node000001_Node000005" class="edge">
<title>Node1&#45;&gt;Node5</title>
<g id="a_edge4_Node000001_Node000005"><a xlink:title=" ">
<path fill="none" stroke="#63b8ff" d="M1080.4,-327.57C973.39,-326.34 748.94,-317.91 565.92,-272 492.1,-253.48 458.02,-263.28 407.92,-206 394.45,-190.6 389.93,-167.06 388.48,-150.57"/>
<polygon fill="#63b8ff" stroke="#63b8ff" points="391.97,-150.25 387.89,-140.47 384.98,-150.65 391.97,-150.25"/>
</a>
</g>
</g>
<!-- Node12 -->
<g id="Node000012" class="node">
<title>Node12</title>
<g id="a_Node000012"><a xlink:href="box-constr-problem_8hpp.html" target="_top" xlink:title=" ">
<polygon fill="white" stroke="#666666" points="793.92,-272 677.92,-272 677.92,-242 793.92,-242 793.92,-272"/>
<text text-anchor="start" x="685.92" y="-260" font-family="Helvetica,sans-Serif" font-size="10.00">alpaqa/problem/box</text>
<text text-anchor="middle" x="735.92" y="-249" font-family="Helvetica,sans-Serif" font-size="10.00">&#45;constr&#45;problem.hpp</text>
</a>
</g>
</g>
<!-- Node1&#45;&gt;Node12 -->
<g id="edge11_Node000001_Node000012" class="edge">
<title>Node1&#45;&gt;Node12</title>
<g id="a_edge11_Node000001_Node000012"><a xlink:title=" ">
<path fill="none" stroke="#63b8ff" d="M1080.21,-316.79C1005.52,-304.04 881.2,-282.81 804.15,-269.65"/>
<polygon fill="#63b8ff" stroke="#63b8ff" points="804.52,-266.16 794.07,-267.93 803.34,-273.06 804.52,-266.16"/>
</a>
</g>
</g>
<!-- Node20 -->
<g id="Node000020" class="node">
<title>Node20</title>
<g id="a_Node000020"><a xlink:title=" ">
<polygon fill="#e0e0e0" stroke="#999999" points="795.92,-79.5 751.92,-79.5 751.92,-60.5 795.92,-60.5 795.92,-79.5"/>
<text text-anchor="middle" x="773.92" y="-67.5" font-family="Helvetica,sans-Serif" font-size="10.00">string</text>
</a>
</g>
</g>
<!-- Node1&#45;&gt;Node20 -->
<g id="edge39_Node000001_Node000020" class="edge">
<title>Node1&#45;&gt;Node20</title>
<g id="a_edge39_Node000001_Node000020"><a xlink:title=" ">
<path fill="none" stroke="#63b8ff" d="M1080.17,-325.08C968.53,-319.97 740.41,-305.65 668.92,-272 630.52,-253.93 616.59,-245.02 599.92,-206 594.68,-193.74 593.36,-187.61 599.92,-176 616.03,-147.45 700.46,-105.01 745.52,-83.9"/>
<polygon fill="#63b8ff" stroke="#63b8ff" points="747.16,-86.99 754.76,-79.61 744.21,-80.64 747.16,-86.99"/>
</a>
</g>
</g>
<!-- Node22 -->
<g id="Node000022" class="node">
<title>Node22</title>
<g id="a_Node000022"><a xlink:href="sparsity_8hpp.html" target="_top" xlink:title=" ">
<polygon fill="white" stroke="#666666" points="357.42,-200.5 202.42,-200.5 202.42,-181.5 357.42,-181.5 357.42,-200.5"/>
<text text-anchor="middle" x="279.92" y="-188.5" font-family="Helvetica,sans-Serif" font-size="10.00">alpaqa/problem/sparsity.hpp</text>
</a>
</g>
</g>
<!-- Node1&#45;&gt;Node22 -->
<g id="edge26_Node000001_Node000022" class="edge">
<title>Node1&#45;&gt;Node22</title>
<g id="a_edge26_Node000001_Node000022"><a xlink:title=" ">
<path fill="none" stroke="#63b8ff" d="M1080.39,-327.95C920.68,-328.33 501.35,-324.17 373.92,-272 340.21,-258.2 309.82,-227.46 293.21,-208.36"/>
<polygon fill="#63b8ff" stroke="#63b8ff" points="295.7,-205.89 286.58,-200.5 290.35,-210.4 295.7,-205.89"/>
</a>
</g>
</g>
<!-- Node27 -->
<g id="Node000027" class="node">
<title>Node27</title>
<g id="a_Node000027"><a xlink:href="copyable__unique__ptr_8hpp.html" target="_top" xlink:title=" ">
<polygon fill="white" stroke="#666666" points="1547.92,-272 1431.92,-272 1431.92,-242 1547.92,-242 1547.92,-272"/>
<text text-anchor="start" x="1439.92" y="-260" font-family="Helvetica,sans-Serif" font-size="10.00">alpaqa/util/copyable</text>
<text text-anchor="middle" x="1489.92" y="-249" font-family="Helvetica,sans-Serif" font-size="10.00">_unique_ptr.hpp</text>
</a>
</g>
</g>
<!-- Node1&#45;&gt;Node27 -->
<g id="edge33_Node000001_Node000027" class="edge">
<title>Node1&#45;&gt;Node27</title>
<g id="a_edge33_Node000001_Node000027"><a xlink:title=" ">
<path fill="none" stroke="#63b8ff" d="M1205.75,-314.91C1266.71,-302.7 1358.95,-284.23 1421.68,-271.67"/>
<polygon fill="#63b8ff" stroke="#63b8ff" points="1422.75,-275.02 1431.87,-269.63 1421.38,-268.16 1422.75,-275.02"/>
</a>
</g>
</g>
<!-- Node29 -->
<g id="Node000029" class="node">
<title>Node29</title>
<g id="a_Node000029"><a xlink:href="dl-flags_8hpp.html" target="_top" xlink:title=" ">
<polygon fill="white" stroke="#666666" points="1684.92,-79.5 1556.92,-79.5 1556.92,-60.5 1684.92,-60.5 1684.92,-79.5"/>
<text text-anchor="middle" x="1620.92" y="-67.5" font-family="Helvetica,sans-Serif" font-size="10.00">alpaqa/util/dl&#45;flags.hpp</text>
</a>
</g>
</g>
<!-- Node1&#45;&gt;Node29 -->
<g id="edge35_Node000001_Node000029" class="edge">
<title>Node1&#45;&gt;Node29</title>
<g id="a_edge35_Node000001_Node000029"><a xlink:title=" ">
<path fill="none" stroke="#63b8ff" d="M1205.79,-325.24C1335.19,-319.94 1621.67,-304.61 1650.92,-272 1697.84,-219.67 1653.57,-127.08 1631.62,-88.57"/>
<polygon fill="#63b8ff" stroke="#63b8ff" points="1634.44,-86.45 1626.35,-79.6 1628.4,-90 1634.44,-86.45"/>
</a>
</g>
</g>
<!-- Node30 -->
<g id="Node000030" class="node">
<title>Node30</title>
<g id="a_Node000030"><a xlink:title=" ">
<polygon fill="#e0e0e0" stroke="#999999" points="1538.92,-79.5 1470.92,-79.5 1470.92,-60.5 1538.92,-60.5 1538.92,-79.5"/>
<text text-anchor="middle" x="1504.92" y="-67.5" font-family="Helvetica,sans-Serif" font-size="10.00">filesystem</text>
</a>
</g>
</g>
<!-- Node1&#45;&gt;Node30 -->
<g id="edge37_Node000001_Node000030" class="edge">
<title>Node1&#45;&gt;Node30</title>
<g id="a_edge37_Node000001_Node000030"><a xlink:title=" ">
<path fill="none" stroke="#63b8ff" d="M1205.45,-323.59C1315.45,-316.08 1534.14,-298.03 1556.92,-272 1604.38,-217.75 1545.96,-125.61 1518.12,-87.88"/>
<polygon fill="#63b8ff" stroke="#63b8ff" points="1520.91,-85.76 1512.08,-79.9 1515.32,-89.98 1520.91,-85.76"/>
</a>
</g>
</g>
<!-- Node31 -->
<g id="Node000031" class="node">
<title>Node31</title>
<g id="a_Node000031"><a xlink:title=" ">
<polygon fill="#e0e0e0" stroke="#999999" points="1641.92,-266.5 1603.92,-266.5 1603.92,-247.5 1641.92,-247.5 1641.92,-266.5"/>
<text text-anchor="middle" x="1622.92" y="-254.5" font-family="Helvetica,sans-Serif" font-size="10.00">map</text>
</a>
</g>
</g>
<!-- Node1&#45;&gt;Node31 -->
<g id="edge38_Node000001_Node000031" class="edge">
<title>Node1&#45;&gt;Node31</title>
<g id="a_edge38_Node000001_Node000031"><a xlink:title=" ">
<path fill="none" stroke="#63b8ff" d="M1205.42,-325.2C1292.81,-320.76 1455.86,-308 1589.92,-272 1591.81,-271.49 1593.74,-270.9 1595.66,-270.24"/>
<polygon fill="#63b8ff" stroke="#63b8ff" points="1597,-273.48 1605.08,-266.63 1594.49,-266.94 1597,-273.48"/>
</a>
</g>
</g>
<!-- Node32 -->
<g id="Node000032" class="node">
<title>Node32</title>
<g id="a_Node000032"><a xlink:href="casadi-external-function_8hpp.html" target="_top" xlink:title=" ">
<polygon fill="white" stroke="#666666" points="1205.42,-272 1080.42,-272 1080.42,-242 1205.42,-242 1205.42,-272"/>
<text text-anchor="start" x="1088.42" y="-260" font-family="Helvetica,sans-Serif" font-size="10.00">alpaqa/casadi/casadi</text>
<text text-anchor="middle" x="1142.92" y="-249" font-family="Helvetica,sans-Serif" font-size="10.00">&#45;external&#45;function.hpp</text>
</a>
</g>
</g>
<!-- Node1&#45;&gt;Node32 -->
<g id="edge40_Node000001_Node000032" class="edge">
<title>Node1&#45;&gt;Node32</title>
<g id="a_edge40_Node000001_Node000032"><a xlink:title=" ">
<path fill="none" stroke="#63b8ff" d="M1142.92,-307.77C1142.92,-299.85 1142.92,-290.63 1142.92,-282.3"/>
<polygon fill="#63b8ff" stroke="#63b8ff" points="1146.42,-282.04 1142.92,-272.04 1139.42,-282.04 1146.42,-282.04"/>
</a>
</g>
</g>
<!-- Node3 -->
<g id="Node000003" class="node">
<title>Node3</title>
<g id="a_Node000003"><a xlink:title=" ">
<polygon fill="#e0e0e0" stroke="#999999" points="951.42,-206 832.42,-206 832.42,-176 951.42,-176 951.42,-206"/>
<text text-anchor="start" x="840.42" y="-194" font-family="Helvetica,sans-Serif" font-size="10.00">alpaqa/casadi&#45;loader</text>
<text text-anchor="middle" x="891.92" y="-183" font-family="Helvetica,sans-Serif" font-size="10.00">&#45;export.h</text>
</a>
</g>
</g>
<!-- Node2&#45;&gt;Node3 -->
<g id="edge2_Node000002_Node000003" class="edge">
<title>Node2&#45;&gt;Node3</title>
<g id="a_edge2_Node000002_Node000003"><a xlink:title=" ">
<path fill="none" stroke="#63b8ff" d="M935.49,-241.8C928.31,-233.59 919.13,-223.1 911.05,-213.87"/>
<polygon fill="#63b8ff" stroke="#63b8ff" points="913.53,-211.38 904.31,-206.16 908.26,-215.99 913.53,-211.38"/>
</a>
</g>
</g>
<!-- Node6 -->
<g id="Node000006" class="node">
<title>Node6</title>
<g id="a_Node000006"><a xlink:href="quadmath-print_8hpp.html" target="_top" xlink:title=" ">
<polygon fill="white" stroke="#666666" points="136.42,-85 15.42,-85 15.42,-55 136.42,-55 136.42,-85"/>
<text text-anchor="start" x="23.42" y="-73" font-family="Helvetica,sans-Serif" font-size="10.00">alpaqa/util/quadmath</text>
<text text-anchor="middle" x="75.92" y="-62" font-family="Helvetica,sans-Serif" font-size="10.00">/quadmath&#45;print.hpp</text>
</a>
</g>
</g>
<!-- Node5&#45;&gt;Node6 -->
<g id="edge5_Node000005_Node000006" class="edge">
<title>Node5&#45;&gt;Node6</title>
<g id="a_edge5_Node000005_Node000006"><a xlink:title=" ">
<path fill="none" stroke="#63b8ff" d="M340.12,-120.94C293.37,-112.51 219.9,-99.13 146.49,-85.09"/>
<polygon fill="#63b8ff" stroke="#63b8ff" points="147.09,-81.64 136.61,-83.2 145.77,-88.52 147.09,-81.64"/>
</a>
</g>
</g>
<!-- Node7 -->
<g id="Node000007" class="node">
<title>Node7</title>
<g id="a_Node000007"><a xlink:href="quadmath_8hpp.html" target="_top" xlink:title=" ">
<polygon fill="white" stroke="#666666" points="591.42,-85 470.42,-85 470.42,-55 591.42,-55 591.42,-85"/>
<text text-anchor="start" x="478.42" y="-73" font-family="Helvetica,sans-Serif" font-size="10.00">alpaqa/util/quadmath</text>
<text text-anchor="middle" x="530.92" y="-62" font-family="Helvetica,sans-Serif" font-size="10.00">/quadmath.hpp</text>
</a>
</g>
</g>
<!-- Node5&#45;&gt;Node7 -->
<g id="edge6_Node000005_Node000007" class="edge">
<title>Node5&#45;&gt;Node7</title>
<g id="a_edge6_Node000005_Node000007"><a xlink:title=" ">
<path fill="none" stroke="#63b8ff" d="M408.71,-120.99C429.2,-112.61 461.14,-99.55 487.22,-88.87"/>
<polygon fill="#63b8ff" stroke="#63b8ff" points="488.61,-92.09 496.54,-85.06 485.96,-85.61 488.61,-92.09"/>
</a>
</g>
</g>
<!-- Node8 -->
<g id="Node000008" class="node">
<title>Node8</title>
<g id="a_Node000008"><a xlink:title=" ">
<polygon fill="#e0e0e0" stroke="#999999" points="668.42,-79.5 609.42,-79.5 609.42,-60.5 668.42,-60.5 668.42,-79.5"/>
<text text-anchor="middle" x="638.92" y="-67.5" font-family="Helvetica,sans-Serif" font-size="10.00">complex</text>
</a>
</g>
</g>
<!-- Node5&#45;&gt;Node8 -->
<g id="edge7_Node000005_Node000008" class="edge">
<title>Node5&#45;&gt;Node8</title>
<g id="a_edge7_Node000005_Node000008"><a xlink:title=" ">
<path fill="none" stroke="#63b8ff" d="M439.21,-120.97C482.68,-113.22 546.45,-100.63 600.92,-85 603.2,-84.35 605.54,-83.62 607.88,-82.85"/>
<polygon fill="#63b8ff" stroke="#63b8ff" points="609.09,-86.14 617.39,-79.55 606.8,-79.52 609.09,-86.14"/>
</a>
</g>
</g>
<!-- Node9 -->
<g id="Node000009" class="node">
<title>Node9</title>
<g id="a_Node000009"><a xlink:title=" ">
<polygon fill="#e0e0e0" stroke="#999999" points="198.92,-79.5 154.92,-79.5 154.92,-60.5 198.92,-60.5 198.92,-79.5"/>
<text text-anchor="middle" x="176.92" y="-67.5" font-family="Helvetica,sans-Serif" font-size="10.00">limits</text>
</a>
</g>
</g>
<!-- Node5&#45;&gt;Node9 -->
<g id="edge8_Node000005_Node000009" class="edge">
<title>Node5&#45;&gt;Node9</title>
<g id="a_edge8_Node000005_Node000009"><a xlink:title=" ">
<path fill="none" stroke="#63b8ff" d="M343.99,-120.98C307.14,-113.28 253.39,-100.74 207.92,-85 206.52,-84.52 205.1,-83.99 203.68,-83.45"/>
<polygon fill="#63b8ff" stroke="#63b8ff" points="204.97,-80.19 194.39,-79.56 202.27,-86.65 204.97,-80.19"/>
</a>
</g>
</g>
<!-- Node10 -->
<g id="Node000010" class="node">
<title>Node10</title>
<g id="a_Node000010"><a xlink:title=" ">
<polygon fill="#e0e0e0" stroke="#999999" points="452.42,-79.5 383.42,-79.5 383.42,-60.5 452.42,-60.5 452.42,-79.5"/>
<text text-anchor="middle" x="417.92" y="-67.5" font-family="Helvetica,sans-Serif" font-size="10.00">type_traits</text>
</a>
</g>
</g>
<!-- Node5&#45;&gt;Node10 -->
<g id="edge9_Node000005_Node000010" class="edge">
<title>Node5&#45;&gt;Node10</title>
<g id="a_edge9_Node000005_Node000010"><a xlink:title=" ">
<path fill="none" stroke="#63b8ff" d="M392.34,-120.87C396.68,-112.4 403.43,-99.24 408.91,-88.57"/>
<polygon fill="#63b8ff" stroke="#63b8ff" points="412.02,-90.16 413.47,-79.67 405.79,-86.97 412.02,-90.16"/>
</a>
</g>
</g>
<!-- Node11 -->
<g id="Node000011" class="node">
<title>Node11</title>
<g id="a_Node000011"><a xlink:title=" ">
<polygon fill="#e0e0e0" stroke="#999999" points="286.42,-79.5 217.42,-79.5 217.42,-60.5 286.42,-60.5 286.42,-79.5"/>
<text text-anchor="middle" x="251.92" y="-67.5" font-family="Helvetica,sans-Serif" font-size="10.00">Eigen/Core</text>
</a>
</g>
</g>
<!-- Node5&#45;&gt;Node11 -->
<g id="edge10_Node000005_Node000011" class="edge">
<title>Node5&#45;&gt;Node11</title>
<g id="a_edge10_Node000005_Node000011"><a xlink:title=" ">
<path fill="none" stroke="#63b8ff" d="M368.14,-120.99C345.28,-111.16 307.43,-94.88 281.16,-83.58"/>
<polygon fill="#63b8ff" stroke="#63b8ff" points="282.28,-80.25 271.71,-79.52 279.52,-86.68 282.28,-80.25"/>
</a>
</g>
</g>
<!-- Node13 -->
<g id="Node000013" class="node">
<title>Node13</title>
<g id="a_Node000013"><a xlink:href="box_8hpp.html" target="_top" xlink:title=" ">
<polygon fill="white" stroke="#666666" points="551.42,-200.5 416.42,-200.5 416.42,-181.5 551.42,-181.5 551.42,-200.5"/>
<text text-anchor="middle" x="483.92" y="-188.5" font-family="Helvetica,sans-Serif" font-size="10.00">alpaqa/problem/box.hpp</text>
</a>
</g>
</g>
<!-- Node12&#45;&gt;Node13 -->
<g id="edge12_Node000012_Node000013" class="edge">
<title>Node12&#45;&gt;Node13</title>
<g id="a_edge12_Node000012_Node000013"><a xlink:title=" ">
<path fill="none" stroke="#63b8ff" d="M680.61,-241.95C634.47,-230.24 569.63,-213.77 527.2,-202.99"/>
<polygon fill="#63b8ff" stroke="#63b8ff" points="528.01,-199.59 517.45,-200.52 526.28,-206.37 528.01,-199.59"/>
</a>
</g>
</g>
<!-- Node17 -->
<g id="Node000017" class="node">
<title>Node17</title>
<g id="a_Node000017"><a xlink:href="check-dim_8hpp.html" target="_top" xlink:title=" ">
<polygon fill="white" stroke="#666666" points="751.42,-200.5 608.42,-200.5 608.42,-181.5 751.42,-181.5 751.42,-200.5"/>
<text text-anchor="middle" x="679.92" y="-188.5" font-family="Helvetica,sans-Serif" font-size="10.00">alpaqa/util/check&#45;dim.hpp</text>
</a>
</g>
</g>
<!-- Node12&#45;&gt;Node17 -->
<g id="edge20_Node000012_Node000017" class="edge">
<title>Node12&#45;&gt;Node17</title>
<g id="a_edge20_Node000012_Node000017"><a xlink:title=" ">
<path fill="none" stroke="#63b8ff" d="M723.49,-241.8C714.84,-231.92 703.29,-218.72 694.26,-208.39"/>
<polygon fill="#63b8ff" stroke="#63b8ff" points="696.87,-206.07 687.65,-200.84 691.61,-210.67 696.87,-206.07"/>
</a>
</g>
</g>
<!-- Node21 -->
<g id="Node000021" class="node">
<title>Node21</title>
<g id="a_Node000021"><a xlink:title=" ">
<polygon fill="#e0e0e0" stroke="#999999" points="814.42,-200.5 769.42,-200.5 769.42,-181.5 814.42,-181.5 814.42,-200.5"/>
<text text-anchor="middle" x="791.92" y="-188.5" font-family="Helvetica,sans-Serif" font-size="10.00">utility</text>
</a>
</g>
</g>
<!-- Node12&#45;&gt;Node21 -->
<g id="edge25_Node000012_Node000021" class="edge">
<title>Node12&#45;&gt;Node21</title>
<g id="a_edge25_Node000012_Node000021"><a xlink:title=" ">
<path fill="none" stroke="#63b8ff" d="M748.34,-241.8C756.99,-231.92 768.54,-218.72 777.57,-208.39"/>
<polygon fill="#63b8ff" stroke="#63b8ff" points="780.23,-210.67 784.18,-200.84 774.96,-206.07 780.23,-210.67"/>
</a>
</g>
</g>
<!-- Node13&#45;&gt;Node5 -->
<g id="edge13_Node000013_Node000005" class="edge">
<title>Node13&#45;&gt;Node5</title>
<g id="a_edge13_Node000013_Node000005"><a xlink:title=" ">
<path fill="none" stroke="#63b8ff" d="M469.75,-181.37C454.22,-171.91 429.09,-156.59 410.76,-145.42"/>
<polygon fill="#63b8ff" stroke="#63b8ff" points="412.5,-142.38 402.14,-140.17 408.86,-148.36 412.5,-142.38"/>
</a>
</g>
</g>
<!-- Node14 -->
<g id="Node000014" class="node">
<title>Node14</title>
<g id="a_Node000014"><a xlink:href="float_8hpp.html" target="_top" xlink:title=" ">
<polygon fill="white" stroke="#666666" points="587.92,-140 473.92,-140 473.92,-121 587.92,-121 587.92,-140"/>
<text text-anchor="middle" x="530.92" y="-128" font-family="Helvetica,sans-Serif" font-size="10.00">alpaqa/util/float.hpp</text>
</a>
</g>
</g>
<!-- Node13&#45;&gt;Node14 -->
<g id="edge14_Node000013_Node000014" class="edge">
<title>Node13&#45;&gt;Node14</title>
<g id="a_edge14_Node000013_Node000014"><a xlink:title=" ">
<path fill="none" stroke="#63b8ff" d="M490.85,-181.37C497.86,-172.64 508.88,-158.93 517.58,-148.09"/>
<polygon fill="#63b8ff" stroke="#63b8ff" points="520.42,-150.16 523.95,-140.17 514.96,-145.77 520.42,-150.16"/>
</a>
</g>
</g>
<!-- Node14&#45;&gt;Node7 -->
<g id="edge15_Node000014_Node000007" class="edge">
<title>Node14&#45;&gt;Node7</title>
<g id="a_edge15_Node000014_Node000007"><a xlink:title=" ">
<path fill="none" stroke="#63b8ff" d="M530.92,-120.87C530.92,-114.11 530.92,-104.35 530.92,-95.26"/>
<polygon fill="#63b8ff" stroke="#63b8ff" points="534.42,-95.11 530.92,-85.11 527.42,-95.11 534.42,-95.11"/>
</a>
</g>
</g>
<!-- Node14&#45;&gt;Node8 -->
<g id="edge17_Node000014_Node000008" class="edge">
<title>Node14&#45;&gt;Node8</title>
<g id="a_edge17_Node000014_Node000008"><a xlink:title=" ">
<path fill="none" stroke="#63b8ff" d="M546.85,-120.87C564.56,-111.28 593.38,-95.67 614.05,-84.47"/>
<polygon fill="#63b8ff" stroke="#63b8ff" points="615.79,-87.51 622.91,-79.67 612.45,-81.35 615.79,-87.51"/>
</a>
</g>
</g>
<!-- Node14&#45;&gt;Node10 -->
<g id="edge19_Node000014_Node000010" class="edge">
<title>Node14&#45;&gt;Node10</title>
<g id="a_edge19_Node000014_Node000010"><a xlink:title=" ">
<path fill="none" stroke="#63b8ff" d="M514.24,-120.87C495.63,-111.23 465.29,-95.53 443.63,-84.31"/>
<polygon fill="#63b8ff" stroke="#63b8ff" points="445.15,-81.16 434.66,-79.67 441.93,-87.37 445.15,-81.16"/>
</a>
</g>
</g>
<!-- Node15 -->
<g id="Node000015" class="node">
<title>Node15</title>
<g id="a_Node000015"><a xlink:title=" ">
<polygon fill="#e0e0e0" stroke="#999999" points="733.42,-79.5 686.42,-79.5 686.42,-60.5 733.42,-60.5 733.42,-79.5"/>
<text text-anchor="middle" x="709.92" y="-67.5" font-family="Helvetica,sans-Serif" font-size="10.00">cmath</text>
</a>
</g>
</g>
<!-- Node14&#45;&gt;Node15 -->
<g id="edge16_Node000014_Node000015" class="edge">
<title>Node14&#45;&gt;Node15</title>
<g id="a_edge16_Node000014_Node000015"><a xlink:title=" ">
<path fill="none" stroke="#63b8ff" d="M563.11,-120.94C593.13,-112.68 639.01,-99.34 677.92,-85 679.3,-84.49 680.71,-83.95 682.14,-83.39"/>
<polygon fill="#63b8ff" stroke="#63b8ff" points="683.56,-86.59 691.45,-79.52 680.88,-80.12 683.56,-86.59"/>
</a>
</g>
</g>
<!-- Node16 -->
<g id="Node000016" class="node">
<title>Node16</title>
<g id="a_Node000016"><a xlink:title=" ">
<polygon fill="#e0e0e0" stroke="#999999" points="364.92,-79.5 304.92,-79.5 304.92,-60.5 364.92,-60.5 364.92,-79.5"/>
<text text-anchor="middle" x="334.92" y="-67.5" font-family="Helvetica,sans-Serif" font-size="10.00">concepts</text>
</a>
</g>
</g>
<!-- Node14&#45;&gt;Node16 -->
<g id="edge18_Node000014_Node000016" class="edge">
<title>Node14&#45;&gt;Node16</title>
<g id="a_edge18_Node000014_Node000016"><a xlink:title=" ">
<path fill="none" stroke="#63b8ff" d="M498.78,-120.93C467.13,-112.34 417.46,-98.5 374.92,-85 372.67,-84.29 370.35,-83.53 368.03,-82.76"/>
<polygon fill="#63b8ff" stroke="#63b8ff" points="369.12,-79.43 358.53,-79.52 366.87,-86.06 369.12,-79.43"/>
</a>
</g>
</g>
<!-- Node17&#45;&gt;Node5 -->
<g id="edge21_Node000017_Node000005" class="edge">
<title>Node17&#45;&gt;Node5</title>
<g id="a_edge21_Node000017_Node000005"><a xlink:title=" ">
<path fill="none" stroke="#63b8ff" d="M637.46,-181.49C585.34,-171.05 496.95,-153.35 440.57,-142.05"/>
<polygon fill="#63b8ff" stroke="#63b8ff" points="440.92,-138.55 430.43,-140.02 439.54,-145.41 440.92,-138.55"/>
</a>
</g>
</g>
<!-- Node18 -->
<g id="Node000018" class="node">
<title>Node18</title>
<g id="a_Node000018"><a xlink:title=" ">
<polygon fill="#e0e0e0" stroke="#999999" points="954.92,-140 898.92,-140 898.92,-121 954.92,-121 954.92,-140"/>
<text text-anchor="middle" x="926.92" y="-128" font-family="Helvetica,sans-Serif" font-size="10.00">optional</text>
</a>
</g>
</g>
<!-- Node17&#45;&gt;Node18 -->
<g id="edge22_Node000017_Node000018" class="edge">
<title>Node17&#45;&gt;Node18</title>
<g id="a_edge22_Node000017_Node000018"><a xlink:title=" ">
<path fill="none" stroke="#63b8ff" d="M715.83,-181.49C761.95,-170.57 841.65,-151.69 888.81,-140.53"/>
<polygon fill="#63b8ff" stroke="#63b8ff" points="889.71,-143.91 898.64,-138.2 888.1,-137.1 889.71,-143.91"/>
</a>
</g>
</g>
<!-- Node19 -->
<g id="Node000019" class="node">
<title>Node19</title>
<g id="a_Node000019"><a xlink:title=" ">
<polygon fill="#e0e0e0" stroke="#999999" points="1034.42,-79.5 969.42,-79.5 969.42,-60.5 1034.42,-60.5 1034.42,-79.5"/>
<text text-anchor="middle" x="1001.92" y="-67.5" font-family="Helvetica,sans-Serif" font-size="10.00">stdexcept</text>
</a>
</g>
</g>
<!-- Node17&#45;&gt;Node19 -->
<g id="edge23_Node000017_Node000019" class="edge">
<title>Node17&#45;&gt;Node19</title>
<g id="a_edge23_Node000017_Node000019"><a xlink:title=" ">
<path fill="none" stroke="#63b8ff" d="M703.07,-181.44C759.45,-160.61 903.96,-107.2 969.15,-83.11"/>
<polygon fill="#63b8ff" stroke="#63b8ff" points="970.37,-86.39 978.53,-79.64 967.94,-79.82 970.37,-86.39"/>
</a>
</g>
</g>
<!-- Node17&#45;&gt;Node20 -->
<g id="edge24_Node000017_Node000020" class="edge">
<title>Node17&#45;&gt;Node20</title>
<g id="a_edge24_Node000017_Node000020"><a xlink:title=" ">
<path fill="none" stroke="#63b8ff" d="M686.68,-181.44C702.11,-161.9 740.2,-113.68 760.56,-87.9"/>
<polygon fill="#63b8ff" stroke="#63b8ff" points="763.51,-89.82 766.96,-79.8 758.02,-85.48 763.51,-89.82"/>
</a>
</g>
</g>
<!-- Node22&#45;&gt;Node5 -->
<g id="edge27_Node000022_Node000005" class="edge">
<title>Node22&#45;&gt;Node5</title>
<g id="a_edge27_Node000022_Node000005"><a xlink:title=" ">
<path fill="none" stroke="#63b8ff" d="M295.85,-181.37C313.56,-171.78 342.38,-156.17 363.05,-144.97"/>
<polygon fill="#63b8ff" stroke="#63b8ff" points="364.79,-148.01 371.91,-140.17 361.45,-141.85 364.79,-148.01"/>
</a>
</g>
</g>
<!-- Node22&#45;&gt;Node16 -->
<g id="edge31_Node000022_Node000016" class="edge">
<title>Node22&#45;&gt;Node16</title>
<g id="a_edge31_Node000022_Node000016"><a xlink:title=" ">
<path fill="none" stroke="#63b8ff" d="M269.02,-181.39C253.74,-168.23 229.15,-142.36 241.92,-121 248.97,-109.19 279.72,-94.05 303.95,-83.53"/>
<polygon fill="#63b8ff" stroke="#63b8ff" points="305.35,-86.74 313.19,-79.61 302.61,-80.3 305.35,-86.74"/>
</a>
</g>
</g>
<!-- Node23 -->
<g id="Node000023" class="node">
<title>Node23</title>
<g id="a_Node000023"><a xlink:href="export_8hpp.html" target="_top" xlink:title=" ">
<polygon fill="white" stroke="#666666" points="117.42,-140 12.42,-140 12.42,-121 117.42,-121 117.42,-140"/>
<text text-anchor="middle" x="64.92" y="-128" font-family="Helvetica,sans-Serif" font-size="10.00">alpaqa/export.hpp</text>
</a>
</g>
</g>
<!-- Node22&#45;&gt;Node23 -->
<g id="edge28_Node000022_Node000023" class="edge">
<title>Node22&#45;&gt;Node23</title>
<g id="a_edge28_Node000022_Node000023"><a xlink:title=" ">
<path fill="none" stroke="#63b8ff" d="M248.65,-181.49C210.99,-171.25 147.62,-154 106.03,-142.69"/>
<polygon fill="#63b8ff" stroke="#63b8ff" points="106.78,-139.27 96.22,-140.02 104.95,-146.02 106.78,-139.27"/>
</a>
</g>
</g>
<!-- Node25 -->
<g id="Node000025" class="node">
<title>Node25</title>
<g id="a_Node000025"><a xlink:title=" ">
<polygon fill="#e0e0e0" stroke="#999999" points="1081.92,-140 1029.92,-140 1029.92,-121 1081.92,-121 1081.92,-140"/>
<text text-anchor="middle" x="1055.92" y="-128" font-family="Helvetica,sans-Serif" font-size="10.00">cassert</text>
</a>
</g>
</g>
<!-- Node22&#45;&gt;Node25 -->
<g id="edge30_Node000022_Node000025" class="edge">
<title>Node22&#45;&gt;Node25</title>
<g id="a_edge30_Node000022_Node000025"><a xlink:title=" ">
<path fill="none" stroke="#63b8ff" d="M352.63,-181.48C370.68,-179.52 389.99,-177.56 407.92,-176 654.61,-154.53 717.05,-159.39 963.92,-140 982.32,-138.55 1002.78,-136.69 1019.72,-135.08"/>
<polygon fill="#63b8ff" stroke="#63b8ff" points="1020.14,-138.55 1029.76,-134.11 1019.47,-131.58 1020.14,-138.55"/>
</a>
</g>
</g>
<!-- Node26 -->
<g id="Node000026" class="node">
<title>Node26</title>
<g id="a_Node000026"><a xlink:title=" ">
<polygon fill="#e0e0e0" stroke="#999999" points="302.42,-140 251.42,-140 251.42,-121 302.42,-121 302.42,-140"/>
<text text-anchor="middle" x="276.92" y="-128" font-family="Helvetica,sans-Serif" font-size="10.00">variant</text>
</a>
</g>
</g>
<!-- Node22&#45;&gt;Node26 -->
<g id="edge32_Node000022_Node000026" class="edge">
<title>Node22&#45;&gt;Node26</title>
<g id="a_edge32_Node000022_Node000026"><a xlink:title=" ">
<path fill="none" stroke="#63b8ff" d="M279.47,-181.37C279.06,-173.25 278.42,-160.81 277.88,-150.39"/>
<polygon fill="#63b8ff" stroke="#63b8ff" points="281.37,-149.97 277.36,-140.17 274.38,-150.33 281.37,-149.97"/>
</a>
</g>
</g>
<!-- Node24 -->
<g id="Node000024" class="node">
<title>Node24</title>
<g id="a_Node000024"><a xlink:title=" ">
<polygon fill="#e0e0e0" stroke="#999999" points="1413.42,-19 1320.42,-19 1320.42,0 1413.42,0 1413.42,-19"/>
<text text-anchor="middle" x="1366.92" y="-7" font-family="Helvetica,sans-Serif" font-size="10.00">alpaqa/export.h</text>
</a>
</g>
</g>
<!-- Node23&#45;&gt;Node24 -->
<g id="edge29_Node000023_Node000024" class="edge">
<title>Node23&#45;&gt;Node24</title>
<g id="a_edge29_Node000023_Node000024"><a xlink:title=" ">
<path fill="none" stroke="#63b8ff" d="M45.65,-120.9C31.79,-113.55 14.16,-101.54 5.92,-85 -0.03,-73.07 -3.36,-64.58 5.92,-55 51.93,-7.46 1058.51,-9.04 1310.24,-10.18"/>
<polygon fill="#63b8ff" stroke="#63b8ff" points="1310.26,-13.68 1320.27,-10.23 1310.29,-6.68 1310.26,-13.68"/>
</a>
</g>
</g>
<!-- Node28 -->
<g id="Node000028" class="node">
<title>Node28</title>
<g id="a_Node000028"><a xlink:title=" ">
<polygon fill="#e0e0e0" stroke="#999999" points="1452.92,-79.5 1394.92,-79.5 1394.92,-60.5 1452.92,-60.5 1452.92,-79.5"/>
<text text-anchor="middle" x="1423.92" y="-67.5" font-family="Helvetica,sans-Serif" font-size="10.00">memory</text>
</a>
</g>
</g>
<!-- Node27&#45;&gt;Node28 -->
<g id="edge34_Node000027_Node000028" class="edge">
<title>Node27&#45;&gt;Node28</title>
<g id="a_edge34_Node000027_Node000028"><a xlink:title=" ">
<path fill="none" stroke="#63b8ff" d="M1491.52,-241.73C1493.75,-216.11 1495.56,-161.23 1475.92,-121 1469,-106.83 1456.31,-94.5 1445.19,-85.64"/>
<polygon fill="#63b8ff" stroke="#63b8ff" points="1447.22,-82.78 1437.13,-79.55 1443,-88.37 1447.22,-82.78"/>
</a>
</g>
</g>
<!-- Node29&#45;&gt;Node24 -->
<g id="edge36_Node000029_Node000024" class="edge">
<title>Node29&#45;&gt;Node24</title>
<g id="a_edge36_Node000029_Node000024"><a xlink:title=" ">
<path fill="none" stroke="#63b8ff" d="M1583.98,-60.49C1539.02,-50.14 1463.04,-32.64 1413.94,-21.33"/>
<polygon fill="#63b8ff" stroke="#63b8ff" points="1414.42,-17.85 1403.89,-19.02 1412.85,-24.67 1414.42,-17.85"/>
</a>
</g>
</g>
<!-- Node32&#45;&gt;Node3 -->
<g id="edge41_Node000032_Node000003" class="edge">
<title>Node32&#45;&gt;Node3</title>
<g id="a_edge41_Node000032_Node000003"><a xlink:title=" ">
<path fill="none" stroke="#63b8ff" d="M1087.83,-241.95C1049.17,-232.1 997.33,-218.88 956.68,-208.51"/>
<polygon fill="#63b8ff" stroke="#63b8ff" points="957.42,-205.09 946.87,-206.01 955.69,-211.87 957.42,-205.09"/>
</a>
</g>
</g>
<!-- Node32&#45;&gt;Node4 -->
<g id="edge57_Node000032_Node000004" class="edge">
<title>Node32&#45;&gt;Node4</title>
<g id="a_edge57_Node000032_Node000004"><a xlink:title=" ">
<path fill="none" stroke="#63b8ff" d="M1205.58,-246.47C1229.52,-239.44 1254.5,-227.22 1268.92,-206 1291.45,-172.81 1281.2,-123.73 1271.91,-94.79"/>
<polygon fill="#63b8ff" stroke="#63b8ff" points="1275.15,-93.43 1268.6,-85.11 1268.53,-95.7 1275.15,-93.43"/>
</a>
</g>
</g>
<!-- Node32&#45;&gt;Node18 -->
<g id="edge60_Node000032_Node000018" class="edge">
<title>Node32&#45;&gt;Node18</title>
<g id="a_edge60_Node000032_Node000018"><a xlink:title=" ">
<path fill="none" stroke="#63b8ff" d="M1087.34,-241.92C1060.87,-233.77 1029.49,-221.93 1003.92,-206 978.37,-190.09 954.36,-164.53 940.14,-147.88"/>
<polygon fill="#63b8ff" stroke="#63b8ff" points="942.74,-145.52 933.65,-140.08 937.36,-150 942.74,-145.52"/>
</a>
</g>
</g>
<!-- Node32&#45;&gt;Node19 -->
<g id="edge62_Node000032_Node000019" class="edge">
<title>Node32&#45;&gt;Node19</title>
<g id="a_edge62_Node000032_Node000019"><a xlink:title=" ">
<path fill="none" stroke="#63b8ff" d="M1110.27,-241.93C1093.18,-233.37 1072.77,-221.17 1057.92,-206 1025.47,-172.87 1010.81,-118.25 1005.08,-89.7"/>
<polygon fill="#63b8ff" stroke="#63b8ff" points="1008.51,-89.01 1003.25,-79.82 1001.63,-90.29 1008.51,-89.01"/>
</a>
</g>
</g>
<!-- Node32&#45;&gt;Node21 -->
<g id="edge63_Node000032_Node000021" class="edge">
<title>Node32&#45;&gt;Node21</title>
<g id="a_edge63_Node000032_Node000021"><a xlink:title=" ">
<path fill="none" stroke="#63b8ff" d="M1080.1,-248.1C1001.28,-237.85 870.73,-219.66 823.92,-206 822.23,-205.51 820.53,-204.95 818.82,-204.35"/>
<polygon fill="#63b8ff" stroke="#63b8ff" points="819.8,-200.97 809.22,-200.53 817.22,-207.48 819.8,-200.97"/>
</a>
</g>
</g>
<!-- Node32&#45;&gt;Node25 -->
<g id="edge58_Node000032_Node000025" class="edge">
<title>Node32&#45;&gt;Node25</title>
<g id="a_edge58_Node000032_Node000025"><a xlink:title=" ">
<path fill="none" stroke="#63b8ff" d="M1115.42,-241.84C1101.34,-233.27 1085.07,-221.07 1074.92,-206 1063.63,-189.26 1059.04,-166.29 1057.19,-150.29"/>
<polygon fill="#63b8ff" stroke="#63b8ff" points="1060.65,-149.71 1056.26,-140.07 1053.68,-150.35 1060.65,-149.71"/>
</a>
</g>
</g>
<!-- Node32&#45;&gt;Node28 -->
<g id="edge59_Node000032_Node000028" class="edge">
<title>Node32&#45;&gt;Node28</title>
<g id="a_edge59_Node000032_Node000028"><a xlink:title=" ">
<path fill="none" stroke="#63b8ff" d="M1205.58,-251.53C1253.67,-246 1320.5,-233.63 1372.92,-206 1410.74,-186.06 1425.97,-179.26 1442.92,-140 1450.2,-123.13 1442.73,-102.73 1435.12,-88.5"/>
<polygon fill="#63b8ff" stroke="#63b8ff" points="1438.07,-86.63 1430.01,-79.76 1432.03,-90.16 1438.07,-86.63"/>
</a>
</g>
</g>
<!-- Node32&#45;&gt;Node29 -->
<g id="edge42_Node000032_Node000029" class="edge">
<title>Node32&#45;&gt;Node29</title>
<g id="a_edge42_Node000032_Node000029"><a xlink:title=" ">
<path fill="none" stroke="#63b8ff" d="M1205.49,-251.11C1260.83,-245.2 1342.94,-232.53 1409.92,-206 1487.82,-175.14 1567.98,-114.26 1602.87,-86.03"/>
<polygon fill="#63b8ff" stroke="#63b8ff" points="1605.21,-88.64 1610.74,-79.6 1600.78,-83.22 1605.21,-88.64"/>
</a>
</g>
</g>
<!-- Node33 -->
<g id="Node000033" class="node">
<title>Node33</title>
<g id="a_Node000033"><a xlink:href="casadi-functions_8hpp.html" target="_top" xlink:title=" ">
<polygon fill="white" stroke="#666666" points="1201.92,-200.5 1083.92,-200.5 1083.92,-181.5 1201.92,-181.5 1201.92,-200.5"/>
<text text-anchor="middle" x="1142.92" y="-188.5" font-family="Helvetica,sans-Serif" font-size="10.00">casadi&#45;functions.hpp</text>
</a>
</g>
</g>
<!-- Node32&#45;&gt;Node33 -->
<g id="edge43_Node000032_Node000033" class="edge">
<title>Node32&#45;&gt;Node33</title>
<g id="a_edge43_Node000032_Node000033"><a xlink:title=" ">
<path fill="none" stroke="#63b8ff" d="M1142.92,-241.8C1142.92,-232.7 1142.92,-220.79 1142.92,-210.9"/>
<polygon fill="#63b8ff" stroke="#63b8ff" points="1146.42,-210.84 1142.92,-200.84 1139.42,-210.84 1146.42,-210.84"/>
</a>
</g>
</g>
<!-- Node38 -->
<g id="Node000038" class="node">
<title>Node38</title>
<g id="a_Node000038"><a xlink:title=" ">
<polygon fill="#e0e0e0" stroke="#999999" points="1259.92,-200.5 1219.92,-200.5 1219.92,-181.5 1259.92,-181.5 1259.92,-200.5"/>
<text text-anchor="middle" x="1239.92" y="-188.5" font-family="Helvetica,sans-Serif" font-size="10.00">span</text>
</a>
</g>
</g>
<!-- Node32&#45;&gt;Node38 -->
<g id="edge61_Node000032_Node000038" class="edge">
<title>Node32&#45;&gt;Node38</title>
<g id="a_edge61_Node000032_Node000038"><a xlink:title=" ">
<path fill="none" stroke="#63b8ff" d="M1164.44,-241.8C1180.4,-231.27 1202.07,-216.97 1218.09,-206.4"/>
<polygon fill="#63b8ff" stroke="#63b8ff" points="1220.37,-209.09 1226.79,-200.66 1216.52,-203.24 1220.37,-209.09"/>
</a>
</g>
</g>
<!-- Node39 -->
<g id="Node000039" class="node">
<title>Node39</title>
<g id="a_Node000039"><a xlink:title=" ">
<polygon fill="#e0e0e0" stroke="#999999" points="1363.42,-200.5 1316.42,-200.5 1316.42,-181.5 1363.42,-181.5 1363.42,-200.5"/>
<text text-anchor="middle" x="1339.92" y="-188.5" font-family="Helvetica,sans-Serif" font-size="10.00">vector</text>
</a>
</g>
</g>
<!-- Node32&#45;&gt;Node39 -->
<g id="edge64_Node000032_Node000039" class="edge">
<title>Node32&#45;&gt;Node39</title>
<g id="a_edge64_Node000032_Node000039"><a xlink:title=" ">
<path fill="none" stroke="#63b8ff" d="M1189.72,-241.93C1221.5,-232.22 1264.4,-218.8 1301.92,-206 1303.76,-205.37 1305.65,-204.71 1307.56,-204.04"/>
<polygon fill="#63b8ff" stroke="#63b8ff" points="1308.85,-207.3 1317.07,-200.62 1306.48,-200.71 1308.85,-207.3"/>
</a>
</g>
</g>
<!-- Node33&#45;&gt;Node4 -->
<g id="edge44_Node000033_Node000004" class="edge">
<title>Node33&#45;&gt;Node4</title>
<g id="a_edge44_Node000033_Node000004"><a xlink:title=" ">
<path fill="none" stroke="#63b8ff" d="M1156.36,-181.33C1170.3,-172.02 1192.32,-156.34 1208.92,-140 1223.46,-125.68 1237.59,-107.42 1247.74,-93.28"/>
<polygon fill="#63b8ff" stroke="#63b8ff" points="1250.62,-95.28 1253.52,-85.08 1244.9,-91.24 1250.62,-95.28"/>
</a>
</g>
</g>
<!-- Node33&#45;&gt;Node25 -->
<g id="edge56_Node000033_Node000025" class="edge">
<title>Node33&#45;&gt;Node25</title>
<g id="a_edge56_Node000033_Node000025"><a xlink:title=" ">
<path fill="none" stroke="#63b8ff" d="M1130.08,-181.37C1116.2,-172.04 1093.85,-157.01 1077.31,-145.88"/>
<polygon fill="#63b8ff" stroke="#63b8ff" points="1079.06,-142.84 1068.8,-140.17 1075.15,-148.65 1079.06,-142.84"/>
</a>
</g>
</g>
<!-- Node34 -->
<g id="Node000034" class="node">
<title>Node34</title>
<g id="a_Node000034"><a xlink:href="casadi-types_8hpp.html" target="_top" xlink:title=" ">
<polygon fill="white" stroke="#666666" points="1199.92,-140 1099.92,-140 1099.92,-121 1199.92,-121 1199.92,-140"/>
<text text-anchor="middle" x="1149.92" y="-128" font-family="Helvetica,sans-Serif" font-size="10.00">casadi&#45;types.hpp</text>
</a>
</g>
</g>
<!-- Node33&#45;&gt;Node34 -->
<g id="edge45_Node000033_Node000034" class="edge">
<title>Node33&#45;&gt;Node34</title>
<g id="a_edge45_Node000033_Node000034"><a xlink:title=" ">
<path fill="none" stroke="#63b8ff" d="M1143.95,-181.37C1144.92,-173.25 1146.41,-160.81 1147.66,-150.39"/>
<polygon fill="#63b8ff" stroke="#63b8ff" points="1151.17,-150.51 1148.88,-140.17 1144.21,-149.68 1151.17,-150.51"/>
</a>
</g>
</g>
<!-- Node37 -->
<g id="Node000037" class="node">
<title>Node37</title>
<g id="a_Node000037"><a xlink:href="dl_8hpp.html" target="_top" xlink:title=" ">
<polygon fill="white" stroke="#666666" points="1433.42,-140 1332.42,-140 1332.42,-121 1433.42,-121 1433.42,-140"/>
<text text-anchor="middle" x="1382.92" y="-128" font-family="Helvetica,sans-Serif" font-size="10.00">alpaqa/util/dl.hpp</text>
</a>
</g>
</g>
<!-- Node33&#45;&gt;Node37 -->
<g id="edge50_Node000033_Node000037" class="edge">
<title>Node33&#45;&gt;Node37</title>
<g id="a_edge50_Node000033_Node000037"><a xlink:title=" ">
<path fill="none" stroke="#63b8ff" d="M1177.81,-181.49C1220.21,-171.16 1291.79,-153.71 1338.19,-142.4"/>
<polygon fill="#63b8ff" stroke="#63b8ff" points="1339.09,-145.79 1347.97,-140.02 1337.43,-138.98 1339.09,-145.79"/>
</a>
</g>
</g>
<!-- Node34&#45;&gt;Node4 -->
<g id="edge49_Node000034_Node000004" class="edge">
<title>Node34&#45;&gt;Node4</title>
<g id="a_edge49_Node000034_Node000004"><a xlink:title=" ">
<path fill="none" stroke="#63b8ff" d="M1166.59,-120.87C1182.35,-112.71 1206.52,-100.2 1226.7,-89.75"/>
<polygon fill="#63b8ff" stroke="#63b8ff" points="1228.38,-92.82 1235.65,-85.11 1225.16,-86.6 1228.38,-92.82"/>
</a>
</g>
</g>
<!-- Node34&#45;&gt;Node20 -->
<g id="edge48_Node000034_Node000020" class="edge">
<title>Node34&#45;&gt;Node20</title>
<g id="a_edge48_Node000034_Node000020"><a xlink:title=" ">
<path fill="none" stroke="#63b8ff" d="M1099.6,-121.67C1021.12,-109.46 871.79,-86.23 806.19,-76.02"/>
<polygon fill="#63b8ff" stroke="#63b8ff" points="806.46,-72.52 796.04,-74.44 805.38,-79.44 806.46,-72.52"/>
</a>
</g>
</g>
<!-- Node35 -->
<g id="Node000035" class="node">
<title>Node35</title>
<g id="a_Node000035"><a xlink:title=" ">
<polygon fill="#e0e0e0" stroke="#999999" points="1121.92,-79.5 1057.92,-79.5 1057.92,-60.5 1121.92,-60.5 1121.92,-79.5"/>
<text text-anchor="middle" x="1089.92" y="-67.5" font-family="Helvetica,sans-Serif" font-size="10.00">algorithm</text>
</a>
</g>
</g>
<!-- Node34&#45;&gt;Node35 -->
<g id="edge46_Node000034_Node000035" class="edge">
<title>Node34&#45;&gt;Node35</title>
<g id="a_edge46_Node000034_Node000035"><a xlink:title=" ">
<path fill="none" stroke="#63b8ff" d="M1141.06,-120.87C1131.93,-111.97 1117.49,-97.89 1106.28,-86.95"/>
<polygon fill="#63b8ff" stroke="#63b8ff" points="1108.41,-84.14 1098.8,-79.67 1103.52,-89.15 1108.41,-84.14"/>
</a>
</g>
</g>
<!-- Node36 -->
<g id="Node000036" class="node">
<title>Node36</title>
<g id="a_Node000036"><a xlink:title=" ">
<polygon fill="#e0e0e0" stroke="#999999" points="1181.92,-79.5 1139.92,-79.5 1139.92,-60.5 1181.92,-60.5 1181.92,-79.5"/>
<text text-anchor="middle" x="1160.92" y="-67.5" font-family="Helvetica,sans-Serif" font-size="10.00">array</text>
</a>
</g>
</g>
<!-- Node34&#45;&gt;Node36 -->
<g id="edge47_Node000034_Node000036" class="edge">
<title>Node34&#45;&gt;Node36</title>
<g id="a_edge47_Node000034_Node000036"><a xlink:title=" ">
<path fill="none" stroke="#63b8ff" d="M1151.54,-120.87C1153.08,-112.66 1155.45,-100.04 1157.43,-89.55"/>
<polygon fill="#63b8ff" stroke="#63b8ff" points="1160.88,-90.14 1159.29,-79.67 1154,-88.85 1160.88,-90.14"/>
</a>
</g>
</g>
<!-- Node37&#45;&gt;Node19 -->
<g id="edge55_Node000037_Node000019" class="edge">
<title>Node37&#45;&gt;Node19</title>
<g id="a_edge55_Node000037_Node000019"><a xlink:title=" ">
<path fill="none" stroke="#63b8ff" d="M1332.41,-125.26C1266.64,-119.18 1148.3,-106.29 1048.92,-85 1045.29,-84.22 1041.54,-83.31 1037.8,-82.32"/>
<polygon fill="#63b8ff" stroke="#63b8ff" points="1038.65,-78.92 1028.08,-79.58 1036.76,-85.66 1038.65,-78.92"/>
</a>
</g>
</g>
<!-- Node37&#45;&gt;Node24 -->
<g id="edge51_Node000037_Node000024" class="edge">
<title>Node37&#45;&gt;Node24</title>
<g id="a_edge51_Node000037_Node000024"><a xlink:title=" ">
<path fill="none" stroke="#63b8ff" d="M1381.76,-120.94C1379.21,-101.91 1372.99,-55.69 1369.47,-29.47"/>
<polygon fill="#63b8ff" stroke="#63b8ff" points="1372.9,-28.75 1368.1,-19.3 1365.96,-29.68 1372.9,-28.75"/>
</a>
</g>
</g>
<!-- Node37&#45;&gt;Node28 -->
<g id="edge54_Node000037_Node000028" class="edge">
<title>Node37&#45;&gt;Node28</title>
<g id="a_edge54_Node000037_Node000028"><a xlink:title=" ">
<path fill="none" stroke="#63b8ff" d="M1388.96,-120.87C1395.02,-112.23 1404.5,-98.7 1412.06,-87.92"/>
<polygon fill="#63b8ff" stroke="#63b8ff" points="1414.97,-89.87 1417.84,-79.67 1409.24,-85.85 1414.97,-89.87"/>
</a>
</g>
</g>
<!-- Node37&#45;&gt;Node29 -->
<g id="edge52_Node000037_Node000029" class="edge">
<title>Node37&#45;&gt;Node29</title>
<g id="a_edge52_Node000037_Node000029"><a xlink:title=" ">
<path fill="none" stroke="#63b8ff" d="M1417.52,-120.99C1459.47,-110.68 1530.25,-93.28 1576.27,-81.97"/>
<polygon fill="#63b8ff" stroke="#63b8ff" points="1577.39,-85.3 1586.27,-79.52 1575.72,-78.5 1577.39,-85.3"/>
</a>
</g>
</g>
<!-- Node37&#45;&gt;Node30 -->
<g id="edge53_Node000037_Node000030" class="edge">
<title>Node37&#45;&gt;Node30</title>
<g id="a_edge53_Node000037_Node000030"><a xlink:title=" ">
<path fill="none" stroke="#63b8ff" d="M1400.66,-120.99C1420.98,-111.25 1454.52,-95.16 1478.06,-83.88"/>
<polygon fill="#63b8ff" stroke="#63b8ff" points="1479.65,-87 1487.15,-79.52 1476.62,-80.68 1479.65,-87"/>
</a>
</g>
</g>
</g>
</svg>
