<?xml version="1.0" encoding="UTF-8" standalone="no"?>
<!DOCTYPE svg PUBLIC "-//W3C//DTD SVG 1.1//EN"
 "http://www.w3.org/Graphics/SVG/1.1/DTD/svg11.dtd">
<!-- Generated by graphviz version 2.43.0 (0)
 -->
<!-- Title: LBFGS&lt; Conf, Storage &gt; Pages: 1 -->
<!--zoomable 879 -->

<svg id="main" version="1.1" xmlns="http://www.w3.org/2000/svg" xmlns:xlink="http://www.w3.org/1999/xlink" xml:space="preserve" onload="init(evt)">
<style type="text/css"><![CDATA[
.node, .edge {opacity: 0.7;}
.node.selected, .edge.selected {opacity: 1;}
.edge:hover path { stroke: red; }
.edge:hover polygon { stroke: red; fill: red; }
]]></style>

<defs>
  <circle id="rim" cx="0" cy="0" r="7"/>
  <circle id="rim2" cx="0" cy="0" r="3.5"/>
  <g id="zoomPlus">
    <use xlink:href="#rim" fill="#404040"><set attributeName="fill" to="#808080" begin="zoomplus.mouseover" end="zoomplus.mouseout"/></use>
    <path d="M-4,0h8M0,-4v8" fill="none" stroke="white" stroke-width="1.5" pointer-events="none"/>
  </g>
  <g id="zoomMin">
    <use xlink:href="#rim" fill="#404040"><set attributeName="fill" to="#808080" begin="zoomminus.mouseover" end="zoomminus.mouseout"/></use>
    <path d="M-4,0h8" fill="none" stroke="white" stroke-width="1.5" pointer-events="none"/>
  </g>
  <g id="arrowUp" transform="translate(30 24)">
    <use xlink:href="#rim"/>
    <path pointer-events="none" fill="none" stroke="white" stroke-width="1.5" d="M0,-3.0v7 M-2.5,-0.5L0,-3.0L2.5,-0.5"/>
  </g>
  <g id="arrowRight" transform="rotate(90) translate(36 -43)">
    <use xlink:href="#rim"/>
    <path pointer-events="none" fill="none" stroke="white" stroke-width="1.5" d="M0,-3.0v7 M-2.5,-0.5L0,-3.0L2.5,-0.5"/>
  </g>
  <g id="arrowDown" transform="rotate(180) translate(-30 -48)">
    <use xlink:href="#rim"/>
    <path pointer-events="none" fill="none" stroke="white" stroke-width="1.5" d="M0,-3.0v7 M-2.5,-0.5L0,-3.0L2.5,-0.5"/>
  </g>
  <g id="arrowLeft" transform="rotate(270) translate(-36 17)">
    <use xlink:href="#rim"/>
    <path pointer-events="none" fill="none" stroke="white" stroke-width="1.5" d="M0,-3.0v7 M-2.5,-0.5L0,-3.0L2.5,-0.5"/>
  </g>
  <g id="resetDef">
    <use xlink:href="#rim2" fill="#404040"><set attributeName="fill" to="#808080" begin="reset.mouseover" end="reset.mouseout"/></use>
  </g>
</defs>
<script type="application/ecmascript">
var viewWidth = 335;
var viewHeight = 879;
var sectionId = 'dynsection-0';
</script>
<script type="application/ecmascript" xlink:href="svg.min.js"/>
<svg id="graph" class="graph">
<g id="viewport">
<title>LBFGS&lt; Conf, Storage &gt;</title>
<!-- Node1 -->
<g id="Node000001" class="node">
<title>Node1</title>
<g id="a_Node000001"><a xlink:title="Limited memory Broyden–Fletcher–Goldfarb–Shanno (L&#45;BFGS) algorithm.">
<polygon fill="#999999" stroke="transparent" points="204,-514 73,-514 73,0 204,0 204,-514"/>
<text text-anchor="start" x="78.5" y="-502" font-family="Helvetica,sans-Serif" font-size="10.00">LBFGS&lt; Conf, Storage &gt;</text>
<text text-anchor="start" x="81" y="-487" font-family="Helvetica,sans-Serif" font-size="10.00">&#45;</text>
<text text-anchor="start" x="92.5" y="-487" font-family="Helvetica,sans-Serif" font-size="10.00">idx</text>
<text text-anchor="start" x="81" y="-472" font-family="Helvetica,sans-Serif" font-size="10.00">&#45;</text>
<text text-anchor="start" x="92.5" y="-472" font-family="Helvetica,sans-Serif" font-size="10.00">full</text>
<text text-anchor="start" x="78.5" y="-457" font-family="Helvetica,sans-Serif" font-size="10.00">+</text>
<text text-anchor="start" x="92.5" y="-457" font-family="Helvetica,sans-Serif" font-size="10.00">LBFGS()</text>
<text text-anchor="start" x="78.5" y="-442" font-family="Helvetica,sans-Serif" font-size="10.00">+</text>
<text text-anchor="start" x="92.5" y="-442" font-family="Helvetica,sans-Serif" font-size="10.00">LBFGS()</text>
<text text-anchor="start" x="78.5" y="-427" font-family="Helvetica,sans-Serif" font-size="10.00">+</text>
<text text-anchor="start" x="92.5" y="-427" font-family="Helvetica,sans-Serif" font-size="10.00">LBFGS()</text>
<text text-anchor="start" x="78.5" y="-412" font-family="Helvetica,sans-Serif" font-size="10.00">+</text>
<text text-anchor="start" x="92.5" y="-412" font-family="Helvetica,sans-Serif" font-size="10.00">update_sy()</text>
<text text-anchor="start" x="78.5" y="-397" font-family="Helvetica,sans-Serif" font-size="10.00">+</text>
<text text-anchor="start" x="92.5" y="-397" font-family="Helvetica,sans-Serif" font-size="10.00">update_sy_impl()</text>
<text text-anchor="start" x="78.5" y="-382" font-family="Helvetica,sans-Serif" font-size="10.00">+</text>
<text text-anchor="start" x="92.5" y="-382" font-family="Helvetica,sans-Serif" font-size="10.00">update()</text>
<text text-anchor="start" x="78.5" y="-367" font-family="Helvetica,sans-Serif" font-size="10.00">+</text>
<text text-anchor="start" x="92.5" y="-367" font-family="Helvetica,sans-Serif" font-size="10.00">apply()</text>
<text text-anchor="start" x="78.5" y="-352" font-family="Helvetica,sans-Serif" font-size="10.00">+</text>
<text text-anchor="start" x="92.5" y="-352" font-family="Helvetica,sans-Serif" font-size="10.00">apply_masked()</text>
<text text-anchor="start" x="78.5" y="-337" font-family="Helvetica,sans-Serif" font-size="10.00">+</text>
<text text-anchor="start" x="92.5" y="-337" font-family="Helvetica,sans-Serif" font-size="10.00">apply_masked()</text>
<text text-anchor="start" x="78.5" y="-322" font-family="Helvetica,sans-Serif" font-size="10.00">+</text>
<text text-anchor="start" x="92.5" y="-322" font-family="Helvetica,sans-Serif" font-size="10.00">apply_masked_impl()</text>
<text text-anchor="start" x="78.5" y="-307" font-family="Helvetica,sans-Serif" font-size="10.00">+</text>
<text text-anchor="start" x="92.5" y="-307" font-family="Helvetica,sans-Serif" font-size="10.00">reset()</text>
<text text-anchor="start" x="78.5" y="-292" font-family="Helvetica,sans-Serif" font-size="10.00">+</text>
<text text-anchor="start" x="92.5" y="-292" font-family="Helvetica,sans-Serif" font-size="10.00">resize()</text>
<text text-anchor="start" x="78.5" y="-277" font-family="Helvetica,sans-Serif" font-size="10.00">+</text>
<text text-anchor="start" x="92.5" y="-277" font-family="Helvetica,sans-Serif" font-size="10.00">scale_y()</text>
<text text-anchor="start" x="78.5" y="-262" font-family="Helvetica,sans-Serif" font-size="10.00">+</text>
<text text-anchor="start" x="92.5" y="-262" font-family="Helvetica,sans-Serif" font-size="10.00">get_name()</text>
<text text-anchor="start" x="78.5" y="-247" font-family="Helvetica,sans-Serif" font-size="10.00">+</text>
<text text-anchor="start" x="92.5" y="-247" font-family="Helvetica,sans-Serif" font-size="10.00">get_params()</text>
<text text-anchor="start" x="78.5" y="-232" font-family="Helvetica,sans-Serif" font-size="10.00">+</text>
<text text-anchor="start" x="92.5" y="-232" font-family="Helvetica,sans-Serif" font-size="10.00">n()</text>
<text text-anchor="start" x="78.5" y="-217" font-family="Helvetica,sans-Serif" font-size="10.00">+</text>
<text text-anchor="start" x="92.5" y="-217" font-family="Helvetica,sans-Serif" font-size="10.00">history()</text>
<text text-anchor="start" x="78.5" y="-202" font-family="Helvetica,sans-Serif" font-size="10.00">+</text>
<text text-anchor="start" x="92.5" y="-202" font-family="Helvetica,sans-Serif" font-size="10.00">succ()</text>
<text text-anchor="start" x="78.5" y="-187" font-family="Helvetica,sans-Serif" font-size="10.00">+</text>
<text text-anchor="start" x="92.5" y="-187" font-family="Helvetica,sans-Serif" font-size="10.00">pred()</text>
<text text-anchor="start" x="78.5" y="-172" font-family="Helvetica,sans-Serif" font-size="10.00">+</text>
<text text-anchor="start" x="92.5" y="-172" font-family="Helvetica,sans-Serif" font-size="10.00">current_history()</text>
<text text-anchor="start" x="78.5" y="-157" font-family="Helvetica,sans-Serif" font-size="10.00">+</text>
<text text-anchor="start" x="92.5" y="-157" font-family="Helvetica,sans-Serif" font-size="10.00">s()</text>
<text text-anchor="start" x="78.5" y="-142" font-family="Helvetica,sans-Serif" font-size="10.00">+</text>
<text text-anchor="start" x="92.5" y="-142" font-family="Helvetica,sans-Serif" font-size="10.00">s()</text>
<text text-anchor="start" x="78.5" y="-127" font-family="Helvetica,sans-Serif" font-size="10.00">+</text>
<text text-anchor="start" x="92.5" y="-127" font-family="Helvetica,sans-Serif" font-size="10.00">y()</text>
<text text-anchor="start" x="78.5" y="-112" font-family="Helvetica,sans-Serif" font-size="10.00">+</text>
<text text-anchor="start" x="92.5" y="-112" font-family="Helvetica,sans-Serif" font-size="10.00">y()</text>
<text text-anchor="start" x="78.5" y="-97" font-family="Helvetica,sans-Serif" font-size="10.00">+</text>
<text text-anchor="start" x="92.5" y="-97" font-family="Helvetica,sans-Serif" font-size="10.00">ρ()</text>
<text text-anchor="start" x="78.5" y="-82" font-family="Helvetica,sans-Serif" font-size="10.00">+</text>
<text text-anchor="start" x="92.5" y="-82" font-family="Helvetica,sans-Serif" font-size="10.00">ρ()</text>
<text text-anchor="start" x="78.5" y="-67" font-family="Helvetica,sans-Serif" font-size="10.00">+</text>
<text text-anchor="start" x="92.5" y="-67" font-family="Helvetica,sans-Serif" font-size="10.00">α()</text>
<text text-anchor="start" x="78.5" y="-52" font-family="Helvetica,sans-Serif" font-size="10.00">+</text>
<text text-anchor="start" x="92.5" y="-52" font-family="Helvetica,sans-Serif" font-size="10.00">α()</text>
<text text-anchor="start" x="78.5" y="-37" font-family="Helvetica,sans-Serif" font-size="10.00">+</text>
<text text-anchor="start" x="92.5" y="-37" font-family="Helvetica,sans-Serif" font-size="10.00">foreach_fwd()</text>
<text text-anchor="start" x="78.5" y="-22" font-family="Helvetica,sans-Serif" font-size="10.00">+</text>
<text text-anchor="start" x="92.5" y="-22" font-family="Helvetica,sans-Serif" font-size="10.00">foreach_rev()</text>
<text text-anchor="start" x="78.5" y="-7" font-family="Helvetica,sans-Serif" font-size="10.00">+</text>
<text text-anchor="start" x="92.5" y="-7" font-family="Helvetica,sans-Serif" font-size="10.00">update_valid()</text>
<polygon fill="#666666" stroke="#666666" points="73.5,-497 73.5,-497 204.5,-497 204.5,-497 73.5,-497"/>
<polygon fill="#666666" stroke="#666666" points="73.5,-467 73.5,-467 90.5,-467 90.5,-467 73.5,-467"/>
<polygon fill="#666666" stroke="#666666" points="90.5,-467 90.5,-467 204.5,-467 204.5,-467 90.5,-467"/>
<polygon fill="none" stroke="#666666" points="73,0 73,-514 204,-514 204,0 73,0"/>
</a>
</g>
</g>
<!-- Node2 -->
<g id="Node000002" class="node">
<title>Node2</title>
<g id="a_Node000002"><a xlink:href="structalpaqa_1_1LBFGSStorage.html" target="_top" xlink:title=" ">
<polygon fill="white" stroke="transparent" points="169,-760 0,-760 0,-561 169,-561 169,-760"/>
<text text-anchor="start" x="5.5" y="-747.5" font-family="Helvetica,sans-Serif" font-size="10.00">LBFGSStorage&lt; DefaultConfig &gt;</text>
<text text-anchor="start" x="31" y="-732.5" font-family="Helvetica,sans-Serif" font-size="10.00">+</text>
<text text-anchor="start" x="70.5" y="-732.5" font-family="Helvetica,sans-Serif" font-size="10.00">sto</text>
<text text-anchor="start" x="31" y="-717.5" font-family="Helvetica,sans-Serif" font-size="10.00">+</text>
<text text-anchor="start" x="70.5" y="-717.5" font-family="Helvetica,sans-Serif" font-size="10.00">resize()</text>
<text text-anchor="start" x="31" y="-702.5" font-family="Helvetica,sans-Serif" font-size="10.00">+</text>
<text text-anchor="start" x="70.5" y="-702.5" font-family="Helvetica,sans-Serif" font-size="10.00">n()</text>
<text text-anchor="start" x="31" y="-687.5" font-family="Helvetica,sans-Serif" font-size="10.00">+</text>
<text text-anchor="start" x="70.5" y="-687.5" font-family="Helvetica,sans-Serif" font-size="10.00">history()</text>
<text text-anchor="start" x="31" y="-672.5" font-family="Helvetica,sans-Serif" font-size="10.00">+</text>
<text text-anchor="start" x="70.5" y="-672.5" font-family="Helvetica,sans-Serif" font-size="10.00">s()</text>
<text text-anchor="start" x="31" y="-657.5" font-family="Helvetica,sans-Serif" font-size="10.00">+</text>
<text text-anchor="start" x="70.5" y="-657.5" font-family="Helvetica,sans-Serif" font-size="10.00">s()</text>
<text text-anchor="start" x="31" y="-642.5" font-family="Helvetica,sans-Serif" font-size="10.00">+</text>
<text text-anchor="start" x="70.5" y="-642.5" font-family="Helvetica,sans-Serif" font-size="10.00">y()</text>
<text text-anchor="start" x="31" y="-627.5" font-family="Helvetica,sans-Serif" font-size="10.00">+</text>
<text text-anchor="start" x="70.5" y="-627.5" font-family="Helvetica,sans-Serif" font-size="10.00">y()</text>
<text text-anchor="start" x="31" y="-612.5" font-family="Helvetica,sans-Serif" font-size="10.00">+</text>
<text text-anchor="start" x="70.5" y="-612.5" font-family="Helvetica,sans-Serif" font-size="10.00">ρ()</text>
<text text-anchor="start" x="31" y="-597.5" font-family="Helvetica,sans-Serif" font-size="10.00">+</text>
<text text-anchor="start" x="70.5" y="-597.5" font-family="Helvetica,sans-Serif" font-size="10.00">ρ()</text>
<text text-anchor="start" x="31" y="-582.5" font-family="Helvetica,sans-Serif" font-size="10.00">+</text>
<text text-anchor="start" x="70.5" y="-582.5" font-family="Helvetica,sans-Serif" font-size="10.00">α()</text>
<text text-anchor="start" x="31" y="-567.5" font-family="Helvetica,sans-Serif" font-size="10.00">+</text>
<text text-anchor="start" x="70.5" y="-567.5" font-family="Helvetica,sans-Serif" font-size="10.00">α()</text>
<polygon fill="#666666" stroke="#666666" points="0.5,-742.5 0.5,-742.5 169.5,-742.5 169.5,-742.5 0.5,-742.5"/>
<polygon fill="#666666" stroke="#666666" points="0.5,-727.5 0.5,-727.5 68.5,-727.5 68.5,-727.5 0.5,-727.5"/>
<polygon fill="#666666" stroke="#666666" points="68.5,-727.5 68.5,-727.5 169.5,-727.5 169.5,-727.5 68.5,-727.5"/>
<polygon fill="none" stroke="#666666" points="0,-561 0,-760 169,-760 169,-561 0,-561"/>
</a>
</g>
</g>
<!-- Node2&#45;&gt;Node1 -->
<g id="edge1_Node000001_Node000002" class="edge">
<title>Node2&#45;&gt;Node1</title>
<g id="a_edge1_Node000001_Node000002"><a xlink:title=" ">
<path fill="none" stroke="#63b8ff" d="M97.78,-560.77C99.27,-549.71 100.83,-538.09 102.44,-526.11"/>
<polygon fill="none" stroke="#63b8ff" points="102.47,-525.9 99.3,-519.42 104.07,-514.01 107.23,-520.49 102.47,-525.9"/>
</a>
</g>
<text text-anchor="middle" x="110.5" y="-535" font-family="Helvetica,sans-Serif" font-size="10.00" fill="grey"> &#45;sto</text>
</g>
<!-- Node3 -->
<g id="Node000003" class="node">
<title>Node3</title>
<g id="a_Node000003"><a xlink:href="namespacealpaqa.html#group__grp__Parameters" target="_top" xlink:title=" ">
<polygon fill="white" stroke="transparent" points="326,-715 187,-715 187,-606 326,-606 326,-715"/>
<text text-anchor="start" x="192.5" y="-702.5" font-family="Helvetica,sans-Serif" font-size="10.00">LBFGSParams&lt; config_t &gt;</text>
<text text-anchor="start" x="203.5" y="-687.5" font-family="Helvetica,sans-Serif" font-size="10.00">+</text>
<text text-anchor="start" x="228.5" y="-687.5" font-family="Helvetica,sans-Serif" font-size="10.00">memory</text>
<text text-anchor="start" x="203.5" y="-672.5" font-family="Helvetica,sans-Serif" font-size="10.00">+</text>
<text text-anchor="start" x="228.5" y="-672.5" font-family="Helvetica,sans-Serif" font-size="10.00">min_div_fac</text>
<text text-anchor="start" x="203.5" y="-657.5" font-family="Helvetica,sans-Serif" font-size="10.00">+</text>
<text text-anchor="start" x="228.5" y="-657.5" font-family="Helvetica,sans-Serif" font-size="10.00">min_abs_s</text>
<text text-anchor="start" x="203.5" y="-642.5" font-family="Helvetica,sans-Serif" font-size="10.00">+</text>
<text text-anchor="start" x="228.5" y="-642.5" font-family="Helvetica,sans-Serif" font-size="10.00">force_pos_def</text>
<text text-anchor="start" x="203.5" y="-627.5" font-family="Helvetica,sans-Serif" font-size="10.00">+</text>
<text text-anchor="start" x="228.5" y="-627.5" font-family="Helvetica,sans-Serif" font-size="10.00">stepsize</text>
<text text-anchor="start" x="255" y="-612.5" font-family="Helvetica,sans-Serif" font-size="10.00"> </text>
<polygon fill="#666666" stroke="#666666" points="187.5,-697.5 187.5,-697.5 326.5,-697.5 326.5,-697.5 187.5,-697.5"/>
<polygon fill="#666666" stroke="#666666" points="187.5,-622.5 187.5,-622.5 226.5,-622.5 226.5,-622.5 187.5,-622.5"/>
<polygon fill="#666666" stroke="#666666" points="226.5,-622.5 226.5,-622.5 326.5,-622.5 326.5,-622.5 226.5,-622.5"/>
<polygon fill="none" stroke="#666666" points="187,-606 187,-715 326,-715 326,-606 187,-606"/>
</a>
</g>
</g>
<!-- Node3&#45;&gt;Node1 -->
<g id="edge2_Node000001_Node000003" class="edge">
<title>Node3&#45;&gt;Node1</title>
<g id="a_edge2_Node000001_Node000003"><a xlink:title=" ">
<path fill="none" stroke="#63b8ff" d="M240.71,-605.77C231.79,-575.43 219.96,-535.17 207.52,-492.83"/>
<polygon fill="none" stroke="#63b8ff" points="207.46,-492.65 201.93,-488.03 204.08,-481.14 209.61,-485.77 207.46,-492.65"/>
</a>
</g>
<text text-anchor="middle" x="243.5" y="-535" font-family="Helvetica,sans-Serif" font-size="10.00" fill="grey"> &#45;params</text>
</g>
<!-- Node4 -->
<g id="Node000004" class="node">
<title>Node4</title>
<g id="a_Node000004"><a xlink:href="structalpaqa_1_1CBFGSParams.html" target="_top" xlink:title=" ">
<polygon fill="white" stroke="transparent" points="326.5,-871 186.5,-871 186.5,-807 326.5,-807 326.5,-871"/>
<text text-anchor="start" x="191.5" y="-859" font-family="Helvetica,sans-Serif" font-size="10.00">CBFGSParams&lt; config_t &gt;</text>
<text text-anchor="start" x="202" y="-844" font-family="Helvetica,sans-Serif" font-size="10.00">+</text>
<text text-anchor="start" x="226.5" y="-844" font-family="Helvetica,sans-Serif" font-size="10.00">α</text>
<text text-anchor="start" x="202" y="-829" font-family="Helvetica,sans-Serif" font-size="10.00">+</text>
<text text-anchor="start" x="226.5" y="-829" font-family="Helvetica,sans-Serif" font-size="10.00">ϵ</text>
<text text-anchor="start" x="202" y="-814" font-family="Helvetica,sans-Serif" font-size="10.00">+</text>
<text text-anchor="start" x="226.5" y="-814" font-family="Helvetica,sans-Serif" font-size="10.00">operator bool()</text>
<polygon fill="#666666" stroke="#666666" points="186.5,-854 186.5,-854 326.5,-854 326.5,-854 186.5,-854"/>
<polygon fill="#666666" stroke="#666666" points="186.5,-824 186.5,-824 224.5,-824 224.5,-824 186.5,-824"/>
<polygon fill="#666666" stroke="#666666" points="224.5,-824 224.5,-824 326.5,-824 326.5,-824 224.5,-824"/>
<polygon fill="none" stroke="#666666" points="186.5,-807 186.5,-871 326.5,-871 326.5,-807 186.5,-807"/>
</a>
</g>
</g>
<!-- Node4&#45;&gt;Node3 -->
<g id="edge3_Node000003_Node000004" class="edge">
<title>Node4&#45;&gt;Node3</title>
<g id="a_edge3_Node000003_Node000004"><a xlink:title=" ">
<path fill="none" stroke="#63b8ff" d="M256.5,-806.85C256.5,-784.88 256.5,-754.64 256.5,-727.42"/>
<polygon fill="none" stroke="#63b8ff" points="256.5,-727.17 252.5,-721.17 256.5,-715.17 260.5,-721.17 256.5,-727.17"/>
</a>
</g>
<text text-anchor="middle" x="275.5" y="-781" font-family="Helvetica,sans-Serif" font-size="10.00" fill="grey"> +cbfgs</text>
</g>
</g>
</svg>

<g id="navigator" transform="translate(0 0)" fill="#404254">
  <rect fill="#f2f5e9" fill-opacity="0.5" stroke="#606060" stroke-width=".5" x="0" y="0" width="60" height="60"/>
  <use id="zoomplus" xlink:href="#zoomPlus" x="17" y="9" onmousedown="handleZoom(evt,'in')"/>
  <use id="zoomminus" xlink:href="#zoomMin" x="42" y="9" onmousedown="handleZoom(evt,'out')"/>
  <use id="reset" xlink:href="#resetDef" x="30" y="36" onmousedown="handleReset()"/>
   <use id="arrowup" xlink:href="#arrowUp" x="0" y="0" onmousedown="handlePan(0,-1)"/>
  <use id="arrowright" xlink:href="#arrowRight" x="0" y="0" onmousedown="handlePan(1,0)"/>
  <use id="arrowdown" xlink:href="#arrowDown" x="0" y="0" onmousedown="handlePan(0,1)"/>
  <use id="arrowleft" xlink:href="#arrowLeft" x="0" y="0" onmousedown="handlePan(-1,0)"/>
</g>
<svg viewBox="0 0 15 15" width="100%" height="30px" preserveAspectRatio="xMaxYMin meet">
 <g id="arrow_out" transform="scale(0.3 0.3)">
  <a xlink:href="classalpaqa_1_1LBFGS__coll__graph_org.svg" target="_base">
   <rect id="button" ry="5" rx="5" y="6" x="6" height="38" width="38"
        fill="#f2f5e9" fill-opacity="0.5" stroke="#606060" stroke-width="1.0"/>
   <path id="arrow"
     d="M 11.500037,31.436501 C 11.940474,20.09759 22.043105,11.32322 32.158766,21.979434 L 37.068811,17.246167 C 37.068811,17.246167 37.088388,32 37.088388,32 L 22.160133,31.978069 C 22.160133,31.978069 26.997745,27.140456 26.997745,27.140456 C 18.528582,18.264221 13.291696,25.230495 11.500037,31.436501 z"
     style="fill:#404040;"/>
  </a>
 </g>
</svg>

<style type='text/css'>
<![CDATA[
[data-mouse-over-selected='false'] { opacity: 0.7; }
[data-mouse-over-selected='true']  { opacity: 1.0; }
]]>
</style>
<script type="application/ecmascript"><![CDATA[
document.addEventListener('DOMContentLoaded', (event) => {
  highlightEdges();
  highlightAdjacentNodes();
});
]]></script>
</svg>
