<?xml version="1.0" encoding="UTF-8" standalone="no"?>
<!DOCTYPE svg PUBLIC "-//W3C//DTD SVG 1.1//EN"
 "http://www.w3.org/Graphics/SVG/1.1/DTD/svg11.dtd">
<!-- Generated by graphviz version 2.43.0 (0)
 -->
<!-- Title: CUTEstLoader Pages: 1 -->
<svg width="336pt" height="64pt"
 viewBox="0.00 0.00 336.00 64.00" xmlns="http://www.w3.org/2000/svg" xmlns:xlink="http://www.w3.org/1999/xlink">
<g id="graph0" class="graph" transform="scale(1 1) rotate(0) translate(4 60)">
<title>CUTEstLoader</title>
<!-- Node1 -->
<g id="Node000001" class="node">
<title>Node1</title>
<g id="a_Node000001"><a xlink:title=" ">
<polygon fill="#999999" stroke="#666666" points="85,-37 0,-37 0,-18 85,-18 85,-37"/>
<text text-anchor="middle" x="42.5" y="-25" font-family="Helvetica,sans-Serif" font-size="10.00">CUTEstLoader</text>
</a>
</g>
</g>
<!-- Node2 -->
<g id="Node000002" class="node">
<title>Node2</title>
<g id="a_Node000002"><a xlink:href="namespacealpaqa_1_1util.html#add4ab2565a84fc50da616a2bb3a08cb1" target="_top" xlink:title="Load a DLL or SO file.">
<polygon fill="white" stroke="#666666" points="237,-56 121,-56 121,-37 237,-37 237,-56"/>
<text text-anchor="middle" x="179" y="-44" font-family="Helvetica,sans-Serif" font-size="10.00">alpaqa::util::load_lib</text>
</a>
</g>
</g>
<!-- Node1&#45;&gt;Node2 -->
<g id="edge1_Node000001_Node000002" class="edge">
<title>Node1&#45;&gt;Node2</title>
<g id="a_edge1_Node000001_Node000002"><a xlink:title=" ">
<path fill="none" stroke="#63b8ff" d="M85.32,-33.41C93.41,-34.55 102.08,-35.78 110.75,-37"/>
<polygon fill="#63b8ff" stroke="#63b8ff" points="110.5,-40.5 120.89,-38.43 111.48,-33.57 110.5,-40.5"/>
</a>
</g>
</g>
<!-- Node3 -->
<g id="Node000003" class="node">
<title>Node3</title>
<g id="a_Node000003"><a xlink:href="classalpaqa_1_1CUTEstLoader.html#a7b716bf57b17924fa32cc16c9451318a" target="_top" xlink:title=" ">
<polygon fill="white" stroke="#666666" points="217.5,-19 140.5,-19 140.5,0 217.5,0 217.5,-19"/>
<text text-anchor="middle" x="179" y="-7" font-family="Helvetica,sans-Serif" font-size="10.00">load_outsdif</text>
</a>
</g>
</g>
<!-- Node1&#45;&gt;Node3 -->
<g id="edge2_Node000001_Node000003" class="edge">
<title>Node1&#45;&gt;Node3</title>
<g id="a_edge2_Node000001_Node000003"><a xlink:title=" ">
<path fill="none" stroke="#63b8ff" d="M85.32,-21.9C99.6,-19.99 115.69,-17.84 130.39,-15.87"/>
<polygon fill="#63b8ff" stroke="#63b8ff" points="130.87,-19.34 140.32,-14.54 129.94,-12.4 130.87,-19.34"/>
</a>
</g>
</g>
<!-- Node4 -->
<g id="Node000004" class="node">
<title>Node4</title>
<g id="a_Node000004"><a xlink:href="classalpaqa_1_1CUTEstLoader.html#a89e25e79e3fcdf5fb0d8acc8f7fa8d75" target="_top" xlink:title=" ">
<polygon fill="white" stroke="#666666" points="328,-19 273,-19 273,0 328,0 328,-19"/>
<text text-anchor="middle" x="300.5" y="-7" font-family="Helvetica,sans-Serif" font-size="10.00">cleanup</text>
</a>
</g>
</g>
<!-- Node3&#45;&gt;Node4 -->
<g id="edge3_Node000003_Node000004" class="edge">
<title>Node3&#45;&gt;Node4</title>
<g id="a_edge3_Node000003_Node000004"><a xlink:title=" ">
<path fill="none" stroke="#63b8ff" d="M217.81,-9.5C232.09,-9.5 248.3,-9.5 262.5,-9.5"/>
<polygon fill="#63b8ff" stroke="#63b8ff" points="262.9,-13 272.9,-9.5 262.9,-6 262.9,-13"/>
</a>
</g>
</g>
</g>
</svg>
