<?xml version="1.0" encoding="UTF-8" standalone="no"?>
<!DOCTYPE svg PUBLIC "-//W3C//DTD SVG 1.1//EN"
 "http://www.w3.org/Graphics/SVG/1.1/DTD/svg11.dtd">
<!-- Generated by graphviz version 2.43.0 (0)
 -->
<!-- Title: ZeroFPRSolver&lt; DirectionT &gt; Pages: 1 -->
<svg width="294pt" height="798pt"
 viewBox="0.00 0.00 293.50 798.00" xmlns="http://www.w3.org/2000/svg" xmlns:xlink="http://www.w3.org/1999/xlink">
<g id="graph0" class="graph" transform="scale(1 1) rotate(0) translate(4 794)">
<title>ZeroFPRSolver&lt; DirectionT &gt;</title>
<!-- Node1 -->
<g id="Node000001" class="node">
<title>Node1</title>
<g id="a_Node000001"><a xlink:title="ZeroFPR solver for ALM.">
<polygon fill="#999999" stroke="transparent" points="229.5,-214 74.5,-214 74.5,0 229.5,0 229.5,-214"/>
<text text-anchor="start" x="80" y="-202" font-family="Helvetica,sans-Serif" font-size="10.00">ZeroFPRSolver&lt; DirectionT &gt;</text>
<text text-anchor="start" x="83.5" y="-187" font-family="Helvetica,sans-Serif" font-size="10.00">+</text>
<text text-anchor="start" x="101" y="-187" font-family="Helvetica,sans-Serif" font-size="10.00">direction</text>
<text text-anchor="start" x="83.5" y="-172" font-family="Helvetica,sans-Serif" font-size="10.00">+</text>
<text text-anchor="start" x="101" y="-172" font-family="Helvetica,sans-Serif" font-size="10.00">os</text>
<text text-anchor="start" x="86" y="-157" font-family="Helvetica,sans-Serif" font-size="10.00">&#45;</text>
<text text-anchor="start" x="101" y="-157" font-family="Helvetica,sans-Serif" font-size="10.00">progress_cb</text>
<text text-anchor="start" x="83.5" y="-142" font-family="Helvetica,sans-Serif" font-size="10.00">+</text>
<text text-anchor="start" x="101" y="-142" font-family="Helvetica,sans-Serif" font-size="10.00">ZeroFPRSolver()</text>
<text text-anchor="start" x="83.5" y="-127" font-family="Helvetica,sans-Serif" font-size="10.00">+</text>
<text text-anchor="start" x="101" y="-127" font-family="Helvetica,sans-Serif" font-size="10.00">ZeroFPRSolver()</text>
<text text-anchor="start" x="83.5" y="-112" font-family="Helvetica,sans-Serif" font-size="10.00">+</text>
<text text-anchor="start" x="101" y="-112" font-family="Helvetica,sans-Serif" font-size="10.00">ZeroFPRSolver()</text>
<text text-anchor="start" x="83.5" y="-97" font-family="Helvetica,sans-Serif" font-size="10.00">+</text>
<text text-anchor="start" x="101" y="-97" font-family="Helvetica,sans-Serif" font-size="10.00">operator()()</text>
<text text-anchor="start" x="83.5" y="-82" font-family="Helvetica,sans-Serif" font-size="10.00">+</text>
<text text-anchor="start" x="101" y="-82" font-family="Helvetica,sans-Serif" font-size="10.00">operator()()</text>
<text text-anchor="start" x="83.5" y="-67" font-family="Helvetica,sans-Serif" font-size="10.00">+</text>
<text text-anchor="start" x="101" y="-67" font-family="Helvetica,sans-Serif" font-size="10.00">operator()()</text>
<text text-anchor="start" x="83.5" y="-52" font-family="Helvetica,sans-Serif" font-size="10.00">+</text>
<text text-anchor="start" x="101" y="-52" font-family="Helvetica,sans-Serif" font-size="10.00">set_progress_callback()</text>
<text text-anchor="start" x="83.5" y="-37" font-family="Helvetica,sans-Serif" font-size="10.00">+</text>
<text text-anchor="start" x="101" y="-37" font-family="Helvetica,sans-Serif" font-size="10.00">get_name()</text>
<text text-anchor="start" x="83.5" y="-22" font-family="Helvetica,sans-Serif" font-size="10.00">+</text>
<text text-anchor="start" x="101" y="-22" font-family="Helvetica,sans-Serif" font-size="10.00">stop()</text>
<text text-anchor="start" x="83.5" y="-7" font-family="Helvetica,sans-Serif" font-size="10.00">+</text>
<text text-anchor="start" x="101" y="-7" font-family="Helvetica,sans-Serif" font-size="10.00">get_params()</text>
<polygon fill="#666666" stroke="#666666" points="75,-197 75,-197 230,-197 230,-197 75,-197"/>
<polygon fill="#666666" stroke="#666666" points="75,-152 75,-152 99,-152 99,-152 75,-152"/>
<polygon fill="#666666" stroke="#666666" points="99,-152 99,-152 230,-152 230,-152 99,-152"/>
<polygon fill="none" stroke="#666666" points="74.5,0 74.5,-214 229.5,-214 229.5,0 74.5,0"/>
</a>
</g>
</g>
<!-- Node2 -->
<g id="Node000002" class="node">
<title>Node2</title>
<g id="a_Node000002"><a xlink:href="namespacealpaqa.html#group__grp__Parameters" target="_top" xlink:title=" ">
<polygon fill="white" stroke="transparent" points="152,-638 0,-638 0,-261 152,-261 152,-638"/>
<text text-anchor="start" x="6.5" y="-625.5" font-family="Helvetica,sans-Serif" font-size="10.00">ZeroFPRParams&lt; config_t &gt;</text>
<text text-anchor="start" x="4" y="-610.5" font-family="Helvetica,sans-Serif" font-size="10.00">+</text>
<text text-anchor="start" x="17" y="-610.5" font-family="Helvetica,sans-Serif" font-size="10.00">max_iter</text>
<text text-anchor="start" x="4" y="-595.5" font-family="Helvetica,sans-Serif" font-size="10.00">+</text>
<text text-anchor="start" x="17" y="-595.5" font-family="Helvetica,sans-Serif" font-size="10.00">max_time</text>
<text text-anchor="start" x="4" y="-580.5" font-family="Helvetica,sans-Serif" font-size="10.00">+</text>
<text text-anchor="start" x="17" y="-580.5" font-family="Helvetica,sans-Serif" font-size="10.00">min_linesearch_coefficient</text>
<text text-anchor="start" x="4" y="-565.5" font-family="Helvetica,sans-Serif" font-size="10.00">+</text>
<text text-anchor="start" x="17" y="-565.5" font-family="Helvetica,sans-Serif" font-size="10.00">force_linesearch</text>
<text text-anchor="start" x="4" y="-550.5" font-family="Helvetica,sans-Serif" font-size="10.00">+</text>
<text text-anchor="start" x="17" y="-550.5" font-family="Helvetica,sans-Serif" font-size="10.00">linesearch_strictness</text>
<text text-anchor="start" x="17" y="-539.5" font-family="Helvetica,sans-Serif" font-size="10.00">_factor</text>
<text text-anchor="start" x="4" y="-524.5" font-family="Helvetica,sans-Serif" font-size="10.00">+</text>
<text text-anchor="start" x="17" y="-524.5" font-family="Helvetica,sans-Serif" font-size="10.00">L_min</text>
<text text-anchor="start" x="4" y="-509.5" font-family="Helvetica,sans-Serif" font-size="10.00">+</text>
<text text-anchor="start" x="17" y="-509.5" font-family="Helvetica,sans-Serif" font-size="10.00">L_max</text>
<text text-anchor="start" x="4" y="-494.5" font-family="Helvetica,sans-Serif" font-size="10.00">+</text>
<text text-anchor="start" x="17" y="-494.5" font-family="Helvetica,sans-Serif" font-size="10.00">stop_crit</text>
<text text-anchor="start" x="4" y="-479.5" font-family="Helvetica,sans-Serif" font-size="10.00">+</text>
<text text-anchor="start" x="17" y="-479.5" font-family="Helvetica,sans-Serif" font-size="10.00">max_no_progress</text>
<text text-anchor="start" x="4" y="-464.5" font-family="Helvetica,sans-Serif" font-size="10.00">+</text>
<text text-anchor="start" x="17" y="-464.5" font-family="Helvetica,sans-Serif" font-size="10.00">print_interval</text>
<text text-anchor="start" x="4" y="-449.5" font-family="Helvetica,sans-Serif" font-size="10.00">+</text>
<text text-anchor="start" x="17" y="-449.5" font-family="Helvetica,sans-Serif" font-size="10.00">print_precision</text>
<text text-anchor="start" x="4" y="-434.5" font-family="Helvetica,sans-Serif" font-size="10.00">+</text>
<text text-anchor="start" x="17" y="-434.5" font-family="Helvetica,sans-Serif" font-size="10.00">quadratic_upperbound</text>
<text text-anchor="start" x="17" y="-423.5" font-family="Helvetica,sans-Serif" font-size="10.00">_tolerance_factor</text>
<text text-anchor="start" x="4" y="-408.5" font-family="Helvetica,sans-Serif" font-size="10.00">+</text>
<text text-anchor="start" x="17" y="-408.5" font-family="Helvetica,sans-Serif" font-size="10.00">linesearch_tolerance</text>
<text text-anchor="start" x="17" y="-397.5" font-family="Helvetica,sans-Serif" font-size="10.00">_factor</text>
<text text-anchor="start" x="4" y="-382.5" font-family="Helvetica,sans-Serif" font-size="10.00">+</text>
<text text-anchor="start" x="17" y="-382.5" font-family="Helvetica,sans-Serif" font-size="10.00">update_direction_in</text>
<text text-anchor="start" x="17" y="-371.5" font-family="Helvetica,sans-Serif" font-size="10.00">_candidate</text>
<text text-anchor="start" x="4" y="-356.5" font-family="Helvetica,sans-Serif" font-size="10.00">+</text>
<text text-anchor="start" x="17" y="-356.5" font-family="Helvetica,sans-Serif" font-size="10.00">update_direction_in</text>
<text text-anchor="start" x="17" y="-345.5" font-family="Helvetica,sans-Serif" font-size="10.00">_accel</text>
<text text-anchor="start" x="4" y="-330.5" font-family="Helvetica,sans-Serif" font-size="10.00">+</text>
<text text-anchor="start" x="17" y="-330.5" font-family="Helvetica,sans-Serif" font-size="10.00">recompute_last_prox</text>
<text text-anchor="start" x="17" y="-319.5" font-family="Helvetica,sans-Serif" font-size="10.00">_step_after_stepsize</text>
<text text-anchor="start" x="17" y="-308.5" font-family="Helvetica,sans-Serif" font-size="10.00">_change</text>
<text text-anchor="start" x="4" y="-293.5" font-family="Helvetica,sans-Serif" font-size="10.00">+</text>
<text text-anchor="start" x="17" y="-293.5" font-family="Helvetica,sans-Serif" font-size="10.00">update_direction_from</text>
<text text-anchor="start" x="17" y="-282.5" font-family="Helvetica,sans-Serif" font-size="10.00">_prox_step</text>
<text text-anchor="start" x="74" y="-267.5" font-family="Helvetica,sans-Serif" font-size="10.00"> </text>
<polygon fill="#666666" stroke="#666666" points="0,-620.5 0,-620.5 152,-620.5 152,-620.5 0,-620.5"/>
<polygon fill="#666666" stroke="#666666" points="0,-277.5 0,-277.5 15,-277.5 15,-277.5 0,-277.5"/>
<polygon fill="#666666" stroke="#666666" points="15,-277.5 15,-277.5 152,-277.5 152,-277.5 15,-277.5"/>
<polygon fill="none" stroke="#666666" points="0,-261 0,-638 152,-638 152,-261 0,-261"/>
</a>
</g>
</g>
<!-- Node2&#45;&gt;Node1 -->
<g id="edge1_Node000001_Node000002" class="edge">
<title>Node2&#45;&gt;Node1</title>
<g id="a_edge1_Node000001_Node000002"><a xlink:title=" ">
<path fill="none" stroke="#63b8ff" d="M117.89,-260.82C120.49,-249.16 123.07,-237.61 125.58,-226.39"/>
<polygon fill="none" stroke="#63b8ff" points="125.65,-226.07 123.05,-219.34 128.26,-214.35 130.86,-221.08 125.65,-226.07"/>
</a>
</g>
<text text-anchor="middle" x="146" y="-235" font-family="Helvetica,sans-Serif" font-size="10.00" fill="grey"> &#45;params</text>
</g>
<!-- Node3 -->
<g id="Node000003" class="node">
<title>Node3</title>
<g id="a_Node000003"><a xlink:href="namespacealpaqa.html#group__grp__Parameters" target="_top" xlink:title=" ">
<polygon fill="white" stroke="transparent" points="142.5,-790 9.5,-790 9.5,-685 142.5,-685 142.5,-790"/>
<text text-anchor="start" x="15" y="-777.5" font-family="Helvetica,sans-Serif" font-size="10.00">LipschitzEstimateParams</text>
<text text-anchor="start" x="46" y="-766.5" font-family="Helvetica,sans-Serif" font-size="10.00">&lt; config_t &gt;</text>
<text text-anchor="start" x="30.5" y="-751.5" font-family="Helvetica,sans-Serif" font-size="10.00">+</text>
<text text-anchor="start" x="60" y="-751.5" font-family="Helvetica,sans-Serif" font-size="10.00">L_0</text>
<text text-anchor="start" x="30.5" y="-736.5" font-family="Helvetica,sans-Serif" font-size="10.00">+</text>
<text text-anchor="start" x="60" y="-736.5" font-family="Helvetica,sans-Serif" font-size="10.00">ε</text>
<text text-anchor="start" x="30.5" y="-721.5" font-family="Helvetica,sans-Serif" font-size="10.00">+</text>
<text text-anchor="start" x="60" y="-721.5" font-family="Helvetica,sans-Serif" font-size="10.00">δ</text>
<text text-anchor="start" x="30.5" y="-706.5" font-family="Helvetica,sans-Serif" font-size="10.00">+</text>
<text text-anchor="start" x="60" y="-706.5" font-family="Helvetica,sans-Serif" font-size="10.00">Lγ_factor</text>
<text text-anchor="start" x="74.5" y="-691.5" font-family="Helvetica,sans-Serif" font-size="10.00"> </text>
<polygon fill="#666666" stroke="#666666" points="10,-761.5 10,-761.5 143,-761.5 143,-761.5 10,-761.5"/>
<polygon fill="#666666" stroke="#666666" points="10,-701.5 10,-701.5 58,-701.5 58,-701.5 10,-701.5"/>
<polygon fill="#666666" stroke="#666666" points="58,-701.5 58,-701.5 143,-701.5 143,-701.5 58,-701.5"/>
<polygon fill="none" stroke="#666666" points="9.5,-685 9.5,-790 142.5,-790 142.5,-685 9.5,-685"/>
</a>
</g>
</g>
<!-- Node3&#45;&gt;Node2 -->
<g id="edge2_Node000002_Node000003" class="edge">
<title>Node3&#45;&gt;Node2</title>
<g id="a_edge2_Node000002_Node000003"><a xlink:title=" ">
<path fill="none" stroke="#63b8ff" d="M76,-684.71C76,-674.16 76,-662.47 76,-650.1"/>
<polygon fill="none" stroke="#63b8ff" points="76,-650.06 72,-644.06 76,-638.06 80,-644.06 76,-650.06"/>
</a>
</g>
<text text-anchor="middle" x="103.5" y="-659" font-family="Helvetica,sans-Serif" font-size="10.00" fill="grey"> +Lipschitz</text>
</g>
<!-- Node4 -->
<g id="Node000004" class="node">
<title>Node4</title>
<g id="a_Node000004"><a xlink:href="classalpaqa_1_1AtomicStopSignal.html" target="_top" xlink:title=" ">
<polygon fill="white" stroke="transparent" points="285.5,-519 170.5,-519 170.5,-380 285.5,-380 285.5,-519"/>
<text text-anchor="start" x="185" y="-506.5" font-family="Helvetica,sans-Serif" font-size="10.00">AtomicStopSignal</text>
<text text-anchor="start" x="177.5" y="-491.5" font-family="Helvetica,sans-Serif" font-size="10.00">&#45;</text>
<text text-anchor="start" x="188" y="-491.5" font-family="Helvetica,sans-Serif" font-size="10.00">stop_flag</text>
<text text-anchor="start" x="175" y="-476.5" font-family="Helvetica,sans-Serif" font-size="10.00">+</text>
<text text-anchor="start" x="188" y="-476.5" font-family="Helvetica,sans-Serif" font-size="10.00">AtomicStopSignal()</text>
<text text-anchor="start" x="175" y="-461.5" font-family="Helvetica,sans-Serif" font-size="10.00">+</text>
<text text-anchor="start" x="188" y="-461.5" font-family="Helvetica,sans-Serif" font-size="10.00">AtomicStopSignal()</text>
<text text-anchor="start" x="175" y="-446.5" font-family="Helvetica,sans-Serif" font-size="10.00">+</text>
<text text-anchor="start" x="188" y="-446.5" font-family="Helvetica,sans-Serif" font-size="10.00">operator=()</text>
<text text-anchor="start" x="175" y="-431.5" font-family="Helvetica,sans-Serif" font-size="10.00">+</text>
<text text-anchor="start" x="188" y="-431.5" font-family="Helvetica,sans-Serif" font-size="10.00">AtomicStopSignal()</text>
<text text-anchor="start" x="175" y="-416.5" font-family="Helvetica,sans-Serif" font-size="10.00">+</text>
<text text-anchor="start" x="188" y="-416.5" font-family="Helvetica,sans-Serif" font-size="10.00">operator=()</text>
<text text-anchor="start" x="175" y="-401.5" font-family="Helvetica,sans-Serif" font-size="10.00">+</text>
<text text-anchor="start" x="188" y="-401.5" font-family="Helvetica,sans-Serif" font-size="10.00">stop()</text>
<text text-anchor="start" x="175" y="-386.5" font-family="Helvetica,sans-Serif" font-size="10.00">+</text>
<text text-anchor="start" x="188" y="-386.5" font-family="Helvetica,sans-Serif" font-size="10.00">stop_requested()</text>
<polygon fill="#666666" stroke="#666666" points="171,-501.5 171,-501.5 286,-501.5 286,-501.5 171,-501.5"/>
<polygon fill="#666666" stroke="#666666" points="171,-486.5 171,-486.5 186,-486.5 186,-486.5 171,-486.5"/>
<polygon fill="#666666" stroke="#666666" points="186,-486.5 186,-486.5 286,-486.5 286,-486.5 186,-486.5"/>
<polygon fill="none" stroke="#666666" points="170.5,-380 170.5,-519 285.5,-519 285.5,-380 170.5,-380"/>
</a>
</g>
</g>
<!-- Node4&#45;&gt;Node1 -->
<g id="edge3_Node000001_Node000004" class="edge">
<title>Node4&#45;&gt;Node1</title>
<g id="a_edge3_Node000001_Node000004"><a xlink:title=" ">
<path fill="none" stroke="#63b8ff" d="M212.62,-379.59C202.78,-335.52 189.76,-277.19 178.31,-225.88"/>
<polygon fill="none" stroke="#63b8ff" points="178.28,-225.75 173.07,-220.76 175.67,-214.03 180.88,-219.02 178.28,-225.75"/>
</a>
</g>
<text text-anchor="middle" x="211.5" y="-235" font-family="Helvetica,sans-Serif" font-size="10.00" fill="grey"> &#45;stop_signal</text>
</g>
</g>
</svg>
