<?xml version="1.0" encoding="UTF-8" standalone="no"?>
<!DOCTYPE svg PUBLIC "-//W3C//DTD SVG 1.1//EN"
 "http://www.w3.org/Graphics/SVG/1.1/DTD/svg11.dtd">
<!-- Generated by graphviz version 2.43.0 (0)
 -->
<!-- Title: CasADiControlProblem Pages: 1 -->
<!--zoomable 259 -->

<svg id="main" version="1.1" xmlns="http://www.w3.org/2000/svg" xmlns:xlink="http://www.w3.org/1999/xlink" xml:space="preserve" onload="init(evt)">
<style type="text/css"><![CDATA[
.node, .edge {opacity: 0.7;}
.node.selected, .edge.selected {opacity: 1;}
.edge:hover path { stroke: red; }
.edge:hover polygon { stroke: red; fill: red; }
]]></style>

<defs>
  <circle id="rim" cx="0" cy="0" r="7"/>
  <circle id="rim2" cx="0" cy="0" r="3.5"/>
  <g id="zoomPlus">
    <use xlink:href="#rim" fill="#404040"><set attributeName="fill" to="#808080" begin="zoomplus.mouseover" end="zoomplus.mouseout"/></use>
    <path d="M-4,0h8M0,-4v8" fill="none" stroke="white" stroke-width="1.5" pointer-events="none"/>
  </g>
  <g id="zoomMin">
    <use xlink:href="#rim" fill="#404040"><set attributeName="fill" to="#808080" begin="zoomminus.mouseover" end="zoomminus.mouseout"/></use>
    <path d="M-4,0h8" fill="none" stroke="white" stroke-width="1.5" pointer-events="none"/>
  </g>
  <g id="arrowUp" transform="translate(30 24)">
    <use xlink:href="#rim"/>
    <path pointer-events="none" fill="none" stroke="white" stroke-width="1.5" d="M0,-3.0v7 M-2.5,-0.5L0,-3.0L2.5,-0.5"/>
  </g>
  <g id="arrowRight" transform="rotate(90) translate(36 -43)">
    <use xlink:href="#rim"/>
    <path pointer-events="none" fill="none" stroke="white" stroke-width="1.5" d="M0,-3.0v7 M-2.5,-0.5L0,-3.0L2.5,-0.5"/>
  </g>
  <g id="arrowDown" transform="rotate(180) translate(-30 -48)">
    <use xlink:href="#rim"/>
    <path pointer-events="none" fill="none" stroke="white" stroke-width="1.5" d="M0,-3.0v7 M-2.5,-0.5L0,-3.0L2.5,-0.5"/>
  </g>
  <g id="arrowLeft" transform="rotate(270) translate(-36 17)">
    <use xlink:href="#rim"/>
    <path pointer-events="none" fill="none" stroke="white" stroke-width="1.5" d="M0,-3.0v7 M-2.5,-0.5L0,-3.0L2.5,-0.5"/>
  </g>
  <g id="resetDef">
    <use xlink:href="#rim2" fill="#404040"><set attributeName="fill" to="#808080" begin="reset.mouseover" end="reset.mouseout"/></use>
  </g>
</defs>
<script type="application/ecmascript">
var viewWidth = 837;
var viewHeight = 259;
var sectionId = 'dynsection-1';
</script>
<script type="application/ecmascript" xlink:href="svg.min.js"/>
<svg id="graph" class="graph">
<g id="viewport">
<title>CasADiControlProblem</title>
<!-- Node1 -->
<g id="Node000001" class="node">
<title>Node1</title>
<g id="a_Node000001"><a xlink:title=" ">
<polygon fill="#999999" stroke="#666666" points="128,-129 0,-129 0,-110 128,-110 128,-129"/>
<text text-anchor="middle" x="64" y="-117" font-family="Helvetica,sans-Serif" font-size="10.00">CasADiControlProblem</text>
</a>
</g>
</g>
<!-- Node2 -->
<g id="Node000002" class="node">
<title>Node2</title>
<g id="a_Node000002"><a xlink:href="namespacealpaqa_1_1casadi.html#a89323cd224eb28c58950edc7c4bb3598" target="_top" xlink:title="Load the given CasADi function from the given DLL/SO file.">
<polygon fill="white" stroke="#666666" points="312,-226 178,-226 178,-207 312,-207 312,-226"/>
<text text-anchor="middle" x="245" y="-214" font-family="Helvetica,sans-Serif" font-size="10.00">alpaqa::casadi::external</text>
</a>
</g>
</g>
<!-- Node1&#45;&gt;Node2 -->
<g id="edge1_Node000001_Node000002" class="edge">
<title>Node1&#45;&gt;Node2</title>
<g id="a_edge1_Node000001_Node000002"><a xlink:title=" ">
<path fill="none" stroke="#63b8ff" d="M82.82,-129.16C114.31,-146.22 179.99,-181.81 217.05,-201.9"/>
<polygon fill="#63b8ff" stroke="#63b8ff" points="215.79,-205.2 226.25,-206.88 219.13,-199.04 215.79,-205.2"/>
</a>
</g>
</g>
<!-- Node4 -->
<g id="Node000004" class="node">
<title>Node4</title>
<g id="a_Node000004"><a xlink:href="structalpaqa_1_1casadi__loader_1_1CasADiControlFunctionsWithParam.html#a315acb62b6609d1fa6bbf298fcc1064b" target="_top" xlink:title=" ">
<polygon fill="white" stroke="#666666" points="326,-140 164,-140 164,-99 326,-99 326,-140"/>
<text text-anchor="start" x="172" y="-128" font-family="Helvetica,sans-Serif" font-size="10.00">alpaqa::casadi_loader</text>
<text text-anchor="start" x="172" y="-117" font-family="Helvetica,sans-Serif" font-size="10.00">::CasADiControlFunctionsWith</text>
<text text-anchor="middle" x="245" y="-106" font-family="Helvetica,sans-Serif" font-size="10.00">Param::load</text>
</a>
</g>
</g>
<!-- Node1&#45;&gt;Node4 -->
<g id="edge3_Node000001_Node000004" class="edge">
<title>Node1&#45;&gt;Node4</title>
<g id="a_edge3_Node000001_Node000004"><a xlink:title=" ">
<path fill="none" stroke="#63b8ff" d="M128.11,-119.5C136.43,-119.5 145.08,-119.5 153.75,-119.5"/>
<polygon fill="#63b8ff" stroke="#63b8ff" points="153.9,-123 163.9,-119.5 153.9,-116 153.9,-123"/>
</a>
</g>
</g>
<!-- Node10 -->
<g id="Node000010" class="node">
<title>Node10</title>
<g id="a_Node000010"><a xlink:href="classalpaqa_1_1CasADiControlProblem.html#a4f1c7c649deebd8f69fd65ebc8ec3a4a" target="_top" xlink:title="Load the numerical problem data (bounds and parameters) from a CSV file.">
<polygon fill="white" stroke="#666666" points="304.5,-62 185.5,-62 185.5,-43 304.5,-43 304.5,-62"/>
<text text-anchor="middle" x="245" y="-50" font-family="Helvetica,sans-Serif" font-size="10.00">load_numerical_data</text>
</a>
</g>
</g>
<!-- Node1&#45;&gt;Node10 -->
<g id="edge10_Node000001_Node000010" class="edge">
<title>Node1&#45;&gt;Node10</title>
<g id="a_edge10_Node000001_Node000010"><a xlink:title=" ">
<path fill="none" stroke="#63b8ff" d="M90.65,-109.9C121.62,-98.31 173.87,-78.75 208.65,-65.73"/>
<polygon fill="#63b8ff" stroke="#63b8ff" points="210.26,-68.87 218.4,-62.08 207.81,-62.31 210.26,-68.87"/>
</a>
</g>
</g>
<!-- Node3 -->
<g id="Node000003" class="node">
<title>Node3</title>
<g id="a_Node000003"><a xlink:href="namespacealpaqa_1_1util.html#add4ab2565a84fc50da616a2bb3a08cb1" target="_top" xlink:title="Load a DLL or SO file.">
<polygon fill="white" stroke="#666666" points="493,-251 377,-251 377,-232 493,-232 493,-251"/>
<text text-anchor="middle" x="435" y="-239" font-family="Helvetica,sans-Serif" font-size="10.00">alpaqa::util::load_lib</text>
</a>
</g>
</g>
<!-- Node2&#45;&gt;Node3 -->
<g id="edge2_Node000002_Node000003" class="edge">
<title>Node2&#45;&gt;Node3</title>
<g id="a_edge2_Node000002_Node000003"><a xlink:title=" ">
<path fill="none" stroke="#63b8ff" d="M312.02,-225.28C329.71,-227.63 348.85,-230.18 366.61,-232.54"/>
<polygon fill="#63b8ff" stroke="#63b8ff" points="366.51,-236.06 376.89,-233.91 367.44,-229.12 366.51,-236.06"/>
</a>
</g>
</g>
<!-- Node5 -->
<g id="Node000005" class="node">
<title>Node5</title>
<g id="a_Node000005"><a xlink:href="namespacealpaqa_1_1casadi__loader.html#a440de48c7f739b4216916e2aba75b266" target="_top" xlink:title=" ">
<polygon fill="white" stroke="#666666" points="496.5,-213.5 373.5,-213.5 373.5,-183.5 496.5,-183.5 496.5,-213.5"/>
<text text-anchor="start" x="381.5" y="-201.5" font-family="Helvetica,sans-Serif" font-size="10.00">alpaqa::casadi_loader</text>
<text text-anchor="middle" x="435" y="-190.5" font-family="Helvetica,sans-Serif" font-size="10.00">::dims</text>
</a>
</g>
</g>
<!-- Node4&#45;&gt;Node5 -->
<g id="edge4_Node000004_Node000005" class="edge">
<title>Node4&#45;&gt;Node5</title>
<g id="a_edge4_Node000004_Node000005"><a xlink:title=" ">
<path fill="none" stroke="#63b8ff" d="M286.27,-140.07C308.34,-150.97 336.36,-164.19 362,-174.5 366.69,-176.39 371.6,-178.25 376.55,-180.05"/>
<polygon fill="#63b8ff" stroke="#63b8ff" points="375.47,-183.38 386.07,-183.42 377.81,-176.78 375.47,-183.38"/>
</a>
</g>
</g>
<!-- Node6 -->
<g id="Node000006" class="node">
<title>Node6</title>
<g id="a_Node000006"><a xlink:href="classalpaqa_1_1casadi__loader_1_1CasADiFunctionEvaluator.html#ac82a9153f840c8894aee66550ccc72a4" target="_top" xlink:title=" ">
<polygon fill="white" stroke="#666666" points="508,-165 362,-165 362,-124 508,-124 508,-165"/>
<text text-anchor="start" x="370" y="-153" font-family="Helvetica,sans-Serif" font-size="10.00">alpaqa::casadi_loader</text>
<text text-anchor="start" x="370" y="-142" font-family="Helvetica,sans-Serif" font-size="10.00">::CasADiFunctionEvaluator</text>
<text text-anchor="middle" x="435" y="-131" font-family="Helvetica,sans-Serif" font-size="10.00">::validate_dimensions</text>
</a>
</g>
</g>
<!-- Node4&#45;&gt;Node6 -->
<g id="edge5_Node000004_Node000006" class="edge">
<title>Node4&#45;&gt;Node6</title>
<g id="a_edge5_Node000004_Node000006"><a xlink:title=" ">
<path fill="none" stroke="#63b8ff" d="M326,-130.14C334.55,-131.28 343.26,-132.43 351.83,-133.57"/>
<polygon fill="#63b8ff" stroke="#63b8ff" points="351.44,-137.05 361.81,-134.9 352.36,-130.11 351.44,-137.05"/>
</a>
</g>
</g>
<!-- Node7 -->
<g id="Node000007" class="node">
<title>Node7</title>
<g id="a_Node000007"><a xlink:href="namespacealpaqa_1_1casadi__loader.html#aff26ceb374addcf6ae66ee1e4658fcff" target="_top" xlink:title=" ">
<polygon fill="white" stroke="#666666" points="667,-88.5 544,-88.5 544,-58.5 667,-58.5 667,-88.5"/>
<text text-anchor="start" x="552" y="-76.5" font-family="Helvetica,sans-Serif" font-size="10.00">alpaqa::casadi_loader</text>
<text text-anchor="middle" x="605.5" y="-65.5" font-family="Helvetica,sans-Serif" font-size="10.00">::wrap_load</text>
</a>
</g>
</g>
<!-- Node4&#45;&gt;Node7 -->
<g id="edge6_Node000004_Node000007" class="edge">
<title>Node4&#45;&gt;Node7</title>
<g id="a_edge6_Node000004_Node000007"><a xlink:title=" ">
<path fill="none" stroke="#63b8ff" d="M326.01,-109.23C388.34,-101.24 474.04,-90.24 533.85,-82.57"/>
<polygon fill="#63b8ff" stroke="#63b8ff" points="534.49,-86.01 543.96,-81.27 533.6,-79.07 534.49,-86.01"/>
</a>
</g>
</g>
<!-- Node9 -->
<g id="Node000009" class="node">
<title>Node9</title>
<g id="a_Node000009"><a xlink:href="namespacealpaqa_1_1casadi__loader.html#a001ff3b26defa1201f68a339a2c5d768" target="_top" xlink:title=" ">
<polygon fill="white" stroke="#666666" points="496.5,-67.5 373.5,-67.5 373.5,-37.5 496.5,-37.5 496.5,-67.5"/>
<text text-anchor="start" x="381.5" y="-55.5" font-family="Helvetica,sans-Serif" font-size="10.00">alpaqa::casadi_loader</text>
<text text-anchor="middle" x="435" y="-44.5" font-family="Helvetica,sans-Serif" font-size="10.00">::wrapped_load</text>
</a>
</g>
</g>
<!-- Node4&#45;&gt;Node9 -->
<g id="edge8_Node000004_Node000009" class="edge">
<title>Node4&#45;&gt;Node9</title>
<g id="a_edge8_Node000004_Node000009"><a xlink:title=" ">
<path fill="none" stroke="#63b8ff" d="M303.68,-98.94C328.74,-90.01 357.87,-79.63 382.23,-70.95"/>
<polygon fill="#63b8ff" stroke="#63b8ff" points="383.41,-74.24 391.66,-67.59 381.06,-67.65 383.41,-74.24"/>
</a>
</g>
</g>
<!-- Node8 -->
<g id="Node000008" class="node">
<title>Node8</title>
<g id="a_Node000008"><a xlink:href="demangled-typename_8cpp.html#a994032931a27ca4de5eea3f786057b17" target="_top" xlink:title="Get the pretty name of the given type as a string.">
<polygon fill="white" stroke="#666666" points="829,-83 703,-83 703,-64 829,-64 829,-83"/>
<text text-anchor="middle" x="766" y="-71" font-family="Helvetica,sans-Serif" font-size="10.00">demangled_typename</text>
</a>
</g>
</g>
<!-- Node7&#45;&gt;Node8 -->
<g id="edge7_Node000007_Node000008" class="edge">
<title>Node7&#45;&gt;Node8</title>
<g id="a_edge7_Node000007_Node000008"><a xlink:title=" ">
<path fill="none" stroke="#63b8ff" d="M667.33,-73.5C675.58,-73.5 684.12,-73.5 692.55,-73.5"/>
<polygon fill="#63b8ff" stroke="#63b8ff" points="692.76,-77 702.76,-73.5 692.76,-70 692.76,-77"/>
</a>
</g>
</g>
<!-- Node9&#45;&gt;Node7 -->
<g id="edge9_Node000009_Node000007" class="edge">
<title>Node9&#45;&gt;Node7</title>
<g id="a_edge9_Node000009_Node000007"><a xlink:title=" ">
<path fill="none" stroke="#63b8ff" d="M496.83,-60.08C508.76,-61.57 521.37,-63.14 533.6,-64.66"/>
<polygon fill="#63b8ff" stroke="#63b8ff" points="533.4,-68.17 543.76,-65.93 534.27,-61.22 533.4,-68.17"/>
</a>
</g>
</g>
<!-- Node11 -->
<g id="Node000011" class="node">
<title>Node11</title>
<g id="a_Node000011"><a xlink:href="namespacealpaqa_1_1csv.html#a9e26a8f48527f00e7b73974c398c008a" target="_top" xlink:title=" ">
<polygon fill="white" stroke="#666666" points="496,-19 374,-19 374,0 496,0 496,-19"/>
<text text-anchor="middle" x="435" y="-7" font-family="Helvetica,sans-Serif" font-size="10.00">alpaqa::csv::read_row</text>
</a>
</g>
</g>
<!-- Node10&#45;&gt;Node11 -->
<g id="edge11_Node000010_Node000011" class="edge">
<title>Node10&#45;&gt;Node11</title>
<g id="a_edge11_Node000010_Node000011"><a xlink:title=" ">
<path fill="none" stroke="#63b8ff" d="M287.72,-42.96C315.71,-36.55 352.77,-28.08 382.58,-21.26"/>
<polygon fill="#63b8ff" stroke="#63b8ff" points="383.43,-24.66 392.39,-19.02 381.86,-17.83 383.43,-24.66"/>
</a>
</g>
</g>
</g>
</svg>

<g id="navigator" transform="translate(0 0)" fill="#404254">
  <rect fill="#f2f5e9" fill-opacity="0.5" stroke="#606060" stroke-width=".5" x="0" y="0" width="60" height="60"/>
  <use id="zoomplus" xlink:href="#zoomPlus" x="17" y="9" onmousedown="handleZoom(evt,'in')"/>
  <use id="zoomminus" xlink:href="#zoomMin" x="42" y="9" onmousedown="handleZoom(evt,'out')"/>
  <use id="reset" xlink:href="#resetDef" x="30" y="36" onmousedown="handleReset()"/>
   <use id="arrowup" xlink:href="#arrowUp" x="0" y="0" onmousedown="handlePan(0,-1)"/>
  <use id="arrowright" xlink:href="#arrowRight" x="0" y="0" onmousedown="handlePan(1,0)"/>
  <use id="arrowdown" xlink:href="#arrowDown" x="0" y="0" onmousedown="handlePan(0,1)"/>
  <use id="arrowleft" xlink:href="#arrowLeft" x="0" y="0" onmousedown="handlePan(-1,0)"/>
</g>
<svg viewBox="0 0 15 15" width="100%" height="30px" preserveAspectRatio="xMaxYMin meet">
 <g id="arrow_out" transform="scale(0.3 0.3)">
  <a xlink:href="classalpaqa_1_1CasADiControlProblem_a8e2b94a109c662591fb7d2e3a662bba1_cgraph_org.svg" target="_base">
   <rect id="button" ry="5" rx="5" y="6" x="6" height="38" width="38"
        fill="#f2f5e9" fill-opacity="0.5" stroke="#606060" stroke-width="1.0"/>
   <path id="arrow"
     d="M 11.500037,31.436501 C 11.940474,20.09759 22.043105,11.32322 32.158766,21.979434 L 37.068811,17.246167 C 37.068811,17.246167 37.088388,32 37.088388,32 L 22.160133,31.978069 C 22.160133,31.978069 26.997745,27.140456 26.997745,27.140456 C 18.528582,18.264221 13.291696,25.230495 11.500037,31.436501 z"
     style="fill:#404040;"/>
  </a>
 </g>
</svg>

<style type='text/css'>
<![CDATA[
[data-mouse-over-selected='false'] { opacity: 0.7; }
[data-mouse-over-selected='true']  { opacity: 1.0; }
]]>
</style>
<script type="application/ecmascript"><![CDATA[
document.addEventListener('DOMContentLoaded', (event) => {
  highlightEdges();
  highlightAdjacentNodes();
});
]]></script>
</svg>
