<?xml version="1.0" encoding="UTF-8" standalone="no"?>
<!DOCTYPE svg PUBLIC "-//W3C//DTD SVG 1.1//EN"
 "http://www.w3.org/Graphics/SVG/1.1/DTD/svg11.dtd">
<!-- Generated by graphviz version 2.43.0 (0)
 -->
<!-- Title: size_out Pages: 1 -->
<svg width="405pt" height="100pt"
 viewBox="0.00 0.00 405.00 99.50" xmlns="http://www.w3.org/2000/svg" xmlns:xlink="http://www.w3.org/1999/xlink">

<svg id="main" version="1.1" xmlns="http://www.w3.org/2000/svg" xmlns:xlink="http://www.w3.org/1999/xlink" xml:space="preserve" onload="init(evt)">
<style type="text/css"><![CDATA[
.node, .edge {opacity: 0.7;}
.node.selected, .edge.selected {opacity: 1;}
.edge:hover path { stroke: red; }
.edge:hover polygon { stroke: red; fill: red; }
]]></style>
<script type="application/ecmascript" xlink:href="svg.min.js"/>
<svg id="graph" class="graph">
<g id="graph0" class="graph" transform="scale(1 1) rotate(0) translate(4 95.5)">
<title>size_out</title>
<!-- Node1 -->
<g id="Node000001" class="node">
<title>Node1</title>
<g id="a_Node000001"><a xlink:title=" ">
<polygon fill="#999999" stroke="#666666" points="57,-40 0,-40 0,-21 57,-21 57,-40"/>
<text text-anchor="middle" x="28.5" y="-28" font-family="Helvetica,sans-Serif" font-size="10.00">size_out</text>
</a>
</g>
</g>
<!-- Node2 -->
<g id="Node000002" class="node">
<title>Node2</title>
<g id="a_Node000002"><a xlink:href="classalpaqa_1_1casadi_1_1Function_1_1Sparsity.html#a9439c38a6608062dd54ac3cb31427acd" target="_top" xlink:title=" ">
<polygon fill="white" stroke="#666666" points="227,-67.5 93,-67.5 93,-37.5 227,-37.5 227,-67.5"/>
<text text-anchor="start" x="101" y="-55.5" font-family="Helvetica,sans-Serif" font-size="10.00">alpaqa::casadi::Function</text>
<text text-anchor="middle" x="160" y="-44.5" font-family="Helvetica,sans-Serif" font-size="10.00">::Sparsity::size</text>
</a>
</g>
</g>
<!-- Node1&#45;&gt;Node2 -->
<g id="edge1_Node000001_Node000002" class="edge">
<title>Node1&#45;&gt;Node2</title>
<g id="a_edge1_Node000001_Node000002"><a xlink:title=" ">
<path fill="none" stroke="#63b8ff" d="M57.28,-35.22C65.03,-36.54 73.84,-38.03 82.96,-39.58"/>
<polygon fill="#63b8ff" stroke="#63b8ff" points="82.5,-43.05 92.95,-41.28 83.67,-36.15 82.5,-43.05"/>
</a>
</g>
</g>
<!-- Node5 -->
<g id="Node000005" class="node">
<title>Node5</title>
<g id="a_Node000005"><a xlink:href="classalpaqa_1_1casadi_1_1Function.html#abe94b952c81a47d500e401413ab3b6d2" target="_top" xlink:title=" ">
<polygon fill="white" stroke="#666666" points="198.5,-19 121.5,-19 121.5,0 198.5,0 198.5,-19"/>
<text text-anchor="middle" x="160" y="-7" font-family="Helvetica,sans-Serif" font-size="10.00">sparsity_out</text>
</a>
</g>
</g>
<!-- Node1&#45;&gt;Node5 -->
<g id="edge4_Node000001_Node000005" class="edge">
<title>Node1&#45;&gt;Node5</title>
<g id="a_edge4_Node000001_Node000005"><a xlink:title=" ">
<path fill="none" stroke="#63b8ff" d="M57.28,-25.99C73.08,-23.43 93.3,-20.15 111.55,-17.2"/>
<polygon fill="#63b8ff" stroke="#63b8ff" points="112.13,-20.65 121.44,-15.59 111.01,-13.74 112.13,-20.65"/>
</a>
</g>
</g>
<!-- Node3 -->
<g id="Node000003" class="node">
<title>Node3</title>
<g id="a_Node000003"><a xlink:href="classalpaqa_1_1casadi_1_1Function_1_1Sparsity.html#a1ab71d0404def2c8157558a36d4c53cb" target="_top" xlink:title=" ">
<polygon fill="white" stroke="#666666" points="397,-91.5 263,-91.5 263,-61.5 397,-61.5 397,-91.5"/>
<text text-anchor="start" x="271" y="-79.5" font-family="Helvetica,sans-Serif" font-size="10.00">alpaqa::casadi::Function</text>
<text text-anchor="middle" x="330" y="-68.5" font-family="Helvetica,sans-Serif" font-size="10.00">::Sparsity::size1</text>
</a>
</g>
</g>
<!-- Node2&#45;&gt;Node3 -->
<g id="edge2_Node000002_Node000003" class="edge">
<title>Node2&#45;&gt;Node3</title>
<g id="a_edge2_Node000002_Node000003"><a xlink:title=" ">
<path fill="none" stroke="#63b8ff" d="M227.4,-61.99C235.77,-63.18 244.39,-64.41 252.89,-65.63"/>
<polygon fill="#63b8ff" stroke="#63b8ff" points="252.41,-69.09 262.81,-67.04 253.4,-62.17 252.41,-69.09"/>
</a>
</g>
</g>
<!-- Node4 -->
<g id="Node000004" class="node">
<title>Node4</title>
<g id="a_Node000004"><a xlink:href="classalpaqa_1_1casadi_1_1Function_1_1Sparsity.html#ae91c96337dc0f4401b1948f8151dc001" target="_top" xlink:title=" ">
<polygon fill="white" stroke="#666666" points="397,-43.5 263,-43.5 263,-13.5 397,-13.5 397,-43.5"/>
<text text-anchor="start" x="271" y="-31.5" font-family="Helvetica,sans-Serif" font-size="10.00">alpaqa::casadi::Function</text>
<text text-anchor="middle" x="330" y="-20.5" font-family="Helvetica,sans-Serif" font-size="10.00">::Sparsity::size2</text>
</a>
</g>
</g>
<!-- Node2&#45;&gt;Node4 -->
<g id="edge3_Node000002_Node000004" class="edge">
<title>Node2&#45;&gt;Node4</title>
<g id="a_edge3_Node000002_Node000004"><a xlink:title=" ">
<path fill="none" stroke="#63b8ff" d="M227.4,-43.01C235.77,-41.82 244.39,-40.59 252.89,-39.37"/>
<polygon fill="#63b8ff" stroke="#63b8ff" points="253.4,-42.83 262.81,-37.96 252.41,-35.91 253.4,-42.83"/>
</a>
</g>
</g>
</g>
</svg>
</svg>

<style type='text/css'>
<![CDATA[
[data-mouse-over-selected='false'] { opacity: 0.7; }
[data-mouse-over-selected='true']  { opacity: 1.0; }
]]>
</style>
<script type="application/ecmascript"><![CDATA[
document.addEventListener('DOMContentLoaded', (event) => {
  highlightEdges();
  highlightAdjacentNodes();
});
]]></script>
</svg>
