<?xml version="1.0" encoding="UTF-8" standalone="no"?>
<!DOCTYPE svg PUBLIC "-//W3C//DTD SVG 1.1//EN"
 "http://www.w3.org/Graphics/SVG/1.1/DTD/svg11.dtd">
<!-- Generated by graphviz version 2.43.0 (0)
 -->
<!-- Title: src/interop/cutest/src/cutest&#45;loader.cpp Pages: 1 -->
<!--zoomable 346 -->

<svg id="main" version="1.1" xmlns="http://www.w3.org/2000/svg" xmlns:xlink="http://www.w3.org/1999/xlink" xml:space="preserve" onload="init(evt)">
<style type="text/css"><![CDATA[
.node, .edge {opacity: 0.7;}
.node.selected, .edge.selected {opacity: 1;}
.edge:hover path { stroke: red; }
.edge:hover polygon { stroke: red; fill: red; }
]]></style>

<defs>
  <circle id="rim" cx="0" cy="0" r="7"/>
  <circle id="rim2" cx="0" cy="0" r="3.5"/>
  <g id="zoomPlus">
    <use xlink:href="#rim" fill="#404040"><set attributeName="fill" to="#808080" begin="zoomplus.mouseover" end="zoomplus.mouseout"/></use>
    <path d="M-4,0h8M0,-4v8" fill="none" stroke="white" stroke-width="1.5" pointer-events="none"/>
  </g>
  <g id="zoomMin">
    <use xlink:href="#rim" fill="#404040"><set attributeName="fill" to="#808080" begin="zoomminus.mouseover" end="zoomminus.mouseout"/></use>
    <path d="M-4,0h8" fill="none" stroke="white" stroke-width="1.5" pointer-events="none"/>
  </g>
  <g id="arrowUp" transform="translate(30 24)">
    <use xlink:href="#rim"/>
    <path pointer-events="none" fill="none" stroke="white" stroke-width="1.5" d="M0,-3.0v7 M-2.5,-0.5L0,-3.0L2.5,-0.5"/>
  </g>
  <g id="arrowRight" transform="rotate(90) translate(36 -43)">
    <use xlink:href="#rim"/>
    <path pointer-events="none" fill="none" stroke="white" stroke-width="1.5" d="M0,-3.0v7 M-2.5,-0.5L0,-3.0L2.5,-0.5"/>
  </g>
  <g id="arrowDown" transform="rotate(180) translate(-30 -48)">
    <use xlink:href="#rim"/>
    <path pointer-events="none" fill="none" stroke="white" stroke-width="1.5" d="M0,-3.0v7 M-2.5,-0.5L0,-3.0L2.5,-0.5"/>
  </g>
  <g id="arrowLeft" transform="rotate(270) translate(-36 17)">
    <use xlink:href="#rim"/>
    <path pointer-events="none" fill="none" stroke="white" stroke-width="1.5" d="M0,-3.0v7 M-2.5,-0.5L0,-3.0L2.5,-0.5"/>
  </g>
  <g id="resetDef">
    <use xlink:href="#rim2" fill="#404040"><set attributeName="fill" to="#808080" begin="reset.mouseover" end="reset.mouseout"/></use>
  </g>
</defs>
<script type="application/ecmascript">
var viewWidth = 1535;
var viewHeight = 346;
var sectionId = 'dynsection-0';
</script>
<script type="application/ecmascript" xlink:href="svg.min.js"/>
<svg id="graph" class="graph">
<g id="viewport">
<title>src/interop/cutest/src/cutest&#45;loader.cpp</title>
<!-- Node1 -->
<g id="Node000001" class="node">
<title>Node1</title>
<g id="a_Node000001"><a xlink:title=" ">
<polygon fill="#999999" stroke="#666666" points="1141,-338 1020,-338 1020,-308 1141,-308 1141,-338"/>
<text text-anchor="start" x="1028" y="-326" font-family="Helvetica,sans-Serif" font-size="10.00">src/interop/cutest</text>
<text text-anchor="middle" x="1080.5" y="-315" font-family="Helvetica,sans-Serif" font-size="10.00">/src/cutest&#45;loader.cpp</text>
</a>
</g>
</g>
<!-- Node2 -->
<g id="Node000002" class="node">
<title>Node2</title>
<g id="a_Node000002"><a xlink:href="cutest-loader_8hpp.html" target="_top" xlink:title=" ">
<polygon fill="white" stroke="#666666" points="529.5,-272 413.5,-272 413.5,-242 529.5,-242 529.5,-272"/>
<text text-anchor="start" x="421.5" y="-260" font-family="Helvetica,sans-Serif" font-size="10.00">alpaqa/cutest/cutest</text>
<text text-anchor="middle" x="471.5" y="-249" font-family="Helvetica,sans-Serif" font-size="10.00">&#45;loader.hpp</text>
</a>
</g>
</g>
<!-- Node1&#45;&gt;Node2 -->
<g id="edge1_Node000001_Node000002" class="edge">
<title>Node1&#45;&gt;Node2</title>
<g id="a_edge1_Node000001_Node000002"><a xlink:title=" ">
<path fill="none" stroke="#63b8ff" d="M1019.88,-315.63C905.72,-303.63 659.59,-277.77 539.79,-265.18"/>
<polygon fill="#63b8ff" stroke="#63b8ff" points="539.95,-261.67 529.64,-264.11 539.22,-268.64 539.95,-261.67"/>
</a>
</g>
</g>
<!-- Node18 -->
<g id="Node000018" class="node">
<title>Node18</title>
<g id="a_Node000018"><a xlink:title=" ">
<polygon fill="#e0e0e0" stroke="#999999" points="1161,-85 1096,-85 1096,-66 1161,-66 1161,-85"/>
<text text-anchor="middle" x="1128.5" y="-73" font-family="Helvetica,sans-Serif" font-size="10.00">stdexcept</text>
</a>
</g>
</g>
<!-- Node1&#45;&gt;Node18 -->
<g id="edge52_Node000001_Node000018" class="edge">
<title>Node1&#45;&gt;Node18</title>
<g id="a_edge52_Node000001_Node000018"><a xlink:title=" ">
<path fill="none" stroke="#63b8ff" d="M1141.22,-320.42C1183.45,-316.28 1238.58,-304.38 1275.5,-272 1323.03,-230.31 1316.5,-202.07 1328.5,-140 1330.1,-131.71 1333.78,-127.59 1328.5,-121 1309.2,-96.94 1224.25,-85.05 1171.47,-79.89"/>
<polygon fill="#63b8ff" stroke="#63b8ff" points="1171.65,-76.39 1161.37,-78.95 1171,-83.36 1171.65,-76.39"/>
</a>
</g>
</g>
<!-- Node19 -->
<g id="Node000019" class="node">
<title>Node19</title>
<g id="a_Node000019"><a xlink:title=" ">
<polygon fill="#e0e0e0" stroke="#999999" points="147.5,-85 103.5,-85 103.5,-66 147.5,-66 147.5,-85"/>
<text text-anchor="middle" x="125.5" y="-73" font-family="Helvetica,sans-Serif" font-size="10.00">string</text>
</a>
</g>
</g>
<!-- Node1&#45;&gt;Node19 -->
<g id="edge53_Node000001_Node000019" class="edge">
<title>Node1&#45;&gt;Node19</title>
<g id="a_edge53_Node000001_Node000019"><a xlink:title=" ">
<path fill="none" stroke="#63b8ff" d="M1019.95,-321.02C901.18,-318.34 629.59,-308.39 404.5,-272 285.96,-252.83 227.64,-290.68 142.5,-206 113.25,-176.91 116.99,-123.76 121.6,-95.44"/>
<polygon fill="#63b8ff" stroke="#63b8ff" points="125.1,-95.75 123.47,-85.28 118.22,-94.48 125.1,-95.75"/>
</a>
</g>
</g>
<!-- Node21 -->
<g id="Node000021" class="node">
<title>Node21</title>
<g id="a_Node000021"><a xlink:href="sparsity_8hpp.html" target="_top" xlink:title=" ">
<polygon fill="white" stroke="#666666" points="703,-200.5 548,-200.5 548,-181.5 703,-181.5 703,-200.5"/>
<text text-anchor="middle" x="625.5" y="-188.5" font-family="Helvetica,sans-Serif" font-size="10.00">alpaqa/problem/sparsity.hpp</text>
</a>
</g>
</g>
<!-- Node1&#45;&gt;Node21 -->
<g id="edge40_Node000001_Node000021" class="edge">
<title>Node1&#45;&gt;Node21</title>
<g id="a_edge40_Node000001_Node000021"><a xlink:title=" ">
<path fill="none" stroke="#63b8ff" d="M1024.35,-307.9C986.22,-298.18 934.69,-284.76 889.5,-272 807.83,-248.95 712.75,-219.48 661.94,-203.52"/>
<polygon fill="#63b8ff" stroke="#63b8ff" points="662.97,-200.18 652.38,-200.52 660.87,-206.86 662.97,-200.18"/>
</a>
</g>
</g>
<!-- Node24 -->
<g id="Node000024" class="node">
<title>Node24</title>
<g id="a_Node000024"><a xlink:title=" ">
<polygon fill="#e0e0e0" stroke="#999999" points="1233.5,-140 1181.5,-140 1181.5,-121 1233.5,-121 1233.5,-140"/>
<text text-anchor="middle" x="1207.5" y="-128" font-family="Helvetica,sans-Serif" font-size="10.00">cassert</text>
</a>
</g>
</g>
<!-- Node1&#45;&gt;Node24 -->
<g id="edge48_Node000001_Node000024" class="edge">
<title>Node1&#45;&gt;Node24</title>
<g id="a_edge48_Node000001_Node000024"><a xlink:title=" ">
<path fill="none" stroke="#63b8ff" d="M1141.25,-318.72C1174.25,-313.46 1212.5,-300.96 1233.5,-272 1260.6,-234.64 1234.57,-177.37 1218.33,-148.86"/>
<polygon fill="#63b8ff" stroke="#63b8ff" points="1221.21,-146.87 1213.09,-140.06 1215.2,-150.44 1221.21,-146.87"/>
</a>
</g>
</g>
<!-- Node27 -->
<g id="Node000027" class="node">
<title>Node27</title>
<g id="a_Node000027"><a xlink:title=" ">
<polygon fill="#e0e0e0" stroke="#999999" points="1043.5,-140 985.5,-140 985.5,-121 1043.5,-121 1043.5,-140"/>
<text text-anchor="middle" x="1014.5" y="-128" font-family="Helvetica,sans-Serif" font-size="10.00">memory</text>
</a>
</g>
</g>
<!-- Node1&#45;&gt;Node27 -->
<g id="edge51_Node000001_Node000027" class="edge">
<title>Node1&#45;&gt;Node27</title>
<g id="a_edge51_Node000001_Node000027"><a xlink:title=" ">
<path fill="none" stroke="#63b8ff" d="M1057.2,-307.83C1028.42,-288.8 980.89,-251.99 961.5,-206 956.32,-193.71 955.87,-188.08 961.5,-176 967.33,-163.49 978.59,-153.25 989.25,-145.76"/>
<polygon fill="#63b8ff" stroke="#63b8ff" points="991.44,-148.51 997.92,-140.13 987.62,-142.64 991.44,-148.51"/>
</a>
</g>
</g>
<!-- Node28 -->
<g id="Node000028" class="node">
<title>Node28</title>
<g id="a_Node000028"><a xlink:href="dl-flags_8hpp.html" target="_top" xlink:title=" ">
<polygon fill="white" stroke="#666666" points="967.5,-140 839.5,-140 839.5,-121 967.5,-121 967.5,-140"/>
<text text-anchor="middle" x="903.5" y="-128" font-family="Helvetica,sans-Serif" font-size="10.00">alpaqa/util/dl&#45;flags.hpp</text>
</a>
</g>
</g>
<!-- Node1&#45;&gt;Node28 -->
<g id="edge41_Node000001_Node000028" class="edge">
<title>Node1&#45;&gt;Node28</title>
<g id="a_edge41_Node000001_Node000028"><a xlink:title=" ">
<path fill="none" stroke="#63b8ff" d="M1039.03,-307.93C1019.53,-299.75 997,-287.89 980.5,-272 943.55,-236.41 919.87,-179.18 909.52,-149.96"/>
<polygon fill="#63b8ff" stroke="#63b8ff" points="912.75,-148.57 906.21,-140.23 906.12,-150.83 912.75,-148.57"/>
</a>
</g>
</g>
<!-- Node30 -->
<g id="Node000030" class="node">
<title>Node30</title>
<g id="a_Node000030"><a xlink:href="cutest-errors_8hpp.html" target="_top" xlink:title=" ">
<polygon fill="white" stroke="#666666" points="1205.5,-206 1089.5,-206 1089.5,-176 1205.5,-176 1205.5,-206"/>
<text text-anchor="start" x="1097.5" y="-194" font-family="Helvetica,sans-Serif" font-size="10.00">alpaqa/cutest/cutest</text>
<text text-anchor="middle" x="1147.5" y="-183" font-family="Helvetica,sans-Serif" font-size="10.00">&#45;errors.hpp</text>
</a>
</g>
</g>
<!-- Node1&#45;&gt;Node30 -->
<g id="edge38_Node000001_Node000030" class="edge">
<title>Node1&#45;&gt;Node30</title>
<g id="a_edge38_Node000001_Node000030"><a xlink:title=" ">
<path fill="none" stroke="#63b8ff" d="M1081.59,-307.9C1083.37,-291.26 1087.95,-263.18 1099.5,-242 1105.32,-231.32 1114.03,-221.28 1122.43,-213.04"/>
<polygon fill="#63b8ff" stroke="#63b8ff" points="1125.05,-215.39 1129.98,-206.01 1120.27,-210.27 1125.05,-215.39"/>
</a>
</g>
</g>
<!-- Node31 -->
<g id="Node000031" class="node">
<title>Node31</title>
<g id="a_Node000031"><a xlink:href="dl_8hpp.html" target="_top" xlink:title=" ">
<polygon fill="white" stroke="#666666" points="1071,-200.5 970,-200.5 970,-181.5 1071,-181.5 1071,-200.5"/>
<text text-anchor="middle" x="1020.5" y="-188.5" font-family="Helvetica,sans-Serif" font-size="10.00">alpaqa/util/dl.hpp</text>
</a>
</g>
</g>
<!-- Node1&#45;&gt;Node31 -->
<g id="edge42_Node000001_Node000031" class="edge">
<title>Node1&#45;&gt;Node31</title>
<g id="a_edge42_Node000001_Node000031"><a xlink:title=" ">
<path fill="none" stroke="#63b8ff" d="M1073.96,-307.84C1062.97,-284.02 1040.8,-235.99 1028.75,-209.88"/>
<polygon fill="#63b8ff" stroke="#63b8ff" points="1031.91,-208.36 1024.54,-200.75 1025.55,-211.29 1031.91,-208.36"/>
</a>
</g>
</g>
<!-- Node32 -->
<g id="Node000032" class="node">
<title>Node32</title>
<g id="a_Node000032"><a xlink:title=" ">
<polygon fill="#e0e0e0" stroke="#999999" points="1319.5,-140 1251.5,-140 1251.5,-121 1319.5,-121 1319.5,-140"/>
<text text-anchor="middle" x="1285.5" y="-128" font-family="Helvetica,sans-Serif" font-size="10.00">filesystem</text>
</a>
</g>
</g>
<!-- Node1&#45;&gt;Node32 -->
<g id="edge49_Node000001_Node000032" class="edge">
<title>Node1&#45;&gt;Node32</title>
<g id="a_edge49_Node000001_Node000032"><a xlink:title=" ">
<path fill="none" stroke="#63b8ff" d="M1141.33,-319.29C1178.37,-314.42 1223.92,-302.11 1252.5,-272 1284.33,-238.47 1287.42,-180.29 1286.66,-150.41"/>
<polygon fill="#63b8ff" stroke="#63b8ff" points="1290.15,-149.97 1286.22,-140.13 1283.15,-150.27 1290.15,-149.97"/>
</a>
</g>
</g>
<!-- Node33 -->
<g id="Node000033" class="node">
<title>Node33</title>
<g id="a_Node000033"><a xlink:title=" ">
<polygon fill="#e0e0e0" stroke="#999999" points="1435.5,-266.5 1375.5,-266.5 1375.5,-247.5 1435.5,-247.5 1435.5,-266.5"/>
<text text-anchor="middle" x="1405.5" y="-254.5" font-family="Helvetica,sans-Serif" font-size="10.00">iostream</text>
</a>
</g>
</g>
<!-- Node1&#45;&gt;Node33 -->
<g id="edge50_Node000001_Node000033" class="edge">
<title>Node1&#45;&gt;Node33</title>
<g id="a_edge50_Node000001_Node000033"><a xlink:title=" ">
<path fill="none" stroke="#63b8ff" d="M1141.01,-313.6C1198.24,-305.09 1286.33,-290.56 1361.5,-272 1364.52,-271.26 1367.63,-270.42 1370.73,-269.53"/>
<polygon fill="#63b8ff" stroke="#63b8ff" points="1371.97,-272.81 1380.53,-266.57 1369.95,-266.11 1371.97,-272.81"/>
</a>
</g>
</g>
<!-- Node34 -->
<g id="Node000034" class="node">
<title>Node34</title>
<g id="a_Node000034"><a xlink:title=" ">
<polygon fill="#e0e0e0" stroke="#999999" points="1527,-266.5 1454,-266.5 1454,-247.5 1527,-247.5 1527,-266.5"/>
<text text-anchor="middle" x="1490.5" y="-254.5" font-family="Helvetica,sans-Serif" font-size="10.00">string_view</text>
</a>
</g>
</g>
<!-- Node1&#45;&gt;Node34 -->
<g id="edge54_Node000001_Node000034" class="edge">
<title>Node1&#45;&gt;Node34</title>
<g id="a_edge54_Node000001_Node000034"><a xlink:title=" ">
<path fill="none" stroke="#63b8ff" d="M1141.24,-316.64C1213.93,-309.53 1339.05,-295.14 1444.5,-272 1447.95,-271.24 1451.51,-270.36 1455.06,-269.4"/>
<polygon fill="#63b8ff" stroke="#63b8ff" points="1456.25,-272.7 1464.9,-266.58 1454.32,-265.97 1456.25,-272.7"/>
</a>
</g>
</g>
<!-- Node35 -->
<g id="Node000035" class="node">
<title>Node35</title>
<g id="a_Node000035"><a xlink:href="cutest-functions_8hpp.html" target="_top" xlink:title=" ">
<polygon fill="white" stroke="#666666" points="1224.5,-266.5 1108.5,-266.5 1108.5,-247.5 1224.5,-247.5 1224.5,-266.5"/>
<text text-anchor="middle" x="1166.5" y="-254.5" font-family="Helvetica,sans-Serif" font-size="10.00">cutest&#45;functions.hpp</text>
</a>
</g>
</g>
<!-- Node1&#45;&gt;Node35 -->
<g id="edge55_Node000001_Node000035" class="edge">
<title>Node1&#45;&gt;Node35</title>
<g id="a_edge55_Node000001_Node000035"><a xlink:title=" ">
<path fill="none" stroke="#63b8ff" d="M1099.59,-307.8C1113.52,-297.43 1132.36,-283.4 1146.5,-272.88"/>
<polygon fill="#63b8ff" stroke="#63b8ff" points="1148.68,-275.62 1154.62,-266.84 1144.5,-270.01 1148.68,-275.62"/>
</a>
</g>
</g>
<!-- Node3 -->
<g id="Node000003" class="node">
<title>Node3</title>
<g id="a_Node000003"><a xlink:href="config_8hpp.html" target="_top" xlink:title=" ">
<polygon fill="white" stroke="#666666" points="386,-85 251,-85 251,-66 386,-66 386,-85"/>
<text text-anchor="middle" x="318.5" y="-73" font-family="Helvetica,sans-Serif" font-size="10.00">alpaqa/config/config.hpp</text>
</a>
</g>
</g>
<!-- Node2&#45;&gt;Node3 -->
<g id="edge2_Node000002_Node000003" class="edge">
<title>Node2&#45;&gt;Node3</title>
<g id="a_edge2_Node000002_Node000003"><a xlink:title=" ">
<path fill="none" stroke="#63b8ff" d="M413.23,-253.57C339.98,-249.23 220.21,-237.41 190.5,-206 164.42,-178.44 160.23,-151.72 182.5,-121 192.55,-107.13 231.23,-95.29 264.78,-87.32"/>
<polygon fill="#63b8ff" stroke="#63b8ff" points="265.58,-90.73 274.54,-85.08 264.01,-83.91 265.58,-90.73"/>
</a>
</g>
</g>
<!-- Node10 -->
<g id="Node000010" class="node">
<title>Node10</title>
<g id="a_Node000010"><a xlink:title=" ">
<polygon fill="#e0e0e0" stroke="#999999" points="329.5,-206 199.5,-206 199.5,-176 329.5,-176 329.5,-206"/>
<text text-anchor="start" x="207.5" y="-194" font-family="Helvetica,sans-Serif" font-size="10.00">alpaqa/cutest&#45;interface</text>
<text text-anchor="middle" x="264.5" y="-183" font-family="Helvetica,sans-Serif" font-size="10.00">&#45;export.h</text>
</a>
</g>
</g>
<!-- Node2&#45;&gt;Node10 -->
<g id="edge9_Node000002_Node000010" class="edge">
<title>Node2&#45;&gt;Node10</title>
<g id="a_edge9_Node000002_Node000010"><a xlink:title=" ">
<path fill="none" stroke="#63b8ff" d="M426.07,-241.95C394.66,-232.24 352.7,-219.27 319.41,-208.98"/>
<polygon fill="#63b8ff" stroke="#63b8ff" points="320.41,-205.62 309.82,-206.01 318.34,-212.31 320.41,-205.62"/>
</a>
</g>
</g>
<!-- Node11 -->
<g id="Node000011" class="node">
<title>Node11</title>
<g id="a_Node000011"><a xlink:href="box-constr-problem_8hpp.html" target="_top" xlink:title=" ">
<polygon fill="white" stroke="#666666" points="529.5,-206 413.5,-206 413.5,-176 529.5,-176 529.5,-206"/>
<text text-anchor="start" x="421.5" y="-194" font-family="Helvetica,sans-Serif" font-size="10.00">alpaqa/problem/box</text>
<text text-anchor="middle" x="471.5" y="-183" font-family="Helvetica,sans-Serif" font-size="10.00">&#45;constr&#45;problem.hpp</text>
</a>
</g>
</g>
<!-- Node2&#45;&gt;Node11 -->
<g id="edge10_Node000002_Node000011" class="edge">
<title>Node2&#45;&gt;Node11</title>
<g id="a_edge10_Node000002_Node000011"><a xlink:title=" ">
<path fill="none" stroke="#63b8ff" d="M471.5,-241.8C471.5,-234.34 471.5,-224.99 471.5,-216.41"/>
<polygon fill="#63b8ff" stroke="#63b8ff" points="475,-216.16 471.5,-206.16 468,-216.16 475,-216.16"/>
</a>
</g>
</g>
<!-- Node2&#45;&gt;Node19 -->
<g id="edge37_Node000002_Node000019" class="edge">
<title>Node2&#45;&gt;Node19</title>
<g id="a_edge37_Node000002_Node000019"><a xlink:title=" ">
<path fill="none" stroke="#63b8ff" d="M413.43,-253.51C335.72,-249.02 203.5,-236.95 167.5,-206 134.73,-177.83 127.35,-123.86 125.8,-95.29"/>
<polygon fill="#63b8ff" stroke="#63b8ff" points="129.29,-94.94 125.44,-85.07 122.3,-95.19 129.29,-94.94"/>
</a>
</g>
</g>
<!-- Node2&#45;&gt;Node21 -->
<g id="edge25_Node000002_Node000021" class="edge">
<title>Node2&#45;&gt;Node21</title>
<g id="a_edge25_Node000002_Node000021"><a xlink:title=" ">
<path fill="none" stroke="#63b8ff" d="M505.3,-241.95C532.3,-230.73 569.8,-215.15 595.69,-204.39"/>
<polygon fill="#63b8ff" stroke="#63b8ff" points="597.11,-207.59 605.01,-200.52 594.43,-201.12 597.11,-207.59"/>
</a>
</g>
</g>
<!-- Node26 -->
<g id="Node000026" class="node">
<title>Node26</title>
<g id="a_Node000026"><a xlink:href="copyable__unique__ptr_8hpp.html" target="_top" xlink:title=" ">
<polygon fill="white" stroke="#666666" points="875.5,-206 759.5,-206 759.5,-176 875.5,-176 875.5,-206"/>
<text text-anchor="start" x="767.5" y="-194" font-family="Helvetica,sans-Serif" font-size="10.00">alpaqa/util/copyable</text>
<text text-anchor="middle" x="817.5" y="-183" font-family="Helvetica,sans-Serif" font-size="10.00">_unique_ptr.hpp</text>
</a>
</g>
</g>
<!-- Node2&#45;&gt;Node26 -->
<g id="edge32_Node000002_Node000026" class="edge">
<title>Node2&#45;&gt;Node26</title>
<g id="a_edge32_Node000002_Node000026"><a xlink:title=" ">
<path fill="none" stroke="#63b8ff" d="M529.53,-245.61C585.02,-235.63 671.01,-220.04 745.5,-206 746.77,-205.76 748.05,-205.52 749.34,-205.28"/>
<polygon fill="#63b8ff" stroke="#63b8ff" points="750.18,-208.68 759.35,-203.37 748.87,-201.8 750.18,-208.68"/>
</a>
</g>
</g>
<!-- Node2&#45;&gt;Node28 -->
<g id="edge34_Node000002_Node000028" class="edge">
<title>Node2&#45;&gt;Node28</title>
<g id="a_edge34_Node000002_Node000028"><a xlink:title=" ">
<path fill="none" stroke="#63b8ff" d="M529.53,-251.26C579.61,-245.48 652.9,-232.91 711.5,-206 731.37,-196.87 731,-185.89 750.5,-176 781.2,-160.43 818.2,-149.48 848.13,-142.34"/>
<polygon fill="#63b8ff" stroke="#63b8ff" points="849.03,-145.73 857.99,-140.07 847.46,-138.91 849.03,-145.73"/>
</a>
</g>
</g>
<!-- Node29 -->
<g id="Node000029" class="node">
<title>Node29</title>
<g id="a_Node000029"><a xlink:title=" ">
<polygon fill="#e0e0e0" stroke="#999999" points="395.5,-200.5 347.5,-200.5 347.5,-181.5 395.5,-181.5 395.5,-200.5"/>
<text text-anchor="middle" x="371.5" y="-188.5" font-family="Helvetica,sans-Serif" font-size="10.00">iosfwd</text>
</a>
</g>
</g>
<!-- Node2&#45;&gt;Node29 -->
<g id="edge36_Node000002_Node000029" class="edge">
<title>Node2&#45;&gt;Node29</title>
<g id="a_edge36_Node000002_Node000029"><a xlink:title=" ">
<path fill="none" stroke="#63b8ff" d="M449.31,-241.8C432.7,-231.17 410.1,-216.7 393.53,-206.1"/>
<polygon fill="#63b8ff" stroke="#63b8ff" points="395.34,-203.1 385.03,-200.66 391.56,-209 395.34,-203.1"/>
</a>
</g>
</g>
<!-- Node4 -->
<g id="Node000004" class="node">
<title>Node4</title>
<g id="a_Node000004"><a xlink:href="quadmath-print_8hpp.html" target="_top" xlink:title=" ">
<polygon fill="white" stroke="#666666" points="208,-30 87,-30 87,0 208,0 208,-30"/>
<text text-anchor="start" x="95" y="-18" font-family="Helvetica,sans-Serif" font-size="10.00">alpaqa/util/quadmath</text>
<text text-anchor="middle" x="147.5" y="-7" font-family="Helvetica,sans-Serif" font-size="10.00">/quadmath&#45;print.hpp</text>
</a>
</g>
</g>
<!-- Node3&#45;&gt;Node4 -->
<g id="edge3_Node000003_Node000004" class="edge">
<title>Node3&#45;&gt;Node4</title>
<g id="a_edge3_Node000003_Node000004"><a xlink:title=" ">
<path fill="none" stroke="#63b8ff" d="M293.64,-65.99C268.7,-57.46 229.6,-44.09 198.11,-33.32"/>
<polygon fill="#63b8ff" stroke="#63b8ff" points="199.21,-29.99 188.61,-30.06 196.94,-36.61 199.21,-29.99"/>
</a>
</g>
</g>
<!-- Node5 -->
<g id="Node000005" class="node">
<title>Node5</title>
<g id="a_Node000005"><a xlink:href="quadmath_8hpp.html" target="_top" xlink:title=" ">
<polygon fill="white" stroke="#666666" points="574,-30 453,-30 453,0 574,0 574,-30"/>
<text text-anchor="start" x="461" y="-18" font-family="Helvetica,sans-Serif" font-size="10.00">alpaqa/util/quadmath</text>
<text text-anchor="middle" x="513.5" y="-7" font-family="Helvetica,sans-Serif" font-size="10.00">/quadmath.hpp</text>
</a>
</g>
</g>
<!-- Node3&#45;&gt;Node5 -->
<g id="edge4_Node000003_Node000005" class="edge">
<title>Node3&#45;&gt;Node5</title>
<g id="a_edge4_Node000003_Node000005"><a xlink:title=" ">
<path fill="none" stroke="#63b8ff" d="M346.85,-65.99C375.53,-57.39 420.65,-43.86 456.71,-33.04"/>
<polygon fill="#63b8ff" stroke="#63b8ff" points="458.05,-36.29 466.62,-30.06 456.04,-29.59 458.05,-36.29"/>
</a>
</g>
</g>
<!-- Node6 -->
<g id="Node000006" class="node">
<title>Node6</title>
<g id="a_Node000006"><a xlink:title=" ">
<polygon fill="#e0e0e0" stroke="#999999" points="348,-24.5 289,-24.5 289,-5.5 348,-5.5 348,-24.5"/>
<text text-anchor="middle" x="318.5" y="-12.5" font-family="Helvetica,sans-Serif" font-size="10.00">complex</text>
</a>
</g>
</g>
<!-- Node3&#45;&gt;Node6 -->
<g id="edge5_Node000003_Node000006" class="edge">
<title>Node3&#45;&gt;Node6</title>
<g id="a_edge5_Node000003_Node000006"><a xlink:title=" ">
<path fill="none" stroke="#63b8ff" d="M318.5,-65.87C318.5,-57.75 318.5,-45.31 318.5,-34.89"/>
<polygon fill="#63b8ff" stroke="#63b8ff" points="322,-34.67 318.5,-24.67 315,-34.67 322,-34.67"/>
</a>
</g>
</g>
<!-- Node7 -->
<g id="Node000007" class="node">
<title>Node7</title>
<g id="a_Node000007"><a xlink:title=" ">
<polygon fill="#e0e0e0" stroke="#999999" points="270.5,-24.5 226.5,-24.5 226.5,-5.5 270.5,-5.5 270.5,-24.5"/>
<text text-anchor="middle" x="248.5" y="-12.5" font-family="Helvetica,sans-Serif" font-size="10.00">limits</text>
</a>
</g>
</g>
<!-- Node3&#45;&gt;Node7 -->
<g id="edge6_Node000003_Node000007" class="edge">
<title>Node3&#45;&gt;Node7</title>
<g id="a_edge6_Node000003_Node000007"><a xlink:title=" ">
<path fill="none" stroke="#63b8ff" d="M308.17,-65.87C297.31,-56.8 280.01,-42.34 266.83,-31.32"/>
<polygon fill="#63b8ff" stroke="#63b8ff" points="268.79,-28.39 258.87,-24.67 264.3,-33.77 268.79,-28.39"/>
</a>
</g>
</g>
<!-- Node8 -->
<g id="Node000008" class="node">
<title>Node8</title>
<g id="a_Node000008"><a xlink:title=" ">
<polygon fill="#e0e0e0" stroke="#999999" points="435,-24.5 366,-24.5 366,-5.5 435,-5.5 435,-24.5"/>
<text text-anchor="middle" x="400.5" y="-12.5" font-family="Helvetica,sans-Serif" font-size="10.00">type_traits</text>
</a>
</g>
</g>
<!-- Node3&#45;&gt;Node8 -->
<g id="edge7_Node000003_Node000008" class="edge">
<title>Node3&#45;&gt;Node8</title>
<g id="a_edge7_Node000003_Node000008"><a xlink:title=" ">
<path fill="none" stroke="#63b8ff" d="M330.6,-65.87C343.56,-56.62 364.36,-41.78 379.9,-30.69"/>
<polygon fill="#63b8ff" stroke="#63b8ff" points="382.24,-33.32 388.35,-24.67 378.18,-27.63 382.24,-33.32"/>
</a>
</g>
</g>
<!-- Node9 -->
<g id="Node000009" class="node">
<title>Node9</title>
<g id="a_Node000009"><a xlink:title=" ">
<polygon fill="#e0e0e0" stroke="#999999" points="69,-24.5 0,-24.5 0,-5.5 69,-5.5 69,-24.5"/>
<text text-anchor="middle" x="34.5" y="-12.5" font-family="Helvetica,sans-Serif" font-size="10.00">Eigen/Core</text>
</a>
</g>
</g>
<!-- Node3&#45;&gt;Node9 -->
<g id="edge8_Node000003_Node000009" class="edge">
<title>Node3&#45;&gt;Node9</title>
<g id="a_edge8_Node000003_Node000009"><a xlink:title=" ">
<path fill="none" stroke="#63b8ff" d="M260.08,-65.93C210.99,-58.2 139.15,-45.66 77.5,-30 74.55,-29.25 71.51,-28.41 68.47,-27.52"/>
<polygon fill="#63b8ff" stroke="#63b8ff" points="69.48,-24.17 58.89,-24.56 67.42,-30.85 69.48,-24.17"/>
</a>
</g>
</g>
<!-- Node12 -->
<g id="Node000012" class="node">
<title>Node12</title>
<g id="a_Node000012"><a xlink:href="box_8hpp.html" target="_top" xlink:title=" ">
<polygon fill="white" stroke="#666666" points="551,-140 416,-140 416,-121 551,-121 551,-140"/>
<text text-anchor="middle" x="483.5" y="-128" font-family="Helvetica,sans-Serif" font-size="10.00">alpaqa/problem/box.hpp</text>
</a>
</g>
</g>
<!-- Node11&#45;&gt;Node12 -->
<g id="edge11_Node000011_Node000012" class="edge">
<title>Node11&#45;&gt;Node12</title>
<g id="a_edge11_Node000011_Node000012"><a xlink:title=" ">
<path fill="none" stroke="#63b8ff" d="M474.4,-175.84C475.99,-168.13 477.96,-158.49 479.67,-150.17"/>
<polygon fill="#63b8ff" stroke="#63b8ff" points="483.12,-150.77 481.7,-140.27 476.26,-149.36 483.12,-150.77"/>
</a>
</g>
</g>
<!-- Node16 -->
<g id="Node000016" class="node">
<title>Node16</title>
<g id="a_Node000016"><a xlink:href="check-dim_8hpp.html" target="_top" xlink:title=" ">
<polygon fill="white" stroke="#666666" points="335,-140 192,-140 192,-121 335,-121 335,-140"/>
<text text-anchor="middle" x="263.5" y="-128" font-family="Helvetica,sans-Serif" font-size="10.00">alpaqa/util/check&#45;dim.hpp</text>
</a>
</g>
</g>
<!-- Node11&#45;&gt;Node16 -->
<g id="edge19_Node000011_Node000016" class="edge">
<title>Node11&#45;&gt;Node16</title>
<g id="a_edge19_Node000011_Node000016"><a xlink:title=" ">
<path fill="none" stroke="#63b8ff" d="M421.68,-175.99C385.63,-165.85 337.52,-152.32 303.87,-142.85"/>
<polygon fill="#63b8ff" stroke="#63b8ff" points="304.49,-139.39 293.91,-140.05 302.59,-146.13 304.49,-139.39"/>
</a>
</g>
</g>
<!-- Node20 -->
<g id="Node000020" class="node">
<title>Node20</title>
<g id="a_Node000020"><a xlink:title=" ">
<polygon fill="#e0e0e0" stroke="#999999" points="398,-140 353,-140 353,-121 398,-121 398,-140"/>
<text text-anchor="middle" x="375.5" y="-128" font-family="Helvetica,sans-Serif" font-size="10.00">utility</text>
</a>
</g>
</g>
<!-- Node11&#45;&gt;Node20 -->
<g id="edge24_Node000011_Node000020" class="edge">
<title>Node11&#45;&gt;Node20</title>
<g id="a_edge24_Node000011_Node000020"><a xlink:title=" ">
<path fill="none" stroke="#63b8ff" d="M448.26,-175.84C433.1,-166.6 413.39,-154.59 398.31,-145.4"/>
<polygon fill="#63b8ff" stroke="#63b8ff" points="399.96,-142.31 389.6,-140.09 396.32,-148.29 399.96,-142.31"/>
</a>
</g>
</g>
<!-- Node12&#45;&gt;Node3 -->
<g id="edge12_Node000012_Node000003" class="edge">
<title>Node12&#45;&gt;Node3</title>
<g id="a_edge12_Node000012_Node000003"><a xlink:title=" ">
<path fill="none" stroke="#63b8ff" d="M456.99,-120.98C429.29,-112.09 385.64,-98.07 354.76,-88.15"/>
<polygon fill="#63b8ff" stroke="#63b8ff" points="355.81,-84.81 345.22,-85.08 353.67,-91.47 355.81,-84.81"/>
</a>
</g>
</g>
<!-- Node13 -->
<g id="Node000013" class="node">
<title>Node13</title>
<g id="a_Node000013"><a xlink:href="float_8hpp.html" target="_top" xlink:title=" ">
<polygon fill="white" stroke="#666666" points="555.5,-85 441.5,-85 441.5,-66 555.5,-66 555.5,-85"/>
<text text-anchor="middle" x="498.5" y="-73" font-family="Helvetica,sans-Serif" font-size="10.00">alpaqa/util/float.hpp</text>
</a>
</g>
</g>
<!-- Node12&#45;&gt;Node13 -->
<g id="edge13_Node000012_Node000013" class="edge">
<title>Node12&#45;&gt;Node13</title>
<g id="a_edge13_Node000012_Node000013"><a xlink:title=" ">
<path fill="none" stroke="#63b8ff" d="M485.98,-120.75C487.96,-113.72 490.82,-103.62 493.31,-94.84"/>
<polygon fill="#63b8ff" stroke="#63b8ff" points="496.71,-95.66 496.07,-85.09 489.98,-93.76 496.71,-95.66"/>
</a>
</g>
</g>
<!-- Node13&#45;&gt;Node5 -->
<g id="edge14_Node000013_Node000005" class="edge">
<title>Node13&#45;&gt;Node5</title>
<g id="a_edge14_Node000013_Node000005"><a xlink:title=" ">
<path fill="none" stroke="#63b8ff" d="M500.71,-65.87C502.47,-59.03 505,-49.14 507.35,-39.97"/>
<polygon fill="#63b8ff" stroke="#63b8ff" points="510.79,-40.67 509.88,-30.11 504.01,-38.93 510.79,-40.67"/>
</a>
</g>
</g>
<!-- Node13&#45;&gt;Node6 -->
<g id="edge16_Node000013_Node000006" class="edge">
<title>Node13&#45;&gt;Node6</title>
<g id="a_edge16_Node000013_Node000006"><a xlink:title=" ">
<path fill="none" stroke="#63b8ff" d="M469.81,-65.96C441.03,-57.29 395.51,-43.29 356.5,-30 354.65,-29.37 352.76,-28.71 350.85,-28.04"/>
<polygon fill="#63b8ff" stroke="#63b8ff" points="351.94,-24.71 341.34,-24.62 349.57,-31.3 351.94,-24.71"/>
</a>
</g>
</g>
<!-- Node13&#45;&gt;Node8 -->
<g id="edge18_Node000013_Node000008" class="edge">
<title>Node13&#45;&gt;Node8</title>
<g id="a_edge18_Node000013_Node000008"><a xlink:title=" ">
<path fill="none" stroke="#63b8ff" d="M484.04,-65.87C468.19,-56.41 442.53,-41.09 423.82,-29.92"/>
<polygon fill="#63b8ff" stroke="#63b8ff" points="425.4,-26.79 415.02,-24.67 421.81,-32.8 425.4,-26.79"/>
</a>
</g>
</g>
<!-- Node14 -->
<g id="Node000014" class="node">
<title>Node14</title>
<g id="a_Node000014"><a xlink:title=" ">
<polygon fill="#e0e0e0" stroke="#999999" points="639,-24.5 592,-24.5 592,-5.5 639,-5.5 639,-24.5"/>
<text text-anchor="middle" x="615.5" y="-12.5" font-family="Helvetica,sans-Serif" font-size="10.00">cmath</text>
</a>
</g>
</g>
<!-- Node13&#45;&gt;Node14 -->
<g id="edge15_Node000013_Node000014" class="edge">
<title>Node13&#45;&gt;Node14</title>
<g id="a_edge15_Node000013_Node000014"><a xlink:title=" ">
<path fill="none" stroke="#63b8ff" d="M515.51,-65.99C534.92,-56.29 566.89,-40.31 589.44,-29.03"/>
<polygon fill="#63b8ff" stroke="#63b8ff" points="591.09,-32.12 598.47,-24.52 587.96,-25.86 591.09,-32.12"/>
</a>
</g>
</g>
<!-- Node15 -->
<g id="Node000015" class="node">
<title>Node15</title>
<g id="a_Node000015"><a xlink:title=" ">
<polygon fill="#e0e0e0" stroke="#999999" points="717.5,-24.5 657.5,-24.5 657.5,-5.5 717.5,-5.5 717.5,-24.5"/>
<text text-anchor="middle" x="687.5" y="-12.5" font-family="Helvetica,sans-Serif" font-size="10.00">concepts</text>
</a>
</g>
</g>
<!-- Node13&#45;&gt;Node15 -->
<g id="edge17_Node000013_Node000015" class="edge">
<title>Node13&#45;&gt;Node15</title>
<g id="a_edge17_Node000013_Node000015"><a xlink:title=" ">
<path fill="none" stroke="#63b8ff" d="M528.59,-65.96C558.78,-57.28 606.54,-43.28 647.5,-30 649.6,-29.32 651.77,-28.6 653.94,-27.87"/>
<polygon fill="#63b8ff" stroke="#63b8ff" points="655.12,-31.17 663.45,-24.62 652.85,-24.55 655.12,-31.17"/>
</a>
</g>
</g>
<!-- Node16&#45;&gt;Node3 -->
<g id="edge20_Node000016_Node000003" class="edge">
<title>Node16&#45;&gt;Node3</title>
<g id="a_edge20_Node000016_Node000003"><a xlink:title=" ">
<path fill="none" stroke="#63b8ff" d="M272.58,-120.75C280.59,-113.03 292.46,-101.6 302.12,-92.28"/>
<polygon fill="#63b8ff" stroke="#63b8ff" points="304.81,-94.55 309.59,-85.09 299.96,-89.51 304.81,-94.55"/>
</a>
</g>
</g>
<!-- Node17 -->
<g id="Node000017" class="node">
<title>Node17</title>
<g id="a_Node000017"><a xlink:title=" ">
<polygon fill="#e0e0e0" stroke="#999999" points="232.5,-85 176.5,-85 176.5,-66 232.5,-66 232.5,-85"/>
<text text-anchor="middle" x="204.5" y="-73" font-family="Helvetica,sans-Serif" font-size="10.00">optional</text>
</a>
</g>
</g>
<!-- Node16&#45;&gt;Node17 -->
<g id="edge21_Node000016_Node000017" class="edge">
<title>Node16&#45;&gt;Node17</title>
<g id="a_edge21_Node000016_Node000017"><a xlink:title=" ">
<path fill="none" stroke="#63b8ff" d="M254.02,-120.98C245.3,-113.15 232.16,-101.34 221.6,-91.86"/>
<polygon fill="#63b8ff" stroke="#63b8ff" points="223.93,-89.25 214.15,-85.17 219.25,-94.46 223.93,-89.25"/>
</a>
</g>
</g>
<!-- Node16&#45;&gt;Node18 -->
<g id="edge22_Node000016_Node000018" class="edge">
<title>Node16&#45;&gt;Node18</title>
<g id="a_edge22_Node000016_Node000018"><a xlink:title=" ">
<path fill="none" stroke="#63b8ff" d="M335.01,-121.73C337.88,-121.47 340.72,-121.23 343.5,-121 489.67,-109.1 943.5,-85.83 1085.55,-78.66"/>
<polygon fill="#63b8ff" stroke="#63b8ff" points="1085.8,-82.15 1095.61,-78.15 1085.45,-75.16 1085.8,-82.15"/>
</a>
</g>
</g>
<!-- Node16&#45;&gt;Node19 -->
<g id="edge23_Node000016_Node000019" class="edge">
<title>Node16&#45;&gt;Node19</title>
<g id="a_edge23_Node000016_Node000019"><a xlink:title=" ">
<path fill="none" stroke="#63b8ff" d="M241.33,-120.98C218.59,-112.25 183.02,-98.59 157.29,-88.71"/>
<polygon fill="#63b8ff" stroke="#63b8ff" points="158.21,-85.31 147.62,-84.99 155.7,-91.85 158.21,-85.31"/>
</a>
</g>
</g>
<!-- Node21&#45;&gt;Node3 -->
<g id="edge26_Node000021_Node000003" class="edge">
<title>Node21&#45;&gt;Node3</title>
<g id="a_edge26_Node000021_Node000003"><a xlink:title=" ">
<path fill="none" stroke="#63b8ff" d="M619.81,-181.12C609.66,-166.08 586.92,-135.81 559.5,-121 531.81,-106.05 455.64,-93.51 396.27,-85.6"/>
<polygon fill="#63b8ff" stroke="#63b8ff" points="396.51,-82.1 386.14,-84.27 395.6,-89.04 396.51,-82.1"/>
</a>
</g>
</g>
<!-- Node21&#45;&gt;Node15 -->
<g id="edge30_Node000021_Node000015" class="edge">
<title>Node21&#45;&gt;Node15</title>
<g id="a_edge30_Node000021_Node000015"><a xlink:title=" ">
<path fill="none" stroke="#63b8ff" d="M635.24,-181.48C645.07,-172.29 659.86,-156.7 667.5,-140 683.41,-105.25 686.91,-59.97 687.53,-34.86"/>
<polygon fill="#63b8ff" stroke="#63b8ff" points="691.04,-34.61 687.65,-24.57 684.04,-34.53 691.04,-34.61"/>
</a>
</g>
</g>
<!-- Node22 -->
<g id="Node000022" class="node">
<title>Node22</title>
<g id="a_Node000022"><a xlink:href="export_8hpp.html" target="_top" xlink:title=" ">
<polygon fill="white" stroke="#666666" points="821,-140 716,-140 716,-121 821,-121 821,-140"/>
<text text-anchor="middle" x="768.5" y="-128" font-family="Helvetica,sans-Serif" font-size="10.00">alpaqa/export.hpp</text>
</a>
</g>
</g>
<!-- Node21&#45;&gt;Node22 -->
<g id="edge27_Node000021_Node000022" class="edge">
<title>Node21&#45;&gt;Node22</title>
<g id="a_edge27_Node000021_Node000022"><a xlink:title=" ">
<path fill="none" stroke="#63b8ff" d="M646.29,-181.49C670.44,-171.62 710.48,-155.23 738.12,-143.93"/>
<polygon fill="#63b8ff" stroke="#63b8ff" points="739.75,-147.04 747.68,-140.02 737.1,-140.56 739.75,-147.04"/>
</a>
</g>
</g>
<!-- Node21&#45;&gt;Node24 -->
<g id="edge29_Node000021_Node000024" class="edge">
<title>Node21&#45;&gt;Node24</title>
<g id="a_edge29_Node000021_Node000024"><a xlink:title=" ">
<path fill="none" stroke="#63b8ff" d="M699.84,-181.49C716.5,-179.64 734.1,-177.72 750.5,-176 907.05,-159.61 1093.99,-142.03 1171.3,-134.85"/>
<polygon fill="#63b8ff" stroke="#63b8ff" points="1171.83,-138.31 1181.47,-133.9 1171.19,-131.34 1171.83,-138.31"/>
</a>
</g>
</g>
<!-- Node25 -->
<g id="Node000025" class="node">
<title>Node25</title>
<g id="a_Node000025"><a xlink:title=" ">
<polygon fill="#e0e0e0" stroke="#999999" points="659,-140 608,-140 608,-121 659,-121 659,-140"/>
<text text-anchor="middle" x="633.5" y="-128" font-family="Helvetica,sans-Serif" font-size="10.00">variant</text>
</a>
</g>
</g>
<!-- Node21&#45;&gt;Node25 -->
<g id="edge31_Node000021_Node000025" class="edge">
<title>Node21&#45;&gt;Node25</title>
<g id="a_edge31_Node000021_Node000025"><a xlink:title=" ">
<path fill="none" stroke="#63b8ff" d="M626.68,-181.37C627.79,-173.25 629.49,-160.81 630.92,-150.39"/>
<polygon fill="#63b8ff" stroke="#63b8ff" points="634.43,-150.55 632.31,-140.17 627.49,-149.6 634.43,-150.55"/>
</a>
</g>
</g>
<!-- Node23 -->
<g id="Node000023" class="node">
<title>Node23</title>
<g id="a_Node000023"><a xlink:title=" ">
<polygon fill="#e0e0e0" stroke="#999999" points="950,-85 857,-85 857,-66 950,-66 950,-85"/>
<text text-anchor="middle" x="903.5" y="-73" font-family="Helvetica,sans-Serif" font-size="10.00">alpaqa/export.h</text>
</a>
</g>
</g>
<!-- Node22&#45;&gt;Node23 -->
<g id="edge28_Node000022_Node000023" class="edge">
<title>Node22&#45;&gt;Node23</title>
<g id="a_edge28_Node000022_Node000023"><a xlink:title=" ">
<path fill="none" stroke="#63b8ff" d="M790.19,-120.98C812.3,-112.3 846.82,-98.75 871.95,-88.88"/>
<polygon fill="#63b8ff" stroke="#63b8ff" points="873.39,-92.08 881.42,-85.17 870.83,-85.57 873.39,-92.08"/>
</a>
</g>
</g>
<!-- Node26&#45;&gt;Node27 -->
<g id="edge33_Node000026_Node000027" class="edge">
<title>Node26&#45;&gt;Node27</title>
<g id="a_edge33_Node000026_Node000027"><a xlink:title=" ">
<path fill="none" stroke="#63b8ff" d="M864.69,-175.99C898.68,-165.89 944,-152.44 975.86,-142.98"/>
<polygon fill="#63b8ff" stroke="#63b8ff" points="977.11,-146.26 985.7,-140.05 975.11,-139.55 977.11,-146.26"/>
</a>
</g>
</g>
<!-- Node28&#45;&gt;Node23 -->
<g id="edge35_Node000028_Node000023" class="edge">
<title>Node28&#45;&gt;Node23</title>
<g id="a_edge35_Node000028_Node000023"><a xlink:title=" ">
<path fill="none" stroke="#63b8ff" d="M903.5,-120.75C903.5,-113.8 903.5,-103.85 903.5,-95.13"/>
<polygon fill="#63b8ff" stroke="#63b8ff" points="907,-95.09 903.5,-85.09 900,-95.09 907,-95.09"/>
</a>
</g>
</g>
<!-- Node30&#45;&gt;Node18 -->
<g id="edge39_Node000030_Node000018" class="edge">
<title>Node30&#45;&gt;Node18</title>
<g id="a_edge39_Node000030_Node000018"><a xlink:title=" ">
<path fill="none" stroke="#63b8ff" d="M1145.09,-175.63C1141.68,-155.21 1135.42,-117.81 1131.64,-95.24"/>
<polygon fill="#63b8ff" stroke="#63b8ff" points="1135.06,-94.51 1129.96,-85.23 1128.16,-95.67 1135.06,-94.51"/>
</a>
</g>
</g>
<!-- Node31&#45;&gt;Node18 -->
<g id="edge47_Node000031_Node000018" class="edge">
<title>Node31&#45;&gt;Node18</title>
<g id="a_edge47_Node000031_Node000018"><a xlink:title=" ">
<path fill="none" stroke="#63b8ff" d="M1034.22,-181.35C1048.13,-172.16 1069.79,-156.69 1085.5,-140 1098.72,-125.96 1110.74,-107.48 1118.7,-94.08"/>
<polygon fill="#63b8ff" stroke="#63b8ff" points="1121.76,-95.76 1123.72,-85.35 1115.7,-92.27 1121.76,-95.76"/>
</a>
</g>
</g>
<!-- Node31&#45;&gt;Node23 -->
<g id="edge43_Node000031_Node000023" class="edge">
<title>Node31&#45;&gt;Node23</title>
<g id="a_edge43_Node000031_Node000023"><a xlink:title=" ">
<path fill="none" stroke="#63b8ff" d="M1030.11,-181.32C1044.13,-167.61 1067.02,-140.48 1052.5,-121 1031.4,-92.67 992.94,-81.68 960.39,-77.7"/>
<polygon fill="#63b8ff" stroke="#63b8ff" points="960.36,-74.18 950.06,-76.64 959.65,-81.14 960.36,-74.18"/>
</a>
</g>
</g>
<!-- Node31&#45;&gt;Node27 -->
<g id="edge46_Node000031_Node000027" class="edge">
<title>Node31&#45;&gt;Node27</title>
<g id="a_edge46_Node000031_Node000027"><a xlink:title=" ">
<path fill="none" stroke="#63b8ff" d="M1019.61,-181.37C1018.78,-173.25 1017.51,-160.81 1016.44,-150.39"/>
<polygon fill="#63b8ff" stroke="#63b8ff" points="1019.89,-149.76 1015.39,-140.17 1012.93,-150.47 1019.89,-149.76"/>
</a>
</g>
</g>
<!-- Node31&#45;&gt;Node28 -->
<g id="edge44_Node000031_Node000028" class="edge">
<title>Node31&#45;&gt;Node28</title>
<g id="a_edge44_Node000031_Node000028"><a xlink:title=" ">
<path fill="none" stroke="#63b8ff" d="M1003.49,-181.49C984.08,-171.79 952.11,-155.81 929.56,-144.53"/>
<polygon fill="#63b8ff" stroke="#63b8ff" points="931.04,-141.36 920.53,-140.02 927.91,-147.62 931.04,-141.36"/>
</a>
</g>
</g>
<!-- Node31&#45;&gt;Node32 -->
<g id="edge45_Node000031_Node000032" class="edge">
<title>Node31&#45;&gt;Node32</title>
<g id="a_edge45_Node000031_Node000032"><a xlink:title=" ">
<path fill="none" stroke="#63b8ff" d="M1056.65,-181.47C1064.51,-179.64 1072.78,-177.74 1080.5,-176 1135.97,-163.51 1200.03,-149.7 1241.57,-140.83"/>
<polygon fill="#63b8ff" stroke="#63b8ff" points="1242.32,-144.25 1251.37,-138.74 1240.86,-137.4 1242.32,-144.25"/>
</a>
</g>
</g>
<!-- Node35&#45;&gt;Node24 -->
<g id="edge61_Node000035_Node000024" class="edge">
<title>Node35&#45;&gt;Node24</title>
<g id="a_edge61_Node000035_Node000024"><a xlink:title=" ">
<path fill="none" stroke="#63b8ff" d="M1179.1,-247.38C1190.78,-238.55 1207.4,-223.64 1214.5,-206 1221.76,-187.96 1218.14,-165.55 1213.88,-150.04"/>
<polygon fill="#63b8ff" stroke="#63b8ff" points="1217.11,-148.65 1210.81,-140.14 1210.42,-150.72 1217.11,-148.65"/>
</a>
</g>
</g>
<!-- Node35&#45;&gt;Node30 -->
<g id="edge59_Node000035_Node000030" class="edge">
<title>Node35&#45;&gt;Node30</title>
<g id="a_edge59_Node000035_Node000030"><a xlink:title=" ">
<path fill="none" stroke="#63b8ff" d="M1163.94,-247.37C1161.57,-239.4 1157.95,-227.2 1154.7,-216.27"/>
<polygon fill="#63b8ff" stroke="#63b8ff" points="1157.96,-214.95 1151.76,-206.36 1151.25,-216.94 1157.96,-214.95"/>
</a>
</g>
</g>
<!-- Node35&#45;&gt;Node31 -->
<g id="edge60_Node000035_Node000031" class="edge">
<title>Node35&#45;&gt;Node31</title>
<g id="a_edge60_Node000035_Node000031"><a xlink:title=" ">
<path fill="none" stroke="#63b8ff" d="M1146.81,-247.37C1121.77,-236.39 1078.35,-217.36 1049.52,-204.72"/>
<polygon fill="#63b8ff" stroke="#63b8ff" points="1050.91,-201.51 1040.34,-200.7 1048.1,-207.92 1050.91,-201.51"/>
</a>
</g>
</g>
<!-- Node36 -->
<g id="Node000036" class="node">
<title>Node36</title>
<g id="a_Node000036"><a xlink:href="cutest-types_8hpp.html" target="_top" xlink:title=" ">
<polygon fill="white" stroke="#666666" points="1473.5,-200.5 1375.5,-200.5 1375.5,-181.5 1473.5,-181.5 1473.5,-200.5"/>
<text text-anchor="middle" x="1424.5" y="-188.5" font-family="Helvetica,sans-Serif" font-size="10.00">cutest&#45;types.hpp</text>
</a>
</g>
</g>
<!-- Node35&#45;&gt;Node36 -->
<g id="edge56_Node000035_Node000036" class="edge">
<title>Node35&#45;&gt;Node36</title>
<g id="a_edge56_Node000035_Node000036"><a xlink:title=" ">
<path fill="none" stroke="#63b8ff" d="M1201.03,-247.44C1247.37,-235.94 1329.72,-215.51 1380.47,-202.92"/>
<polygon fill="#63b8ff" stroke="#63b8ff" points="1381.31,-206.32 1390.18,-200.51 1379.63,-199.52 1381.31,-206.32"/>
</a>
</g>
</g>
<!-- Node37 -->
<g id="Node000037" class="node">
<title>Node37</title>
<g id="a_Node000037"><a xlink:title=" ">
<polygon fill="#e0e0e0" stroke="#999999" points="1513.5,-140 1449.5,-140 1449.5,-121 1513.5,-121 1513.5,-140"/>
<text text-anchor="middle" x="1481.5" y="-128" font-family="Helvetica,sans-Serif" font-size="10.00">algorithm</text>
</a>
</g>
</g>
<!-- Node36&#45;&gt;Node37 -->
<g id="edge57_Node000036_Node000037" class="edge">
<title>Node36&#45;&gt;Node37</title>
<g id="a_edge57_Node000036_Node000037"><a xlink:title=" ">
<path fill="none" stroke="#63b8ff" d="M1432.91,-181.37C1441.58,-172.47 1455.3,-158.39 1465.96,-147.45"/>
<polygon fill="#63b8ff" stroke="#63b8ff" points="1468.58,-149.77 1473.05,-140.17 1463.57,-144.89 1468.58,-149.77"/>
</a>
</g>
</g>
<!-- Node38 -->
<g id="Node000038" class="node">
<title>Node38</title>
<g id="a_Node000038"><a xlink:title=" ">
<polygon fill="#e0e0e0" stroke="#999999" points="1431.5,-140 1389.5,-140 1389.5,-121 1431.5,-121 1431.5,-140"/>
<text text-anchor="middle" x="1410.5" y="-128" font-family="Helvetica,sans-Serif" font-size="10.00">array</text>
</a>
</g>
</g>
<!-- Node36&#45;&gt;Node38 -->
<g id="edge58_Node000036_Node000038" class="edge">
<title>Node36&#45;&gt;Node38</title>
<g id="a_edge58_Node000036_Node000038"><a xlink:title=" ">
<path fill="none" stroke="#63b8ff" d="M1422.43,-181.37C1420.47,-173.16 1417.45,-160.54 1414.94,-150.05"/>
<polygon fill="#63b8ff" stroke="#63b8ff" points="1418.31,-149.08 1412.57,-140.17 1411.5,-150.71 1418.31,-149.08"/>
</a>
</g>
</g>
</g>
</svg>

<g id="navigator" transform="translate(0 0)" fill="#404254">
  <rect fill="#f2f5e9" fill-opacity="0.5" stroke="#606060" stroke-width=".5" x="0" y="0" width="60" height="60"/>
  <use id="zoomplus" xlink:href="#zoomPlus" x="17" y="9" onmousedown="handleZoom(evt,'in')"/>
  <use id="zoomminus" xlink:href="#zoomMin" x="42" y="9" onmousedown="handleZoom(evt,'out')"/>
  <use id="reset" xlink:href="#resetDef" x="30" y="36" onmousedown="handleReset()"/>
   <use id="arrowup" xlink:href="#arrowUp" x="0" y="0" onmousedown="handlePan(0,-1)"/>
  <use id="arrowright" xlink:href="#arrowRight" x="0" y="0" onmousedown="handlePan(1,0)"/>
  <use id="arrowdown" xlink:href="#arrowDown" x="0" y="0" onmousedown="handlePan(0,1)"/>
  <use id="arrowleft" xlink:href="#arrowLeft" x="0" y="0" onmousedown="handlePan(-1,0)"/>
</g>
<svg viewBox="0 0 15 15" width="100%" height="30px" preserveAspectRatio="xMaxYMin meet">
 <g id="arrow_out" transform="scale(0.3 0.3)">
  <a xlink:href="cutest-loader_8cpp__incl_org.svg" target="_base">
   <rect id="button" ry="5" rx="5" y="6" x="6" height="38" width="38"
        fill="#f2f5e9" fill-opacity="0.5" stroke="#606060" stroke-width="1.0"/>
   <path id="arrow"
     d="M 11.500037,31.436501 C 11.940474,20.09759 22.043105,11.32322 32.158766,21.979434 L 37.068811,17.246167 C 37.068811,17.246167 37.088388,32 37.088388,32 L 22.160133,31.978069 C 22.160133,31.978069 26.997745,27.140456 26.997745,27.140456 C 18.528582,18.264221 13.291696,25.230495 11.500037,31.436501 z"
     style="fill:#404040;"/>
  </a>
 </g>
</svg>

<style type='text/css'>
<![CDATA[
[data-mouse-over-selected='false'] { opacity: 0.7; }
[data-mouse-over-selected='true']  { opacity: 1.0; }
]]>
</style>
<script type="application/ecmascript"><![CDATA[
document.addEventListener('DOMContentLoaded', (event) => {
  highlightEdges();
  highlightAdjacentNodes();
});
]]></script>
</svg>
