<?xml version="1.0" encoding="UTF-8" standalone="no"?>
<!DOCTYPE svg PUBLIC "-//W3C//DTD SVG 1.1//EN"
 "http://www.w3.org/Graphics/SVG/1.1/DTD/svg11.dtd">
<!-- Generated by graphviz version 2.43.0 (0)
 -->
<!-- Title: src/alpaqa/include/alpaqa Pages: 1 -->
<svg width="394pt" height="424pt"
 viewBox="0.00 0.00 394.00 424.00" xmlns="http://www.w3.org/2000/svg" xmlns:xlink="http://www.w3.org/1999/xlink">

<svg id="main" version="1.1" xmlns="http://www.w3.org/2000/svg" xmlns:xlink="http://www.w3.org/1999/xlink" xml:space="preserve" onload="init(evt)">
<style type="text/css"><![CDATA[
.node, .edge {opacity: 0.7;}
.node.selected, .edge.selected {opacity: 1;}
.edge:hover path { stroke: red; }
.edge:hover polygon { stroke: red; fill: red; }
]]></style>
<script type="application/ecmascript" xlink:href="svg.min.js"/>
<svg id="graph" class="graph">
<g id="graph0" class="graph" transform="scale(1 1) rotate(0) translate(4 420)">
<title>src/alpaqa/include/alpaqa</title>
<g id="clust1" class="cluster">
<title>clusterdir_114210053dee3c3e7f83aeff05cd53f3</title>
<g id="a_clust1"><a xlink:href="dir_114210053dee3c3e7f83aeff05cd53f3.html" target="_top" xlink:title="include">
<polygon fill="#eef0f6" stroke="#7f7f7f" stroke-dasharray="5,2" points="8,-8 8,-408 378,-408 378,-8 8,-8"/>
<text text-anchor="middle" x="193" y="-396" font-family="Helvetica,sans-Serif" font-size="10.00">include</text>
</a>
</g>
</g>
<g id="clust2" class="cluster">
<title>clusterdir_aa7a1b0f58ddf19b58b6c6a8f7be749b</title>
<g id="a_clust2"><a xlink:href="dir_aa7a1b0f58ddf19b58b6c6a8f7be749b.html" target="_top">
<polygon fill="#eef0f6" stroke="#404040" stroke-width="2" points="16,-16 16,-381 370,-381 370,-16 16,-16"/>
</a>
</g>
</g>
<!-- dir_aa7a1b0f58ddf19b58b6c6a8f7be749b -->
<g id="node1" class="node">
<title>dir_aa7a1b0f58ddf19b58b6c6a8f7be749b</title>
<text text-anchor="middle" x="216" y="-361" font-family="Helvetica,sans-Serif" font-size="10.00">alpaqa</text>
</g>
<!-- dir_bbd5cd5e84156ff1ee01ab0d6884a6cc -->
<g id="node6" class="node">
<title>dir_bbd5cd5e84156ff1ee01ab0d6884a6cc</title>
<g id="a_node6"><a xlink:href="dir_bbd5cd5e84156ff1ee01ab0d6884a6cc.html" target="_top" xlink:title="inner">
<polygon fill="#a7b5d1" stroke="#404040" points="216.5,-263 175.5,-263 175.5,-244 216.5,-244 216.5,-263"/>
<text text-anchor="middle" x="196" y="-251" font-family="Helvetica,sans-Serif" font-size="10.00">inner</text>
</a>
</g>
</g>
<!-- dir_aa7a1b0f58ddf19b58b6c6a8f7be749b&#45;&gt;dir_bbd5cd5e84156ff1ee01ab0d6884a6cc -->
<g id="edge2" class="edge">
<title>dir_aa7a1b0f58ddf19b58b6c6a8f7be749b&#45;&gt;dir_bbd5cd5e84156ff1ee01ab0d6884a6cc</title>
<g id="a_edge2"><a xlink:href="dir_000004_000044.html" target="_top">
<path fill="none" stroke="#63b8ff" d="M213.84,-353.67C211.69,-344.72 208.38,-330.44 206,-318 203.15,-303.06 200.5,-286.03 198.64,-273.37"/>
<polygon fill="#63b8ff" stroke="#63b8ff" points="202.06,-272.56 197.18,-263.16 195.13,-273.55 202.06,-272.56"/>
</a>
</g>
<g id="a_edge2&#45;headlabel"><a xlink:href="dir_000004_000044.html" target="_top" xlink:title="58">
<text text-anchor="middle" x="205.38" y="-273.22" font-family="Helvetica,sans-Serif" font-size="10.00" fill="#63b8ff">58</text>
</a>
</g>
</g>
<!-- dir_56b4c757b0752ef0587befa1007406ae -->
<g id="node7" class="node">
<title>dir_56b4c757b0752ef0587befa1007406ae</title>
<g id="a_node7"><a xlink:href="dir_56b4c757b0752ef0587befa1007406ae.html" target="_top" xlink:title="outer">
<polygon fill="#a7b5d1" stroke="#404040" points="257,-318 215,-318 215,-299 257,-299 257,-318"/>
<text text-anchor="middle" x="236" y="-306" font-family="Helvetica,sans-Serif" font-size="10.00">outer</text>
</a>
</g>
</g>
<!-- dir_aa7a1b0f58ddf19b58b6c6a8f7be749b&#45;&gt;dir_56b4c757b0752ef0587befa1007406ae -->
<g id="edge1" class="edge">
<title>dir_aa7a1b0f58ddf19b58b6c6a8f7be749b&#45;&gt;dir_56b4c757b0752ef0587befa1007406ae</title>
<g id="a_edge1"><a xlink:href="dir_000004_000062.html" target="_top">
<path fill="none" stroke="#63b8ff" d="M219.3,-353.75C221.98,-346.65 225.85,-336.4 229.19,-327.56"/>
<polygon fill="#63b8ff" stroke="#63b8ff" points="232.5,-328.68 232.76,-318.09 225.95,-326.21 232.5,-328.68"/>
</a>
</g>
<g id="a_edge1&#45;headlabel"><a xlink:href="dir_000004_000062.html" target="_top" xlink:title="12">
<text text-anchor="middle" x="233.89" y="-330.55" font-family="Helvetica,sans-Serif" font-size="10.00" fill="#63b8ff">12</text>
</a>
</g>
</g>
<!-- dir_56cdb4e0e1d23a049aedd3c0d066c83d -->
<g id="node2" class="node">
<title>dir_56cdb4e0e1d23a049aedd3c0d066c83d</title>
<g id="a_node2"><a xlink:href="dir_56cdb4e0e1d23a049aedd3c0d066c83d.html" target="_top" xlink:title="accelerators">
<polygon fill="#a7b5d1" stroke="#404040" points="161.5,-208 84.5,-208 84.5,-189 161.5,-189 161.5,-208"/>
<text text-anchor="middle" x="123" y="-196" font-family="Helvetica,sans-Serif" font-size="10.00">accelerators</text>
</a>
</g>
</g>
<!-- dir_1a4ee48d2e08cfd45a07dbc8fcccca64 -->
<g id="node3" class="node">
<title>dir_1a4ee48d2e08cfd45a07dbc8fcccca64</title>
<g id="a_node3"><a xlink:href="dir_1a4ee48d2e08cfd45a07dbc8fcccca64.html" target="_top" xlink:title="config">
<polygon fill="#a7b5d1" stroke="#404040" points="222,-153 176,-153 176,-134 222,-134 222,-153"/>
<text text-anchor="middle" x="199" y="-141" font-family="Helvetica,sans-Serif" font-size="10.00">config</text>
</a>
</g>
</g>
<!-- dir_56cdb4e0e1d23a049aedd3c0d066c83d&#45;&gt;dir_1a4ee48d2e08cfd45a07dbc8fcccca64 -->
<g id="edge3" class="edge">
<title>dir_56cdb4e0e1d23a049aedd3c0d066c83d&#45;&gt;dir_1a4ee48d2e08cfd45a07dbc8fcccca64</title>
<g id="a_edge3"><a xlink:href="dir_000000_000016.html" target="_top">
<path fill="none" stroke="#63b8ff" d="M135.21,-188.98C146.78,-180.92 164.38,-168.65 178.16,-159.03"/>
<polygon fill="#63b8ff" stroke="#63b8ff" points="180.37,-161.76 186.57,-153.17 176.36,-156.02 180.37,-161.76"/>
</a>
</g>
<g id="a_edge3&#45;headlabel"><a xlink:href="dir_000000_000016.html" target="_top" xlink:title="5">
<text text-anchor="middle" x="179.04" y="-163.65" font-family="Helvetica,sans-Serif" font-size="10.00" fill="#63b8ff">5</text>
</a>
</g>
</g>
<!-- dir_39cea274dfac8d55d2001e07c2abe998 -->
<g id="node10" class="node">
<title>dir_39cea274dfac8d55d2001e07c2abe998</title>
<g id="a_node10"><a xlink:href="dir_39cea274dfac8d55d2001e07c2abe998.html" target="_top" xlink:title="util">
<polygon fill="#a7b5d1" stroke="#404040" points="250,-98 218,-98 218,-79 250,-79 250,-98"/>
<text text-anchor="middle" x="234" y="-86" font-family="Helvetica,sans-Serif" font-size="10.00">util</text>
</a>
</g>
</g>
<!-- dir_56cdb4e0e1d23a049aedd3c0d066c83d&#45;&gt;dir_39cea274dfac8d55d2001e07c2abe998 -->
<g id="edge4" class="edge">
<title>dir_56cdb4e0e1d23a049aedd3c0d066c83d&#45;&gt;dir_39cea274dfac8d55d2001e07c2abe998</title>
<g id="a_edge4"><a xlink:href="dir_000000_000090.html" target="_top">
<path fill="none" stroke="#63b8ff" d="M127.53,-188.93C134.68,-175.98 149.57,-151.09 167,-134 179.48,-121.77 195.76,-110.86 209.15,-102.91"/>
<polygon fill="#63b8ff" stroke="#63b8ff" points="210.95,-105.91 217.88,-97.89 207.47,-99.84 210.95,-105.91"/>
</a>
</g>
<g id="a_edge4&#45;headlabel"><a xlink:href="dir_000000_000090.html" target="_top" xlink:title="2">
<text text-anchor="middle" x="209.25" y="-107.66" font-family="Helvetica,sans-Serif" font-size="10.00" fill="#63b8ff">2</text>
</a>
</g>
</g>
<!-- dir_1a4ee48d2e08cfd45a07dbc8fcccca64&#45;&gt;dir_39cea274dfac8d55d2001e07c2abe998 -->
<g id="edge5" class="edge">
<title>dir_1a4ee48d2e08cfd45a07dbc8fcccca64&#45;&gt;dir_39cea274dfac8d55d2001e07c2abe998</title>
<g id="a_edge5"><a xlink:href="dir_000016_000090.html" target="_top">
<path fill="none" stroke="#63b8ff" d="M199.61,-133.75C202.95,-126.26 209.82,-115.28 216.7,-106.13"/>
<polygon fill="#63b8ff" stroke="#63b8ff" points="219.64,-108.07 223.2,-98.09 214.19,-103.67 219.64,-108.07"/>
</a>
</g>
<g id="a_edge5&#45;headlabel"><a xlink:href="dir_000016_000090.html" target="_top" xlink:title="2">
<text text-anchor="middle" x="219.59" y="-110.15" font-family="Helvetica,sans-Serif" font-size="10.00" fill="#63b8ff">2</text>
</a>
</g>
</g>
<!-- dir_5ae04b5eee3515ce9a1e92ad2aaca430 -->
<g id="node4" class="node">
<title>dir_5ae04b5eee3515ce9a1e92ad2aaca430</title>
<g id="a_node4"><a xlink:href="dir_5ae04b5eee3515ce9a1e92ad2aaca430.html" target="_top" xlink:title="functions">
<polygon fill="#a7b5d1" stroke="#404040" points="322,-208 260,-208 260,-189 322,-189 322,-208"/>
<text text-anchor="middle" x="291" y="-196" font-family="Helvetica,sans-Serif" font-size="10.00">functions</text>
</a>
</g>
</g>
<!-- dir_5ae04b5eee3515ce9a1e92ad2aaca430&#45;&gt;dir_1a4ee48d2e08cfd45a07dbc8fcccca64 -->
<g id="edge6" class="edge">
<title>dir_5ae04b5eee3515ce9a1e92ad2aaca430&#45;&gt;dir_1a4ee48d2e08cfd45a07dbc8fcccca64</title>
<g id="a_edge6"><a xlink:href="dir_000030_000016.html" target="_top">
<path fill="none" stroke="#63b8ff" d="M276.22,-188.98C261.82,-180.69 239.69,-167.94 222.81,-158.22"/>
<polygon fill="#63b8ff" stroke="#63b8ff" points="224.46,-155.13 214.05,-153.17 220.97,-161.19 224.46,-155.13"/>
</a>
</g>
<g id="a_edge6&#45;headlabel"><a xlink:href="dir_000030_000016.html" target="_top" xlink:title="4">
<text text-anchor="middle" x="228.99" y="-151.96" font-family="Helvetica,sans-Serif" font-size="10.00" fill="#63b8ff">4</text>
</a>
</g>
</g>
<!-- dir_8ecfc39e2d201292a847909b27723f3b -->
<g id="node9" class="node">
<title>dir_8ecfc39e2d201292a847909b27723f3b</title>
<g id="a_node9"><a xlink:href="dir_8ecfc39e2d201292a847909b27723f3b.html" target="_top" xlink:title="problem">
<polygon fill="#a7b5d1" stroke="#404040" points="262.5,-43 205.5,-43 205.5,-24 262.5,-24 262.5,-43"/>
<text text-anchor="middle" x="234" y="-31" font-family="Helvetica,sans-Serif" font-size="10.00">problem</text>
</a>
</g>
</g>
<!-- dir_5ae04b5eee3515ce9a1e92ad2aaca430&#45;&gt;dir_8ecfc39e2d201292a847909b27723f3b -->
<g id="edge8" class="edge">
<title>dir_5ae04b5eee3515ce9a1e92ad2aaca430&#45;&gt;dir_8ecfc39e2d201292a847909b27723f3b</title>
<g id="a_edge8"><a xlink:href="dir_000030_000074.html" target="_top">
<path fill="none" stroke="#63b8ff" d="M289.45,-188.93C285.69,-169.09 275.2,-118.65 259,-79 255.19,-69.67 249.83,-59.84 245.05,-51.81"/>
<polygon fill="#63b8ff" stroke="#63b8ff" points="247.87,-49.72 239.65,-43.04 241.91,-53.39 247.87,-49.72"/>
</a>
</g>
<g id="a_edge8&#45;headlabel"><a xlink:href="dir_000030_000074.html" target="_top" xlink:title="1">
<text text-anchor="middle" x="252.18" y="-48.79" font-family="Helvetica,sans-Serif" font-size="10.00" fill="#63b8ff">1</text>
</a>
</g>
</g>
<!-- dir_5ae04b5eee3515ce9a1e92ad2aaca430&#45;&gt;dir_39cea274dfac8d55d2001e07c2abe998 -->
<g id="edge7" class="edge">
<title>dir_5ae04b5eee3515ce9a1e92ad2aaca430&#45;&gt;dir_39cea274dfac8d55d2001e07c2abe998</title>
<g id="a_edge7"><a xlink:href="dir_000030_000090.html" target="_top">
<path fill="none" stroke="#63b8ff" d="M286.34,-188.66C276.94,-170.85 255.57,-130.37 243.24,-107.01"/>
<polygon fill="#63b8ff" stroke="#63b8ff" points="246.33,-105.37 238.57,-98.16 240.14,-108.64 246.33,-105.37"/>
</a>
</g>
<g id="a_edge7&#45;headlabel"><a xlink:href="dir_000030_000090.html" target="_top" xlink:title="2">
<text text-anchor="middle" x="250.52" y="-104.72" font-family="Helvetica,sans-Serif" font-size="10.00" fill="#63b8ff">2</text>
</a>
</g>
</g>
<!-- dir_f032ec8a58d3b1c2859d60adecf85214 -->
<g id="node5" class="node">
<title>dir_f032ec8a58d3b1c2859d60adecf85214</title>
<g id="a_node5"><a xlink:href="dir_f032ec8a58d3b1c2859d60adecf85214.html" target="_top" xlink:title="implementation">
<polygon fill="#a7b5d1" stroke="#404040" points="132.5,-373 37.5,-373 37.5,-354 132.5,-354 132.5,-373"/>
<text text-anchor="middle" x="85" y="-361" font-family="Helvetica,sans-Serif" font-size="10.00">implementation</text>
</a>
</g>
</g>
<!-- dir_f032ec8a58d3b1c2859d60adecf85214&#45;&gt;dir_56cdb4e0e1d23a049aedd3c0d066c83d -->
<g id="edge9" class="edge">
<title>dir_f032ec8a58d3b1c2859d60adecf85214&#45;&gt;dir_56cdb4e0e1d23a049aedd3c0d066c83d</title>
<g id="a_edge9"><a xlink:href="dir_000031_000000.html" target="_top">
<path fill="none" stroke="#63b8ff" d="M84.5,-353.9C83.62,-334 82.98,-283.43 96,-244 99.22,-234.26 104.89,-224.4 110.21,-216.45"/>
<polygon fill="#63b8ff" stroke="#63b8ff" points="113.2,-218.29 116.13,-208.11 107.49,-214.24 113.2,-218.29"/>
</a>
</g>
<g id="a_edge9&#45;headlabel"><a xlink:href="dir_000031_000000.html" target="_top" xlink:title="2">
<text text-anchor="middle" x="113.43" y="-220.37" font-family="Helvetica,sans-Serif" font-size="10.00" fill="#63b8ff">2</text>
</a>
</g>
</g>
<!-- dir_f032ec8a58d3b1c2859d60adecf85214&#45;&gt;dir_1a4ee48d2e08cfd45a07dbc8fcccca64 -->
<g id="edge11" class="edge">
<title>dir_f032ec8a58d3b1c2859d60adecf85214&#45;&gt;dir_1a4ee48d2e08cfd45a07dbc8fcccca64</title>
<g id="a_edge11"><a xlink:href="dir_000031_000016.html" target="_top">
<path fill="none" stroke="#63b8ff" d="M81.2,-353.91C69.83,-326.78 39.1,-241.59 76,-189 96.1,-160.36 136.56,-150.07 165.59,-146.42"/>
<polygon fill="#63b8ff" stroke="#63b8ff" points="166.13,-149.89 175.71,-145.36 165.4,-142.93 166.13,-149.89"/>
</a>
</g>
<g id="a_edge11&#45;headlabel"><a xlink:href="dir_000031_000016.html" target="_top" xlink:title="9">
<text text-anchor="middle" x="162.86" y="-150.59" font-family="Helvetica,sans-Serif" font-size="10.00" fill="#63b8ff">9</text>
</a>
</g>
</g>
<!-- dir_f032ec8a58d3b1c2859d60adecf85214&#45;&gt;dir_bbd5cd5e84156ff1ee01ab0d6884a6cc -->
<g id="edge10" class="edge">
<title>dir_f032ec8a58d3b1c2859d60adecf85214&#45;&gt;dir_bbd5cd5e84156ff1ee01ab0d6884a6cc</title>
<g id="a_edge10"><a xlink:href="dir_000031_000044.html" target="_top">
<path fill="none" stroke="#63b8ff" d="M94.08,-353.66C112.88,-335.38 156.24,-293.18 179.9,-270.17"/>
<polygon fill="#63b8ff" stroke="#63b8ff" points="182.37,-272.64 187.1,-263.16 177.49,-267.62 182.37,-272.64"/>
</a>
</g>
<g id="a_edge10&#45;headlabel"><a xlink:href="dir_000031_000044.html" target="_top" xlink:title="13">
<text text-anchor="middle" x="181.78" y="-274.68" font-family="Helvetica,sans-Serif" font-size="10.00" fill="#63b8ff">13</text>
</a>
</g>
</g>
<!-- dir_f032ec8a58d3b1c2859d60adecf85214&#45;&gt;dir_56b4c757b0752ef0587befa1007406ae -->
<g id="edge14" class="edge">
<title>dir_f032ec8a58d3b1c2859d60adecf85214&#45;&gt;dir_56b4c757b0752ef0587befa1007406ae</title>
<g id="a_edge14"><a xlink:href="dir_000031_000062.html" target="_top">
<path fill="none" stroke="#63b8ff" d="M109.26,-353.98C135.25,-344.86 176.57,-330.36 204.92,-320.41"/>
<polygon fill="#63b8ff" stroke="#63b8ff" points="206.45,-323.58 214.73,-316.97 204.13,-316.98 206.45,-323.58"/>
</a>
</g>
<g id="a_edge14&#45;headlabel"><a xlink:href="dir_000031_000062.html" target="_top" xlink:title="2">
<text text-anchor="middle" x="204" y="-324.95" font-family="Helvetica,sans-Serif" font-size="10.00" fill="#63b8ff">2</text>
</a>
</g>
</g>
<!-- dir_a350ba0def0ce97ee16300db9fd244f5 -->
<g id="node8" class="node">
<title>dir_a350ba0def0ce97ee16300db9fd244f5</title>
<g id="a_node8"><a xlink:href="dir_a350ba0def0ce97ee16300db9fd244f5.html" target="_top" xlink:title="params">
<polygon fill="#a7b5d1" stroke="#404040" points="157.5,-263 104.5,-263 104.5,-244 157.5,-244 157.5,-263"/>
<text text-anchor="middle" x="131" y="-251" font-family="Helvetica,sans-Serif" font-size="10.00">params</text>
</a>
</g>
</g>
<!-- dir_f032ec8a58d3b1c2859d60adecf85214&#45;&gt;dir_a350ba0def0ce97ee16300db9fd244f5 -->
<g id="edge15" class="edge">
<title>dir_f032ec8a58d3b1c2859d60adecf85214&#45;&gt;dir_a350ba0def0ce97ee16300db9fd244f5</title>
<g id="a_edge15"><a xlink:href="dir_000031_000071.html" target="_top">
<path fill="none" stroke="#63b8ff" d="M88.76,-353.66C96.28,-336.01 113.29,-296.09 123.28,-272.64"/>
<polygon fill="#63b8ff" stroke="#63b8ff" points="126.61,-273.73 127.31,-263.16 120.17,-270.99 126.61,-273.73"/>
</a>
</g>
<g id="a_edge15&#45;headlabel"><a xlink:href="dir_000031_000071.html" target="_top" xlink:title="3">
<text text-anchor="middle" x="127.82" y="-275.65" font-family="Helvetica,sans-Serif" font-size="10.00" fill="#63b8ff">3</text>
</a>
</g>
</g>
<!-- dir_f032ec8a58d3b1c2859d60adecf85214&#45;&gt;dir_8ecfc39e2d201292a847909b27723f3b -->
<g id="edge13" class="edge">
<title>dir_f032ec8a58d3b1c2859d60adecf85214&#45;&gt;dir_8ecfc39e2d201292a847909b27723f3b</title>
<g id="a_edge13"><a xlink:href="dir_000031_000074.html" target="_top">
<path fill="none" stroke="#63b8ff" d="M75.74,-353.73C67.26,-345.27 54.88,-331.75 47,-318 32.16,-292.08 25,-284.37 25,-254.5 25,-254.5 25,-254.5 25,-142.5 25,-66.63 135.04,-44 195.43,-37.3"/>
<polygon fill="#63b8ff" stroke="#63b8ff" points="195.78,-40.78 205.38,-36.28 195.07,-33.81 195.78,-40.78"/>
</a>
</g>
<g id="a_edge13&#45;headlabel"><a xlink:href="dir_000031_000074.html" target="_top" xlink:title="6">
<text text-anchor="middle" x="192.49" y="-41.47" font-family="Helvetica,sans-Serif" font-size="10.00" fill="#63b8ff">6</text>
</a>
</g>
</g>
<!-- dir_f032ec8a58d3b1c2859d60adecf85214&#45;&gt;dir_39cea274dfac8d55d2001e07c2abe998 -->
<g id="edge12" class="edge">
<title>dir_f032ec8a58d3b1c2859d60adecf85214&#45;&gt;dir_39cea274dfac8d55d2001e07c2abe998</title>
<g id="a_edge12"><a xlink:href="dir_000031_000090.html" target="_top">
<path fill="none" stroke="#63b8ff" d="M78.75,-353.72C72.85,-345.03 64.15,-331.17 59,-318 48.47,-291.09 45,-283.4 45,-254.5 45,-254.5 45,-254.5 45,-197.5 45,-123.41 155.85,-99.46 207.76,-92.3"/>
<polygon fill="#63b8ff" stroke="#63b8ff" points="208.41,-95.75 217.89,-91.02 207.53,-88.81 208.41,-95.75"/>
</a>
</g>
<g id="a_edge12&#45;headlabel"><a xlink:href="dir_000031_000090.html" target="_top" xlink:title="20">
<text text-anchor="middle" x="205.2" y="-96.52" font-family="Helvetica,sans-Serif" font-size="10.00" fill="#63b8ff">20</text>
</a>
</g>
</g>
<!-- dir_bbd5cd5e84156ff1ee01ab0d6884a6cc&#45;&gt;dir_56cdb4e0e1d23a049aedd3c0d066c83d -->
<g id="edge18" class="edge">
<title>dir_bbd5cd5e84156ff1ee01ab0d6884a6cc&#45;&gt;dir_56cdb4e0e1d23a049aedd3c0d066c83d</title>
<g id="a_edge18"><a xlink:href="dir_000044_000000.html" target="_top">
<path fill="none" stroke="#63b8ff" d="M184.27,-243.98C173.27,-236 156.58,-223.88 143.4,-214.31"/>
<polygon fill="#63b8ff" stroke="#63b8ff" points="145.09,-211.21 134.94,-208.17 140.98,-216.88 145.09,-211.21"/>
</a>
</g>
<g id="a_edge18&#45;headlabel"><a xlink:href="dir_000044_000000.html" target="_top" xlink:title="5">
<text text-anchor="middle" x="149.67" y="-208.53" font-family="Helvetica,sans-Serif" font-size="10.00" fill="#63b8ff">5</text>
</a>
</g>
</g>
<!-- dir_bbd5cd5e84156ff1ee01ab0d6884a6cc&#45;&gt;dir_1a4ee48d2e08cfd45a07dbc8fcccca64 -->
<g id="edge16" class="edge">
<title>dir_bbd5cd5e84156ff1ee01ab0d6884a6cc&#45;&gt;dir_1a4ee48d2e08cfd45a07dbc8fcccca64</title>
<g id="a_edge16"><a xlink:href="dir_000044_000016.html" target="_top">
<path fill="none" stroke="#63b8ff" d="M196.25,-243.66C196.73,-226.17 197.82,-186.8 198.48,-163.27"/>
<polygon fill="#63b8ff" stroke="#63b8ff" points="201.98,-163.25 198.76,-153.16 194.98,-163.06 201.98,-163.25"/>
</a>
</g>
<g id="a_edge16&#45;headlabel"><a xlink:href="dir_000044_000016.html" target="_top" xlink:title="10">
<text text-anchor="middle" x="204.72" y="-164.42" font-family="Helvetica,sans-Serif" font-size="10.00" fill="#63b8ff">10</text>
</a>
</g>
</g>
<!-- dir_bbd5cd5e84156ff1ee01ab0d6884a6cc&#45;&gt;dir_8ecfc39e2d201292a847909b27723f3b -->
<g id="edge19" class="edge">
<title>dir_bbd5cd5e84156ff1ee01ab0d6884a6cc&#45;&gt;dir_8ecfc39e2d201292a847909b27723f3b</title>
<g id="a_edge19"><a xlink:href="dir_000044_000074.html" target="_top">
<path fill="none" stroke="#63b8ff" d="M216.72,-252.62C247.55,-251.53 304.68,-244.39 331,-208 370.67,-153.15 292.59,-80.49 253.92,-49.52"/>
<polygon fill="#63b8ff" stroke="#63b8ff" points="255.93,-46.64 245.89,-43.23 251.61,-52.15 255.93,-46.64"/>
</a>
</g>
<g id="a_edge19&#45;headlabel"><a xlink:href="dir_000044_000074.html" target="_top" xlink:title="19">
<text text-anchor="middle" x="260.51" y="-44.12" font-family="Helvetica,sans-Serif" font-size="10.00" fill="#63b8ff">19</text>
</a>
</g>
</g>
<!-- dir_bbd5cd5e84156ff1ee01ab0d6884a6cc&#45;&gt;dir_39cea274dfac8d55d2001e07c2abe998 -->
<g id="edge17" class="edge">
<title>dir_bbd5cd5e84156ff1ee01ab0d6884a6cc&#45;&gt;dir_39cea274dfac8d55d2001e07c2abe998</title>
<g id="a_edge17"><a xlink:href="dir_000044_000090.html" target="_top">
<path fill="none" stroke="#63b8ff" d="M199.97,-243.95C207.6,-227.03 224.2,-187.87 231,-153 233.88,-138.24 234.54,-121.2 234.54,-108.49"/>
<polygon fill="#63b8ff" stroke="#63b8ff" points="238.03,-108.17 234.38,-98.22 231.03,-108.27 238.03,-108.17"/>
</a>
</g>
<g id="a_edge17&#45;headlabel"><a xlink:href="dir_000044_000090.html" target="_top" xlink:title="13">
<text text-anchor="middle" x="240.92" y="-109.22" font-family="Helvetica,sans-Serif" font-size="10.00" fill="#63b8ff">13</text>
</a>
</g>
</g>
<!-- dir_56b4c757b0752ef0587befa1007406ae&#45;&gt;dir_1a4ee48d2e08cfd45a07dbc8fcccca64 -->
<g id="edge20" class="edge">
<title>dir_56b4c757b0752ef0587befa1007406ae&#45;&gt;dir_1a4ee48d2e08cfd45a07dbc8fcccca64</title>
<g id="a_edge20"><a xlink:href="dir_000062_000016.html" target="_top">
<path fill="none" stroke="#63b8ff" d="M234.94,-298.82C233.37,-286.54 230.15,-263.43 226,-244 219.88,-215.35 210.54,-182.66 204.61,-162.81"/>
<polygon fill="#63b8ff" stroke="#63b8ff" points="207.95,-161.76 201.71,-153.21 201.25,-163.79 207.95,-161.76"/>
</a>
</g>
<g id="a_edge20&#45;headlabel"><a xlink:href="dir_000062_000016.html" target="_top" xlink:title="2">
<text text-anchor="middle" x="211.71" y="-161.88" font-family="Helvetica,sans-Serif" font-size="10.00" fill="#63b8ff">2</text>
</a>
</g>
</g>
<!-- dir_56b4c757b0752ef0587befa1007406ae&#45;&gt;dir_bbd5cd5e84156ff1ee01ab0d6884a6cc -->
<g id="edge22" class="edge">
<title>dir_56b4c757b0752ef0587befa1007406ae&#45;&gt;dir_bbd5cd5e84156ff1ee01ab0d6884a6cc</title>
<g id="a_edge22"><a xlink:href="dir_000062_000044.html" target="_top">
<path fill="none" stroke="#63b8ff" d="M229.39,-298.75C223.74,-291.26 215.46,-280.28 208.55,-271.13"/>
<polygon fill="#63b8ff" stroke="#63b8ff" points="211.3,-268.96 202.48,-263.09 205.71,-273.18 211.3,-268.96"/>
</a>
</g>
<g id="a_edge22&#45;headlabel"><a xlink:href="dir_000062_000044.html" target="_top" xlink:title="1">
<text text-anchor="middle" x="215.73" y="-267.62" font-family="Helvetica,sans-Serif" font-size="10.00" fill="#63b8ff">1</text>
</a>
</g>
</g>
<!-- dir_56b4c757b0752ef0587befa1007406ae&#45;&gt;dir_8ecfc39e2d201292a847909b27723f3b -->
<g id="edge21" class="edge">
<title>dir_56b4c757b0752ef0587befa1007406ae&#45;&gt;dir_8ecfc39e2d201292a847909b27723f3b</title>
<g id="a_edge21"><a xlink:href="dir_000062_000074.html" target="_top">
<path fill="none" stroke="#63b8ff" d="M257.2,-300.32C292.87,-286.74 361,-253.7 361,-199.5 361,-199.5 361,-199.5 361,-142.5 361,-94.01 306.61,-62.73 269.02,-46.91"/>
<polygon fill="#63b8ff" stroke="#63b8ff" points="269.98,-43.52 259.4,-43.03 267.36,-50.01 269.98,-43.52"/>
</a>
</g>
<g id="a_edge21&#45;headlabel"><a xlink:href="dir_000062_000074.html" target="_top" xlink:title="1">
<text text-anchor="middle" x="274.37" y="-39.73" font-family="Helvetica,sans-Serif" font-size="10.00" fill="#63b8ff">1</text>
</a>
</g>
</g>
<!-- dir_a350ba0def0ce97ee16300db9fd244f5&#45;&gt;dir_1a4ee48d2e08cfd45a07dbc8fcccca64 -->
<g id="edge23" class="edge">
<title>dir_a350ba0def0ce97ee16300db9fd244f5&#45;&gt;dir_1a4ee48d2e08cfd45a07dbc8fcccca64</title>
<g id="a_edge23"><a xlink:href="dir_000071_000016.html" target="_top">
<path fill="none" stroke="#63b8ff" d="M140.18,-243.99C148.94,-235.51 162.09,-221.78 171,-208 180.2,-193.77 187.74,-176.01 192.67,-162.9"/>
<polygon fill="#63b8ff" stroke="#63b8ff" points="196.08,-163.75 196.17,-153.15 189.5,-161.38 196.08,-163.75"/>
</a>
</g>
<g id="a_edge23&#45;headlabel"><a xlink:href="dir_000071_000016.html" target="_top" xlink:title="2">
<text text-anchor="middle" x="197.54" y="-165.59" font-family="Helvetica,sans-Serif" font-size="10.00" fill="#63b8ff">2</text>
</a>
</g>
</g>
<!-- dir_8ecfc39e2d201292a847909b27723f3b&#45;&gt;dir_1a4ee48d2e08cfd45a07dbc8fcccca64 -->
<g id="edge24" class="edge">
<title>dir_8ecfc39e2d201292a847909b27723f3b&#45;&gt;dir_1a4ee48d2e08cfd45a07dbc8fcccca64</title>
<g id="a_edge24"><a xlink:href="dir_000074_000016.html" target="_top">
<path fill="none" stroke="#63b8ff" d="M227.83,-43.26C222.04,-51.92 213.59,-65.77 209,-79 203.96,-93.52 201.45,-110.78 200.21,-123.65"/>
<polygon fill="#63b8ff" stroke="#63b8ff" points="196.72,-123.39 199.41,-133.63 203.69,-123.95 196.72,-123.39"/>
</a>
</g>
<g id="a_edge24&#45;headlabel"><a xlink:href="dir_000074_000016.html" target="_top" xlink:title="6">
<text text-anchor="middle" x="194.17" y="-117.08" font-family="Helvetica,sans-Serif" font-size="10.00" fill="#63b8ff">6</text>
</a>
</g>
</g>
<!-- dir_8ecfc39e2d201292a847909b27723f3b&#45;&gt;dir_39cea274dfac8d55d2001e07c2abe998 -->
<g id="edge25" class="edge">
<title>dir_8ecfc39e2d201292a847909b27723f3b&#45;&gt;dir_39cea274dfac8d55d2001e07c2abe998</title>
<g id="a_edge25"><a xlink:href="dir_000074_000090.html" target="_top">
<path fill="none" stroke="#63b8ff" d="M239.13,-43.09C240.64,-49.99 241.09,-59.93 240.49,-68.66"/>
<polygon fill="#63b8ff" stroke="#63b8ff" points="237,-68.38 239.17,-78.75 243.94,-69.29 237,-68.38"/>
</a>
</g>
<g id="a_edge25&#45;headlabel"><a xlink:href="dir_000074_000090.html" target="_top" xlink:title="14">
<text text-anchor="middle" x="234.65" y="-61.94" font-family="Helvetica,sans-Serif" font-size="10.00" fill="#63b8ff">14</text>
</a>
</g>
</g>
<!-- dir_39cea274dfac8d55d2001e07c2abe998&#45;&gt;dir_1a4ee48d2e08cfd45a07dbc8fcccca64 -->
<g id="edge26" class="edge">
<title>dir_39cea274dfac8d55d2001e07c2abe998&#45;&gt;dir_1a4ee48d2e08cfd45a07dbc8fcccca64</title>
<g id="a_edge26"><a xlink:href="dir_000090_000016.html" target="_top">
<path fill="none" stroke="#63b8ff" d="M233.46,-98.09C230.14,-105.6 223.19,-116.72 216.23,-125.96"/>
<polygon fill="#63b8ff" stroke="#63b8ff" points="213.5,-123.77 209.95,-133.75 218.95,-128.16 213.5,-123.77"/>
</a>
</g>
<g id="a_edge26&#45;headlabel"><a xlink:href="dir_000090_000016.html" target="_top" xlink:title="4">
<text text-anchor="middle" x="213.55" y="-116.69" font-family="Helvetica,sans-Serif" font-size="10.00" fill="#63b8ff">4</text>
</a>
</g>
</g>
<!-- dir_39cea274dfac8d55d2001e07c2abe998&#45;&gt;dir_8ecfc39e2d201292a847909b27723f3b -->
<g id="edge27" class="edge">
<title>dir_39cea274dfac8d55d2001e07c2abe998&#45;&gt;dir_8ecfc39e2d201292a847909b27723f3b</title>
<g id="a_edge27"><a xlink:href="dir_000090_000074.html" target="_top">
<path fill="none" stroke="#63b8ff" d="M228.83,-78.75C227.34,-71.8 226.9,-61.85 227.52,-53.13"/>
<polygon fill="#63b8ff" stroke="#63b8ff" points="231.01,-53.47 228.87,-43.09 224.07,-52.53 231.01,-53.47"/>
</a>
</g>
<g id="a_edge27&#45;headlabel"><a xlink:href="dir_000090_000074.html" target="_top" xlink:title="2">
<text text-anchor="middle" x="233.34" y="-54.91" font-family="Helvetica,sans-Serif" font-size="10.00" fill="#63b8ff">2</text>
</a>
</g>
</g>
</g>
</svg>
</svg>

<style type='text/css'>
<![CDATA[
[data-mouse-over-selected='false'] { opacity: 0.7; }
[data-mouse-over-selected='true']  { opacity: 1.0; }
]]>
</style>
<script type="application/ecmascript"><![CDATA[
document.addEventListener('DOMContentLoaded', (event) => {
  highlightEdges();
  highlightAdjacentNodes();
});
]]></script>
</svg>
