<?xml version="1.0" encoding="UTF-8" standalone="no"?>
<!DOCTYPE svg PUBLIC "-//W3C//DTD SVG 1.1//EN"
 "http://www.w3.org/Graphics/SVG/1.1/DTD/svg11.dtd">
<!-- Generated by graphviz version 2.43.0 (0)
 -->
<!-- Title: src/alpaqa/include/alpaqa/util/dl&#45;flags.hpp Pages: 1 -->
<svg width="1677pt" height="555pt"
 viewBox="0.00 0.00 1676.76 555.00" xmlns="http://www.w3.org/2000/svg" xmlns:xlink="http://www.w3.org/1999/xlink">
<g id="graph0" class="graph" transform="scale(1 1) rotate(0) translate(4 551)">
<title>src/alpaqa/include/alpaqa/util/dl&#45;flags.hpp</title>
<!-- Node1 -->
<g id="Node000001" class="node">
<title>Node1</title>
<g id="a_Node000001"><a xlink:title=" ">
<polygon fill="#999999" stroke="#666666" points="1025.76,-547 894.76,-547 894.76,-517 1025.76,-517 1025.76,-547"/>
<text text-anchor="start" x="902.76" y="-535" font-family="Helvetica,sans-Serif" font-size="10.00">src/alpaqa/include</text>
<text text-anchor="middle" x="960.26" y="-524" font-family="Helvetica,sans-Serif" font-size="10.00">/alpaqa/util/dl&#45;flags.hpp</text>
</a>
</g>
</g>
<!-- Node2 -->
<g id="Node000002" class="node">
<title>Node2</title>
<g id="a_Node000002"><a xlink:href="dl_8hpp.html" target="_top" xlink:title=" ">
<polygon fill="white" stroke="#666666" points="566.76,-481 461.76,-481 461.76,-451 566.76,-451 566.76,-481"/>
<text text-anchor="start" x="469.76" y="-469" font-family="Helvetica,sans-Serif" font-size="10.00">src/alpaqa/include</text>
<text text-anchor="middle" x="514.26" y="-458" font-family="Helvetica,sans-Serif" font-size="10.00">/alpaqa/util/dl.hpp</text>
</a>
</g>
</g>
<!-- Node1&#45;&gt;Node2 -->
<g id="edge1_Node000001_Node000002" class="edge">
<title>Node1&#45;&gt;Node2</title>
<g id="a_edge1_Node000001_Node000002"><a xlink:title=" ">
<path fill="none" stroke="#63b8ff" d="M884.55,-520.14C794.29,-507.18 645.79,-485.87 567.07,-474.58"/>
<polygon fill="#63b8ff" stroke="#63b8ff" points="884.05,-523.6 894.45,-521.56 885.05,-516.67 884.05,-523.6"/>
</a>
</g>
</g>
<!-- Node5 -->
<g id="Node000005" class="node">
<title>Node5</title>
<g id="a_Node000005"><a xlink:href="casadi-external-function_8hpp.html" target="_top" xlink:title=" ">
<polygon fill="white" stroke="#666666" points="408.26,-338 248.26,-338 248.26,-297 408.26,-297 408.26,-338"/>
<text text-anchor="start" x="256.26" y="-326" font-family="Helvetica,sans-Serif" font-size="10.00">src/interop/casadi</text>
<text text-anchor="start" x="256.26" y="-315" font-family="Helvetica,sans-Serif" font-size="10.00">/include/alpaqa/casadi</text>
<text text-anchor="middle" x="328.26" y="-304" font-family="Helvetica,sans-Serif" font-size="10.00">/casadi&#45;external&#45;function.hpp</text>
</a>
</g>
</g>
<!-- Node1&#45;&gt;Node5 -->
<g id="edge35_Node000001_Node000005" class="edge">
<title>Node1&#45;&gt;Node5</title>
<g id="a_edge35_Node000001_Node000005"><a xlink:title=" ">
<path fill="none" stroke="#63b8ff" d="M884.62,-531.44C715.31,-530.55 314.77,-517.45 239.26,-415 228.45,-400.33 230.42,-389.93 239.26,-374 247.83,-358.56 262.68,-346.85 277.83,-338.26"/>
<polygon fill="#63b8ff" stroke="#63b8ff" points="884.68,-534.94 894.7,-531.48 884.71,-527.94 884.68,-534.94"/>
</a>
</g>
</g>
<!-- Node7 -->
<g id="Node000007" class="node">
<title>Node7</title>
<g id="a_Node000007"><a xlink:href="CasADiControlProblem_8tpp.html" target="_top" xlink:title=" ">
<polygon fill="white" stroke="#666666" points="255.26,-107 71.26,-107 71.26,-66 255.26,-66 255.26,-107"/>
<text text-anchor="start" x="79.26" y="-95" font-family="Helvetica,sans-Serif" font-size="10.00">src/interop/casadi</text>
<text text-anchor="start" x="79.26" y="-84" font-family="Helvetica,sans-Serif" font-size="10.00">/include/alpaqa/implementation</text>
<text text-anchor="middle" x="163.26" y="-73" font-family="Helvetica,sans-Serif" font-size="10.00">/casadi/CasADiControlProblem.tpp</text>
</a>
</g>
</g>
<!-- Node1&#45;&gt;Node7 -->
<g id="edge36_Node000001_Node000007" class="edge">
<title>Node1&#45;&gt;Node7</title>
<g id="a_edge36_Node000001_Node000007"><a xlink:title=" ">
<path fill="none" stroke="#63b8ff" d="M884.45,-531.43C707.07,-531.63 269.59,-527.27 131.26,-481 66.03,-459.18 2.26,-464.28 2.26,-395.5 2.26,-395.5 2.26,-395.5 2.26,-239.5 2.26,-195.79 -6.78,-176.54 21.26,-143 34.84,-126.75 53.8,-115.24 73.45,-107.09"/>
<polygon fill="#63b8ff" stroke="#63b8ff" points="884.49,-534.93 894.48,-531.41 884.47,-527.93 884.49,-534.93"/>
</a>
</g>
</g>
<!-- Node13 -->
<g id="Node000013" class="node">
<title>Node13</title>
<g id="a_Node000013"><a xlink:href="CasADiProblem_8hpp.html" target="_top" xlink:title=" ">
<polygon fill="white" stroke="#666666" points="645.76,-261 520.76,-261 520.76,-220 645.76,-220 645.76,-261"/>
<text text-anchor="start" x="528.76" y="-249" font-family="Helvetica,sans-Serif" font-size="10.00">src/interop/casadi</text>
<text text-anchor="start" x="528.76" y="-238" font-family="Helvetica,sans-Serif" font-size="10.00">/include/alpaqa/casadi</text>
<text text-anchor="middle" x="583.26" y="-227" font-family="Helvetica,sans-Serif" font-size="10.00">/CasADiProblem.hpp</text>
</a>
</g>
</g>
<!-- Node1&#45;&gt;Node13 -->
<g id="edge34_Node000001_Node000013" class="edge">
<title>Node1&#45;&gt;Node13</title>
<g id="a_edge34_Node000001_Node000013"><a xlink:title=" ">
<path fill="none" stroke="#63b8ff" d="M969.08,-507.28C975.9,-490.64 986.35,-468.35 999.26,-451 1013.34,-432.07 1028.8,-436.61 1038.26,-415 1045.57,-398.31 1046.67,-390.16 1038.26,-374 1010.7,-321.07 983.56,-319.42 928.26,-297 834.65,-259.05 716.87,-246.99 645.95,-243.19"/>
<polygon fill="#63b8ff" stroke="#63b8ff" points="965.73,-506.23 965.31,-516.82 972.24,-508.81 965.73,-506.23"/>
</a>
</g>
</g>
<!-- Node17 -->
<g id="Node000017" class="node">
<title>Node17</title>
<g id="a_Node000017"><a xlink:href="cutest-loader_8cpp.html" target="_top" xlink:title=" ">
<polygon fill="white" stroke="#666666" points="918.76,-332.5 797.76,-332.5 797.76,-302.5 918.76,-302.5 918.76,-332.5"/>
<text text-anchor="start" x="805.76" y="-320.5" font-family="Helvetica,sans-Serif" font-size="10.00">src/interop/cutest</text>
<text text-anchor="middle" x="858.26" y="-309.5" font-family="Helvetica,sans-Serif" font-size="10.00">/src/cutest&#45;loader.cpp</text>
</a>
</g>
</g>
<!-- Node1&#45;&gt;Node17 -->
<g id="edge39_Node000001_Node000017" class="edge">
<title>Node1&#45;&gt;Node17</title>
<g id="a_edge39_Node000001_Node000017"><a xlink:title=" ">
<path fill="none" stroke="#63b8ff" d="M946.38,-507.95C932.76,-484.86 911.83,-448.11 896.26,-415 882.85,-386.49 870.01,-351.86 863.24,-332.81"/>
<polygon fill="#63b8ff" stroke="#63b8ff" points="943.44,-509.86 951.56,-516.67 949.46,-506.28 943.44,-509.86"/>
</a>
</g>
</g>
<!-- Node20 -->
<g id="Node000020" class="node">
<title>Node20</title>
<g id="a_Node000020"><a xlink:href="param-complete_8cpp.html" target="_top" xlink:title=" ">
<polygon fill="white" stroke="#666666" points="1128.76,-481 1007.76,-481 1007.76,-451 1128.76,-451 1128.76,-481"/>
<text text-anchor="start" x="1015.76" y="-469" font-family="Helvetica,sans-Serif" font-size="10.00">src/alpaqa/src/driver</text>
<text text-anchor="middle" x="1068.26" y="-458" font-family="Helvetica,sans-Serif" font-size="10.00">/param&#45;complete.cpp</text>
</a>
</g>
</g>
<!-- Node1&#45;&gt;Node20 -->
<g id="edge27_Node000001_Node000020" class="edge">
<title>Node1&#45;&gt;Node20</title>
<g id="a_edge27_Node000001_Node000020"><a xlink:title=" ">
<path fill="none" stroke="#63b8ff" d="M992.84,-511.69C1009.51,-501.82 1029.43,-490.01 1044.61,-481.01"/>
<polygon fill="#63b8ff" stroke="#63b8ff" points="990.78,-508.85 983.96,-516.95 994.35,-514.87 990.78,-508.85"/>
</a>
</g>
</g>
<!-- Node21 -->
<g id="Node000021" class="node">
<title>Node21</title>
<g id="a_Node000021"><a xlink:href="problem_8cpp.html" target="_top" xlink:title=" ">
<polygon fill="white" stroke="#666666" points="1263.26,-481 1147.26,-481 1147.26,-451 1263.26,-451 1263.26,-481"/>
<text text-anchor="start" x="1155.26" y="-469" font-family="Helvetica,sans-Serif" font-size="10.00">src/alpaqa/src/driver</text>
<text text-anchor="middle" x="1205.26" y="-458" font-family="Helvetica,sans-Serif" font-size="10.00">/problem.cpp</text>
</a>
</g>
</g>
<!-- Node1&#45;&gt;Node21 -->
<g id="edge28_Node000001_Node000021" class="edge">
<title>Node1&#45;&gt;Node21</title>
<g id="a_edge28_Node000001_Node000021"><a xlink:title=" ">
<path fill="none" stroke="#63b8ff" d="M1023.86,-514.39C1063.52,-504.03 1113.99,-490.84 1151.62,-481.01"/>
<polygon fill="#63b8ff" stroke="#63b8ff" points="1022.82,-511.04 1014.03,-516.95 1024.59,-517.81 1022.82,-511.04"/>
</a>
</g>
</g>
<!-- Node22 -->
<g id="Node000022" class="node">
<title>Node22</title>
<g id="a_Node000022"><a xlink:href="json_8cpp.html" target="_top" xlink:title=" ">
<polygon fill="white" stroke="#666666" points="1405.26,-481 1281.26,-481 1281.26,-451 1405.26,-451 1405.26,-481"/>
<text text-anchor="start" x="1289.26" y="-469" font-family="Helvetica,sans-Serif" font-size="10.00">src/alpaqa/src/params</text>
<text text-anchor="middle" x="1343.26" y="-458" font-family="Helvetica,sans-Serif" font-size="10.00">/json.cpp</text>
</a>
</g>
</g>
<!-- Node1&#45;&gt;Node22 -->
<g id="edge29_Node000001_Node000022" class="edge">
<title>Node1&#45;&gt;Node22</title>
<g id="a_edge29_Node000001_Node000022"><a xlink:title=" ">
<path fill="none" stroke="#63b8ff" d="M1035.71,-519.68C1098.97,-510.01 1191.65,-495.4 1272.26,-481 1275.1,-480.49 1278.01,-479.96 1280.94,-479.42"/>
<polygon fill="#63b8ff" stroke="#63b8ff" points="1035.17,-516.22 1025.81,-521.19 1036.22,-523.14 1035.17,-516.22"/>
</a>
</g>
</g>
<!-- Node23 -->
<g id="Node000023" class="node">
<title>Node23</title>
<g id="a_Node000023"><a xlink:href="params_8cpp.html" target="_top" xlink:title=" ">
<polygon fill="white" stroke="#666666" points="1547.26,-481 1423.26,-481 1423.26,-451 1547.26,-451 1547.26,-481"/>
<text text-anchor="start" x="1431.26" y="-469" font-family="Helvetica,sans-Serif" font-size="10.00">src/alpaqa/src/params</text>
<text text-anchor="middle" x="1485.26" y="-458" font-family="Helvetica,sans-Serif" font-size="10.00">/params.cpp</text>
</a>
</g>
</g>
<!-- Node1&#45;&gt;Node23 -->
<g id="edge30_Node000001_Node000023" class="edge">
<title>Node1&#45;&gt;Node23</title>
<g id="a_edge30_Node000001_Node000023"><a xlink:title=" ">
<path fill="none" stroke="#63b8ff" d="M1036.05,-524.64C1126.39,-516.6 1281.81,-501.31 1414.26,-481 1417.12,-480.56 1420.03,-480.09 1422.97,-479.59"/>
<polygon fill="#63b8ff" stroke="#63b8ff" points="1035.55,-521.17 1025.9,-525.54 1036.17,-528.14 1035.55,-521.17"/>
</a>
</g>
</g>
<!-- Node24 -->
<g id="Node000024" class="node">
<title>Node24</title>
<g id="a_Node000024"><a xlink:href="dl-flags_8cpp.html" target="_top" xlink:title=" ">
<polygon fill="white" stroke="#666666" points="1668.76,-481 1565.76,-481 1565.76,-451 1668.76,-451 1668.76,-481"/>
<text text-anchor="start" x="1573.76" y="-469" font-family="Helvetica,sans-Serif" font-size="10.00">src/alpaqa/src/util</text>
<text text-anchor="middle" x="1617.26" y="-458" font-family="Helvetica,sans-Serif" font-size="10.00">/dl&#45;flags.cpp</text>
</a>
</g>
</g>
<!-- Node1&#45;&gt;Node24 -->
<g id="edge31_Node000001_Node000024" class="edge">
<title>Node1&#45;&gt;Node24</title>
<g id="a_edge31_Node000001_Node000024"><a xlink:title=" ">
<path fill="none" stroke="#63b8ff" d="M1036.21,-528.08C1149.87,-522.94 1370.71,-509.93 1556.26,-481 1559.27,-480.53 1562.34,-480 1565.44,-479.42"/>
<polygon fill="#63b8ff" stroke="#63b8ff" points="1035.72,-524.6 1025.88,-528.54 1036.03,-531.59 1035.72,-524.6"/>
</a>
</g>
</g>
<!-- Node25 -->
<g id="Node000025" class="node">
<title>Node25</title>
<g id="a_Node000025"><a xlink:href="CasADiControlProblem_8hpp.html" target="_top" xlink:title=" ">
<polygon fill="white" stroke="#666666" points="182.26,-184 30.26,-184 30.26,-143 182.26,-143 182.26,-184"/>
<text text-anchor="start" x="38.26" y="-172" font-family="Helvetica,sans-Serif" font-size="10.00">src/interop/casadi</text>
<text text-anchor="start" x="38.26" y="-161" font-family="Helvetica,sans-Serif" font-size="10.00">/include/alpaqa/casadi</text>
<text text-anchor="middle" x="106.26" y="-150" font-family="Helvetica,sans-Serif" font-size="10.00">/CasADiControlProblem.hpp</text>
</a>
</g>
</g>
<!-- Node1&#45;&gt;Node25 -->
<g id="edge32_Node000001_Node000025" class="edge">
<title>Node1&#45;&gt;Node25</title>
<g id="a_edge32_Node000001_Node000025"><a xlink:title=" ">
<path fill="none" stroke="#63b8ff" d="M884.4,-528.85C732.96,-523.99 398.15,-510.23 287.26,-481 201.23,-458.32 106.26,-484.47 106.26,-395.5 106.26,-395.5 106.26,-395.5 106.26,-316.5 106.26,-269 106.26,-213.15 106.26,-184.18"/>
<polygon fill="#63b8ff" stroke="#63b8ff" points="884.44,-532.36 894.55,-529.17 884.66,-525.36 884.44,-532.36"/>
</a>
</g>
</g>
<!-- Node26 -->
<g id="Node000026" class="node">
<title>Node26</title>
<g id="a_Node000026"><a xlink:href="cutest-loader_8hpp.html" target="_top" xlink:title=" ">
<polygon fill="white" stroke="#666666" points="1029.26,-415 905.26,-415 905.26,-374 1029.26,-374 1029.26,-415"/>
<text text-anchor="start" x="913.26" y="-403" font-family="Helvetica,sans-Serif" font-size="10.00">src/interop/cutest</text>
<text text-anchor="start" x="913.26" y="-392" font-family="Helvetica,sans-Serif" font-size="10.00">/include/alpaqa/cutest</text>
<text text-anchor="middle" x="967.26" y="-381" font-family="Helvetica,sans-Serif" font-size="10.00">/cutest&#45;loader.hpp</text>
</a>
</g>
</g>
<!-- Node1&#45;&gt;Node26 -->
<g id="edge37_Node000001_Node000026" class="edge">
<title>Node1&#45;&gt;Node26</title>
<g id="a_edge37_Node000001_Node000026"><a xlink:title=" ">
<path fill="none" stroke="#63b8ff" d="M961.52,-506.54C962.87,-480.38 964.99,-439.39 966.24,-415.21"/>
<polygon fill="#63b8ff" stroke="#63b8ff" points="958.02,-506.59 961,-516.76 965.01,-506.95 958.02,-506.59"/>
</a>
</g>
</g>
<!-- Node3 -->
<g id="Node000003" class="node">
<title>Node3</title>
<g id="a_Node000003"><a xlink:href="dl_8cpp.html" target="_top" xlink:title=" ">
<polygon fill="white" stroke="#666666" points="494.76,-409.5 391.76,-409.5 391.76,-379.5 494.76,-379.5 494.76,-409.5"/>
<text text-anchor="start" x="399.76" y="-397.5" font-family="Helvetica,sans-Serif" font-size="10.00">src/alpaqa/src/util</text>
<text text-anchor="middle" x="443.26" y="-386.5" font-family="Helvetica,sans-Serif" font-size="10.00">/dl.cpp</text>
</a>
</g>
</g>
<!-- Node2&#45;&gt;Node3 -->
<g id="edge2_Node000002_Node000003" class="edge">
<title>Node2&#45;&gt;Node3</title>
<g id="a_edge2_Node000002_Node000003"><a xlink:title=" ">
<path fill="none" stroke="#63b8ff" d="M492.47,-443.67C481.14,-432.58 467.61,-419.34 457.61,-409.54"/>
<polygon fill="#63b8ff" stroke="#63b8ff" points="490.3,-446.44 499.89,-450.94 495.19,-441.44 490.3,-446.44"/>
</a>
</g>
</g>
<!-- Node4 -->
<g id="Node000004" class="node">
<title>Node4</title>
<g id="a_Node000004"><a xlink:href="casadi-functions_8hpp.html" target="_top" xlink:title=" ">
<polygon fill="white" stroke="#666666" points="373.76,-415 248.76,-415 248.76,-374 373.76,-374 373.76,-415"/>
<text text-anchor="start" x="256.76" y="-403" font-family="Helvetica,sans-Serif" font-size="10.00">src/interop/casadi</text>
<text text-anchor="start" x="256.76" y="-392" font-family="Helvetica,sans-Serif" font-size="10.00">/include/alpaqa/casadi</text>
<text text-anchor="middle" x="311.26" y="-381" font-family="Helvetica,sans-Serif" font-size="10.00">/casadi&#45;functions.hpp</text>
</a>
</g>
</g>
<!-- Node2&#45;&gt;Node4 -->
<g id="edge3_Node000002_Node000004" class="edge">
<title>Node2&#45;&gt;Node4</title>
<g id="a_edge3_Node000002_Node000004"><a xlink:title=" ">
<path fill="none" stroke="#63b8ff" d="M463.68,-447.68C434.75,-437.78 398.39,-425.33 368.43,-415.07"/>
<polygon fill="#63b8ff" stroke="#63b8ff" points="462.58,-451.01 473.18,-450.94 464.85,-444.39 462.58,-451.01"/>
</a>
</g>
</g>
<!-- Node9 -->
<g id="Node000009" class="node">
<title>Node9</title>
<g id="a_Node000009"><a xlink:href="CasADiLoader-util_8hpp.html" target="_top" xlink:title=" ">
<polygon fill="white" stroke="#666666" points="410.26,-184 238.26,-184 238.26,-143 410.26,-143 410.26,-184"/>
<text text-anchor="start" x="246.26" y="-172" font-family="Helvetica,sans-Serif" font-size="10.00">src/interop/casadi</text>
<text text-anchor="start" x="246.26" y="-161" font-family="Helvetica,sans-Serif" font-size="10.00">/include/alpaqa/implementation</text>
<text text-anchor="middle" x="324.26" y="-150" font-family="Helvetica,sans-Serif" font-size="10.00">/casadi/CasADiLoader&#45;util.hpp</text>
</a>
</g>
</g>
<!-- Node2&#45;&gt;Node9 -->
<g id="edge20_Node000002_Node000009" class="edge">
<title>Node2&#45;&gt;Node9</title>
<g id="a_edge20_Node000002_Node000009"><a xlink:title=" ">
<path fill="none" stroke="#63b8ff" d="M451.58,-461.97C374.6,-457.01 249.96,-444.55 215.26,-415 146.97,-356.85 111.19,-293.03 163.26,-220 180.68,-195.57 209.6,-181.78 238.15,-174.05"/>
<polygon fill="#63b8ff" stroke="#63b8ff" points="451.45,-465.47 461.64,-462.59 451.88,-458.48 451.45,-465.47"/>
</a>
</g>
</g>
<!-- Node15 -->
<g id="Node000015" class="node">
<title>Node15</title>
<g id="a_Node000015"><a xlink:href="casadi-external-function_8cpp.html" target="_top" xlink:title=" ">
<polygon fill="white" stroke="#666666" points="285.76,-261 172.76,-261 172.76,-220 285.76,-220 285.76,-261"/>
<text text-anchor="start" x="180.76" y="-249" font-family="Helvetica,sans-Serif" font-size="10.00">src/interop/casadi</text>
<text text-anchor="start" x="180.76" y="-238" font-family="Helvetica,sans-Serif" font-size="10.00">/src/casadi&#45;external</text>
<text text-anchor="middle" x="229.26" y="-227" font-family="Helvetica,sans-Serif" font-size="10.00">&#45;function.cpp</text>
</a>
</g>
</g>
<!-- Node2&#45;&gt;Node15 -->
<g id="edge21_Node000002_Node000015" class="edge">
<title>Node2&#45;&gt;Node15</title>
<g id="a_edge21_Node000002_Node000015"><a xlink:title=" ">
<path fill="none" stroke="#63b8ff" d="M451.12,-462.31C378.75,-457.79 266.57,-445.87 239.26,-415 201.08,-371.84 214.3,-296.5 223.48,-261.03"/>
<polygon fill="#63b8ff" stroke="#63b8ff" points="451.31,-465.83 461.5,-462.93 451.72,-458.84 451.31,-465.83"/>
</a>
</g>
</g>
<!-- Node16 -->
<g id="Node000016" class="node">
<title>Node16</title>
<g id="a_Node000016"><a xlink:href="cutest-functions_8hpp.html" target="_top" xlink:title=" ">
<polygon fill="white" stroke="#666666" points="810.76,-409.5 673.76,-409.5 673.76,-379.5 810.76,-379.5 810.76,-409.5"/>
<text text-anchor="start" x="681.76" y="-397.5" font-family="Helvetica,sans-Serif" font-size="10.00">src/interop/cutest</text>
<text text-anchor="middle" x="742.26" y="-386.5" font-family="Helvetica,sans-Serif" font-size="10.00">/src/cutest&#45;functions.hpp</text>
</a>
</g>
</g>
<!-- Node2&#45;&gt;Node16 -->
<g id="edge22_Node000002_Node000016" class="edge">
<title>Node2&#45;&gt;Node16</title>
<g id="a_edge22_Node000002_Node000016"><a xlink:title=" ">
<path fill="none" stroke="#63b8ff" d="M569.97,-448.02C608.71,-436.21 659.74,-420.65 696.19,-409.54"/>
<polygon fill="#63b8ff" stroke="#63b8ff" points="568.94,-444.67 560.4,-450.94 570.98,-451.37 568.94,-444.67"/>
</a>
</g>
</g>
<!-- Node2&#45;&gt;Node17 -->
<g id="edge24_Node000002_Node000017" class="edge">
<title>Node2&#45;&gt;Node17</title>
<g id="a_edge24_Node000002_Node000017"><a xlink:title=" ">
<path fill="none" stroke="#63b8ff" d="M577.19,-461.94C655.63,-456.93 783.82,-444.39 820.26,-415 845.9,-394.31 854.3,-353.89 857.01,-332.52"/>
<polygon fill="#63b8ff" stroke="#63b8ff" points="576.71,-458.47 566.94,-462.57 577.14,-465.45 576.71,-458.47"/>
</a>
</g>
</g>
<!-- Node18 -->
<g id="Node000018" class="node">
<title>Node18</title>
<g id="a_Node000018"><a xlink:href="dl-problem_8hpp.html" target="_top" xlink:title=" ">
<polygon fill="white" stroke="#666666" points="655.26,-409.5 513.26,-409.5 513.26,-379.5 655.26,-379.5 655.26,-409.5"/>
<text text-anchor="start" x="521.26" y="-397.5" font-family="Helvetica,sans-Serif" font-size="10.00">src/interop/dl/include</text>
<text text-anchor="middle" x="584.26" y="-386.5" font-family="Helvetica,sans-Serif" font-size="10.00">/alpaqa/dl/dl&#45;problem.hpp</text>
</a>
</g>
</g>
<!-- Node2&#45;&gt;Node18 -->
<g id="edge25_Node000002_Node000018" class="edge">
<title>Node2&#45;&gt;Node18</title>
<g id="a_edge25_Node000002_Node000018"><a xlink:title=" ">
<path fill="none" stroke="#63b8ff" d="M535.74,-443.67C546.91,-432.58 560.25,-419.34 570.11,-409.54"/>
<polygon fill="#63b8ff" stroke="#63b8ff" points="533.06,-441.41 528.42,-450.94 537.99,-446.37 533.06,-441.41"/>
</a>
</g>
</g>
<!-- Node4&#45;&gt;Node5 -->
<g id="edge4_Node000004_Node000005" class="edge">
<title>Node4&#45;&gt;Node5</title>
<g id="a_edge4_Node000004_Node000005"><a xlink:title=" ">
<path fill="none" stroke="#63b8ff" d="M317.95,-363.98C319.92,-355.28 322.03,-345.98 323.82,-338.07"/>
<polygon fill="#63b8ff" stroke="#63b8ff" points="314.52,-363.27 315.73,-373.79 321.35,-364.82 314.52,-363.27"/>
</a>
</g>
</g>
<!-- Node6 -->
<g id="Node000006" class="node">
<title>Node6</title>
<g id="a_Node000006"><a xlink:href="CasADiFunctionWrapper_8hpp.html" target="_top" xlink:title=" ">
<polygon fill="white" stroke="#666666" points="462.26,-261 304.26,-261 304.26,-220 462.26,-220 462.26,-261"/>
<text text-anchor="start" x="312.26" y="-249" font-family="Helvetica,sans-Serif" font-size="10.00">src/interop/casadi</text>
<text text-anchor="start" x="312.26" y="-238" font-family="Helvetica,sans-Serif" font-size="10.00">/include/alpaqa/casadi</text>
<text text-anchor="middle" x="383.26" y="-227" font-family="Helvetica,sans-Serif" font-size="10.00">/CasADiFunctionWrapper.hpp</text>
</a>
</g>
</g>
<!-- Node5&#45;&gt;Node6 -->
<g id="edge5_Node000005_Node000006" class="edge">
<title>Node5&#45;&gt;Node6</title>
<g id="a_edge5_Node000005_Node000006"><a xlink:title=" ">
<path fill="none" stroke="#63b8ff" d="M348.67,-288.67C355.39,-279.5 362.73,-269.5 368.91,-261.07"/>
<polygon fill="#63b8ff" stroke="#63b8ff" points="345.8,-286.66 342.71,-296.79 351.45,-290.8 345.8,-286.66"/>
</a>
</g>
</g>
<!-- Node5&#45;&gt;Node13 -->
<g id="edge15_Node000005_Node000013" class="edge">
<title>Node5&#45;&gt;Node13</title>
<g id="a_edge15_Node000005_Node000013"><a xlink:title=" ">
<path fill="none" stroke="#63b8ff" d="M404.33,-294.13C441.32,-283.25 485.26,-270.32 520.33,-260.01"/>
<polygon fill="#63b8ff" stroke="#63b8ff" points="403.2,-290.81 394.59,-296.99 405.17,-297.53 403.2,-290.81"/>
</a>
</g>
</g>
<!-- Node5&#45;&gt;Node15 -->
<g id="edge19_Node000005_Node000015" class="edge">
<title>Node5&#45;&gt;Node15</title>
<g id="a_edge19_Node000005_Node000015"><a xlink:title=" ">
<path fill="none" stroke="#63b8ff" d="M294.36,-290.82C281.55,-281.11 267.19,-270.24 255.23,-261.17"/>
<polygon fill="#63b8ff" stroke="#63b8ff" points="292.42,-293.74 302.51,-296.99 296.65,-288.16 292.42,-293.74"/>
</a>
</g>
</g>
<!-- Node6&#45;&gt;Node7 -->
<g id="edge6_Node000006_Node000007" class="edge">
<title>Node6&#45;&gt;Node7</title>
<g id="a_edge6_Node000006_Node000007"><a xlink:title=" ">
<path fill="none" stroke="#63b8ff" d="M294.39,-218.04C271.69,-209.83 248.34,-198.76 229.26,-184 202.61,-163.38 182.77,-128.93 172.11,-107.25"/>
<polygon fill="#63b8ff" stroke="#63b8ff" points="293.47,-221.43 304.07,-221.39 295.76,-214.81 293.47,-221.43"/>
</a>
</g>
</g>
<!-- Node6&#45;&gt;Node9 -->
<g id="edge8_Node000006_Node000009" class="edge">
<title>Node6&#45;&gt;Node9</title>
<g id="a_edge8_Node000006_Node000009"><a xlink:title=" ">
<path fill="none" stroke="#63b8ff" d="M361.37,-211.67C354.15,-202.5 346.28,-192.5 339.66,-184.07"/>
<polygon fill="#63b8ff" stroke="#63b8ff" points="358.82,-214.1 367.76,-219.79 364.33,-209.77 358.82,-214.1"/>
</a>
</g>
</g>
<!-- Node10 -->
<g id="Node000010" class="node">
<title>Node10</title>
<g id="a_Node000010"><a xlink:href="CasADiProblem_8tpp.html" target="_top" xlink:title=" ">
<polygon fill="white" stroke="#666666" points="456.26,-107 284.26,-107 284.26,-66 456.26,-66 456.26,-107"/>
<text text-anchor="start" x="292.26" y="-95" font-family="Helvetica,sans-Serif" font-size="10.00">src/interop/casadi</text>
<text text-anchor="start" x="292.26" y="-84" font-family="Helvetica,sans-Serif" font-size="10.00">/include/alpaqa/implementation</text>
<text text-anchor="middle" x="370.26" y="-73" font-family="Helvetica,sans-Serif" font-size="10.00">/casadi/CasADiProblem.tpp</text>
</a>
</g>
</g>
<!-- Node6&#45;&gt;Node10 -->
<g id="edge13_Node000006_Node000010" class="edge">
<title>Node6&#45;&gt;Node10</title>
<g id="a_edge13_Node000006_Node000010"><a xlink:title=" ">
<path fill="none" stroke="#63b8ff" d="M405.8,-211.57C411.29,-203.19 416.41,-193.64 419.26,-184 424.43,-166.53 425.71,-160.04 419.26,-143 414.07,-129.29 403.79,-116.79 393.98,-107.13"/>
<polygon fill="#63b8ff" stroke="#63b8ff" points="402.88,-209.63 400.01,-219.83 408.61,-213.65 402.88,-209.63"/>
</a>
</g>
</g>
<!-- Node12 -->
<g id="Node000012" class="node">
<title>Node12</title>
<g id="a_Node000012"><a xlink:href="CompleteCasADiProblem_8cpp.html" target="_top" xlink:title=" ">
<polygon fill="white" stroke="#666666" points="654.26,-101.5 474.26,-101.5 474.26,-71.5 654.26,-71.5 654.26,-101.5"/>
<text text-anchor="start" x="482.26" y="-89.5" font-family="Helvetica,sans-Serif" font-size="10.00">src/interop/casadi</text>
<text text-anchor="middle" x="564.26" y="-78.5" font-family="Helvetica,sans-Serif" font-size="10.00">/src/CompleteCasADiProblem.cpp</text>
</a>
</g>
</g>
<!-- Node6&#45;&gt;Node12 -->
<g id="edge14_Node000006_Node000012" class="edge">
<title>Node6&#45;&gt;Node12</title>
<g id="a_edge14_Node000006_Node000012"><a xlink:title=" ">
<path fill="none" stroke="#63b8ff" d="M414.37,-213.38C452.92,-181 517.22,-127 547.51,-101.57"/>
<polygon fill="#63b8ff" stroke="#63b8ff" points="411.96,-210.83 406.55,-219.94 416.46,-216.19 411.96,-210.83"/>
</a>
</g>
</g>
<!-- Node8 -->
<g id="Node000008" class="node">
<title>Node8</title>
<g id="a_Node000008"><a xlink:href="CasADiControlProblem_8cpp.html" target="_top" xlink:title=" ">
<polygon fill="white" stroke="#666666" points="247.26,-30 79.26,-30 79.26,0 247.26,0 247.26,-30"/>
<text text-anchor="start" x="87.26" y="-18" font-family="Helvetica,sans-Serif" font-size="10.00">src/interop/casadi</text>
<text text-anchor="middle" x="163.26" y="-7" font-family="Helvetica,sans-Serif" font-size="10.00">/src/CasADiControlProblem.cpp</text>
</a>
</g>
</g>
<!-- Node7&#45;&gt;Node8 -->
<g id="edge7_Node000007_Node000008" class="edge">
<title>Node7&#45;&gt;Node8</title>
<g id="a_edge7_Node000007_Node000008"><a xlink:title=" ">
<path fill="none" stroke="#63b8ff" d="M163.26,-55.66C163.26,-46.76 163.26,-37.42 163.26,-30.04"/>
<polygon fill="#63b8ff" stroke="#63b8ff" points="159.76,-55.77 163.26,-65.77 166.76,-55.77 159.76,-55.77"/>
</a>
</g>
</g>
<!-- Node9&#45;&gt;Node7 -->
<g id="edge9_Node000009_Node000007" class="edge">
<title>Node9&#45;&gt;Node7</title>
<g id="a_edge9_Node000009_Node000007"><a xlink:title=" ">
<path fill="none" stroke="#63b8ff" d="M273.22,-138.72C251.3,-128.51 226.01,-116.73 205.21,-107.04"/>
<polygon fill="#63b8ff" stroke="#63b8ff" points="271.84,-141.94 282.38,-142.99 274.79,-135.6 271.84,-141.94"/>
</a>
</g>
</g>
<!-- Node9&#45;&gt;Node10 -->
<g id="edge10_Node000009_Node000010" class="edge">
<title>Node9&#45;&gt;Node10</title>
<g id="a_edge10_Node000009_Node000010"><a xlink:title=" ">
<path fill="none" stroke="#63b8ff" d="M341.67,-134.11C347.2,-125.09 353.19,-115.33 358.25,-107.07"/>
<polygon fill="#63b8ff" stroke="#63b8ff" points="338.59,-132.44 336.35,-142.79 344.56,-136.1 338.59,-132.44"/>
</a>
</g>
</g>
<!-- Node9&#45;&gt;Node12 -->
<g id="edge12_Node000009_Node000012" class="edge">
<title>Node9&#45;&gt;Node12</title>
<g id="a_edge12_Node000009_Node000012"><a xlink:title=" ">
<path fill="none" stroke="#63b8ff" d="M396.38,-139.96C436.29,-127.49 484.65,-112.38 519.2,-101.58"/>
<polygon fill="#63b8ff" stroke="#63b8ff" points="395.19,-136.67 386.69,-142.99 397.28,-143.35 395.19,-136.67"/>
</a>
</g>
</g>
<!-- Node11 -->
<g id="Node000011" class="node">
<title>Node11</title>
<g id="a_Node000011"><a xlink:href="CasADiProblem_8cpp.html" target="_top" xlink:title=" ">
<polygon fill="white" stroke="#666666" points="436.76,-30 303.76,-30 303.76,0 436.76,0 436.76,-30"/>
<text text-anchor="start" x="311.76" y="-18" font-family="Helvetica,sans-Serif" font-size="10.00">src/interop/casadi</text>
<text text-anchor="middle" x="370.26" y="-7" font-family="Helvetica,sans-Serif" font-size="10.00">/src/CasADiProblem.cpp</text>
</a>
</g>
</g>
<!-- Node10&#45;&gt;Node11 -->
<g id="edge11_Node000010_Node000011" class="edge">
<title>Node10&#45;&gt;Node11</title>
<g id="a_edge11_Node000010_Node000011"><a xlink:title=" ">
<path fill="none" stroke="#63b8ff" d="M370.26,-55.66C370.26,-46.76 370.26,-37.42 370.26,-30.04"/>
<polygon fill="#63b8ff" stroke="#63b8ff" points="366.76,-55.77 370.26,-65.77 373.76,-55.77 366.76,-55.77"/>
</a>
</g>
</g>
<!-- Node13&#45;&gt;Node10 -->
<g id="edge18_Node000013_Node000010" class="edge">
<title>Node13&#45;&gt;Node10</title>
<g id="a_edge18_Node000013_Node000010"><a xlink:title=" ">
<path fill="none" stroke="#63b8ff" d="M547.54,-214.01C505.38,-183.93 436.18,-134.55 397.9,-107.23"/>
<polygon fill="#63b8ff" stroke="#63b8ff" points="545.68,-216.98 555.85,-219.94 549.74,-211.28 545.68,-216.98"/>
</a>
</g>
</g>
<!-- Node14 -->
<g id="Node000014" class="node">
<title>Node14</title>
<g id="a_Node000014"><a xlink:href="CompleteCasADiProblem_8hpp.html" target="_top" xlink:title=" ">
<polygon fill="white" stroke="#666666" points="706.26,-184 542.26,-184 542.26,-143 706.26,-143 706.26,-184"/>
<text text-anchor="start" x="550.26" y="-172" font-family="Helvetica,sans-Serif" font-size="10.00">src/interop/casadi</text>
<text text-anchor="start" x="550.26" y="-161" font-family="Helvetica,sans-Serif" font-size="10.00">/include/alpaqa/casadi</text>
<text text-anchor="middle" x="624.26" y="-150" font-family="Helvetica,sans-Serif" font-size="10.00">/CompleteCasADiProblem.hpp</text>
</a>
</g>
</g>
<!-- Node13&#45;&gt;Node14 -->
<g id="edge16_Node000013_Node000014" class="edge">
<title>Node13&#45;&gt;Node14</title>
<g id="a_edge16_Node000013_Node000014"><a xlink:title=" ">
<path fill="none" stroke="#63b8ff" d="M598.93,-210.83C603.82,-201.89 609.09,-192.24 613.56,-184.07"/>
<polygon fill="#63b8ff" stroke="#63b8ff" points="595.76,-209.34 594.03,-219.79 601.9,-212.7 595.76,-209.34"/>
</a>
</g>
</g>
<!-- Node14&#45;&gt;Node12 -->
<g id="edge17_Node000014_Node000012" class="edge">
<title>Node14&#45;&gt;Node12</title>
<g id="a_edge17_Node000014_Node000012"><a xlink:title=" ">
<path fill="none" stroke="#63b8ff" d="M602.19,-134.92C593.22,-123.7 583.22,-111.21 575.75,-101.86"/>
<polygon fill="#63b8ff" stroke="#63b8ff" points="599.51,-137.17 608.49,-142.79 604.98,-132.8 599.51,-137.17"/>
</a>
</g>
</g>
<!-- Node16&#45;&gt;Node17 -->
<g id="edge23_Node000016_Node000017" class="edge">
<title>Node16&#45;&gt;Node17</title>
<g id="a_edge23_Node000016_Node000017"><a xlink:title=" ">
<path fill="none" stroke="#63b8ff" d="M772.57,-373.9C792.64,-360.93 818.5,-344.21 836.54,-332.54"/>
<polygon fill="#63b8ff" stroke="#63b8ff" points="770.58,-371.02 764.08,-379.39 774.38,-376.9 770.58,-371.02"/>
</a>
</g>
</g>
<!-- Node19 -->
<g id="Node000019" class="node">
<title>Node19</title>
<g id="a_Node000019"><a xlink:href="dl-problem_8cpp.html" target="_top" xlink:title=" ">
<polygon fill="white" stroke="#666666" points="633.26,-332.5 535.26,-332.5 535.26,-302.5 633.26,-302.5 633.26,-332.5"/>
<text text-anchor="start" x="543.26" y="-320.5" font-family="Helvetica,sans-Serif" font-size="10.00">src/interop/dl/src</text>
<text text-anchor="middle" x="584.26" y="-309.5" font-family="Helvetica,sans-Serif" font-size="10.00">/dl&#45;problem.cpp</text>
</a>
</g>
</g>
<!-- Node18&#45;&gt;Node19 -->
<g id="edge26_Node000018_Node000019" class="edge">
<title>Node18&#45;&gt;Node19</title>
<g id="a_edge26_Node000018_Node000019"><a xlink:title=" ">
<path fill="none" stroke="#63b8ff" d="M584.26,-369.04C584.26,-356.95 584.26,-342.79 584.26,-332.54"/>
<polygon fill="#63b8ff" stroke="#63b8ff" points="580.76,-369.39 584.26,-379.39 587.76,-369.39 580.76,-369.39"/>
</a>
</g>
</g>
<!-- Node25&#45;&gt;Node7 -->
<g id="edge33_Node000025_Node000007" class="edge">
<title>Node25&#45;&gt;Node7</title>
<g id="a_edge33_Node000025_Node000007"><a xlink:title=" ">
<path fill="none" stroke="#63b8ff" d="M127.41,-134.67C134.38,-125.5 141.98,-115.5 148.38,-107.07"/>
<polygon fill="#63b8ff" stroke="#63b8ff" points="124.5,-132.72 121.24,-142.79 130.07,-136.95 124.5,-132.72"/>
</a>
</g>
</g>
<!-- Node26&#45;&gt;Node17 -->
<g id="edge38_Node000026_Node000017" class="edge">
<title>Node26&#45;&gt;Node17</title>
<g id="a_edge38_Node000026_Node000017"><a xlink:title=" ">
<path fill="none" stroke="#63b8ff" d="M930.22,-368.01C913.07,-356.22 893.35,-342.65 878.9,-332.7"/>
<polygon fill="#63b8ff" stroke="#63b8ff" points="928.68,-371.21 938.91,-373.99 932.65,-365.44 928.68,-371.21"/>
</a>
</g>
</g>
</g>
</svg>
