<?xml version="1.0" encoding="UTF-8" standalone="no"?>
<!DOCTYPE svg PUBLIC "-//W3C//DTD SVG 1.1//EN"
 "http://www.w3.org/Graphics/SVG/1.1/DTD/svg11.dtd">
<!-- Generated by graphviz version 2.43.0 (0)
 -->
<!-- Title: set_param Pages: 1 -->
<svg width="868pt" height="543pt"
 viewBox="0.00 0.00 868.00 543.00" xmlns="http://www.w3.org/2000/svg" xmlns:xlink="http://www.w3.org/1999/xlink">
<g id="graph0" class="graph" transform="scale(1 1) rotate(0) translate(4 539)">
<title>set_param</title>
<!-- Node1 -->
<g id="Node000001" class="node">
<title>Node1</title>
<g id="a_Node000001"><a xlink:title="Update/overwrite the first argument based on the JSON object j.">
<polygon fill="#999999" stroke="#666666" points="860,-366 792,-366 792,-347 860,-347 860,-366"/>
<text text-anchor="middle" x="826" y="-354" font-family="Helvetica,sans-Serif" font-size="10.00">set_param</text>
</a>
</g>
</g>
<!-- Node2 -->
<g id="Node000002" class="node">
<title>Node2</title>
<g id="a_Node000002"><a xlink:href="structalpaqa_1_1params_1_1attribute__accessor_3_01json_01_4.html#a0a5b45f6960fbd1a33565256fa3570c6" target="_top" xlink:title=" ">
<polygon fill="white" stroke="#666666" points="756,-529.5 616,-529.5 616,-499.5 756,-499.5 756,-529.5"/>
<text text-anchor="start" x="624" y="-517.5" font-family="Helvetica,sans-Serif" font-size="10.00">alpaqa::params::attribute</text>
<text text-anchor="middle" x="686" y="-506.5" font-family="Helvetica,sans-Serif" font-size="10.00">_accessor&lt; json &gt;::make</text>
</a>
</g>
</g>
<!-- Node1&#45;&gt;Node2 -->
<g id="edge1_Node000001_Node000002" class="edge">
<title>Node1&#45;&gt;Node2</title>
<g id="a_edge1_Node000001_Node000002"><a xlink:title=" ">
<path fill="none" stroke="#63b8ff" d="M820.02,-375.9C811.62,-404.85 791.92,-459.31 756,-490.5 752.07,-493.91 747.63,-496.84 742.95,-499.36"/>
<polygon fill="#63b8ff" stroke="#63b8ff" points="823.42,-376.72 822.7,-366.15 816.67,-374.86 823.42,-376.72"/>
</a>
</g>
</g>
<!-- Node3 -->
<g id="Node000003" class="node">
<title>Node3</title>
<g id="a_Node000003"><a xlink:href="structalpaqa_1_1params_1_1attribute__accessor_3_01ParamString_01_4.html#a0a5b45f6960fbd1a33565256fa3570c6" target="_top" xlink:title=" ">
<polygon fill="white" stroke="#666666" points="756,-481 616,-481 616,-440 756,-440 756,-481"/>
<text text-anchor="start" x="624" y="-469" font-family="Helvetica,sans-Serif" font-size="10.00">alpaqa::params::attribute</text>
<text text-anchor="start" x="624" y="-458" font-family="Helvetica,sans-Serif" font-size="10.00">_accessor&lt; ParamString</text>
<text text-anchor="middle" x="686" y="-447" font-family="Helvetica,sans-Serif" font-size="10.00"> &gt;::make</text>
</a>
</g>
</g>
<!-- Node1&#45;&gt;Node3 -->
<g id="edge2_Node000001_Node000003" class="edge">
<title>Node1&#45;&gt;Node3</title>
<g id="a_edge2_Node000001_Node000003"><a xlink:title=" ">
<path fill="none" stroke="#63b8ff" d="M812.21,-374.33C799.51,-390.96 778.72,-415.54 756,-431.5 751.64,-434.56 746.91,-437.39 742.03,-439.97"/>
<polygon fill="#63b8ff" stroke="#63b8ff" points="815.23,-376.13 818.38,-366.01 809.61,-371.95 815.23,-376.13"/>
</a>
</g>
</g>
<!-- Node4 -->
<g id="Node000004" class="node">
<title>Node4</title>
<g id="a_Node000004"><a xlink:href="namespacealpaqa_1_1params.html#af8d85f5413c4507303b00e5fb7279aea" target="_top" xlink:title=" ">
<polygon fill="white" stroke="#666666" points="720,-422 652,-422 652,-403 720,-403 720,-422"/>
<text text-anchor="middle" x="686" y="-410" font-family="Helvetica,sans-Serif" font-size="10.00">set_param</text>
</a>
</g>
</g>
<!-- Node1&#45;&gt;Node4 -->
<g id="edge3_Node000001_Node000004" class="edge">
<title>Node1&#45;&gt;Node4</title>
<g id="a_edge3_Node000001_Node000004"><a xlink:title=" ">
<path fill="none" stroke="#63b8ff" d="M801.42,-371.4C788.41,-379.12 771.74,-388.23 756,-394.5 744.61,-399.04 731.72,-402.76 720.18,-405.61"/>
<polygon fill="#63b8ff" stroke="#63b8ff" points="803.45,-374.26 810.18,-366.08 799.82,-368.28 803.45,-374.26"/>
</a>
</g>
</g>
<!-- Node5 -->
<g id="Node000005" class="node">
<title>Node5</title>
<g id="a_Node000005"><a xlink:href="namespacealpaqa_1_1params.html#a257fd29e6f4f447cb00eb1f8affdebec" target="_top" xlink:title=" ">
<polygon fill="white" stroke="#666666" points="720,-385 652,-385 652,-366 720,-366 720,-385"/>
<text text-anchor="middle" x="686" y="-373" font-family="Helvetica,sans-Serif" font-size="10.00">set_param</text>
</a>
</g>
</g>
<!-- Node1&#45;&gt;Node5 -->
<g id="edge4_Node000001_Node000005" class="edge">
<title>Node1&#45;&gt;Node5</title>
<g id="a_edge4_Node000001_Node000005"><a xlink:title=" ">
<path fill="none" stroke="#63b8ff" d="M781.9,-362.43C762.01,-365.17 738.77,-368.37 720.26,-370.92"/>
<polygon fill="#63b8ff" stroke="#63b8ff" points="782.52,-365.88 791.95,-361.05 781.56,-358.95 782.52,-365.88"/>
</a>
</g>
</g>
<!-- Node6 -->
<g id="Node000006" class="node">
<title>Node6</title>
<g id="a_Node000006"><a xlink:href="namespacealpaqa_1_1params.html#a09b0cea46e22a098adb003df71cfbe14" target="_top" xlink:title=" ">
<polygon fill="white" stroke="#666666" points="720,-348 652,-348 652,-329 720,-329 720,-348"/>
<text text-anchor="middle" x="686" y="-336" font-family="Helvetica,sans-Serif" font-size="10.00">set_param</text>
</a>
</g>
</g>
<!-- Node1&#45;&gt;Node6 -->
<g id="edge5_Node000001_Node000006" class="edge">
<title>Node1&#45;&gt;Node6</title>
<g id="a_edge5_Node000001_Node000006"><a xlink:title=" ">
<path fill="none" stroke="#63b8ff" d="M781.9,-350.88C762.01,-348.28 738.77,-345.25 720.26,-342.84"/>
<polygon fill="#63b8ff" stroke="#63b8ff" points="781.58,-354.37 791.95,-352.19 782.48,-347.42 781.58,-354.37"/>
</a>
</g>
</g>
<!-- Node7 -->
<g id="Node000007" class="node">
<title>Node7</title>
<g id="a_Node000007"><a xlink:href="namespacealpaqa_1_1params.html#ac4f7014f0993230c417d5f192b784f6a" target="_top" xlink:title=" ">
<polygon fill="white" stroke="#666666" points="720,-311 652,-311 652,-292 720,-292 720,-311"/>
<text text-anchor="middle" x="686" y="-299" font-family="Helvetica,sans-Serif" font-size="10.00">set_param</text>
</a>
</g>
</g>
<!-- Node1&#45;&gt;Node7 -->
<g id="edge6_Node000001_Node000007" class="edge">
<title>Node1&#45;&gt;Node7</title>
<g id="a_edge6_Node000001_Node000007"><a xlink:title=" ">
<path fill="none" stroke="#63b8ff" d="M800.27,-341.97C787.38,-334.81 771.18,-326.47 756,-320.5 744.55,-316 731.64,-312.14 720.11,-309.09"/>
<polygon fill="#63b8ff" stroke="#63b8ff" points="798.58,-345.03 809.01,-346.91 802.03,-338.94 798.58,-345.03"/>
</a>
</g>
</g>
<!-- Node8 -->
<g id="Node000008" class="node">
<title>Node8</title>
<g id="a_Node000008"><a xlink:href="classOptions.html#a8ca2e3915e8acf3cd04e02180e66e9ab" target="_top" xlink:title=" ">
<polygon fill="white" stroke="#666666" points="580,-254 463,-254 463,-235 580,-235 580,-254"/>
<text text-anchor="middle" x="521.5" y="-242" font-family="Helvetica,sans-Serif" font-size="10.00">Options::set_params</text>
</a>
</g>
</g>
<!-- Node1&#45;&gt;Node8 -->
<g id="edge7_Node000001_Node000008" class="edge">
<title>Node1&#45;&gt;Node8</title>
<g id="a_edge7_Node000001_Node000008"><a xlink:title=" ">
<path fill="none" stroke="#63b8ff" d="M813.05,-338.22C800.84,-321.16 780.28,-296.44 756,-283.5 701.23,-254.32 629.83,-245.99 580.48,-244.07"/>
<polygon fill="#63b8ff" stroke="#63b8ff" points="810.39,-340.53 818.94,-346.79 816.16,-336.57 810.39,-340.53"/>
</a>
</g>
</g>
<!-- Node22 -->
<g id="Node000022" class="node">
<title>Node22</title>
<g id="a_Node000022"><a xlink:href="namespacealpaqa_1_1params.html#abadc98653193fbd05b658d62b34f75e7" target="_top" xlink:title="Overwrites t based on the options that start with prefix.">
<polygon fill="white" stroke="#666666" points="723,-235 649,-235 649,-216 723,-216 723,-235"/>
<text text-anchor="middle" x="686" y="-223" font-family="Helvetica,sans-Serif" font-size="10.00">set_params</text>
</a>
</g>
</g>
<!-- Node1&#45;&gt;Node22 -->
<g id="edge30_Node000001_Node000022" class="edge">
<title>Node1&#45;&gt;Node22</title>
<g id="a_edge30_Node000001_Node000022"><a xlink:title=" ">
<path fill="none" stroke="#63b8ff" d="M817.49,-337.65C807.09,-313.86 786.12,-273.19 756,-249.5 746.53,-242.05 734.58,-236.83 723.31,-233.2"/>
<polygon fill="#63b8ff" stroke="#63b8ff" points="814.31,-339.12 821.4,-346.99 820.76,-336.42 814.31,-339.12"/>
</a>
</g>
</g>
<!-- Node9 -->
<g id="Node000009" class="node">
<title>Node9</title>
<g id="a_Node000009"><a xlink:href="options_8hpp.html#a91fca5414dbe50bec5104c59d9ebda11" target="_top" xlink:title=" ">
<polygon fill="white" stroke="#666666" points="427,-254 353,-254 353,-235 427,-235 427,-254"/>
<text text-anchor="middle" x="390" y="-242" font-family="Helvetica,sans-Serif" font-size="10.00">set_params</text>
</a>
</g>
</g>
<!-- Node8&#45;&gt;Node9 -->
<g id="edge8_Node000008_Node000009" class="edge">
<title>Node8&#45;&gt;Node9</title>
<g id="a_edge8_Node000008_Node000009"><a xlink:title=" ">
<path fill="none" stroke="#63b8ff" d="M452.93,-244.5C444.05,-244.5 435.25,-244.5 427.18,-244.5"/>
<polygon fill="#63b8ff" stroke="#63b8ff" points="452.95,-248 462.95,-244.5 452.95,-241 452.95,-248"/>
</a>
</g>
</g>
<!-- Node10 -->
<g id="Node000010" class="node">
<title>Node10</title>
<g id="a_Node000010"><a xlink:href="namespaceanonymous__namespace_02problem_8cpp_03.html#a1b79c8c67d4bc5eba618a86e8b0a7744" target="_top" xlink:title=" ">
<polygon fill="white" stroke="#666666" points="314,-517 179,-517 179,-476 314,-476 314,-517"/>
<text text-anchor="start" x="187" y="-505" font-family="Helvetica,sans-Serif" font-size="10.00">anonymous_namespace</text>
<text text-anchor="start" x="187" y="-494" font-family="Helvetica,sans-Serif" font-size="10.00">{problem::cpp}::get</text>
<text text-anchor="middle" x="246.5" y="-483" font-family="Helvetica,sans-Serif" font-size="10.00">_dl_flags</text>
</a>
</g>
</g>
<!-- Node9&#45;&gt;Node10 -->
<g id="edge9_Node000009_Node000010" class="edge">
<title>Node9&#45;&gt;Node10</title>
<g id="a_edge9_Node000009_Node000010"><a xlink:title=" ">
<path fill="none" stroke="#63b8ff" d="M387.4,-264.64C383.12,-306.19 367.98,-402.46 317,-461.5 312.23,-467.02 306.38,-471.77 300.12,-475.83"/>
<polygon fill="#63b8ff" stroke="#63b8ff" points="390.91,-264.72 388.34,-254.45 383.94,-264.08 390.91,-264.72"/>
</a>
</g>
</g>
<!-- Node11 -->
<g id="Node000011" class="node">
<title>Node11</title>
<g id="a_Node000011"><a xlink:href="alpaqa-driver_8cpp.html#a53c823aeddf0a1b037645504d26ee7cd" target="_top" xlink:title=" ">
<polygon fill="white" stroke="#666666" points="297,-419 196,-419 196,-400 297,-400 297,-419"/>
<text text-anchor="middle" x="246.5" y="-407" font-family="Helvetica,sans-Serif" font-size="10.00">get_output_paths</text>
</a>
</g>
</g>
<!-- Node9&#45;&gt;Node11 -->
<g id="edge11_Node000009_Node000011" class="edge">
<title>Node9&#45;&gt;Node11</title>
<g id="a_edge11_Node000009_Node000011"><a xlink:title=" ">
<path fill="none" stroke="#63b8ff" d="M384.99,-263.93C377.42,-295.58 357.97,-358.07 317,-391.5 311.21,-396.23 304.31,-399.73 297.15,-402.32"/>
<polygon fill="#63b8ff" stroke="#63b8ff" points="388.41,-264.65 387.19,-254.12 381.58,-263.12 388.41,-264.65"/>
</a>
</g>
</g>
<!-- Node12 -->
<g id="Node000012" class="node">
<title>Node12</title>
<g id="a_Node000012"><a xlink:href="alpaqa-driver_8cpp.html#ac0f2228420376f4db7e1274f2b41667c" target="_top" xlink:title=" ">
<polygon fill="white" stroke="#666666" points="90.5,-400 49.5,-400 49.5,-381 90.5,-381 90.5,-400"/>
<text text-anchor="middle" x="70" y="-388" font-family="Helvetica,sans-Serif" font-size="10.00">main</text>
</a>
</g>
</g>
<!-- Node9&#45;&gt;Node12 -->
<g id="edge19_Node000009_Node000012" class="edge">
<title>Node9&#45;&gt;Node12</title>
<g id="a_edge19_Node000009_Node000012"><a xlink:title=" ">
<path fill="none" stroke="#63b8ff" d="M388.08,-264.58C385.08,-303.97 372.18,-390.83 317,-428.5 243.47,-478.69 128.99,-423.5 87.07,-400.03"/>
<polygon fill="#63b8ff" stroke="#63b8ff" points="391.59,-264.59 388.72,-254.39 384.6,-264.15 391.59,-264.59"/>
</a>
</g>
</g>
<!-- Node13 -->
<g id="Node000013" class="node">
<title>Node13</title>
<g id="a_Node000013"><a xlink:href="alpaqa-driver_8cpp.html#a62667720f096806ed08c60e4207f8972" target="_top" xlink:title=" ">
<polygon fill="white" stroke="#666666" points="301,-382 192,-382 192,-363 301,-363 301,-382"/>
<text text-anchor="middle" x="246.5" y="-370" font-family="Helvetica,sans-Serif" font-size="10.00">get_output_stream</text>
</a>
</g>
</g>
<!-- Node9&#45;&gt;Node13 -->
<g id="edge13_Node000009_Node000013" class="edge">
<title>Node9&#45;&gt;Node13</title>
<g id="a_edge13_Node000009_Node000013"><a xlink:title=" ">
<path fill="none" stroke="#63b8ff" d="M381.68,-263.58C371.18,-288.36 349.45,-331.22 317,-354.5 312.24,-357.91 306.89,-360.68 301.31,-362.93"/>
<polygon fill="#63b8ff" stroke="#63b8ff" points="384.98,-264.75 385.5,-254.17 378.5,-262.12 384.98,-264.75"/>
</a>
</g>
</g>
<!-- Node14 -->
<g id="Node000014" class="node">
<title>Node14</title>
<g id="a_Node000014"><a xlink:href="alpaqa-driver_8cpp.html#a3430011226186bf05d5c2552270587b7" target="_top" xlink:title=" ">
<polygon fill="white" stroke="#666666" points="300,-345 193,-345 193,-326 300,-326 300,-345"/>
<text text-anchor="middle" x="246.5" y="-333" font-family="Helvetica,sans-Serif" font-size="10.00">get_solver_builder</text>
</a>
</g>
</g>
<!-- Node9&#45;&gt;Node14 -->
<g id="edge15_Node000009_Node000014" class="edge">
<title>Node9&#45;&gt;Node14</title>
<g id="a_edge15_Node000009_Node000014"><a xlink:title=" ">
<path fill="none" stroke="#63b8ff" d="M375.87,-262.57C362.79,-279.27 341.2,-303.55 317,-317.5 311.06,-320.92 304.47,-323.71 297.77,-325.97"/>
<polygon fill="#63b8ff" stroke="#63b8ff" points="378.98,-264.26 382.23,-254.18 373.4,-260.04 378.98,-264.26"/>
</a>
</g>
</g>
<!-- Node15 -->
<g id="Node000015" class="node">
<title>Node15</title>
<g id="a_Node000015"><a xlink:href="namespaceanonymous__namespace_02problem_8cpp_03.html#ab42fb3dc0421d6c6c1f45d753a95a2c4" target="_top" xlink:title=" ">
<polygon fill="white" stroke="#666666" points="314,-290 179,-290 179,-249 314,-249 314,-290"/>
<text text-anchor="start" x="187" y="-278" font-family="Helvetica,sans-Serif" font-size="10.00">anonymous_namespace</text>
<text text-anchor="start" x="187" y="-267" font-family="Helvetica,sans-Serif" font-size="10.00">{problem::cpp}::load</text>
<text text-anchor="middle" x="246.5" y="-256" font-family="Helvetica,sans-Serif" font-size="10.00">_initial_guess</text>
</a>
</g>
</g>
<!-- Node9&#45;&gt;Node15 -->
<g id="edge17_Node000009_Node000015" class="edge">
<title>Node9&#45;&gt;Node15</title>
<g id="a_edge17_Node000009_Node000015"><a xlink:title=" ">
<path fill="none" stroke="#63b8ff" d="M342.84,-252.66C333.63,-254.28 323.79,-256.02 314.05,-257.74"/>
<polygon fill="#63b8ff" stroke="#63b8ff" points="343.69,-256.06 352.93,-250.87 342.47,-249.17 343.69,-256.06"/>
</a>
</g>
</g>
<!-- Node16 -->
<g id="Node000016" class="node">
<title>Node16</title>
<g id="a_Node000016"><a xlink:href="alm-driver_8hpp.html#ae4ef291d9ec9d55ee804b5723ea2e641" target="_top" xlink:title=" ">
<polygon fill="white" stroke="#666666" points="298,-133 195,-133 195,-114 298,-114 298,-133"/>
<text text-anchor="middle" x="246.5" y="-121" font-family="Helvetica,sans-Serif" font-size="10.00">make_alm_solver</text>
</a>
</g>
</g>
<!-- Node9&#45;&gt;Node16 -->
<g id="edge20_Node000009_Node000016" class="edge">
<title>Node9&#45;&gt;Node16</title>
<g id="a_edge20_Node000009_Node000016"><a xlink:title=" ">
<path fill="none" stroke="#63b8ff" d="M380.88,-225.62C369.85,-202.26 347.91,-162.97 317,-141.5 311.37,-137.59 304.95,-134.53 298.34,-132.13"/>
<polygon fill="#63b8ff" stroke="#63b8ff" points="377.74,-227.16 385.05,-234.83 384.11,-224.28 377.74,-227.16"/>
</a>
</g>
</g>
<!-- Node17 -->
<g id="Node000017" class="node">
<title>Node17</title>
<g id="a_Node000017"><a xlink:href="namespaceanonymous__namespace_02fista-driver_8cpp_03.html#a479d5f0dacbf404f04a694bb1be6f6c5" target="_top" xlink:title=" ">
<polygon fill="white" stroke="#666666" points="138.5,-192 1.5,-192 1.5,-151 138.5,-151 138.5,-192"/>
<text text-anchor="start" x="9.5" y="-180" font-family="Helvetica,sans-Serif" font-size="10.00">anonymous_namespace</text>
<text text-anchor="start" x="9.5" y="-169" font-family="Helvetica,sans-Serif" font-size="10.00">{fista&#45;driver::cpp}</text>
<text text-anchor="middle" x="70" y="-158" font-family="Helvetica,sans-Serif" font-size="10.00">::make_fista_driver_impl</text>
</a>
</g>
</g>
<!-- Node9&#45;&gt;Node17 -->
<g id="edge24_Node000009_Node000017" class="edge">
<title>Node9&#45;&gt;Node17</title>
<g id="a_edge24_Node000009_Node000017"><a xlink:title=" ">
<path fill="none" stroke="#63b8ff" d="M342.71,-235.85C299.43,-227.55 233.09,-214.27 176,-200.5 163.87,-197.57 151.01,-194.23 138.61,-190.88"/>
<polygon fill="#63b8ff" stroke="#63b8ff" points="342.18,-239.31 352.66,-237.75 343.49,-232.43 342.18,-239.31"/>
</a>
</g>
</g>
<!-- Node18 -->
<g id="Node000018" class="node">
<title>Node18</title>
<g id="a_Node000018"><a xlink:href="namespaceanonymous__namespace_02panoc-driver_8cpp_03.html#ab2ca1091ea82102367666b62756cd7f6" target="_top" xlink:title=" ">
<polygon fill="white" stroke="#666666" points="140,-132 0,-132 0,-91 140,-91 140,-132"/>
<text text-anchor="start" x="8" y="-120" font-family="Helvetica,sans-Serif" font-size="10.00">anonymous_namespace</text>
<text text-anchor="start" x="8" y="-109" font-family="Helvetica,sans-Serif" font-size="10.00">{panoc&#45;driver::cpp}</text>
<text text-anchor="middle" x="70" y="-98" font-family="Helvetica,sans-Serif" font-size="10.00">::make_panoc_like_driver</text>
</a>
</g>
</g>
<!-- Node9&#45;&gt;Node18 -->
<g id="edge28_Node000009_Node000018" class="edge">
<title>Node9&#45;&gt;Node18</title>
<g id="a_edge28_Node000009_Node000018"><a xlink:title=" ">
<path fill="none" stroke="#63b8ff" d="M385.53,-224.79C378.75,-192.93 360.41,-130.99 317,-104.5 263.39,-71.78 190.23,-78.95 137.66,-90.98"/>
<polygon fill="#63b8ff" stroke="#63b8ff" points="382.12,-225.56 387.47,-234.7 388.99,-224.22 382.12,-225.56"/>
</a>
</g>
</g>
<!-- Node19 -->
<g id="Node000019" class="node">
<title>Node19</title>
<g id="a_Node000019"><a xlink:href="namespaceanonymous__namespace_02pantr-driver_8cpp_03.html#a39b6aa8ff07d8400d404f191bdccd499" target="_top" xlink:title=" ">
<polygon fill="white" stroke="#666666" points="139,-70 1,-70 1,-29 139,-29 139,-70"/>
<text text-anchor="start" x="9" y="-58" font-family="Helvetica,sans-Serif" font-size="10.00">anonymous_namespace</text>
<text text-anchor="start" x="9" y="-47" font-family="Helvetica,sans-Serif" font-size="10.00">{pantr&#45;driver::cpp}</text>
<text text-anchor="middle" x="70" y="-36" font-family="Helvetica,sans-Serif" font-size="10.00">::make_pantr_like_solver</text>
</a>
</g>
</g>
<!-- Node9&#45;&gt;Node19 -->
<g id="edge29_Node000009_Node000019" class="edge">
<title>Node9&#45;&gt;Node19</title>
<g id="a_edge29_Node000009_Node000019"><a xlink:title=" ">
<path fill="none" stroke="#63b8ff" d="M386.82,-224.79C381.72,-188.95 365.5,-113.5 317,-77.5 266.26,-39.84 192.68,-36.2 139.22,-39.92"/>
<polygon fill="#63b8ff" stroke="#63b8ff" points="383.38,-225.45 388.11,-234.93 390.32,-224.57 383.38,-225.45"/>
</a>
</g>
</g>
<!-- Node20 -->
<g id="Node000020" class="node">
<title>Node20</title>
<g id="a_Node000020"><a xlink:href="namespaceanonymous__namespace_02fista-driver_8cpp_03.html#a6f96d677b5961c6a4fcaa773f37ca65b" target="_top" xlink:title=" ">
<polygon fill="white" stroke="#666666" points="317,-192 176,-192 176,-151 317,-151 317,-192"/>
<text text-anchor="start" x="184" y="-180" font-family="Helvetica,sans-Serif" font-size="10.00">anonymous_namespace</text>
<text text-anchor="start" x="184" y="-169" font-family="Helvetica,sans-Serif" font-size="10.00">{fista&#45;driver::cpp}</text>
<text text-anchor="middle" x="246.5" y="-158" font-family="Helvetica,sans-Serif" font-size="10.00">::make_inner_fista_solver</text>
</a>
</g>
</g>
<!-- Node9&#45;&gt;Node20 -->
<g id="edge25_Node000009_Node000020" class="edge">
<title>Node9&#45;&gt;Node20</title>
<g id="a_edge25_Node000009_Node000020"><a xlink:title=" ">
<path fill="none" stroke="#63b8ff" d="M361.81,-229.99C348.36,-222.86 331.86,-214.16 317,-206.5 307.87,-201.79 298.04,-196.8 288.73,-192.1"/>
<polygon fill="#63b8ff" stroke="#63b8ff" points="360.53,-233.27 371,-234.88 363.81,-227.09 360.53,-233.27"/>
</a>
</g>
</g>
<!-- Node21 -->
<g id="Node000021" class="node">
<title>Node21</title>
<g id="a_Node000021"><a xlink:href="alm-driver_8hpp.html#a51b2a2cde56762bcb43a2f4da0913f98" target="_top" xlink:title=" ">
<polygon fill="white" stroke="#666666" points="301,-19 192,-19 192,0 301,0 301,-19"/>
<text text-anchor="middle" x="246.5" y="-7" font-family="Helvetica,sans-Serif" font-size="10.00">make_inner_solver</text>
</a>
</g>
</g>
<!-- Node9&#45;&gt;Node21 -->
<g id="edge27_Node000009_Node000021" class="edge">
<title>Node9&#45;&gt;Node21</title>
<g id="a_edge27_Node000009_Node000021"><a xlink:title=" ">
<path fill="none" stroke="#63b8ff" d="M387.89,-224.93C384.5,-183.77 370.94,-87.64 317,-33.5 310.69,-27.17 302.64,-22.51 294.26,-19.07"/>
<polygon fill="#63b8ff" stroke="#63b8ff" points="384.4,-225.26 388.6,-234.99 391.39,-224.77 384.4,-225.26"/>
</a>
</g>
</g>
<!-- Node10&#45;&gt;Node10 -->
<g id="edge10_Node000010_Node000010" class="edge">
<title>Node10&#45;&gt;Node10</title>
<g id="a_edge10_Node000010_Node000010"><a xlink:title=" ">
<path fill="none" stroke="#63b8ff" d="M270.93,-526.96C267.3,-531.74 259.15,-535 246.5,-535 226.25,-535 217.55,-526.65 220.4,-517.1"/>
<polygon fill="#63b8ff" stroke="#63b8ff" points="274.38,-527.54 272.6,-517.1 267.48,-526.37 274.38,-527.54"/>
</a>
</g>
</g>
<!-- Node11&#45;&gt;Node12 -->
<g id="edge12_Node000011_Node000012" class="edge">
<title>Node11&#45;&gt;Node12</title>
<g id="a_edge12_Node000011_Node000012"><a xlink:title=" ">
<path fill="none" stroke="#63b8ff" d="M185.92,-403.01C152.87,-399.41 113.91,-395.17 90.9,-392.67"/>
<polygon fill="#63b8ff" stroke="#63b8ff" points="185.64,-406.5 195.96,-404.11 186.4,-399.54 185.64,-406.5"/>
</a>
</g>
</g>
<!-- Node13&#45;&gt;Node12 -->
<g id="edge14_Node000013_Node000012" class="edge">
<title>Node13&#45;&gt;Node12</title>
<g id="a_edge14_Node000013_Node000012"><a xlink:title=" ">
<path fill="none" stroke="#63b8ff" d="M181.48,-379.1C149.37,-382.42 112.74,-386.19 90.76,-388.46"/>
<polygon fill="#63b8ff" stroke="#63b8ff" points="182.13,-382.56 191.72,-378.05 181.41,-375.59 182.13,-382.56"/>
</a>
</g>
</g>
<!-- Node14&#45;&gt;Node12 -->
<g id="edge16_Node000014_Node000012" class="edge">
<title>Node14&#45;&gt;Node12</title>
<g id="a_edge16_Node000014_Node000012"><a xlink:title=" ">
<path fill="none" stroke="#63b8ff" d="M199.24,-347.71C191.46,-349.89 183.48,-352.2 176,-354.5 145.98,-363.74 111.62,-375.81 90.62,-383.36"/>
<polygon fill="#63b8ff" stroke="#63b8ff" points="200.24,-351.06 208.94,-345.03 198.37,-344.31 200.24,-351.06"/>
</a>
</g>
</g>
<!-- Node15&#45;&gt;Node15 -->
<g id="edge18_Node000015_Node000015" class="edge">
<title>Node15&#45;&gt;Node15</title>
<g id="a_edge18_Node000015_Node000015"><a xlink:title=" ">
<path fill="none" stroke="#63b8ff" d="M270.93,-299.96C267.3,-304.74 259.15,-308 246.5,-308 226.25,-308 217.55,-299.65 220.4,-290.1"/>
<polygon fill="#63b8ff" stroke="#63b8ff" points="274.38,-300.54 272.6,-290.1 267.48,-299.37 274.38,-300.54"/>
</a>
</g>
</g>
<!-- Node16&#45;&gt;Node17 -->
<g id="edge21_Node000016_Node000017" class="edge">
<title>Node16&#45;&gt;Node17</title>
<g id="a_edge21_Node000016_Node000017"><a xlink:title=" ">
<path fill="none" stroke="#63b8ff" d="M198.03,-135.63C190.64,-137.56 183.11,-139.56 176,-141.5 163.93,-144.79 151.1,-148.37 138.71,-151.89"/>
<polygon fill="#63b8ff" stroke="#63b8ff" points="199.15,-138.95 207.94,-133.04 197.38,-132.18 199.15,-138.95"/>
</a>
</g>
</g>
<!-- Node16&#45;&gt;Node18 -->
<g id="edge22_Node000016_Node000018" class="edge">
<title>Node16&#45;&gt;Node18</title>
<g id="a_edge22_Node000016_Node000018"><a xlink:title=" ">
<path fill="none" stroke="#63b8ff" d="M184.37,-119.3C170.08,-118.31 154.77,-117.26 140.17,-116.26"/>
<polygon fill="#63b8ff" stroke="#63b8ff" points="184.34,-122.8 194.56,-120 184.82,-115.82 184.34,-122.8"/>
</a>
</g>
</g>
<!-- Node16&#45;&gt;Node19 -->
<g id="edge23_Node000016_Node000019" class="edge">
<title>Node16&#45;&gt;Node19</title>
<g id="a_edge23_Node000016_Node000019"><a xlink:title=" ">
<path fill="none" stroke="#63b8ff" d="M213.55,-109.95C187.22,-98.78 149.45,-82.77 119.41,-70.03"/>
<polygon fill="#63b8ff" stroke="#63b8ff" points="212.47,-113.3 223.04,-113.98 215.2,-106.85 212.47,-113.3"/>
</a>
</g>
</g>
<!-- Node20&#45;&gt;Node17 -->
<g id="edge26_Node000020_Node000017" class="edge">
<title>Node20&#45;&gt;Node17</title>
<g id="a_edge26_Node000020_Node000017"><a xlink:title=" ">
<path fill="none" stroke="#63b8ff" d="M165.65,-171.5C156.61,-171.5 147.48,-171.5 138.62,-171.5"/>
<polygon fill="#63b8ff" stroke="#63b8ff" points="165.78,-175 175.78,-171.5 165.78,-168 165.78,-175"/>
</a>
</g>
</g>
<!-- Node22&#45;&gt;Node8 -->
<g id="edge31_Node000022_Node000008" class="edge">
<title>Node22&#45;&gt;Node8</title>
<g id="a_edge31_Node000022_Node000008"><a xlink:title=" ">
<path fill="none" stroke="#63b8ff" d="M638.85,-230.9C620.59,-233.03 599.41,-235.51 580.16,-237.76"/>
<polygon fill="#63b8ff" stroke="#63b8ff" points="639.41,-234.35 648.94,-229.72 638.6,-227.4 639.41,-234.35"/>
</a>
</g>
</g>
</g>
</svg>
