<?xml version="1.0" encoding="UTF-8" standalone="no"?>
<!DOCTYPE svg PUBLIC "-//W3C//DTD SVG 1.1//EN"
 "http://www.w3.org/Graphics/SVG/1.1/DTD/svg11.dtd">
<!-- Generated by graphviz version 2.43.0 (0)
 -->
<!-- Title: get_param_default Pages: 1 -->
<!--zoomable 543 -->

<svg id="main" version="1.1" xmlns="http://www.w3.org/2000/svg" xmlns:xlink="http://www.w3.org/1999/xlink" xml:space="preserve" onload="init(evt)">
<style type="text/css"><![CDATA[
.node, .edge {opacity: 0.7;}
.node.selected, .edge.selected {opacity: 1;}
.edge:hover path { stroke: red; }
.edge:hover polygon { stroke: red; fill: red; }
]]></style>

<defs>
  <circle id="rim" cx="0" cy="0" r="7"/>
  <circle id="rim2" cx="0" cy="0" r="3.5"/>
  <g id="zoomPlus">
    <use xlink:href="#rim" fill="#404040"><set attributeName="fill" to="#808080" begin="zoomplus.mouseover" end="zoomplus.mouseout"/></use>
    <path d="M-4,0h8M0,-4v8" fill="none" stroke="white" stroke-width="1.5" pointer-events="none"/>
  </g>
  <g id="zoomMin">
    <use xlink:href="#rim" fill="#404040"><set attributeName="fill" to="#808080" begin="zoomminus.mouseover" end="zoomminus.mouseout"/></use>
    <path d="M-4,0h8" fill="none" stroke="white" stroke-width="1.5" pointer-events="none"/>
  </g>
  <g id="arrowUp" transform="translate(30 24)">
    <use xlink:href="#rim"/>
    <path pointer-events="none" fill="none" stroke="white" stroke-width="1.5" d="M0,-3.0v7 M-2.5,-0.5L0,-3.0L2.5,-0.5"/>
  </g>
  <g id="arrowRight" transform="rotate(90) translate(36 -43)">
    <use xlink:href="#rim"/>
    <path pointer-events="none" fill="none" stroke="white" stroke-width="1.5" d="M0,-3.0v7 M-2.5,-0.5L0,-3.0L2.5,-0.5"/>
  </g>
  <g id="arrowDown" transform="rotate(180) translate(-30 -48)">
    <use xlink:href="#rim"/>
    <path pointer-events="none" fill="none" stroke="white" stroke-width="1.5" d="M0,-3.0v7 M-2.5,-0.5L0,-3.0L2.5,-0.5"/>
  </g>
  <g id="arrowLeft" transform="rotate(270) translate(-36 17)">
    <use xlink:href="#rim"/>
    <path pointer-events="none" fill="none" stroke="white" stroke-width="1.5" d="M0,-3.0v7 M-2.5,-0.5L0,-3.0L2.5,-0.5"/>
  </g>
  <g id="resetDef">
    <use xlink:href="#rim2" fill="#404040"><set attributeName="fill" to="#808080" begin="reset.mouseover" end="reset.mouseout"/></use>
  </g>
</defs>
<script type="application/ecmascript">
var viewWidth = 861;
var viewHeight = 543;
var sectionId = 'dynsection-16';
</script>
<script type="application/ecmascript" xlink:href="svg.min.js"/>
<svg id="graph" class="graph">
<g id="viewport">
<title>get_param_default</title>
<!-- Node1 -->
<g id="Node000001" class="node">
<title>Node1</title>
<g id="a_Node000001"><a xlink:title=" ">
<polygon fill="#999999" stroke="#666666" points="853,-312 744,-312 744,-293 853,-293 853,-312"/>
<text text-anchor="middle" x="798.5" y="-300" font-family="Helvetica,sans-Serif" font-size="10.00">get_param_default</text>
</a>
</g>
</g>
<!-- Node2 -->
<g id="Node000002" class="node">
<title>Node2</title>
<g id="a_Node000002"><a xlink:href="namespacealpaqa_1_1params.html#ac41193c19fc55cee0820ccbf0b51f19a" target="_top" xlink:title=" ">
<polygon fill="white" stroke="#666666" points="708,-349 639,-349 639,-330 708,-330 708,-349"/>
<text text-anchor="middle" x="673.5" y="-337" font-family="Helvetica,sans-Serif" font-size="10.00">get_param</text>
</a>
</g>
</g>
<!-- Node1&#45;&gt;Node2 -->
<g id="edge1_Node000001_Node000002" class="edge">
<title>Node1&#45;&gt;Node2</title>
<g id="a_edge1_Node000001_Node000002"><a xlink:title=" ">
<path fill="none" stroke="#63b8ff" d="M756.07,-314.96C739.89,-319.83 721.63,-325.32 706.5,-329.88"/>
<polygon fill="#63b8ff" stroke="#63b8ff" points="757.26,-318.26 765.82,-312.03 755.24,-311.56 757.26,-318.26"/>
</a>
</g>
</g>
<!-- Node3 -->
<g id="Node000003" class="node">
<title>Node3</title>
<g id="a_Node000003"><a xlink:href="namespacealpaqa_1_1params.html#aa9f7e1616af20dacef3f25bf8c32942d" target="_top" xlink:title=" ">
<polygon fill="white" stroke="#666666" points="708,-312 639,-312 639,-293 708,-293 708,-312"/>
<text text-anchor="middle" x="673.5" y="-300" font-family="Helvetica,sans-Serif" font-size="10.00">get_param</text>
</a>
</g>
</g>
<!-- Node1&#45;&gt;Node3 -->
<g id="edge2_Node000001_Node000003" class="edge">
<title>Node1&#45;&gt;Node3</title>
<g id="a_edge2_Node000001_Node000003"><a xlink:title=" ">
<path fill="none" stroke="#63b8ff" d="M733.87,-302.5C724.97,-302.5 716.12,-302.5 708.08,-302.5"/>
<polygon fill="#63b8ff" stroke="#63b8ff" points="733.91,-306 743.91,-302.5 733.91,-299 733.91,-306"/>
</a>
</g>
</g>
<!-- Node4 -->
<g id="Node000004" class="node">
<title>Node4</title>
<g id="a_Node000004"><a xlink:href="namespacealpaqa_1_1params.html#a1f2f7590328c20e04138a91eee5e0e98" target="_top" xlink:title="Get the first argument as a JSON object j.">
<polygon fill="white" stroke="#666666" points="708,-275 639,-275 639,-256 708,-256 708,-275"/>
<text text-anchor="middle" x="673.5" y="-263" font-family="Helvetica,sans-Serif" font-size="10.00">get_param</text>
</a>
</g>
</g>
<!-- Node1&#45;&gt;Node4 -->
<g id="edge3_Node000001_Node000004" class="edge">
<title>Node1&#45;&gt;Node4</title>
<g id="a_edge3_Node000001_Node000004"><a xlink:title=" ">
<path fill="none" stroke="#63b8ff" d="M756.07,-290.04C739.89,-285.17 721.63,-279.68 706.5,-275.12"/>
<polygon fill="#63b8ff" stroke="#63b8ff" points="755.24,-293.44 765.82,-292.97 757.26,-286.74 755.24,-293.44"/>
</a>
</g>
</g>
<!-- Node5 -->
<g id="Node000005" class="node">
<title>Node5</title>
<g id="a_Node000005"><a xlink:href="structalpaqa_1_1params_1_1attribute__accessor_3_01json_01_4.html#a0a5b45f6960fbd1a33565256fa3570c6" target="_top" xlink:title=" ">
<polygon fill="white" stroke="#666666" points="603,-302.5 463,-302.5 463,-272.5 603,-272.5 603,-302.5"/>
<text text-anchor="start" x="471" y="-290.5" font-family="Helvetica,sans-Serif" font-size="10.00">alpaqa::params::attribute</text>
<text text-anchor="middle" x="533" y="-279.5" font-family="Helvetica,sans-Serif" font-size="10.00">_accessor&lt; json &gt;::make</text>
</a>
</g>
</g>
<!-- Node4&#45;&gt;Node5 -->
<g id="edge4_Node000004_Node000005" class="edge">
<title>Node4&#45;&gt;Node5</title>
<g id="a_edge4_Node000004_Node000005"><a xlink:title=" ">
<path fill="none" stroke="#63b8ff" d="M628.89,-272.43C620.66,-273.73 611.86,-275.13 603.07,-276.53"/>
<polygon fill="#63b8ff" stroke="#63b8ff" points="629.65,-275.85 638.97,-270.83 628.55,-268.94 629.65,-275.85"/>
</a>
</g>
</g>
<!-- Node6 -->
<g id="Node000006" class="node">
<title>Node6</title>
<g id="a_Node000006"><a xlink:href="classOptions.html#a8ca2e3915e8acf3cd04e02180e66e9ab" target="_top" xlink:title=" ">
<polygon fill="white" stroke="#666666" points="591.5,-254 474.5,-254 474.5,-235 591.5,-235 591.5,-254"/>
<text text-anchor="middle" x="533" y="-242" font-family="Helvetica,sans-Serif" font-size="10.00">Options::set_params</text>
</a>
</g>
</g>
<!-- Node4&#45;&gt;Node6 -->
<g id="edge5_Node000004_Node000006" class="edge">
<title>Node4&#45;&gt;Node6</title>
<g id="a_edge5_Node000004_Node000006"><a xlink:title=" ">
<path fill="none" stroke="#63b8ff" d="M628.9,-258.89C617.05,-257.09 604.03,-255.12 591.54,-253.22"/>
<polygon fill="#63b8ff" stroke="#63b8ff" points="628.56,-262.38 638.97,-260.42 629.61,-255.46 628.56,-262.38"/>
</a>
</g>
</g>
<!-- Node7 -->
<g id="Node000007" class="node">
<title>Node7</title>
<g id="a_Node000007"><a xlink:href="options_8hpp.html#a91fca5414dbe50bec5104c59d9ebda11" target="_top" xlink:title=" ">
<polygon fill="white" stroke="#666666" points="427,-254 353,-254 353,-235 427,-235 427,-254"/>
<text text-anchor="middle" x="390" y="-242" font-family="Helvetica,sans-Serif" font-size="10.00">set_params</text>
</a>
</g>
</g>
<!-- Node6&#45;&gt;Node7 -->
<g id="edge6_Node000006_Node000007" class="edge">
<title>Node6&#45;&gt;Node7</title>
<g id="a_edge6_Node000006_Node000007"><a xlink:title=" ">
<path fill="none" stroke="#63b8ff" d="M464.05,-244.5C451.27,-244.5 438.37,-244.5 427.05,-244.5"/>
<polygon fill="#63b8ff" stroke="#63b8ff" points="464.24,-248 474.24,-244.5 464.24,-241 464.24,-248"/>
</a>
</g>
</g>
<!-- Node8 -->
<g id="Node000008" class="node">
<title>Node8</title>
<g id="a_Node000008"><a xlink:href="namespaceanonymous__namespace_02problem_8cpp_03.html#a1b79c8c67d4bc5eba618a86e8b0a7744" target="_top" xlink:title=" ">
<polygon fill="white" stroke="#666666" points="314,-517 179,-517 179,-476 314,-476 314,-517"/>
<text text-anchor="start" x="187" y="-505" font-family="Helvetica,sans-Serif" font-size="10.00">anonymous_namespace</text>
<text text-anchor="start" x="187" y="-494" font-family="Helvetica,sans-Serif" font-size="10.00">{problem::cpp}::get</text>
<text text-anchor="middle" x="246.5" y="-483" font-family="Helvetica,sans-Serif" font-size="10.00">_dl_flags</text>
</a>
</g>
</g>
<!-- Node7&#45;&gt;Node8 -->
<g id="edge7_Node000007_Node000008" class="edge">
<title>Node7&#45;&gt;Node8</title>
<g id="a_edge7_Node000007_Node000008"><a xlink:title=" ">
<path fill="none" stroke="#63b8ff" d="M387.4,-264.64C383.12,-306.19 367.98,-402.46 317,-461.5 312.23,-467.02 306.38,-471.77 300.12,-475.83"/>
<polygon fill="#63b8ff" stroke="#63b8ff" points="390.91,-264.72 388.34,-254.45 383.94,-264.08 390.91,-264.72"/>
</a>
</g>
</g>
<!-- Node9 -->
<g id="Node000009" class="node">
<title>Node9</title>
<g id="a_Node000009"><a xlink:href="alpaqa-driver_8cpp.html#a53c823aeddf0a1b037645504d26ee7cd" target="_top" xlink:title=" ">
<polygon fill="white" stroke="#666666" points="297,-419 196,-419 196,-400 297,-400 297,-419"/>
<text text-anchor="middle" x="246.5" y="-407" font-family="Helvetica,sans-Serif" font-size="10.00">get_output_paths</text>
</a>
</g>
</g>
<!-- Node7&#45;&gt;Node9 -->
<g id="edge9_Node000007_Node000009" class="edge">
<title>Node7&#45;&gt;Node9</title>
<g id="a_edge9_Node000007_Node000009"><a xlink:title=" ">
<path fill="none" stroke="#63b8ff" d="M384.99,-263.93C377.42,-295.58 357.97,-358.07 317,-391.5 311.21,-396.23 304.31,-399.73 297.15,-402.32"/>
<polygon fill="#63b8ff" stroke="#63b8ff" points="388.41,-264.65 387.19,-254.12 381.58,-263.12 388.41,-264.65"/>
</a>
</g>
</g>
<!-- Node10 -->
<g id="Node000010" class="node">
<title>Node10</title>
<g id="a_Node000010"><a xlink:href="alpaqa-driver_8cpp.html#ac0f2228420376f4db7e1274f2b41667c" target="_top" xlink:title=" ">
<polygon fill="white" stroke="#666666" points="90.5,-400 49.5,-400 49.5,-381 90.5,-381 90.5,-400"/>
<text text-anchor="middle" x="70" y="-388" font-family="Helvetica,sans-Serif" font-size="10.00">main</text>
</a>
</g>
</g>
<!-- Node7&#45;&gt;Node10 -->
<g id="edge17_Node000007_Node000010" class="edge">
<title>Node7&#45;&gt;Node10</title>
<g id="a_edge17_Node000007_Node000010"><a xlink:title=" ">
<path fill="none" stroke="#63b8ff" d="M388.08,-264.58C385.08,-303.97 372.18,-390.83 317,-428.5 243.47,-478.69 128.99,-423.5 87.07,-400.03"/>
<polygon fill="#63b8ff" stroke="#63b8ff" points="391.59,-264.59 388.72,-254.39 384.6,-264.15 391.59,-264.59"/>
</a>
</g>
</g>
<!-- Node11 -->
<g id="Node000011" class="node">
<title>Node11</title>
<g id="a_Node000011"><a xlink:href="alpaqa-driver_8cpp.html#a62667720f096806ed08c60e4207f8972" target="_top" xlink:title=" ">
<polygon fill="white" stroke="#666666" points="301,-382 192,-382 192,-363 301,-363 301,-382"/>
<text text-anchor="middle" x="246.5" y="-370" font-family="Helvetica,sans-Serif" font-size="10.00">get_output_stream</text>
</a>
</g>
</g>
<!-- Node7&#45;&gt;Node11 -->
<g id="edge11_Node000007_Node000011" class="edge">
<title>Node7&#45;&gt;Node11</title>
<g id="a_edge11_Node000007_Node000011"><a xlink:title=" ">
<path fill="none" stroke="#63b8ff" d="M381.68,-263.58C371.18,-288.36 349.45,-331.22 317,-354.5 312.24,-357.91 306.89,-360.68 301.31,-362.93"/>
<polygon fill="#63b8ff" stroke="#63b8ff" points="384.98,-264.75 385.5,-254.17 378.5,-262.12 384.98,-264.75"/>
</a>
</g>
</g>
<!-- Node12 -->
<g id="Node000012" class="node">
<title>Node12</title>
<g id="a_Node000012"><a xlink:href="alpaqa-driver_8cpp.html#a3430011226186bf05d5c2552270587b7" target="_top" xlink:title=" ">
<polygon fill="white" stroke="#666666" points="300,-345 193,-345 193,-326 300,-326 300,-345"/>
<text text-anchor="middle" x="246.5" y="-333" font-family="Helvetica,sans-Serif" font-size="10.00">get_solver_builder</text>
</a>
</g>
</g>
<!-- Node7&#45;&gt;Node12 -->
<g id="edge13_Node000007_Node000012" class="edge">
<title>Node7&#45;&gt;Node12</title>
<g id="a_edge13_Node000007_Node000012"><a xlink:title=" ">
<path fill="none" stroke="#63b8ff" d="M375.87,-262.57C362.79,-279.27 341.2,-303.55 317,-317.5 311.06,-320.92 304.47,-323.71 297.77,-325.97"/>
<polygon fill="#63b8ff" stroke="#63b8ff" points="378.98,-264.26 382.23,-254.18 373.4,-260.04 378.98,-264.26"/>
</a>
</g>
</g>
<!-- Node13 -->
<g id="Node000013" class="node">
<title>Node13</title>
<g id="a_Node000013"><a xlink:href="namespaceanonymous__namespace_02problem_8cpp_03.html#ab42fb3dc0421d6c6c1f45d753a95a2c4" target="_top" xlink:title=" ">
<polygon fill="white" stroke="#666666" points="314,-290 179,-290 179,-249 314,-249 314,-290"/>
<text text-anchor="start" x="187" y="-278" font-family="Helvetica,sans-Serif" font-size="10.00">anonymous_namespace</text>
<text text-anchor="start" x="187" y="-267" font-family="Helvetica,sans-Serif" font-size="10.00">{problem::cpp}::load</text>
<text text-anchor="middle" x="246.5" y="-256" font-family="Helvetica,sans-Serif" font-size="10.00">_initial_guess</text>
</a>
</g>
</g>
<!-- Node7&#45;&gt;Node13 -->
<g id="edge15_Node000007_Node000013" class="edge">
<title>Node7&#45;&gt;Node13</title>
<g id="a_edge15_Node000007_Node000013"><a xlink:title=" ">
<path fill="none" stroke="#63b8ff" d="M342.84,-252.66C333.63,-254.28 323.79,-256.02 314.05,-257.74"/>
<polygon fill="#63b8ff" stroke="#63b8ff" points="343.69,-256.06 352.93,-250.87 342.47,-249.17 343.69,-256.06"/>
</a>
</g>
</g>
<!-- Node14 -->
<g id="Node000014" class="node">
<title>Node14</title>
<g id="a_Node000014"><a xlink:href="alm-driver_8hpp.html#ae4ef291d9ec9d55ee804b5723ea2e641" target="_top" xlink:title=" ">
<polygon fill="white" stroke="#666666" points="298,-133 195,-133 195,-114 298,-114 298,-133"/>
<text text-anchor="middle" x="246.5" y="-121" font-family="Helvetica,sans-Serif" font-size="10.00">make_alm_solver</text>
</a>
</g>
</g>
<!-- Node7&#45;&gt;Node14 -->
<g id="edge18_Node000007_Node000014" class="edge">
<title>Node7&#45;&gt;Node14</title>
<g id="a_edge18_Node000007_Node000014"><a xlink:title=" ">
<path fill="none" stroke="#63b8ff" d="M380.78,-225.87C369.66,-202.8 347.61,-163.96 317,-142.5 311.37,-138.55 304.95,-135.42 298.34,-132.94"/>
<polygon fill="#63b8ff" stroke="#63b8ff" points="377.62,-227.36 385,-234.96 383.97,-224.41 377.62,-227.36"/>
</a>
</g>
</g>
<!-- Node15 -->
<g id="Node000015" class="node">
<title>Node15</title>
<g id="a_Node000015"><a xlink:href="namespaceanonymous__namespace_02fista-driver_8cpp_03.html#a479d5f0dacbf404f04a694bb1be6f6c5" target="_top" xlink:title=" ">
<polygon fill="white" stroke="#666666" points="138.5,-192 1.5,-192 1.5,-151 138.5,-151 138.5,-192"/>
<text text-anchor="start" x="9.5" y="-180" font-family="Helvetica,sans-Serif" font-size="10.00">anonymous_namespace</text>
<text text-anchor="start" x="9.5" y="-169" font-family="Helvetica,sans-Serif" font-size="10.00">{fista&#45;driver::cpp}</text>
<text text-anchor="middle" x="70" y="-158" font-family="Helvetica,sans-Serif" font-size="10.00">::make_fista_driver_impl</text>
</a>
</g>
</g>
<!-- Node7&#45;&gt;Node15 -->
<g id="edge22_Node000007_Node000015" class="edge">
<title>Node7&#45;&gt;Node15</title>
<g id="a_edge22_Node000007_Node000015"><a xlink:title=" ">
<path fill="none" stroke="#63b8ff" d="M342.67,-236.24C299.37,-228.26 233.01,-215.38 176,-201.5 163.84,-198.54 150.97,-195.11 138.57,-191.66"/>
<polygon fill="#63b8ff" stroke="#63b8ff" points="342.16,-239.71 352.63,-238.06 343.42,-232.82 342.16,-239.71"/>
</a>
</g>
</g>
<!-- Node16 -->
<g id="Node000016" class="node">
<title>Node16</title>
<g id="a_Node000016"><a xlink:href="namespaceanonymous__namespace_02panoc-driver_8cpp_03.html#ab2ca1091ea82102367666b62756cd7f6" target="_top" xlink:title=" ">
<polygon fill="white" stroke="#666666" points="140,-132 0,-132 0,-91 140,-91 140,-132"/>
<text text-anchor="start" x="8" y="-120" font-family="Helvetica,sans-Serif" font-size="10.00">anonymous_namespace</text>
<text text-anchor="start" x="8" y="-109" font-family="Helvetica,sans-Serif" font-size="10.00">{panoc&#45;driver::cpp}</text>
<text text-anchor="middle" x="70" y="-98" font-family="Helvetica,sans-Serif" font-size="10.00">::make_panoc_like_driver</text>
</a>
</g>
</g>
<!-- Node7&#45;&gt;Node16 -->
<g id="edge26_Node000007_Node000016" class="edge">
<title>Node7&#45;&gt;Node16</title>
<g id="a_edge26_Node000007_Node000016"><a xlink:title=" ">
<path fill="none" stroke="#63b8ff" d="M385.49,-224.93C378.64,-193.28 360.2,-131.78 317,-105.5 263.98,-73.26 191.94,-79.53 139.52,-91"/>
<polygon fill="#63b8ff" stroke="#63b8ff" points="382.06,-225.65 387.45,-234.77 388.93,-224.28 382.06,-225.65"/>
</a>
</g>
</g>
<!-- Node17 -->
<g id="Node000017" class="node">
<title>Node17</title>
<g id="a_Node000017"><a xlink:href="namespaceanonymous__namespace_02pantr-driver_8cpp_03.html#a39b6aa8ff07d8400d404f191bdccd499" target="_top" xlink:title=" ">
<polygon fill="white" stroke="#666666" points="139,-70 1,-70 1,-29 139,-29 139,-70"/>
<text text-anchor="start" x="9" y="-58" font-family="Helvetica,sans-Serif" font-size="10.00">anonymous_namespace</text>
<text text-anchor="start" x="9" y="-47" font-family="Helvetica,sans-Serif" font-size="10.00">{pantr&#45;driver::cpp}</text>
<text text-anchor="middle" x="70" y="-36" font-family="Helvetica,sans-Serif" font-size="10.00">::make_pantr_like_solver</text>
</a>
</g>
</g>
<!-- Node7&#45;&gt;Node17 -->
<g id="edge27_Node000007_Node000017" class="edge">
<title>Node7&#45;&gt;Node17</title>
<g id="a_edge27_Node000007_Node000017"><a xlink:title=" ">
<path fill="none" stroke="#63b8ff" d="M386.77,-224.92C381.58,-189.32 365.22,-114.36 317,-78.5 266.27,-40.78 192.69,-36.81 139.23,-40.28"/>
<polygon fill="#63b8ff" stroke="#63b8ff" points="383.32,-225.53 388.09,-235 390.26,-224.63 383.32,-225.53"/>
</a>
</g>
</g>
<!-- Node18 -->
<g id="Node000018" class="node">
<title>Node18</title>
<g id="a_Node000018"><a xlink:href="namespaceanonymous__namespace_02fista-driver_8cpp_03.html#a6f96d677b5961c6a4fcaa773f37ca65b" target="_top" xlink:title=" ">
<polygon fill="white" stroke="#666666" points="317,-192 176,-192 176,-151 317,-151 317,-192"/>
<text text-anchor="start" x="184" y="-180" font-family="Helvetica,sans-Serif" font-size="10.00">anonymous_namespace</text>
<text text-anchor="start" x="184" y="-169" font-family="Helvetica,sans-Serif" font-size="10.00">{fista&#45;driver::cpp}</text>
<text text-anchor="middle" x="246.5" y="-158" font-family="Helvetica,sans-Serif" font-size="10.00">::make_inner_fista_solver</text>
</a>
</g>
</g>
<!-- Node7&#45;&gt;Node18 -->
<g id="edge23_Node000007_Node000018" class="edge">
<title>Node7&#45;&gt;Node18</title>
<g id="a_edge23_Node000007_Node000018"><a xlink:title=" ">
<path fill="none" stroke="#63b8ff" d="M361.81,-229.99C348.36,-222.86 331.86,-214.16 317,-206.5 307.87,-201.79 298.04,-196.8 288.73,-192.1"/>
<polygon fill="#63b8ff" stroke="#63b8ff" points="360.53,-233.27 371,-234.88 363.81,-227.09 360.53,-233.27"/>
</a>
</g>
</g>
<!-- Node19 -->
<g id="Node000019" class="node">
<title>Node19</title>
<g id="a_Node000019"><a xlink:href="alm-driver_8hpp.html#a51b2a2cde56762bcb43a2f4da0913f98" target="_top" xlink:title=" ">
<polygon fill="white" stroke="#666666" points="301,-19 192,-19 192,0 301,0 301,-19"/>
<text text-anchor="middle" x="246.5" y="-7" font-family="Helvetica,sans-Serif" font-size="10.00">make_inner_solver</text>
</a>
</g>
</g>
<!-- Node7&#45;&gt;Node19 -->
<g id="edge25_Node000007_Node000019" class="edge">
<title>Node7&#45;&gt;Node19</title>
<g id="a_edge25_Node000007_Node000019"><a xlink:title=" ">
<path fill="none" stroke="#63b8ff" d="M387.89,-224.93C384.5,-183.77 370.94,-87.64 317,-33.5 310.69,-27.17 302.64,-22.51 294.26,-19.07"/>
<polygon fill="#63b8ff" stroke="#63b8ff" points="384.4,-225.26 388.6,-234.99 391.39,-224.77 384.4,-225.26"/>
</a>
</g>
</g>
<!-- Node8&#45;&gt;Node8 -->
<g id="edge8_Node000008_Node000008" class="edge">
<title>Node8&#45;&gt;Node8</title>
<g id="a_edge8_Node000008_Node000008"><a xlink:title=" ">
<path fill="none" stroke="#63b8ff" d="M270.93,-526.96C267.3,-531.74 259.15,-535 246.5,-535 226.25,-535 217.55,-526.65 220.4,-517.1"/>
<polygon fill="#63b8ff" stroke="#63b8ff" points="274.38,-527.54 272.6,-517.1 267.48,-526.37 274.38,-527.54"/>
</a>
</g>
</g>
<!-- Node9&#45;&gt;Node10 -->
<g id="edge10_Node000009_Node000010" class="edge">
<title>Node9&#45;&gt;Node10</title>
<g id="a_edge10_Node000009_Node000010"><a xlink:title=" ">
<path fill="none" stroke="#63b8ff" d="M185.92,-403.01C152.87,-399.41 113.91,-395.17 90.9,-392.67"/>
<polygon fill="#63b8ff" stroke="#63b8ff" points="185.64,-406.5 195.96,-404.11 186.4,-399.54 185.64,-406.5"/>
</a>
</g>
</g>
<!-- Node11&#45;&gt;Node10 -->
<g id="edge12_Node000011_Node000010" class="edge">
<title>Node11&#45;&gt;Node10</title>
<g id="a_edge12_Node000011_Node000010"><a xlink:title=" ">
<path fill="none" stroke="#63b8ff" d="M181.48,-379.1C149.37,-382.42 112.74,-386.19 90.76,-388.46"/>
<polygon fill="#63b8ff" stroke="#63b8ff" points="182.13,-382.56 191.72,-378.05 181.41,-375.59 182.13,-382.56"/>
</a>
</g>
</g>
<!-- Node12&#45;&gt;Node10 -->
<g id="edge14_Node000012_Node000010" class="edge">
<title>Node12&#45;&gt;Node10</title>
<g id="a_edge14_Node000012_Node000010"><a xlink:title=" ">
<path fill="none" stroke="#63b8ff" d="M199.24,-347.71C191.46,-349.89 183.48,-352.2 176,-354.5 145.98,-363.74 111.62,-375.81 90.62,-383.36"/>
<polygon fill="#63b8ff" stroke="#63b8ff" points="200.24,-351.06 208.94,-345.03 198.37,-344.31 200.24,-351.06"/>
</a>
</g>
</g>
<!-- Node13&#45;&gt;Node13 -->
<g id="edge16_Node000013_Node000013" class="edge">
<title>Node13&#45;&gt;Node13</title>
<g id="a_edge16_Node000013_Node000013"><a xlink:title=" ">
<path fill="none" stroke="#63b8ff" d="M270.93,-299.96C267.3,-304.74 259.15,-308 246.5,-308 226.25,-308 217.55,-299.65 220.4,-290.1"/>
<polygon fill="#63b8ff" stroke="#63b8ff" points="274.38,-300.54 272.6,-290.1 267.48,-299.37 274.38,-300.54"/>
</a>
</g>
</g>
<!-- Node14&#45;&gt;Node15 -->
<g id="edge19_Node000014_Node000015" class="edge">
<title>Node14&#45;&gt;Node15</title>
<g id="a_edge19_Node000014_Node000015"><a xlink:title=" ">
<path fill="none" stroke="#63b8ff" d="M200.68,-135.74C192.47,-137.98 183.97,-140.31 176,-142.5 163.96,-145.81 151.16,-149.34 138.77,-152.75"/>
<polygon fill="#63b8ff" stroke="#63b8ff" points="201.77,-139.06 210.5,-133.05 199.93,-132.31 201.77,-139.06"/>
</a>
</g>
</g>
<!-- Node14&#45;&gt;Node16 -->
<g id="edge20_Node000014_Node000016" class="edge">
<title>Node14&#45;&gt;Node16</title>
<g id="a_edge20_Node000014_Node000016"><a xlink:title=" ">
<path fill="none" stroke="#63b8ff" d="M184.37,-119.3C170.08,-118.31 154.77,-117.26 140.17,-116.26"/>
<polygon fill="#63b8ff" stroke="#63b8ff" points="184.34,-122.8 194.56,-120 184.82,-115.82 184.34,-122.8"/>
</a>
</g>
</g>
<!-- Node14&#45;&gt;Node17 -->
<g id="edge21_Node000014_Node000017" class="edge">
<title>Node14&#45;&gt;Node17</title>
<g id="a_edge21_Node000014_Node000017"><a xlink:title=" ">
<path fill="none" stroke="#63b8ff" d="M213.55,-109.95C187.22,-98.78 149.45,-82.77 119.41,-70.03"/>
<polygon fill="#63b8ff" stroke="#63b8ff" points="212.47,-113.3 223.04,-113.98 215.2,-106.85 212.47,-113.3"/>
</a>
</g>
</g>
<!-- Node18&#45;&gt;Node15 -->
<g id="edge24_Node000018_Node000015" class="edge">
<title>Node18&#45;&gt;Node15</title>
<g id="a_edge24_Node000018_Node000015"><a xlink:title=" ">
<path fill="none" stroke="#63b8ff" d="M165.65,-171.5C156.61,-171.5 147.48,-171.5 138.62,-171.5"/>
<polygon fill="#63b8ff" stroke="#63b8ff" points="165.78,-175 175.78,-171.5 165.78,-168 165.78,-175"/>
</a>
</g>
</g>
</g>
</svg>

<g id="navigator" transform="translate(0 0)" fill="#404254">
  <rect fill="#f2f5e9" fill-opacity="0.5" stroke="#606060" stroke-width=".5" x="0" y="0" width="60" height="60"/>
  <use id="zoomplus" xlink:href="#zoomPlus" x="17" y="9" onmousedown="handleZoom(evt,'in')"/>
  <use id="zoomminus" xlink:href="#zoomMin" x="42" y="9" onmousedown="handleZoom(evt,'out')"/>
  <use id="reset" xlink:href="#resetDef" x="30" y="36" onmousedown="handleReset()"/>
   <use id="arrowup" xlink:href="#arrowUp" x="0" y="0" onmousedown="handlePan(0,-1)"/>
  <use id="arrowright" xlink:href="#arrowRight" x="0" y="0" onmousedown="handlePan(1,0)"/>
  <use id="arrowdown" xlink:href="#arrowDown" x="0" y="0" onmousedown="handlePan(0,1)"/>
  <use id="arrowleft" xlink:href="#arrowLeft" x="0" y="0" onmousedown="handlePan(-1,0)"/>
</g>
<svg viewBox="0 0 15 15" width="100%" height="30px" preserveAspectRatio="xMaxYMin meet">
 <g id="arrow_out" transform="scale(0.3 0.3)">
  <a xlink:href="namespacealpaqa_1_1params_a2ed398728f87219847d2db047fa70195_icgraph_org.svg" target="_base">
   <rect id="button" ry="5" rx="5" y="6" x="6" height="38" width="38"
        fill="#f2f5e9" fill-opacity="0.5" stroke="#606060" stroke-width="1.0"/>
   <path id="arrow"
     d="M 11.500037,31.436501 C 11.940474,20.09759 22.043105,11.32322 32.158766,21.979434 L 37.068811,17.246167 C 37.068811,17.246167 37.088388,32 37.088388,32 L 22.160133,31.978069 C 22.160133,31.978069 26.997745,27.140456 26.997745,27.140456 C 18.528582,18.264221 13.291696,25.230495 11.500037,31.436501 z"
     style="fill:#404040;"/>
  </a>
 </g>
</svg>

<style type='text/css'>
<![CDATA[
[data-mouse-over-selected='false'] { opacity: 0.7; }
[data-mouse-over-selected='true']  { opacity: 1.0; }
]]>
</style>
<script type="application/ecmascript"><![CDATA[
document.addEventListener('DOMContentLoaded', (event) => {
  highlightEdges();
  highlightAdjacentNodes();
});
]]></script>
</svg>
