<?xml version="1.0" encoding="UTF-8" standalone="no"?>
<!DOCTYPE svg PUBLIC "-//W3C//DTD SVG 1.1//EN"
 "http://www.w3.org/Graphics/SVG/1.1/DTD/svg11.dtd">
<!-- Generated by graphviz version 2.43.0 (0)
 -->
<!-- Title: load_lib Pages: 1 -->
<svg width="461pt" height="177pt"
 viewBox="0.00 0.00 461.00 177.00" xmlns="http://www.w3.org/2000/svg" xmlns:xlink="http://www.w3.org/1999/xlink">

<svg id="main" version="1.1" xmlns="http://www.w3.org/2000/svg" xmlns:xlink="http://www.w3.org/1999/xlink" xml:space="preserve" onload="init(evt)">
<style type="text/css"><![CDATA[
.node, .edge {opacity: 0.7;}
.node.selected, .edge.selected {opacity: 1;}
.edge:hover path { stroke: red; }
.edge:hover polygon { stroke: red; fill: red; }
]]></style>
<script type="application/ecmascript" xlink:href="svg.min.js"/>
<svg id="graph" class="graph">
<g id="graph0" class="graph" transform="scale(1 1) rotate(0) translate(4 173)">
<title>load_lib</title>
<!-- Node1 -->
<g id="Node000001" class="node">
<title>Node1</title>
<g id="a_Node000001"><a xlink:title="Load a DLL or SO file.">
<polygon fill="#999999" stroke="#666666" points="453,-91.5 398,-91.5 398,-72.5 453,-72.5 453,-91.5"/>
<text text-anchor="middle" x="425.5" y="-79.5" font-family="Helvetica,sans-Serif" font-size="10.00">load_lib</text>
</a>
</g>
</g>
<!-- Node2 -->
<g id="Node000002" class="node">
<title>Node2</title>
<g id="a_Node000002"><a xlink:href="classalpaqa_1_1CUTEstLoader.html#a5ac919a21e5360487c5494793dfd287e" target="_top" xlink:title=" ">
<polygon fill="white" stroke="#666666" points="344.5,-169 220.5,-169 220.5,-139 344.5,-139 344.5,-169"/>
<text text-anchor="start" x="228.5" y="-157" font-family="Helvetica,sans-Serif" font-size="10.00">alpaqa::CUTEstLoader</text>
<text text-anchor="middle" x="282.5" y="-146" font-family="Helvetica,sans-Serif" font-size="10.00">::CUTEstLoader</text>
</a>
</g>
</g>
<!-- Node1&#45;&gt;Node2 -->
<g id="edge1_Node000001_Node000002" class="edge">
<title>Node1&#45;&gt;Node2</title>
<g id="a_edge1_Node000001_Node000002"><a xlink:title=" ">
<path fill="none" stroke="#63b8ff" d="M406.44,-98.69C394.55,-108.92 378.25,-121.63 362,-130 355.54,-133.33 348.54,-136.28 341.47,-138.88"/>
<polygon fill="#63b8ff" stroke="#63b8ff" points="409.08,-101.02 414.24,-91.77 404.44,-95.78 409.08,-101.02"/>
</a>
</g>
</g>
<!-- Node3 -->
<g id="Node000003" class="node">
<title>Node3</title>
<g id="a_Node000003"><a xlink:href="classalpaqa_1_1dl_1_1DLControlProblem.html#a4c9b3654c0a058fbf697cf2f02269f4f" target="_top" xlink:title="Load a problem from a shared library.">
<polygon fill="white" stroke="#666666" points="362,-121 203,-121 203,-91 362,-91 362,-121"/>
<text text-anchor="start" x="211" y="-109" font-family="Helvetica,sans-Serif" font-size="10.00">alpaqa::dl::DLControlProblem</text>
<text text-anchor="middle" x="282.5" y="-98" font-family="Helvetica,sans-Serif" font-size="10.00">::DLControlProblem</text>
</a>
</g>
</g>
<!-- Node1&#45;&gt;Node3 -->
<g id="edge2_Node000001_Node000003" class="edge">
<title>Node1&#45;&gt;Node3</title>
<g id="a_edge2_Node000001_Node000003"><a xlink:title=" ">
<path fill="none" stroke="#63b8ff" d="M387.96,-88.22C379.97,-89.58 371.21,-91.07 362.27,-92.59"/>
<polygon fill="#63b8ff" stroke="#63b8ff" points="388.71,-91.64 397.98,-86.51 387.53,-84.74 388.71,-91.64"/>
</a>
</g>
</g>
<!-- Node4 -->
<g id="Node000004" class="node">
<title>Node4</title>
<g id="a_Node000004"><a xlink:href="classalpaqa_1_1dl_1_1DLProblem.html#a7d2e63f4609e330037cf09bbc12e3c20" target="_top" xlink:title="Load a problem from a shared library.">
<polygon fill="white" stroke="#666666" points="344.5,-73 220.5,-73 220.5,-43 344.5,-43 344.5,-73"/>
<text text-anchor="start" x="228.5" y="-61" font-family="Helvetica,sans-Serif" font-size="10.00">alpaqa::dl::DLProblem</text>
<text text-anchor="middle" x="282.5" y="-50" font-family="Helvetica,sans-Serif" font-size="10.00">::DLProblem</text>
</a>
</g>
</g>
<!-- Node1&#45;&gt;Node4 -->
<g id="edge3_Node000001_Node000004" class="edge">
<title>Node1&#45;&gt;Node4</title>
<g id="a_edge3_Node000001_Node000004"><a xlink:title=" ">
<path fill="none" stroke="#63b8ff" d="M387.89,-75.77C374.7,-73.52 359.42,-70.92 344.7,-68.42"/>
<polygon fill="#63b8ff" stroke="#63b8ff" points="387.53,-79.26 397.98,-77.49 388.71,-72.36 387.53,-79.26"/>
</a>
</g>
</g>
<!-- Node5 -->
<g id="Node000005" class="node">
<title>Node5</title>
<g id="a_Node000005"><a xlink:href="namespacealpaqa_1_1casadi.html#a89323cd224eb28c58950edc7c4bb3598" target="_top" xlink:title="Load the given CasADi function from the given DLL/SO file.">
<polygon fill="white" stroke="#666666" points="349.5,-24.5 215.5,-24.5 215.5,-5.5 349.5,-5.5 349.5,-24.5"/>
<text text-anchor="middle" x="282.5" y="-12.5" font-family="Helvetica,sans-Serif" font-size="10.00">alpaqa::casadi::external</text>
</a>
</g>
</g>
<!-- Node1&#45;&gt;Node5 -->
<g id="edge4_Node000001_Node000005" class="edge">
<title>Node1&#45;&gt;Node5</title>
<g id="a_edge4_Node000001_Node000005"><a xlink:title=" ">
<path fill="none" stroke="#63b8ff" d="M407.37,-65.66C395.5,-55.17 378.85,-42.06 362,-34 354.03,-30.19 345.23,-27.1 336.49,-24.61"/>
<polygon fill="#63b8ff" stroke="#63b8ff" points="405.02,-68.25 414.77,-72.4 409.74,-63.08 405.02,-68.25"/>
</a>
</g>
</g>
<!-- Node6 -->
<g id="Node000006" class="node">
<title>Node6</title>
<g id="a_Node000006"><a xlink:href="classalpaqa_1_1CasADiControlProblem.html#a8e2b94a109c662591fb7d2e3a662bba1" target="_top" xlink:title=" ">
<polygon fill="white" stroke="#666666" points="167,-30 0,-30 0,0 167,0 167,-30"/>
<text text-anchor="start" x="8" y="-18" font-family="Helvetica,sans-Serif" font-size="10.00">alpaqa::CasADiControlProblem</text>
<text text-anchor="middle" x="83.5" y="-7" font-family="Helvetica,sans-Serif" font-size="10.00">::CasADiControlProblem</text>
</a>
</g>
</g>
<!-- Node5&#45;&gt;Node6 -->
<g id="edge5_Node000005_Node000006" class="edge">
<title>Node5&#45;&gt;Node6</title>
<g id="a_edge5_Node000005_Node000006"><a xlink:title=" ">
<path fill="none" stroke="#63b8ff" d="M205.08,-15C192.69,-15 179.8,-15 167.27,-15"/>
<polygon fill="#63b8ff" stroke="#63b8ff" points="205.35,-18.5 215.35,-15 205.35,-11.5 205.35,-18.5"/>
</a>
</g>
</g>
</g>
</svg>
</svg>

<style type='text/css'>
<![CDATA[
[data-mouse-over-selected='false'] { opacity: 0.7; }
[data-mouse-over-selected='true']  { opacity: 1.0; }
]]>
</style>
<script type="application/ecmascript"><![CDATA[
document.addEventListener('DOMContentLoaded', (event) => {
  highlightEdges();
  highlightAdjacentNodes();
});
]]></script>
</svg>
