<?xml version="1.0" encoding="UTF-8" standalone="no"?>
<!DOCTYPE svg PUBLIC "-//W3C//DTD SVG 1.1//EN"
 "http://www.w3.org/Graphics/SVG/1.1/DTD/svg11.dtd">
<!-- Generated by graphviz version 2.43.0 (0)
 -->
<!-- Title: split_key Pages: 1 -->
<!--zoomable 543 -->

<svg id="main" version="1.1" xmlns="http://www.w3.org/2000/svg" xmlns:xlink="http://www.w3.org/1999/xlink" xml:space="preserve" onload="init(evt)">
<style type="text/css"><![CDATA[
.node, .edge {opacity: 0.7;}
.node.selected, .edge.selected {opacity: 1;}
.edge:hover path { stroke: red; }
.edge:hover polygon { stroke: red; fill: red; }
]]></style>

<defs>
  <circle id="rim" cx="0" cy="0" r="7"/>
  <circle id="rim2" cx="0" cy="0" r="3.5"/>
  <g id="zoomPlus">
    <use xlink:href="#rim" fill="#404040"><set attributeName="fill" to="#808080" begin="zoomplus.mouseover" end="zoomplus.mouseout"/></use>
    <path d="M-4,0h8M0,-4v8" fill="none" stroke="white" stroke-width="1.5" pointer-events="none"/>
  </g>
  <g id="zoomMin">
    <use xlink:href="#rim" fill="#404040"><set attributeName="fill" to="#808080" begin="zoomminus.mouseover" end="zoomminus.mouseout"/></use>
    <path d="M-4,0h8" fill="none" stroke="white" stroke-width="1.5" pointer-events="none"/>
  </g>
  <g id="arrowUp" transform="translate(30 24)">
    <use xlink:href="#rim"/>
    <path pointer-events="none" fill="none" stroke="white" stroke-width="1.5" d="M0,-3.0v7 M-2.5,-0.5L0,-3.0L2.5,-0.5"/>
  </g>
  <g id="arrowRight" transform="rotate(90) translate(36 -43)">
    <use xlink:href="#rim"/>
    <path pointer-events="none" fill="none" stroke="white" stroke-width="1.5" d="M0,-3.0v7 M-2.5,-0.5L0,-3.0L2.5,-0.5"/>
  </g>
  <g id="arrowDown" transform="rotate(180) translate(-30 -48)">
    <use xlink:href="#rim"/>
    <path pointer-events="none" fill="none" stroke="white" stroke-width="1.5" d="M0,-3.0v7 M-2.5,-0.5L0,-3.0L2.5,-0.5"/>
  </g>
  <g id="arrowLeft" transform="rotate(270) translate(-36 17)">
    <use xlink:href="#rim"/>
    <path pointer-events="none" fill="none" stroke="white" stroke-width="1.5" d="M0,-3.0v7 M-2.5,-0.5L0,-3.0L2.5,-0.5"/>
  </g>
  <g id="resetDef">
    <use xlink:href="#rim2" fill="#404040"><set attributeName="fill" to="#808080" begin="reset.mouseover" end="reset.mouseout"/></use>
  </g>
</defs>
<script type="application/ecmascript">
var viewWidth = 828;
var viewHeight = 543;
var sectionId = 'dynsection-25';
</script>
<script type="application/ecmascript" xlink:href="svg.min.js"/>
<svg id="graph" class="graph">
<g id="viewport">
<title>split_key</title>
<!-- Node1 -->
<g id="Node000001" class="node">
<title>Node1</title>
<g id="a_Node000001"><a xlink:title="Split the string full on the first occurrence of tok.">
<polygon fill="#999999" stroke="#666666" points="820,-404 760,-404 760,-385 820,-385 820,-404"/>
<text text-anchor="middle" x="790" y="-392" font-family="Helvetica,sans-Serif" font-size="10.00">split_key</text>
</a>
</g>
</g>
<!-- Node2 -->
<g id="Node000002" class="node">
<title>Node2</title>
<g id="a_Node000002"><a xlink:href="alpaqa-driver_8cpp.html#a3430011226186bf05d5c2552270587b7" target="_top" xlink:title=" ">
<polygon fill="white" stroke="#666666" points="300,-535 193,-535 193,-516 300,-516 300,-535"/>
<text text-anchor="middle" x="246.5" y="-523" font-family="Helvetica,sans-Serif" font-size="10.00">get_solver_builder</text>
</a>
</g>
</g>
<!-- Node1&#45;&gt;Node2 -->
<g id="edge1_Node000001_Node000002" class="edge">
<title>Node1&#45;&gt;Node2</title>
<g id="a_edge1_Node000001_Node000002"><a xlink:title=" ">
<path fill="none" stroke="#63b8ff" d="M773.77,-411.67C761.59,-424.24 743.4,-440.6 724,-449.5 580.86,-515.18 390.98,-525.38 300.2,-526.16"/>
<polygon fill="#63b8ff" stroke="#63b8ff" points="776.59,-413.78 780.85,-404.08 771.47,-409 776.59,-413.78"/>
</a>
</g>
</g>
<!-- Node4 -->
<g id="Node000004" class="node">
<title>Node4</title>
<g id="a_Node000004"><a xlink:href="namespacealpaqa_1_1params.html#af8d85f5413c4507303b00e5fb7279aea" target="_top" xlink:title=" ">
<polygon fill="white" stroke="#666666" points="704,-404 636,-404 636,-385 704,-385 704,-404"/>
<text text-anchor="middle" x="670" y="-392" font-family="Helvetica,sans-Serif" font-size="10.00">set_param</text>
</a>
</g>
</g>
<!-- Node1&#45;&gt;Node4 -->
<g id="edge3_Node000001_Node000004" class="edge">
<title>Node1&#45;&gt;Node4</title>
<g id="a_edge3_Node000001_Node000004"><a xlink:title=" ">
<path fill="none" stroke="#63b8ff" d="M749.55,-394.5C734.92,-394.5 718.47,-394.5 704.42,-394.5"/>
<polygon fill="#63b8ff" stroke="#63b8ff" points="749.83,-398 759.83,-394.5 749.83,-391 749.83,-398"/>
</a>
</g>
</g>
<!-- Node5 -->
<g id="Node000005" class="node">
<title>Node5</title>
<g id="a_Node000005"><a xlink:href="namespacealpaqa_1_1params.html#a257fd29e6f4f447cb00eb1f8affdebec" target="_top" xlink:title=" ">
<polygon fill="white" stroke="#666666" points="704,-367 636,-367 636,-348 704,-348 704,-367"/>
<text text-anchor="middle" x="670" y="-355" font-family="Helvetica,sans-Serif" font-size="10.00">set_param</text>
</a>
</g>
</g>
<!-- Node1&#45;&gt;Node5 -->
<g id="edge4_Node000001_Node000005" class="edge">
<title>Node1&#45;&gt;Node5</title>
<g id="a_edge4_Node000001_Node000005"><a xlink:title=" ">
<path fill="none" stroke="#63b8ff" d="M749.85,-382.22C734.1,-377.29 716.23,-371.68 701.48,-367.06"/>
<polygon fill="#63b8ff" stroke="#63b8ff" points="749.24,-385.7 759.83,-385.35 751.34,-379.02 749.24,-385.7"/>
</a>
</g>
</g>
<!-- Node6 -->
<g id="Node000006" class="node">
<title>Node6</title>
<g id="a_Node000006"><a xlink:href="namespacealpaqa_1_1params.html#ac7a64e730d2b802c657ce5790042edd9" target="_top" xlink:title="Use s to index into the struct type T and overwrite the attribute given by s.key.">
<polygon fill="white" stroke="#666666" points="724,-330 616,-330 616,-311 724,-311 724,-330"/>
<text text-anchor="middle" x="670" y="-318" font-family="Helvetica,sans-Serif" font-size="10.00">set_param_default</text>
</a>
</g>
</g>
<!-- Node1&#45;&gt;Node6 -->
<g id="edge5_Node000001_Node000006" class="edge">
<title>Node1&#45;&gt;Node6</title>
<g id="a_edge5_Node000001_Node000006"><a xlink:title=" ">
<path fill="none" stroke="#63b8ff" d="M772.93,-377.51C760.54,-365.24 742.46,-349.05 724,-338.5 718.26,-335.22 711.83,-332.41 705.49,-330.06"/>
<polygon fill="#63b8ff" stroke="#63b8ff" points="770.69,-380.22 780.19,-384.9 775.68,-375.32 770.69,-380.22"/>
</a>
</g>
</g>
<!-- Node7 -->
<g id="Node000007" class="node">
<title>Node7</title>
<g id="a_Node000007"><a xlink:href="namespacealpaqa_1_1params.html#abadc98653193fbd05b658d62b34f75e7" target="_top" xlink:title="Overwrites t based on the options that start with prefix.">
<polygon fill="white" stroke="#666666" points="707,-441 633,-441 633,-422 707,-422 707,-441"/>
<text text-anchor="middle" x="670" y="-429" font-family="Helvetica,sans-Serif" font-size="10.00">set_params</text>
</a>
</g>
</g>
<!-- Node1&#45;&gt;Node7 -->
<g id="edge6_Node000001_Node000007" class="edge">
<title>Node1&#45;&gt;Node7</title>
<g id="a_edge6_Node000001_Node000007"><a xlink:title=" ">
<path fill="none" stroke="#63b8ff" d="M749.85,-406.78C734.1,-411.71 716.23,-417.32 701.48,-421.94"/>
<polygon fill="#63b8ff" stroke="#63b8ff" points="751.34,-409.98 759.83,-403.65 749.24,-403.3 751.34,-409.98"/>
</a>
</g>
</g>
<!-- Node3 -->
<g id="Node000003" class="node">
<title>Node3</title>
<g id="a_Node000003"><a xlink:href="alpaqa-driver_8cpp.html#ac0f2228420376f4db7e1274f2b41667c" target="_top" xlink:title=" ">
<polygon fill="white" stroke="#666666" points="90.5,-478 49.5,-478 49.5,-459 90.5,-459 90.5,-478"/>
<text text-anchor="middle" x="70" y="-466" font-family="Helvetica,sans-Serif" font-size="10.00">main</text>
</a>
</g>
</g>
<!-- Node2&#45;&gt;Node3 -->
<g id="edge2_Node000002_Node000003" class="edge">
<title>Node2&#45;&gt;Node3</title>
<g id="a_edge2_Node000002_Node000003"><a xlink:title=" ">
<path fill="none" stroke="#63b8ff" d="M206.6,-512.79C170.59,-501.03 118.52,-484.02 90.54,-474.88"/>
<polygon fill="#63b8ff" stroke="#63b8ff" points="205.7,-516.18 216.29,-515.96 207.87,-509.53 205.7,-516.18"/>
</a>
</g>
</g>
<!-- Node8 -->
<g id="Node000008" class="node">
<title>Node8</title>
<g id="a_Node000008"><a xlink:href="classOptions.html#a8ca2e3915e8acf3cd04e02180e66e9ab" target="_top" xlink:title=" ">
<polygon fill="white" stroke="#666666" points="580,-422 463,-422 463,-403 580,-403 580,-422"/>
<text text-anchor="middle" x="521.5" y="-410" font-family="Helvetica,sans-Serif" font-size="10.00">Options::set_params</text>
</a>
</g>
</g>
<!-- Node7&#45;&gt;Node8 -->
<g id="edge7_Node000007_Node000008" class="edge">
<title>Node7&#45;&gt;Node8</title>
<g id="a_edge7_Node000007_Node000008"><a xlink:title=" ">
<path fill="none" stroke="#63b8ff" d="M622.78,-425.51C609.28,-423.76 594.36,-421.82 580.24,-419.99"/>
<polygon fill="#63b8ff" stroke="#63b8ff" points="622.42,-428.99 632.79,-426.8 623.32,-422.05 622.42,-428.99"/>
</a>
</g>
</g>
<!-- Node9 -->
<g id="Node000009" class="node">
<title>Node9</title>
<g id="a_Node000009"><a xlink:href="options_8hpp.html#a91fca5414dbe50bec5104c59d9ebda11" target="_top" xlink:title=" ">
<polygon fill="white" stroke="#666666" points="427,-347 353,-347 353,-328 427,-328 427,-347"/>
<text text-anchor="middle" x="390" y="-335" font-family="Helvetica,sans-Serif" font-size="10.00">set_params</text>
</a>
</g>
</g>
<!-- Node8&#45;&gt;Node9 -->
<g id="edge8_Node000008_Node000009" class="edge">
<title>Node8&#45;&gt;Node9</title>
<g id="a_edge8_Node000008_Node000009"><a xlink:title=" ">
<path fill="none" stroke="#63b8ff" d="M494.96,-397.71C469.05,-382.7 429.71,-359.92 407.6,-347.11"/>
<polygon fill="#63b8ff" stroke="#63b8ff" points="493.43,-400.87 503.84,-402.85 496.94,-394.81 493.43,-400.87"/>
</a>
</g>
</g>
<!-- Node9&#45;&gt;Node2 -->
<g id="edge15_Node000009_Node000002" class="edge">
<title>Node9&#45;&gt;Node2</title>
<g id="a_edge15_Node000009_Node000002"><a xlink:title=" ">
<path fill="none" stroke="#63b8ff" d="M385.63,-357.31C378.8,-391.5 360.13,-461.73 317,-501.5 310.15,-507.82 301.55,-512.48 292.77,-515.92"/>
<polygon fill="#63b8ff" stroke="#63b8ff" points="389.12,-357.67 387.51,-347.2 382.24,-356.39 389.12,-357.67"/>
</a>
</g>
</g>
<!-- Node9&#45;&gt;Node3 -->
<g id="edge18_Node000009_Node000003" class="edge">
<title>Node9&#45;&gt;Node3</title>
<g id="a_edge18_Node000009_Node000003"><a xlink:title=" ">
<path fill="none" stroke="#63b8ff" d="M384.75,-357.09C377.06,-387.06 357.73,-443.39 317,-467.5 243.5,-511.02 134.7,-487.15 90.61,-474.62"/>
<polygon fill="#63b8ff" stroke="#63b8ff" points="388.15,-357.88 387.07,-347.34 381.34,-356.26 388.15,-357.88"/>
</a>
</g>
</g>
<!-- Node10 -->
<g id="Node000010" class="node">
<title>Node10</title>
<g id="a_Node000010"><a xlink:href="namespaceanonymous__namespace_02problem_8cpp_03.html#a1b79c8c67d4bc5eba618a86e8b0a7744" target="_top" xlink:title=" ">
<polygon fill="white" stroke="#666666" points="314,-253 179,-253 179,-212 314,-212 314,-253"/>
<text text-anchor="start" x="187" y="-241" font-family="Helvetica,sans-Serif" font-size="10.00">anonymous_namespace</text>
<text text-anchor="start" x="187" y="-230" font-family="Helvetica,sans-Serif" font-size="10.00">{problem::cpp}::get</text>
<text text-anchor="middle" x="246.5" y="-219" font-family="Helvetica,sans-Serif" font-size="10.00">_dl_flags</text>
</a>
</g>
</g>
<!-- Node9&#45;&gt;Node10 -->
<g id="edge9_Node000009_Node000010" class="edge">
<title>Node9&#45;&gt;Node10</title>
<g id="a_edge9_Node000009_Node000010"><a xlink:title=" ">
<path fill="none" stroke="#63b8ff" d="M367.63,-321.65C342.98,-303.35 302.35,-273.2 275.27,-253.1"/>
<polygon fill="#63b8ff" stroke="#63b8ff" points="365.83,-324.66 375.94,-327.81 370,-319.04 365.83,-324.66"/>
</a>
</g>
</g>
<!-- Node11 -->
<g id="Node000011" class="node">
<title>Node11</title>
<g id="a_Node000011"><a xlink:href="alpaqa-driver_8cpp.html#a53c823aeddf0a1b037645504d26ee7cd" target="_top" xlink:title=" ">
<polygon fill="white" stroke="#666666" points="297,-459 196,-459 196,-440 297,-440 297,-459"/>
<text text-anchor="middle" x="246.5" y="-447" font-family="Helvetica,sans-Serif" font-size="10.00">get_output_paths</text>
</a>
</g>
</g>
<!-- Node9&#45;&gt;Node11 -->
<g id="edge11_Node000009_Node000011" class="edge">
<title>Node9&#45;&gt;Node11</title>
<g id="a_edge11_Node000009_Node000011"><a xlink:title=" ">
<path fill="none" stroke="#63b8ff" d="M379.51,-356.02C367.7,-377.2 345.57,-411.39 317,-430.5 310.97,-434.53 304.1,-437.71 297.09,-440.22"/>
<polygon fill="#63b8ff" stroke="#63b8ff" points="382.68,-357.52 384.32,-347.05 376.51,-354.21 382.68,-357.52"/>
</a>
</g>
</g>
<!-- Node12 -->
<g id="Node000012" class="node">
<title>Node12</title>
<g id="a_Node000012"><a xlink:href="alpaqa-driver_8cpp.html#a62667720f096806ed08c60e4207f8972" target="_top" xlink:title=" ">
<polygon fill="white" stroke="#666666" points="301,-385 192,-385 192,-366 301,-366 301,-385"/>
<text text-anchor="middle" x="246.5" y="-373" font-family="Helvetica,sans-Serif" font-size="10.00">get_output_stream</text>
</a>
</g>
</g>
<!-- Node9&#45;&gt;Node12 -->
<g id="edge13_Node000009_Node000012" class="edge">
<title>Node9&#45;&gt;Node12</title>
<g id="a_edge13_Node000009_Node000012"><a xlink:title=" ">
<path fill="none" stroke="#63b8ff" d="M343.4,-349.75C323.89,-354.98 301.46,-361.01 283.2,-365.91"/>
<polygon fill="#63b8ff" stroke="#63b8ff" points="344.54,-353.06 353.29,-347.09 342.73,-346.3 344.54,-353.06"/>
</a>
</g>
</g>
<!-- Node13 -->
<g id="Node000013" class="node">
<title>Node13</title>
<g id="a_Node000013"><a xlink:href="namespaceanonymous__namespace_02problem_8cpp_03.html#ab42fb3dc0421d6c6c1f45d753a95a2c4" target="_top" xlink:title=" ">
<polygon fill="white" stroke="#666666" points="314,-176 179,-176 179,-135 314,-135 314,-176"/>
<text text-anchor="start" x="187" y="-164" font-family="Helvetica,sans-Serif" font-size="10.00">anonymous_namespace</text>
<text text-anchor="start" x="187" y="-153" font-family="Helvetica,sans-Serif" font-size="10.00">{problem::cpp}::load</text>
<text text-anchor="middle" x="246.5" y="-142" font-family="Helvetica,sans-Serif" font-size="10.00">_initial_guess</text>
</a>
</g>
</g>
<!-- Node9&#45;&gt;Node13 -->
<g id="edge16_Node000009_Node000013" class="edge">
<title>Node9&#45;&gt;Node13</title>
<g id="a_edge16_Node000009_Node000013"><a xlink:title=" ">
<path fill="none" stroke="#63b8ff" d="M382.19,-318.27C371.59,-290.34 348.99,-238.03 317,-202.5 307.94,-192.43 296.28,-183.48 285.12,-176.16"/>
<polygon fill="#63b8ff" stroke="#63b8ff" points="378.92,-319.51 385.66,-327.69 385.49,-317.1 378.92,-319.51"/>
</a>
</g>
</g>
<!-- Node14 -->
<g id="Node000014" class="node">
<title>Node14</title>
<g id="a_Node000014"><a xlink:href="alm-driver_8hpp.html#ae4ef291d9ec9d55ee804b5723ea2e641" target="_top" xlink:title=" ">
<polygon fill="white" stroke="#666666" points="298,-117 195,-117 195,-98 298,-98 298,-117"/>
<text text-anchor="middle" x="246.5" y="-105" font-family="Helvetica,sans-Serif" font-size="10.00">make_alm_solver</text>
</a>
</g>
</g>
<!-- Node9&#45;&gt;Node14 -->
<g id="edge19_Node000009_Node000014" class="edge">
<title>Node9&#45;&gt;Node14</title>
<g id="a_edge19_Node000009_Node000014"><a xlink:title=" ">
<path fill="none" stroke="#63b8ff" d="M388.27,-317.76C385.61,-275.91 373.36,-177.83 317,-125.5 311.61,-120.5 305.01,-116.84 298.05,-114.18"/>
<polygon fill="#63b8ff" stroke="#63b8ff" points="384.77,-317.97 388.78,-327.77 391.76,-317.61 384.77,-317.97"/>
</a>
</g>
</g>
<!-- Node15 -->
<g id="Node000015" class="node">
<title>Node15</title>
<g id="a_Node000015"><a xlink:href="namespaceanonymous__namespace_02fista-driver_8cpp_03.html#a479d5f0dacbf404f04a694bb1be6f6c5" target="_top" xlink:title=" ">
<polygon fill="white" stroke="#666666" points="138.5,-90 1.5,-90 1.5,-49 138.5,-49 138.5,-90"/>
<text text-anchor="start" x="9.5" y="-78" font-family="Helvetica,sans-Serif" font-size="10.00">anonymous_namespace</text>
<text text-anchor="start" x="9.5" y="-67" font-family="Helvetica,sans-Serif" font-size="10.00">{fista&#45;driver::cpp}</text>
<text text-anchor="middle" x="70" y="-56" font-family="Helvetica,sans-Serif" font-size="10.00">::make_fista_driver_impl</text>
</a>
</g>
</g>
<!-- Node9&#45;&gt;Node15 -->
<g id="edge23_Node000009_Node000015" class="edge">
<title>Node9&#45;&gt;Node15</title>
<g id="a_edge23_Node000009_Node000015"><a xlink:title=" ">
<path fill="none" stroke="#63b8ff" d="M386.21,-317.78C378.19,-264.23 353.33,-118.07 317,-88.5 267.67,-48.34 192.79,-48.38 138.61,-55.49"/>
<polygon fill="#63b8ff" stroke="#63b8ff" points="382.75,-318.34 387.66,-327.73 389.68,-317.33 382.75,-318.34"/>
</a>
</g>
</g>
<!-- Node16 -->
<g id="Node000016" class="node">
<title>Node16</title>
<g id="a_Node000016"><a xlink:href="namespaceanonymous__namespace_02panoc-driver_8cpp_03.html#ab2ca1091ea82102367666b62756cd7f6" target="_top" xlink:title=" ">
<polygon fill="white" stroke="#666666" points="140,-321 0,-321 0,-280 140,-280 140,-321"/>
<text text-anchor="start" x="8" y="-309" font-family="Helvetica,sans-Serif" font-size="10.00">anonymous_namespace</text>
<text text-anchor="start" x="8" y="-298" font-family="Helvetica,sans-Serif" font-size="10.00">{panoc&#45;driver::cpp}</text>
<text text-anchor="middle" x="70" y="-287" font-family="Helvetica,sans-Serif" font-size="10.00">::make_panoc_like_driver</text>
</a>
</g>
</g>
<!-- Node9&#45;&gt;Node16 -->
<g id="edge27_Node000009_Node000016" class="edge">
<title>Node9&#45;&gt;Node16</title>
<g id="a_edge27_Node000009_Node000016"><a xlink:title=" ">
<path fill="none" stroke="#63b8ff" d="M342.62,-332.42C299.46,-327.66 233.36,-320.28 176,-313.5 164.42,-312.13 152.12,-310.64 140.18,-309.17"/>
<polygon fill="#63b8ff" stroke="#63b8ff" points="342.48,-335.93 352.81,-333.54 343.25,-328.97 342.48,-335.93"/>
</a>
</g>
</g>
<!-- Node17 -->
<g id="Node000017" class="node">
<title>Node17</title>
<g id="a_Node000017"><a xlink:href="namespaceanonymous__namespace_02pantr-driver_8cpp_03.html#a39b6aa8ff07d8400d404f191bdccd499" target="_top" xlink:title=" ">
<polygon fill="white" stroke="#666666" points="139,-187 1,-187 1,-146 139,-146 139,-187"/>
<text text-anchor="start" x="9" y="-175" font-family="Helvetica,sans-Serif" font-size="10.00">anonymous_namespace</text>
<text text-anchor="start" x="9" y="-164" font-family="Helvetica,sans-Serif" font-size="10.00">{pantr&#45;driver::cpp}</text>
<text text-anchor="middle" x="70" y="-153" font-family="Helvetica,sans-Serif" font-size="10.00">::make_pantr_like_solver</text>
</a>
</g>
</g>
<!-- Node9&#45;&gt;Node17 -->
<g id="edge28_Node000009_Node000017" class="edge">
<title>Node9&#45;&gt;Node17</title>
<g id="a_edge28_Node000009_Node000017"><a xlink:title=" ">
<path fill="none" stroke="#63b8ff" d="M352.57,-324.69C341.24,-320.88 328.66,-316.84 317,-313.5 255.03,-295.74 231.64,-312.05 176,-279.5 136.01,-256.1 102.12,-212.72 84.34,-187.05"/>
<polygon fill="#63b8ff" stroke="#63b8ff" points="351.56,-328.04 362.16,-327.95 353.82,-321.42 351.56,-328.04"/>
</a>
</g>
</g>
<!-- Node18 -->
<g id="Node000018" class="node">
<title>Node18</title>
<g id="a_Node000018"><a xlink:href="namespaceanonymous__namespace_02fista-driver_8cpp_03.html#a6f96d677b5961c6a4fcaa773f37ca65b" target="_top" xlink:title=" ">
<polygon fill="white" stroke="#666666" points="317,-41 176,-41 176,0 317,0 317,-41"/>
<text text-anchor="start" x="184" y="-29" font-family="Helvetica,sans-Serif" font-size="10.00">anonymous_namespace</text>
<text text-anchor="start" x="184" y="-18" font-family="Helvetica,sans-Serif" font-size="10.00">{fista&#45;driver::cpp}</text>
<text text-anchor="middle" x="246.5" y="-7" font-family="Helvetica,sans-Serif" font-size="10.00">::make_inner_fista_solver</text>
</a>
</g>
</g>
<!-- Node9&#45;&gt;Node18 -->
<g id="edge24_Node000009_Node000018" class="edge">
<title>Node9&#45;&gt;Node18</title>
<g id="a_edge24_Node000009_Node000018"><a xlink:title=" ">
<path fill="none" stroke="#63b8ff" d="M389.29,-317.68C389,-267.94 381.76,-136.06 317,-55.5 312.51,-49.92 306.91,-45.15 300.83,-41.09"/>
<polygon fill="#63b8ff" stroke="#63b8ff" points="385.79,-317.73 389.26,-327.74 392.79,-317.76 385.79,-317.73"/>
</a>
</g>
</g>
<!-- Node19 -->
<g id="Node000019" class="node">
<title>Node19</title>
<g id="a_Node000019"><a xlink:href="alm-driver_8hpp.html#a51b2a2cde56762bcb43a2f4da0913f98" target="_top" xlink:title=" ">
<polygon fill="white" stroke="#666666" points="301,-422 192,-422 192,-403 301,-403 301,-422"/>
<text text-anchor="middle" x="246.5" y="-410" font-family="Helvetica,sans-Serif" font-size="10.00">make_inner_solver</text>
</a>
</g>
</g>
<!-- Node9&#45;&gt;Node19 -->
<g id="edge26_Node000009_Node000019" class="edge">
<title>Node9&#45;&gt;Node19</title>
<g id="a_edge26_Node000009_Node000019"><a xlink:title=" ">
<path fill="none" stroke="#63b8ff" d="M371.45,-354.39C357.65,-366.83 337.41,-383.29 317,-393.5 309.39,-397.31 300.92,-400.43 292.59,-402.97"/>
<polygon fill="#63b8ff" stroke="#63b8ff" points="374.2,-356.62 379.16,-347.26 369.44,-351.49 374.2,-356.62"/>
</a>
</g>
</g>
<!-- Node10&#45;&gt;Node10 -->
<g id="edge10_Node000010_Node000010" class="edge">
<title>Node10&#45;&gt;Node10</title>
<g id="a_edge10_Node000010_Node000010"><a xlink:title=" ">
<path fill="none" stroke="#63b8ff" d="M270.93,-262.96C267.3,-267.74 259.15,-271 246.5,-271 226.25,-271 217.55,-262.65 220.4,-253.1"/>
<polygon fill="#63b8ff" stroke="#63b8ff" points="274.38,-263.54 272.6,-253.1 267.48,-262.37 274.38,-263.54"/>
</a>
</g>
</g>
<!-- Node11&#45;&gt;Node3 -->
<g id="edge12_Node000011_Node000003" class="edge">
<title>Node11&#45;&gt;Node3</title>
<g id="a_edge12_Node000011_Node000003"><a xlink:title=" ">
<path fill="none" stroke="#63b8ff" d="M185.92,-455.99C152.87,-459.59 113.91,-463.83 90.9,-466.33"/>
<polygon fill="#63b8ff" stroke="#63b8ff" points="186.4,-459.46 195.96,-454.89 185.64,-452.5 186.4,-459.46"/>
</a>
</g>
</g>
<!-- Node12&#45;&gt;Node3 -->
<g id="edge14_Node000012_Node000003" class="edge">
<title>Node12&#45;&gt;Node3</title>
<g id="a_edge14_Node000012_Node000003"><a xlink:title=" ">
<path fill="none" stroke="#63b8ff" d="M188.9,-388.27C184.46,-389.84 180.11,-391.58 176,-393.5 138.04,-411.22 99.51,-443.07 81.5,-458.95"/>
<polygon fill="#63b8ff" stroke="#63b8ff" points="190.25,-391.51 198.69,-385.1 188.1,-384.85 190.25,-391.51"/>
</a>
</g>
</g>
<!-- Node13&#45;&gt;Node13 -->
<g id="edge17_Node000013_Node000013" class="edge">
<title>Node13&#45;&gt;Node13</title>
<g id="a_edge17_Node000013_Node000013"><a xlink:title=" ">
<path fill="none" stroke="#63b8ff" d="M270.93,-185.96C267.3,-190.74 259.15,-194 246.5,-194 226.25,-194 217.55,-185.65 220.4,-176.1"/>
<polygon fill="#63b8ff" stroke="#63b8ff" points="274.38,-186.54 272.6,-176.1 267.48,-185.37 274.38,-186.54"/>
</a>
</g>
</g>
<!-- Node14&#45;&gt;Node15 -->
<g id="edge20_Node000014_Node000015" class="edge">
<title>Node14&#45;&gt;Node15</title>
<g id="a_edge20_Node000014_Node000015"><a xlink:title=" ">
<path fill="none" stroke="#63b8ff" d="M191.38,-95.71C174.75,-92.09 156.24,-88.06 138.81,-84.27"/>
<polygon fill="#63b8ff" stroke="#63b8ff" points="190.95,-99.2 201.47,-97.91 192.44,-92.36 190.95,-99.2"/>
</a>
</g>
</g>
<!-- Node14&#45;&gt;Node16 -->
<g id="edge21_Node000014_Node000016" class="edge">
<title>Node14&#45;&gt;Node16</title>
<g id="a_edge21_Node000014_Node000016"><a xlink:title=" ">
<path fill="none" stroke="#63b8ff" d="M185.56,-119.31C182.17,-121.09 178.95,-123.14 176,-125.5 148.68,-147.35 157.63,-165.28 140,-195.5 122.41,-225.64 99.86,-259.12 85.41,-279.99"/>
<polygon fill="#63b8ff" stroke="#63b8ff" points="187.14,-122.43 194.86,-115.18 184.3,-116.04 187.14,-122.43"/>
</a>
</g>
</g>
<!-- Node14&#45;&gt;Node17 -->
<g id="edge22_Node000014_Node000017" class="edge">
<title>Node14&#45;&gt;Node17</title>
<g id="a_edge22_Node000014_Node000017"><a xlink:title=" ">
<path fill="none" stroke="#63b8ff" d="M195.13,-119.79C188.66,-121.59 182.15,-123.51 176,-125.5 157.47,-131.49 137.49,-139.02 119.97,-145.99"/>
<polygon fill="#63b8ff" stroke="#63b8ff" points="196.46,-123.05 205.21,-117.07 194.64,-116.3 196.46,-123.05"/>
</a>
</g>
</g>
<!-- Node18&#45;&gt;Node15 -->
<g id="edge25_Node000018_Node000015" class="edge">
<title>Node18&#45;&gt;Node15</title>
<g id="a_edge25_Node000018_Node000015"><a xlink:title=" ">
<path fill="none" stroke="#63b8ff" d="M165.94,-42.84C156.81,-45.4 147.57,-48 138.62,-50.51"/>
<polygon fill="#63b8ff" stroke="#63b8ff" points="167.1,-46.15 175.78,-40.08 165.21,-39.41 167.1,-46.15"/>
</a>
</g>
</g>
</g>
</svg>

<g id="navigator" transform="translate(0 0)" fill="#404254">
  <rect fill="#f2f5e9" fill-opacity="0.5" stroke="#606060" stroke-width=".5" x="0" y="0" width="60" height="60"/>
  <use id="zoomplus" xlink:href="#zoomPlus" x="17" y="9" onmousedown="handleZoom(evt,'in')"/>
  <use id="zoomminus" xlink:href="#zoomMin" x="42" y="9" onmousedown="handleZoom(evt,'out')"/>
  <use id="reset" xlink:href="#resetDef" x="30" y="36" onmousedown="handleReset()"/>
   <use id="arrowup" xlink:href="#arrowUp" x="0" y="0" onmousedown="handlePan(0,-1)"/>
  <use id="arrowright" xlink:href="#arrowRight" x="0" y="0" onmousedown="handlePan(1,0)"/>
  <use id="arrowdown" xlink:href="#arrowDown" x="0" y="0" onmousedown="handlePan(0,1)"/>
  <use id="arrowleft" xlink:href="#arrowLeft" x="0" y="0" onmousedown="handlePan(-1,0)"/>
</g>
<svg viewBox="0 0 15 15" width="100%" height="30px" preserveAspectRatio="xMaxYMin meet">
 <g id="arrow_out" transform="scale(0.3 0.3)">
  <a xlink:href="namespacealpaqa_1_1params_aa3666becfea1ef2eb24d83f592c123e9_icgraph_org.svg" target="_base">
   <rect id="button" ry="5" rx="5" y="6" x="6" height="38" width="38"
        fill="#f2f5e9" fill-opacity="0.5" stroke="#606060" stroke-width="1.0"/>
   <path id="arrow"
     d="M 11.500037,31.436501 C 11.940474,20.09759 22.043105,11.32322 32.158766,21.979434 L 37.068811,17.246167 C 37.068811,17.246167 37.088388,32 37.088388,32 L 22.160133,31.978069 C 22.160133,31.978069 26.997745,27.140456 26.997745,27.140456 C 18.528582,18.264221 13.291696,25.230495 11.500037,31.436501 z"
     style="fill:#404040;"/>
  </a>
 </g>
</svg>

<style type='text/css'>
<![CDATA[
[data-mouse-over-selected='false'] { opacity: 0.7; }
[data-mouse-over-selected='true']  { opacity: 1.0; }
]]>
</style>
<script type="application/ecmascript"><![CDATA[
document.addEventListener('DOMContentLoaded', (event) => {
  highlightEdges();
  highlightAdjacentNodes();
});
]]></script>
</svg>
