<?xml version="1.0" encoding="UTF-8" standalone="no"?>
<!DOCTYPE svg PUBLIC "-//W3C//DTD SVG 1.1//EN"
 "http://www.w3.org/Graphics/SVG/1.1/DTD/svg11.dtd">
<!-- Generated by graphviz version 2.43.0 (0)
 -->
<!-- Title: LinConstrConverter&lt; Conf, IndexT, StorageIndexT &gt;::SparseView Pages: 1 -->
<svg width="162pt" height="139pt"
 viewBox="0.00 0.00 162.00 139.00" xmlns="http://www.w3.org/2000/svg" xmlns:xlink="http://www.w3.org/1999/xlink">
<g id="graph0" class="graph" transform="scale(1 1) rotate(0) translate(4 135)">
<title>LinConstrConverter&lt; Conf, IndexT, StorageIndexT &gt;::SparseView</title>
<!-- Node1 -->
<g id="Node000001" class="node">
<title>Node1</title>
<g id="a_Node000001"><a xlink:title=" ">
<polygon fill="#999999" stroke="transparent" points="154,-131 0,-131 0,0 154,0 154,-131"/>
<text text-anchor="start" x="5" y="-118.5" font-family="Helvetica,sans-Serif" font-size="10.00">LinConstrConverter</text>
<text text-anchor="start" x="5" y="-107.5" font-family="Helvetica,sans-Serif" font-size="10.00">&lt; Conf, IndexT, StorageIndex</text>
<text text-anchor="start" x="36.5" y="-96.5" font-family="Helvetica,sans-Serif" font-size="10.00">T &gt;::SparseView</text>
<text text-anchor="start" x="25.5" y="-81.5" font-family="Helvetica,sans-Serif" font-size="10.00">+</text>
<text text-anchor="start" x="60" y="-81.5" font-family="Helvetica,sans-Serif" font-size="10.00">nrow</text>
<text text-anchor="start" x="25.5" y="-66.5" font-family="Helvetica,sans-Serif" font-size="10.00">+</text>
<text text-anchor="start" x="60" y="-66.5" font-family="Helvetica,sans-Serif" font-size="10.00">ncol</text>
<text text-anchor="start" x="25.5" y="-51.5" font-family="Helvetica,sans-Serif" font-size="10.00">+</text>
<text text-anchor="start" x="60" y="-51.5" font-family="Helvetica,sans-Serif" font-size="10.00">inner_idx</text>
<text text-anchor="start" x="25.5" y="-36.5" font-family="Helvetica,sans-Serif" font-size="10.00">+</text>
<text text-anchor="start" x="60" y="-36.5" font-family="Helvetica,sans-Serif" font-size="10.00">outer_ptr</text>
<text text-anchor="start" x="25.5" y="-21.5" font-family="Helvetica,sans-Serif" font-size="10.00">+</text>
<text text-anchor="start" x="60" y="-21.5" font-family="Helvetica,sans-Serif" font-size="10.00">values</text>
<text text-anchor="start" x="75" y="-6.5" font-family="Helvetica,sans-Serif" font-size="10.00"> </text>
<polygon fill="#666666" stroke="#666666" points="0,-91.5 0,-91.5 154,-91.5 154,-91.5 0,-91.5"/>
<polygon fill="#666666" stroke="#666666" points="0,-16.5 0,-16.5 58,-16.5 58,-16.5 0,-16.5"/>
<polygon fill="#666666" stroke="#666666" points="58,-16.5 58,-16.5 154,-16.5 154,-16.5 58,-16.5"/>
<polygon fill="none" stroke="#666666" points="0,0 0,-131 154,-131 154,0 0,0"/>
</a>
</g>
</g>
</g>
</svg>
