<?xml version="1.0" encoding="UTF-8" standalone="no"?>
<!DOCTYPE svg PUBLIC "-//W3C//DTD SVG 1.1//EN"
 "http://www.w3.org/Graphics/SVG/1.1/DTD/svg11.dtd">
<!-- Generated by graphviz version 2.43.0 (0)
 -->
<!-- Title: is_bound Pages: 1 -->
<svg width="605pt" height="205pt"
 viewBox="0.00 0.00 605.00 204.50" xmlns="http://www.w3.org/2000/svg" xmlns:xlink="http://www.w3.org/1999/xlink">
<g id="graph0" class="graph" transform="scale(1 1) rotate(0) translate(4 200.5)">
<title>is_bound</title>
<!-- Node1 -->
<g id="Node000001" class="node">
<title>Node1</title>
<g id="a_Node000001"><a xlink:title="Check if the variable with the given index has bound constraints, i.e.">
<polygon fill="#999999" stroke="#666666" points="597,-105 537,-105 537,-86 597,-86 597,-105"/>
<text text-anchor="middle" x="567" y="-93" font-family="Helvetica,sans-Serif" font-size="10.00">is_bound</text>
</a>
</g>
</g>
<!-- Node2 -->
<g id="Node000002" class="node">
<title>Node2</title>
<g id="a_Node000002"><a xlink:href="structalpaqa_1_1LinConstrConverter.html#afff90c502e060851bb5be5d46ef5f561" target="_top" xlink:title=" ">
<polygon fill="white" stroke="#666666" points="322,-148.5 179,-148.5 179,-118.5 322,-118.5 322,-148.5"/>
<text text-anchor="start" x="187" y="-136.5" font-family="Helvetica,sans-Serif" font-size="10.00">add_box_constr_to_constr</text>
<text text-anchor="middle" x="250.5" y="-125.5" font-family="Helvetica,sans-Serif" font-size="10.00">_matrix</text>
</a>
</g>
</g>
<!-- Node1&#45;&gt;Node2 -->
<g id="edge1_Node000001_Node000002" class="edge">
<title>Node1&#45;&gt;Node2</title>
<g id="a_edge1_Node000001_Node000002"><a xlink:title=" ">
<path fill="none" stroke="#63b8ff" d="M527.1,-107.57C518.57,-109.85 509.54,-111.99 501,-113.5 441.2,-124.08 372.34,-129.07 322.13,-131.42"/>
<polygon fill="#63b8ff" stroke="#63b8ff" points="528.14,-110.91 536.83,-104.85 526.25,-104.17 528.14,-110.91"/>
</a>
</g>
</g>
<!-- Node5 -->
<g id="Node000005" class="node">
<title>Node5</title>
<g id="a_Node000005"><a xlink:href="structalpaqa_1_1LinConstrConverter.html#a43c6d67e83f07aa67fa248d1609b7be8" target="_top" xlink:title=" ">
<polygon fill="white" stroke="#666666" points="501,-193.5 358,-193.5 358,-163.5 501,-163.5 501,-193.5"/>
<text text-anchor="start" x="366" y="-181.5" font-family="Helvetica,sans-Serif" font-size="10.00">add_box_constr_to_constr</text>
<text text-anchor="middle" x="429.5" y="-170.5" font-family="Helvetica,sans-Serif" font-size="10.00">_matrix_inplace</text>
</a>
</g>
</g>
<!-- Node1&#45;&gt;Node5 -->
<g id="edge4_Node000001_Node000005" class="edge">
<title>Node1&#45;&gt;Node5</title>
<g id="a_edge4_Node000001_Node000005"><a xlink:title=" ">
<path fill="none" stroke="#63b8ff" d="M548.12,-111.92C535.57,-122.9 518.04,-137.18 501,-147.5 491.28,-153.39 480.24,-158.78 469.83,-163.36"/>
<polygon fill="#63b8ff" stroke="#63b8ff" points="550.47,-114.52 555.6,-105.25 545.81,-109.29 550.47,-114.52"/>
</a>
</g>
</g>
<!-- Node7 -->
<g id="Node000007" class="node">
<title>Node7</title>
<g id="a_Node000007"><a xlink:href="structalpaqa_1_1LinConstrConverter.html#abb10aadefa9f6c1ae1bde9ba04ae90ca" target="_top" xlink:title=" ">
<polygon fill="white" stroke="#666666" points="501,-67.5 358,-67.5 358,-37.5 501,-37.5 501,-67.5"/>
<text text-anchor="start" x="366" y="-55.5" font-family="Helvetica,sans-Serif" font-size="10.00">add_box_constr_to_constr</text>
<text text-anchor="middle" x="429.5" y="-44.5" font-family="Helvetica,sans-Serif" font-size="10.00">_matrix_inplace_vec</text>
</a>
</g>
</g>
<!-- Node1&#45;&gt;Node7 -->
<g id="edge6_Node000001_Node000007" class="edge">
<title>Node1&#45;&gt;Node7</title>
<g id="a_edge6_Node000001_Node000007"><a xlink:title=" ">
<path fill="none" stroke="#63b8ff" d="M527.23,-83.2C511.86,-78.32 494.03,-72.66 477.91,-67.54"/>
<polygon fill="#63b8ff" stroke="#63b8ff" points="526.34,-86.59 536.93,-86.28 528.46,-79.91 526.34,-86.59"/>
</a>
</g>
</g>
<!-- Node9 -->
<g id="Node000009" class="node">
<title>Node9</title>
<g id="a_Node000009"><a xlink:href="structalpaqa_1_1LinConstrConverter.html#aa199880d745352ec6c0262da91a9a452" target="_top" xlink:title=" ">
<polygon fill="white" stroke="#666666" points="471.5,-105 387.5,-105 387.5,-86 471.5,-86 471.5,-105"/>
<text text-anchor="middle" x="429.5" y="-93" font-family="Helvetica,sans-Serif" font-size="10.00">count_bounds</text>
</a>
</g>
</g>
<!-- Node1&#45;&gt;Node9 -->
<g id="edge8_Node000001_Node000009" class="edge">
<title>Node1&#45;&gt;Node9</title>
<g id="a_edge8_Node000001_Node000009"><a xlink:title=" ">
<path fill="none" stroke="#63b8ff" d="M526.62,-95.5C509.34,-95.5 489.07,-95.5 471.6,-95.5"/>
<polygon fill="#63b8ff" stroke="#63b8ff" points="526.93,-99 536.93,-95.5 526.93,-92 526.93,-99"/>
</a>
</g>
</g>
<!-- Node11 -->
<g id="Node000011" class="node">
<title>Node11</title>
<g id="a_Node000011"><a xlink:href="structalpaqa_1_1LinConstrConverter.html#ac88c0c936335726c98d0d6c36d0be9e7" target="_top" xlink:title=" ">
<polygon fill="white" stroke="#666666" points="459.5,-19 399.5,-19 399.5,0 459.5,0 459.5,-19"/>
<text text-anchor="middle" x="429.5" y="-7" font-family="Helvetica,sans-Serif" font-size="10.00">is_bound</text>
</a>
</g>
</g>
<!-- Node1&#45;&gt;Node11 -->
<g id="edge11_Node000001_Node000011" class="edge">
<title>Node1&#45;&gt;Node11</title>
<g id="a_edge11_Node000001_Node000011"><a xlink:title=" ">
<path fill="none" stroke="#63b8ff" d="M553.08,-77.54C541.2,-62.31 522.25,-41.01 501,-28.5 488.44,-21.11 472.93,-16.52 459.67,-13.71"/>
<polygon fill="#63b8ff" stroke="#63b8ff" points="550.41,-79.81 559.22,-85.69 556,-75.6 550.41,-79.81"/>
</a>
</g>
</g>
<!-- Node3 -->
<g id="Node000003" class="node">
<title>Node3</title>
<g id="a_Node000003"><a xlink:href="structalpaqa_1_1LinConstrConverter.html#a0ee59cb7fda24428de07e47b412d9050" target="_top" xlink:title=" ">
<polygon fill="white" stroke="#666666" points="143,-172.5 0,-172.5 0,-142.5 143,-142.5 143,-172.5"/>
<text text-anchor="start" x="8" y="-160.5" font-family="Helvetica,sans-Serif" font-size="10.00">add_box_constr_to_constr</text>
<text text-anchor="middle" x="71.5" y="-149.5" font-family="Helvetica,sans-Serif" font-size="10.00">_matrix</text>
</a>
</g>
</g>
<!-- Node2&#45;&gt;Node3 -->
<g id="edge2_Node000002_Node000003" class="edge">
<title>Node2&#45;&gt;Node3</title>
<g id="a_edge2_Node000002_Node000003"><a xlink:title=" ">
<path fill="none" stroke="#63b8ff" d="M168.79,-144.44C160.22,-145.61 151.55,-146.78 143.11,-147.93"/>
<polygon fill="#63b8ff" stroke="#63b8ff" points="169.34,-147.9 178.78,-143.09 168.4,-140.96 169.34,-147.9"/>
</a>
</g>
</g>
<!-- Node4 -->
<g id="Node000004" class="node">
<title>Node4</title>
<g id="a_Node000004"><a xlink:href="structalpaqa_1_1LinConstrConverter.html#a9ebecedcd4e24a2d1336293047b06f78" target="_top" xlink:title=" ">
<polygon fill="white" stroke="#666666" points="143,-124.5 0,-124.5 0,-94.5 143,-94.5 143,-124.5"/>
<text text-anchor="start" x="8" y="-112.5" font-family="Helvetica,sans-Serif" font-size="10.00">add_box_constr_to_constr</text>
<text text-anchor="middle" x="71.5" y="-101.5" font-family="Helvetica,sans-Serif" font-size="10.00">_matrix</text>
</a>
</g>
</g>
<!-- Node2&#45;&gt;Node4 -->
<g id="edge3_Node000002_Node000004" class="edge">
<title>Node2&#45;&gt;Node4</title>
<g id="a_edge3_Node000002_Node000004"><a xlink:title=" ">
<path fill="none" stroke="#63b8ff" d="M168.79,-122.56C160.22,-121.39 151.55,-120.22 143.11,-119.07"/>
<polygon fill="#63b8ff" stroke="#63b8ff" points="168.4,-126.04 178.78,-123.91 169.34,-119.1 168.4,-126.04"/>
</a>
</g>
</g>
<!-- Node6 -->
<g id="Node000006" class="node">
<title>Node6</title>
<g id="a_Node000006"><a xlink:href="structalpaqa_1_1LinConstrConverter.html#abda58619a88364152aae228c2cea568b" target="_top" xlink:title=" ">
<polygon fill="white" stroke="#666666" points="322,-196.5 179,-196.5 179,-166.5 322,-166.5 322,-196.5"/>
<text text-anchor="start" x="187" y="-184.5" font-family="Helvetica,sans-Serif" font-size="10.00">add_box_constr_to_constr</text>
<text text-anchor="middle" x="250.5" y="-173.5" font-family="Helvetica,sans-Serif" font-size="10.00">_matrix_inplace</text>
</a>
</g>
</g>
<!-- Node5&#45;&gt;Node6 -->
<g id="edge5_Node000005_Node000006" class="edge">
<title>Node5&#45;&gt;Node6</title>
<g id="a_edge5_Node000005_Node000006"><a xlink:title=" ">
<path fill="none" stroke="#63b8ff" d="M347.51,-179.87C339.03,-180.02 330.46,-180.16 322.11,-180.3"/>
<polygon fill="#63b8ff" stroke="#63b8ff" points="347.84,-183.37 357.78,-179.7 347.72,-176.37 347.84,-183.37"/>
</a>
</g>
</g>
<!-- Node8 -->
<g id="Node000008" class="node">
<title>Node8</title>
<g id="a_Node000008"><a xlink:href="structalpaqa_1_1LinConstrConverter.html#a64b0ceb9cab71fa3657a63e58ef8b5a3" target="_top" xlink:title=" ">
<polygon fill="white" stroke="#666666" points="322,-62.5 179,-62.5 179,-32.5 322,-32.5 322,-62.5"/>
<text text-anchor="start" x="187" y="-50.5" font-family="Helvetica,sans-Serif" font-size="10.00">add_box_constr_to_constr</text>
<text text-anchor="middle" x="250.5" y="-39.5" font-family="Helvetica,sans-Serif" font-size="10.00">_matrix_inplace_vec</text>
</a>
</g>
</g>
<!-- Node7&#45;&gt;Node8 -->
<g id="edge7_Node000007_Node000008" class="edge">
<title>Node7&#45;&gt;Node8</title>
<g id="a_edge7_Node000007_Node000008"><a xlink:title=" ">
<path fill="none" stroke="#63b8ff" d="M347.79,-50.22C339.22,-49.98 330.55,-49.73 322.11,-49.49"/>
<polygon fill="#63b8ff" stroke="#63b8ff" points="347.69,-53.72 357.78,-50.5 347.88,-46.72 347.69,-53.72"/>
</a>
</g>
</g>
<!-- Node9&#45;&gt;Node2 -->
<g id="edge9_Node000009_Node000002" class="edge">
<title>Node9&#45;&gt;Node2</title>
<g id="a_edge9_Node000009_Node000002"><a xlink:title=" ">
<path fill="none" stroke="#63b8ff" d="M377.47,-106.46C360,-110.21 340.15,-114.47 321.46,-118.48"/>
<polygon fill="#63b8ff" stroke="#63b8ff" points="378.41,-109.83 387.45,-104.31 376.94,-102.99 378.41,-109.83"/>
</a>
</g>
</g>
<!-- Node10 -->
<g id="Node000010" class="node">
<title>Node10</title>
<g id="a_Node000010"><a xlink:href="structalpaqa_1_1LinConstrConverter.html#a3c8162c090625d7c923a8e2a4d799207" target="_top" xlink:title=" ">
<polygon fill="white" stroke="#666666" points="292.5,-100 208.5,-100 208.5,-81 292.5,-81 292.5,-100"/>
<text text-anchor="middle" x="250.5" y="-88" font-family="Helvetica,sans-Serif" font-size="10.00">count_bounds</text>
</a>
</g>
</g>
<!-- Node9&#45;&gt;Node10 -->
<g id="edge10_Node000009_Node000010" class="edge">
<title>Node9&#45;&gt;Node10</title>
<g id="a_edge10_Node000009_Node000010"><a xlink:title=" ">
<path fill="none" stroke="#63b8ff" d="M377.43,-94.06C350.51,-93.3 317.92,-92.38 292.64,-91.66"/>
<polygon fill="#63b8ff" stroke="#63b8ff" points="377.35,-97.56 387.45,-94.34 377.55,-90.56 377.35,-97.56"/>
</a>
</g>
</g>
</g>
</svg>
