<?xml version="1.0" encoding="UTF-8" standalone="no"?>
<!DOCTYPE svg PUBLIC "-//W3C//DTD SVG 1.1//EN"
 "http://www.w3.org/Graphics/SVG/1.1/DTD/svg11.dtd">
<!-- Generated by graphviz version 2.43.0 (0)
 -->
<!-- Title: LBFGSDirection&lt; Conf &gt; Pages: 1 -->
<!--zoomable 1155 -->

<svg id="main" version="1.1" xmlns="http://www.w3.org/2000/svg" xmlns:xlink="http://www.w3.org/1999/xlink" xml:space="preserve" onload="init(evt)">
<style type="text/css"><![CDATA[
.node, .edge {opacity: 0.7;}
.node.selected, .edge.selected {opacity: 1;}
.edge:hover path { stroke: red; }
.edge:hover polygon { stroke: red; fill: red; }
]]></style>

<defs>
  <circle id="rim" cx="0" cy="0" r="7"/>
  <circle id="rim2" cx="0" cy="0" r="3.5"/>
  <g id="zoomPlus">
    <use xlink:href="#rim" fill="#404040"><set attributeName="fill" to="#808080" begin="zoomplus.mouseover" end="zoomplus.mouseout"/></use>
    <path d="M-4,0h8M0,-4v8" fill="none" stroke="white" stroke-width="1.5" pointer-events="none"/>
  </g>
  <g id="zoomMin">
    <use xlink:href="#rim" fill="#404040"><set attributeName="fill" to="#808080" begin="zoomminus.mouseover" end="zoomminus.mouseout"/></use>
    <path d="M-4,0h8" fill="none" stroke="white" stroke-width="1.5" pointer-events="none"/>
  </g>
  <g id="arrowUp" transform="translate(30 24)">
    <use xlink:href="#rim"/>
    <path pointer-events="none" fill="none" stroke="white" stroke-width="1.5" d="M0,-3.0v7 M-2.5,-0.5L0,-3.0L2.5,-0.5"/>
  </g>
  <g id="arrowRight" transform="rotate(90) translate(36 -43)">
    <use xlink:href="#rim"/>
    <path pointer-events="none" fill="none" stroke="white" stroke-width="1.5" d="M0,-3.0v7 M-2.5,-0.5L0,-3.0L2.5,-0.5"/>
  </g>
  <g id="arrowDown" transform="rotate(180) translate(-30 -48)">
    <use xlink:href="#rim"/>
    <path pointer-events="none" fill="none" stroke="white" stroke-width="1.5" d="M0,-3.0v7 M-2.5,-0.5L0,-3.0L2.5,-0.5"/>
  </g>
  <g id="arrowLeft" transform="rotate(270) translate(-36 17)">
    <use xlink:href="#rim"/>
    <path pointer-events="none" fill="none" stroke="white" stroke-width="1.5" d="M0,-3.0v7 M-2.5,-0.5L0,-3.0L2.5,-0.5"/>
  </g>
  <g id="resetDef">
    <use xlink:href="#rim2" fill="#404040"><set attributeName="fill" to="#808080" begin="reset.mouseover" end="reset.mouseout"/></use>
  </g>
</defs>
<script type="application/ecmascript">
var viewWidth = 310;
var viewHeight = 1155;
var sectionId = 'dynsection-0';
</script>
<script type="application/ecmascript" xlink:href="svg.min.js"/>
<svg id="graph" class="graph">
<g id="viewport">
<title>LBFGSDirection&lt; Conf &gt;</title>
<!-- Node1 -->
<g id="Node000001" class="node">
<title>Node1</title>
<g id="a_Node000001"><a xlink:title=" ">
<polygon fill="#999999" stroke="transparent" points="258,-229 127,-229 127,0 258,0 258,-229"/>
<text text-anchor="start" x="132.5" y="-216.5" font-family="Helvetica,sans-Serif" font-size="10.00">LBFGSDirection&lt; Conf &gt;</text>
<text text-anchor="start" x="191" y="-201.5" font-family="Helvetica,sans-Serif" font-size="10.00"> </text>
<text text-anchor="start" x="132.5" y="-186.5" font-family="Helvetica,sans-Serif" font-size="10.00">+</text>
<text text-anchor="start" x="146.5" y="-186.5" font-family="Helvetica,sans-Serif" font-size="10.00">LBFGSDirection()</text>
<text text-anchor="start" x="132.5" y="-171.5" font-family="Helvetica,sans-Serif" font-size="10.00">+</text>
<text text-anchor="start" x="146.5" y="-171.5" font-family="Helvetica,sans-Serif" font-size="10.00">LBFGSDirection()</text>
<text text-anchor="start" x="132.5" y="-156.5" font-family="Helvetica,sans-Serif" font-size="10.00">+</text>
<text text-anchor="start" x="146.5" y="-156.5" font-family="Helvetica,sans-Serif" font-size="10.00">LBFGSDirection()</text>
<text text-anchor="start" x="132.5" y="-141.5" font-family="Helvetica,sans-Serif" font-size="10.00">+</text>
<text text-anchor="start" x="146.5" y="-141.5" font-family="Helvetica,sans-Serif" font-size="10.00">LBFGSDirection()</text>
<text text-anchor="start" x="132.5" y="-126.5" font-family="Helvetica,sans-Serif" font-size="10.00">+</text>
<text text-anchor="start" x="146.5" y="-126.5" font-family="Helvetica,sans-Serif" font-size="10.00">LBFGSDirection()</text>
<text text-anchor="start" x="132.5" y="-111.5" font-family="Helvetica,sans-Serif" font-size="10.00">+</text>
<text text-anchor="start" x="146.5" y="-111.5" font-family="Helvetica,sans-Serif" font-size="10.00">initialize()</text>
<text text-anchor="start" x="132.5" y="-96.5" font-family="Helvetica,sans-Serif" font-size="10.00">+</text>
<text text-anchor="start" x="146.5" y="-96.5" font-family="Helvetica,sans-Serif" font-size="10.00">has_initial_direction()</text>
<text text-anchor="start" x="132.5" y="-81.5" font-family="Helvetica,sans-Serif" font-size="10.00">+</text>
<text text-anchor="start" x="146.5" y="-81.5" font-family="Helvetica,sans-Serif" font-size="10.00">update()</text>
<text text-anchor="start" x="132.5" y="-66.5" font-family="Helvetica,sans-Serif" font-size="10.00">+</text>
<text text-anchor="start" x="146.5" y="-66.5" font-family="Helvetica,sans-Serif" font-size="10.00">apply()</text>
<text text-anchor="start" x="132.5" y="-51.5" font-family="Helvetica,sans-Serif" font-size="10.00">+</text>
<text text-anchor="start" x="146.5" y="-51.5" font-family="Helvetica,sans-Serif" font-size="10.00">changed_γ()</text>
<text text-anchor="start" x="132.5" y="-36.5" font-family="Helvetica,sans-Serif" font-size="10.00">+</text>
<text text-anchor="start" x="146.5" y="-36.5" font-family="Helvetica,sans-Serif" font-size="10.00">reset()</text>
<text text-anchor="start" x="132.5" y="-21.5" font-family="Helvetica,sans-Serif" font-size="10.00">+</text>
<text text-anchor="start" x="146.5" y="-21.5" font-family="Helvetica,sans-Serif" font-size="10.00">get_name()</text>
<text text-anchor="start" x="132.5" y="-6.5" font-family="Helvetica,sans-Serif" font-size="10.00">+</text>
<text text-anchor="start" x="146.5" y="-6.5" font-family="Helvetica,sans-Serif" font-size="10.00">get_params()</text>
<polygon fill="#666666" stroke="#666666" points="127.5,-211.5 127.5,-211.5 258.5,-211.5 258.5,-211.5 127.5,-211.5"/>
<polygon fill="#666666" stroke="#666666" points="127.5,-196.5 127.5,-196.5 258.5,-196.5 258.5,-196.5 127.5,-196.5"/>
<polygon fill="none" stroke="#666666" points="127,0 127,-229 258,-229 258,0 127,0"/>
</a>
</g>
</g>
<!-- Node2 -->
<g id="Node000002" class="node">
<title>Node2</title>
<g id="a_Node000002"><a xlink:href="classalpaqa_1_1LBFGS.html" target="_top" xlink:title=" ">
<polygon fill="white" stroke="transparent" points="148,-790 21,-790 21,-276 148,-276 148,-790"/>
<text text-anchor="start" x="38.5" y="-778" font-family="Helvetica,sans-Serif" font-size="10.00">LBFGS&lt; config_t &gt;</text>
<text text-anchor="start" x="28" y="-763" font-family="Helvetica,sans-Serif" font-size="10.00">&#45;</text>
<text text-anchor="start" x="38.5" y="-763" font-family="Helvetica,sans-Serif" font-size="10.00">idx</text>
<text text-anchor="start" x="28" y="-748" font-family="Helvetica,sans-Serif" font-size="10.00">&#45;</text>
<text text-anchor="start" x="38.5" y="-748" font-family="Helvetica,sans-Serif" font-size="10.00">full</text>
<text text-anchor="start" x="25.5" y="-733" font-family="Helvetica,sans-Serif" font-size="10.00">+</text>
<text text-anchor="start" x="38.5" y="-733" font-family="Helvetica,sans-Serif" font-size="10.00">LBFGS()</text>
<text text-anchor="start" x="25.5" y="-718" font-family="Helvetica,sans-Serif" font-size="10.00">+</text>
<text text-anchor="start" x="38.5" y="-718" font-family="Helvetica,sans-Serif" font-size="10.00">LBFGS()</text>
<text text-anchor="start" x="25.5" y="-703" font-family="Helvetica,sans-Serif" font-size="10.00">+</text>
<text text-anchor="start" x="38.5" y="-703" font-family="Helvetica,sans-Serif" font-size="10.00">LBFGS()</text>
<text text-anchor="start" x="25.5" y="-688" font-family="Helvetica,sans-Serif" font-size="10.00">+</text>
<text text-anchor="start" x="38.5" y="-688" font-family="Helvetica,sans-Serif" font-size="10.00">update_sy()</text>
<text text-anchor="start" x="25.5" y="-673" font-family="Helvetica,sans-Serif" font-size="10.00">+</text>
<text text-anchor="start" x="38.5" y="-673" font-family="Helvetica,sans-Serif" font-size="10.00">update_sy_impl()</text>
<text text-anchor="start" x="25.5" y="-658" font-family="Helvetica,sans-Serif" font-size="10.00">+</text>
<text text-anchor="start" x="38.5" y="-658" font-family="Helvetica,sans-Serif" font-size="10.00">update()</text>
<text text-anchor="start" x="25.5" y="-643" font-family="Helvetica,sans-Serif" font-size="10.00">+</text>
<text text-anchor="start" x="38.5" y="-643" font-family="Helvetica,sans-Serif" font-size="10.00">apply()</text>
<text text-anchor="start" x="25.5" y="-628" font-family="Helvetica,sans-Serif" font-size="10.00">+</text>
<text text-anchor="start" x="38.5" y="-628" font-family="Helvetica,sans-Serif" font-size="10.00">apply_masked()</text>
<text text-anchor="start" x="25.5" y="-613" font-family="Helvetica,sans-Serif" font-size="10.00">+</text>
<text text-anchor="start" x="38.5" y="-613" font-family="Helvetica,sans-Serif" font-size="10.00">apply_masked()</text>
<text text-anchor="start" x="25.5" y="-598" font-family="Helvetica,sans-Serif" font-size="10.00">+</text>
<text text-anchor="start" x="38.5" y="-598" font-family="Helvetica,sans-Serif" font-size="10.00">apply_masked_impl()</text>
<text text-anchor="start" x="25.5" y="-583" font-family="Helvetica,sans-Serif" font-size="10.00">+</text>
<text text-anchor="start" x="38.5" y="-583" font-family="Helvetica,sans-Serif" font-size="10.00">reset()</text>
<text text-anchor="start" x="25.5" y="-568" font-family="Helvetica,sans-Serif" font-size="10.00">+</text>
<text text-anchor="start" x="38.5" y="-568" font-family="Helvetica,sans-Serif" font-size="10.00">resize()</text>
<text text-anchor="start" x="25.5" y="-553" font-family="Helvetica,sans-Serif" font-size="10.00">+</text>
<text text-anchor="start" x="38.5" y="-553" font-family="Helvetica,sans-Serif" font-size="10.00">scale_y()</text>
<text text-anchor="start" x="25.5" y="-538" font-family="Helvetica,sans-Serif" font-size="10.00">+</text>
<text text-anchor="start" x="38.5" y="-538" font-family="Helvetica,sans-Serif" font-size="10.00">get_name()</text>
<text text-anchor="start" x="25.5" y="-523" font-family="Helvetica,sans-Serif" font-size="10.00">+</text>
<text text-anchor="start" x="38.5" y="-523" font-family="Helvetica,sans-Serif" font-size="10.00">get_params()</text>
<text text-anchor="start" x="25.5" y="-508" font-family="Helvetica,sans-Serif" font-size="10.00">+</text>
<text text-anchor="start" x="38.5" y="-508" font-family="Helvetica,sans-Serif" font-size="10.00">n()</text>
<text text-anchor="start" x="25.5" y="-493" font-family="Helvetica,sans-Serif" font-size="10.00">+</text>
<text text-anchor="start" x="38.5" y="-493" font-family="Helvetica,sans-Serif" font-size="10.00">history()</text>
<text text-anchor="start" x="25.5" y="-478" font-family="Helvetica,sans-Serif" font-size="10.00">+</text>
<text text-anchor="start" x="38.5" y="-478" font-family="Helvetica,sans-Serif" font-size="10.00">succ()</text>
<text text-anchor="start" x="25.5" y="-463" font-family="Helvetica,sans-Serif" font-size="10.00">+</text>
<text text-anchor="start" x="38.5" y="-463" font-family="Helvetica,sans-Serif" font-size="10.00">pred()</text>
<text text-anchor="start" x="25.5" y="-448" font-family="Helvetica,sans-Serif" font-size="10.00">+</text>
<text text-anchor="start" x="38.5" y="-448" font-family="Helvetica,sans-Serif" font-size="10.00">current_history()</text>
<text text-anchor="start" x="25.5" y="-433" font-family="Helvetica,sans-Serif" font-size="10.00">+</text>
<text text-anchor="start" x="38.5" y="-433" font-family="Helvetica,sans-Serif" font-size="10.00">s()</text>
<text text-anchor="start" x="25.5" y="-418" font-family="Helvetica,sans-Serif" font-size="10.00">+</text>
<text text-anchor="start" x="38.5" y="-418" font-family="Helvetica,sans-Serif" font-size="10.00">s()</text>
<text text-anchor="start" x="25.5" y="-403" font-family="Helvetica,sans-Serif" font-size="10.00">+</text>
<text text-anchor="start" x="38.5" y="-403" font-family="Helvetica,sans-Serif" font-size="10.00">y()</text>
<text text-anchor="start" x="25.5" y="-388" font-family="Helvetica,sans-Serif" font-size="10.00">+</text>
<text text-anchor="start" x="38.5" y="-388" font-family="Helvetica,sans-Serif" font-size="10.00">y()</text>
<text text-anchor="start" x="25.5" y="-373" font-family="Helvetica,sans-Serif" font-size="10.00">+</text>
<text text-anchor="start" x="38.5" y="-373" font-family="Helvetica,sans-Serif" font-size="10.00">ρ()</text>
<text text-anchor="start" x="25.5" y="-358" font-family="Helvetica,sans-Serif" font-size="10.00">+</text>
<text text-anchor="start" x="38.5" y="-358" font-family="Helvetica,sans-Serif" font-size="10.00">ρ()</text>
<text text-anchor="start" x="25.5" y="-343" font-family="Helvetica,sans-Serif" font-size="10.00">+</text>
<text text-anchor="start" x="38.5" y="-343" font-family="Helvetica,sans-Serif" font-size="10.00">α()</text>
<text text-anchor="start" x="25.5" y="-328" font-family="Helvetica,sans-Serif" font-size="10.00">+</text>
<text text-anchor="start" x="38.5" y="-328" font-family="Helvetica,sans-Serif" font-size="10.00">α()</text>
<text text-anchor="start" x="25.5" y="-313" font-family="Helvetica,sans-Serif" font-size="10.00">+</text>
<text text-anchor="start" x="38.5" y="-313" font-family="Helvetica,sans-Serif" font-size="10.00">foreach_fwd()</text>
<text text-anchor="start" x="25.5" y="-298" font-family="Helvetica,sans-Serif" font-size="10.00">+</text>
<text text-anchor="start" x="38.5" y="-298" font-family="Helvetica,sans-Serif" font-size="10.00">foreach_rev()</text>
<text text-anchor="start" x="25.5" y="-283" font-family="Helvetica,sans-Serif" font-size="10.00">+</text>
<text text-anchor="start" x="38.5" y="-283" font-family="Helvetica,sans-Serif" font-size="10.00">update_valid()</text>
<polygon fill="#666666" stroke="#666666" points="21.5,-773 21.5,-773 148.5,-773 148.5,-773 21.5,-773"/>
<polygon fill="#666666" stroke="#666666" points="21.5,-743 21.5,-743 36.5,-743 36.5,-743 21.5,-743"/>
<polygon fill="#666666" stroke="#666666" points="36.5,-743 36.5,-743 148.5,-743 148.5,-743 36.5,-743"/>
<polygon fill="none" stroke="#666666" points="21,-276 21,-790 148,-790 148,-276 21,-276"/>
</a>
</g>
</g>
<!-- Node2&#45;&gt;Node1 -->
<g id="edge1_Node000001_Node000002" class="edge">
<title>Node2&#45;&gt;Node1</title>
<g id="a_edge1_Node000001_Node000002"><a xlink:title=" ">
<path fill="none" stroke="#63b8ff" d="M148.03,-287.01C152.12,-271.24 156.13,-255.77 159.97,-240.96"/>
<polygon fill="none" stroke="#63b8ff" points="160,-240.85 157.63,-234.03 163.01,-229.23 165.38,-236.04 160,-240.85"/>
</a>
</g>
<text text-anchor="middle" x="176.5" y="-250" font-family="Helvetica,sans-Serif" font-size="10.00" fill="grey"> +lbfgs</text>
</g>
<!-- Node3 -->
<g id="Node000003" class="node">
<title>Node3</title>
<g id="a_Node000003"><a xlink:href="structalpaqa_1_1LBFGSStorage.html" target="_top" xlink:title=" ">
<polygon fill="white" stroke="transparent" points="125,-1036 0,-1036 0,-837 125,-837 125,-1036"/>
<text text-anchor="start" x="5.5" y="-1023.5" font-family="Helvetica,sans-Serif" font-size="10.00">LBFGSStorage&lt; Conf &gt;</text>
<text text-anchor="start" x="20" y="-1008.5" font-family="Helvetica,sans-Serif" font-size="10.00">+</text>
<text text-anchor="start" x="48.5" y="-1008.5" font-family="Helvetica,sans-Serif" font-size="10.00">sto</text>
<text text-anchor="start" x="20" y="-993.5" font-family="Helvetica,sans-Serif" font-size="10.00">+</text>
<text text-anchor="start" x="48.5" y="-993.5" font-family="Helvetica,sans-Serif" font-size="10.00">resize()</text>
<text text-anchor="start" x="20" y="-978.5" font-family="Helvetica,sans-Serif" font-size="10.00">+</text>
<text text-anchor="start" x="48.5" y="-978.5" font-family="Helvetica,sans-Serif" font-size="10.00">n()</text>
<text text-anchor="start" x="20" y="-963.5" font-family="Helvetica,sans-Serif" font-size="10.00">+</text>
<text text-anchor="start" x="48.5" y="-963.5" font-family="Helvetica,sans-Serif" font-size="10.00">history()</text>
<text text-anchor="start" x="20" y="-948.5" font-family="Helvetica,sans-Serif" font-size="10.00">+</text>
<text text-anchor="start" x="48.5" y="-948.5" font-family="Helvetica,sans-Serif" font-size="10.00">s()</text>
<text text-anchor="start" x="20" y="-933.5" font-family="Helvetica,sans-Serif" font-size="10.00">+</text>
<text text-anchor="start" x="48.5" y="-933.5" font-family="Helvetica,sans-Serif" font-size="10.00">s()</text>
<text text-anchor="start" x="20" y="-918.5" font-family="Helvetica,sans-Serif" font-size="10.00">+</text>
<text text-anchor="start" x="48.5" y="-918.5" font-family="Helvetica,sans-Serif" font-size="10.00">y()</text>
<text text-anchor="start" x="20" y="-903.5" font-family="Helvetica,sans-Serif" font-size="10.00">+</text>
<text text-anchor="start" x="48.5" y="-903.5" font-family="Helvetica,sans-Serif" font-size="10.00">y()</text>
<text text-anchor="start" x="20" y="-888.5" font-family="Helvetica,sans-Serif" font-size="10.00">+</text>
<text text-anchor="start" x="48.5" y="-888.5" font-family="Helvetica,sans-Serif" font-size="10.00">ρ()</text>
<text text-anchor="start" x="20" y="-873.5" font-family="Helvetica,sans-Serif" font-size="10.00">+</text>
<text text-anchor="start" x="48.5" y="-873.5" font-family="Helvetica,sans-Serif" font-size="10.00">ρ()</text>
<text text-anchor="start" x="20" y="-858.5" font-family="Helvetica,sans-Serif" font-size="10.00">+</text>
<text text-anchor="start" x="48.5" y="-858.5" font-family="Helvetica,sans-Serif" font-size="10.00">α()</text>
<text text-anchor="start" x="20" y="-843.5" font-family="Helvetica,sans-Serif" font-size="10.00">+</text>
<text text-anchor="start" x="48.5" y="-843.5" font-family="Helvetica,sans-Serif" font-size="10.00">α()</text>
<polygon fill="#666666" stroke="#666666" points="0.5,-1018.5 0.5,-1018.5 125.5,-1018.5 125.5,-1018.5 0.5,-1018.5"/>
<polygon fill="#666666" stroke="#666666" points="0.5,-1003.5 0.5,-1003.5 46.5,-1003.5 46.5,-1003.5 0.5,-1003.5"/>
<polygon fill="#666666" stroke="#666666" points="46.5,-1003.5 46.5,-1003.5 125.5,-1003.5 125.5,-1003.5 46.5,-1003.5"/>
<polygon fill="none" stroke="#666666" points="0,-837 0,-1036 125,-1036 125,-837 0,-837"/>
</a>
</g>
</g>
<!-- Node3&#45;&gt;Node2 -->
<g id="edge2_Node000002_Node000003" class="edge">
<title>Node3&#45;&gt;Node2</title>
<g id="a_edge2_Node000002_Node000003"><a xlink:title=" ">
<path fill="none" stroke="#63b8ff" d="M67.91,-836.77C68.52,-825.71 69.15,-814.09 69.81,-802.11"/>
<polygon fill="none" stroke="#63b8ff" points="69.82,-801.99 66.15,-795.78 70.47,-790.01 74.14,-796.22 69.82,-801.99"/>
</a>
</g>
<text text-anchor="middle" x="80.5" y="-811" font-family="Helvetica,sans-Serif" font-size="10.00" fill="grey"> &#45;sto</text>
</g>
<!-- Node4 -->
<g id="Node000004" class="node">
<title>Node4</title>
<g id="a_Node000004"><a xlink:href="namespacealpaqa.html#group__grp__Parameters" target="_top" xlink:title=" ">
<polygon fill="white" stroke="transparent" points="282,-991 143,-991 143,-882 282,-882 282,-991"/>
<text text-anchor="start" x="148.5" y="-978.5" font-family="Helvetica,sans-Serif" font-size="10.00">LBFGSParams&lt; config_t &gt;</text>
<text text-anchor="start" x="159.5" y="-963.5" font-family="Helvetica,sans-Serif" font-size="10.00">+</text>
<text text-anchor="start" x="184.5" y="-963.5" font-family="Helvetica,sans-Serif" font-size="10.00">memory</text>
<text text-anchor="start" x="159.5" y="-948.5" font-family="Helvetica,sans-Serif" font-size="10.00">+</text>
<text text-anchor="start" x="184.5" y="-948.5" font-family="Helvetica,sans-Serif" font-size="10.00">min_div_fac</text>
<text text-anchor="start" x="159.5" y="-933.5" font-family="Helvetica,sans-Serif" font-size="10.00">+</text>
<text text-anchor="start" x="184.5" y="-933.5" font-family="Helvetica,sans-Serif" font-size="10.00">min_abs_s</text>
<text text-anchor="start" x="159.5" y="-918.5" font-family="Helvetica,sans-Serif" font-size="10.00">+</text>
<text text-anchor="start" x="184.5" y="-918.5" font-family="Helvetica,sans-Serif" font-size="10.00">force_pos_def</text>
<text text-anchor="start" x="159.5" y="-903.5" font-family="Helvetica,sans-Serif" font-size="10.00">+</text>
<text text-anchor="start" x="184.5" y="-903.5" font-family="Helvetica,sans-Serif" font-size="10.00">stepsize</text>
<text text-anchor="start" x="211" y="-888.5" font-family="Helvetica,sans-Serif" font-size="10.00"> </text>
<polygon fill="#666666" stroke="#666666" points="143.5,-973.5 143.5,-973.5 282.5,-973.5 282.5,-973.5 143.5,-973.5"/>
<polygon fill="#666666" stroke="#666666" points="143.5,-898.5 143.5,-898.5 182.5,-898.5 182.5,-898.5 143.5,-898.5"/>
<polygon fill="#666666" stroke="#666666" points="182.5,-898.5 182.5,-898.5 282.5,-898.5 282.5,-898.5 182.5,-898.5"/>
<polygon fill="none" stroke="#666666" points="143,-882 143,-991 282,-991 282,-882 143,-882"/>
</a>
</g>
</g>
<!-- Node4&#45;&gt;Node2 -->
<g id="edge3_Node000002_Node000004" class="edge">
<title>Node4&#45;&gt;Node2</title>
<g id="a_edge3_Node000002_Node000004"><a xlink:title=" ">
<path fill="none" stroke="#63b8ff" d="M190.41,-881.69C179.58,-854.44 166.7,-820.69 156.5,-790 154.9,-785.19 153.31,-780.33 151.73,-775.42"/>
<polygon fill="none" stroke="#63b8ff" points="151.7,-775.33 146.06,-770.83 148.04,-763.9 153.68,-768.39 151.7,-775.33"/>
</a>
</g>
<text text-anchor="middle" x="188.5" y="-811" font-family="Helvetica,sans-Serif" font-size="10.00" fill="grey"> &#45;params</text>
</g>
<!-- Node5 -->
<g id="Node000005" class="node">
<title>Node5</title>
<g id="a_Node000005"><a xlink:href="structalpaqa_1_1CBFGSParams.html" target="_top" xlink:title=" ">
<polygon fill="white" stroke="transparent" points="282.5,-1147 142.5,-1147 142.5,-1083 282.5,-1083 282.5,-1147"/>
<text text-anchor="start" x="147.5" y="-1135" font-family="Helvetica,sans-Serif" font-size="10.00">CBFGSParams&lt; config_t &gt;</text>
<text text-anchor="start" x="158" y="-1120" font-family="Helvetica,sans-Serif" font-size="10.00">+</text>
<text text-anchor="start" x="182.5" y="-1120" font-family="Helvetica,sans-Serif" font-size="10.00">α</text>
<text text-anchor="start" x="158" y="-1105" font-family="Helvetica,sans-Serif" font-size="10.00">+</text>
<text text-anchor="start" x="182.5" y="-1105" font-family="Helvetica,sans-Serif" font-size="10.00">ϵ</text>
<text text-anchor="start" x="158" y="-1090" font-family="Helvetica,sans-Serif" font-size="10.00">+</text>
<text text-anchor="start" x="182.5" y="-1090" font-family="Helvetica,sans-Serif" font-size="10.00">operator bool()</text>
<polygon fill="#666666" stroke="#666666" points="142.5,-1130 142.5,-1130 282.5,-1130 282.5,-1130 142.5,-1130"/>
<polygon fill="#666666" stroke="#666666" points="142.5,-1100 142.5,-1100 180.5,-1100 180.5,-1100 142.5,-1100"/>
<polygon fill="#666666" stroke="#666666" points="180.5,-1100 180.5,-1100 282.5,-1100 282.5,-1100 180.5,-1100"/>
<polygon fill="none" stroke="#666666" points="142.5,-1083 142.5,-1147 282.5,-1147 282.5,-1083 142.5,-1083"/>
</a>
</g>
</g>
<!-- Node5&#45;&gt;Node4 -->
<g id="edge4_Node000004_Node000005" class="edge">
<title>Node5&#45;&gt;Node4</title>
<g id="a_edge4_Node000004_Node000005"><a xlink:title=" ">
<path fill="none" stroke="#63b8ff" d="M212.5,-1082.85C212.5,-1060.88 212.5,-1030.64 212.5,-1003.42"/>
<polygon fill="none" stroke="#63b8ff" points="212.5,-1003.17 208.5,-997.17 212.5,-991.17 216.5,-997.17 212.5,-1003.17"/>
</a>
</g>
<text text-anchor="middle" x="231.5" y="-1057" font-family="Helvetica,sans-Serif" font-size="10.00" fill="grey"> +cbfgs</text>
</g>
<!-- Node6 -->
<g id="Node000006" class="node">
<title>Node6</title>
<g id="a_Node000006"><a xlink:href="namespacealpaqa.html#group__grp__Parameters" target="_top" xlink:title=" ">
<polygon fill="white" stroke="transparent" points="291,-568.5 166,-568.5 166,-497.5 291,-497.5 291,-568.5"/>
<text text-anchor="start" x="173" y="-556" font-family="Helvetica,sans-Serif" font-size="10.00">LBFGSDirectionParams</text>
<text text-anchor="start" x="198.5" y="-545" font-family="Helvetica,sans-Serif" font-size="10.00">&lt; config_t &gt;</text>
<text text-anchor="start" x="170.5" y="-530" font-family="Helvetica,sans-Serif" font-size="10.00">+</text>
<text text-anchor="start" x="183.5" y="-530" font-family="Helvetica,sans-Serif" font-size="10.00">rescale_on_step_size</text>
<text text-anchor="start" x="183.5" y="-519" font-family="Helvetica,sans-Serif" font-size="10.00">_changes</text>
<text text-anchor="start" x="227" y="-504" font-family="Helvetica,sans-Serif" font-size="10.00"> </text>
<polygon fill="#666666" stroke="#666666" points="166.5,-540 166.5,-540 291.5,-540 291.5,-540 166.5,-540"/>
<polygon fill="#666666" stroke="#666666" points="166.5,-514 166.5,-514 181.5,-514 181.5,-514 166.5,-514"/>
<polygon fill="#666666" stroke="#666666" points="181.5,-514 181.5,-514 291.5,-514 291.5,-514 181.5,-514"/>
<polygon fill="none" stroke="#666666" points="166,-497.5 166,-568.5 291,-568.5 291,-497.5 166,-497.5"/>
</a>
</g>
</g>
<!-- Node6&#45;&gt;Node1 -->
<g id="edge5_Node000001_Node000006" class="edge">
<title>Node6&#45;&gt;Node1</title>
<g id="a_edge5_Node000001_Node000006"><a xlink:title=" ">
<path fill="none" stroke="#63b8ff" d="M225.49,-497.21C220.68,-441.5 211.01,-329.6 203.37,-241.29"/>
<polygon fill="none" stroke="#63b8ff" points="203.37,-241.23 198.87,-235.59 202.33,-229.27 206.84,-234.9 203.37,-241.23"/>
</a>
</g>
<text text-anchor="middle" x="253" y="-250" font-family="Helvetica,sans-Serif" font-size="10.00" fill="grey"> +direction_params</text>
</g>
</g>
</svg>

<g id="navigator" transform="translate(0 0)" fill="#404254">
  <rect fill="#f2f5e9" fill-opacity="0.5" stroke="#606060" stroke-width=".5" x="0" y="0" width="60" height="60"/>
  <use id="zoomplus" xlink:href="#zoomPlus" x="17" y="9" onmousedown="handleZoom(evt,'in')"/>
  <use id="zoomminus" xlink:href="#zoomMin" x="42" y="9" onmousedown="handleZoom(evt,'out')"/>
  <use id="reset" xlink:href="#resetDef" x="30" y="36" onmousedown="handleReset()"/>
   <use id="arrowup" xlink:href="#arrowUp" x="0" y="0" onmousedown="handlePan(0,-1)"/>
  <use id="arrowright" xlink:href="#arrowRight" x="0" y="0" onmousedown="handlePan(1,0)"/>
  <use id="arrowdown" xlink:href="#arrowDown" x="0" y="0" onmousedown="handlePan(0,1)"/>
  <use id="arrowleft" xlink:href="#arrowLeft" x="0" y="0" onmousedown="handlePan(-1,0)"/>
</g>
<svg viewBox="0 0 15 15" width="100%" height="30px" preserveAspectRatio="xMaxYMin meet">
 <g id="arrow_out" transform="scale(0.3 0.3)">
  <a xlink:href="structalpaqa_1_1LBFGSDirection__coll__graph_org.svg" target="_base">
   <rect id="button" ry="5" rx="5" y="6" x="6" height="38" width="38"
        fill="#f2f5e9" fill-opacity="0.5" stroke="#606060" stroke-width="1.0"/>
   <path id="arrow"
     d="M 11.500037,31.436501 C 11.940474,20.09759 22.043105,11.32322 32.158766,21.979434 L 37.068811,17.246167 C 37.068811,17.246167 37.088388,32 37.088388,32 L 22.160133,31.978069 C 22.160133,31.978069 26.997745,27.140456 26.997745,27.140456 C 18.528582,18.264221 13.291696,25.230495 11.500037,31.436501 z"
     style="fill:#404040;"/>
  </a>
 </g>
</svg>

<style type='text/css'>
<![CDATA[
[data-mouse-over-selected='false'] { opacity: 0.7; }
[data-mouse-over-selected='true']  { opacity: 1.0; }
]]>
</style>
<script type="application/ecmascript"><![CDATA[
document.addEventListener('DOMContentLoaded', (event) => {
  highlightEdges();
  highlightAdjacentNodes();
});
]]></script>
</svg>
