<?xml version="1.0" encoding="UTF-8" standalone="no"?>
<!DOCTYPE svg PUBLIC "-//W3C//DTD SVG 1.1//EN"
 "http://www.w3.org/Graphics/SVG/1.1/DTD/svg11.dtd">
<!-- Generated by graphviz version 2.43.0 (0)
 -->
<!-- Title: to_span Pages: 1 -->
<svg width="242pt" height="331pt"
 viewBox="0.00 0.00 242.00 330.50" xmlns="http://www.w3.org/2000/svg" xmlns:xlink="http://www.w3.org/1999/xlink">

<svg id="main" version="1.1" xmlns="http://www.w3.org/2000/svg" xmlns:xlink="http://www.w3.org/1999/xlink" xml:space="preserve" onload="init(evt)">
<style type="text/css"><![CDATA[
.node, .edge {opacity: 0.7;}
.node.selected, .edge.selected {opacity: 1;}
.edge:hover path { stroke: red; }
.edge:hover polygon { stroke: red; fill: red; }
]]></style>
<script type="application/ecmascript" xlink:href="svg.min.js"/>
<svg id="graph" class="graph">
<g id="graph0" class="graph" transform="scale(1 1) rotate(0) translate(4 326.5)">
<title>to_span</title>
<!-- Node1 -->
<g id="Node000001" class="node">
<title>Node1</title>
<g id="a_Node000001"><a xlink:title=" ">
<polygon fill="#999999" stroke="#666666" points="234,-151 179,-151 179,-132 234,-132 234,-151"/>
<text text-anchor="middle" x="206.5" y="-139" font-family="Helvetica,sans-Serif" font-size="10.00">to_span</text>
</a>
</g>
</g>
<!-- Node2 -->
<g id="Node000002" class="node">
<title>Node2</title>
<g id="a_Node000002"><a xlink:href="structalpaqa_1_1LinConstrConverter.html#a0ee59cb7fda24428de07e47b412d9050" target="_top" xlink:title=" ">
<polygon fill="white" stroke="#666666" points="143,-322.5 0,-322.5 0,-292.5 143,-292.5 143,-322.5"/>
<text text-anchor="start" x="8" y="-310.5" font-family="Helvetica,sans-Serif" font-size="10.00">add_box_constr_to_constr</text>
<text text-anchor="middle" x="71.5" y="-299.5" font-family="Helvetica,sans-Serif" font-size="10.00">_matrix</text>
</a>
</g>
</g>
<!-- Node1&#45;&gt;Node2 -->
<g id="edge1_Node000001_Node000002" class="edge">
<title>Node1&#45;&gt;Node2</title>
<g id="a_edge1_Node000001_Node000002"><a xlink:title=" ">
<path fill="none" stroke="#63b8ff" d="M202.06,-161.19C195.74,-191.64 179.42,-250.1 143,-283.5 139.28,-286.91 135.06,-289.83 130.58,-292.35"/>
<polygon fill="#63b8ff" stroke="#63b8ff" points="205.51,-161.82 203.96,-151.34 198.63,-160.5 205.51,-161.82"/>
</a>
</g>
</g>
<!-- Node3 -->
<g id="Node000003" class="node">
<title>Node3</title>
<g id="a_Node000003"><a xlink:href="structalpaqa_1_1LinConstrConverter.html#a9ebecedcd4e24a2d1336293047b06f78" target="_top" xlink:title=" ">
<polygon fill="white" stroke="#666666" points="143,-274.5 0,-274.5 0,-244.5 143,-244.5 143,-274.5"/>
<text text-anchor="start" x="8" y="-262.5" font-family="Helvetica,sans-Serif" font-size="10.00">add_box_constr_to_constr</text>
<text text-anchor="middle" x="71.5" y="-251.5" font-family="Helvetica,sans-Serif" font-size="10.00">_matrix</text>
</a>
</g>
</g>
<!-- Node1&#45;&gt;Node3 -->
<g id="edge2_Node000001_Node000003" class="edge">
<title>Node1&#45;&gt;Node3</title>
<g id="a_edge2_Node000001_Node000003"><a xlink:title=" ">
<path fill="none" stroke="#63b8ff" d="M197.44,-160.55C187.57,-181.73 168.89,-215.57 143,-235.5 138.59,-238.89 133.68,-241.82 128.55,-244.35"/>
<polygon fill="#63b8ff" stroke="#63b8ff" points="200.7,-161.85 201.58,-151.29 194.31,-158.99 200.7,-161.85"/>
</a>
</g>
</g>
<!-- Node4 -->
<g id="Node000004" class="node">
<title>Node4</title>
<g id="a_Node000004"><a xlink:href="structalpaqa_1_1LinConstrConverter.html#abda58619a88364152aae228c2cea568b" target="_top" xlink:title=" ">
<polygon fill="white" stroke="#666666" points="143,-226.5 0,-226.5 0,-196.5 143,-196.5 143,-226.5"/>
<text text-anchor="start" x="8" y="-214.5" font-family="Helvetica,sans-Serif" font-size="10.00">add_box_constr_to_constr</text>
<text text-anchor="middle" x="71.5" y="-203.5" font-family="Helvetica,sans-Serif" font-size="10.00">_matrix_inplace</text>
</a>
</g>
</g>
<!-- Node1&#45;&gt;Node4 -->
<g id="edge3_Node000001_Node000004" class="edge">
<title>Node1&#45;&gt;Node4</title>
<g id="a_edge3_Node000001_Node000004"><a xlink:title=" ">
<path fill="none" stroke="#63b8ff" d="M186.8,-157.63C174.88,-167.3 158.76,-179.27 143,-187.5 136.7,-190.79 129.85,-193.78 122.98,-196.44"/>
<polygon fill="#63b8ff" stroke="#63b8ff" points="189.22,-160.17 194.67,-151.09 184.75,-154.79 189.22,-160.17"/>
</a>
</g>
</g>
<!-- Node5 -->
<g id="Node000005" class="node">
<title>Node5</title>
<g id="a_Node000005"><a xlink:href="structalpaqa_1_1LinConstrConverter.html#a64b0ceb9cab71fa3657a63e58ef8b5a3" target="_top" xlink:title=" ">
<polygon fill="white" stroke="#666666" points="143,-178.5 0,-178.5 0,-148.5 143,-148.5 143,-178.5"/>
<text text-anchor="start" x="8" y="-166.5" font-family="Helvetica,sans-Serif" font-size="10.00">add_box_constr_to_constr</text>
<text text-anchor="middle" x="71.5" y="-155.5" font-family="Helvetica,sans-Serif" font-size="10.00">_matrix_inplace_vec</text>
</a>
</g>
</g>
<!-- Node1&#45;&gt;Node5 -->
<g id="edge4_Node000001_Node000005" class="edge">
<title>Node1&#45;&gt;Node5</title>
<g id="a_edge4_Node000001_Node000005"><a xlink:title=" ">
<path fill="none" stroke="#63b8ff" d="M168.81,-147.57C160.78,-148.9 152.01,-150.35 143.14,-151.82"/>
<polygon fill="#63b8ff" stroke="#63b8ff" points="169.61,-150.98 178.91,-145.9 168.47,-144.08 169.61,-150.98"/>
</a>
</g>
</g>
<!-- Node6 -->
<g id="Node000006" class="node">
<title>Node6</title>
<g id="a_Node000006"><a xlink:href="structalpaqa_1_1LinConstrConverter.html#aee664472847384bb7ae16fe5f8596946" target="_top" xlink:title=" ">
<polygon fill="white" stroke="#666666" points="136,-130 7,-130 7,-111 136,-111 136,-130"/>
<text text-anchor="middle" x="71.5" y="-118" font-family="Helvetica,sans-Serif" font-size="10.00">combine_bound_constr</text>
</a>
</g>
</g>
<!-- Node1&#45;&gt;Node6 -->
<g id="edge5_Node000001_Node000006" class="edge">
<title>Node1&#45;&gt;Node6</title>
<g id="a_edge5_Node000001_Node000006"><a xlink:title=" ">
<path fill="none" stroke="#63b8ff" d="M168.73,-135.69C157.61,-133.94 145.1,-131.96 132.87,-130.03"/>
<polygon fill="#63b8ff" stroke="#63b8ff" points="168.48,-139.2 178.91,-137.3 169.57,-132.28 168.48,-139.2"/>
</a>
</g>
</g>
<!-- Node7 -->
<g id="Node000007" class="node">
<title>Node7</title>
<g id="a_Node000007"><a xlink:href="structalpaqa_1_1LinConstrConverter.html#a0937ec1cbdbf880aa3d76f785457fbc3" target="_top" xlink:title=" ">
<polygon fill="white" stroke="#666666" points="136,-93 7,-93 7,-74 136,-74 136,-93"/>
<text text-anchor="middle" x="71.5" y="-81" font-family="Helvetica,sans-Serif" font-size="10.00">combine_bound_constr</text>
</a>
</g>
</g>
<!-- Node1&#45;&gt;Node7 -->
<g id="edge6_Node000001_Node000007" class="edge">
<title>Node1&#45;&gt;Node7</title>
<g id="a_edge6_Node000001_Node000007"><a xlink:title=" ">
<path fill="none" stroke="#63b8ff" d="M184.47,-126.2C172.74,-118.23 157.58,-108.85 143,-102.5 134.52,-98.81 125.14,-95.67 116.06,-93.08"/>
<polygon fill="#63b8ff" stroke="#63b8ff" points="182.51,-129.09 192.71,-131.94 186.51,-123.35 182.51,-129.09"/>
</a>
</g>
</g>
<!-- Node8 -->
<g id="Node000008" class="node">
<title>Node8</title>
<g id="a_Node000008"><a xlink:href="structalpaqa_1_1LinConstrConverter.html#a3c8162c090625d7c923a8e2a4d799207" target="_top" xlink:title=" ">
<polygon fill="white" stroke="#666666" points="113.5,-56 29.5,-56 29.5,-37 113.5,-37 113.5,-56"/>
<text text-anchor="middle" x="71.5" y="-44" font-family="Helvetica,sans-Serif" font-size="10.00">count_bounds</text>
</a>
</g>
</g>
<!-- Node1&#45;&gt;Node8 -->
<g id="edge7_Node000001_Node000008" class="edge">
<title>Node1&#45;&gt;Node8</title>
<g id="a_edge7_Node000001_Node000008"><a xlink:title=" ">
<path fill="none" stroke="#63b8ff" d="M195.13,-123.25C184.32,-105.85 165.77,-80.19 143,-65.5 134.27,-59.87 123.89,-55.89 113.83,-53.09"/>
<polygon fill="#63b8ff" stroke="#63b8ff" points="192.19,-125.16 200.33,-131.95 198.2,-121.57 192.19,-125.16"/>
</a>
</g>
</g>
<!-- Node9 -->
<g id="Node000009" class="node">
<title>Node9</title>
<g id="a_Node000009"><a xlink:href="structalpaqa_1_1LinConstrConverter.html#ac88c0c936335726c98d0d6c36d0be9e7" target="_top" xlink:title=" ">
<polygon fill="white" stroke="#666666" points="101.5,-19 41.5,-19 41.5,0 101.5,0 101.5,-19"/>
<text text-anchor="middle" x="71.5" y="-7" font-family="Helvetica,sans-Serif" font-size="10.00">is_bound</text>
</a>
</g>
</g>
<!-- Node1&#45;&gt;Node9 -->
<g id="edge8_Node000001_Node000009" class="edge">
<title>Node1&#45;&gt;Node9</title>
<g id="a_edge8_Node000001_Node000009"><a xlink:title=" ">
<path fill="none" stroke="#63b8ff" d="M200.09,-122.37C191.93,-97.05 174.04,-52.81 143,-28.5 131.22,-19.28 115.33,-14.52 101.61,-12.07"/>
<polygon fill="#63b8ff" stroke="#63b8ff" points="196.74,-123.39 203,-131.94 203.44,-121.36 196.74,-123.39"/>
</a>
</g>
</g>
</g>
</svg>
</svg>

<style type='text/css'>
<![CDATA[
[data-mouse-over-selected='false'] { opacity: 0.7; }
[data-mouse-over-selected='true']  { opacity: 1.0; }
]]>
</style>
<script type="application/ecmascript"><![CDATA[
document.addEventListener('DOMContentLoaded', (event) => {
  highlightEdges();
  highlightAdjacentNodes();
});
]]></script>
</svg>
