<?xml version="1.0" encoding="UTF-8" standalone="no"?>
<!DOCTYPE svg PUBLIC "-//W3C//DTD SVG 1.1//EN"
 "http://www.w3.org/Graphics/SVG/1.1/DTD/svg11.dtd">
<!-- Generated by graphviz version 2.43.0 (0)
 -->
<!-- Title: count_bounds Pages: 1 -->
<svg width="450pt" height="100pt"
 viewBox="0.00 0.00 450.00 99.50" xmlns="http://www.w3.org/2000/svg" xmlns:xlink="http://www.w3.org/1999/xlink">
<g id="graph0" class="graph" transform="scale(1 1) rotate(0) translate(4 95.5)">
<title>count_bounds</title>
<!-- Node1 -->
<g id="Node000001" class="node">
<title>Node1</title>
<g id="a_Node000001"><a xlink:title=" ">
<polygon fill="#999999" stroke="#666666" points="442,-40 358,-40 358,-21 442,-21 442,-40"/>
<text text-anchor="middle" x="400" y="-28" font-family="Helvetica,sans-Serif" font-size="10.00">count_bounds</text>
</a>
</g>
</g>
<!-- Node2 -->
<g id="Node000002" class="node">
<title>Node2</title>
<g id="a_Node000002"><a xlink:href="structalpaqa_1_1LinConstrConverter.html#afff90c502e060851bb5be5d46ef5f561" target="_top" xlink:title=" ">
<polygon fill="white" stroke="#666666" points="322,-67.5 179,-67.5 179,-37.5 322,-37.5 322,-67.5"/>
<text text-anchor="start" x="187" y="-55.5" font-family="Helvetica,sans-Serif" font-size="10.00">add_box_constr_to_constr</text>
<text text-anchor="middle" x="250.5" y="-44.5" font-family="Helvetica,sans-Serif" font-size="10.00">_matrix</text>
</a>
</g>
</g>
<!-- Node1&#45;&gt;Node2 -->
<g id="edge1_Node000001_Node000002" class="edge">
<title>Node1&#45;&gt;Node2</title>
<g id="a_edge1_Node000001_Node000002"><a xlink:title=" ">
<path fill="none" stroke="#63b8ff" d="M347.95,-38.11C339.58,-39.36 330.77,-40.68 322.03,-41.98"/>
<polygon fill="#63b8ff" stroke="#63b8ff" points="348.54,-41.57 357.91,-36.63 347.51,-34.64 348.54,-41.57"/>
</a>
</g>
</g>
<!-- Node5 -->
<g id="Node000005" class="node">
<title>Node5</title>
<g id="a_Node000005"><a xlink:href="structalpaqa_1_1LinConstrConverter.html#a3c8162c090625d7c923a8e2a4d799207" target="_top" xlink:title=" ">
<polygon fill="white" stroke="#666666" points="292.5,-19 208.5,-19 208.5,0 292.5,0 292.5,-19"/>
<text text-anchor="middle" x="250.5" y="-7" font-family="Helvetica,sans-Serif" font-size="10.00">count_bounds</text>
</a>
</g>
</g>
<!-- Node1&#45;&gt;Node5 -->
<g id="edge4_Node000001_Node000005" class="edge">
<title>Node1&#45;&gt;Node5</title>
<g id="a_edge4_Node000001_Node000005"><a xlink:title=" ">
<path fill="none" stroke="#63b8ff" d="M347.84,-23.22C329.79,-20.65 309.74,-17.79 292.62,-15.35"/>
<polygon fill="#63b8ff" stroke="#63b8ff" points="347.52,-26.71 357.91,-24.65 348.51,-19.78 347.52,-26.71"/>
</a>
</g>
</g>
<!-- Node3 -->
<g id="Node000003" class="node">
<title>Node3</title>
<g id="a_Node000003"><a xlink:href="structalpaqa_1_1LinConstrConverter.html#a0ee59cb7fda24428de07e47b412d9050" target="_top" xlink:title=" ">
<polygon fill="white" stroke="#666666" points="143,-91.5 0,-91.5 0,-61.5 143,-61.5 143,-91.5"/>
<text text-anchor="start" x="8" y="-79.5" font-family="Helvetica,sans-Serif" font-size="10.00">add_box_constr_to_constr</text>
<text text-anchor="middle" x="71.5" y="-68.5" font-family="Helvetica,sans-Serif" font-size="10.00">_matrix</text>
</a>
</g>
</g>
<!-- Node2&#45;&gt;Node3 -->
<g id="edge2_Node000002_Node000003" class="edge">
<title>Node2&#45;&gt;Node3</title>
<g id="a_edge2_Node000002_Node000003"><a xlink:title=" ">
<path fill="none" stroke="#63b8ff" d="M168.79,-63.44C160.22,-64.61 151.55,-65.78 143.11,-66.93"/>
<polygon fill="#63b8ff" stroke="#63b8ff" points="169.34,-66.9 178.78,-62.09 168.4,-59.96 169.34,-66.9"/>
</a>
</g>
</g>
<!-- Node4 -->
<g id="Node000004" class="node">
<title>Node4</title>
<g id="a_Node000004"><a xlink:href="structalpaqa_1_1LinConstrConverter.html#a9ebecedcd4e24a2d1336293047b06f78" target="_top" xlink:title=" ">
<polygon fill="white" stroke="#666666" points="143,-43.5 0,-43.5 0,-13.5 143,-13.5 143,-43.5"/>
<text text-anchor="start" x="8" y="-31.5" font-family="Helvetica,sans-Serif" font-size="10.00">add_box_constr_to_constr</text>
<text text-anchor="middle" x="71.5" y="-20.5" font-family="Helvetica,sans-Serif" font-size="10.00">_matrix</text>
</a>
</g>
</g>
<!-- Node2&#45;&gt;Node4 -->
<g id="edge3_Node000002_Node000004" class="edge">
<title>Node2&#45;&gt;Node4</title>
<g id="a_edge3_Node000002_Node000004"><a xlink:title=" ">
<path fill="none" stroke="#63b8ff" d="M168.79,-41.56C160.22,-40.39 151.55,-39.22 143.11,-38.07"/>
<polygon fill="#63b8ff" stroke="#63b8ff" points="168.4,-45.04 178.78,-42.91 169.34,-38.1 168.4,-45.04"/>
</a>
</g>
</g>
</g>
</svg>
