<?xml version="1.0" encoding="UTF-8" standalone="no"?>
<!DOCTYPE svg PUBLIC "-//W3C//DTD SVG 1.1//EN"
 "http://www.w3.org/Graphics/SVG/1.1/DTD/svg11.dtd">
<!-- Generated by graphviz version 2.43.0 (0)
 -->
<!-- Title: n Pages: 1 -->
<svg width="102pt" height="286pt"
 viewBox="0.00 0.00 102.00 286.00" xmlns="http://www.w3.org/2000/svg" xmlns:xlink="http://www.w3.org/1999/xlink">

<svg id="main" version="1.1" xmlns="http://www.w3.org/2000/svg" xmlns:xlink="http://www.w3.org/1999/xlink" xml:space="preserve" onload="init(evt)">
<style type="text/css"><![CDATA[
.node, .edge {opacity: 0.7;}
.node.selected, .edge.selected {opacity: 1;}
.edge:hover path { stroke: red; }
.edge:hover polygon { stroke: red; fill: red; }
]]></style>
<script type="application/ecmascript" xlink:href="svg.min.js"/>
<svg id="graph" class="graph">
<g id="graph0" class="graph" transform="scale(1 1) rotate(0) translate(4 282)">
<title>n</title>
<!-- Node1 -->
<g id="Node000001" class="node">
<title>Node1</title>
<g id="a_Node000001"><a xlink:title="Get the size of the s and y vectors in the buffer.">
<polygon fill="#999999" stroke="#666666" points="94,-148 65,-148 65,-129 94,-129 94,-148"/>
<text text-anchor="middle" x="79.5" y="-136" font-family="Helvetica,sans-Serif" font-size="10.00">n</text>
</a>
</g>
</g>
<!-- Node2 -->
<g id="Node000002" class="node">
<title>Node2</title>
<g id="a_Node000002"><a xlink:href="structalpaqa_1_1LBFGSStorage.html#ac7c2ee7d2562303f555dd1f4c3fca8cd" target="_top" xlink:title=" ">
<polygon fill="white" stroke="#666666" points="29,-278 0,-278 0,-259 29,-259 29,-278"/>
<text text-anchor="middle" x="14.5" y="-266" font-family="Helvetica,sans-Serif" font-size="10.00">α</text>
</a>
</g>
</g>
<!-- Node1&#45;&gt;Node2 -->
<g id="edge1_Node000001_Node000002" class="edge">
<title>Node1&#45;&gt;Node2</title>
<g id="a_edge1_Node000001_Node000002"><a xlink:title=" ">
<path fill="none" stroke="#63b8ff" d="M71.56,-157.69C62.95,-180.52 47.18,-219.46 29,-250.5 27.34,-253.33 25.32,-256.24 23.35,-258.88"/>
<polygon fill="#63b8ff" stroke="#63b8ff" points="74.9,-158.74 75.09,-148.15 68.33,-156.31 74.9,-158.74"/>
</a>
</g>
</g>
<!-- Node3 -->
<g id="Node000003" class="node">
<title>Node3</title>
<g id="a_Node000003"><a xlink:href="structalpaqa_1_1LBFGSStorage.html#aac6f3071a5748c46bca056709b880369" target="_top" xlink:title=" ">
<polygon fill="white" stroke="#666666" points="29,-241 0,-241 0,-222 29,-222 29,-241"/>
<text text-anchor="middle" x="14.5" y="-229" font-family="Helvetica,sans-Serif" font-size="10.00">α</text>
</a>
</g>
</g>
<!-- Node1&#45;&gt;Node3 -->
<g id="edge2_Node000001_Node000003" class="edge">
<title>Node1&#45;&gt;Node3</title>
<g id="a_edge2_Node000001_Node000003"><a xlink:title=" ">
<path fill="none" stroke="#63b8ff" d="M66.81,-156.87C56.97,-172.19 42.39,-194.48 29,-213.5 27.11,-216.18 25.01,-219.04 23.04,-221.68"/>
<polygon fill="#63b8ff" stroke="#63b8ff" points="69.83,-158.64 72.28,-148.33 63.94,-154.87 69.83,-158.64"/>
</a>
</g>
</g>
<!-- Node4 -->
<g id="Node000004" class="node">
<title>Node4</title>
<g id="a_Node000004"><a xlink:href="structalpaqa_1_1LBFGSStorage.html#acade3dc51f7ca788be9b91908b2e73ab" target="_top" xlink:title=" ">
<polygon fill="white" stroke="#666666" points="29,-204 0,-204 0,-185 29,-185 29,-204"/>
<text text-anchor="middle" x="14.5" y="-192" font-family="Helvetica,sans-Serif" font-size="10.00">ρ</text>
</a>
</g>
</g>
<!-- Node1&#45;&gt;Node4 -->
<g id="edge3_Node000001_Node000004" class="edge">
<title>Node1&#45;&gt;Node4</title>
<g id="a_edge3_Node000001_Node000004"><a xlink:title=" ">
<path fill="none" stroke="#63b8ff" d="M59.78,-155.14C48.88,-164.83 35.52,-176.7 26.35,-184.86"/>
<polygon fill="#63b8ff" stroke="#63b8ff" points="62.38,-157.51 67.53,-148.25 57.73,-152.28 62.38,-157.51"/>
</a>
</g>
</g>
<!-- Node5 -->
<g id="Node000005" class="node">
<title>Node5</title>
<g id="a_Node000005"><a xlink:href="structalpaqa_1_1LBFGSStorage.html#ab9a060f407604846d6345f6f85fddc77" target="_top" xlink:title=" ">
<polygon fill="white" stroke="#666666" points="29,-167 0,-167 0,-148 29,-148 29,-167"/>
<text text-anchor="middle" x="14.5" y="-155" font-family="Helvetica,sans-Serif" font-size="10.00">ρ</text>
</a>
</g>
</g>
<!-- Node1&#45;&gt;Node5 -->
<g id="edge4_Node000001_Node000005" class="edge">
<title>Node1&#45;&gt;Node5</title>
<g id="a_edge4_Node000001_Node000005"><a xlink:title=" ">
<path fill="none" stroke="#63b8ff" d="M55.14,-145.54C46.39,-148.18 36.73,-151.1 29.14,-153.39"/>
<polygon fill="#63b8ff" stroke="#63b8ff" points="56.27,-148.86 64.83,-142.62 54.25,-142.16 56.27,-148.86"/>
</a>
</g>
</g>
<!-- Node6 -->
<g id="Node000006" class="node">
<title>Node6</title>
<g id="a_Node000006"><a xlink:href="structalpaqa_1_1LBFGSStorage.html#a15e4a3db39457cabe764a7737d24e73f" target="_top" xlink:title=" ">
<polygon fill="white" stroke="#666666" points="29,-130 0,-130 0,-111 29,-111 29,-130"/>
<text text-anchor="middle" x="14.5" y="-118" font-family="Helvetica,sans-Serif" font-size="10.00">s</text>
</a>
</g>
</g>
<!-- Node1&#45;&gt;Node6 -->
<g id="edge5_Node000001_Node000006" class="edge">
<title>Node1&#45;&gt;Node6</title>
<g id="a_edge5_Node000001_Node000006"><a xlink:title=" ">
<path fill="none" stroke="#63b8ff" d="M55.14,-131.83C46.39,-129.33 36.73,-126.57 29.14,-124.4"/>
<polygon fill="#63b8ff" stroke="#63b8ff" points="54.25,-135.21 64.83,-134.59 56.18,-128.48 54.25,-135.21"/>
</a>
</g>
</g>
<!-- Node7 -->
<g id="Node000007" class="node">
<title>Node7</title>
<g id="a_Node000007"><a xlink:href="structalpaqa_1_1LBFGSStorage.html#a3735458df713d618d1f9798f3c080552" target="_top" xlink:title=" ">
<polygon fill="white" stroke="#666666" points="29,-93 0,-93 0,-74 29,-74 29,-93"/>
<text text-anchor="middle" x="14.5" y="-81" font-family="Helvetica,sans-Serif" font-size="10.00">s</text>
</a>
</g>
</g>
<!-- Node1&#45;&gt;Node7 -->
<g id="edge6_Node000001_Node000007" class="edge">
<title>Node1&#45;&gt;Node7</title>
<g id="a_edge6_Node000001_Node000007"><a xlink:title=" ">
<path fill="none" stroke="#63b8ff" d="M59.88,-122.25C49.13,-112.86 35.96,-101.36 26.77,-93.34"/>
<polygon fill="#63b8ff" stroke="#63b8ff" points="57.69,-124.98 67.53,-128.92 62.29,-119.71 57.69,-124.98"/>
</a>
</g>
</g>
<!-- Node8 -->
<g id="Node000008" class="node">
<title>Node8</title>
<g id="a_Node000008"><a xlink:href="structalpaqa_1_1LBFGSStorage.html#aebac2ec4461761a48a7284152a8217f8" target="_top" xlink:title=" ">
<polygon fill="white" stroke="#666666" points="29,-56 0,-56 0,-37 29,-37 29,-56"/>
<text text-anchor="middle" x="14.5" y="-44" font-family="Helvetica,sans-Serif" font-size="10.00">y</text>
</a>
</g>
</g>
<!-- Node1&#45;&gt;Node8 -->
<g id="edge7_Node000001_Node000008" class="edge">
<title>Node1&#45;&gt;Node8</title>
<g id="a_edge7_Node000001_Node000008"><a xlink:title=" ">
<path fill="none" stroke="#63b8ff" d="M66,-119.83C56.06,-105.03 41.75,-83.87 29,-65.5 26.88,-62.44 24.54,-59.13 22.41,-56.14"/>
<polygon fill="#63b8ff" stroke="#63b8ff" points="63.37,-122.18 71.84,-128.53 69.18,-118.28 63.37,-122.18"/>
</a>
</g>
</g>
<!-- Node9 -->
<g id="Node000009" class="node">
<title>Node9</title>
<g id="a_Node000009"><a xlink:href="structalpaqa_1_1LBFGSStorage.html#ad7609eeaecc7dc893ab24f98b8fbe6c8" target="_top" xlink:title=" ">
<polygon fill="white" stroke="#666666" points="29,-19 0,-19 0,0 29,0 29,-19"/>
<text text-anchor="middle" x="14.5" y="-7" font-family="Helvetica,sans-Serif" font-size="10.00">y</text>
</a>
</g>
</g>
<!-- Node1&#45;&gt;Node9 -->
<g id="edge8_Node000001_Node000009" class="edge">
<title>Node1&#45;&gt;Node9</title>
<g id="a_edge8_Node000001_Node000009"><a xlink:title=" ">
<path fill="none" stroke="#63b8ff" d="M71.23,-119.4C62.41,-97.01 46.53,-59.09 29,-28.5 27.23,-25.41 25.08,-22.2 23.02,-19.32"/>
<polygon fill="#63b8ff" stroke="#63b8ff" points="67.99,-120.72 74.87,-128.78 74.51,-118.19 67.99,-120.72"/>
</a>
</g>
</g>
</g>
</svg>
</svg>

<style type='text/css'>
<![CDATA[
[data-mouse-over-selected='false'] { opacity: 0.7; }
[data-mouse-over-selected='true']  { opacity: 1.0; }
]]>
</style>
<script type="application/ecmascript"><![CDATA[
document.addEventListener('DOMContentLoaded', (event) => {
  highlightEdges();
  highlightAdjacentNodes();
});
]]></script>
</svg>
