<?xml version="1.0" encoding="UTF-8" standalone="no"?>
<!DOCTYPE svg PUBLIC "-//W3C//DTD SVG 1.1//EN"
 "http://www.w3.org/Graphics/SVG/1.1/DTD/svg11.dtd">
<!-- Generated by graphviz version 2.43.0 (0)
 -->
<!-- Title: combine_bound_constr Pages: 1 -->
<svg width="302pt" height="64pt"
 viewBox="0.00 0.00 302.00 64.00" xmlns="http://www.w3.org/2000/svg" xmlns:xlink="http://www.w3.org/1999/xlink">
<g id="graph0" class="graph" transform="scale(1 1) rotate(0) translate(4 60)">
<title>combine_bound_constr</title>
<!-- Node1 -->
<g id="Node000001" class="node">
<title>Node1</title>
<g id="a_Node000001"><a xlink:title=" ">
<polygon fill="#999999" stroke="#666666" points="129,-37 0,-37 0,-18 129,-18 129,-37"/>
<text text-anchor="middle" x="64.5" y="-25" font-family="Helvetica,sans-Serif" font-size="10.00">combine_bound_constr</text>
</a>
</g>
</g>
<!-- Node2 -->
<g id="Node000002" class="node">
<title>Node2</title>
<g id="a_Node000002"><a xlink:href="structalpaqa_1_1LinConstrConverter.html#ac369fef5d267d5c4c88afd95b4c212a0" target="_top" xlink:title="For each constraint lbx(i)/ubx(i) with finite bounds, insert these bounds into new_lbg(i)/new_ubg(i),...">
<polygon fill="white" stroke="#666666" points="294,-56 165,-56 165,-37 294,-37 294,-56"/>
<text text-anchor="middle" x="229.5" y="-44" font-family="Helvetica,sans-Serif" font-size="10.00">combine_bound_constr</text>
</a>
</g>
</g>
<!-- Node1&#45;&gt;Node2 -->
<g id="edge1_Node000001_Node000002" class="edge">
<title>Node1&#45;&gt;Node2</title>
<g id="a_edge1_Node000001_Node000002"><a xlink:title=" ">
<path fill="none" stroke="#63b8ff" d="M129.45,-34.95C137.85,-35.93 146.51,-36.94 155.05,-37.94"/>
<polygon fill="#63b8ff" stroke="#63b8ff" points="154.66,-41.42 165,-39.1 155.47,-34.46 154.66,-41.42"/>
</a>
</g>
</g>
<!-- Node3 -->
<g id="Node000003" class="node">
<title>Node3</title>
<g id="a_Node000003"><a xlink:href="structalpaqa_1_1LinConstrConverter.html#ae35a83e95a5485a85e308b70499633d7" target="_top" xlink:title=" ">
<polygon fill="white" stroke="#666666" points="257,-19 202,-19 202,0 257,0 257,-19"/>
<text text-anchor="middle" x="229.5" y="-7" font-family="Helvetica,sans-Serif" font-size="10.00">to_span</text>
</a>
</g>
</g>
<!-- Node1&#45;&gt;Node3 -->
<g id="edge2_Node000001_Node000003" class="edge">
<title>Node1&#45;&gt;Node3</title>
<g id="a_edge2_Node000001_Node000003"><a xlink:title=" ">
<path fill="none" stroke="#63b8ff" d="M129.45,-20.44C150.58,-18.1 173.35,-15.59 191.73,-13.56"/>
<polygon fill="#63b8ff" stroke="#63b8ff" points="192.17,-17.03 201.72,-12.46 191.4,-10.08 192.17,-17.03"/>
</a>
</g>
</g>
</g>
</svg>
