<?xml version="1.0" encoding="UTF-8" standalone="no"?>
<!DOCTYPE svg PUBLIC "-//W3C//DTD SVG 1.1//EN"
 "http://www.w3.org/Graphics/SVG/1.1/DTD/svg11.dtd">
<!-- Generated by graphviz version 2.43.0 (0)
 -->
<!-- Title: CasADiFunctionsWithParam&lt; Conf &gt; Pages: 1 -->
<!--zoomable 1072 -->

<svg id="main" version="1.1" xmlns="http://www.w3.org/2000/svg" xmlns:xlink="http://www.w3.org/1999/xlink" xml:space="preserve" onload="init(evt)">
<style type="text/css"><![CDATA[
.node, .edge {opacity: 0.7;}
.node.selected, .edge.selected {opacity: 1;}
.edge:hover path { stroke: red; }
.edge:hover polygon { stroke: red; fill: red; }
]]></style>

<defs>
  <circle id="rim" cx="0" cy="0" r="7"/>
  <circle id="rim2" cx="0" cy="0" r="3.5"/>
  <g id="zoomPlus">
    <use xlink:href="#rim" fill="#404040"><set attributeName="fill" to="#808080" begin="zoomplus.mouseover" end="zoomplus.mouseout"/></use>
    <path d="M-4,0h8M0,-4v8" fill="none" stroke="white" stroke-width="1.5" pointer-events="none"/>
  </g>
  <g id="zoomMin">
    <use xlink:href="#rim" fill="#404040"><set attributeName="fill" to="#808080" begin="zoomminus.mouseover" end="zoomminus.mouseout"/></use>
    <path d="M-4,0h8" fill="none" stroke="white" stroke-width="1.5" pointer-events="none"/>
  </g>
  <g id="arrowUp" transform="translate(30 24)">
    <use xlink:href="#rim"/>
    <path pointer-events="none" fill="none" stroke="white" stroke-width="1.5" d="M0,-3.0v7 M-2.5,-0.5L0,-3.0L2.5,-0.5"/>
  </g>
  <g id="arrowRight" transform="rotate(90) translate(36 -43)">
    <use xlink:href="#rim"/>
    <path pointer-events="none" fill="none" stroke="white" stroke-width="1.5" d="M0,-3.0v7 M-2.5,-0.5L0,-3.0L2.5,-0.5"/>
  </g>
  <g id="arrowDown" transform="rotate(180) translate(-30 -48)">
    <use xlink:href="#rim"/>
    <path pointer-events="none" fill="none" stroke="white" stroke-width="1.5" d="M0,-3.0v7 M-2.5,-0.5L0,-3.0L2.5,-0.5"/>
  </g>
  <g id="arrowLeft" transform="rotate(270) translate(-36 17)">
    <use xlink:href="#rim"/>
    <path pointer-events="none" fill="none" stroke="white" stroke-width="1.5" d="M0,-3.0v7 M-2.5,-0.5L0,-3.0L2.5,-0.5"/>
  </g>
  <g id="resetDef">
    <use xlink:href="#rim2" fill="#404040"><set attributeName="fill" to="#808080" begin="reset.mouseover" end="reset.mouseout"/></use>
  </g>
</defs>
<script type="application/ecmascript">
var viewWidth = 330;
var viewHeight = 1072;
var sectionId = 'dynsection-0';
</script>
<script type="application/ecmascript" xlink:href="svg.min.js"/>
<svg id="graph" class="graph">
<g id="viewport">
<title>CasADiFunctionsWithParam&lt; Conf &gt;</title>
<!-- Node1 -->
<g id="Node000001" class="node">
<title>Node1</title>
<g id="a_Node000001"><a xlink:title=" ">
<polygon fill="#999999" stroke="transparent" points="233,-240 87,-240 87,0 233,0 233,-240"/>
<text text-anchor="start" x="92" y="-228" font-family="Helvetica,sans-Serif" font-size="10.00">CasADiFunctionsWithParam</text>
<text text-anchor="start" x="137" y="-217" font-family="Helvetica,sans-Serif" font-size="10.00">&lt; Conf &gt;</text>
<text text-anchor="start" x="106.5" y="-202" font-family="Helvetica,sans-Serif" font-size="10.00">+</text>
<text text-anchor="start" x="135" y="-202" font-family="Helvetica,sans-Serif" font-size="10.00">n</text>
<text text-anchor="start" x="106.5" y="-187" font-family="Helvetica,sans-Serif" font-size="10.00">+</text>
<text text-anchor="start" x="135" y="-187" font-family="Helvetica,sans-Serif" font-size="10.00">m</text>
<text text-anchor="start" x="106.5" y="-172" font-family="Helvetica,sans-Serif" font-size="10.00">+</text>
<text text-anchor="start" x="135" y="-172" font-family="Helvetica,sans-Serif" font-size="10.00">p</text>
<text text-anchor="start" x="106.5" y="-157" font-family="Helvetica,sans-Serif" font-size="10.00">+</text>
<text text-anchor="start" x="135" y="-157" font-family="Helvetica,sans-Serif" font-size="10.00">g</text>
<text text-anchor="start" x="106.5" y="-142" font-family="Helvetica,sans-Serif" font-size="10.00">+</text>
<text text-anchor="start" x="135" y="-142" font-family="Helvetica,sans-Serif" font-size="10.00">grad_g_prod</text>
<text text-anchor="start" x="106.5" y="-127" font-family="Helvetica,sans-Serif" font-size="10.00">+</text>
<text text-anchor="start" x="135" y="-127" font-family="Helvetica,sans-Serif" font-size="10.00">jac_g</text>
<text text-anchor="start" x="106.5" y="-112" font-family="Helvetica,sans-Serif" font-size="10.00">+</text>
<text text-anchor="start" x="135" y="-112" font-family="Helvetica,sans-Serif" font-size="10.00">grad_L</text>
<text text-anchor="start" x="106.5" y="-97" font-family="Helvetica,sans-Serif" font-size="10.00">+</text>
<text text-anchor="start" x="135" y="-97" font-family="Helvetica,sans-Serif" font-size="10.00">hess_L_prod</text>
<text text-anchor="start" x="106.5" y="-82" font-family="Helvetica,sans-Serif" font-size="10.00">+</text>
<text text-anchor="start" x="135" y="-82" font-family="Helvetica,sans-Serif" font-size="10.00">hess_L</text>
<text text-anchor="start" x="106.5" y="-67" font-family="Helvetica,sans-Serif" font-size="10.00">+</text>
<text text-anchor="start" x="135" y="-67" font-family="Helvetica,sans-Serif" font-size="10.00">ψ</text>
<text text-anchor="start" x="106.5" y="-52" font-family="Helvetica,sans-Serif" font-size="10.00">+</text>
<text text-anchor="start" x="135" y="-52" font-family="Helvetica,sans-Serif" font-size="10.00">ψ_grad_ψ</text>
<text text-anchor="start" x="106.5" y="-37" font-family="Helvetica,sans-Serif" font-size="10.00">+</text>
<text text-anchor="start" x="135" y="-37" font-family="Helvetica,sans-Serif" font-size="10.00">hess_ψ_prod</text>
<text text-anchor="start" x="106.5" y="-22" font-family="Helvetica,sans-Serif" font-size="10.00">+</text>
<text text-anchor="start" x="135" y="-22" font-family="Helvetica,sans-Serif" font-size="10.00">hess_ψ</text>
<text text-anchor="start" x="106.5" y="-7" font-family="Helvetica,sans-Serif" font-size="10.00">+</text>
<text text-anchor="start" x="135" y="-7" font-family="Helvetica,sans-Serif" font-size="10.00">load()</text>
<polygon fill="#666666" stroke="#666666" points="87,-212 87,-212 233,-212 233,-212 87,-212"/>
<polygon fill="#666666" stroke="#666666" points="87,-17 87,-17 133,-17 133,-17 87,-17"/>
<polygon fill="#666666" stroke="#666666" points="133,-17 133,-17 233,-17 233,-17 133,-17"/>
<polygon fill="none" stroke="#666666" points="87,0 87,-240 233,-240 233,0 87,0"/>
</a>
</g>
</g>
<!-- Node2 -->
<g id="Node000002" class="node">
<title>Node2</title>
<g id="a_Node000002"><a xlink:href="classalpaqa_1_1casadi__loader_1_1CasADiFunctionEvaluator.html" target="_top" xlink:title=" ">
<polygon fill="white" stroke="transparent" points="152,-422 0,-422 0,-287 152,-287 152,-422"/>
<text text-anchor="start" x="14" y="-409.5" font-family="Helvetica,sans-Serif" font-size="10.00">CasADiFunctionEvaluator</text>
<text text-anchor="start" x="41" y="-398.5" font-family="Helvetica,sans-Serif" font-size="10.00">&lt; Conf, 2, 1 &gt;</text>
<text text-anchor="start" x="74" y="-383.5" font-family="Helvetica,sans-Serif" font-size="10.00"> </text>
<text text-anchor="start" x="4" y="-368.5" font-family="Helvetica,sans-Serif" font-size="10.00">+</text>
<text text-anchor="start" x="17" y="-368.5" font-family="Helvetica,sans-Serif" font-size="10.00">CasADiFunctionEvaluator()</text>
<text text-anchor="start" x="4" y="-353.5" font-family="Helvetica,sans-Serif" font-size="10.00">+</text>
<text text-anchor="start" x="17" y="-353.5" font-family="Helvetica,sans-Serif" font-size="10.00">CasADiFunctionEvaluator()</text>
<text text-anchor="start" x="4" y="-338.5" font-family="Helvetica,sans-Serif" font-size="10.00">+</text>
<text text-anchor="start" x="17" y="-338.5" font-family="Helvetica,sans-Serif" font-size="10.00">validate_dimensions()</text>
<text text-anchor="start" x="4" y="-323.5" font-family="Helvetica,sans-Serif" font-size="10.00">+</text>
<text text-anchor="start" x="17" y="-323.5" font-family="Helvetica,sans-Serif" font-size="10.00">operator()()</text>
<text text-anchor="start" x="4" y="-308.5" font-family="Helvetica,sans-Serif" font-size="10.00">+</text>
<text text-anchor="start" x="17" y="-308.5" font-family="Helvetica,sans-Serif" font-size="10.00">validate_num_args()</text>
<text text-anchor="start" x="4" y="-293.5" font-family="Helvetica,sans-Serif" font-size="10.00">+</text>
<text text-anchor="start" x="17" y="-293.5" font-family="Helvetica,sans-Serif" font-size="10.00">validate_dimensions()</text>
<polygon fill="#666666" stroke="#666666" points="0,-393.5 0,-393.5 152,-393.5 152,-393.5 0,-393.5"/>
<polygon fill="#666666" stroke="#666666" points="0,-378.5 0,-378.5 152,-378.5 152,-378.5 0,-378.5"/>
<polygon fill="none" stroke="#666666" points="0,-287 0,-422 152,-422 152,-287 0,-287"/>
</a>
</g>
</g>
<!-- Node2&#45;&gt;Node1 -->
<g id="edge1_Node000001_Node000002" class="edge">
<title>Node2&#45;&gt;Node1</title>
<g id="a_edge1_Node000001_Node000002"><a xlink:title=" ">
<path fill="none" stroke="#63b8ff" d="M100.07,-286.87C104.08,-275.79 108.35,-263.97 112.7,-251.93"/>
<polygon fill="none" stroke="#63b8ff" points="112.81,-251.62 111.08,-244.62 116.88,-240.34 118.61,-247.34 112.81,-251.62"/>
</a>
</g>
<text text-anchor="middle" x="119" y="-261" font-family="Helvetica,sans-Serif" font-size="10.00" fill="grey"> +f</text>
</g>
<!-- Node3 -->
<g id="Node000003" class="node">
<title>Node3</title>
<g id="a_Node000003"><a xlink:href="classalpaqa_1_1casadi_1_1Function.html" target="_top" xlink:title="Class that loads and calls pre&#45;compiled CasADi functions in a DLL/SO file.">
<polygon fill="white" stroke="transparent" points="204.5,-788 115.5,-788 115.5,-469 204.5,-469 204.5,-788"/>
<text text-anchor="start" x="139.5" y="-775.5" font-family="Helvetica,sans-Serif" font-size="10.00">Function</text>
<text text-anchor="start" x="122.5" y="-760.5" font-family="Helvetica,sans-Serif" font-size="10.00">&#45;</text>
<text text-anchor="start" x="133" y="-760.5" font-family="Helvetica,sans-Serif" font-size="10.00">so_handle</text>
<text text-anchor="start" x="122.5" y="-745.5" font-family="Helvetica,sans-Serif" font-size="10.00">&#45;</text>
<text text-anchor="start" x="133" y="-745.5" font-family="Helvetica,sans-Serif" font-size="10.00">work</text>
<text text-anchor="start" x="122.5" y="-730.5" font-family="Helvetica,sans-Serif" font-size="10.00">&#45;</text>
<text text-anchor="start" x="133" y="-730.5" font-family="Helvetica,sans-Serif" font-size="10.00">mem</text>
<text text-anchor="start" x="120" y="-715.5" font-family="Helvetica,sans-Serif" font-size="10.00">+</text>
<text text-anchor="start" x="133" y="-715.5" font-family="Helvetica,sans-Serif" font-size="10.00">Function()</text>
<text text-anchor="start" x="120" y="-700.5" font-family="Helvetica,sans-Serif" font-size="10.00">+</text>
<text text-anchor="start" x="133" y="-700.5" font-family="Helvetica,sans-Serif" font-size="10.00">Function()</text>
<text text-anchor="start" x="120" y="-685.5" font-family="Helvetica,sans-Serif" font-size="10.00">+</text>
<text text-anchor="start" x="133" y="-685.5" font-family="Helvetica,sans-Serif" font-size="10.00">Function()</text>
<text text-anchor="start" x="120" y="-670.5" font-family="Helvetica,sans-Serif" font-size="10.00">+</text>
<text text-anchor="start" x="133" y="-670.5" font-family="Helvetica,sans-Serif" font-size="10.00">~Function()</text>
<text text-anchor="start" x="120" y="-655.5" font-family="Helvetica,sans-Serif" font-size="10.00">+</text>
<text text-anchor="start" x="133" y="-655.5" font-family="Helvetica,sans-Serif" font-size="10.00">n_in()</text>
<text text-anchor="start" x="120" y="-640.5" font-family="Helvetica,sans-Serif" font-size="10.00">+</text>
<text text-anchor="start" x="133" y="-640.5" font-family="Helvetica,sans-Serif" font-size="10.00">n_out()</text>
<text text-anchor="start" x="120" y="-625.5" font-family="Helvetica,sans-Serif" font-size="10.00">+</text>
<text text-anchor="start" x="133" y="-625.5" font-family="Helvetica,sans-Serif" font-size="10.00">size_in()</text>
<text text-anchor="start" x="120" y="-610.5" font-family="Helvetica,sans-Serif" font-size="10.00">+</text>
<text text-anchor="start" x="133" y="-610.5" font-family="Helvetica,sans-Serif" font-size="10.00">size_out()</text>
<text text-anchor="start" x="120" y="-595.5" font-family="Helvetica,sans-Serif" font-size="10.00">+</text>
<text text-anchor="start" x="133" y="-595.5" font-family="Helvetica,sans-Serif" font-size="10.00">size1_in()</text>
<text text-anchor="start" x="120" y="-580.5" font-family="Helvetica,sans-Serif" font-size="10.00">+</text>
<text text-anchor="start" x="133" y="-580.5" font-family="Helvetica,sans-Serif" font-size="10.00">size1_out()</text>
<text text-anchor="start" x="120" y="-565.5" font-family="Helvetica,sans-Serif" font-size="10.00">+</text>
<text text-anchor="start" x="133" y="-565.5" font-family="Helvetica,sans-Serif" font-size="10.00">size2_in()</text>
<text text-anchor="start" x="120" y="-550.5" font-family="Helvetica,sans-Serif" font-size="10.00">+</text>
<text text-anchor="start" x="133" y="-550.5" font-family="Helvetica,sans-Serif" font-size="10.00">size2_out()</text>
<text text-anchor="start" x="120" y="-535.5" font-family="Helvetica,sans-Serif" font-size="10.00">+</text>
<text text-anchor="start" x="133" y="-535.5" font-family="Helvetica,sans-Serif" font-size="10.00">sparsity_in()</text>
<text text-anchor="start" x="120" y="-520.5" font-family="Helvetica,sans-Serif" font-size="10.00">+</text>
<text text-anchor="start" x="133" y="-520.5" font-family="Helvetica,sans-Serif" font-size="10.00">sparsity_out()</text>
<text text-anchor="start" x="120" y="-505.5" font-family="Helvetica,sans-Serif" font-size="10.00">+</text>
<text text-anchor="start" x="133" y="-505.5" font-family="Helvetica,sans-Serif" font-size="10.00">operator()()</text>
<text text-anchor="start" x="122.5" y="-490.5" font-family="Helvetica,sans-Serif" font-size="10.00">&#45;</text>
<text text-anchor="start" x="133" y="-490.5" font-family="Helvetica,sans-Serif" font-size="10.00">load()</text>
<text text-anchor="start" x="122.5" y="-475.5" font-family="Helvetica,sans-Serif" font-size="10.00">&#45;</text>
<text text-anchor="start" x="133" y="-475.5" font-family="Helvetica,sans-Serif" font-size="10.00">init_work()</text>
<polygon fill="#666666" stroke="#666666" points="116,-770.5 116,-770.5 205,-770.5 205,-770.5 116,-770.5"/>
<polygon fill="#666666" stroke="#666666" points="116,-725.5 116,-725.5 131,-725.5 131,-725.5 116,-725.5"/>
<polygon fill="#666666" stroke="#666666" points="131,-725.5 131,-725.5 205,-725.5 205,-725.5 131,-725.5"/>
<polygon fill="none" stroke="#666666" points="115.5,-469 115.5,-788 204.5,-788 204.5,-469 115.5,-469"/>
</a>
</g>
</g>
<!-- Node3&#45;&gt;Node2 -->
<g id="edge2_Node000002_Node000003" class="edge">
<title>Node3&#45;&gt;Node2</title>
<g id="a_edge2_Node000002_Node000003"><a xlink:title=" ">
<path fill="none" stroke="#63b8ff" d="M115.42,-483.14C110.16,-466.12 104.96,-449.27 100.14,-433.67"/>
<polygon fill="none" stroke="#63b8ff" points="100.08,-433.47 94.49,-428.91 96.54,-422 102.13,-426.55 100.08,-433.47"/>
</a>
</g>
<text text-anchor="middle" x="118" y="-443" font-family="Helvetica,sans-Serif" font-size="10.00" fill="grey"> +fun</text>
</g>
<!-- Node5 -->
<g id="Node000005" class="node">
<title>Node5</title>
<g id="a_Node000005"><a xlink:href="classalpaqa_1_1casadi__loader_1_1CasADiFunctionEvaluator.html" target="_top" xlink:title=" ">
<polygon fill="white" stroke="transparent" points="322,-422 170,-422 170,-287 322,-287 322,-422"/>
<text text-anchor="start" x="184" y="-409.5" font-family="Helvetica,sans-Serif" font-size="10.00">CasADiFunctionEvaluator</text>
<text text-anchor="start" x="211" y="-398.5" font-family="Helvetica,sans-Serif" font-size="10.00">&lt; Conf, 2, 2 &gt;</text>
<text text-anchor="start" x="244" y="-383.5" font-family="Helvetica,sans-Serif" font-size="10.00"> </text>
<text text-anchor="start" x="174" y="-368.5" font-family="Helvetica,sans-Serif" font-size="10.00">+</text>
<text text-anchor="start" x="187" y="-368.5" font-family="Helvetica,sans-Serif" font-size="10.00">CasADiFunctionEvaluator()</text>
<text text-anchor="start" x="174" y="-353.5" font-family="Helvetica,sans-Serif" font-size="10.00">+</text>
<text text-anchor="start" x="187" y="-353.5" font-family="Helvetica,sans-Serif" font-size="10.00">CasADiFunctionEvaluator()</text>
<text text-anchor="start" x="174" y="-338.5" font-family="Helvetica,sans-Serif" font-size="10.00">+</text>
<text text-anchor="start" x="187" y="-338.5" font-family="Helvetica,sans-Serif" font-size="10.00">validate_dimensions()</text>
<text text-anchor="start" x="174" y="-323.5" font-family="Helvetica,sans-Serif" font-size="10.00">+</text>
<text text-anchor="start" x="187" y="-323.5" font-family="Helvetica,sans-Serif" font-size="10.00">operator()()</text>
<text text-anchor="start" x="174" y="-308.5" font-family="Helvetica,sans-Serif" font-size="10.00">+</text>
<text text-anchor="start" x="187" y="-308.5" font-family="Helvetica,sans-Serif" font-size="10.00">validate_num_args()</text>
<text text-anchor="start" x="174" y="-293.5" font-family="Helvetica,sans-Serif" font-size="10.00">+</text>
<text text-anchor="start" x="187" y="-293.5" font-family="Helvetica,sans-Serif" font-size="10.00">validate_dimensions()</text>
<polygon fill="#666666" stroke="#666666" points="170,-393.5 170,-393.5 322,-393.5 322,-393.5 170,-393.5"/>
<polygon fill="#666666" stroke="#666666" points="170,-378.5 170,-378.5 322,-378.5 322,-378.5 170,-378.5"/>
<polygon fill="none" stroke="#666666" points="170,-287 170,-422 322,-422 322,-287 170,-287"/>
</a>
</g>
</g>
<!-- Node3&#45;&gt;Node5 -->
<g id="edge5_Node000005_Node000003" class="edge">
<title>Node3&#45;&gt;Node5</title>
<g id="a_edge5_Node000005_Node000003"><a xlink:title=" ">
<path fill="none" stroke="#63b8ff" d="M204.51,-486.72C210.25,-468.57 215.95,-450.53 221.21,-433.91"/>
<polygon fill="none" stroke="#63b8ff" points="221.34,-433.51 219.33,-426.58 224.95,-422.07 226.96,-428.99 221.34,-433.51"/>
</a>
</g>
<text text-anchor="middle" x="232" y="-443" font-family="Helvetica,sans-Serif" font-size="10.00" fill="grey"> +fun</text>
</g>
<!-- Node4 -->
<g id="Node000004" class="node">
<title>Node4</title>
<g id="a_Node000004"><a xlink:href="classalpaqa_1_1casadi_1_1Function.html#structalpaqa_1_1casadi_1_1Function_1_1Functions" target="_top" xlink:title=" ">
<polygon fill="white" stroke="transparent" points="201,-1064 119,-1064 119,-835 201,-835 201,-1064"/>
<text text-anchor="start" x="136.5" y="-1051.5" font-family="Helvetica,sans-Serif" font-size="10.00">Functions</text>
<text text-anchor="start" x="123" y="-1036.5" font-family="Helvetica,sans-Serif" font-size="10.00">+</text>
<text text-anchor="start" x="136" y="-1036.5" font-family="Helvetica,sans-Serif" font-size="10.00">incref</text>
<text text-anchor="start" x="123" y="-1021.5" font-family="Helvetica,sans-Serif" font-size="10.00">+</text>
<text text-anchor="start" x="136" y="-1021.5" font-family="Helvetica,sans-Serif" font-size="10.00">decref</text>
<text text-anchor="start" x="123" y="-1006.5" font-family="Helvetica,sans-Serif" font-size="10.00">+</text>
<text text-anchor="start" x="136" y="-1006.5" font-family="Helvetica,sans-Serif" font-size="10.00">n_in</text>
<text text-anchor="start" x="123" y="-991.5" font-family="Helvetica,sans-Serif" font-size="10.00">+</text>
<text text-anchor="start" x="136" y="-991.5" font-family="Helvetica,sans-Serif" font-size="10.00">n_out</text>
<text text-anchor="start" x="123" y="-976.5" font-family="Helvetica,sans-Serif" font-size="10.00">+</text>
<text text-anchor="start" x="136" y="-976.5" font-family="Helvetica,sans-Serif" font-size="10.00">name_in</text>
<text text-anchor="start" x="123" y="-961.5" font-family="Helvetica,sans-Serif" font-size="10.00">+</text>
<text text-anchor="start" x="136" y="-961.5" font-family="Helvetica,sans-Serif" font-size="10.00">name_out</text>
<text text-anchor="start" x="123" y="-946.5" font-family="Helvetica,sans-Serif" font-size="10.00">+</text>
<text text-anchor="start" x="136" y="-946.5" font-family="Helvetica,sans-Serif" font-size="10.00">sparsity_in</text>
<text text-anchor="start" x="123" y="-931.5" font-family="Helvetica,sans-Serif" font-size="10.00">+</text>
<text text-anchor="start" x="136" y="-931.5" font-family="Helvetica,sans-Serif" font-size="10.00">sparsity_out</text>
<text text-anchor="start" x="123" y="-916.5" font-family="Helvetica,sans-Serif" font-size="10.00">+</text>
<text text-anchor="start" x="136" y="-916.5" font-family="Helvetica,sans-Serif" font-size="10.00">alloc_mem</text>
<text text-anchor="start" x="123" y="-901.5" font-family="Helvetica,sans-Serif" font-size="10.00">+</text>
<text text-anchor="start" x="136" y="-901.5" font-family="Helvetica,sans-Serif" font-size="10.00">init_mem</text>
<text text-anchor="start" x="123" y="-886.5" font-family="Helvetica,sans-Serif" font-size="10.00">+</text>
<text text-anchor="start" x="136" y="-886.5" font-family="Helvetica,sans-Serif" font-size="10.00">free_mem</text>
<text text-anchor="start" x="123" y="-871.5" font-family="Helvetica,sans-Serif" font-size="10.00">+</text>
<text text-anchor="start" x="136" y="-871.5" font-family="Helvetica,sans-Serif" font-size="10.00">work</text>
<text text-anchor="start" x="123" y="-856.5" font-family="Helvetica,sans-Serif" font-size="10.00">+</text>
<text text-anchor="start" x="136" y="-856.5" font-family="Helvetica,sans-Serif" font-size="10.00">call</text>
<text text-anchor="start" x="158" y="-841.5" font-family="Helvetica,sans-Serif" font-size="10.00"> </text>
<polygon fill="#666666" stroke="#666666" points="119,-1046.5 119,-1046.5 201,-1046.5 201,-1046.5 119,-1046.5"/>
<polygon fill="#666666" stroke="#666666" points="119,-851.5 119,-851.5 134,-851.5 134,-851.5 119,-851.5"/>
<polygon fill="#666666" stroke="#666666" points="134,-851.5 134,-851.5 201,-851.5 201,-851.5 134,-851.5"/>
<polygon fill="none" stroke="#666666" points="119,-835 119,-1064 201,-1064 201,-835 119,-835"/>
</a>
</g>
</g>
<!-- Node4&#45;&gt;Node3 -->
<g id="edge3_Node000003_Node000004" class="edge">
<title>Node4&#45;&gt;Node3</title>
<g id="a_edge3_Node000003_Node000004"><a xlink:title=" ">
<path fill="none" stroke="#63b8ff" d="M160,-834.68C160,-823.46 160,-811.91 160,-800.28"/>
<polygon fill="none" stroke="#63b8ff" points="160,-800.14 156,-794.14 160,-788.14 164,-794.14 160,-800.14"/>
</a>
</g>
<text text-anchor="middle" x="186" y="-809" font-family="Helvetica,sans-Serif" font-size="10.00" fill="grey"> &#45;functions</text>
</g>
<!-- Node5&#45;&gt;Node1 -->
<g id="edge4_Node000001_Node000005" class="edge">
<title>Node5&#45;&gt;Node1</title>
<g id="a_edge4_Node000001_Node000005"><a xlink:title=" ">
<path fill="none" stroke="#63b8ff" d="M221.36,-286.87C217.26,-275.79 212.88,-263.97 208.43,-251.93"/>
<polygon fill="none" stroke="#63b8ff" points="208.31,-251.59 202.47,-247.35 204.14,-240.34 209.98,-244.58 208.31,-251.59"/>
</a>
</g>
<text text-anchor="middle" x="239" y="-261" font-family="Helvetica,sans-Serif" font-size="10.00" fill="grey"> +f_grad_f</text>
</g>
</g>
</svg>

<g id="navigator" transform="translate(0 0)" fill="#404254">
  <rect fill="#f2f5e9" fill-opacity="0.5" stroke="#606060" stroke-width=".5" x="0" y="0" width="60" height="60"/>
  <use id="zoomplus" xlink:href="#zoomPlus" x="17" y="9" onmousedown="handleZoom(evt,'in')"/>
  <use id="zoomminus" xlink:href="#zoomMin" x="42" y="9" onmousedown="handleZoom(evt,'out')"/>
  <use id="reset" xlink:href="#resetDef" x="30" y="36" onmousedown="handleReset()"/>
   <use id="arrowup" xlink:href="#arrowUp" x="0" y="0" onmousedown="handlePan(0,-1)"/>
  <use id="arrowright" xlink:href="#arrowRight" x="0" y="0" onmousedown="handlePan(1,0)"/>
  <use id="arrowdown" xlink:href="#arrowDown" x="0" y="0" onmousedown="handlePan(0,1)"/>
  <use id="arrowleft" xlink:href="#arrowLeft" x="0" y="0" onmousedown="handlePan(-1,0)"/>
</g>
<svg viewBox="0 0 15 15" width="100%" height="30px" preserveAspectRatio="xMaxYMin meet">
 <g id="arrow_out" transform="scale(0.3 0.3)">
  <a xlink:href="structalpaqa_1_1casadi__loader_1_1CasADiFunctionsWithParam__coll__graph_org.svg" target="_base">
   <rect id="button" ry="5" rx="5" y="6" x="6" height="38" width="38"
        fill="#f2f5e9" fill-opacity="0.5" stroke="#606060" stroke-width="1.0"/>
   <path id="arrow"
     d="M 11.500037,31.436501 C 11.940474,20.09759 22.043105,11.32322 32.158766,21.979434 L 37.068811,17.246167 C 37.068811,17.246167 37.088388,32 37.088388,32 L 22.160133,31.978069 C 22.160133,31.978069 26.997745,27.140456 26.997745,27.140456 C 18.528582,18.264221 13.291696,25.230495 11.500037,31.436501 z"
     style="fill:#404040;"/>
  </a>
 </g>
</svg>

<style type='text/css'>
<![CDATA[
[data-mouse-over-selected='false'] { opacity: 0.7; }
[data-mouse-over-selected='true']  { opacity: 1.0; }
]]>
</style>
<script type="application/ecmascript"><![CDATA[
document.addEventListener('DOMContentLoaded', (event) => {
  highlightEdges();
  highlightAdjacentNodes();
});
]]></script>
</svg>
