<?xml version="1.0" encoding="UTF-8" standalone="no"?>
<!DOCTYPE svg PUBLIC "-//W3C//DTD SVG 1.1//EN"
 "http://www.w3.org/Graphics/SVG/1.1/DTD/svg11.dtd">
<!-- Generated by graphviz version 2.43.0 (0)
 -->
<!-- Title: add_box_constr_to_constr_matrix Pages: 1 -->
<svg width="367pt" height="52pt"
 viewBox="0.00 0.00 367.00 51.50" xmlns="http://www.w3.org/2000/svg" xmlns:xlink="http://www.w3.org/1999/xlink">
<g id="graph0" class="graph" transform="scale(1 1) rotate(0) translate(4 47.5)">
<title>add_box_constr_to_constr_matrix</title>
<!-- Node1 -->
<g id="Node000001" class="node">
<title>Node1</title>
<g id="a_Node000001"><a xlink:title=" ">
<polygon fill="#999999" stroke="#666666" points="143,-30 0,-30 0,0 143,0 143,-30"/>
<text text-anchor="start" x="8" y="-18" font-family="Helvetica,sans-Serif" font-size="10.00">add_box_constr_to_constr</text>
<text text-anchor="middle" x="71.5" y="-7" font-family="Helvetica,sans-Serif" font-size="10.00">_matrix</text>
</a>
</g>
</g>
<!-- Node2 -->
<g id="Node000002" class="node">
<title>Node2</title>
<g id="a_Node000002"><a xlink:href="structalpaqa_1_1LinConstrConverter.html#aa199880d745352ec6c0262da91a9a452" target="_top" xlink:title=" ">
<polygon fill="white" stroke="#666666" points="263,-43.5 179,-43.5 179,-24.5 263,-24.5 263,-43.5"/>
<text text-anchor="middle" x="221" y="-31.5" font-family="Helvetica,sans-Serif" font-size="10.00">count_bounds</text>
</a>
</g>
</g>
<!-- Node1&#45;&gt;Node2 -->
<g id="edge1_Node000001_Node000002" class="edge">
<title>Node1&#45;&gt;Node2</title>
<g id="a_edge1_Node000001_Node000002"><a xlink:title=" ">
<path fill="none" stroke="#63b8ff" d="M143.23,-24.11C151.75,-25.21 160.33,-26.31 168.51,-27.37"/>
<polygon fill="#63b8ff" stroke="#63b8ff" points="168.25,-30.86 178.62,-28.67 169.14,-23.92 168.25,-30.86"/>
</a>
</g>
</g>
<!-- Node3 -->
<g id="Node000003" class="node">
<title>Node3</title>
<g id="a_Node000003"><a xlink:href="structalpaqa_1_1LinConstrConverter.html#aa7668b0df53654f4f6681905b9f49453" target="_top" xlink:title="Check if the variable with the given index has bound constraints, i.e.">
<polygon fill="white" stroke="#666666" points="359,-24.5 299,-24.5 299,-5.5 359,-5.5 359,-24.5"/>
<text text-anchor="middle" x="329" y="-12.5" font-family="Helvetica,sans-Serif" font-size="10.00">is_bound</text>
</a>
</g>
</g>
<!-- Node1&#45;&gt;Node3 -->
<g id="edge3_Node000001_Node000003" class="edge">
<title>Node1&#45;&gt;Node3</title>
<g id="a_edge3_Node000001_Node000003"><a xlink:title=" ">
<path fill="none" stroke="#63b8ff" d="M143.33,-15C190.17,-15 249.85,-15 288.48,-15"/>
<polygon fill="#63b8ff" stroke="#63b8ff" points="288.79,-18.5 298.79,-15 288.79,-11.5 288.79,-18.5"/>
</a>
</g>
</g>
<!-- Node2&#45;&gt;Node3 -->
<g id="edge2_Node000002_Node000003" class="edge">
<title>Node2&#45;&gt;Node3</title>
<g id="a_edge2_Node000002_Node000003"><a xlink:title=" ">
<path fill="none" stroke="#63b8ff" d="M263.29,-26.6C271.72,-25.09 280.56,-23.5 288.91,-22.01"/>
<polygon fill="#63b8ff" stroke="#63b8ff" points="289.57,-25.44 298.79,-20.24 288.33,-18.55 289.57,-25.44"/>
</a>
</g>
</g>
</g>
</svg>
