<?xml version="1.0" encoding="UTF-8" standalone="no"?>
<!DOCTYPE svg PUBLIC "-//W3C//DTD SVG 1.1//EN"
 "http://www.w3.org/Graphics/SVG/1.1/DTD/svg11.dtd">
<!-- Generated by graphviz version 2.43.0 (0)
 -->
<!-- Title: combine_bound_constr Pages: 1 -->
<svg width="302pt" height="64pt"
 viewBox="0.00 0.00 302.00 64.00" xmlns="http://www.w3.org/2000/svg" xmlns:xlink="http://www.w3.org/1999/xlink">
<g id="graph0" class="graph" transform="scale(1 1) rotate(0) translate(4 60)">
<title>combine_bound_constr</title>
<!-- Node1 -->
<g id="Node000001" class="node">
<title>Node1</title>
<g id="a_Node000001"><a xlink:title="For each constraint lbx(i)/ubx(i) with finite bounds, insert these bounds into new_lbg(i)/new_ubg(i),...">
<polygon fill="#999999" stroke="#666666" points="294,-37 165,-37 165,-18 294,-18 294,-37"/>
<text text-anchor="middle" x="229.5" y="-25" font-family="Helvetica,sans-Serif" font-size="10.00">combine_bound_constr</text>
</a>
</g>
</g>
<!-- Node2 -->
<g id="Node000002" class="node">
<title>Node2</title>
<g id="a_Node000002"><a xlink:href="structalpaqa_1_1LinConstrConverter.html#aee664472847384bb7ae16fe5f8596946" target="_top" xlink:title=" ">
<polygon fill="white" stroke="#666666" points="129,-56 0,-56 0,-37 129,-37 129,-56"/>
<text text-anchor="middle" x="64.5" y="-44" font-family="Helvetica,sans-Serif" font-size="10.00">combine_bound_constr</text>
</a>
</g>
</g>
<!-- Node1&#45;&gt;Node2 -->
<g id="edge1_Node000001_Node000002" class="edge">
<title>Node1&#45;&gt;Node2</title>
<g id="a_edge1_Node000001_Node000002"><a xlink:title=" ">
<path fill="none" stroke="#63b8ff" d="M154.59,-36.12C146.05,-37.11 137.39,-38.12 129,-39.1"/>
<polygon fill="#63b8ff" stroke="#63b8ff" points="155.02,-39.59 164.55,-34.95 154.21,-32.64 155.02,-39.59"/>
</a>
</g>
</g>
<!-- Node3 -->
<g id="Node000003" class="node">
<title>Node3</title>
<g id="a_Node000003"><a xlink:href="structalpaqa_1_1LinConstrConverter.html#a0937ec1cbdbf880aa3d76f785457fbc3" target="_top" xlink:title=" ">
<polygon fill="white" stroke="#666666" points="129,-19 0,-19 0,0 129,0 129,-19"/>
<text text-anchor="middle" x="64.5" y="-7" font-family="Helvetica,sans-Serif" font-size="10.00">combine_bound_constr</text>
</a>
</g>
</g>
<!-- Node1&#45;&gt;Node3 -->
<g id="edge2_Node000001_Node000003" class="edge">
<title>Node1&#45;&gt;Node3</title>
<g id="a_edge2_Node000001_Node000003"><a xlink:title=" ">
<path fill="none" stroke="#63b8ff" d="M154.59,-19.34C146.05,-18.39 137.39,-17.44 129,-16.51"/>
<polygon fill="#63b8ff" stroke="#63b8ff" points="154.22,-22.82 164.55,-20.44 154.99,-15.86 154.22,-22.82"/>
</a>
</g>
</g>
</g>
</svg>
