<?xml version="1.0" encoding="UTF-8" standalone="no"?>
<!DOCTYPE svg PUBLIC "-//W3C//DTD SVG 1.1//EN"
 "http://www.w3.org/Graphics/SVG/1.1/DTD/svg11.dtd">
<!-- Generated by graphviz version 2.43.0 (0)
 -->
<!-- Title: src/alpaqa/src/problem/type&#45;erased&#45;problem.cpp Pages: 1 -->
<!--zoomable 489 -->

<svg id="main" version="1.1" xmlns="http://www.w3.org/2000/svg" xmlns:xlink="http://www.w3.org/1999/xlink" xml:space="preserve" onload="init(evt)">
<style type="text/css"><![CDATA[
.node, .edge {opacity: 0.7;}
.node.selected, .edge.selected {opacity: 1;}
.edge:hover path { stroke: red; }
.edge:hover polygon { stroke: red; fill: red; }
]]></style>

<defs>
  <circle id="rim" cx="0" cy="0" r="7"/>
  <circle id="rim2" cx="0" cy="0" r="3.5"/>
  <g id="zoomPlus">
    <use xlink:href="#rim" fill="#404040"><set attributeName="fill" to="#808080" begin="zoomplus.mouseover" end="zoomplus.mouseout"/></use>
    <path d="M-4,0h8M0,-4v8" fill="none" stroke="white" stroke-width="1.5" pointer-events="none"/>
  </g>
  <g id="zoomMin">
    <use xlink:href="#rim" fill="#404040"><set attributeName="fill" to="#808080" begin="zoomminus.mouseover" end="zoomminus.mouseout"/></use>
    <path d="M-4,0h8" fill="none" stroke="white" stroke-width="1.5" pointer-events="none"/>
  </g>
  <g id="arrowUp" transform="translate(30 24)">
    <use xlink:href="#rim"/>
    <path pointer-events="none" fill="none" stroke="white" stroke-width="1.5" d="M0,-3.0v7 M-2.5,-0.5L0,-3.0L2.5,-0.5"/>
  </g>
  <g id="arrowRight" transform="rotate(90) translate(36 -43)">
    <use xlink:href="#rim"/>
    <path pointer-events="none" fill="none" stroke="white" stroke-width="1.5" d="M0,-3.0v7 M-2.5,-0.5L0,-3.0L2.5,-0.5"/>
  </g>
  <g id="arrowDown" transform="rotate(180) translate(-30 -48)">
    <use xlink:href="#rim"/>
    <path pointer-events="none" fill="none" stroke="white" stroke-width="1.5" d="M0,-3.0v7 M-2.5,-0.5L0,-3.0L2.5,-0.5"/>
  </g>
  <g id="arrowLeft" transform="rotate(270) translate(-36 17)">
    <use xlink:href="#rim"/>
    <path pointer-events="none" fill="none" stroke="white" stroke-width="1.5" d="M0,-3.0v7 M-2.5,-0.5L0,-3.0L2.5,-0.5"/>
  </g>
  <g id="resetDef">
    <use xlink:href="#rim2" fill="#404040"><set attributeName="fill" to="#808080" begin="reset.mouseover" end="reset.mouseout"/></use>
  </g>
</defs>
<script type="application/ecmascript">
var viewWidth = 2135;
var viewHeight = 489;
var sectionId = 'dynsection-0';
</script>
<script type="application/ecmascript" xlink:href="svg.min.js"/>
<svg id="graph" class="graph">
<g id="viewport">
<title>src/alpaqa/src/problem/type&#45;erased&#45;problem.cpp</title>
<!-- Node1 -->
<g id="Node000001" class="node">
<title>Node1</title>
<g id="a_Node000001"><a xlink:title=" ">
<polygon fill="#999999" stroke="#666666" points="1196,-481 1053,-481 1053,-451 1196,-451 1196,-481"/>
<text text-anchor="start" x="1061" y="-469" font-family="Helvetica,sans-Serif" font-size="10.00">src/alpaqa/src/problem</text>
<text text-anchor="middle" x="1124.5" y="-458" font-family="Helvetica,sans-Serif" font-size="10.00">/type&#45;erased&#45;problem.cpp</text>
</a>
</g>
</g>
<!-- Node2 -->
<g id="Node000002" class="node">
<title>Node2</title>
<g id="a_Node000002"><a xlink:href="type-erased-problem_8tpp.html" target="_top" xlink:title=" ">
<polygon fill="white" stroke="#666666" points="1190,-415 1059,-415 1059,-374 1190,-374 1190,-415"/>
<text text-anchor="start" x="1067" y="-403" font-family="Helvetica,sans-Serif" font-size="10.00">alpaqa/implementation</text>
<text text-anchor="start" x="1067" y="-392" font-family="Helvetica,sans-Serif" font-size="10.00">/problem/type&#45;erased</text>
<text text-anchor="middle" x="1124.5" y="-381" font-family="Helvetica,sans-Serif" font-size="10.00">&#45;problem.tpp</text>
</a>
</g>
</g>
<!-- Node1&#45;&gt;Node2 -->
<g id="edge1_Node000001_Node000002" class="edge">
<title>Node1&#45;&gt;Node2</title>
<g id="a_edge1_Node000001_Node000002"><a xlink:title=" ">
<path fill="none" stroke="#63b8ff" d="M1124.5,-450.94C1124.5,-443.52 1124.5,-434.14 1124.5,-425.2"/>
<polygon fill="#63b8ff" stroke="#63b8ff" points="1128,-425.07 1124.5,-415.07 1121,-425.07 1128,-425.07"/>
</a>
</g>
</g>
<!-- Node3 -->
<g id="Node000003" class="node">
<title>Node3</title>
<g id="a_Node000003"><a xlink:href="type-erased-problem_8hpp.html" target="_top" xlink:title=" ">
<polygon fill="white" stroke="#666666" points="1036,-338 917,-338 917,-308 1036,-308 1036,-338"/>
<text text-anchor="start" x="925" y="-326" font-family="Helvetica,sans-Serif" font-size="10.00">alpaqa/problem/type</text>
<text text-anchor="middle" x="976.5" y="-315" font-family="Helvetica,sans-Serif" font-size="10.00">&#45;erased&#45;problem.hpp</text>
</a>
</g>
</g>
<!-- Node2&#45;&gt;Node3 -->
<g id="edge2_Node000002_Node000003" class="edge">
<title>Node2&#45;&gt;Node3</title>
<g id="a_edge2_Node000002_Node000003"><a xlink:title=" ">
<path fill="none" stroke="#63b8ff" d="M1082.88,-373.96C1061.82,-364.07 1036.41,-352.13 1015.7,-342.41"/>
<polygon fill="#63b8ff" stroke="#63b8ff" points="1017.09,-339.2 1006.55,-338.11 1014.12,-345.53 1017.09,-339.2"/>
</a>
</g>
</g>
<!-- Node23 -->
<g id="Node000023" class="node">
<title>Node23</title>
<g id="a_Node000023"><a xlink:title=" ">
<polygon fill="#e0e0e0" stroke="#999999" points="984,-145.5 919,-145.5 919,-126.5 984,-126.5 984,-145.5"/>
<text text-anchor="middle" x="951.5" y="-133.5" font-family="Helvetica,sans-Serif" font-size="10.00">stdexcept</text>
</a>
</g>
</g>
<!-- Node2&#45;&gt;Node23 -->
<g id="edge65_Node000002_Node000023" class="edge">
<title>Node2&#45;&gt;Node23</title>
<g id="a_edge65_Node000002_Node000023"><a xlink:title=" ">
<path fill="none" stroke="#63b8ff" d="M1132.29,-373.94C1146.76,-334.08 1172.57,-242.55 1129.5,-187 1090.13,-136.23 1050.83,-170.13 989.5,-151 987.37,-150.34 985.19,-149.62 983,-148.88"/>
<polygon fill="#63b8ff" stroke="#63b8ff" points="984.07,-145.55 973.47,-145.52 981.74,-152.15 984.07,-145.55"/>
</a>
</g>
</g>
<!-- Node4 -->
<g id="Node000004" class="node">
<title>Node4</title>
<g id="a_Node000004"><a xlink:href="config_8hpp.html" target="_top" xlink:title=" ">
<polygon fill="white" stroke="#666666" points="402,-145.5 267,-145.5 267,-126.5 402,-126.5 402,-145.5"/>
<text text-anchor="middle" x="334.5" y="-133.5" font-family="Helvetica,sans-Serif" font-size="10.00">alpaqa/config/config.hpp</text>
</a>
</g>
</g>
<!-- Node3&#45;&gt;Node4 -->
<g id="edge3_Node000003_Node000004" class="edge">
<title>Node3&#45;&gt;Node4</title>
<g id="a_edge3_Node000003_Node000004"><a xlink:title=" ">
<path fill="none" stroke="#63b8ff" d="M916.94,-320.92C798.14,-318.03 536.15,-307.67 454.5,-272 400.03,-248.2 360.43,-185.62 343.54,-154.75"/>
<polygon fill="#63b8ff" stroke="#63b8ff" points="346.47,-152.79 338.7,-145.59 340.28,-156.07 346.47,-152.79"/>
</a>
</g>
</g>
<!-- Node9 -->
<g id="Node000009" class="node">
<title>Node9</title>
<g id="a_Node000009"><a xlink:title=" ">
<polygon fill="#e0e0e0" stroke="#999999" points="639,-79.5 570,-79.5 570,-60.5 639,-60.5 639,-79.5"/>
<text text-anchor="middle" x="604.5" y="-67.5" font-family="Helvetica,sans-Serif" font-size="10.00">type_traits</text>
</a>
</g>
</g>
<!-- Node3&#45;&gt;Node9 -->
<g id="edge63_Node000003_Node000009" class="edge">
<title>Node3&#45;&gt;Node9</title>
<g id="a_edge63_Node000003_Node000009"><a xlink:title=" ">
<path fill="none" stroke="#63b8ff" d="M916.97,-313.42C816.86,-297.63 621.84,-260.49 582.5,-206 556.88,-170.5 579.57,-116.12 594.28,-88.46"/>
<polygon fill="#63b8ff" stroke="#63b8ff" points="597.42,-90 599.23,-79.56 591.31,-86.6 597.42,-90"/>
</a>
</g>
</g>
<!-- Node11 -->
<g id="Node000011" class="node">
<title>Node11</title>
<g id="a_Node000011"><a xlink:href="export_8hpp.html" target="_top" xlink:title=" ">
<polygon fill="white" stroke="#666666" points="1303,-79.5 1198,-79.5 1198,-60.5 1303,-60.5 1303,-79.5"/>
<text text-anchor="middle" x="1250.5" y="-67.5" font-family="Helvetica,sans-Serif" font-size="10.00">alpaqa/export.hpp</text>
</a>
</g>
</g>
<!-- Node3&#45;&gt;Node11 -->
<g id="edge10_Node000003_Node000011" class="edge">
<title>Node3&#45;&gt;Node11</title>
<g id="a_edge10_Node000003_Node000011"><a xlink:title=" ">
<path fill="none" stroke="#63b8ff" d="M1032.79,-307.91C1056.82,-300.03 1084.18,-288.41 1105.5,-272 1173.14,-219.95 1223.01,-127.89 1242.04,-89.07"/>
<polygon fill="#63b8ff" stroke="#63b8ff" points="1245.41,-90.14 1246.58,-79.61 1239.1,-87.11 1245.41,-90.14"/>
</a>
</g>
</g>
<!-- Node13 -->
<g id="Node000013" class="node">
<title>Node13</title>
<g id="a_Node000013"><a xlink:href="box_8hpp.html" target="_top" xlink:title=" ">
<polygon fill="white" stroke="#666666" points="524,-206 389,-206 389,-187 524,-187 524,-206"/>
<text text-anchor="middle" x="456.5" y="-194" font-family="Helvetica,sans-Serif" font-size="10.00">alpaqa/problem/box.hpp</text>
</a>
</g>
</g>
<!-- Node3&#45;&gt;Node13 -->
<g id="edge12_Node000003_Node000013" class="edge">
<title>Node3&#45;&gt;Node13</title>
<g id="a_edge12_Node000003_Node000013"><a xlink:title=" ">
<path fill="none" stroke="#63b8ff" d="M916.53,-319.83C790.78,-314.73 508.35,-300.25 475.5,-272 459.56,-258.29 456.04,-233.25 455.69,-216.01"/>
<polygon fill="#63b8ff" stroke="#63b8ff" points="459.19,-216.05 455.83,-206.01 452.2,-215.96 459.19,-216.05"/>
</a>
</g>
</g>
<!-- Node17 -->
<g id="Node000017" class="node">
<title>Node17</title>
<g id="a_Node000017"><a xlink:href="sparsity_8hpp.html" target="_top" xlink:title=" ">
<polygon fill="white" stroke="#666666" points="746,-206 591,-206 591,-187 746,-187 746,-206"/>
<text text-anchor="middle" x="668.5" y="-194" font-family="Helvetica,sans-Serif" font-size="10.00">alpaqa/problem/sparsity.hpp</text>
</a>
</g>
</g>
<!-- Node3&#45;&gt;Node17 -->
<g id="edge20_Node000003_Node000017" class="edge">
<title>Node3&#45;&gt;Node17</title>
<g id="a_edge20_Node000003_Node000017"><a xlink:title=" ">
<path fill="none" stroke="#63b8ff" d="M941.77,-307.96C881.09,-283.43 756.76,-233.18 699.11,-209.87"/>
<polygon fill="#63b8ff" stroke="#63b8ff" points="700.38,-206.61 689.8,-206.11 697.76,-213.1 700.38,-206.61"/>
</a>
</g>
</g>
<!-- Node20 -->
<g id="Node000020" class="node">
<title>Node20</title>
<g id="a_Node000020"><a xlink:href="alloc-check_8hpp.html" target="_top" xlink:title=" ">
<polygon fill="white" stroke="#666666" points="274.5,-266.5 126.5,-266.5 126.5,-247.5 274.5,-247.5 274.5,-266.5"/>
<text text-anchor="middle" x="200.5" y="-254.5" font-family="Helvetica,sans-Serif" font-size="10.00">alpaqa/util/alloc&#45;check.hpp</text>
</a>
</g>
</g>
<!-- Node3&#45;&gt;Node20 -->
<g id="edge26_Node000003_Node000020" class="edge">
<title>Node3&#45;&gt;Node20</title>
<g id="a_edge26_Node000003_Node000020"><a xlink:title=" ">
<path fill="none" stroke="#63b8ff" d="M916.62,-317.89C802.89,-309.97 547.86,-291.61 333.5,-272 317.7,-270.55 300.87,-268.88 284.67,-267.21"/>
<polygon fill="#63b8ff" stroke="#63b8ff" points="284.99,-263.73 274.68,-266.17 284.26,-270.69 284.99,-263.73"/>
</a>
</g>
</g>
<!-- Node21 -->
<g id="Node000021" class="node">
<title>Node21</title>
<g id="a_Node000021"><a xlink:href="check-dim_8hpp.html" target="_top" xlink:title=" ">
<polygon fill="white" stroke="#666666" points="1102,-206 959,-206 959,-187 1102,-187 1102,-206"/>
<text text-anchor="middle" x="1030.5" y="-194" font-family="Helvetica,sans-Serif" font-size="10.00">alpaqa/util/check&#45;dim.hpp</text>
</a>
</g>
</g>
<!-- Node3&#45;&gt;Node21 -->
<g id="edge28_Node000003_Node000021" class="edge">
<title>Node3&#45;&gt;Node21</title>
<g id="a_edge28_Node000003_Node000021"><a xlink:title=" ">
<path fill="none" stroke="#63b8ff" d="M982.69,-307.72C992.58,-284.92 1011.92,-240.33 1022.73,-215.42"/>
<polygon fill="#63b8ff" stroke="#63b8ff" points="1026.01,-216.64 1026.78,-206.07 1019.59,-213.85 1026.01,-216.64"/>
</a>
</g>
</g>
<!-- Node3&#45;&gt;Node23 -->
<g id="edge62_Node000003_Node000023" class="edge">
<title>Node3&#45;&gt;Node23</title>
<g id="a_edge62_Node000003_Node000023"><a xlink:title=" ">
<path fill="none" stroke="#63b8ff" d="M1010.36,-307.94C1061.36,-284.74 1148.21,-236.11 1111.5,-187 1077.65,-141.72 1043.16,-168.78 989.5,-151 987.6,-150.37 985.65,-149.71 983.69,-149.02"/>
<polygon fill="#63b8ff" stroke="#63b8ff" points="984.51,-145.6 973.92,-145.54 982.16,-152.2 984.51,-145.6"/>
</a>
</g>
</g>
<!-- Node25 -->
<g id="Node000025" class="node">
<title>Node25</title>
<g id="a_Node000025"><a xlink:href="not-implemented_8hpp.html" target="_top" xlink:title=" ">
<polygon fill="white" stroke="#666666" points="941,-206 764,-206 764,-187 941,-187 941,-206"/>
<text text-anchor="middle" x="852.5" y="-194" font-family="Helvetica,sans-Serif" font-size="10.00">alpaqa/util/not&#45;implemented.hpp</text>
</a>
</g>
</g>
<!-- Node3&#45;&gt;Node25 -->
<g id="edge33_Node000003_Node000025" class="edge">
<title>Node3&#45;&gt;Node25</title>
<g id="a_edge33_Node000003_Node000025"><a xlink:title=" ">
<path fill="none" stroke="#63b8ff" d="M962.28,-307.72C938.96,-284.31 892.76,-237.92 868.4,-213.46"/>
<polygon fill="#63b8ff" stroke="#63b8ff" points="870.57,-210.69 861.04,-206.07 865.61,-215.62 870.57,-210.69"/>
</a>
</g>
</g>
<!-- Node26 -->
<g id="Node000026" class="node">
<title>Node26</title>
<g id="a_Node000026"><a xlink:href="required-method_8hpp.html" target="_top" xlink:title=" ">
<polygon fill="white" stroke="#666666" points="1566.5,-272 1454.5,-272 1454.5,-242 1566.5,-242 1566.5,-272"/>
<text text-anchor="start" x="1462.5" y="-260" font-family="Helvetica,sans-Serif" font-size="10.00">alpaqa/util/required</text>
<text text-anchor="middle" x="1510.5" y="-249" font-family="Helvetica,sans-Serif" font-size="10.00">&#45;method.hpp</text>
</a>
</g>
</g>
<!-- Node3&#45;&gt;Node26 -->
<g id="edge36_Node000003_Node000026" class="edge">
<title>Node3&#45;&gt;Node26</title>
<g id="a_edge36_Node000003_Node000026"><a xlink:title=" ">
<path fill="none" stroke="#63b8ff" d="M1036.2,-314.84C1136.82,-302.79 1339.41,-278.5 1444.26,-265.94"/>
<polygon fill="#63b8ff" stroke="#63b8ff" points="1444.89,-269.39 1454.4,-264.72 1444.06,-262.44 1444.89,-269.39"/>
</a>
</g>
</g>
<!-- Node27 -->
<g id="Node000027" class="node">
<title>Node27</title>
<g id="a_Node000027"><a xlink:href="type-erasure_8hpp.html" target="_top" xlink:title=" ">
<polygon fill="white" stroke="#666666" points="1588,-206 1433,-206 1433,-187 1588,-187 1588,-206"/>
<text text-anchor="middle" x="1510.5" y="-194" font-family="Helvetica,sans-Serif" font-size="10.00">alpaqa/util/type&#45;erasure.hpp</text>
</a>
</g>
</g>
<!-- Node3&#45;&gt;Node27 -->
<g id="edge60_Node000003_Node000027" class="edge">
<title>Node3&#45;&gt;Node27</title>
<g id="a_edge60_Node000003_Node000027"><a xlink:title=" ">
<path fill="none" stroke="#63b8ff" d="M1036.23,-313.81C1094.78,-305.27 1186.36,-290.54 1264.5,-272 1341.15,-253.81 1429.08,-225.28 1476.27,-209.32"/>
<polygon fill="#63b8ff" stroke="#63b8ff" points="1477.64,-212.55 1485.98,-206.02 1475.39,-205.92 1477.64,-212.55"/>
</a>
</g>
</g>
<!-- Node38 -->
<g id="Node000038" class="node">
<title>Node38</title>
<g id="a_Node000038"><a xlink:title=" ">
<polygon fill="#e0e0e0" stroke="#999999" points="2127,-145.5 2082,-145.5 2082,-126.5 2127,-126.5 2127,-145.5"/>
<text text-anchor="middle" x="2104.5" y="-133.5" font-family="Helvetica,sans-Serif" font-size="10.00">utility</text>
</a>
</g>
</g>
<!-- Node3&#45;&gt;Node38 -->
<g id="edge64_Node000003_Node000038" class="edge">
<title>Node3&#45;&gt;Node38</title>
<g id="a_edge64_Node000003_Node000038"><a xlink:title=" ">
<path fill="none" stroke="#63b8ff" d="M1036.39,-320.07C1144.63,-315.91 1379.78,-303.75 1575.5,-272 1800.33,-235.53 1858.11,-225.08 2073.5,-151 2074.9,-150.52 2076.32,-150 2077.74,-149.45"/>
<polygon fill="#63b8ff" stroke="#63b8ff" points="2079.15,-152.66 2087.02,-145.57 2076.45,-146.2 2079.15,-152.66"/>
</a>
</g>
</g>
<!-- Node39 -->
<g id="Node000039" class="node">
<title>Node39</title>
<g id="a_Node000039"><a xlink:title=" ">
<polygon fill="#e0e0e0" stroke="#999999" points="534.5,-266.5 484.5,-266.5 484.5,-247.5 534.5,-247.5 534.5,-266.5"/>
<text text-anchor="middle" x="509.5" y="-254.5" font-family="Helvetica,sans-Serif" font-size="10.00">chrono</text>
</a>
</g>
</g>
<!-- Node3&#45;&gt;Node39 -->
<g id="edge61_Node000003_Node000039" class="edge">
<title>Node3&#45;&gt;Node39</title>
<g id="a_edge61_Node000003_Node000039"><a xlink:title=" ">
<path fill="none" stroke="#63b8ff" d="M916.92,-319.34C833.54,-314.64 677.78,-302.33 548.5,-272 545.83,-271.37 543.1,-270.63 540.37,-269.8"/>
<polygon fill="#63b8ff" stroke="#63b8ff" points="541.28,-266.42 530.69,-266.6 539.08,-273.06 541.28,-266.42"/>
</a>
</g>
</g>
<!-- Node5 -->
<g id="Node000005" class="node">
<title>Node5</title>
<g id="a_Node000005"><a xlink:href="quadmath-print_8hpp.html" target="_top" xlink:title=" ">
<polygon fill="white" stroke="#666666" points="271,-85 150,-85 150,-55 271,-55 271,-85"/>
<text text-anchor="start" x="158" y="-73" font-family="Helvetica,sans-Serif" font-size="10.00">alpaqa/util/quadmath</text>
<text text-anchor="middle" x="210.5" y="-62" font-family="Helvetica,sans-Serif" font-size="10.00">/quadmath&#45;print.hpp</text>
</a>
</g>
</g>
<!-- Node4&#45;&gt;Node5 -->
<g id="edge4_Node000004_Node000005" class="edge">
<title>Node4&#45;&gt;Node5</title>
<g id="a_edge4_Node000004_Node000005"><a xlink:title=" ">
<path fill="none" stroke="#63b8ff" d="M317.78,-126.37C299.69,-117.03 270.28,-101.86 246.83,-89.75"/>
<polygon fill="#63b8ff" stroke="#63b8ff" points="248.34,-86.59 237.85,-85.12 245.13,-92.81 248.34,-86.59"/>
</a>
</g>
</g>
<!-- Node6 -->
<g id="Node000006" class="node">
<title>Node6</title>
<g id="a_Node000006"><a xlink:href="quadmath_8hpp.html" target="_top" xlink:title=" ">
<polygon fill="white" stroke="#666666" points="487,-85 366,-85 366,-55 487,-55 487,-85"/>
<text text-anchor="start" x="374" y="-73" font-family="Helvetica,sans-Serif" font-size="10.00">alpaqa/util/quadmath</text>
<text text-anchor="middle" x="426.5" y="-62" font-family="Helvetica,sans-Serif" font-size="10.00">/quadmath.hpp</text>
</a>
</g>
</g>
<!-- Node4&#45;&gt;Node6 -->
<g id="edge5_Node000004_Node000006" class="edge">
<title>Node4&#45;&gt;Node6</title>
<g id="a_edge5_Node000004_Node000006"><a xlink:title=" ">
<path fill="none" stroke="#63b8ff" d="M346.91,-126.37C359.86,-117.36 380.61,-102.92 397.68,-91.05"/>
<polygon fill="#63b8ff" stroke="#63b8ff" points="400,-93.7 406.21,-85.12 396,-87.95 400,-93.7"/>
</a>
</g>
</g>
<!-- Node7 -->
<g id="Node000007" class="node">
<title>Node7</title>
<g id="a_Node000007"><a xlink:title=" ">
<polygon fill="#e0e0e0" stroke="#999999" points="348,-79.5 289,-79.5 289,-60.5 348,-60.5 348,-79.5"/>
<text text-anchor="middle" x="318.5" y="-67.5" font-family="Helvetica,sans-Serif" font-size="10.00">complex</text>
</a>
</g>
</g>
<!-- Node4&#45;&gt;Node7 -->
<g id="edge6_Node000004_Node000007" class="edge">
<title>Node4&#45;&gt;Node7</title>
<g id="a_edge6_Node000004_Node000007"><a xlink:title=" ">
<path fill="none" stroke="#63b8ff" d="M332.34,-126.37C330.02,-117.07 326.24,-101.98 323.22,-89.9"/>
<polygon fill="#63b8ff" stroke="#63b8ff" points="326.55,-88.76 320.73,-79.91 319.76,-90.46 326.55,-88.76"/>
</a>
</g>
</g>
<!-- Node8 -->
<g id="Node000008" class="node">
<title>Node8</title>
<g id="a_Node000008"><a xlink:title=" ">
<polygon fill="#e0e0e0" stroke="#999999" points="131.5,-79.5 87.5,-79.5 87.5,-60.5 131.5,-60.5 131.5,-79.5"/>
<text text-anchor="middle" x="109.5" y="-67.5" font-family="Helvetica,sans-Serif" font-size="10.00">limits</text>
</a>
</g>
</g>
<!-- Node4&#45;&gt;Node8 -->
<g id="edge7_Node000004_Node000008" class="edge">
<title>Node4&#45;&gt;Node8</title>
<g id="a_edge7_Node000004_Node000008"><a xlink:title=" ">
<path fill="none" stroke="#63b8ff" d="M293.01,-126.48C253.31,-117.82 192.01,-103.12 140.5,-85 139.11,-84.51 137.69,-83.98 136.27,-83.43"/>
<polygon fill="#63b8ff" stroke="#63b8ff" points="137.57,-80.18 126.99,-79.53 134.85,-86.63 137.57,-80.18"/>
</a>
</g>
</g>
<!-- Node4&#45;&gt;Node9 -->
<g id="edge8_Node000004_Node000009" class="edge">
<title>Node4&#45;&gt;Node9</title>
<g id="a_edge8_Node000004_Node000009"><a xlink:title=" ">
<path fill="none" stroke="#63b8ff" d="M379.61,-126.42C425.65,-117.35 499.01,-102.01 561.5,-85 564.27,-84.25 567.13,-83.42 569.99,-82.56"/>
<polygon fill="#63b8ff" stroke="#63b8ff" points="571.11,-85.88 579.61,-79.56 569.02,-79.2 571.11,-85.88"/>
</a>
</g>
</g>
<!-- Node10 -->
<g id="Node000010" class="node">
<title>Node10</title>
<g id="a_Node000010"><a xlink:title=" ">
<polygon fill="#e0e0e0" stroke="#999999" points="69,-79.5 0,-79.5 0,-60.5 69,-60.5 69,-79.5"/>
<text text-anchor="middle" x="34.5" y="-67.5" font-family="Helvetica,sans-Serif" font-size="10.00">Eigen/Core</text>
</a>
</g>
</g>
<!-- Node4&#45;&gt;Node10 -->
<g id="edge9_Node000004_Node000010" class="edge">
<title>Node4&#45;&gt;Node10</title>
<g id="a_edge9_Node000004_Node000010"><a xlink:title=" ">
<path fill="none" stroke="#63b8ff" d="M281.15,-126.42C229.09,-117.62 147.82,-102.73 78.5,-85 75.66,-84.27 72.73,-83.47 69.8,-82.62"/>
<polygon fill="#63b8ff" stroke="#63b8ff" points="70.53,-79.19 59.95,-79.65 68.51,-85.89 70.53,-79.19"/>
</a>
</g>
</g>
<!-- Node12 -->
<g id="Node000012" class="node">
<title>Node12</title>
<g id="a_Node000012"><a xlink:title=" ">
<polygon fill="#e0e0e0" stroke="#999999" points="1036,-19 943,-19 943,0 1036,0 1036,-19"/>
<text text-anchor="middle" x="989.5" y="-7" font-family="Helvetica,sans-Serif" font-size="10.00">alpaqa/export.h</text>
</a>
</g>
</g>
<!-- Node11&#45;&gt;Node12 -->
<g id="edge11_Node000011_Node000012" class="edge">
<title>Node11&#45;&gt;Node12</title>
<g id="a_edge11_Node000011_Node000012"><a xlink:title=" ">
<path fill="none" stroke="#63b8ff" d="M1212.55,-60.49C1166.25,-50.12 1087.95,-32.57 1037.51,-21.26"/>
<polygon fill="#63b8ff" stroke="#63b8ff" points="1038.02,-17.79 1027.5,-19.02 1036.49,-24.62 1038.02,-17.79"/>
</a>
</g>
</g>
<!-- Node13&#45;&gt;Node4 -->
<g id="edge13_Node000013_Node000004" class="edge">
<title>Node13&#45;&gt;Node4</title>
<g id="a_edge13_Node000013_Node000004"><a xlink:title=" ">
<path fill="none" stroke="#63b8ff" d="M438.76,-186.99C418.43,-177.25 384.89,-161.16 361.36,-149.88"/>
<polygon fill="#63b8ff" stroke="#63b8ff" points="362.79,-146.68 352.26,-145.52 359.76,-153 362.79,-146.68"/>
</a>
</g>
</g>
<!-- Node14 -->
<g id="Node000014" class="node">
<title>Node14</title>
<g id="a_Node000014"><a xlink:href="float_8hpp.html" target="_top" xlink:title=" ">
<polygon fill="white" stroke="#666666" points="534.5,-145.5 420.5,-145.5 420.5,-126.5 534.5,-126.5 534.5,-145.5"/>
<text text-anchor="middle" x="477.5" y="-133.5" font-family="Helvetica,sans-Serif" font-size="10.00">alpaqa/util/float.hpp</text>
</a>
</g>
</g>
<!-- Node13&#45;&gt;Node14 -->
<g id="edge14_Node000013_Node000014" class="edge">
<title>Node13&#45;&gt;Node14</title>
<g id="a_edge14_Node000013_Node000014"><a xlink:title=" ">
<path fill="none" stroke="#63b8ff" d="M459.6,-186.87C462.58,-178.57 467.17,-165.78 470.96,-155.22"/>
<polygon fill="#63b8ff" stroke="#63b8ff" points="474.3,-156.26 474.39,-145.67 467.72,-153.9 474.3,-156.26"/>
</a>
</g>
</g>
<!-- Node14&#45;&gt;Node6 -->
<g id="edge15_Node000014_Node000006" class="edge">
<title>Node14&#45;&gt;Node6</title>
<g id="a_edge15_Node000014_Node000006"><a xlink:title=" ">
<path fill="none" stroke="#63b8ff" d="M470.62,-126.37C463.88,-117.91 453.33,-104.67 444.23,-93.25"/>
<polygon fill="#63b8ff" stroke="#63b8ff" points="446.91,-91 437.94,-85.36 441.44,-95.36 446.91,-91"/>
</a>
</g>
</g>
<!-- Node14&#45;&gt;Node7 -->
<g id="edge17_Node000014_Node000007" class="edge">
<title>Node14&#45;&gt;Node7</title>
<g id="a_edge17_Node000014_Node000007"><a xlink:title=" ">
<path fill="none" stroke="#63b8ff" d="M456.06,-126.37C428.6,-115.32 380.82,-96.08 349.43,-83.45"/>
<polygon fill="#63b8ff" stroke="#63b8ff" points="350.44,-80.08 339.86,-79.6 347.83,-86.58 350.44,-80.08"/>
</a>
</g>
</g>
<!-- Node14&#45;&gt;Node9 -->
<g id="edge19_Node000014_Node000009" class="edge">
<title>Node14&#45;&gt;Node9</title>
<g id="a_edge19_Node000014_Node000009"><a xlink:title=" ">
<path fill="none" stroke="#63b8ff" d="M494.63,-126.37C516.12,-115.54 553.2,-96.85 578.27,-84.22"/>
<polygon fill="#63b8ff" stroke="#63b8ff" points="579.88,-87.32 587.24,-79.7 576.73,-81.07 579.88,-87.32"/>
</a>
</g>
</g>
<!-- Node15 -->
<g id="Node000015" class="node">
<title>Node15</title>
<g id="a_Node000015"><a xlink:title=" ">
<polygon fill="#e0e0e0" stroke="#999999" points="552,-79.5 505,-79.5 505,-60.5 552,-60.5 552,-79.5"/>
<text text-anchor="middle" x="528.5" y="-67.5" font-family="Helvetica,sans-Serif" font-size="10.00">cmath</text>
</a>
</g>
</g>
<!-- Node14&#45;&gt;Node15 -->
<g id="edge16_Node000014_Node000015" class="edge">
<title>Node14&#45;&gt;Node15</title>
<g id="a_edge16_Node000014_Node000015"><a xlink:title=" ">
<path fill="none" stroke="#63b8ff" d="M484.38,-126.37C492.17,-116.59 505.05,-100.42 514.89,-88.08"/>
<polygon fill="#63b8ff" stroke="#63b8ff" points="517.91,-89.91 521.4,-79.91 512.43,-85.54 517.91,-89.91"/>
</a>
</g>
</g>
<!-- Node16 -->
<g id="Node000016" class="node">
<title>Node16</title>
<g id="a_Node000016"><a xlink:title=" ">
<polygon fill="#e0e0e0" stroke="#999999" points="717.5,-79.5 657.5,-79.5 657.5,-60.5 717.5,-60.5 717.5,-79.5"/>
<text text-anchor="middle" x="687.5" y="-67.5" font-family="Helvetica,sans-Serif" font-size="10.00">concepts</text>
</a>
</g>
</g>
<!-- Node14&#45;&gt;Node16 -->
<g id="edge18_Node000014_Node000016" class="edge">
<title>Node14&#45;&gt;Node16</title>
<g id="a_edge18_Node000014_Node000016"><a xlink:title=" ">
<path fill="none" stroke="#63b8ff" d="M508.88,-126.44C543.31,-116.9 600.12,-100.74 648.5,-85 650.61,-84.31 652.78,-83.59 654.97,-82.84"/>
<polygon fill="#63b8ff" stroke="#63b8ff" points="656.19,-86.12 664.48,-79.52 653.89,-79.51 656.19,-86.12"/>
</a>
</g>
</g>
<!-- Node17&#45;&gt;Node4 -->
<g id="edge21_Node000017_Node000004" class="edge">
<title>Node17&#45;&gt;Node4</title>
<g id="a_edge21_Node000017_Node000004"><a xlink:title=" ">
<path fill="none" stroke="#63b8ff" d="M618.25,-186.93C566.43,-178.06 483.28,-163.74 411.5,-151 404.85,-149.82 397.88,-148.57 390.96,-147.32"/>
<polygon fill="#63b8ff" stroke="#63b8ff" points="391.37,-143.84 380.91,-145.5 390.12,-150.73 391.37,-143.84"/>
</a>
</g>
</g>
<!-- Node17&#45;&gt;Node11 -->
<g id="edge22_Node000017_Node000011" class="edge">
<title>Node17&#45;&gt;Node11</title>
<g id="a_edge22_Node000017_Node000011"><a xlink:title=" ">
<path fill="none" stroke="#63b8ff" d="M676.53,-186.64C691.95,-170.31 727.52,-135.82 765.5,-121 933.44,-55.49 990.75,-108.37 1169.5,-85 1177.84,-83.91 1186.63,-82.58 1195.23,-81.18"/>
<polygon fill="#63b8ff" stroke="#63b8ff" points="1195.91,-84.61 1205.19,-79.51 1194.75,-77.71 1195.91,-84.61"/>
</a>
</g>
</g>
<!-- Node17&#45;&gt;Node16 -->
<g id="edge24_Node000017_Node000016" class="edge">
<title>Node17&#45;&gt;Node16</title>
<g id="a_edge24_Node000017_Node000016"><a xlink:title=" ">
<path fill="none" stroke="#63b8ff" d="M669.81,-186.94C672.84,-167.04 680.44,-117.26 684.62,-89.85"/>
<polygon fill="#63b8ff" stroke="#63b8ff" points="688.14,-90.03 686.18,-79.62 681.22,-88.97 688.14,-90.03"/>
</a>
</g>
</g>
<!-- Node18 -->
<g id="Node000018" class="node">
<title>Node18</title>
<g id="a_Node000018"><a xlink:title=" ">
<polygon fill="#e0e0e0" stroke="#999999" points="826.5,-145.5 774.5,-145.5 774.5,-126.5 826.5,-126.5 826.5,-145.5"/>
<text text-anchor="middle" x="800.5" y="-133.5" font-family="Helvetica,sans-Serif" font-size="10.00">cassert</text>
</a>
</g>
</g>
<!-- Node17&#45;&gt;Node18 -->
<g id="edge23_Node000017_Node000018" class="edge">
<title>Node17&#45;&gt;Node18</title>
<g id="a_edge23_Node000017_Node000018"><a xlink:title=" ">
<path fill="none" stroke="#63b8ff" d="M687.69,-186.99C709.89,-177.16 746.62,-160.88 772.12,-149.58"/>
<polygon fill="#63b8ff" stroke="#63b8ff" points="773.56,-152.77 781.28,-145.52 770.72,-146.37 773.56,-152.77"/>
</a>
</g>
</g>
<!-- Node19 -->
<g id="Node000019" class="node">
<title>Node19</title>
<g id="a_Node000019"><a xlink:title=" ">
<polygon fill="#e0e0e0" stroke="#999999" points="642,-145.5 591,-145.5 591,-126.5 642,-126.5 642,-145.5"/>
<text text-anchor="middle" x="616.5" y="-133.5" font-family="Helvetica,sans-Serif" font-size="10.00">variant</text>
</a>
</g>
</g>
<!-- Node17&#45;&gt;Node19 -->
<g id="edge25_Node000017_Node000019" class="edge">
<title>Node17&#45;&gt;Node19</title>
<g id="a_edge25_Node000017_Node000019"><a xlink:title=" ">
<path fill="none" stroke="#63b8ff" d="M660.83,-186.87C652.99,-178.05 640.64,-164.16 630.96,-153.27"/>
<polygon fill="#63b8ff" stroke="#63b8ff" points="633.46,-150.82 624.2,-145.67 628.23,-155.47 633.46,-150.82"/>
</a>
</g>
</g>
<!-- Node20&#45;&gt;Node10 -->
<g id="edge27_Node000020_Node000010" class="edge">
<title>Node20&#45;&gt;Node10</title>
<g id="a_edge27_Node000020_Node000010"><a xlink:title=" ">
<path fill="none" stroke="#63b8ff" d="M192.49,-247.08C166.36,-217.95 83.3,-125.38 49.26,-87.45"/>
<polygon fill="#63b8ff" stroke="#63b8ff" points="51.71,-84.94 42.43,-79.83 46.5,-89.61 51.71,-84.94"/>
</a>
</g>
</g>
<!-- Node21&#45;&gt;Node4 -->
<g id="edge29_Node000021_Node000004" class="edge">
<title>Node21&#45;&gt;Node4</title>
<g id="a_edge29_Node000021_Node000004"><a xlink:title=" ">
<path fill="none" stroke="#63b8ff" d="M958.98,-187.76C956.12,-187.5 953.28,-187.24 950.5,-187 711.3,-166.31 649.77,-180.52 411.5,-151 403.45,-150 394.96,-148.71 386.68,-147.31"/>
<polygon fill="#63b8ff" stroke="#63b8ff" points="387.18,-143.84 376.73,-145.57 385.98,-150.74 387.18,-143.84"/>
</a>
</g>
</g>
<!-- Node22 -->
<g id="Node000022" class="node">
<title>Node22</title>
<g id="a_Node000022"><a xlink:title=" ">
<polygon fill="#e0e0e0" stroke="#999999" points="900.5,-145.5 844.5,-145.5 844.5,-126.5 900.5,-126.5 900.5,-145.5"/>
<text text-anchor="middle" x="872.5" y="-133.5" font-family="Helvetica,sans-Serif" font-size="10.00">optional</text>
</a>
</g>
</g>
<!-- Node21&#45;&gt;Node22 -->
<g id="edge30_Node000021_Node000022" class="edge">
<title>Node21&#45;&gt;Node22</title>
<g id="a_edge30_Node000021_Node000022"><a xlink:title=" ">
<path fill="none" stroke="#63b8ff" d="M1007.53,-186.99C980.61,-177.03 935.83,-160.45 905.27,-149.13"/>
<polygon fill="#63b8ff" stroke="#63b8ff" points="906.1,-145.71 895.5,-145.52 903.66,-152.27 906.1,-145.71"/>
</a>
</g>
</g>
<!-- Node21&#45;&gt;Node23 -->
<g id="edge31_Node000021_Node000023" class="edge">
<title>Node21&#45;&gt;Node23</title>
<g id="a_edge31_Node000021_Node000023"><a xlink:title=" ">
<path fill="none" stroke="#63b8ff" d="M1018.84,-186.87C1006.36,-177.62 986.32,-162.78 971.34,-151.69"/>
<polygon fill="#63b8ff" stroke="#63b8ff" points="973.32,-148.81 963.2,-145.67 969.16,-154.43 973.32,-148.81"/>
</a>
</g>
</g>
<!-- Node24 -->
<g id="Node000024" class="node">
<title>Node24</title>
<g id="a_Node000024"><a xlink:title=" ">
<polygon fill="#e0e0e0" stroke="#999999" points="1602.5,-79.5 1558.5,-79.5 1558.5,-60.5 1602.5,-60.5 1602.5,-79.5"/>
<text text-anchor="middle" x="1580.5" y="-67.5" font-family="Helvetica,sans-Serif" font-size="10.00">string</text>
</a>
</g>
</g>
<!-- Node21&#45;&gt;Node24 -->
<g id="edge32_Node000021_Node000024" class="edge">
<title>Node21&#45;&gt;Node24</title>
<g id="a_edge32_Node000021_Node000024"><a xlink:title=" ">
<path fill="none" stroke="#63b8ff" d="M1061.85,-186.95C1129.33,-168.56 1284.22,-126.48 1308.5,-121 1394.42,-101.62 1496.88,-84.34 1548.05,-76.1"/>
<polygon fill="#63b8ff" stroke="#63b8ff" points="1548.84,-79.52 1558.17,-74.48 1547.74,-72.61 1548.84,-79.52"/>
</a>
</g>
</g>
<!-- Node25&#45;&gt;Node12 -->
<g id="edge34_Node000025_Node000012" class="edge">
<title>Node25&#45;&gt;Node12</title>
<g id="a_edge34_Node000025_Node000012"><a xlink:title=" ">
<path fill="none" stroke="#63b8ff" d="M817.06,-186.99C798.24,-180.48 776.74,-169.38 765.5,-151 758.54,-139.63 758.46,-132.32 765.5,-121 801.85,-62.53 879.27,-34.09 932.84,-20.91"/>
<polygon fill="#63b8ff" stroke="#63b8ff" points="933.95,-24.24 942.88,-18.55 932.34,-17.43 933.95,-24.24"/>
</a>
</g>
</g>
<!-- Node25&#45;&gt;Node23 -->
<g id="edge35_Node000025_Node000023" class="edge">
<title>Node25&#45;&gt;Node23</title>
<g id="a_edge35_Node000025_Node000023"><a xlink:title=" ">
<path fill="none" stroke="#63b8ff" d="M867.11,-186.87C883.19,-177.36 909.28,-161.95 928.2,-150.77"/>
<polygon fill="#63b8ff" stroke="#63b8ff" points="930,-153.77 936.83,-145.67 926.44,-147.74 930,-153.77"/>
</a>
</g>
</g>
<!-- Node26&#45;&gt;Node27 -->
<g id="edge37_Node000026_Node000027" class="edge">
<title>Node26&#45;&gt;Node27</title>
<g id="a_edge37_Node000026_Node000027"><a xlink:title=" ">
<path fill="none" stroke="#63b8ff" d="M1510.5,-241.84C1510.5,-234.21 1510.5,-224.7 1510.5,-216.45"/>
<polygon fill="#63b8ff" stroke="#63b8ff" points="1514,-216.27 1510.5,-206.27 1507,-216.27 1514,-216.27"/>
</a>
</g>
</g>
<!-- Node36 -->
<g id="Node000036" class="node">
<title>Node36</title>
<g id="a_Node000036"><a xlink:title=" ">
<polygon fill="#e0e0e0" stroke="#999999" points="2064,-145.5 1999,-145.5 1999,-126.5 2064,-126.5 2064,-145.5"/>
<text text-anchor="middle" x="2031.5" y="-133.5" font-family="Helvetica,sans-Serif" font-size="10.00">functional</text>
</a>
</g>
</g>
<!-- Node26&#45;&gt;Node36 -->
<g id="edge59_Node000026_Node000036" class="edge">
<title>Node26&#45;&gt;Node36</title>
<g id="a_edge59_Node000026_Node000036"><a xlink:title=" ">
<path fill="none" stroke="#63b8ff" d="M1566.81,-245.84C1657,-229.08 1839.11,-193.26 1990.5,-151 1992.97,-150.31 1995.51,-149.56 1998.06,-148.76"/>
<polygon fill="#63b8ff" stroke="#63b8ff" points="1999.36,-152.02 2007.8,-145.61 1997.2,-145.36 1999.36,-152.02"/>
</a>
</g>
</g>
<!-- Node27&#45;&gt;Node9 -->
<g id="edge56_Node000027_Node000009" class="edge">
<title>Node27&#45;&gt;Node9</title>
<g id="a_edge56_Node000027_Node000009"><a xlink:title=" ">
<path fill="none" stroke="#63b8ff" d="M1432.95,-190.65C1307.1,-182.42 1068.77,-165.24 1032.5,-151 1012.15,-143.01 1013.81,-129.11 993.5,-121 850.32,-63.84 799.41,-116.54 648.5,-85 645.1,-84.29 641.59,-83.42 638.11,-82.46"/>
<polygon fill="#63b8ff" stroke="#63b8ff" points="639.05,-79.09 628.47,-79.6 637.06,-85.8 639.05,-79.09"/>
</a>
</g>
</g>
<!-- Node27&#45;&gt;Node11 -->
<g id="edge38_Node000027_Node000011" class="edge">
<title>Node27&#45;&gt;Node11</title>
<g id="a_edge38_Node000027_Node000011"><a xlink:title=" ">
<path fill="none" stroke="#63b8ff" d="M1432.52,-191.43C1392.74,-186.25 1345.14,-175.02 1308.5,-151 1285.01,-135.61 1267.85,-107.19 1258.52,-88.7"/>
<polygon fill="#63b8ff" stroke="#63b8ff" points="1261.64,-87.1 1254.16,-79.59 1255.33,-90.12 1261.64,-87.1"/>
</a>
</g>
</g>
<!-- Node27&#45;&gt;Node18 -->
<g id="edge49_Node000027_Node000018" class="edge">
<title>Node27&#45;&gt;Node18</title>
<g id="a_edge49_Node000027_Node000018"><a xlink:title=" ">
<path fill="none" stroke="#63b8ff" d="M1432.81,-193.44C1280.36,-188.9 947.17,-176.34 835.5,-151 833.13,-150.46 830.71,-149.79 828.31,-149.02"/>
<polygon fill="#63b8ff" stroke="#63b8ff" points="829.27,-145.65 818.68,-145.53 826.89,-152.23 829.27,-145.65"/>
</a>
</g>
</g>
<!-- Node27&#45;&gt;Node23 -->
<g id="edge55_Node000027_Node000023" class="edge">
<title>Node27&#45;&gt;Node23</title>
<g id="a_edge55_Node000027_Node000023"><a xlink:title=" ">
<path fill="none" stroke="#63b8ff" d="M1432.91,-190.69C1310.85,-182.8 1079.58,-166.43 998.5,-151 994.57,-150.25 990.49,-149.31 986.46,-148.26"/>
<polygon fill="#63b8ff" stroke="#63b8ff" points="987.21,-144.83 976.64,-145.51 985.32,-151.58 987.21,-144.83"/>
</a>
</g>
</g>
<!-- Node28 -->
<g id="Node000028" class="node">
<title>Node28</title>
<g id="a_Node000028"><a xlink:href="demangled-typename_8hpp.html" target="_top" xlink:title=" ">
<polygon fill="white" stroke="#666666" points="1859.5,-151 1733.5,-151 1733.5,-121 1859.5,-121 1859.5,-151"/>
<text text-anchor="start" x="1741.5" y="-139" font-family="Helvetica,sans-Serif" font-size="10.00">alpaqa/util/demangled</text>
<text text-anchor="middle" x="1796.5" y="-128" font-family="Helvetica,sans-Serif" font-size="10.00">&#45;typename.hpp</text>
</a>
</g>
</g>
<!-- Node27&#45;&gt;Node28 -->
<g id="edge39_Node000027_Node000028" class="edge">
<title>Node27&#45;&gt;Node28</title>
<g id="a_edge39_Node000027_Node000028"><a xlink:title=" ">
<path fill="none" stroke="#63b8ff" d="M1552.09,-186.99C1596.93,-177.82 1669.2,-163.04 1723.54,-151.92"/>
<polygon fill="#63b8ff" stroke="#63b8ff" points="1724.38,-155.32 1733.47,-149.89 1722.97,-148.47 1724.38,-155.32"/>
</a>
</g>
</g>
<!-- Node29 -->
<g id="Node000029" class="node">
<title>Node29</title>
<g id="a_Node000029"><a xlink:title=" ">
<polygon fill="#e0e0e0" stroke="#999999" points="1870,-79.5 1813,-79.5 1813,-60.5 1870,-60.5 1870,-79.5"/>
<text text-anchor="middle" x="1841.5" y="-67.5" font-family="Helvetica,sans-Serif" font-size="10.00">typeinfo</text>
</a>
</g>
</g>
<!-- Node27&#45;&gt;Node29 -->
<g id="edge57_Node000027_Node000029" class="edge">
<title>Node27&#45;&gt;Node29</title>
<g id="a_edge57_Node000027_Node000029"><a xlink:title=" ">
<path fill="none" stroke="#63b8ff" d="M1588.19,-191.23C1687.89,-184.94 1850.26,-171.65 1868.5,-151 1884.37,-133.04 1868.95,-105.39 1855.74,-87.75"/>
<polygon fill="#63b8ff" stroke="#63b8ff" points="1858.18,-85.19 1849.21,-79.55 1852.7,-89.55 1858.18,-85.19"/>
</a>
</g>
</g>
<!-- Node30 -->
<g id="Node000030" class="node">
<title>Node30</title>
<g id="a_Node000030"><a xlink:href="noop-delete_8hpp.html" target="_top" xlink:title=" ">
<polygon fill="white" stroke="#666666" points="1523,-145.5 1372,-145.5 1372,-126.5 1523,-126.5 1523,-145.5"/>
<text text-anchor="middle" x="1447.5" y="-133.5" font-family="Helvetica,sans-Serif" font-size="10.00">alpaqa/util/noop&#45;delete.hpp</text>
</a>
</g>
</g>
<!-- Node27&#45;&gt;Node30 -->
<g id="edge43_Node000027_Node000030" class="edge">
<title>Node27&#45;&gt;Node30</title>
<g id="a_edge43_Node000027_Node000030"><a xlink:title=" ">
<path fill="none" stroke="#63b8ff" d="M1501.2,-186.87C1491.53,-177.88 1476.16,-163.61 1464.34,-152.64"/>
<polygon fill="#63b8ff" stroke="#63b8ff" points="1466.54,-149.91 1456.83,-145.67 1461.78,-155.04 1466.54,-149.91"/>
</a>
</g>
</g>
<!-- Node31 -->
<g id="Node000031" class="node">
<title>Node31</title>
<g id="a_Node000031"><a xlink:href="type-traits_8hpp.html" target="_top" xlink:title=" ">
<polygon fill="white" stroke="#666666" points="1184,-145.5 1041,-145.5 1041,-126.5 1184,-126.5 1184,-145.5"/>
<text text-anchor="middle" x="1112.5" y="-133.5" font-family="Helvetica,sans-Serif" font-size="10.00">alpaqa/util/type&#45;traits.hpp</text>
</a>
</g>
</g>
<!-- Node27&#45;&gt;Node31 -->
<g id="edge44_Node000027_Node000031" class="edge">
<title>Node27&#45;&gt;Node31</title>
<g id="a_edge44_Node000027_Node000031"><a xlink:title=" ">
<path fill="none" stroke="#63b8ff" d="M1452.63,-186.99C1380.41,-176.38 1257.11,-158.26 1180.47,-146.99"/>
<polygon fill="#63b8ff" stroke="#63b8ff" points="1180.85,-143.51 1170.44,-145.52 1179.83,-150.43 1180.85,-143.51"/>
</a>
</g>
</g>
<!-- Node32 -->
<g id="Node000032" class="node">
<title>Node32</title>
<g id="a_Node000032"><a xlink:title=" ">
<polygon fill="#e0e0e0" stroke="#999999" points="1160.5,-79.5 1102.5,-79.5 1102.5,-60.5 1160.5,-60.5 1160.5,-79.5"/>
<text text-anchor="middle" x="1131.5" y="-67.5" font-family="Helvetica,sans-Serif" font-size="10.00">memory</text>
</a>
</g>
</g>
<!-- Node27&#45;&gt;Node32 -->
<g id="edge53_Node000027_Node000032" class="edge">
<title>Node27&#45;&gt;Node32</title>
<g id="a_edge53_Node000027_Node000032"><a xlink:title=" ">
<path fill="none" stroke="#63b8ff" d="M1588.03,-187.35C1650.08,-177.9 1721.41,-158.54 1686.5,-121 1648.79,-80.46 1244.21,-93.52 1189.5,-85 1183.25,-84.03 1176.69,-82.72 1170.31,-81.3"/>
<polygon fill="#63b8ff" stroke="#63b8ff" points="1171.06,-77.88 1160.52,-79 1169.45,-84.69 1171.06,-77.88"/>
</a>
</g>
</g>
<!-- Node33 -->
<g id="Node000033" class="node">
<title>Node33</title>
<g id="a_Node000033"><a xlink:title=" ">
<polygon fill="#e0e0e0" stroke="#999999" points="1605.5,-145.5 1541.5,-145.5 1541.5,-126.5 1605.5,-126.5 1605.5,-145.5"/>
<text text-anchor="middle" x="1573.5" y="-133.5" font-family="Helvetica,sans-Serif" font-size="10.00">algorithm</text>
</a>
</g>
</g>
<!-- Node27&#45;&gt;Node33 -->
<g id="edge48_Node000027_Node000033" class="edge">
<title>Node27&#45;&gt;Node33</title>
<g id="a_edge48_Node000027_Node000033"><a xlink:title=" ">
<path fill="none" stroke="#63b8ff" d="M1519.8,-186.87C1529.47,-177.88 1544.84,-163.61 1556.66,-152.64"/>
<polygon fill="#63b8ff" stroke="#63b8ff" points="1559.22,-155.04 1564.17,-145.67 1554.46,-149.91 1559.22,-155.04"/>
</a>
</g>
</g>
<!-- Node34 -->
<g id="Node000034" class="node">
<title>Node34</title>
<g id="a_Node000034"><a xlink:title=" ">
<polygon fill="#e0e0e0" stroke="#999999" points="1677,-145.5 1624,-145.5 1624,-126.5 1677,-126.5 1677,-145.5"/>
<text text-anchor="middle" x="1650.5" y="-133.5" font-family="Helvetica,sans-Serif" font-size="10.00">cstddef</text>
</a>
</g>
</g>
<!-- Node27&#45;&gt;Node34 -->
<g id="edge50_Node000027_Node000034" class="edge">
<title>Node27&#45;&gt;Node34</title>
<g id="a_edge50_Node000027_Node000034"><a xlink:title=" ">
<path fill="none" stroke="#63b8ff" d="M1530.86,-186.99C1554.5,-177.12 1593.7,-160.73 1620.75,-149.43"/>
<polygon fill="#63b8ff" stroke="#63b8ff" points="1622.24,-152.6 1630.12,-145.52 1619.54,-146.14 1622.24,-152.6"/>
</a>
</g>
</g>
<!-- Node35 -->
<g id="Node000035" class="node">
<title>Node35</title>
<g id="a_Node000035"><a xlink:title=" ">
<polygon fill="#e0e0e0" stroke="#999999" points="1981,-145.5 1916,-145.5 1916,-126.5 1981,-126.5 1981,-145.5"/>
<text text-anchor="middle" x="1948.5" y="-133.5" font-family="Helvetica,sans-Serif" font-size="10.00">exception</text>
</a>
</g>
</g>
<!-- Node27&#45;&gt;Node35 -->
<g id="edge51_Node000027_Node000035" class="edge">
<title>Node27&#45;&gt;Node35</title>
<g id="a_edge51_Node000027_Node000035"><a xlink:title=" ">
<path fill="none" stroke="#63b8ff" d="M1588.29,-190.7C1667.65,-184.86 1794.06,-172.94 1901.5,-151 1905.22,-150.24 1909.08,-149.32 1912.9,-148.32"/>
<polygon fill="#63b8ff" stroke="#63b8ff" points="1914.16,-151.6 1922.85,-145.53 1912.28,-144.86 1914.16,-151.6"/>
</a>
</g>
</g>
<!-- Node27&#45;&gt;Node36 -->
<g id="edge52_Node000027_Node000036" class="edge">
<title>Node27&#45;&gt;Node36</title>
<g id="a_edge52_Node000027_Node000036"><a xlink:title=" ">
<path fill="none" stroke="#63b8ff" d="M1588.25,-193.93C1683.89,-190.71 1850.76,-180.89 1990.5,-151 1993.56,-150.34 1996.72,-149.53 1999.85,-148.63"/>
<polygon fill="#63b8ff" stroke="#63b8ff" points="2001.16,-151.89 2009.64,-145.53 1999.05,-145.21 2001.16,-151.89"/>
</a>
</g>
</g>
<!-- Node37 -->
<g id="Node000037" class="node">
<title>Node37</title>
<g id="a_Node000037"><a xlink:title=" ">
<polygon fill="#e0e0e0" stroke="#999999" points="1354,-145.5 1317,-145.5 1317,-126.5 1354,-126.5 1354,-145.5"/>
<text text-anchor="middle" x="1335.5" y="-133.5" font-family="Helvetica,sans-Serif" font-size="10.00">new</text>
</a>
</g>
</g>
<!-- Node27&#45;&gt;Node37 -->
<g id="edge54_Node000027_Node000037" class="edge">
<title>Node27&#45;&gt;Node37</title>
<g id="a_edge54_Node000027_Node000037"><a xlink:title=" ">
<path fill="none" stroke="#63b8ff" d="M1476.37,-186.93C1446.21,-178.95 1401.28,-166.04 1363.5,-151 1362.64,-150.66 1361.77,-150.3 1360.89,-149.93"/>
<polygon fill="#63b8ff" stroke="#63b8ff" points="1362.12,-146.64 1351.57,-145.62 1359.18,-152.99 1362.12,-146.64"/>
</a>
</g>
</g>
<!-- Node27&#45;&gt;Node38 -->
<g id="edge58_Node000027_Node000038" class="edge">
<title>Node27&#45;&gt;Node38</title>
<g id="a_edge58_Node000027_Node000038"><a xlink:title=" ">
<path fill="none" stroke="#63b8ff" d="M1588.09,-192.67C1720.36,-187.29 1983.88,-174.03 2073.5,-151 2075.23,-150.56 2076.98,-150.02 2078.73,-149.42"/>
<polygon fill="#63b8ff" stroke="#63b8ff" points="2080.5,-152.48 2088.47,-145.5 2077.89,-145.99 2080.5,-152.48"/>
</a>
</g>
</g>
<!-- Node28&#45;&gt;Node11 -->
<g id="edge40_Node000028_Node000011" class="edge">
<title>Node28&#45;&gt;Node11</title>
<g id="a_edge40_Node000028_Node000011"><a xlink:title=" ">
<path fill="none" stroke="#63b8ff" d="M1733.11,-123.09C1728.51,-122.35 1723.94,-121.64 1719.5,-121 1574.54,-100.12 1403.2,-84.01 1313.11,-76.2"/>
<polygon fill="#63b8ff" stroke="#63b8ff" points="1313.32,-72.7 1303.06,-75.33 1312.72,-79.68 1313.32,-72.7"/>
</a>
</g>
</g>
<!-- Node28&#45;&gt;Node24 -->
<g id="edge41_Node000028_Node000024" class="edge">
<title>Node28&#45;&gt;Node24</title>
<g id="a_edge41_Node000028_Node000024"><a xlink:title=" ">
<path fill="none" stroke="#63b8ff" d="M1749.1,-120.95C1707.73,-108.7 1648.82,-91.24 1612.71,-80.54"/>
<polygon fill="#63b8ff" stroke="#63b8ff" points="1613.3,-77.07 1602.72,-77.58 1611.32,-83.78 1613.3,-77.07"/>
</a>
</g>
</g>
<!-- Node28&#45;&gt;Node29 -->
<g id="edge42_Node000028_Node000029" class="edge">
<title>Node28&#45;&gt;Node29</title>
<g id="a_edge42_Node000028_Node000029"><a xlink:title=" ">
<path fill="none" stroke="#63b8ff" d="M1806.49,-120.8C1813.23,-111.21 1822.16,-98.5 1829.32,-88.32"/>
<polygon fill="#63b8ff" stroke="#63b8ff" points="1832.39,-90.04 1835.28,-79.84 1826.67,-86.01 1832.39,-90.04"/>
</a>
</g>
</g>
<!-- Node31&#45;&gt;Node9 -->
<g id="edge47_Node000031_Node000009" class="edge">
<title>Node31&#45;&gt;Node9</title>
<g id="a_edge47_Node000031_Node000009"><a xlink:title=" ">
<path fill="none" stroke="#63b8ff" d="M1063.47,-126.44C1051.4,-124.49 1038.5,-122.55 1026.5,-121 859.12,-99.43 813.85,-118.78 648.5,-85 645.1,-84.31 641.59,-83.44 638.1,-82.49"/>
<polygon fill="#63b8ff" stroke="#63b8ff" points="639.04,-79.12 628.46,-79.64 637.06,-85.84 639.04,-79.12"/>
</a>
</g>
</g>
<!-- Node31&#45;&gt;Node16 -->
<g id="edge45_Node000031_Node000016" class="edge">
<title>Node31&#45;&gt;Node16</title>
<g id="a_edge45_Node000031_Node000016"><a xlink:title=" ">
<path fill="none" stroke="#63b8ff" d="M1060.68,-126.44C1049.41,-124.61 1037.56,-122.72 1026.5,-121 918.74,-104.28 791.5,-85.87 727.92,-76.76"/>
<polygon fill="#63b8ff" stroke="#63b8ff" points="728.31,-73.28 717.91,-75.33 727.31,-80.21 728.31,-73.28"/>
</a>
</g>
</g>
<!-- Node31&#45;&gt;Node32 -->
<g id="edge46_Node000031_Node000032" class="edge">
<title>Node31&#45;&gt;Node32</title>
<g id="a_edge46_Node000031_Node000032"><a xlink:title=" ">
<path fill="none" stroke="#63b8ff" d="M1115.06,-126.37C1117.85,-116.97 1122.39,-101.67 1126,-89.53"/>
<polygon fill="#63b8ff" stroke="#63b8ff" points="1129.37,-90.49 1128.86,-79.91 1122.65,-88.5 1129.37,-90.49"/>
</a>
</g>
</g>
</g>
</svg>

<g id="navigator" transform="translate(0 0)" fill="#404254">
  <rect fill="#f2f5e9" fill-opacity="0.5" stroke="#606060" stroke-width=".5" x="0" y="0" width="60" height="60"/>
  <use id="zoomplus" xlink:href="#zoomPlus" x="17" y="9" onmousedown="handleZoom(evt,'in')"/>
  <use id="zoomminus" xlink:href="#zoomMin" x="42" y="9" onmousedown="handleZoom(evt,'out')"/>
  <use id="reset" xlink:href="#resetDef" x="30" y="36" onmousedown="handleReset()"/>
   <use id="arrowup" xlink:href="#arrowUp" x="0" y="0" onmousedown="handlePan(0,-1)"/>
  <use id="arrowright" xlink:href="#arrowRight" x="0" y="0" onmousedown="handlePan(1,0)"/>
  <use id="arrowdown" xlink:href="#arrowDown" x="0" y="0" onmousedown="handlePan(0,1)"/>
  <use id="arrowleft" xlink:href="#arrowLeft" x="0" y="0" onmousedown="handlePan(-1,0)"/>
</g>
<svg viewBox="0 0 15 15" width="100%" height="30px" preserveAspectRatio="xMaxYMin meet">
 <g id="arrow_out" transform="scale(0.3 0.3)">
  <a xlink:href="type-erased-problem_8cpp__incl_org.svg" target="_base">
   <rect id="button" ry="5" rx="5" y="6" x="6" height="38" width="38"
        fill="#f2f5e9" fill-opacity="0.5" stroke="#606060" stroke-width="1.0"/>
   <path id="arrow"
     d="M 11.500037,31.436501 C 11.940474,20.09759 22.043105,11.32322 32.158766,21.979434 L 37.068811,17.246167 C 37.068811,17.246167 37.088388,32 37.088388,32 L 22.160133,31.978069 C 22.160133,31.978069 26.997745,27.140456 26.997745,27.140456 C 18.528582,18.264221 13.291696,25.230495 11.500037,31.436501 z"
     style="fill:#404040;"/>
  </a>
 </g>
</svg>

<style type='text/css'>
<![CDATA[
[data-mouse-over-selected='false'] { opacity: 0.7; }
[data-mouse-over-selected='true']  { opacity: 1.0; }
]]>
</style>
<script type="application/ecmascript"><![CDATA[
document.addEventListener('DOMContentLoaded', (event) => {
  highlightEdges();
  highlightAdjacentNodes();
});
]]></script>
</svg>
